<?xml version="1.0" encoding="UTF-8" standalone="no"?>
<!DOCTYPE svg PUBLIC "-//W3C//DTD SVG 1.1//EN"
 "http://www.w3.org/Graphics/SVG/1.1/DTD/svg11.dtd">
<!-- Generated by graphviz version 2.40.1 (20161225.0304)
 -->
<!-- Title: G Pages: 1 -->
<svg width="1721pt" height="947pt"
 viewBox="0.00 0.00 1720.50 946.92" xmlns="http://www.w3.org/2000/svg" xmlns:xlink="http://www.w3.org/1999/xlink">
<g id="graph0" class="graph" transform="scale(1 1) rotate(0) translate(4 942.9242)">
<title>G</title>
<polygon fill="#ffffff" stroke="transparent" points="-4,4 -4,-942.9242 1716.5,-942.9242 1716.5,4 -4,4"/>
<text text-anchor="middle" x="856.25" y="-923.7242" font-family="Times,serif" font-size="14.00" fill="#000000">map of yak collective IT infrastructure (work in progress)</text>
<g id="clust1" class="cluster">
<title>cluster_4</title>
<polygon fill="none" stroke="#000000" points="227.5,-516.0019 227.5,-709.8888 534.5,-709.8888 534.5,-516.0019 227.5,-516.0019"/>
<text text-anchor="middle" x="381" y="-694.6888" font-family="Times,serif" font-size="14.00" fill="#000000">website functionality</text>
</g>
<g id="clust2" class="cluster">
<title>cluster_0</title>
<polygon fill="none" stroke="#000000" points="807.5,-797.1841 807.5,-872.1841 1002.5,-872.1841 1002.5,-797.1841 807.5,-797.1841"/>
<text text-anchor="middle" x="905" y="-856.9841" font-family="Times,serif" font-size="14.00" fill="#000000">not sure what connection is (yet)</text>
</g>
<g id="clust3" class="cluster">
<title>cluster_1</title>
<polygon fill="none" stroke="#000000" points="1010.5,-788.3048 1010.5,-896.0634 1414.5,-896.0634 1414.5,-788.3048 1010.5,-788.3048"/>
<text text-anchor="middle" x="1212.5" y="-880.8634" font-family="Times,serif" font-size="14.00" fill="#000000">unconnected and manually managed</text>
<text text-anchor="middle" x="1212.5" y="-865.8634" font-family="Times,serif" font-size="14.00" fill="#000000">not by members</text>
</g>
<g id="clust4" class="cluster">
<title>cluster_2</title>
<polygon fill="none" stroke="#000000" points="1422.5,-777.3871 1422.5,-891.9811 1704.5,-891.9811 1704.5,-777.3871 1422.5,-777.3871"/>
<text text-anchor="middle" x="1563.5" y="-876.7811" font-family="Times,serif" font-size="14.00" fill="#000000">in next version or two should be connected</text>
</g>
<g id="clust5" class="cluster">
<title>cluster_3</title>
<polygon fill="none" stroke="#000000" points="225.5,-761.444 225.5,-907.9242 799.5,-907.9242 799.5,-761.444 225.5,-761.444"/>
<text text-anchor="middle" x="512.5" y="-892.7242" font-family="Times,serif" font-size="14.00" fill="#000000">members&#39; web presence</text>
</g>
<!-- calandar -->
<g id="node1" class="node">
<title>calandar</title>
<g id="a_node1"><a xlink:href="https://tilnow.github.io/calandar.html" xlink:title="google\ncalandar">
<ellipse fill="none" stroke="#00ff00" cx="53.5" cy="-601.4453" rx="43.6951" ry="43.6951"/>
<ellipse fill="none" stroke="#00ff00" cx="53.5" cy="-601.4453" rx="47.6818" ry="47.6818"/>
<text text-anchor="middle" x="53.5" y="-605.2453" font-family="Times,serif" font-size="14.00" fill="#000000">google</text>
<text text-anchor="middle" x="53.5" y="-590.2453" font-family="Times,serif" font-size="14.00" fill="#000000">calandar</text>
</a>
</g>
</g>
<!-- carl -->
<g id="node10" class="node">
<title>carl</title>
<g id="a_node10"><a xlink:href="https://tilnow.github.io/carl.html" xlink:title="Carl">
<polygon fill="none" stroke="#00ff00" points="56.1825,-380.8969 57.9586,-380.9954 59.7163,-381.1429 61.4484,-381.3389 63.148,-381.5829 64.8083,-381.8742 66.4225,-382.212 67.9846,-382.5954 69.4886,-383.0234 70.9288,-383.4947 72.3,-384.0082 73.5976,-384.5623 74.8172,-385.1555 75.9549,-385.7863 77.0074,-386.4529 77.9717,-387.1535 78.8455,-387.8861 79.6269,-388.6487 80.3146,-389.4393 80.9075,-390.2557 81.4055,-391.0957 81.8085,-391.9569 82.1172,-392.8369 82.3325,-393.7335 82.4558,-394.6441 82.489,-395.5662 82.4342,-396.4972 82.2939,-397.4348 82.0711,-398.3762 81.7687,-399.3189 81.39,-400.2603 80.9386,-401.1978 80.4181,-402.1289 79.8324,-403.051 79.1853,-403.9616 78.4807,-404.8581 77.7225,-405.7382 76.9148,-406.5994 76.0613,-407.4393 75.1659,-408.2557 74.2323,-409.0463 73.2639,-409.809 72.2644,-410.5416 71.2368,-411.2422 70.1844,-411.9087 69.1099,-412.5395 68.0161,-413.1328 66.9054,-413.6869 65.7801,-414.2003 64.6423,-414.6717 63.4939,-415.0996 62.3365,-415.4831 61.1717,-415.8209 60.0009,-416.1122 58.8251,-416.3562 57.6455,-416.5522 56.463,-416.6996 55.2786,-416.7982 54.093,-416.8475 52.907,-416.8475 51.7214,-416.7982 50.537,-416.6996 49.3545,-416.5522 48.1749,-416.3562 46.9991,-416.1122 45.8283,-415.8209 44.6635,-415.4831 43.5061,-415.0996 42.3577,-414.6717 41.2199,-414.2003 40.0946,-413.6869 38.9839,-413.1328 37.8901,-412.5395 36.8156,-411.9087 35.7632,-411.2422 34.7356,-410.5416 33.7361,-409.809 32.7677,-409.0463 31.8341,-408.2557 30.9387,-407.4393 30.0852,-406.5994 29.2775,-405.7382 28.5193,-404.8581 27.8147,-403.9616 27.1676,-403.051 26.5819,-402.1289 26.0614,-401.1978 25.61,-400.2603 25.2313,-399.3189 24.9289,-398.3762 24.7061,-397.4348 24.5658,-396.4972 24.511,-395.5662 24.5442,-394.6441 24.6675,-393.7335 24.8828,-392.8369 25.1915,-391.9569 25.5945,-391.0957 26.0925,-390.2557 26.6854,-389.4393 27.3731,-388.6487 28.1545,-387.8861 29.0283,-387.1535 29.9926,-386.4529 31.0451,-385.7863 32.1828,-385.1555 33.4024,-384.5623 34.7,-384.0082 36.0712,-383.4947 37.5114,-383.0234 39.0154,-382.5954 40.5775,-382.212 42.1917,-381.8742 43.852,-381.5829 45.5516,-381.3389 47.2837,-381.1429 49.0414,-380.9954 50.8175,-380.8969 52.6046,-380.8475 54.3954,-380.8475 56.1825,-380.8969"/>
<text text-anchor="middle" x="53.5" y="-395.1475" font-family="Times,serif" font-size="14.00" fill="#000000">Carl</text>
</a>
</g>
</g>
<!-- calandar&#45;&gt;carl -->
<g id="edge17" class="edge">
<title>calandar&#45;&gt;carl</title>
<g id="a_edge17"><a xlink:href="https://tilnow.github.io/calbot.html" xlink:title="calandar yak">
<path fill="none" stroke="#000000" d="M53.5,-553.4325C53.5,-514.1141 53.5,-459.8231 53.5,-427.1466"/>
<polygon fill="#000000" stroke="#000000" points="57.0001,-426.9464 53.5,-416.9464 50.0001,-426.9465 57.0001,-426.9464"/>
</a>
</g>
<g id="a_edge17&#45;label"><a xlink:href="https://tilnow.github.io/calbot.html" xlink:title="calandar yak">
<text text-anchor="middle" x="88.5" y="-487.3019" font-family="Times,serif" font-size="14.00" fill="#000000">calandar yak</text>
</a>
</g>
</g>
<!-- docs -->
<g id="node2" class="node">
<title>docs</title>
<g id="a_node2"><a xlink:href="https://tilnow.github.io/docs.html" xlink:title="google docs">
<ellipse fill="none" stroke="#00ff00" cx="157.5" cy="-823.1841" rx="53.1055" ry="53.1055"/>
<ellipse fill="none" stroke="#00ff00" cx="157.5" cy="-823.1841" rx="57.0913" ry="57.0913"/>
<text text-anchor="middle" x="157.5" y="-819.4841" font-family="Times,serif" font-size="14.00" fill="#000000">google docs</text>
</a>
</g>
</g>
<!-- website -->
<g id="node15" class="node">
<title>website</title>
<g id="a_node15"><a xlink:href="https://tilnow.github.io/website.html" xlink:title="Yakcollective.org">
<ellipse fill="none" stroke="#00ff00" cx="312.5" cy="-601.4453" rx="73.3899" ry="73.3899"/>
<ellipse fill="none" stroke="#00ff00" cx="312.5" cy="-601.4453" rx="77.387" ry="77.387"/>
<text text-anchor="middle" x="312.5" y="-597.7453" font-family="Times,serif" font-size="14.00" fill="#000000">Yakcollective.org</text>
</a>
</g>
</g>
<!-- docs&#45;&gt;website -->
<g id="edge16" class="edge">
<title>docs&#45;&gt;website</title>
<g id="a_edge16"><a xlink:href="https://tilnow.github.io/hostproj.html" xlink:title="host\nprojects">
<path fill="none" stroke="#000000" d="M190.3715,-776.159C211.1798,-746.3912 238.4993,-707.3087 262.0222,-673.6575"/>
<polygon fill="#000000" stroke="#000000" points="265.0539,-675.4295 267.9145,-665.2281 259.3166,-671.419 265.0539,-675.4295"/>
</a>
</g>
<g id="a_edge16&#45;label"><a xlink:href="https://tilnow.github.io/hostproj.html" xlink:title="host\nprojects">
<text text-anchor="middle" x="251" y="-736.6888" font-family="Times,serif" font-size="14.00" fill="#000000">host</text>
<text text-anchor="middle" x="251" y="-721.6888" font-family="Times,serif" font-size="14.00" fill="#000000">projects</text>
</a>
</g>
</g>
<!-- forms -->
<g id="node3" class="node">
<title>forms</title>
<g id="a_node3"><a xlink:href="https://tilnow.github.io/forms.html" xlink:title="registration\nform">
<ellipse fill="none" stroke="#00ff00" cx="270.5" cy="-398.8475" rx="55.2986" ry="55.2986"/>
<ellipse fill="none" stroke="#00ff00" cx="270.5" cy="-398.8475" rx="59.3091" ry="59.3091"/>
<text text-anchor="middle" x="270.5" y="-402.6475" font-family="Times,serif" font-size="14.00" fill="#000000">registration</text>
<text text-anchor="middle" x="270.5" y="-387.6475" font-family="Times,serif" font-size="14.00" fill="#000000">form</text>
</a>
</g>
</g>
<!-- discord -->
<g id="node11" class="node">
<title>discord</title>
<g id="a_node11"><a xlink:href="https://tilnow.github.io/discord.html" xlink:title="Discord">
<ellipse fill="none" stroke="#00ff00" cx="217.5" cy="-231.3466" rx="38.2082" ry="38.2082"/>
<ellipse fill="none" stroke="#00ff00" cx="217.5" cy="-231.3466" rx="42.1937" ry="42.1937"/>
<text text-anchor="middle" x="217.5" y="-227.6466" font-family="Times,serif" font-size="14.00" fill="#000000">Discord</text>
</a>
</g>
</g>
<!-- forms&#45;&gt;discord -->
<g id="edge10" class="edge">
<title>forms&#45;&gt;discord</title>
<g id="a_edge10"><a xlink:href="https://tilnow.github.io/invite.html" xlink:title="invite">
<path fill="none" stroke="#000000" d="M252.5566,-342.1394C246.3424,-322.4999 239.4249,-300.638 233.3877,-281.558"/>
<polygon fill="#000000" stroke="#000000" points="236.673,-280.3387 230.3193,-271.8605 229.9991,-282.4505 236.673,-280.3387"/>
</a>
</g>
<g id="a_edge10&#45;label"><a xlink:href="https://tilnow.github.io/invite.html" xlink:title="invite">
<text text-anchor="middle" x="261" y="-302.9932" font-family="Times,serif" font-size="14.00" fill="#000000">invite</text>
</a>
</g>
</g>
<!-- ifttt -->
<g id="node4" class="node">
<title>ifttt</title>
<g id="a_node4"><a xlink:href="https://tilnow.github.io/ifttt.html" xlink:title="IFTT">
<polygon fill="none" stroke="#00ff00" points="139.3958,-380.8969 141.3131,-380.9954 143.2106,-381.1429 145.0805,-381.3389 146.9152,-381.5829 148.7074,-381.8742 150.4501,-382.212 152.1363,-382.5954 153.7599,-383.0234 155.3146,-383.4947 156.7949,-384.0082 158.1957,-384.5623 159.5122,-385.1555 160.7404,-385.7863 161.8765,-386.4529 162.9175,-387.1535 163.8608,-387.8861 164.7044,-388.6487 165.4467,-389.4393 166.0868,-390.2557 166.6244,-391.0957 167.0594,-391.9569 167.3926,-392.8369 167.625,-393.7335 167.7582,-394.6441 167.794,-395.5662 167.7348,-396.4972 167.5835,-397.4348 167.3429,-398.3762 167.0164,-399.3189 166.6076,-400.2603 166.1203,-401.1978 165.5585,-402.1289 164.9262,-403.051 164.2276,-403.9616 163.467,-404.8581 162.6486,-405.7382 161.7766,-406.5994 160.8552,-407.4393 159.8886,-408.2557 158.8807,-409.0463 157.8354,-409.809 156.7564,-410.5416 155.6472,-411.2422 154.511,-411.9087 153.3511,-412.5395 152.1703,-413.1328 150.9713,-413.6869 149.7565,-414.2003 148.5283,-414.6717 147.2886,-415.0996 146.0392,-415.4831 144.7818,-415.8209 143.5178,-416.1122 142.2485,-416.3562 140.9751,-416.5522 139.6986,-416.6996 138.42,-416.7982 137.1401,-416.8475 135.8599,-416.8475 134.58,-416.7982 133.3014,-416.6996 132.0249,-416.5522 130.7515,-416.3562 129.4822,-416.1122 128.2182,-415.8209 126.9608,-415.4831 125.7114,-415.0996 124.4717,-414.6717 123.2435,-414.2003 122.0287,-413.6869 120.8297,-413.1328 119.6489,-412.5395 118.489,-411.9087 117.3528,-411.2422 116.2436,-410.5416 115.1646,-409.809 114.1193,-409.0463 113.1114,-408.2557 112.1448,-407.4393 111.2234,-406.5994 110.3514,-405.7382 109.533,-404.8581 108.7724,-403.9616 108.0738,-403.051 107.4415,-402.1289 106.8797,-401.1978 106.3924,-400.2603 105.9836,-399.3189 105.6571,-398.3762 105.4165,-397.4348 105.2652,-396.4972 105.206,-395.5662 105.2418,-394.6441 105.375,-393.7335 105.6074,-392.8369 105.9406,-391.9569 106.3756,-391.0957 106.9132,-390.2557 107.5533,-389.4393 108.2956,-388.6487 109.1392,-387.8861 110.0825,-387.1535 111.1235,-386.4529 112.2596,-385.7863 113.4878,-385.1555 114.8043,-384.5623 116.2051,-384.0082 117.6854,-383.4947 119.2401,-383.0234 120.8637,-382.5954 122.5499,-382.212 124.2926,-381.8742 126.0848,-381.5829 127.9195,-381.3389 129.7894,-381.1429 131.6869,-380.9954 133.6042,-380.8969 135.5334,-380.8475 137.4666,-380.8475 139.3958,-380.8969"/>
<text text-anchor="middle" x="136.5" y="-395.1475" font-family="Times,serif" font-size="14.00" fill="#000000">IFTT</text>
</a>
</g>
</g>
<!-- twitter -->
<g id="node12" class="node">
<title>twitter</title>
<g id="a_node12"><a xlink:href="https://tilnow.github.io/twitter.html" xlink:title="Twitter">
<polygon fill="none" stroke="#00ff00" points="122.0647,-213.3959 124.4248,-213.4945 126.7605,-213.6419 129.0623,-213.8379 131.3208,-214.0819 133.527,-214.3732 135.6721,-214.7111 137.7479,-215.0945 139.7464,-215.5225 141.6602,-215.9938 143.4824,-216.5072 145.2068,-217.0613 146.8274,-217.6546 148.3392,-218.2854 149.7378,-218.952 151.0192,-219.6525 152.1804,-220.3851 153.2188,-221.1478 154.1325,-221.9384 154.9205,-222.7548 155.5822,-223.5947 156.1178,-224.4559 156.528,-225.336 156.814,-226.2326 156.9779,-227.1431 157.022,-228.0652 156.9492,-228.9963 156.7629,-229.9338 156.4667,-230.8753 156.0648,-231.8179 155.5616,-232.7593 154.9618,-233.6969 154.2702,-234.628 153.4918,-235.5501 152.6319,-236.4606 151.6956,-237.3572 150.6881,-238.2373 149.6148,-239.0985 148.4806,-239.9384 147.2907,-240.7548 146.0501,-241.5454 144.7633,-242.3081 143.4351,-243.0407 142.0696,-243.7412 140.671,-244.4078 139.2432,-245.0386 137.7897,-245.6319 136.3137,-246.186 134.8184,-246.6994 133.3065,-247.1707 131.7804,-247.5987 130.2424,-247.9821 128.6946,-248.32 127.1387,-248.6113 125.5762,-248.8553 124.0087,-249.0513 122.4374,-249.1987 120.8635,-249.2973 119.288,-249.3466 117.712,-249.3466 116.1365,-249.2973 114.5626,-249.1987 112.9913,-249.0513 111.4238,-248.8553 109.8613,-248.6113 108.3054,-248.32 106.7576,-247.9821 105.2196,-247.5987 103.6935,-247.1707 102.1816,-246.6994 100.6863,-246.186 99.2103,-245.6319 97.7568,-245.0386 96.329,-244.4078 94.9304,-243.7412 93.5649,-243.0407 92.2367,-242.3081 90.9499,-241.5454 89.7093,-240.7548 88.5194,-239.9384 87.3852,-239.0985 86.3119,-238.2373 85.3044,-237.3572 84.3681,-236.4606 83.5082,-235.5501 82.7298,-234.628 82.0382,-233.6969 81.4384,-232.7593 80.9352,-231.8179 80.5333,-230.8753 80.2371,-229.9338 80.0508,-228.9963 79.978,-228.0652 80.0221,-227.1431 80.186,-226.2326 80.472,-225.336 80.8822,-224.4559 81.4178,-223.5947 82.0795,-222.7548 82.8675,-221.9384 83.7812,-221.1478 84.8196,-220.3851 85.9808,-219.6525 87.2622,-218.952 88.6608,-218.2854 90.1726,-217.6546 91.7932,-217.0613 93.5176,-216.5072 95.3398,-215.9938 97.2536,-215.5225 99.2521,-215.0945 101.3279,-214.7111 103.473,-214.3732 105.6792,-214.0819 107.9377,-213.8379 110.2395,-213.6419 112.5752,-213.4945 114.9353,-213.3959 117.3101,-213.3466 119.6899,-213.3466 122.0647,-213.3959"/>
<text text-anchor="middle" x="118.5" y="-227.6466" font-family="Times,serif" font-size="14.00" fill="#000000">Twitter</text>
</a>
</g>
</g>
<!-- ifttt&#45;&gt;twitter -->
<g id="edge2" class="edge">
<title>ifttt&#45;&gt;twitter</title>
<g id="a_edge2"><a xlink:href="https://tilnow.github.io/feedupdates.html" xlink:title="feedupdates">
<path fill="none" stroke="#ff0000" d="M134.5394,-380.6031C131.4069,-351.4529 125.2494,-294.154 121.5417,-259.6515"/>
<polygon fill="#ff0000" stroke="#ff0000" points="124.9794,-258.8837 120.4309,-249.315 118.0195,-259.6317 124.9794,-258.8837"/>
</a>
</g>
<g id="a_edge2&#45;label"><a xlink:href="https://tilnow.github.io/feedupdates.html" xlink:title="feedupdates">
<text text-anchor="middle" x="161" y="-302.9932" font-family="Times,serif" font-size="14.00" fill="#000000">feedupdates</text>
</a>
</g>
</g>
<!-- dns -->
<g id="node5" class="node">
<title>dns</title>
<g id="a_node5"><a xlink:href="https://tilnow.github.io/dns.html" xlink:title="Namecheap">
<polygon fill="none" stroke="#00ff00" points="338.6939,-213.3959 342.1327,-213.4945 345.5359,-213.6419 348.8897,-213.8379 352.1804,-214.0819 355.3949,-214.3732 358.5204,-214.7111 361.5449,-215.0945 364.4568,-215.5225 367.2453,-215.9938 369.9003,-216.5072 372.4127,-217.0613 374.7741,-217.6546 376.9769,-218.2854 379.0146,-218.952 380.8817,-219.6525 382.5736,-220.3851 384.0865,-221.1478 385.4179,-221.9384 386.5661,-222.7548 387.5302,-223.5947 388.3105,-224.4559 388.9081,-225.336 389.325,-226.2326 389.5637,-227.1431 389.628,-228.0652 389.5219,-228.9963 389.2504,-229.9338 388.8189,-230.8753 388.2333,-231.8179 387.5002,-232.7593 386.6262,-233.6969 385.6185,-234.628 384.4844,-235.5501 383.2314,-236.4606 381.8672,-237.3572 380.3993,-238.2373 378.8354,-239.0985 377.1829,-239.9384 375.4492,-240.7548 373.6415,-241.5454 371.7666,-242.3081 369.8313,-243.0407 367.8418,-243.7412 365.804,-244.4078 363.7236,-245.0386 361.6058,-245.6319 359.4553,-246.186 357.2765,-246.6994 355.0736,-247.1707 352.85,-247.5987 350.6092,-247.9821 348.3539,-248.32 346.0869,-248.6113 343.8103,-248.8553 341.5264,-249.0513 339.237,-249.1987 336.9437,-249.2973 334.6481,-249.3466 332.3519,-249.3466 330.0563,-249.2973 327.763,-249.1987 325.4736,-249.0513 323.1897,-248.8553 320.9131,-248.6113 318.6461,-248.32 316.3908,-247.9821 314.15,-247.5987 311.9264,-247.1707 309.7235,-246.6994 307.5447,-246.186 305.3942,-245.6319 303.2764,-245.0386 301.196,-244.4078 299.1582,-243.7412 297.1687,-243.0407 295.2334,-242.3081 293.3585,-241.5454 291.5508,-240.7548 289.8171,-239.9384 288.1646,-239.0985 286.6007,-238.2373 285.1328,-237.3572 283.7686,-236.4606 282.5156,-235.5501 281.3815,-234.628 280.3738,-233.6969 279.4998,-232.7593 278.7667,-231.8179 278.1811,-230.8753 277.7496,-229.9338 277.4781,-228.9963 277.372,-228.0652 277.4363,-227.1431 277.675,-226.2326 278.0919,-225.336 278.6895,-224.4559 279.4698,-223.5947 280.4339,-222.7548 281.5821,-221.9384 282.9135,-221.1478 284.4264,-220.3851 286.1183,-219.6525 287.9854,-218.952 290.0231,-218.2854 292.2259,-217.6546 294.5873,-217.0613 297.0997,-216.5072 299.7547,-215.9938 302.5432,-215.5225 305.4551,-215.0945 308.4796,-214.7111 311.6051,-214.3732 314.8196,-214.0819 318.1103,-213.8379 321.4641,-213.6419 324.8673,-213.4945 328.3061,-213.3959 331.7663,-213.3466 335.2337,-213.3466 338.6939,-213.3959"/>
<text text-anchor="middle" x="333.5" y="-227.6466" font-family="Times,serif" font-size="14.00" fill="#000000">Namecheap</text>
</a>
</g>
</g>
<!-- netlify -->
<g id="node7" class="node">
<title>netlify</title>
<g id="a_node7"><a xlink:href="https://tilnow.github.io/netlify.html" xlink:title="Netlify">
<polygon fill="none" stroke="#00ff00" points="421.029,-87.0493 423.3655,-87.1479 425.6778,-87.2953 427.9566,-87.4913 430.1924,-87.7353 432.3765,-88.0266 434.5002,-88.3645 436.5552,-88.7479 438.5337,-89.1759 440.4284,-89.6472 442.2323,-90.1606 443.9394,-90.7147 445.5438,-91.308 447.0405,-91.9388 448.4251,-92.6054 449.6937,-93.3059 450.8432,-94.0385 451.8712,-94.8012 452.7758,-95.5918 453.5559,-96.4082 454.211,-97.2481 454.7412,-98.1093 455.1473,-98.9894 455.4305,-99.886 455.5927,-100.7965 455.6364,-101.7186 455.5643,-102.6497 455.3798,-103.5873 455.0866,-104.5287 454.6888,-105.4713 454.1906,-106.4127 453.5968,-107.3503 452.9121,-108.2814 452.1415,-109.2035 451.2902,-110.114 450.3633,-111.0106 449.3659,-111.8907 448.3033,-112.7519 447.1805,-113.5918 446.0025,-114.4082 444.7743,-115.1988 443.5004,-115.9615 442.1854,-116.6941 440.8336,-117.3946 439.4491,-118.0612 438.0356,-118.692 436.5966,-119.2853 435.1354,-119.8394 433.6551,-120.3528 432.1583,-120.8241 430.6475,-121.2521 429.1249,-121.6355 427.5925,-121.9734 426.0522,-122.2647 424.5054,-122.5087 422.9536,-122.7047 421.398,-122.8521 419.8398,-122.9507 418.2801,-123 416.7199,-123 415.1602,-122.9507 413.602,-122.8521 412.0464,-122.7047 410.4946,-122.5087 408.9478,-122.2647 407.4075,-121.9734 405.8751,-121.6355 404.3525,-121.2521 402.8417,-120.8241 401.3449,-120.3528 399.8646,-119.8394 398.4034,-119.2853 396.9644,-118.692 395.5509,-118.0612 394.1664,-117.3946 392.8146,-116.6941 391.4996,-115.9615 390.2257,-115.1988 388.9975,-114.4082 387.8195,-113.5918 386.6967,-112.7519 385.6341,-111.8907 384.6367,-111.0106 383.7098,-110.114 382.8585,-109.2035 382.0879,-108.2814 381.4032,-107.3503 380.8094,-106.4127 380.3112,-105.4713 379.9134,-104.5287 379.6202,-103.5873 379.4357,-102.6497 379.3636,-101.7186 379.4073,-100.7965 379.5695,-99.886 379.8527,-98.9894 380.2588,-98.1093 380.789,-97.2481 381.4441,-96.4082 382.2242,-95.5918 383.1288,-94.8012 384.1568,-94.0385 385.3063,-93.3059 386.5749,-92.6054 387.9595,-91.9388 389.4562,-91.308 391.0606,-90.7147 392.7677,-90.1606 394.5716,-89.6472 396.4663,-89.1759 398.4448,-88.7479 400.4998,-88.3645 402.6235,-88.0266 404.8076,-87.7353 407.0434,-87.4913 409.3222,-87.2953 411.6345,-87.1479 413.971,-87.0493 416.322,-87 418.678,-87 421.029,-87.0493"/>
<text text-anchor="middle" x="417.5" y="-101.3" font-family="Times,serif" font-size="14.00" fill="#000000">Netlify</text>
</a>
</g>
</g>
<!-- dns&#45;&gt;netlify -->
<g id="edge8" class="edge">
<title>dns&#45;&gt;netlify</title>
<g id="a_edge8"><a xlink:href="https://tilnow.github.io/cname.html" xlink:title="CNAME">
<path fill="none" stroke="#ff0000" d="M333.2992,-213.2854C333.9658,-193.6682 337.7098,-162.2908 353.5,-141 360.3027,-131.8276 370.1808,-124.6664 380.1492,-119.2321"/>
<polygon fill="#ff0000" stroke="#ff0000" points="381.842,-122.2994 389.2435,-114.7187 378.7301,-116.0291 381.842,-122.2994"/>
</a>
</g>
<g id="a_edge8&#45;label"><a xlink:href="https://tilnow.github.io/cname.html" xlink:title="CNAME">
<text text-anchor="middle" x="378.5" y="-152.3" font-family="Times,serif" font-size="14.00" fill="#000000">CNAME</text>
</a>
</g>
</g>
<!-- github -->
<g id="node6" class="node">
<title>github</title>
<g id="a_node6"><a xlink:href="https://tilnow.github.io/github.html" xlink:title="GitHub">
<polygon fill="none" stroke="#00ff00" points="590.1464,-380.8969 592.5606,-380.9954 594.9498,-381.1429 597.3044,-381.3389 599.6146,-381.5829 601.8714,-381.8742 604.0657,-382.212 606.189,-382.5954 608.2333,-383.0234 610.191,-383.4947 612.055,-384.0082 613.8188,-384.5623 615.4766,-385.1555 617.0231,-385.7863 618.4537,-386.4529 619.7645,-387.1535 620.9523,-387.8861 622.0145,-388.6487 622.9492,-389.4393 623.7552,-390.2557 624.4321,-391.0957 624.98,-391.9569 625.3995,-392.8369 625.6921,-393.7335 625.8598,-394.6441 625.9049,-395.5662 625.8304,-396.4972 625.6398,-397.4348 625.3368,-398.3762 624.9258,-399.3189 624.411,-400.2603 623.7975,-401.1978 623.09,-402.1289 622.2938,-403.051 621.4142,-403.9616 620.4564,-404.8581 619.4258,-405.7382 618.3279,-406.5994 617.1677,-407.4393 615.9506,-408.2557 614.6815,-409.0463 613.3652,-409.809 612.0065,-410.5416 610.6098,-411.2422 609.1792,-411.9087 607.7186,-412.5395 606.2318,-413.1328 604.722,-413.6869 603.1924,-414.2003 601.6458,-414.6717 600.0848,-415.0996 598.5116,-415.4831 596.9283,-415.8209 595.3367,-416.1122 593.7384,-416.3562 592.135,-416.5522 590.5277,-416.6996 588.9176,-416.7982 587.3061,-416.8475 585.6939,-416.8475 584.0824,-416.7982 582.4723,-416.6996 580.865,-416.5522 579.2616,-416.3562 577.6633,-416.1122 576.0717,-415.8209 574.4884,-415.4831 572.9152,-415.0996 571.3542,-414.6717 569.8076,-414.2003 568.278,-413.6869 566.7682,-413.1328 565.2814,-412.5395 563.8208,-411.9087 562.3902,-411.2422 560.9935,-410.5416 559.6348,-409.809 558.3185,-409.0463 557.0494,-408.2557 555.8323,-407.4393 554.6721,-406.5994 553.5742,-405.7382 552.5436,-404.8581 551.5858,-403.9616 550.7062,-403.051 549.91,-402.1289 549.2025,-401.1978 548.589,-400.2603 548.0742,-399.3189 547.6632,-398.3762 547.3602,-397.4348 547.1696,-396.4972 547.0951,-395.5662 547.1402,-394.6441 547.3079,-393.7335 547.6005,-392.8369 548.02,-391.9569 548.5679,-391.0957 549.2448,-390.2557 550.0508,-389.4393 550.9855,-388.6487 552.0477,-387.8861 553.2355,-387.1535 554.5463,-386.4529 555.9769,-385.7863 557.5234,-385.1555 559.1812,-384.5623 560.945,-384.0082 562.809,-383.4947 564.7667,-383.0234 566.811,-382.5954 568.9343,-382.212 571.1286,-381.8742 573.3854,-381.5829 575.6956,-381.3389 578.0502,-381.1429 580.4394,-380.9954 582.8536,-380.8969 585.2829,-380.8475 587.7171,-380.8475 590.1464,-380.8969"/>
<text text-anchor="middle" x="586.5" y="-395.1475" font-family="Times,serif" font-size="14.00" fill="#000000">GitHub</text>
</a>
</g>
</g>
<!-- jekyll -->
<g id="node8" class="node">
<title>jekyll</title>
<g id="a_node8"><a xlink:href="https://tilnow.github.io/jekyll.html" xlink:title="Jekyll">
<polygon fill="none" stroke="#0000ff" points="529.5,-249.3466 475.5,-249.3466 475.5,-213.3466 529.5,-213.3466 529.5,-249.3466"/>
<text text-anchor="middle" x="502.5" y="-227.6466" font-family="Times,serif" font-size="14.00" fill="#000000">Jekyll</text>
</a>
</g>
</g>
<!-- github&#45;&gt;jekyll -->
<g id="edge19" class="edge">
<title>github&#45;&gt;jekyll</title>
<g id="a_edge19"><a xlink:href="https://tilnow.github.io/mdfiles.html" xlink:title="md files\nand others">
<path fill="none" stroke="#ff0000" d="M577.5105,-380.922C562.771,-351.5305 533.3785,-292.9201 516.0861,-258.438"/>
<polygon fill="#ff0000" stroke="#ff0000" points="519.1633,-256.7664 511.5518,-249.3964 512.906,-259.9044 519.1633,-256.7664"/>
</a>
</g>
<g id="a_edge19&#45;label"><a xlink:href="https://tilnow.github.io/mdfiles.html" xlink:title="md files\nand others">
<text text-anchor="middle" x="575" y="-310.4932" font-family="Times,serif" font-size="14.00" fill="#000000">md files</text>
<text text-anchor="middle" x="575" y="-295.4932" font-family="Times,serif" font-size="14.00" fill="#000000">and others</text>
</a>
</g>
</g>
<!-- internet -->
<g id="node9" class="node">
<title>internet</title>
<g id="a_node9"><a xlink:href="https://tilnow.github.io/internet.html" xlink:title="Internet">
<polygon fill="none" stroke="#00ff00" points="421.2638,-.0493 423.7558,-.1479 426.222,-.2953 428.6524,-.4913 431.037,-.7353 433.3665,-1.0266 435.6315,-1.3645 437.8232,-1.7479 439.9333,-2.1759 441.9541,-2.6472 443.8781,-3.1606 445.6987,-3.7147 447.4099,-4.308 449.0062,-4.9388 450.4829,-5.6054 451.836,-6.3059 453.062,-7.0385 454.1584,-7.8012 455.1232,-8.5918 455.9552,-9.4082 456.6539,-10.2481 457.2194,-11.1093 457.6524,-11.9894 457.9545,-12.886 458.1275,-13.7965 458.1741,-14.7186 458.0972,-15.6497 457.9004,-16.5873 457.5877,-17.5287 457.1634,-18.4713 456.6321,-19.4127 455.9988,-20.3503 455.2685,-21.2814 454.4467,-22.2035 453.5387,-23.114 452.5501,-24.0106 451.4863,-24.8907 450.353,-25.7519 449.1555,-26.5918 447.8992,-27.4082 446.5892,-28.1988 445.2305,-28.9615 443.8281,-29.6941 442.3863,-30.3946 440.9096,-31.0612 439.402,-31.692 437.8673,-32.2853 436.3089,-32.8394 434.7301,-33.3528 433.1337,-33.8241 431.5223,-34.2521 429.8984,-34.6355 428.2641,-34.9734 426.6213,-35.2647 424.9715,-35.5087 423.3165,-35.7047 421.6574,-35.8521 419.9955,-35.9507 418.332,-36 416.668,-36 415.0045,-35.9507 413.3426,-35.8521 411.6835,-35.7047 410.0285,-35.5087 408.3787,-35.2647 406.7359,-34.9734 405.1016,-34.6355 403.4777,-34.2521 401.8663,-33.8241 400.2699,-33.3528 398.6911,-32.8394 397.1327,-32.2853 395.598,-31.692 394.0904,-31.0612 392.6137,-30.3946 391.1719,-29.6941 389.7695,-28.9615 388.4108,-28.1988 387.1008,-27.4082 385.8445,-26.5918 384.647,-25.7519 383.5137,-24.8907 382.4499,-24.0106 381.4613,-23.114 380.5533,-22.2035 379.7315,-21.2814 379.0012,-20.3503 378.3679,-19.4127 377.8366,-18.4713 377.4123,-17.5287 377.0996,-16.5873 376.9028,-15.6497 376.8259,-14.7186 376.8725,-13.7965 377.0455,-12.886 377.3476,-11.9894 377.7806,-11.1093 378.3461,-10.2481 379.0448,-9.4082 379.8768,-8.5918 380.8416,-7.8012 381.938,-7.0385 383.164,-6.3059 384.5171,-5.6054 385.9938,-4.9388 387.5901,-4.308 389.3013,-3.7147 391.1219,-3.1606 393.0459,-2.6472 395.0667,-2.1759 397.1768,-1.7479 399.3685,-1.3645 401.6335,-1.0266 403.963,-.7353 406.3476,-.4913 408.778,-.2953 411.2442,-.1479 413.7362,-.0493 416.2437,0 418.7563,0 421.2638,-.0493"/>
<text text-anchor="middle" x="417.5" y="-14.3" font-family="Times,serif" font-size="14.00" fill="#000000">Internet</text>
</a>
</g>
</g>
<!-- netlify&#45;&gt;internet -->
<g id="edge21" class="edge">
<title>netlify&#45;&gt;internet</title>
<g id="a_edge21"><a xlink:href="https://tilnow.github.io/deploy.html" xlink:title="Deploy">
<path fill="none" stroke="#ff0000" d="M417.5,-86.9735C417.5,-75.1918 417.5,-59.5607 417.5,-46.1581"/>
<polygon fill="#ff0000" stroke="#ff0000" points="421.0001,-46.0033 417.5,-36.0034 414.0001,-46.0034 421.0001,-46.0033"/>
</a>
</g>
<g id="a_edge21&#45;label"><a xlink:href="https://tilnow.github.io/deploy.html" xlink:title="Deploy">
<text text-anchor="middle" x="437.5" y="-57.8" font-family="Times,serif" font-size="14.00" fill="#000000">Deploy</text>
</a>
</g>
</g>
<!-- netlify&#45;&gt;website -->
<g id="edge22" class="edge">
<title>netlify&#45;&gt;website</title>
<g id="a_edge22"><a xlink:href="https://tilnow.github.io/deploy.html" xlink:title="Deploy">
<path fill="none" stroke="#ff0000" d="M416.1583,-123.0727C413.7036,-154.0539 407.8641,-219.232 398.5,-273.6932 380.5377,-378.1612 373.3808,-404.0111 344.5,-506.0019 343.3483,-510.0691 342.1285,-514.2198 340.8639,-518.4018"/>
<polygon fill="#ff0000" stroke="#ff0000" points="337.447,-517.6049 337.8425,-528.1924 344.1357,-519.6691 337.447,-517.6049"/>
</a>
</g>
<g id="a_edge22&#45;label"><a xlink:href="https://tilnow.github.io/deploy.html" xlink:title="Deploy">
<text text-anchor="middle" x="414.5" y="-302.9932" font-family="Times,serif" font-size="14.00" fill="#000000">Deploy</text>
</a>
</g>
</g>
<!-- jekyll&#45;&gt;netlify -->
<g id="edge20" class="edge">
<title>jekyll&#45;&gt;netlify</title>
<g id="a_edge20"><a xlink:href="https://tilnow.github.io/rendered website.html" xlink:title="Rendered\nwebsite">
<path fill="none" stroke="#ff0000" d="M490.3216,-213.2442C475.6851,-191.4881 451.0374,-154.851 434.5234,-130.3041"/>
<polygon fill="#ff0000" stroke="#ff0000" points="437.3269,-128.2009 428.8409,-121.8575 431.5189,-132.1083 437.3269,-128.2009"/>
</a>
</g>
<g id="a_edge20&#45;label"><a xlink:href="https://tilnow.github.io/rendered website.html" xlink:title="Rendered\nwebsite">
<text text-anchor="middle" x="485.5" y="-159.8" font-family="Times,serif" font-size="14.00" fill="#000000">Rendered</text>
<text text-anchor="middle" x="485.5" y="-144.8" font-family="Times,serif" font-size="14.00" fill="#000000">website</text>
</a>
</g>
</g>
<!-- carl&#45;&gt;discord -->
<g id="edge18" class="edge">
<title>carl&#45;&gt;discord</title>
<g id="a_edge18"><a xlink:href="https://tilnow.github.io/reminders.html" xlink:title="reminders">
<path fill="none" stroke="#ff0000" d="M49.8188,-380.6149C46.1776,-356.8556 43.9855,-315.5377 66.5,-291.6932 97.5032,-258.8586 125.557,-292.7451 166.5,-273.6932 170.6019,-271.7845 174.6467,-269.4633 178.5552,-266.9015"/>
<polygon fill="#ff0000" stroke="#ff0000" points="180.7545,-269.6319 186.863,-260.9752 176.6895,-263.9331 180.7545,-269.6319"/>
</a>
</g>
<g id="a_edge18&#45;label"><a xlink:href="https://tilnow.github.io/reminders.html" xlink:title="reminders">
<text text-anchor="middle" x="94" y="-302.9932" font-family="Times,serif" font-size="14.00" fill="#000000">reminders</text>
</a>
</g>
</g>
<!-- welcomer -->
<g id="node13" class="node">
<title>welcomer</title>
<g id="a_node13"><a xlink:href="https://tilnow.github.io/welcomer.html" xlink:title="welcome bot">
<polygon fill="none" stroke="#0000ff" points="262,-123 175,-123 175,-87 262,-87 262,-123"/>
<text text-anchor="middle" x="218.5" y="-101.3" font-family="Times,serif" font-size="14.00" fill="#000000">welcome bot</text>
</a>
</g>
</g>
<!-- discord&#45;&gt;welcomer -->
<g id="edge11" class="edge">
<title>discord&#45;&gt;welcomer</title>
<g id="a_edge11"><a xlink:href="https://tilnow.github.io/newby.html" xlink:title="newby">
<path fill="none" stroke="#ff0000" d="M249.2714,-202.8498C257.4528,-193.5906 265.1663,-182.6681 269.5,-171 274.1423,-158.5009 275.6342,-152.8385 269.5,-141 267.3957,-136.9389 264.5992,-133.2384 261.3958,-129.89"/>
<polygon fill="#ff0000" stroke="#ff0000" points="263.6261,-127.1888 253.8441,-123.1188 258.953,-132.4005 263.6261,-127.1888"/>
</a>
</g>
<g id="a_edge11&#45;label"><a xlink:href="https://tilnow.github.io/newby.html" xlink:title="newby">
<text text-anchor="middle" x="292" y="-152.3" font-family="Times,serif" font-size="14.00" fill="#000000">newby</text>
</a>
</g>
</g>
<!-- yakyak -->
<g id="node14" class="node">
<title>yakyak</title>
<g id="a_node14"><a xlink:href="https://tilnow.github.io/yakyak.html" xlink:title="yakyak carl&#45;bot">
<polygon fill="none" stroke="#0000ff" points="101,-123 0,-123 0,-87 101,-87 101,-123"/>
<text text-anchor="middle" x="50.5" y="-101.3" font-family="Times,serif" font-size="14.00" fill="#000000">yakyak carl&#45;bot</text>
</a>
</g>
</g>
<!-- discord&#45;&gt;yakyak -->
<g id="edge13" class="edge">
<title>discord&#45;&gt;yakyak</title>
<g id="a_edge13"><a xlink:href="https://tilnow.github.io/newby.html" xlink:title="newby">
<path fill="none" stroke="#ff0000" d="M187.2846,-201.617C180.8528,-196.6819 173.7883,-192.1524 166.5,-189 136.6987,-176.11 42.9988,-195.3326 21.5,-171 11.5072,-159.69 17.3628,-144.391 26.3536,-131.3703"/>
<polygon fill="#ff0000" stroke="#ff0000" points="29.2978,-133.2815 32.5795,-123.2078 23.732,-129.0363 29.2978,-133.2815"/>
</a>
</g>
<g id="a_edge13&#45;label"><a xlink:href="https://tilnow.github.io/newby.html" xlink:title="newby">
<text text-anchor="middle" x="40" y="-152.3" font-family="Times,serif" font-size="14.00" fill="#000000">newby</text>
</a>
</g>
</g>
<!-- welcomer&#45;&gt;discord -->
<g id="edge12" class="edge">
<title>welcomer&#45;&gt;discord</title>
<g id="a_edge12"><a xlink:href="https://tilnow.github.io/welcoming.html" xlink:title="welcoming">
<path fill="none" stroke="#000000" d="M174.9439,-113.5596C159.8413,-118.8413 144.4626,-127.3433 135.5,-141 128.1844,-152.1472 128.8476,-159.4448 135.5,-171 143.4489,-184.8073 153.437,-179.8795 166.5,-189 170.155,-191.5519 173.8716,-194.3011 177.5473,-197.1293"/>
<polygon fill="#000000" stroke="#000000" points="175.4723,-199.9504 185.4894,-203.4014 179.8107,-194.4569 175.4723,-199.9504"/>
</a>
</g>
<g id="a_edge12&#45;label"><a xlink:href="https://tilnow.github.io/welcoming.html" xlink:title="welcoming">
<text text-anchor="middle" x="166" y="-152.3" font-family="Times,serif" font-size="14.00" fill="#000000">welcoming</text>
</a>
</g>
</g>
<!-- welcomer&#45;&gt;discord -->
<g id="edge15" class="edge">
<title>welcomer&#45;&gt;discord</title>
<g id="a_edge15"><a xlink:href="https://tilnow.github.io/welcoming.html" xlink:title="welcome\nnew user">
<path fill="none" stroke="#000000" d="M216.6791,-123.2957C216.1947,-128.9642 215.7398,-135.2351 215.5,-141 214.9957,-153.124 214.9787,-166.1688 215.2005,-178.4714"/>
<polygon fill="#000000" stroke="#000000" points="211.7044,-178.6792 215.4376,-188.5945 218.7024,-178.5153 211.7044,-178.6792"/>
</a>
</g>
<g id="a_edge15&#45;label"><a xlink:href="https://tilnow.github.io/welcoming.html" xlink:title="welcome\nnew user">
<text text-anchor="middle" x="240.5" y="-159.8" font-family="Times,serif" font-size="14.00" fill="#000000">welcome</text>
<text text-anchor="middle" x="240.5" y="-144.8" font-family="Times,serif" font-size="14.00" fill="#000000">new user</text>
</a>
</g>
</g>
<!-- yakyak&#45;&gt;discord -->
<g id="edge14" class="edge">
<title>yakyak&#45;&gt;discord</title>
<g id="a_edge14"><a xlink:href="https://tilnow.github.io/prune.html" xlink:title="prune">
<path fill="none" stroke="#000000" d="M58.3403,-123.1439C65.767,-138.192 78.3397,-158.9978 95.5,-171 122.1765,-189.6579 137.4852,-174.2387 166.5,-189 170.5324,-191.0515 174.5291,-193.4716 178.4058,-196.0986"/>
<polygon fill="#000000" stroke="#000000" points="176.5249,-199.0586 186.6685,-202.1175 180.6464,-193.4005 176.5249,-199.0586"/>
</a>
</g>
<g id="a_edge14&#45;label"><a xlink:href="https://tilnow.github.io/prune.html" xlink:title="prune">
<text text-anchor="middle" x="111" y="-152.3" font-family="Times,serif" font-size="14.00" fill="#000000">prune</text>
</a>
</g>
</g>
<!-- website&#45;&gt;forms -->
<g id="edge9" class="edge">
<title>website&#45;&gt;forms</title>
<g id="a_edge9"><a xlink:href="https://tilnow.github.io/newuserdata.html" xlink:title="minimal\nuser data">
<path fill="none" stroke="#ff0000" d="M296.7413,-525.429C292.7557,-506.2035 288.501,-485.68 284.603,-466.8769"/>
<polygon fill="#ff0000" stroke="#ff0000" points="287.9966,-466.0043 282.5395,-456.923 281.1423,-467.4253 287.9966,-466.0043"/>
</a>
</g>
<g id="a_edge9&#45;label"><a xlink:href="https://tilnow.github.io/newuserdata.html" xlink:title="minimal\nuser data">
<text text-anchor="middle" x="316" y="-494.8019" font-family="Times,serif" font-size="14.00" fill="#000000">minimal</text>
<text text-anchor="middle" x="316" y="-479.8019" font-family="Times,serif" font-size="14.00" fill="#000000">user data</text>
</a>
</g>
</g>
<!-- website&#45;&gt;ifttt -->
<g id="edge1" class="edge">
<title>website&#45;&gt;ifttt</title>
<g id="a_edge1"><a xlink:href="https://tilnow.github.io/feedupdates.html" xlink:title="feedupdates">
<path fill="none" stroke="#ff0000" d="M256.4263,-547.6571C243.2947,-534.3731 229.6114,-519.946 217.5,-506.0019 193.8747,-478.8015 169.2647,-445.4062 153.4627,-423.1992"/>
<polygon fill="#ff0000" stroke="#ff0000" points="156.2887,-421.1335 147.6584,-414.9879 150.5725,-425.1741 156.2887,-421.1335"/>
</a>
</g>
<g id="a_edge1&#45;label"><a xlink:href="https://tilnow.github.io/feedupdates.html" xlink:title="feedupdates">
<text text-anchor="middle" x="250" y="-487.3019" font-family="Times,serif" font-size="14.00" fill="#000000">feedupdates</text>
</a>
</g>
</g>
<!-- netlifyrt -->
<g id="node16" class="node">
<title>netlifyrt</title>
<g id="a_node16"><a xlink:href="https://tilnow.github.io/netlifyrt.html" xlink:title="netlify\nbackending">
<polygon fill="none" stroke="#00ff00" points="473.0039,-574.7596 476.6479,-574.9061 480.2542,-575.1253 483.8081,-575.4167 487.2953,-575.7794 490.7016,-576.2125 494.0137,-576.7147 497.2187,-577.2847 500.3044,-577.9209 503.2593,-578.6217 506.0728,-579.3849 508.7351,-580.2087 511.2374,-581.0906 513.5717,-582.0283 515.731,-583.0193 517.7096,-584.0607 519.5024,-585.1499 521.1056,-586.2836 522.5165,-587.459 523.7331,-588.6726 524.7548,-589.9213 525.5817,-591.2016 526.215,-592.5099 526.6567,-593.8427 526.9097,-595.1964 526.9778,-596.5672 526.8654,-597.9514 526.5777,-599.3451 526.1204,-600.7446 525.4999,-602.146 524.723,-603.5455 523.7969,-604.9393 522.729,-606.3235 521.5273,-607.6943 520.1995,-609.0479 518.7538,-610.3808 517.1983,-611.6891 515.5411,-612.9694 513.7899,-614.218 511.9528,-615.4317 510.0372,-616.607 508.0505,-617.7408 505.9996,-618.8299 503.8914,-619.8714 501.732,-620.8623 499.5274,-621.8001 497.2832,-622.682 495.0043,-623.5058 492.6956,-624.269 490.3611,-624.9697 488.0049,-625.606 485.6303,-626.176 483.2404,-626.6782 480.8381,-627.1113 478.4257,-627.474 476.0054,-627.7653 473.5793,-627.9846 471.1492,-628.1311 468.7167,-628.2044 466.2833,-628.2044 463.8508,-628.1311 461.4207,-627.9846 458.9946,-627.7653 456.5743,-627.474 454.1619,-627.1113 451.7596,-626.6782 449.3697,-626.176 446.9951,-625.606 444.6389,-624.9697 442.3044,-624.269 439.9957,-623.5058 437.7168,-622.682 435.4726,-621.8001 433.268,-620.8623 431.1086,-619.8714 429.0004,-618.8299 426.9495,-617.7408 424.9628,-616.607 423.0472,-615.4317 421.2101,-614.218 419.4589,-612.9694 417.8017,-611.6891 416.2462,-610.3808 414.8005,-609.0479 413.4727,-607.6943 412.271,-606.3235 411.2031,-604.9393 410.277,-603.5455 409.5001,-602.146 408.8796,-600.7446 408.4223,-599.3451 408.1346,-597.9514 408.0222,-596.5672 408.0903,-595.1964 408.3433,-593.8427 408.785,-592.5099 409.4183,-591.2016 410.2452,-589.9213 411.2669,-588.6726 412.4835,-587.459 413.8944,-586.2836 415.4976,-585.1499 417.2904,-584.0607 419.269,-583.0193 421.4283,-582.0283 423.7626,-581.0906 426.2649,-580.2087 428.9272,-579.3849 431.7407,-578.6217 434.6956,-577.9209 437.7813,-577.2847 440.9863,-576.7147 444.2984,-576.2125 447.7047,-575.7794 451.1919,-575.4167 454.7458,-575.1253 458.3521,-574.9061 461.9961,-574.7596 465.6628,-574.6863 469.3372,-574.6863 473.0039,-574.7596"/>
<text text-anchor="middle" x="467.5" y="-605.2453" font-family="Times,serif" font-size="14.00" fill="#000000">netlify</text>
<text text-anchor="middle" x="467.5" y="-590.2453" font-family="Times,serif" font-size="14.00" fill="#000000">backending</text>
</a>
</g>
</g>
<!-- netlifyrt&#45;&gt;github -->
<g id="edge6" class="edge">
<title>netlifyrt&#45;&gt;github</title>
<g id="a_edge6"><a xlink:href="https://tilnow.github.io/create_post.html" xlink:title="create_post">
<path fill="none" stroke="#000000" d="M483.0572,-574.9592C505.8821,-536.0997 548.1999,-464.0535 570.9951,-425.2447"/>
<polygon fill="#000000" stroke="#000000" points="574.2993,-426.5298 576.3461,-416.1346 568.2635,-422.9845 574.2993,-426.5298"/>
</a>
</g>
<g id="a_edge6&#45;label"><a xlink:href="https://tilnow.github.io/create_post.html" xlink:title="create_post">
<text text-anchor="middle" x="571.5" y="-487.3019" font-family="Times,serif" font-size="14.00" fill="#000000">create_post</text>
</a>
</g>
</g>
<!-- netlifyrt&#45;&gt;discord -->
<g id="edge7" class="edge">
<title>netlifyrt&#45;&gt;discord</title>
<g id="a_edge7"><a xlink:href="https://tilnow.github.io/create_post.html" xlink:title="create_post">
<path fill="none" stroke="#000000" d="M468.2533,-574.4852C469.9833,-502.8693 472.7277,-311.9441 453.5,-291.6932 425.0593,-261.739 306.625,-289.5869 268.5,-273.6932 264.2626,-271.9267 260.1075,-269.6825 256.1119,-267.1524"/>
<polygon fill="#000000" stroke="#000000" points="257.8496,-264.0966 247.6495,-261.2313 253.8365,-269.8321 257.8496,-264.0966"/>
</a>
</g>
<g id="a_edge7&#45;label"><a xlink:href="https://tilnow.github.io/create_post.html" xlink:title="create_post">
<text text-anchor="middle" x="499.5" y="-395.1475" font-family="Times,serif" font-size="14.00" fill="#000000">create_post</text>
</a>
</g>
</g>
<!-- zapier -->
<g id="node17" class="node">
<title>zapier</title>
<g id="a_node17"><a xlink:href="https://tilnow.github.io/zapier.html" xlink:title="Zapier">
<polygon fill="none" stroke="#00ff00" points="907.8298,-805.2334 910.0344,-805.332 912.2161,-805.4794 914.3662,-805.6754 916.4759,-805.9194 918.5367,-806.2107 920.5405,-806.5486 922.4794,-806.932 924.3462,-807.36 926.1339,-807.8313 927.8361,-808.3447 929.4467,-808.8988 930.9606,-809.4921 932.3728,-810.1229 933.6792,-810.7895 934.8762,-811.49 935.9608,-812.2226 936.9308,-812.9853 937.7843,-813.7759 938.5204,-814.5923 939.1385,-815.4322 939.6387,-816.2934 940.0219,-817.1735 940.2891,-818.0701 940.4422,-818.9806 940.4833,-819.9027 940.4153,-820.8338 940.2413,-821.7713 939.9646,-822.7127 939.5892,-823.6554 939.1192,-824.5968 938.5589,-825.5344 937.9129,-826.4655 937.1858,-827.3875 936.3826,-828.2981 935.508,-829.1947 934.5669,-830.0748 933.5643,-830.9359 932.5048,-831.7759 931.3934,-832.5923 930.2345,-833.3829 929.0325,-834.1456 927.7918,-834.8782 926.5163,-835.5787 925.2099,-836.2453 923.8762,-836.8761 922.5185,-837.4693 921.1398,-838.0234 919.743,-838.5369 918.3307,-839.0082 916.9052,-839.4362 915.4686,-839.8196 914.0228,-840.1575 912.5694,-840.4488 911.1099,-840.6927 909.6457,-840.8887 908.1779,-841.0362 906.7077,-841.1348 905.2361,-841.1841 903.7639,-841.1841 902.2923,-841.1348 900.8221,-841.0362 899.3543,-840.8887 897.8901,-840.6927 896.4306,-840.4488 894.9772,-840.1575 893.5314,-839.8196 892.0948,-839.4362 890.6693,-839.0082 889.257,-838.5369 887.8602,-838.0234 886.4815,-837.4693 885.1238,-836.8761 883.7901,-836.2453 882.4837,-835.5787 881.2082,-834.8782 879.9675,-834.1456 878.7655,-833.3829 877.6066,-832.5923 876.4952,-831.7759 875.4357,-830.9359 874.4331,-830.0748 873.492,-829.1947 872.6174,-828.2981 871.8142,-827.3875 871.0871,-826.4655 870.4411,-825.5344 869.8808,-824.5968 869.4108,-823.6554 869.0354,-822.7127 868.7587,-821.7713 868.5847,-820.8338 868.5167,-819.9027 868.5578,-818.9806 868.7109,-818.0701 868.9781,-817.1735 869.3613,-816.2934 869.8615,-815.4322 870.4796,-814.5923 871.2157,-813.7759 872.0692,-812.9853 873.0392,-812.2226 874.1238,-811.49 875.3208,-810.7895 876.6272,-810.1229 878.0394,-809.4921 879.5533,-808.8988 881.1639,-808.3447 882.8661,-807.8313 884.6538,-807.36 886.5206,-806.932 888.4595,-806.5486 890.4633,-806.2107 892.5241,-805.9194 894.6338,-805.6754 896.7839,-805.4794 898.9656,-805.332 901.1702,-805.2334 903.3885,-805.1841 905.6115,-805.1841 907.8298,-805.2334"/>
<text text-anchor="middle" x="904.5" y="-819.4841" font-family="Times,serif" font-size="14.00" fill="#000000">Zapier</text>
</a>
</g>
</g>
<!-- gmail -->
<g id="node18" class="node">
<title>gmail</title>
<g id="a_node18"><a xlink:href="https://tilnow.github.io/gmail.html" xlink:title="yakcollective.org\n@gmail.com">
<polygon fill="none" stroke="#00ff00" points="1331.1496,-796.4984 1336.2142,-796.6448 1341.2265,-796.8641 1346.166,-797.1554 1351.0126,-797.5182 1355.7469,-797.9512 1360.3502,-798.4535 1364.8047,-799.0235 1369.0934,-799.6597 1373.2003,-800.3604 1377.1107,-801.1237 1380.8109,-801.9474 1384.2887,-802.8294 1387.533,-803.7671 1390.5342,-804.758 1393.2841,-805.7995 1395.7759,-806.8886 1398.0042,-808.0224 1399.965,-809.1977 1401.656,-810.4114 1403.076,-811.6601 1404.2253,-812.9403 1405.1055,-814.2487 1405.7194,-815.5815 1406.071,-816.9352 1406.1656,-818.306 1406.0094,-819.6901 1405.6095,-821.0839 1404.974,-822.4834 1404.1116,-823.8848 1403.0318,-825.2843 1401.7446,-826.678 1400.2604,-828.0622 1398.5902,-829.433 1396.7448,-830.7867 1394.7355,-832.1195 1392.5736,-833.4279 1390.2702,-834.7081 1387.8364,-835.9568 1385.283,-837.1705 1382.6206,-838.3458 1379.8593,-839.4796 1377.009,-840.5687 1374.0788,-841.6101 1371.0776,-842.6011 1368.0136,-843.5388 1364.8944,-844.4208 1361.7271,-845.2445 1358.5182,-846.0078 1355.2737,-846.7085 1351.9989,-847.3447 1348.6985,-847.9147 1345.3769,-848.417 1342.038,-848.85 1338.6851,-849.2127 1335.3213,-849.5041 1331.9494,-849.7233 1328.5719,-849.8698 1325.191,-849.9432 1321.809,-849.9432 1318.4281,-849.8698 1315.0506,-849.7233 1311.6787,-849.5041 1308.3149,-849.2127 1304.962,-848.85 1301.6231,-848.417 1298.3015,-847.9147 1295.0011,-847.3447 1291.7263,-846.7085 1288.4818,-846.0078 1285.2729,-845.2445 1282.1056,-844.4208 1278.9864,-843.5388 1275.9224,-842.6011 1272.9212,-841.6101 1269.991,-840.5687 1267.1407,-839.4796 1264.3794,-838.3458 1261.717,-837.1705 1259.1636,-835.9568 1256.7298,-834.7081 1254.4264,-833.4279 1252.2645,-832.1195 1250.2552,-830.7867 1248.4098,-829.433 1246.7396,-828.0622 1245.2554,-826.678 1243.9682,-825.2843 1242.8884,-823.8848 1242.026,-822.4834 1241.3905,-821.0839 1240.9906,-819.6901 1240.8344,-818.306 1240.929,-816.9352 1241.2806,-815.5815 1241.8945,-814.2487 1242.7747,-812.9403 1243.924,-811.6601 1245.344,-810.4114 1247.035,-809.1977 1248.9958,-808.0224 1251.2241,-806.8886 1253.7159,-805.7995 1256.4658,-804.758 1259.467,-803.7671 1262.7113,-802.8294 1266.1891,-801.9474 1269.8893,-801.1237 1273.7997,-800.3604 1277.9066,-799.6597 1282.1953,-799.0235 1286.6498,-798.4535 1291.2531,-797.9512 1295.9874,-797.5182 1300.834,-797.1554 1305.7735,-796.8641 1310.7858,-796.6448 1315.8504,-796.4984 1320.9466,-796.425 1326.0534,-796.425 1331.1496,-796.4984"/>
<text text-anchor="middle" x="1323.5" y="-826.9841" font-family="Times,serif" font-size="14.00" fill="#000000">yakcollective.org</text>
<text text-anchor="middle" x="1323.5" y="-811.9841" font-family="Times,serif" font-size="14.00" fill="#000000">@gmail.com</text>
</a>
</g>
</g>
<!-- facebook -->
<g id="node19" class="node">
<title>facebook</title>
<g id="a_node19"><a xlink:href="https://tilnow.github.io/facebook.html" xlink:title="Facebook">
<polygon fill="none" stroke="#00ff00" points="1178.8971,-805.2334 1181.8084,-805.332 1184.6895,-805.4794 1187.5288,-805.6754 1190.3147,-805.9194 1193.036,-806.2107 1195.6821,-806.5486 1198.2426,-806.932 1200.7078,-807.36 1203.0685,-807.8313 1205.3163,-808.3447 1207.4433,-808.8988 1209.4424,-809.4921 1211.3072,-810.1229 1213.0324,-810.7895 1214.6131,-811.49 1216.0454,-812.2226 1217.3262,-812.9853 1218.4534,-813.7759 1219.4254,-814.5923 1220.2416,-815.4322 1220.9022,-816.2934 1221.4082,-817.1735 1221.761,-818.0701 1221.9632,-818.9806 1222.0176,-819.9027 1221.9278,-820.8338 1221.6979,-821.7713 1221.3326,-822.7127 1220.8369,-823.6554 1220.2162,-824.5968 1219.4763,-825.5344 1218.6232,-826.4655 1217.6631,-827.3875 1216.6023,-828.2981 1215.4474,-829.1947 1214.2046,-830.0748 1212.8806,-830.9359 1211.4816,-831.7759 1210.0139,-832.5923 1208.4835,-833.3829 1206.8963,-834.1456 1205.2578,-834.8782 1203.5735,-835.5787 1201.8484,-836.2453 1200.0871,-836.8761 1198.2942,-837.4693 1196.4736,-838.0234 1194.6291,-838.5369 1192.7641,-839.0082 1190.8816,-839.4362 1188.9845,-839.8196 1187.0752,-840.1575 1185.156,-840.4488 1183.2287,-840.6927 1181.2951,-840.8887 1179.3569,-841.0362 1177.4154,-841.1348 1175.472,-841.1841 1173.528,-841.1841 1171.5846,-841.1348 1169.6431,-841.0362 1167.7049,-840.8887 1165.7713,-840.6927 1163.844,-840.4488 1161.9248,-840.1575 1160.0155,-839.8196 1158.1184,-839.4362 1156.2359,-839.0082 1154.3709,-838.5369 1152.5264,-838.0234 1150.7058,-837.4693 1148.9129,-836.8761 1147.1516,-836.2453 1145.4265,-835.5787 1143.7422,-834.8782 1142.1037,-834.1456 1140.5165,-833.3829 1138.9861,-832.5923 1137.5184,-831.7759 1136.1194,-830.9359 1134.7954,-830.0748 1133.5526,-829.1947 1132.3977,-828.2981 1131.3369,-827.3875 1130.3768,-826.4655 1129.5237,-825.5344 1128.7838,-824.5968 1128.1631,-823.6554 1127.6674,-822.7127 1127.3021,-821.7713 1127.0722,-820.8338 1126.9824,-819.9027 1127.0368,-818.9806 1127.239,-818.0701 1127.5918,-817.1735 1128.0978,-816.2934 1128.7584,-815.4322 1129.5746,-814.5923 1130.5466,-813.7759 1131.6738,-812.9853 1132.9546,-812.2226 1134.3869,-811.49 1135.9676,-810.7895 1137.6928,-810.1229 1139.5576,-809.4921 1141.5567,-808.8988 1143.6837,-808.3447 1145.9315,-807.8313 1148.2922,-807.36 1150.7574,-806.932 1153.3179,-806.5486 1155.964,-806.2107 1158.6853,-805.9194 1161.4712,-805.6754 1164.3105,-805.4794 1167.1916,-805.332 1170.1029,-805.2334 1173.0323,-805.1841 1175.9677,-805.1841 1178.8971,-805.2334"/>
<text text-anchor="middle" x="1174.5" y="-819.4841" font-family="Times,serif" font-size="14.00" fill="#000000">Facebook</text>
</a>
</g>
</g>
<!-- linkedin -->
<g id="node20" class="node">
<title>linkedin</title>
<g id="a_node20"><a xlink:href="https://tilnow.github.io/linkedin.html" xlink:title="Linkedin">
<polygon fill="none" stroke="#00ff00" points="1067.6622,-805.2334 1070.4179,-805.332 1073.1452,-805.4794 1075.8328,-805.6754 1078.4699,-805.9194 1081.0459,-806.2107 1083.5506,-806.5486 1085.9743,-806.932 1088.3078,-807.36 1090.5424,-807.8313 1092.6701,-808.3447 1094.6834,-808.8988 1096.5757,-809.4921 1098.341,-810.1229 1099.974,-810.7895 1101.4702,-811.49 1102.826,-812.2226 1104.0384,-812.9853 1105.1054,-813.7759 1106.0255,-814.5923 1106.7981,-815.4322 1107.4234,-816.2934 1107.9023,-817.1735 1108.2364,-818.0701 1108.4277,-818.9806 1108.4792,-819.9027 1108.3942,-820.8338 1108.1766,-821.7713 1107.8308,-822.7127 1107.3616,-823.6554 1106.774,-824.5968 1106.0737,-825.5344 1105.2661,-826.4655 1104.3573,-827.3875 1103.3532,-828.2981 1102.2599,-829.1947 1101.0836,-830.0748 1099.8303,-830.9359 1098.5061,-831.7759 1097.1167,-832.5923 1095.6681,-833.3829 1094.1657,-834.1456 1092.6148,-834.8782 1091.0204,-835.5787 1089.3874,-836.2453 1087.7203,-836.8761 1086.0231,-837.4693 1084.2997,-838.0234 1082.5538,-838.5369 1080.7884,-839.0082 1079.0065,-839.4362 1077.2108,-839.8196 1075.4035,-840.1575 1073.5867,-840.4488 1071.7624,-840.6927 1069.9321,-840.8887 1068.0974,-841.0362 1066.2596,-841.1348 1064.4201,-841.1841 1062.5799,-841.1841 1060.7404,-841.1348 1058.9026,-841.0362 1057.0679,-840.8887 1055.2376,-840.6927 1053.4133,-840.4488 1051.5965,-840.1575 1049.7892,-839.8196 1047.9935,-839.4362 1046.2116,-839.0082 1044.4462,-838.5369 1042.7003,-838.0234 1040.9769,-837.4693 1039.2797,-836.8761 1037.6126,-836.2453 1035.9796,-835.5787 1034.3852,-834.8782 1032.8343,-834.1456 1031.3319,-833.3829 1029.8833,-832.5923 1028.4939,-831.7759 1027.1697,-830.9359 1025.9164,-830.0748 1024.7401,-829.1947 1023.6468,-828.2981 1022.6427,-827.3875 1021.7339,-826.4655 1020.9263,-825.5344 1020.226,-824.5968 1019.6384,-823.6554 1019.1692,-822.7127 1018.8234,-821.7713 1018.6058,-820.8338 1018.5208,-819.9027 1018.5723,-818.9806 1018.7636,-818.0701 1019.0977,-817.1735 1019.5766,-816.2934 1020.2019,-815.4322 1020.9745,-814.5923 1021.8946,-813.7759 1022.9616,-812.9853 1024.174,-812.2226 1025.5298,-811.49 1027.026,-810.7895 1028.659,-810.1229 1030.4243,-809.4921 1032.3166,-808.8988 1034.3299,-808.3447 1036.4576,-807.8313 1038.6922,-807.36 1041.0257,-806.932 1043.4494,-806.5486 1045.9541,-806.2107 1048.5301,-805.9194 1051.1672,-805.6754 1053.8548,-805.4794 1056.5821,-805.332 1059.3378,-805.2334 1062.1107,-805.1841 1064.8893,-805.1841 1067.6622,-805.2334"/>
<text text-anchor="middle" x="1063.5" y="-819.4841" font-family="Times,serif" font-size="14.00" fill="#000000">Linkedin</text>
</a>
</g>
</g>
<!-- knack -->
<g id="node21" class="node">
<title>knack</title>
<g id="a_node21"><a xlink:href="https://tilnow.github.io/knack.html" xlink:title="Knack">
<ellipse fill="none" stroke="#00ff00" cx="1658.5" cy="-823.1841" rx="33.6165" ry="33.6165"/>
<ellipse fill="none" stroke="#00ff00" cx="1658.5" cy="-823.1841" rx="37.5951" ry="37.5951"/>
<text text-anchor="middle" x="1658.5" y="-819.4841" font-family="Times,serif" font-size="14.00" fill="#000000">Knack</text>
</a>
</g>
</g>
<!-- roam -->
<g id="node22" class="node">
<title>roam</title>
<g id="a_node22"><a xlink:href="https://tilnow.github.io/roam.html" xlink:title="Roam">
<ellipse fill="none" stroke="#00ff00" cx="1566.5" cy="-823.1841" rx="32.4945" ry="32.4945"/>
<ellipse fill="none" stroke="#00ff00" cx="1566.5" cy="-823.1841" rx="36.4942" ry="36.4942"/>
<text text-anchor="middle" x="1566.5" y="-819.4841" font-family="Times,serif" font-size="14.00" fill="#000000">Roam</text>
</a>
</g>
</g>
<!-- yak_scraper -->
<g id="node23" class="node">
<title>yak_scraper</title>
<g id="a_node23"><a xlink:href="https://tilnow.github.io/yak_scraper.html" xlink:title="yak_scraper">
<polygon fill="none" stroke="#0000ff" points="1512.5,-841.1841 1430.5,-841.1841 1430.5,-805.1841 1512.5,-805.1841 1512.5,-841.1841"/>
<text text-anchor="middle" x="1471.5" y="-819.4841" font-family="Times,serif" font-size="14.00" fill="#000000">yak_scraper</text>
</a>
</g>
</g>
<!-- substack -->
<g id="node24" class="node">
<title>substack</title>
<g id="a_node24"><a xlink:href="https://tilnow.github.io/substack.html" xlink:title="Substack">
<polygon fill="none" stroke="#00ff00" points="317.5,-846.1841 233.015,-811.6841 401.985,-811.6841 317.5,-846.1841"/>
<text text-anchor="middle" x="317.5" y="-819.4841" font-family="Times,serif" font-size="14.00" fill="#000000">Substack</text>
</a>
</g>
</g>
<!-- substack&#45;&gt;netlifyrt -->
<g id="edge3" class="edge">
<title>substack&#45;&gt;netlifyrt</title>
<g id="a_edge3"><a xlink:href="https://tilnow.github.io/usercont.html" xlink:title="member&#45;generated\nweb&#45;content">
<path fill="none" stroke="#ff0000" d="M321.9059,-811.5497C330.4436,-790.3735 351.114,-745.205 381.5,-717.8888 387.7099,-712.3063 392.2331,-715.4074 398.5,-709.8888 421.462,-689.6687 439.6205,-660.0008 451.5342,-636.8053"/>
<polygon fill="#ff0000" stroke="#ff0000" points="454.7792,-638.1404 456.0991,-627.6281 448.5117,-635.0228 454.7792,-638.1404"/>
</a>
</g>
<g id="a_edge3&#45;label"><a xlink:href="https://tilnow.github.io/usercont.html" xlink:title="member&#45;generated\nweb&#45;content">
<text text-anchor="middle" x="433" y="-736.6888" font-family="Times,serif" font-size="14.00" fill="#000000">member&#45;generated</text>
<text text-anchor="middle" x="433" y="-721.6888" font-family="Times,serif" font-size="14.00" fill="#000000">web&#45;content</text>
</a>
</g>
</g>
<!-- blogs -->
<g id="node25" class="node">
<title>blogs</title>
<g id="a_node25"><a xlink:href="https://tilnow.github.io/blogs.html" xlink:title="member\nblogs">
<polygon fill="none" stroke="#00ff00" points="507.5,-877.1654 419.6371,-796.1934 595.3629,-796.1934 507.5,-877.1654"/>
<text text-anchor="middle" x="507.5" y="-826.9841" font-family="Times,serif" font-size="14.00" fill="#000000">member</text>
<text text-anchor="middle" x="507.5" y="-811.9841" font-family="Times,serif" font-size="14.00" fill="#000000">blogs</text>
</a>
</g>
</g>
<!-- blogs&#45;&gt;netlifyrt -->
<g id="edge4" class="edge">
<title>blogs&#45;&gt;netlifyrt</title>
<g id="a_edge4"><a xlink:href="https://tilnow.github.io/usercont.html" xlink:title="member&#45;generated\nweb&#45;content">
<path fill="none" stroke="#ff0000" d="M502.5952,-795.9946C495.4493,-756.3814 482.1567,-682.6941 474.1403,-638.2558"/>
<polygon fill="#ff0000" stroke="#ff0000" points="477.5397,-637.3844 472.32,-628.1646 470.6509,-638.6272 477.5397,-637.3844"/>
</a>
</g>
<g id="a_edge4&#45;label"><a xlink:href="https://tilnow.github.io/usercont.html" xlink:title="member&#45;generated\nweb&#45;content">
<text text-anchor="middle" x="544" y="-736.6888" font-family="Times,serif" font-size="14.00" fill="#000000">member&#45;generated</text>
<text text-anchor="middle" x="544" y="-721.6888" font-family="Times,serif" font-size="14.00" fill="#000000">web&#45;content</text>
</a>
</g>
</g>
<!-- websites -->
<g id="node26" class="node">
<title>websites</title>
<g id="a_node26"><a xlink:href="https://tilnow.github.io/websites.html" xlink:title="member\nwebsites">
<polygon fill="none" stroke="#00ff00" points="702.5,-877.1654 613.309,-796.1934 791.691,-796.1934 702.5,-877.1654"/>
<text text-anchor="middle" x="702.5" y="-826.9841" font-family="Times,serif" font-size="14.00" fill="#000000">member</text>
<text text-anchor="middle" x="702.5" y="-811.9841" font-family="Times,serif" font-size="14.00" fill="#000000">websites</text>
</a>
</g>
</g>
<!-- websites&#45;&gt;netlifyrt -->
<g id="edge5" class="edge">
<title>websites&#45;&gt;netlifyrt</title>
<g id="a_edge5"><a xlink:href="https://tilnow.github.io/usercont.html" xlink:title="member&#45;generated\nweb&#45;content">
<path fill="none" stroke="#ff0000" d="M676.7863,-795.81C656.2658,-774.2325 626.5713,-743.6003 599.5,-717.8888 567.1318,-687.1465 528.7229,-653.5734 501.7067,-630.4101"/>
<polygon fill="#ff0000" stroke="#ff0000" points="503.9308,-627.7069 494.056,-623.8677 499.3814,-633.0269 503.9308,-627.7069"/>
</a>
</g>
<g id="a_edge5&#45;label"><a xlink:href="https://tilnow.github.io/usercont.html" xlink:title="member&#45;generated\nweb&#45;content">
<text text-anchor="middle" x="679" y="-736.6888" font-family="Times,serif" font-size="14.00" fill="#000000">member&#45;generated</text>
<text text-anchor="middle" x="679" y="-721.6888" font-family="Times,serif" font-size="14.00" fill="#000000">web&#45;content</text>
</a>
</g>
</g>
</g>
</svg>
