<?xml version="1.0" encoding="UTF-8" standalone="no"?>
<!DOCTYPE svg PUBLIC "-//W3C//DTD SVG 1.1//EN"
 "http://www.w3.org/Graphics/SVG/1.1/DTD/svg11.dtd">
<!-- Generated by graphviz version 2.43.0 (0)
 -->
<!-- Title: yak_infrastructure Pages: 1 -->
<svg width="1437pt" height="1270pt"
 viewBox="0.00 0.00 1437.45 1269.68" xmlns="http://www.w3.org/2000/svg" xmlns:xlink="http://www.w3.org/1999/xlink">
<g id="graph0" class="graph" transform="scale(1 1) rotate(0) translate(4 1265.68)">
<title>yak_infrastructure</title>
<polygon fill="white" stroke="transparent" points="-4,4 -4,-1265.68 1433.45,-1265.68 1433.45,4 -4,4"/>
<text text-anchor="middle" x="714.73" y="-1246.48" font-family="Times,serif" font-size="14.00">Yak Collective IT Infrastructure</text>
<g id="clust1" class="cluster">
<title>cluster_google</title>
<polygon fill="none" stroke="gray" points="300,-217 300,-466.12 1173,-466.12 1173,-217 300,-217"/>
<text text-anchor="middle" x="736.5" y="-450.92" font-family="Times,serif" font-size="14.00">Google</text>
</g>
<g id="clust2" class="cluster">
<title>cluster_robot</title>
<polygon fill="none" stroke="gray" points="308,-239.63 308,-435.12 621,-435.12 621,-239.63 308,-239.63"/>
<text text-anchor="middle" x="464.5" y="-419.92" font-family="Times,serif" font-size="14.00">Yak Collective Robot</text>
</g>
<g id="clust3" class="cluster">
<title>cluster_carl</title>
<polygon fill="none" stroke="gray" points="414,-94 414,-169 752,-169 752,-94 414,-94"/>
<text text-anchor="middle" x="583" y="-153.8" font-family="Times,serif" font-size="14.00">Carl</text>
</g>
<g id="clust4" class="cluster">
<title>cluster_unused</title>
<polygon fill="none" stroke="gray" points="1142,-1146.8 1142,-1221.8 1240,-1221.8 1240,-1146.8 1142,-1146.8"/>
<text text-anchor="middle" x="1191" y="-1206.6" font-family="Times,serif" font-size="14.00">Unused</text>
</g>
<g id="clust5" class="cluster">
<title>cluster_ifttt</title>
<polygon fill="none" stroke="gray" points="919,-798.36 919,-875.36 1246,-875.36 1246,-798.36 919,-798.36"/>
<text text-anchor="middle" x="1082.5" y="-860.16" font-family="Times,serif" font-size="14.00">IFTTT</text>
</g>
<g id="clust6" class="cluster">
<title>cluster_netlify</title>
<polygon fill="none" stroke="gray" points="298,-512.12 298,-1230.68 846,-1230.68 846,-512.12 298,-512.12"/>
<text text-anchor="middle" x="572" y="-1215.48" font-family="Times,serif" font-size="14.00">Netlify</text>
</g>
<g id="clust7" class="cluster">
<title>cluster_cloudfront</title>
<polygon fill="none" stroke="gray" points="448,-520.12 448,-742.48 838,-742.48 838,-520.12 448,-520.12"/>
<text text-anchor="middle" x="643" y="-727.28" font-family="Times,serif" font-size="14.00">Amazon Cloudfront</text>
</g>
<g id="clust8" class="cluster">
<title>cluster_lambda</title>
<polygon fill="none" stroke="gray" points="306,-593.8 306,-668.8 440,-668.8 440,-593.8 306,-593.8"/>
<text text-anchor="middle" x="373" y="-653.6" font-family="Times,serif" font-size="14.00">Amazon Lambda</text>
</g>
<!-- google_calendar -->
<g id="node1" class="node">
<title>google_calendar</title>
<g id="a_node1"><a xlink:href="https://roamresearch.com/#/app/ArtOfGig/page/5JAKKBvdi" xlink:title="Google\nCalendar">
<ellipse fill="none" stroke="green" cx="552" cy="-325.87" rx="57.07" ry="57.07"/>
<ellipse fill="none" stroke="green" cx="552" cy="-325.87" rx="61.05" ry="61.05"/>
<text text-anchor="middle" x="552" y="-329.67" font-family="Times,serif" font-size="14.00">Google</text>
<text text-anchor="middle" x="552" y="-314.67" font-family="Times,serif" font-size="14.00">Calendar</text>
</a>
</g>
</g>
<!-- zapier -->
<g id="node6" class="node">
<title>zapier</title>
<g id="a_node6"><a xlink:href="https://roamresearch.com/#/app/ArtOfGig/page/WW4JidMuQ" xlink:title="Zapier">
<polygon fill="none" stroke="blue" points="1012.04,-102.05 1014.72,-102.15 1017.37,-102.3 1019.99,-102.49 1022.55,-102.74 1025.05,-103.03 1027.49,-103.36 1029.84,-103.75 1032.11,-104.18 1034.28,-104.65 1036.35,-105.16 1038.3,-105.71 1040.14,-106.31 1041.86,-106.94 1043.45,-107.61 1044.9,-108.31 1046.22,-109.04 1047.4,-109.8 1048.43,-110.59 1049.33,-111.41 1050.08,-112.25 1050.68,-113.11 1051.15,-113.99 1051.47,-114.89 1051.66,-115.8 1051.71,-116.72 1051.63,-117.65 1051.42,-118.59 1051.08,-119.53 1050.62,-120.47 1050.05,-121.41 1049.37,-122.35 1048.59,-123.28 1047.71,-124.2 1046.73,-125.11 1045.67,-126.01 1044.52,-126.89 1043.31,-127.75 1042.02,-128.59 1040.67,-129.41 1039.26,-130.2 1037.8,-130.96 1036.29,-131.69 1034.74,-132.39 1033.16,-133.06 1031.54,-133.69 1029.89,-134.29 1028.21,-134.84 1026.52,-135.35 1024.8,-135.82 1023.07,-136.25 1021.32,-136.64 1019.57,-136.97 1017.8,-137.26 1016.03,-137.51 1014.25,-137.7 1012.47,-137.85 1010.68,-137.95 1008.89,-138 1007.11,-138 1005.32,-137.95 1003.53,-137.85 1001.75,-137.7 999.97,-137.51 998.2,-137.26 996.43,-136.97 994.68,-136.64 992.93,-136.25 991.2,-135.82 989.48,-135.35 987.79,-134.84 986.11,-134.29 984.46,-133.69 982.84,-133.06 981.26,-132.39 979.71,-131.69 978.2,-130.96 976.74,-130.2 975.33,-129.41 973.98,-128.59 972.69,-127.75 971.48,-126.89 970.33,-126.01 969.27,-125.11 968.29,-124.2 967.41,-123.28 966.63,-122.35 965.95,-121.41 965.38,-120.47 964.92,-119.53 964.58,-118.59 964.37,-117.65 964.29,-116.72 964.34,-115.8 964.53,-114.89 964.85,-113.99 965.32,-113.11 965.92,-112.25 966.67,-111.41 967.57,-110.59 968.6,-109.8 969.78,-109.04 971.1,-108.31 972.55,-107.61 974.14,-106.94 975.86,-106.31 977.7,-105.71 979.65,-105.16 981.72,-104.65 983.89,-104.18 986.16,-103.75 988.51,-103.36 990.95,-103.03 993.45,-102.74 996.01,-102.49 998.63,-102.3 1001.28,-102.15 1003.96,-102.05 1006.65,-102 1009.35,-102 1012.04,-102.05"/>
<text text-anchor="middle" x="1008" y="-116.3" font-family="Times,serif" font-size="14.00">Zapier</text>
</a>
</g>
</g>
<!-- google_calendar&#45;&gt;zapier -->
<g id="edge29" class="edge">
<title>google_calendar&#45;&gt;zapier</title>
<path fill="none" stroke="black" d="M572.82,-268.16C583.01,-248.52 597.41,-228.55 617,-217 642.86,-201.75 858.23,-215.58 887,-207 926.32,-195.27 963.54,-164.86 986.06,-143.55"/>
<polygon fill="black" stroke="black" points="988.65,-145.91 993.39,-136.43 983.78,-140.89 988.65,-145.91"/>
<text text-anchor="middle" x="977.5" y="-195.8" font-family="Times,serif" font-size="14.00">Pulled by</text>
<text text-anchor="middle" x="977.5" y="-180.8" font-family="Times,serif" font-size="14.00">Zapier</text>
</g>
<!-- registration_form -->
<g id="node2" class="node">
<title>registration_form</title>
<g id="a_node2"><a xlink:href="https://roamresearch.com/#/app/ArtOfGig/page/oG9FwDcRH" xlink:title="Registration\nForm">
<ellipse fill="none" stroke="green" cx="394" cy="-325.87" rx="74.48" ry="74.48"/>
<ellipse fill="none" stroke="green" cx="394" cy="-325.87" rx="78.49" ry="78.49"/>
<text text-anchor="middle" x="394" y="-329.67" font-family="Times,serif" font-size="14.00">Registration</text>
<text text-anchor="middle" x="394" y="-314.67" font-family="Times,serif" font-size="14.00">Form</text>
</a>
</g>
</g>
<!-- discord -->
<g id="node10" class="node">
<title>discord</title>
<g id="a_node10"><a xlink:href="https://roamresearch.com/#/app/ArtOfGig/page/AsI1N4yGZ" xlink:title="Discord">
<polygon fill="none" stroke="green" points="609.56,-0.05 612.58,-0.15 615.57,-0.3 618.51,-0.49 621.4,-0.74 624.23,-1.03 626.97,-1.36 629.63,-1.75 632.18,-2.18 634.63,-2.65 636.96,-3.16 639.17,-3.71 641.24,-4.31 643.18,-4.94 644.97,-5.61 646.61,-6.31 648.09,-7.04 649.42,-7.8 650.59,-8.59 651.6,-9.41 652.44,-10.25 653.13,-11.11 653.65,-11.99 654.02,-12.89 654.23,-13.8 654.29,-14.72 654.19,-15.65 653.95,-16.59 653.57,-17.53 653.06,-18.47 652.42,-19.41 651.65,-20.35 650.76,-21.28 649.77,-22.2 648.67,-23.11 647.47,-24.01 646.18,-24.89 644.81,-25.75 643.36,-26.59 641.84,-27.41 640.25,-28.2 638.6,-28.96 636.9,-29.69 635.16,-30.39 633.37,-31.06 631.54,-31.69 629.68,-32.29 627.79,-32.84 625.88,-33.35 623.94,-33.82 621.99,-34.25 620.02,-34.64 618.04,-34.97 616.05,-35.26 614.05,-35.51 612.05,-35.7 610.04,-35.85 608.02,-35.95 606.01,-36 603.99,-36 601.98,-35.95 599.96,-35.85 597.95,-35.7 595.95,-35.51 593.95,-35.26 591.96,-34.97 589.98,-34.64 588.01,-34.25 586.06,-33.82 584.12,-33.35 582.21,-32.84 580.32,-32.29 578.46,-31.69 576.63,-31.06 574.84,-30.39 573.1,-29.69 571.4,-28.96 569.75,-28.2 568.16,-27.41 566.64,-26.59 565.19,-25.75 563.82,-24.89 562.53,-24.01 561.33,-23.11 560.23,-22.2 559.24,-21.28 558.35,-20.35 557.58,-19.41 556.94,-18.47 556.43,-17.53 556.05,-16.59 555.81,-15.65 555.71,-14.72 555.77,-13.8 555.98,-12.89 556.35,-11.99 556.87,-11.11 557.56,-10.25 558.4,-9.41 559.41,-8.59 560.58,-7.8 561.91,-7.04 563.39,-6.31 565.03,-5.61 566.82,-4.94 568.76,-4.31 570.83,-3.71 573.04,-3.16 575.37,-2.65 577.82,-2.18 580.37,-1.75 583.03,-1.36 585.77,-1.03 588.6,-0.74 591.49,-0.49 594.43,-0.3 597.42,-0.15 600.44,-0.05 603.48,0 606.52,0 609.56,-0.05"/>
<text text-anchor="middle" x="605" y="-14.3" font-family="Times,serif" font-size="14.00">Discord</text>
</a>
</g>
</g>
<!-- registration_form&#45;&gt;discord -->
<g id="edge6" class="edge">
<title>registration_form&#45;&gt;discord</title>
<path fill="none" stroke="red" d="M435.15,-259.24C448.25,-243.13 464.07,-227.51 482,-217 588.67,-154.5 646.31,-226.03 756,-169 803.4,-144.36 820.55,-133.36 841,-84 846.1,-71.68 849.71,-64.1 841,-54 818.45,-27.86 725.18,-20.92 662.86,-19.26"/>
<polygon fill="red" stroke="red" points="662.84,-15.76 652.76,-19.03 662.68,-22.76 662.84,-15.76"/>
<text text-anchor="middle" x="872.5" y="-116.3" font-family="Times,serif" font-size="14.00">Invite link</text>
</g>
<!-- google_analytics -->
<g id="node3" class="node">
<title>google_analytics</title>
<g id="a_node3"><a xlink:href="https://roamresearch.com/#/app/ArtOfGig/page/gkim0kNQ8" xlink:title="Google\nAnalytics">
<polygon fill="none" stroke="blue" points="698.74,-299.19 702.54,-299.33 706.29,-299.55 710,-299.84 713.63,-300.21 717.18,-300.64 720.64,-301.14 723.98,-301.71 727.19,-302.35 730.27,-303.05 733.21,-303.81 735.98,-304.64 738.59,-305.52 741.02,-306.46 743.27,-307.45 745.34,-308.49 747.2,-309.58 748.88,-310.71 750.35,-311.89 751.61,-313.1 752.68,-314.35 753.54,-315.63 754.2,-316.94 754.66,-318.27 754.93,-319.62 755,-321 754.88,-322.38 754.58,-323.77 754.1,-325.17 753.46,-326.57 752.65,-327.97 751.68,-329.37 750.57,-330.75 749.32,-332.12 747.93,-333.48 746.42,-334.81 744.8,-336.12 743.08,-337.4 741.25,-338.65 739.34,-339.86 737.34,-341.04 735.27,-342.17 733.13,-343.26 730.93,-344.3 728.68,-345.29 726.38,-346.23 724.04,-347.11 721.67,-347.93 719.26,-348.7 716.83,-349.4 714.37,-350.03 711.9,-350.6 709.41,-351.11 706.9,-351.54 704.39,-351.9 701.87,-352.19 699.34,-352.41 696.8,-352.56 694.27,-352.63 691.73,-352.63 689.2,-352.56 686.66,-352.41 684.13,-352.19 681.61,-351.9 679.1,-351.54 676.59,-351.11 674.1,-350.6 671.63,-350.03 669.17,-349.4 666.74,-348.7 664.33,-347.93 661.96,-347.11 659.62,-346.23 657.32,-345.29 655.07,-344.3 652.87,-343.26 650.73,-342.17 648.66,-341.04 646.66,-339.86 644.75,-338.65 642.92,-337.4 641.2,-336.12 639.58,-334.81 638.07,-333.48 636.68,-332.12 635.43,-330.75 634.32,-329.37 633.35,-327.97 632.54,-326.57 631.9,-325.17 631.42,-323.77 631.12,-322.38 631,-321 631.07,-319.62 631.34,-318.27 631.8,-316.94 632.46,-315.63 633.32,-314.35 634.39,-313.1 635.65,-311.89 637.12,-310.71 638.8,-309.58 640.66,-308.49 642.73,-307.45 644.98,-306.46 647.41,-305.52 650.02,-304.64 652.79,-303.81 655.73,-303.05 658.81,-302.35 662.02,-301.71 665.36,-301.14 668.82,-300.64 672.37,-300.21 676,-299.84 679.71,-299.55 683.46,-299.33 687.26,-299.19 691.09,-299.11 694.91,-299.11 698.74,-299.19"/>
<text text-anchor="middle" x="693" y="-329.67" font-family="Times,serif" font-size="14.00">Google</text>
<text text-anchor="middle" x="693" y="-314.67" font-family="Times,serif" font-size="14.00">Analytics</text>
</a>
</g>
</g>
<!-- reboot_deck -->
<g id="node4" class="node">
<title>reboot_deck</title>
<g id="a_node4"><a xlink:href="https://roamresearch.com/#/app/ArtOfGig/page/s7km8fEQp" xlink:title="&quot;Don&#39;t Waste the\nReboot&quot; deck">
<ellipse fill="none" stroke="green" cx="874" cy="-325.87" rx="96.75" ry="96.75"/>
<ellipse fill="none" stroke="green" cx="874" cy="-325.87" rx="100.75" ry="100.75"/>
<text text-anchor="middle" x="874" y="-329.67" font-family="Times,serif" font-size="14.00">&quot;Don&#39;t Waste the</text>
<text text-anchor="middle" x="874" y="-314.67" font-family="Times,serif" font-size="14.00">Reboot&quot; deck</text>
</a>
</g>
</g>
<!-- home_deck -->
<g id="node5" class="node">
<title>home_deck</title>
<g id="a_node5"><a xlink:href="https://roamresearch.com/#/app/ArtOfGig/page/sGxc8YzrD" xlink:title="&quot;The New Old\nHome&quot; deck">
<ellipse fill="none" stroke="green" cx="1079" cy="-325.87" rx="82.05" ry="82.05"/>
<ellipse fill="none" stroke="green" cx="1079" cy="-325.87" rx="86.05" ry="86.05"/>
<text text-anchor="middle" x="1079" y="-329.67" font-family="Times,serif" font-size="14.00">&quot;The New Old</text>
<text text-anchor="middle" x="1079" y="-314.67" font-family="Times,serif" font-size="14.00">Home&quot; deck</text>
</a>
</g>
</g>
<!-- zapier&#45;&gt;discord -->
<g id="edge30" class="edge">
<title>zapier&#45;&gt;discord</title>
<path fill="none" stroke="black" d="M985.49,-103.6C962.01,-88.35 923.58,-65.65 887,-54 811.72,-30.03 720.28,-22.36 662.35,-19.97"/>
<polygon fill="black" stroke="black" points="662.41,-16.47 652.29,-19.59 662.15,-23.46 662.41,-16.47"/>
<text text-anchor="middle" x="981" y="-72.8" font-family="Times,serif" font-size="14.00">Post in</text>
<text text-anchor="middle" x="981" y="-57.8" font-family="Times,serif" font-size="14.00">#events</text>
</g>
<!-- twitter -->
<g id="node13" class="node">
<title>twitter</title>
<g id="a_node13"><a xlink:href="https://roamresearch.com/#/app/ArtOfGig/page/ssp9sORuP" xlink:title="Twitter">
<polygon fill="none" stroke="green" points="1131.4,-0.05 1134.31,-0.15 1137.19,-0.3 1140.03,-0.49 1142.81,-0.74 1145.54,-1.03 1148.18,-1.36 1150.74,-1.75 1153.21,-2.18 1155.57,-2.65 1157.82,-3.16 1159.94,-3.71 1161.94,-4.31 1163.81,-4.94 1165.53,-5.61 1167.11,-6.31 1168.55,-7.04 1169.83,-7.8 1170.95,-8.59 1171.93,-9.41 1172.74,-10.25 1173.4,-11.11 1173.91,-11.99 1174.26,-12.89 1174.46,-13.8 1174.52,-14.72 1174.43,-15.65 1174.2,-16.59 1173.83,-17.53 1173.34,-18.47 1172.72,-19.41 1171.98,-20.35 1171.12,-21.28 1170.16,-22.2 1169.1,-23.11 1167.95,-24.01 1166.7,-24.89 1165.38,-25.75 1163.98,-26.59 1162.51,-27.41 1160.98,-28.2 1159.4,-28.96 1157.76,-29.69 1156.07,-30.39 1154.35,-31.06 1152.59,-31.69 1150.79,-32.29 1148.97,-32.84 1147.13,-33.35 1145.26,-33.82 1143.38,-34.25 1141.48,-34.64 1139.58,-34.97 1137.66,-35.26 1135.73,-35.51 1133.8,-35.7 1131.86,-35.85 1129.92,-35.95 1127.97,-36 1126.03,-36 1124.08,-35.95 1122.14,-35.85 1120.2,-35.7 1118.27,-35.51 1116.34,-35.26 1114.42,-34.97 1112.52,-34.64 1110.62,-34.25 1108.74,-33.82 1106.87,-33.35 1105.03,-32.84 1103.21,-32.29 1101.41,-31.69 1099.65,-31.06 1097.93,-30.39 1096.24,-29.69 1094.6,-28.96 1093.02,-28.2 1091.49,-27.41 1090.02,-26.59 1088.62,-25.75 1087.3,-24.89 1086.05,-24.01 1084.9,-23.11 1083.84,-22.2 1082.88,-21.28 1082.02,-20.35 1081.28,-19.41 1080.66,-18.47 1080.17,-17.53 1079.8,-16.59 1079.57,-15.65 1079.48,-14.72 1079.54,-13.8 1079.74,-12.89 1080.09,-11.99 1080.6,-11.11 1081.26,-10.25 1082.07,-9.41 1083.05,-8.59 1084.17,-7.8 1085.45,-7.04 1086.89,-6.31 1088.47,-5.61 1090.19,-4.94 1092.06,-4.31 1094.06,-3.71 1096.18,-3.16 1098.43,-2.65 1100.79,-2.18 1103.26,-1.75 1105.82,-1.36 1108.46,-1.03 1111.19,-0.74 1113.97,-0.49 1116.81,-0.3 1119.69,-0.15 1122.6,-0.05 1125.53,0 1128.47,0 1131.4,-0.05"/>
<text text-anchor="middle" x="1127" y="-14.3" font-family="Times,serif" font-size="14.00">Twitter</text>
</a>
</g>
</g>
<!-- zapier&#45;&gt;twitter -->
<g id="edge31" class="edge">
<title>zapier&#45;&gt;twitter</title>
<path fill="none" stroke="black" d="M1026.86,-103.15C1046.93,-86.28 1078.84,-59.47 1101.23,-40.65"/>
<polygon fill="black" stroke="black" points="1103.61,-43.23 1109.01,-34.12 1099.1,-37.87 1103.61,-43.23"/>
<text text-anchor="middle" x="1129.5" y="-72.8" font-family="Times,serif" font-size="14.00">Tweet about</text>
<text text-anchor="middle" x="1129.5" y="-57.8" font-family="Times,serif" font-size="14.00">new content</text>
</g>
<!-- calendar_yak -->
<g id="node7" class="node">
<title>calendar_yak</title>
<g id="a_node7"><a xlink:href="https://roamresearch.com/#/app/ArtOfGig/page/4lz1jh2sn" xlink:title="calendar_yak">
<polygon fill="none" stroke="blue" points="744,-138 634,-138 634,-102 744,-102 744,-138"/>
<text text-anchor="middle" x="689" y="-116.3" font-family="Times,serif" font-size="14.00">calendar_yak</text>
</a>
</g>
</g>
<!-- welcome_bot -->
<g id="node8" class="node">
<title>welcome_bot</title>
<g id="a_node8"><a xlink:href="https://roamresearch.com/#/app/ArtOfGig/page/S_Xkw1vVi" xlink:title="welcome_bot">
<polygon fill="none" stroke="blue" points="531.5,-138 422.5,-138 422.5,-102 531.5,-102 531.5,-138"/>
<text text-anchor="middle" x="477" y="-116.3" font-family="Times,serif" font-size="14.00">welcome_bot</text>
</a>
</g>
</g>
<!-- welcome_bot&#45;&gt;discord -->
<g id="edge9" class="edge">
<title>welcome_bot&#45;&gt;discord</title>
<path fill="none" stroke="black" d="M422.38,-114.5C364.57,-107.7 285.92,-91.37 319,-54 333.95,-37.11 469.86,-26.64 548.82,-21.93"/>
<polygon fill="black" stroke="black" points="549.31,-25.41 559.09,-21.33 548.91,-18.42 549.31,-25.41"/>
<text text-anchor="middle" x="384.5" y="-72.8" font-family="Times,serif" font-size="14.00">Welcome message</text>
<text text-anchor="middle" x="384.5" y="-57.8" font-family="Times,serif" font-size="14.00">series</text>
</g>
<!-- yakyak -->
<g id="node9" class="node">
<title>yakyak</title>
<g id="a_node9"><a xlink:href="https://roamresearch.com/#/app/ArtOfGig/page/Q1LoZ_dE4" xlink:title="yakyak">
<polygon fill="none" stroke="blue" points="616,-138 550,-138 550,-102 616,-102 616,-138"/>
<text text-anchor="middle" x="583" y="-116.3" font-family="Times,serif" font-size="14.00">yakyak</text>
</a>
</g>
</g>
<!-- yakyak&#45;&gt;discord -->
<g id="edge10" class="edge">
<title>yakyak&#45;&gt;discord</title>
<path fill="none" stroke="black" d="M607.91,-101.77C613.33,-98.72 619.2,-95.91 625,-94 646.64,-86.89 711.7,-100.87 727,-84 735.96,-74.12 735.02,-64.65 727,-54 711.97,-34.06 686.35,-24.91 662.45,-20.91"/>
<polygon fill="black" stroke="black" points="662.74,-17.42 652.35,-19.5 661.77,-24.35 662.74,-17.42"/>
<text text-anchor="middle" x="785" y="-72.8" font-family="Times,serif" font-size="14.00">Prune inactive</text>
<text text-anchor="middle" x="785" y="-57.8" font-family="Times,serif" font-size="14.00">users</text>
</g>
<!-- discord&#45;&gt;welcome_bot -->
<g id="edge7" class="edge">
<title>discord&#45;&gt;welcome_bot</title>
<path fill="none" stroke="black" d="M561.63,-23.58C523.61,-28.6 472.5,-38.13 460,-54 451.29,-65.06 454.57,-80.14 460.48,-92.99"/>
<polygon fill="black" stroke="black" points="457.38,-94.62 465.1,-101.87 463.58,-91.38 457.38,-94.62"/>
<text text-anchor="middle" x="523" y="-72.8" font-family="Times,serif" font-size="14.00">New user</text>
<text text-anchor="middle" x="523" y="-57.8" font-family="Times,serif" font-size="14.00">notification / data</text>
</g>
<!-- discord&#45;&gt;yakyak -->
<g id="edge8" class="edge">
<title>discord&#45;&gt;yakyak</title>
<path fill="none" stroke="black" d="M601.21,-36.22C597.85,-51.5 592.88,-74.08 588.98,-91.8"/>
<polygon fill="black" stroke="black" points="585.56,-91.06 586.83,-101.58 592.4,-92.57 585.56,-91.06"/>
<text text-anchor="middle" x="660" y="-72.8" font-family="Times,serif" font-size="14.00">New user</text>
<text text-anchor="middle" x="660" y="-57.8" font-family="Times,serif" font-size="14.00">notification / data</text>
</g>
<!-- substack -->
<g id="node11" class="node">
<title>substack</title>
<g id="a_node11"><a xlink:href="https://roamresearch.com/#/app/ArtOfGig/page/kMaCo6Xc-" xlink:title="Substack">
<polygon fill="none" stroke="green" points="1239.23,-995.19 1242.69,-995.29 1246.12,-995.44 1249.5,-995.63 1252.81,-995.88 1256.05,-996.17 1259.19,-996.51 1262.24,-996.89 1265.17,-997.32 1267.98,-997.79 1270.65,-998.3 1273.18,-998.86 1275.56,-999.45 1277.78,-1000.08 1279.83,-1000.75 1281.71,-1001.45 1283.41,-1002.18 1284.93,-1002.94 1286.27,-1003.74 1287.43,-1004.55 1288.4,-1005.39 1289.19,-1006.25 1289.79,-1007.13 1290.21,-1008.03 1290.45,-1008.94 1290.51,-1009.86 1290.41,-1010.79 1290.13,-1011.73 1289.7,-1012.67 1289.11,-1013.61 1288.37,-1014.56 1287.49,-1015.49 1286.48,-1016.42 1285.33,-1017.35 1284.07,-1018.26 1282.7,-1019.15 1281.22,-1020.03 1279.65,-1020.9 1277.98,-1021.74 1276.24,-1022.55 1274.42,-1023.34 1272.53,-1024.1 1270.58,-1024.84 1268.58,-1025.54 1266.53,-1026.2 1264.43,-1026.84 1262.3,-1027.43 1260.13,-1027.98 1257.94,-1028.5 1255.72,-1028.97 1253.48,-1029.4 1251.23,-1029.78 1248.96,-1030.12 1246.67,-1030.41 1244.38,-1030.65 1242.08,-1030.85 1239.78,-1031 1237.47,-1031.09 1235.16,-1031.14 1232.84,-1031.14 1230.53,-1031.09 1228.22,-1031 1225.92,-1030.85 1223.62,-1030.65 1221.33,-1030.41 1219.04,-1030.12 1216.77,-1029.78 1214.52,-1029.4 1212.28,-1028.97 1210.06,-1028.5 1207.87,-1027.98 1205.7,-1027.43 1203.57,-1026.84 1201.47,-1026.2 1199.42,-1025.54 1197.42,-1024.84 1195.47,-1024.1 1193.58,-1023.34 1191.76,-1022.55 1190.02,-1021.74 1188.35,-1020.9 1186.78,-1020.03 1185.3,-1019.15 1183.93,-1018.26 1182.67,-1017.35 1181.52,-1016.42 1180.51,-1015.49 1179.63,-1014.56 1178.89,-1013.61 1178.3,-1012.67 1177.87,-1011.73 1177.59,-1010.79 1177.49,-1009.86 1177.55,-1008.94 1177.79,-1008.03 1178.21,-1007.13 1178.81,-1006.25 1179.6,-1005.39 1180.57,-1004.55 1181.73,-1003.74 1183.07,-1002.94 1184.59,-1002.18 1186.29,-1001.45 1188.17,-1000.75 1190.22,-1000.08 1192.44,-999.45 1194.82,-998.86 1197.35,-998.3 1200.02,-997.79 1202.83,-997.32 1205.76,-996.89 1208.81,-996.51 1211.95,-996.17 1215.19,-995.88 1218.5,-995.63 1221.88,-995.44 1225.31,-995.29 1228.77,-995.19 1232.25,-995.14 1235.75,-995.14 1239.23,-995.19"/>
<text text-anchor="middle" x="1234" y="-1009.44" font-family="Times,serif" font-size="14.00">Substack</text>
</a>
</g>
</g>
<!-- rss_applet -->
<g id="node17" class="node">
<title>rss_applet</title>
<g id="a_node17"><a xlink:href="https://roamresearch.com/#/app/ArtOfGig/page/ucCeiIsih" xlink:title="create&#45;post\nApplets">
<polygon fill="none" stroke="blue" points="1148.5,-844.36 1051.5,-844.36 1051.5,-806.36 1148.5,-806.36 1148.5,-844.36"/>
<text text-anchor="middle" x="1100" y="-829.16" font-family="Times,serif" font-size="14.00">create&#45;post</text>
<text text-anchor="middle" x="1100" y="-814.16" font-family="Times,serif" font-size="14.00">Applets</text>
</a>
</g>
</g>
<!-- substack&#45;&gt;rss_applet -->
<g id="edge20" class="edge">
<title>substack&#45;&gt;rss_applet</title>
<path fill="none" stroke="red" d="M1227.35,-994.76C1215.24,-963.73 1189.3,-900.46 1173,-883.36 1167.79,-877.89 1164.25,-879.6 1158,-875.36 1147.34,-868.14 1136.38,-859.3 1126.89,-851.12"/>
<polygon fill="red" stroke="red" points="1129.13,-848.43 1119.3,-844.46 1124.51,-853.69 1129.13,-848.43"/>
<text text-anchor="middle" x="1223" y="-902.16" font-family="Times,serif" font-size="14.00">Pulled</text>
<text text-anchor="middle" x="1223" y="-887.16" font-family="Times,serif" font-size="14.00">by IFTTT</text>
</g>
<!-- twitter_applets -->
<g id="node18" class="node">
<title>twitter_applets</title>
<g id="a_node18"><a xlink:href="https://roamresearch.com/#/app/ArtOfGig/page/j7DInC9sg" xlink:title="Twitter\nApplets">
<polygon fill="none" stroke="blue" points="1237.5,-844.36 1166.5,-844.36 1166.5,-806.36 1237.5,-806.36 1237.5,-844.36"/>
<text text-anchor="middle" x="1202" y="-829.16" font-family="Times,serif" font-size="14.00">Twitter</text>
<text text-anchor="middle" x="1202" y="-814.16" font-family="Times,serif" font-size="14.00">Applets</text>
</a>
</g>
</g>
<!-- substack&#45;&gt;twitter_applets -->
<g id="edge25" class="edge">
<title>substack&#45;&gt;twitter_applets</title>
<path fill="none" stroke="red" d="M1244.01,-995.26C1257.58,-970.04 1278.34,-921.42 1262,-883.36 1256.68,-870.96 1247.19,-859.99 1237.3,-851.07"/>
<polygon fill="red" stroke="red" points="1239.26,-848.14 1229.36,-844.36 1234.75,-853.49 1239.26,-848.14"/>
<text text-anchor="middle" x="1300" y="-902.16" font-family="Times,serif" font-size="14.00">Pulled</text>
<text text-anchor="middle" x="1300" y="-887.16" font-family="Times,serif" font-size="14.00">by IFTTT</text>
</g>
<!-- member_feeds -->
<g id="node12" class="node">
<title>member_feeds</title>
<g id="a_node12"><a xlink:href="https://roamresearch.com/#/app/ArtOfGig/page/RLF445t5m" xlink:title="Member RSS\nFeeds">
<ellipse fill="none" stroke="green" cx="1067" cy="-1013.14" rx="77.57" ry="77.57"/>
<ellipse fill="none" stroke="green" cx="1067" cy="-1013.14" rx="81.56" ry="81.56"/>
<text text-anchor="middle" x="1067" y="-1016.94" font-family="Times,serif" font-size="14.00">Member RSS</text>
<text text-anchor="middle" x="1067" y="-1001.94" font-family="Times,serif" font-size="14.00">Feeds</text>
</a>
</g>
</g>
<!-- member_feeds&#45;&gt;rss_applet -->
<g id="edge21" class="edge">
<title>member_feeds&#45;&gt;rss_applet</title>
<path fill="none" stroke="red" d="M1018.25,-947.17C1008.12,-925.61 1004.18,-902.3 1018,-883.36 1024.88,-873.94 1032.82,-881.06 1043,-875.36 1054.39,-868.99 1065.58,-860.12 1074.99,-851.68"/>
<polygon fill="red" stroke="red" points="1077.5,-854.12 1082.43,-844.75 1072.73,-849 1077.5,-854.12"/>
<text text-anchor="middle" x="1051" y="-902.16" font-family="Times,serif" font-size="14.00">Pulled</text>
<text text-anchor="middle" x="1051" y="-887.16" font-family="Times,serif" font-size="14.00">by IFTTT</text>
</g>
<!-- member_feeds&#45;&gt;twitter_applets -->
<g id="edge26" class="edge">
<title>member_feeds&#45;&gt;twitter_applets</title>
<path fill="none" stroke="red" d="M1081.89,-932.39C1087.55,-910.46 1094.68,-890.68 1103,-883.36 1121.55,-867.05 1136.23,-887.03 1158,-875.36 1168.08,-869.96 1177,-861.3 1184.13,-852.75"/>
<polygon fill="red" stroke="red" points="1187.02,-854.74 1190.39,-844.7 1181.49,-850.44 1187.02,-854.74"/>
<text text-anchor="middle" x="1136" y="-902.16" font-family="Times,serif" font-size="14.00">Pulled</text>
<text text-anchor="middle" x="1136" y="-887.16" font-family="Times,serif" font-size="14.00">by IFTTT</text>
</g>
<!-- facebook -->
<g id="node14" class="node">
<title>facebook</title>
<g id="a_node14"><a xlink:href="https://roamresearch.com/#/app/ArtOfGig/page/WZKSWTGz5" xlink:title="Facebook">
<polygon fill="none" stroke="green" points="937.31,-1154.85 940.83,-1154.95 944.31,-1155.1 947.74,-1155.3 951.1,-1155.54 954.39,-1155.83 957.59,-1156.17 960.68,-1156.55 963.66,-1156.98 966.51,-1157.45 969.22,-1157.96 971.79,-1158.52 974.21,-1159.11 976.46,-1159.74 978.54,-1160.41 980.45,-1161.11 982.18,-1161.84 983.73,-1162.61 985.09,-1163.4 986.27,-1164.21 987.25,-1165.05 988.05,-1165.91 988.66,-1166.79 989.09,-1167.69 989.33,-1168.6 989.4,-1169.52 989.29,-1170.45 989.01,-1171.39 988.57,-1172.33 987.97,-1173.28 987.22,-1174.22 986.33,-1175.15 985.3,-1176.09 984.14,-1177.01 982.86,-1177.92 981.46,-1178.81 979.96,-1179.7 978.36,-1180.56 976.67,-1181.4 974.9,-1182.21 973.05,-1183 971.13,-1183.77 969.15,-1184.5 967.12,-1185.2 965.03,-1185.87 962.91,-1186.5 960.74,-1187.09 958.54,-1187.64 956.31,-1188.16 954.06,-1188.63 951.79,-1189.06 949.5,-1189.44 947.19,-1189.78 944.87,-1190.07 942.54,-1190.31 940.21,-1190.51 937.87,-1190.66 935.52,-1190.76 933.17,-1190.8 930.83,-1190.8 928.48,-1190.76 926.13,-1190.66 923.79,-1190.51 921.46,-1190.31 919.13,-1190.07 916.81,-1189.78 914.5,-1189.44 912.21,-1189.06 909.94,-1188.63 907.69,-1188.16 905.46,-1187.64 903.26,-1187.09 901.09,-1186.5 898.97,-1185.87 896.88,-1185.2 894.85,-1184.5 892.87,-1183.77 890.95,-1183 889.1,-1182.21 887.33,-1181.4 885.64,-1180.56 884.04,-1179.7 882.54,-1178.81 881.14,-1177.92 879.86,-1177.01 878.7,-1176.09 877.67,-1175.15 876.78,-1174.22 876.03,-1173.28 875.43,-1172.33 874.99,-1171.39 874.71,-1170.45 874.6,-1169.52 874.67,-1168.6 874.91,-1167.69 875.34,-1166.79 875.95,-1165.91 876.75,-1165.05 877.73,-1164.21 878.91,-1163.4 880.27,-1162.61 881.82,-1161.84 883.55,-1161.11 885.46,-1160.41 887.54,-1159.74 889.79,-1159.11 892.21,-1158.52 894.78,-1157.96 897.49,-1157.45 900.34,-1156.98 903.32,-1156.55 906.41,-1156.17 909.61,-1155.83 912.9,-1155.54 916.26,-1155.3 919.69,-1155.1 923.17,-1154.95 926.69,-1154.85 930.23,-1154.8 933.77,-1154.8 937.31,-1154.85"/>
<text text-anchor="middle" x="932" y="-1169.1" font-family="Times,serif" font-size="14.00">Facebook</text>
</a>
</g>
</g>
<!-- linkedin -->
<g id="node15" class="node">
<title>linkedin</title>
<g id="a_node15"><a xlink:href="https://roamresearch.com/#/app/ArtOfGig/page/M17w4lZJB" xlink:title="LinkedIn">
<polygon fill="none" stroke="green" points="1077.08,-1154.85 1080.44,-1154.95 1083.76,-1155.1 1087.04,-1155.3 1090.26,-1155.54 1093.4,-1155.83 1096.46,-1156.17 1099.41,-1156.55 1102.26,-1156.98 1104.98,-1157.45 1107.58,-1157.96 1110.03,-1158.52 1112.34,-1159.11 1114.49,-1159.74 1116.49,-1160.41 1118.31,-1161.11 1119.96,-1161.84 1121.44,-1162.61 1122.74,-1163.4 1123.87,-1164.21 1124.81,-1165.05 1125.57,-1165.91 1126.16,-1166.79 1126.56,-1167.69 1126.8,-1168.6 1126.86,-1169.52 1126.76,-1170.45 1126.49,-1171.39 1126.07,-1172.33 1125.5,-1173.28 1124.78,-1174.22 1123.93,-1175.15 1122.94,-1176.09 1121.83,-1177.01 1120.61,-1177.92 1119.27,-1178.81 1117.84,-1179.7 1116.31,-1180.56 1114.7,-1181.4 1113,-1182.21 1111.23,-1183 1109.4,-1183.77 1107.51,-1184.5 1105.57,-1185.2 1103.57,-1185.87 1101.54,-1186.5 1099.47,-1187.09 1097.37,-1187.64 1095.24,-1188.16 1093.09,-1188.63 1090.91,-1189.06 1088.72,-1189.44 1086.52,-1189.78 1084.3,-1190.07 1082.08,-1190.31 1079.85,-1190.51 1077.61,-1190.66 1075.37,-1190.76 1073.12,-1190.8 1070.88,-1190.8 1068.63,-1190.76 1066.39,-1190.66 1064.15,-1190.51 1061.92,-1190.31 1059.7,-1190.07 1057.48,-1189.78 1055.28,-1189.44 1053.09,-1189.06 1050.91,-1188.63 1048.76,-1188.16 1046.63,-1187.64 1044.53,-1187.09 1042.46,-1186.5 1040.43,-1185.87 1038.43,-1185.2 1036.49,-1184.5 1034.6,-1183.77 1032.77,-1183 1031,-1182.21 1029.3,-1181.4 1027.69,-1180.56 1026.16,-1179.7 1024.73,-1178.81 1023.39,-1177.92 1022.17,-1177.01 1021.06,-1176.09 1020.07,-1175.15 1019.22,-1174.22 1018.5,-1173.28 1017.93,-1172.33 1017.51,-1171.39 1017.24,-1170.45 1017.14,-1169.52 1017.2,-1168.6 1017.44,-1167.69 1017.84,-1166.79 1018.43,-1165.91 1019.19,-1165.05 1020.13,-1164.21 1021.26,-1163.4 1022.56,-1162.61 1024.04,-1161.84 1025.69,-1161.11 1027.51,-1160.41 1029.51,-1159.74 1031.66,-1159.11 1033.97,-1158.52 1036.42,-1157.96 1039.02,-1157.45 1041.74,-1156.98 1044.59,-1156.55 1047.54,-1156.17 1050.6,-1155.83 1053.74,-1155.54 1056.96,-1155.3 1060.24,-1155.1 1063.56,-1154.95 1066.92,-1154.85 1070.31,-1154.8 1073.69,-1154.8 1077.08,-1154.85"/>
<text text-anchor="middle" x="1072" y="-1169.1" font-family="Times,serif" font-size="14.00">LinkedIn</text>
</a>
</g>
</g>
<!-- glitch -->
<g id="node16" class="node">
<title>glitch</title>
<g id="a_node16"><a xlink:href="https://roamresearch.com/#/app/ArtOfGig/page/bTxU0ABQS" xlink:title="Glitch">
<polygon fill="none" stroke="blue" points="1194.76,-1154.85 1197.26,-1154.95 1199.72,-1155.1 1202.15,-1155.3 1204.54,-1155.54 1206.87,-1155.83 1209.13,-1156.17 1211.32,-1156.55 1213.43,-1156.98 1215.45,-1157.45 1217.38,-1157.96 1219.2,-1158.52 1220.91,-1159.11 1222.51,-1159.74 1223.98,-1160.41 1225.34,-1161.11 1226.56,-1161.84 1227.66,-1162.61 1228.62,-1163.4 1229.46,-1164.21 1230.15,-1165.05 1230.72,-1165.91 1231.15,-1166.79 1231.45,-1167.69 1231.63,-1168.6 1231.67,-1169.52 1231.6,-1170.45 1231.4,-1171.39 1231.09,-1172.33 1230.66,-1173.28 1230.13,-1174.22 1229.5,-1175.15 1228.77,-1176.09 1227.95,-1177.01 1227.04,-1177.92 1226.05,-1178.81 1224.99,-1179.7 1223.85,-1180.56 1222.66,-1181.4 1221.4,-1182.21 1220.09,-1183 1218.73,-1183.77 1217.33,-1184.5 1215.89,-1185.2 1214.41,-1185.87 1212.9,-1186.5 1211.37,-1187.09 1209.81,-1187.64 1208.23,-1188.16 1206.63,-1188.63 1205.02,-1189.06 1203.4,-1189.44 1201.76,-1189.78 1200.12,-1190.07 1198.47,-1190.31 1196.82,-1190.51 1195.16,-1190.66 1193.5,-1190.76 1191.83,-1190.8 1190.17,-1190.8 1188.5,-1190.76 1186.84,-1190.66 1185.18,-1190.51 1183.53,-1190.31 1181.88,-1190.07 1180.24,-1189.78 1178.6,-1189.44 1176.98,-1189.06 1175.37,-1188.63 1173.77,-1188.16 1172.19,-1187.64 1170.63,-1187.09 1169.1,-1186.5 1167.59,-1185.87 1166.11,-1185.2 1164.67,-1184.5 1163.27,-1183.77 1161.91,-1183 1160.6,-1182.21 1159.34,-1181.4 1158.15,-1180.56 1157.01,-1179.7 1155.95,-1178.81 1154.96,-1177.92 1154.05,-1177.01 1153.23,-1176.09 1152.5,-1175.15 1151.87,-1174.22 1151.34,-1173.28 1150.91,-1172.33 1150.6,-1171.39 1150.4,-1170.45 1150.33,-1169.52 1150.37,-1168.6 1150.55,-1167.69 1150.85,-1166.79 1151.28,-1165.91 1151.85,-1165.05 1152.54,-1164.21 1153.38,-1163.4 1154.34,-1162.61 1155.44,-1161.84 1156.66,-1161.11 1158.02,-1160.41 1159.49,-1159.74 1161.09,-1159.11 1162.8,-1158.52 1164.62,-1157.96 1166.55,-1157.45 1168.57,-1156.98 1170.68,-1156.55 1172.87,-1156.17 1175.13,-1155.83 1177.46,-1155.54 1179.85,-1155.3 1182.28,-1155.1 1184.74,-1154.95 1187.24,-1154.85 1189.74,-1154.8 1192.26,-1154.8 1194.76,-1154.85"/>
<text text-anchor="middle" x="1191" y="-1169.1" font-family="Times,serif" font-size="14.00">Glitch</text>
</a>
</g>
</g>
<!-- create_post -->
<g id="node26" class="node">
<title>create_post</title>
<g id="a_node26"><a xlink:href="https://roamresearch.com/#/app/ArtOfGig/page/wDK81GyfO" xlink:title="create&#45;post">
<polygon fill="none" stroke="blue" points="419.5,-637.8 322.5,-637.8 322.5,-601.8 419.5,-601.8 419.5,-637.8"/>
<text text-anchor="middle" x="371" y="-616.1" font-family="Times,serif" font-size="14.00">create&#45;post</text>
</a>
</g>
</g>
<!-- rss_applet&#45;&gt;create_post -->
<g id="edge22" class="edge">
<title>rss_applet&#45;&gt;create_post</title>
<path fill="none" stroke="black" d="M1061.54,-806.33C1055.38,-803.58 1049.04,-800.84 1043,-798.36 1021.55,-789.57 1012.22,-794.81 994,-780.48 981.4,-770.58 988.07,-758.15 974,-750.48 948.14,-736.39 469.51,-757.18 444,-742.48 408.49,-722.02 388.3,-676.75 378.52,-647.57"/>
<polygon fill="black" stroke="black" points="381.84,-646.47 375.48,-637.99 375.17,-648.58 381.84,-646.47"/>
<text text-anchor="middle" x="1044.5" y="-769.28" font-family="Times,serif" font-size="14.00">RSS post data</text>
<text text-anchor="middle" x="1044.5" y="-754.28" font-family="Times,serif" font-size="14.00">to webhook</text>
</g>
<!-- twitter_applets&#45;&gt;twitter -->
<g id="edge28" class="edge">
<title>twitter_applets&#45;&gt;twitter</title>
<path fill="none" stroke="black" d="M1202,-806.11C1202,-770.49 1202,-689.18 1202,-620.8 1202,-620.8 1202,-620.8 1202,-119 1202,-88.2 1196.92,-78.3 1178,-54 1173.24,-47.88 1167.11,-42.43 1160.76,-37.76"/>
<polygon fill="black" stroke="black" points="1162.31,-34.59 1152.07,-31.88 1158.39,-40.38 1162.31,-34.59"/>
<text text-anchor="middle" x="1246.5" y="-329.67" font-family="Times,serif" font-size="14.00">Tweet about</text>
<text text-anchor="middle" x="1246.5" y="-314.67" font-family="Times,serif" font-size="14.00">new content</text>
</g>
<!-- netlify_applet -->
<g id="node19" class="node">
<title>netlify_applet</title>
<g id="a_node19"><a xlink:href="https://roamresearch.com/#/app/ArtOfGig/page/EWP06EjZH" xlink:title="Netlify Build\nHook Applet">
<polygon fill="none" stroke="blue" points="1033.5,-844.36 926.5,-844.36 926.5,-806.36 1033.5,-806.36 1033.5,-844.36"/>
<text text-anchor="middle" x="980" y="-829.16" font-family="Times,serif" font-size="14.00">Netlify Build</text>
<text text-anchor="middle" x="980" y="-814.16" font-family="Times,serif" font-size="14.00">Hook Applet</text>
</a>
</g>
</g>
<!-- netlify_ci -->
<g id="node21" class="node">
<title>netlify_ci</title>
<g id="a_node21"><a xlink:href="https://roamresearch.com/#/app/ArtOfGig/page/lfZqzDmtI" xlink:title="Netlify Continuous\nIntegration">
<polygon fill="none" stroke="blue" points="491.54,-1146.12 498.52,-1146.27 505.43,-1146.48 512.23,-1146.78 518.91,-1147.14 525.44,-1147.57 531.78,-1148.07 537.92,-1148.64 543.83,-1149.28 549.49,-1149.98 554.88,-1150.74 559.97,-1151.57 564.77,-1152.45 569.24,-1153.39 573.37,-1154.38 577.16,-1155.42 580.6,-1156.51 583.67,-1157.64 586.37,-1158.82 588.7,-1160.03 590.66,-1161.28 592.24,-1162.56 593.45,-1163.87 594.3,-1165.2 594.78,-1166.56 594.91,-1167.93 594.7,-1169.31 594.15,-1170.7 593.27,-1172.1 592.08,-1173.51 590.6,-1174.9 588.82,-1176.3 586.78,-1177.68 584.47,-1179.05 581.93,-1180.41 579.16,-1181.74 576.18,-1183.05 573.01,-1184.33 569.66,-1185.58 566.14,-1186.79 562.47,-1187.97 558.66,-1189.1 554.74,-1190.19 550.7,-1191.23 546.56,-1192.22 542.34,-1193.16 538.04,-1194.04 533.68,-1194.86 529.26,-1195.63 524.78,-1196.33 520.27,-1196.96 515.72,-1197.53 511.15,-1198.04 506.55,-1198.47 501.93,-1198.83 497.29,-1199.12 492.64,-1199.34 487.99,-1199.49 483.33,-1199.56 478.67,-1199.56 474.01,-1199.49 469.36,-1199.34 464.71,-1199.12 460.07,-1198.83 455.45,-1198.47 450.85,-1198.04 446.28,-1197.53 441.73,-1196.96 437.22,-1196.33 432.74,-1195.63 428.32,-1194.86 423.96,-1194.04 419.66,-1193.16 415.44,-1192.22 411.3,-1191.23 407.26,-1190.19 403.34,-1189.1 399.53,-1187.97 395.86,-1186.79 392.34,-1185.58 388.99,-1184.33 385.82,-1183.05 382.84,-1181.74 380.07,-1180.41 377.53,-1179.05 375.22,-1177.68 373.18,-1176.3 371.4,-1174.9 369.92,-1173.51 368.73,-1172.1 367.85,-1170.7 367.3,-1169.31 367.09,-1167.93 367.22,-1166.56 367.7,-1165.2 368.55,-1163.87 369.76,-1162.56 371.34,-1161.28 373.3,-1160.03 375.63,-1158.82 378.33,-1157.64 381.4,-1156.51 384.84,-1155.42 388.63,-1154.38 392.76,-1153.39 397.23,-1152.45 402.03,-1151.57 407.12,-1150.74 412.51,-1149.98 418.17,-1149.28 424.08,-1148.64 430.22,-1148.07 436.56,-1147.57 443.09,-1147.14 449.77,-1146.78 456.57,-1146.48 463.48,-1146.27 470.46,-1146.12 477.48,-1146.05 484.52,-1146.05 491.54,-1146.12"/>
<text text-anchor="middle" x="481" y="-1176.6" font-family="Times,serif" font-size="14.00">Netlify Continuous</text>
<text text-anchor="middle" x="481" y="-1161.6" font-family="Times,serif" font-size="14.00">Integration</text>
</a>
</g>
</g>
<!-- netlify_applet&#45;&gt;netlify_ci -->
<g id="edge13" class="edge">
<title>netlify_applet&#45;&gt;netlify_ci</title>
<path fill="none" stroke="black" d="M959.78,-844.64C903.44,-894.9 738.62,-1037.4 583,-1127.93 572.72,-1133.91 561.46,-1139.56 550.3,-1144.68"/>
<polygon fill="black" stroke="black" points="548.67,-1141.58 540.98,-1148.86 551.53,-1147.97 548.67,-1141.58"/>
<text text-anchor="middle" x="907.5" y="-1016.94" font-family="Times,serif" font-size="14.00">Trigger rebuild</text>
<text text-anchor="middle" x="907.5" y="-1001.94" font-family="Times,serif" font-size="14.00">every 24 hours</text>
</g>
<!-- github -->
<g id="node20" class="node">
<title>github</title>
<g id="a_node20"><a xlink:href="https://roamresearch.com/#/app/ArtOfGig/page/1PVNV7Ell" xlink:title="GitHub">
<polygon fill="none" stroke="blue" points="126.36,-307.92 129.25,-308.02 132.11,-308.17 134.92,-308.36 137.69,-308.61 140.39,-308.9 143.01,-309.24 145.55,-309.62 148,-310.05 150.34,-310.52 152.57,-311.03 154.68,-311.59 156.66,-312.18 158.51,-312.81 160.22,-313.48 161.79,-314.18 163.21,-314.91 164.48,-315.67 165.6,-316.47 166.56,-317.28 167.37,-318.12 168.03,-318.98 168.53,-319.86 168.88,-320.76 169.08,-321.67 169.13,-322.59 169.04,-323.52 168.82,-324.46 168.45,-325.4 167.96,-326.34 167.35,-327.29 166.61,-328.22 165.77,-329.15 164.81,-330.08 163.76,-330.99 162.62,-331.88 161.38,-332.76 160.07,-333.63 158.68,-334.47 157.23,-335.28 155.71,-336.07 154.13,-336.84 152.51,-337.57 150.84,-338.27 149.13,-338.93 147.38,-339.57 145.6,-340.16 143.8,-340.71 141.97,-341.23 140.12,-341.7 138.25,-342.13 136.37,-342.51 134.47,-342.85 132.57,-343.14 130.66,-343.38 128.74,-343.58 126.82,-343.73 124.89,-343.82 122.96,-343.87 121.04,-343.87 119.11,-343.82 117.18,-343.73 115.26,-343.58 113.34,-343.38 111.43,-343.14 109.53,-342.85 107.63,-342.51 105.75,-342.13 103.88,-341.7 102.03,-341.23 100.2,-340.71 98.4,-340.16 96.62,-339.57 94.87,-338.93 93.16,-338.27 91.49,-337.57 89.87,-336.84 88.29,-336.07 86.77,-335.28 85.32,-334.47 83.93,-333.63 82.62,-332.76 81.38,-331.88 80.24,-330.99 79.19,-330.08 78.23,-329.15 77.39,-328.22 76.65,-327.29 76.04,-326.34 75.55,-325.4 75.18,-324.46 74.96,-323.52 74.87,-322.59 74.92,-321.67 75.12,-320.76 75.47,-319.86 75.97,-318.98 76.63,-318.12 77.44,-317.28 78.4,-316.47 79.52,-315.67 80.79,-314.91 82.21,-314.18 83.78,-313.48 85.49,-312.81 87.34,-312.18 89.32,-311.59 91.43,-311.03 93.66,-310.52 96,-310.05 98.45,-309.62 100.99,-309.24 103.61,-308.9 106.31,-308.61 109.08,-308.36 111.89,-308.17 114.75,-308.02 117.64,-307.92 120.54,-307.87 123.46,-307.87 126.36,-307.92"/>
<text text-anchor="middle" x="122" y="-322.17" font-family="Times,serif" font-size="14.00">GitHub</text>
</a>
</g>
</g>
<!-- github&#45;&gt;netlify_ci -->
<g id="edge12" class="edge">
<title>github&#45;&gt;netlify_ci</title>
<path fill="none" stroke="black" d="M122,-343.98C122,-388.99 122,-514.4 122,-618.8 122,-1014.14 122,-1014.14 122,-1014.14 122,-1051.03 114.81,-1068.96 141,-1094.93 172.26,-1125.92 277.81,-1146.52 363.1,-1158.52"/>
<polygon fill="black" stroke="black" points="362.75,-1162.01 373.13,-1159.91 363.71,-1155.07 362.75,-1162.01"/>
<text text-anchor="middle" x="201.5" y="-829.16" font-family="Times,serif" font-size="14.00">Repo contents pushed</text>
<text text-anchor="middle" x="201.5" y="-814.16" font-family="Times,serif" font-size="14.00">on commit</text>
</g>
<!-- jekyll -->
<g id="node22" class="node">
<title>jekyll</title>
<g id="a_node22"><a xlink:href="https://roamresearch.com/#/app/ArtOfGig/page/fF35dWNYl" xlink:title="Jekyll">
<polygon fill="none" stroke="blue" points="509,-1031.14 453,-1031.14 453,-995.14 509,-995.14 509,-1031.14"/>
<text text-anchor="middle" x="481" y="-1009.44" font-family="Times,serif" font-size="14.00">Jekyll</text>
</a>
</g>
</g>
<!-- netlify_ci&#45;&gt;jekyll -->
<g id="edge14" class="edge">
<title>netlify_ci&#45;&gt;jekyll</title>
<path fill="none" stroke="black" d="M481,-1145.77C481,-1117.08 481,-1071.11 481,-1041.79"/>
<polygon fill="black" stroke="black" points="484.5,-1041.43 481,-1031.43 477.5,-1041.43 484.5,-1041.43"/>
<text text-anchor="middle" x="530" y="-1116.73" font-family="Times,serif" font-size="14.00">Build website</text>
</g>
<!-- netlify_cdn -->
<g id="node23" class="node">
<title>netlify_cdn</title>
<g id="a_node23"><a xlink:href="https://roamresearch.com/#/app/ArtOfGig/page/R-E2CDAe2" xlink:title="Netlify\nCDN">
<polygon fill="none" stroke="blue" points="485.52,-798.68 488.52,-798.82 491.48,-799.04 494.41,-799.33 497.27,-799.7 500.07,-800.13 502.8,-800.63 505.43,-801.2 507.97,-801.84 510.4,-802.54 512.71,-803.3 514.9,-804.12 516.95,-805.01 518.87,-805.94 520.65,-806.94 522.27,-807.98 523.75,-809.07 525.07,-810.2 526.23,-811.38 527.23,-812.59 528.07,-813.84 528.75,-815.12 529.27,-816.43 529.63,-817.76 529.84,-819.11 529.89,-820.48 529.8,-821.87 529.56,-823.26 529.19,-824.66 528.68,-826.06 528.04,-827.46 527.28,-828.86 526.4,-830.24 525.41,-831.61 524.32,-832.96 523.13,-834.3 521.85,-835.61 520.49,-836.89 519.05,-838.13 517.54,-839.35 515.97,-840.52 514.33,-841.66 512.65,-842.75 510.92,-843.79 509.14,-844.78 507.33,-845.72 505.48,-846.6 503.61,-847.42 501.71,-848.19 499.79,-848.89 497.86,-849.52 495.9,-850.09 493.94,-850.59 491.96,-851.03 489.98,-851.39 487.99,-851.68 486,-851.9 484,-852.05 482,-852.12 480,-852.12 478,-852.05 476,-851.9 474.01,-851.68 472.02,-851.39 470.04,-851.03 468.06,-850.59 466.1,-850.09 464.14,-849.52 462.21,-848.89 460.29,-848.19 458.39,-847.42 456.52,-846.6 454.67,-845.72 452.86,-844.78 451.08,-843.79 449.35,-842.75 447.67,-841.66 446.03,-840.52 444.46,-839.35 442.95,-838.13 441.51,-836.89 440.15,-835.61 438.87,-834.3 437.68,-832.96 436.59,-831.61 435.6,-830.24 434.72,-828.86 433.96,-827.46 433.32,-826.06 432.81,-824.66 432.44,-823.26 432.2,-821.87 432.11,-820.48 432.16,-819.11 432.37,-817.76 432.73,-816.43 433.25,-815.12 433.93,-813.84 434.77,-812.59 435.77,-811.38 436.93,-810.2 438.25,-809.07 439.73,-807.98 441.35,-806.94 443.13,-805.94 445.05,-805.01 447.1,-804.12 449.29,-803.3 451.6,-802.54 454.03,-801.84 456.57,-801.2 459.2,-800.63 461.93,-800.13 464.73,-799.7 467.59,-799.33 470.52,-799.04 473.48,-798.82 476.48,-798.68 479.49,-798.6 482.51,-798.6 485.52,-798.68"/>
<text text-anchor="middle" x="481" y="-829.16" font-family="Times,serif" font-size="14.00">Netlify</text>
<text text-anchor="middle" x="481" y="-814.16" font-family="Times,serif" font-size="14.00">CDN</text>
</a>
</g>
</g>
<!-- jekyll&#45;&gt;netlify_cdn -->
<g id="edge15" class="edge">
<title>jekyll&#45;&gt;netlify_cdn</title>
<path fill="none" stroke="black" d="M481,-995C481,-964.98 481,-902.32 481,-862.41"/>
<polygon fill="black" stroke="black" points="484.5,-862.29 481,-852.29 477.5,-862.29 484.5,-862.29"/>
<text text-anchor="middle" x="548" y="-902.16" font-family="Times,serif" font-size="14.00">Optimize &amp; deploy</text>
<text text-anchor="middle" x="548" y="-887.16" font-family="Times,serif" font-size="14.00">website files</text>
</g>
<!-- website -->
<g id="node24" class="node">
<title>website</title>
<g id="a_node24"><a xlink:href="https://roamresearch.com/#/app/ArtOfGig/page/h0Wx539Oq" xlink:title="Yak Collective\nWebsite">
<ellipse fill="none" stroke="green" cx="542" cy="-619.8" rx="82.05" ry="82.05"/>
<ellipse fill="none" stroke="green" cx="542" cy="-619.8" rx="86.05" ry="86.05"/>
<text text-anchor="middle" x="542" y="-623.6" font-family="Times,serif" font-size="14.00">Yak Collective</text>
<text text-anchor="middle" x="542" y="-608.6" font-family="Times,serif" font-size="14.00">Website</text>
</a>
</g>
</g>
<!-- netlify_cdn&#45;&gt;website -->
<g id="edge17" class="edge">
<title>netlify_cdn&#45;&gt;website</title>
<path fill="none" stroke="black" d="M492.71,-799.1C495.29,-793.07 497.88,-786.6 500,-780.48 507.39,-759.13 514.2,-735.78 520.11,-713.69"/>
<polygon fill="black" stroke="black" points="523.5,-714.54 522.67,-703.98 516.73,-712.76 523.5,-714.54"/>
<text text-anchor="middle" x="565.5" y="-769.28" font-family="Times,serif" font-size="14.00">Push to Amazon</text>
<text text-anchor="middle" x="565.5" y="-754.28" font-family="Times,serif" font-size="14.00">Cloudfront</text>
</g>
<!-- featured_yak -->
<g id="node25" class="node">
<title>featured_yak</title>
<g id="a_node25"><a xlink:href="https://roamresearch.com/#/app/ArtOfGig/page/ZzuH6YDFq" xlink:title="&quot;Featured Yak&quot;\nRSS Feed">
<ellipse fill="none" stroke="green" cx="738" cy="-619.8" rx="87.85" ry="87.85"/>
<ellipse fill="none" stroke="green" cx="738" cy="-619.8" rx="91.86" ry="91.86"/>
<text text-anchor="middle" x="738" y="-623.6" font-family="Times,serif" font-size="14.00">&quot;Featured Yak&quot;</text>
<text text-anchor="middle" x="738" y="-608.6" font-family="Times,serif" font-size="14.00">RSS Feed</text>
</a>
</g>
</g>
<!-- netlify_cdn&#45;&gt;featured_yak -->
<g id="edge18" class="edge">
<title>netlify_cdn&#45;&gt;featured_yak</title>
<path fill="none" stroke="black" d="M529.99,-818.02C560.21,-812.19 598.51,-801.15 627,-780.48 652.29,-762.13 673.8,-736.19 690.96,-710.53"/>
<polygon fill="black" stroke="black" points="694.09,-712.14 696.61,-701.85 688.22,-708.32 694.09,-712.14"/>
<text text-anchor="middle" x="715.5" y="-769.28" font-family="Times,serif" font-size="14.00">Push to Amazon</text>
<text text-anchor="middle" x="715.5" y="-754.28" font-family="Times,serif" font-size="14.00">Cloudfront</text>
</g>
<!-- netlify_cdn&#45;&gt;create_post -->
<g id="edge19" class="edge">
<title>netlify_cdn&#45;&gt;create_post</title>
<path fill="none" stroke="black" d="M432.58,-816.51C411.27,-810.42 388.13,-799.61 375,-780.48 347.83,-740.91 355.57,-681.85 363.44,-647.75"/>
<polygon fill="black" stroke="black" points="366.84,-648.56 365.84,-638.01 360.05,-646.88 366.84,-648.56"/>
<text text-anchor="middle" x="435.5" y="-769.28" font-family="Times,serif" font-size="14.00">Create Amazon</text>
<text text-anchor="middle" x="435.5" y="-754.28" font-family="Times,serif" font-size="14.00">Lambda function</text>
</g>
<!-- website&#45;&gt;registration_form -->
<g id="edge5" class="edge">
<title>website&#45;&gt;registration_form</title>
<path fill="none" stroke="red" d="M491.07,-550.38C481.1,-535.52 471.21,-519.61 463,-504.12 447.31,-474.5 433.21,-440.5 421.91,-410.25"/>
<polygon fill="red" stroke="red" points="425.08,-408.74 418.34,-400.57 418.52,-411.17 425.08,-408.74"/>
<text text-anchor="middle" x="515.5" y="-492.92" font-family="Times,serif" font-size="14.00">Sign up form</text>
<text text-anchor="middle" x="515.5" y="-477.92" font-family="Times,serif" font-size="14.00">(minimal data)</text>
</g>
<!-- website&#45;&gt;google_analytics -->
<g id="edge1" class="edge">
<title>website&#45;&gt;google_analytics</title>
<path fill="none" stroke="black" d="M583.39,-544.21C596.89,-519.48 611.79,-491.73 625,-466.12 643.33,-430.57 663.31,-389.34 676.84,-361.02"/>
<polygon fill="black" stroke="black" points="680.02,-362.47 681.16,-351.94 673.7,-359.46 680.02,-362.47"/>
<text text-anchor="middle" x="678" y="-485.42" font-family="Times,serif" font-size="14.00">Visitor analytics</text>
</g>
<!-- website&#45;&gt;reboot_deck -->
<g id="edge2" class="edge">
<title>website&#45;&gt;reboot_deck</title>
<path fill="none" stroke="red" d="M590.53,-548.54C603.88,-534.15 619.56,-520.77 637,-512.12 678.14,-491.72 699.72,-526.15 740,-504.12 773.41,-485.85 800.98,-455.31 822.25,-424.68"/>
<polygon fill="red" stroke="red" points="825.38,-426.3 828.08,-416.05 819.58,-422.38 825.38,-426.3"/>
<text text-anchor="middle" x="849" y="-485.42" font-family="Times,serif" font-size="14.00">Google Slides / PDF</text>
</g>
<!-- website&#45;&gt;home_deck -->
<g id="edge3" class="edge">
<title>website&#45;&gt;home_deck</title>
<path fill="none" stroke="red" d="M589.97,-548.18C603.39,-533.71 619.24,-520.39 637,-512.12 665.92,-498.66 893.49,-513.43 924,-504.12 954.19,-494.91 961.3,-488.06 984,-466.12 1001.22,-449.48 1017.13,-429.26 1030.82,-409.44"/>
<polygon fill="red" stroke="red" points="1033.84,-411.22 1036.54,-400.98 1028.04,-407.3 1033.84,-411.22"/>
<text text-anchor="middle" x="1046" y="-485.42" font-family="Times,serif" font-size="14.00">Google Slides / PDF</text>
</g>
<!-- featured_yak&#45;&gt;twitter_applets -->
<g id="edge27" class="edge">
<title>featured_yak&#45;&gt;twitter_applets</title>
<path fill="none" stroke="black" d="M827.86,-638.06C905.32,-656.26 1017.26,-690.78 1099,-750.48 1112.57,-760.39 1109.03,-769.8 1122,-780.48 1135.79,-791.84 1142.3,-789.84 1158,-798.36 1159.7,-799.28 1161.42,-800.23 1163.16,-801.21"/>
<polygon fill="black" stroke="black" points="1161.45,-804.26 1171.87,-806.17 1164.91,-798.18 1161.45,-804.26"/>
<text text-anchor="middle" x="1155" y="-769.28" font-family="Times,serif" font-size="14.00">Pulled</text>
<text text-anchor="middle" x="1155" y="-754.28" font-family="Times,serif" font-size="14.00">by IFTTT</text>
</g>
<!-- create_post&#45;&gt;discord -->
<g id="edge24" class="edge">
<title>create_post&#45;&gt;discord</title>
<path fill="none" stroke="black" d="M361.01,-601.71C318.18,-526 158.91,-217.45 307,-54 322.91,-36.44 466.77,-26.16 548.64,-21.68"/>
<polygon fill="black" stroke="black" points="548.99,-25.17 558.79,-21.14 548.62,-18.18 548.99,-25.17"/>
<text text-anchor="middle" x="310.5" y="-195.8" font-family="Times,serif" font-size="14.00">Post in</text>
<text text-anchor="middle" x="310.5" y="-180.8" font-family="Times,serif" font-size="14.00">#yaktalk&#45;content</text>
</g>
<!-- create_post&#45;&gt;github -->
<g id="edge23" class="edge">
<title>create_post&#45;&gt;github</title>
<path fill="none" stroke="black" d="M322.46,-605.5C273.74,-589.57 200.32,-558.04 160,-504.12 126.55,-459.39 121.22,-391.49 121.09,-354.04"/>
<polygon fill="black" stroke="black" points="124.59,-353.93 121.18,-343.9 117.59,-353.86 124.59,-353.93"/>
<text text-anchor="middle" x="207.5" y="-492.92" font-family="Times,serif" font-size="14.00">Commit new</text>
<text text-anchor="middle" x="207.5" y="-477.92" font-family="Times,serif" font-size="14.00">member post</text>
</g>
<!-- namecheap -->
<g id="node27" class="node">
<title>namecheap</title>
<g id="a_node27"><a xlink:href="https://roamresearch.com/#/app/ArtOfGig/page/SrB_NQUiU" xlink:title="Namecheap">
<polygon fill="none" stroke="blue" points="226.46,-995.19 230.74,-995.29 234.97,-995.44 239.14,-995.63 243.24,-995.88 247.23,-996.17 251.12,-996.51 254.88,-996.89 258.51,-997.32 261.97,-997.79 265.28,-998.3 268.4,-998.86 271.34,-999.45 274.08,-1000.08 276.61,-1000.75 278.94,-1001.45 281.04,-1002.18 282.92,-1002.94 284.58,-1003.74 286.01,-1004.55 287.2,-1005.39 288.18,-1006.25 288.92,-1007.13 289.44,-1008.03 289.73,-1008.94 289.81,-1009.86 289.68,-1010.79 289.34,-1011.73 288.81,-1012.67 288.08,-1013.61 287.17,-1014.56 286.08,-1015.49 284.83,-1016.42 283.42,-1017.35 281.86,-1018.26 280.16,-1019.15 278.33,-1020.03 276.39,-1020.9 274.33,-1021.74 272.18,-1022.55 269.93,-1023.34 267.6,-1024.1 265.19,-1024.84 262.72,-1025.54 260.18,-1026.2 257.59,-1026.84 254.96,-1027.43 252.28,-1027.98 249.57,-1028.5 246.83,-1028.97 244.07,-1029.4 241.28,-1029.78 238.48,-1030.12 235.66,-1030.41 232.82,-1030.65 229.98,-1030.85 227.14,-1031 224.28,-1031.09 221.43,-1031.14 218.57,-1031.14 215.72,-1031.09 212.86,-1031 210.02,-1030.85 207.18,-1030.65 204.34,-1030.41 201.52,-1030.12 198.72,-1029.78 195.93,-1029.4 193.17,-1028.97 190.43,-1028.5 187.72,-1027.98 185.04,-1027.43 182.41,-1026.84 179.82,-1026.2 177.28,-1025.54 174.81,-1024.84 172.4,-1024.1 170.07,-1023.34 167.82,-1022.55 165.67,-1021.74 163.61,-1020.9 161.67,-1020.03 159.84,-1019.15 158.14,-1018.26 156.58,-1017.35 155.17,-1016.42 153.92,-1015.49 152.83,-1014.56 151.92,-1013.61 151.19,-1012.67 150.66,-1011.73 150.32,-1010.79 150.19,-1009.86 150.27,-1008.94 150.56,-1008.03 151.08,-1007.13 151.82,-1006.25 152.8,-1005.39 153.99,-1004.55 155.42,-1003.74 157.08,-1002.94 158.96,-1002.18 161.06,-1001.45 163.39,-1000.75 165.92,-1000.08 168.66,-999.45 171.6,-998.86 174.72,-998.3 178.03,-997.79 181.49,-997.32 185.12,-996.89 188.88,-996.51 192.77,-996.17 196.76,-995.88 200.86,-995.63 205.03,-995.44 209.26,-995.29 213.54,-995.19 217.84,-995.14 222.16,-995.14 226.46,-995.19"/>
<text text-anchor="middle" x="220" y="-1009.44" font-family="Times,serif" font-size="14.00">Namecheap</text>
</a>
</g>
</g>
<!-- namecheap&#45;&gt;netlify_cdn -->
<g id="edge16" class="edge">
<title>namecheap&#45;&gt;netlify_cdn</title>
<path fill="none" stroke="black" d="M233.97,-995.28C248.3,-978.37 271.61,-951.97 294,-931.36 319.64,-907.76 326.17,-901.38 356,-883.36 381.32,-868.07 411.45,-854.21 435.78,-843.99"/>
<polygon fill="black" stroke="black" points="437.24,-847.18 445.14,-840.12 434.56,-840.71 437.24,-847.18"/>
<text text-anchor="middle" x="416.5" y="-894.66" font-family="Times,serif" font-size="14.00">DNS information</text>
</g>
<!-- knack -->
<g id="node28" class="node">
<title>knack</title>
<g id="a_node28"><a xlink:href="https://roamresearch.com/#/app/ArtOfGig/page/FDjmLsCeR" xlink:title="Knack">
<polygon fill="none" stroke="green" points="1294.85,-1154.85 1297.39,-1154.95 1299.91,-1155.1 1302.39,-1155.3 1304.83,-1155.54 1307.21,-1155.83 1309.53,-1156.17 1311.76,-1156.55 1313.92,-1156.98 1315.99,-1157.45 1317.95,-1157.96 1319.81,-1158.52 1321.56,-1159.11 1323.19,-1159.74 1324.7,-1160.41 1326.08,-1161.11 1327.33,-1161.84 1328.45,-1162.61 1329.44,-1163.4 1330.29,-1164.21 1331,-1165.05 1331.58,-1165.91 1332.02,-1166.79 1332.33,-1167.69 1332.51,-1168.6 1332.56,-1169.52 1332.48,-1170.45 1332.28,-1171.39 1331.96,-1172.33 1331.53,-1173.28 1330.98,-1174.22 1330.34,-1175.15 1329.59,-1176.09 1328.75,-1177.01 1327.82,-1177.92 1326.81,-1178.81 1325.72,-1179.7 1324.57,-1180.56 1323.34,-1181.4 1322.06,-1182.21 1320.72,-1183 1319.33,-1183.77 1317.9,-1184.5 1316.43,-1185.2 1314.92,-1185.87 1313.38,-1186.5 1311.81,-1187.09 1310.22,-1187.64 1308.6,-1188.16 1306.97,-1188.63 1305.33,-1189.06 1303.67,-1189.44 1302,-1189.78 1300.32,-1190.07 1298.63,-1190.31 1296.94,-1190.51 1295.25,-1190.66 1293.55,-1190.76 1291.85,-1190.8 1290.15,-1190.8 1288.45,-1190.76 1286.75,-1190.66 1285.06,-1190.51 1283.37,-1190.31 1281.68,-1190.07 1280,-1189.78 1278.33,-1189.44 1276.67,-1189.06 1275.03,-1188.63 1273.4,-1188.16 1271.78,-1187.64 1270.19,-1187.09 1268.62,-1186.5 1267.08,-1185.87 1265.57,-1185.2 1264.1,-1184.5 1262.67,-1183.77 1261.28,-1183 1259.94,-1182.21 1258.66,-1181.4 1257.43,-1180.56 1256.28,-1179.7 1255.19,-1178.81 1254.18,-1177.92 1253.25,-1177.01 1252.41,-1176.09 1251.66,-1175.15 1251.02,-1174.22 1250.47,-1173.28 1250.04,-1172.33 1249.72,-1171.39 1249.52,-1170.45 1249.44,-1169.52 1249.49,-1168.6 1249.67,-1167.69 1249.98,-1166.79 1250.42,-1165.91 1251,-1165.05 1251.71,-1164.21 1252.56,-1163.4 1253.55,-1162.61 1254.67,-1161.84 1255.92,-1161.11 1257.3,-1160.41 1258.81,-1159.74 1260.44,-1159.11 1262.19,-1158.52 1264.05,-1157.96 1266.01,-1157.45 1268.08,-1156.98 1270.24,-1156.55 1272.47,-1156.17 1274.79,-1155.83 1277.17,-1155.54 1279.61,-1155.3 1282.09,-1155.1 1284.61,-1154.95 1287.15,-1154.85 1289.72,-1154.8 1292.28,-1154.8 1294.85,-1154.85"/>
<text text-anchor="middle" x="1291" y="-1169.1" font-family="Times,serif" font-size="14.00">Knack</text>
</a>
</g>
</g>
<!-- roam -->
<g id="node29" class="node">
<title>roam</title>
<g id="a_node29"><a xlink:href="https://roamresearch.com/#/app/ArtOfGig/page/FEPWC0DLJ" xlink:title="Roam">
<polygon fill="none" stroke="green" points="1393.65,-1154.85 1396.06,-1154.95 1398.45,-1155.1 1400.8,-1155.3 1403.11,-1155.54 1405.37,-1155.83 1407.57,-1156.17 1409.69,-1156.55 1411.73,-1156.98 1413.69,-1157.45 1415.56,-1157.96 1417.32,-1158.52 1418.98,-1159.11 1420.52,-1159.74 1421.95,-1160.41 1423.26,-1161.11 1424.45,-1161.84 1425.51,-1162.61 1426.45,-1163.4 1427.26,-1164.21 1427.93,-1165.05 1428.48,-1165.91 1428.9,-1166.79 1429.19,-1167.69 1429.36,-1168.6 1429.4,-1169.52 1429.33,-1170.45 1429.14,-1171.39 1428.84,-1172.33 1428.43,-1173.28 1427.91,-1174.22 1427.3,-1175.15 1426.59,-1176.09 1425.79,-1177.01 1424.91,-1177.92 1423.96,-1178.81 1422.93,-1179.7 1421.83,-1180.56 1420.67,-1181.4 1419.45,-1182.21 1418.18,-1183 1416.87,-1183.77 1415.51,-1184.5 1414.11,-1185.2 1412.68,-1185.87 1411.22,-1186.5 1409.73,-1187.09 1408.22,-1187.64 1406.69,-1188.16 1405.15,-1188.63 1403.58,-1189.06 1402.01,-1189.44 1400.43,-1189.78 1398.84,-1190.07 1397.24,-1190.31 1395.63,-1190.51 1394.03,-1190.66 1392.42,-1190.76 1390.81,-1190.8 1389.19,-1190.8 1387.58,-1190.76 1385.97,-1190.66 1384.37,-1190.51 1382.76,-1190.31 1381.16,-1190.07 1379.57,-1189.78 1377.99,-1189.44 1376.42,-1189.06 1374.85,-1188.63 1373.31,-1188.16 1371.78,-1187.64 1370.27,-1187.09 1368.78,-1186.5 1367.32,-1185.87 1365.89,-1185.2 1364.49,-1184.5 1363.13,-1183.77 1361.82,-1183 1360.55,-1182.21 1359.33,-1181.4 1358.17,-1180.56 1357.07,-1179.7 1356.04,-1178.81 1355.09,-1177.92 1354.21,-1177.01 1353.41,-1176.09 1352.7,-1175.15 1352.09,-1174.22 1351.57,-1173.28 1351.16,-1172.33 1350.86,-1171.39 1350.67,-1170.45 1350.6,-1169.52 1350.64,-1168.6 1350.81,-1167.69 1351.1,-1166.79 1351.52,-1165.91 1352.07,-1165.05 1352.74,-1164.21 1353.55,-1163.4 1354.49,-1162.61 1355.55,-1161.84 1356.74,-1161.11 1358.05,-1160.41 1359.48,-1159.74 1361.02,-1159.11 1362.68,-1158.52 1364.44,-1157.96 1366.31,-1157.45 1368.27,-1156.98 1370.31,-1156.55 1372.43,-1156.17 1374.63,-1155.83 1376.89,-1155.54 1379.2,-1155.3 1381.55,-1155.1 1383.94,-1154.95 1386.35,-1154.85 1388.78,-1154.8 1391.22,-1154.8 1393.65,-1154.85"/>
<text text-anchor="middle" x="1390" y="-1169.1" font-family="Times,serif" font-size="14.00">Roam</text>
</a>
</g>
</g>
<!-- visitor -->
<g id="node30" class="node">
<title>visitor</title>
</g>
<!-- visitor&#45;&gt;website -->
<g id="edge4" class="edge">
<title>visitor&#45;&gt;website</title>
<path fill="none" stroke="red" d="M874.75,-807.19C867.2,-787.5 854.25,-757.09 844,-750.48 824.65,-738.01 657.49,-752.97 637,-742.48 619.12,-733.33 603.57,-719.11 590.52,-703.57"/>
<polygon fill="red" stroke="red" points="592.91,-700.95 583.92,-695.34 587.45,-705.33 592.91,-700.95"/>
<text text-anchor="middle" x="916" y="-761.78" font-family="Times,serif" font-size="14.00">Website visitor</text>
</g>
<!-- developer -->
<g id="node31" class="node">
<title>developer</title>
</g>
<!-- developer&#45;&gt;github -->
<g id="edge11" class="edge">
<title>developer&#45;&gt;github</title>
<path fill="none" stroke="red" d="M24.08,-601.42C20.11,-573.79 14.89,-518.44 28,-474.12 42.34,-425.62 77.88,-377.83 100.92,-350.4"/>
<polygon fill="red" stroke="red" points="103.79,-352.44 107.63,-342.57 98.47,-347.88 103.79,-352.44"/>
<text text-anchor="middle" x="68" y="-485.42" font-family="Times,serif" font-size="14.00">Git commit</text>
</g>
</g>
</svg>
