<?xml version="1.0" encoding="UTF-8" standalone="no"?>
<!DOCTYPE svg PUBLIC "-//W3C//DTD SVG 1.1//EN"
 "http://www.w3.org/Graphics/SVG/1.1/DTD/svg11.dtd">
<!-- Generated by graphviz version 2.43.0 (0)
 -->
<!-- Title: yak_infrastructure Pages: 1 -->
<svg width="2105pt" height="1470pt"
 viewBox="0.00 0.00 2104.99 1470.31" xmlns="http://www.w3.org/2000/svg" xmlns:xlink="http://www.w3.org/1999/xlink">
<g id="graph0" class="graph" transform="scale(1 1) rotate(0) translate(4 1466.31)">
<title>yak_infrastructure</title>
<polygon fill="white" stroke="transparent" points="-4,4 -4,-1466.31 2100.99,-1466.31 2100.99,4 -4,4"/>
<text text-anchor="middle" x="1048.49" y="-1447.11" font-family="Times,serif" font-size="14.00">Yak Collective IT Infrastructure</text>
<g id="clust1" class="cluster">
<title>cluster_google</title>
<polygon fill="none" stroke="gray" points="784,-411 784,-651.75 1474,-651.75 1474,-411 784,-411"/>
<text text-anchor="middle" x="1129" y="-636.55" font-family="Times,serif" font-size="14.00">Google</text>
</g>
<g id="clust2" class="cluster">
<title>cluster_robot</title>
<polygon fill="none" stroke="gray" points="974,-450.6 974,-612.15 1254,-612.15 1254,-450.6 974,-450.6"/>
<text text-anchor="middle" x="1114" y="-596.95" font-family="Times,serif" font-size="14.00">Yak Collective Robot</text>
</g>
<g id="clust3" class="cluster">
<title>cluster_vultr</title>
<polygon fill="none" stroke="gray" points="651,-249 651,-363 1149,-363 1149,-249 651,-249"/>
<text text-anchor="middle" x="900" y="-347.8" font-family="Times,serif" font-size="14.00">Vultr</text>
</g>
<g id="clust4" class="cluster">
<title>cluster_vultr_unused</title>
<polygon fill="none" stroke="gray" points="1051,-257 1051,-332 1141,-332 1141,-257 1051,-257"/>
<text text-anchor="middle" x="1096" y="-316.8" font-family="Times,serif" font-size="14.00">Unused</text>
</g>
<g id="clust5" class="cluster">
<title>cluster_unused</title>
<polygon fill="none" stroke="gray" points="1240,-1347.43 1240,-1422.43 1961,-1422.43 1961,-1347.43 1240,-1347.43"/>
<text text-anchor="middle" x="1600.5" y="-1407.23" font-family="Times,serif" font-size="14.00">Unused</text>
</g>
<g id="clust6" class="cluster">
<title>cluster_ifttt</title>
<polygon fill="none" stroke="gray" points="8,-983.99 8,-1060.99 335,-1060.99 335,-983.99 8,-983.99"/>
<text text-anchor="middle" x="171.5" y="-1045.79" font-family="Times,serif" font-size="14.00">IFTTT</text>
</g>
<g id="clust7" class="cluster">
<title>cluster_netlify</title>
<polygon fill="none" stroke="gray" points="684,-697.75 684,-1431.31 1232,-1431.31 1232,-697.75 684,-697.75"/>
<text text-anchor="middle" x="958" y="-1416.11" font-family="Times,serif" font-size="14.00">Netlify</text>
</g>
<g id="clust8" class="cluster">
<title>cluster_cloudfront</title>
<polygon fill="none" stroke="gray" points="834,-705.75 834,-928.11 1224,-928.11 1224,-705.75 834,-705.75"/>
<text text-anchor="middle" x="1029" y="-912.91" font-family="Times,serif" font-size="14.00">Amazon Cloudfront</text>
</g>
<g id="clust9" class="cluster">
<title>cluster_lambda</title>
<polygon fill="none" stroke="gray" points="692,-779.43 692,-854.43 826,-854.43 826,-779.43 692,-779.43"/>
<text text-anchor="middle" x="759" y="-839.23" font-family="Times,serif" font-size="14.00">Amazon Lambda</text>
</g>
<!-- google_analytics -->
<g id="node1" class="node">
<title>google_analytics</title>
<g id="a_node1"><a xlink:href="https://roamresearch.com/#/app/ArtOfGig/page/gkim0kNQ8" xlink:title="Google\nAnalytics">
<polygon fill="none" stroke="blue" points="1189.74,-493.19 1193.54,-493.33 1197.29,-493.55 1201,-493.84 1204.63,-494.21 1208.18,-494.64 1211.64,-495.14 1214.98,-495.71 1218.19,-496.35 1221.27,-497.05 1224.21,-497.81 1226.98,-498.64 1229.59,-499.52 1232.02,-500.46 1234.27,-501.45 1236.34,-502.49 1238.2,-503.58 1239.88,-504.71 1241.35,-505.89 1242.61,-507.1 1243.68,-508.35 1244.54,-509.63 1245.2,-510.94 1245.66,-512.27 1245.93,-513.62 1246,-515 1245.88,-516.38 1245.58,-517.77 1245.1,-519.17 1244.46,-520.57 1243.65,-521.97 1242.68,-523.37 1241.57,-524.75 1240.32,-526.12 1238.93,-527.48 1237.42,-528.81 1235.8,-530.12 1234.08,-531.4 1232.25,-532.65 1230.34,-533.86 1228.34,-535.04 1226.27,-536.17 1224.13,-537.26 1221.93,-538.3 1219.68,-539.29 1217.38,-540.23 1215.04,-541.11 1212.67,-541.93 1210.26,-542.7 1207.83,-543.4 1205.37,-544.03 1202.9,-544.6 1200.41,-545.11 1197.9,-545.54 1195.39,-545.9 1192.87,-546.19 1190.34,-546.41 1187.8,-546.56 1185.27,-546.63 1182.73,-546.63 1180.2,-546.56 1177.66,-546.41 1175.13,-546.19 1172.61,-545.9 1170.1,-545.54 1167.59,-545.11 1165.1,-544.6 1162.63,-544.03 1160.17,-543.4 1157.74,-542.7 1155.33,-541.93 1152.96,-541.11 1150.62,-540.23 1148.32,-539.29 1146.07,-538.3 1143.87,-537.26 1141.73,-536.17 1139.66,-535.04 1137.66,-533.86 1135.75,-532.65 1133.92,-531.4 1132.2,-530.12 1130.58,-528.81 1129.07,-527.48 1127.68,-526.12 1126.43,-524.75 1125.32,-523.37 1124.35,-521.97 1123.54,-520.57 1122.9,-519.17 1122.42,-517.77 1122.12,-516.38 1122,-515 1122.07,-513.62 1122.34,-512.27 1122.8,-510.94 1123.46,-509.63 1124.32,-508.35 1125.39,-507.1 1126.65,-505.89 1128.12,-504.71 1129.8,-503.58 1131.66,-502.49 1133.73,-501.45 1135.98,-500.46 1138.41,-499.52 1141.02,-498.64 1143.79,-497.81 1146.73,-497.05 1149.81,-496.35 1153.02,-495.71 1156.36,-495.14 1159.82,-494.64 1163.37,-494.21 1167,-493.84 1170.71,-493.55 1174.46,-493.33 1178.26,-493.19 1182.09,-493.11 1185.91,-493.11 1189.74,-493.19"/>
<text text-anchor="middle" x="1184" y="-523.67" font-family="Times,serif" font-size="14.00">Google</text>
<text text-anchor="middle" x="1184" y="-508.67" font-family="Times,serif" font-size="14.00">Analytics</text>
</a>
</g>
</g>
<!-- google_calendar -->
<g id="node2" class="node">
<title>google_calendar</title>
<g id="a_node2"><a xlink:href="https://roamresearch.com/#/app/ArtOfGig/page/5JAKKBvdi" xlink:title="Google\nCalendar">
<ellipse fill="none" stroke="green" cx="1043" cy="-519.87" rx="57.07" ry="57.07"/>
<ellipse fill="none" stroke="green" cx="1043" cy="-519.87" rx="61.05" ry="61.05"/>
<text text-anchor="middle" x="1043" y="-523.67" font-family="Times,serif" font-size="14.00">Google</text>
<text text-anchor="middle" x="1043" y="-508.67" font-family="Times,serif" font-size="14.00">Calendar</text>
</a>
</g>
</g>
<!-- project_ui -->
<g id="node7" class="node">
<title>project_ui</title>
<g id="a_node7"><a xlink:href="https://roamresearch.com/#/app/ArtOfGig/page/6F1F3oaNT" xlink:title="Project_UI">
<polygon fill="none" stroke="blue" points="961,-301 869,-301 869,-265 961,-265 961,-301"/>
<text text-anchor="middle" x="915" y="-279.3" font-family="Times,serif" font-size="14.00">Project_UI</text>
</a>
</g>
</g>
<!-- google_calendar&#45;&gt;project_ui -->
<g id="edge42" class="edge">
<title>google_calendar&#45;&gt;project_ui</title>
<path fill="none" stroke="black" d="M1013.95,-465.58C987.55,-417.12 949.69,-347.65 929.3,-310.25"/>
<polygon fill="black" stroke="black" points="932.14,-308.13 924.28,-301.02 925.99,-311.48 932.14,-308.13"/>
<text text-anchor="middle" x="1034.5" y="-389.8" font-family="Times,serif" font-size="14.00">Google Calendar</text>
<text text-anchor="middle" x="1034.5" y="-374.8" font-family="Times,serif" font-size="14.00">API</text>
</g>
<!-- reboot_deck -->
<g id="node3" class="node">
<title>reboot_deck</title>
<g id="a_node3"><a xlink:href="https://roamresearch.com/#/app/ArtOfGig/page/s7km8fEQp" xlink:title="&quot;Don&#39;t Waste the\nReboot&quot; deck">
<ellipse fill="none" stroke="green" cx="1365" cy="-519.87" rx="96.75" ry="96.75"/>
<ellipse fill="none" stroke="green" cx="1365" cy="-519.87" rx="100.75" ry="100.75"/>
<text text-anchor="middle" x="1365" y="-523.67" font-family="Times,serif" font-size="14.00">&quot;Don&#39;t Waste the</text>
<text text-anchor="middle" x="1365" y="-508.67" font-family="Times,serif" font-size="14.00">Reboot&quot; deck</text>
</a>
</g>
</g>
<!-- home_deck -->
<g id="node4" class="node">
<title>home_deck</title>
<g id="a_node4"><a xlink:href="https://roamresearch.com/#/app/ArtOfGig/page/sGxc8YzrD" xlink:title="&quot;The New Old\nHome&quot; deck">
<ellipse fill="none" stroke="green" cx="878" cy="-519.87" rx="82.05" ry="82.05"/>
<ellipse fill="none" stroke="green" cx="878" cy="-519.87" rx="86.05" ry="86.05"/>
<text text-anchor="middle" x="878" y="-523.67" font-family="Times,serif" font-size="14.00">&quot;The New Old</text>
<text text-anchor="middle" x="878" y="-508.67" font-family="Times,serif" font-size="14.00">Home&quot; deck</text>
</a>
</g>
</g>
<!-- gigayak -->
<g id="node5" class="node">
<title>gigayak</title>
<g id="a_node5"><a xlink:href="https://roamresearch.com/#/app/ArtOfGig/page/_1voFfg7g" xlink:title="gigayak">
<polygon fill="none" stroke="blue" points="851,-301 779,-301 779,-265 851,-265 851,-301"/>
<text text-anchor="middle" x="815" y="-279.3" font-family="Times,serif" font-size="14.00">gigayak</text>
</a>
</g>
</g>
<!-- discord -->
<g id="node12" class="node">
<title>discord</title>
<g id="a_node12"><a xlink:href="https://roamresearch.com/#/app/ArtOfGig/page/AsI1N4yGZ" xlink:title="Discord">
<polygon fill="none" stroke="green" points="946.56,-122.05 949.58,-122.15 952.57,-122.3 955.51,-122.49 958.4,-122.74 961.23,-123.03 963.97,-123.36 966.63,-123.75 969.18,-124.18 971.63,-124.65 973.96,-125.16 976.17,-125.71 978.24,-126.31 980.18,-126.94 981.97,-127.61 983.61,-128.31 985.09,-129.04 986.42,-129.8 987.59,-130.59 988.6,-131.41 989.44,-132.25 990.13,-133.11 990.65,-133.99 991.02,-134.89 991.23,-135.8 991.29,-136.72 991.19,-137.65 990.95,-138.59 990.57,-139.53 990.06,-140.47 989.42,-141.41 988.65,-142.35 987.76,-143.28 986.77,-144.2 985.67,-145.11 984.47,-146.01 983.18,-146.89 981.81,-147.75 980.36,-148.59 978.84,-149.41 977.25,-150.2 975.6,-150.96 973.9,-151.69 972.16,-152.39 970.37,-153.06 968.54,-153.69 966.68,-154.29 964.79,-154.84 962.88,-155.35 960.94,-155.82 958.99,-156.25 957.02,-156.64 955.04,-156.97 953.05,-157.26 951.05,-157.51 949.05,-157.7 947.04,-157.85 945.02,-157.95 943.01,-158 940.99,-158 938.98,-157.95 936.96,-157.85 934.95,-157.7 932.95,-157.51 930.95,-157.26 928.96,-156.97 926.98,-156.64 925.01,-156.25 923.06,-155.82 921.12,-155.35 919.21,-154.84 917.32,-154.29 915.46,-153.69 913.63,-153.06 911.84,-152.39 910.1,-151.69 908.4,-150.96 906.75,-150.2 905.16,-149.41 903.64,-148.59 902.19,-147.75 900.82,-146.89 899.53,-146.01 898.33,-145.11 897.23,-144.2 896.24,-143.28 895.35,-142.35 894.58,-141.41 893.94,-140.47 893.43,-139.53 893.05,-138.59 892.81,-137.65 892.71,-136.72 892.77,-135.8 892.98,-134.89 893.35,-133.99 893.87,-133.11 894.56,-132.25 895.4,-131.41 896.41,-130.59 897.58,-129.8 898.91,-129.04 900.39,-128.31 902.03,-127.61 903.82,-126.94 905.76,-126.31 907.83,-125.71 910.04,-125.16 912.37,-124.65 914.82,-124.18 917.37,-123.75 920.03,-123.36 922.77,-123.03 925.6,-122.74 928.49,-122.49 931.43,-122.3 934.42,-122.15 937.44,-122.05 940.48,-122 943.52,-122 946.56,-122.05"/>
<text text-anchor="middle" x="942" y="-136.3" font-family="Times,serif" font-size="14.00">Discord</text>
</a>
</g>
</g>
<!-- gigayak&#45;&gt;discord -->
<g id="edge14" class="edge">
<title>gigayak&#45;&gt;discord</title>
<path fill="none" stroke="red" d="M799.88,-264.71C788.7,-249.72 777.15,-227.85 788,-211 810.6,-175.9 855.58,-158.2 891.12,-149.4"/>
<polygon fill="red" stroke="red" points="891.91,-152.8 900.86,-147.14 890.33,-145.98 891.91,-152.8"/>
<text text-anchor="middle" x="853" y="-229.8" font-family="Times,serif" font-size="14.00">Requested info or</text>
<text text-anchor="middle" x="853" y="-214.8" font-family="Times,serif" font-size="14.00">acknowledgement</text>
</g>
<!-- gigayak&#45;&gt;discord -->
<g id="edge20" class="edge">
<title>gigayak&#45;&gt;discord</title>
<path fill="none" stroke="red" d="M796.1,-264.98C788.49,-259.01 779.31,-252.84 770,-249 758.99,-244.46 724.77,-250.03 717,-241 708.3,-230.89 709.1,-221.74 717,-211 754.86,-159.58 830.2,-144.84 883.24,-141.17"/>
<polygon fill="red" stroke="red" points="883.75,-144.64 893.53,-140.57 883.35,-137.65 883.75,-144.64"/>
<text text-anchor="middle" x="748" y="-229.8" font-family="Times,serif" font-size="14.00">Build</text>
<text text-anchor="middle" x="748" y="-214.8" font-family="Times,serif" font-size="14.00">#gig&#45;list</text>
</g>
<!-- iamz1 -->
<g id="node6" class="node">
<title>iamz1</title>
<g id="a_node6"><a xlink:href="https://roamresearch.com/#/app/ArtOfGig/page/SvvXQHcP-" xlink:title="IamZ1">
<polygon fill="none" stroke="blue" points="1041,-301 979,-301 979,-265 1041,-265 1041,-301"/>
<text text-anchor="middle" x="1010" y="-279.3" font-family="Times,serif" font-size="14.00">IamZ1</text>
</a>
</g>
</g>
<!-- z1 -->
<g id="node16" class="node">
<title>z1</title>
<g id="a_node16"><a xlink:href="https://roamresearch.com/#/app/ArtOfGig/page/lLs7Ev9Pd" xlink:title="Wonderful\nWandering\nGrowth">
<polygon fill="none" stroke="black" points="1530.9,-193 1421.1,-193 1382,-87 1570,-87 1530.9,-193"/>
<text text-anchor="middle" x="1476" y="-151.3" font-family="Times,serif" font-size="14.00">Wonderful</text>
<text text-anchor="middle" x="1476" y="-136.3" font-family="Times,serif" font-size="14.00">Wandering</text>
<text text-anchor="middle" x="1476" y="-121.3" font-family="Times,serif" font-size="14.00">Growth</text>
</a>
</g>
</g>
<!-- iamz1&#45;&gt;z1 -->
<g id="edge16" class="edge">
<title>iamz1&#45;&gt;z1</title>
<path fill="none" stroke="red" d="M1024.48,-264.73C1030.71,-258.58 1038.51,-252.34 1047,-249 1084.64,-234.18 1375.66,-260.69 1411,-241 1427.1,-232.03 1439.87,-217.21 1449.67,-201.69"/>
<polygon fill="red" stroke="red" points="1452.71,-203.41 1454.81,-193.03 1446.69,-199.84 1452.71,-203.41"/>
<text text-anchor="middle" x="1499" y="-222.3" font-family="Times,serif" font-size="14.00">Rover command</text>
</g>
<!-- project_ui&#45;&gt;discord -->
<g id="edge19" class="edge">
<title>project_ui&#45;&gt;discord</title>
<path fill="none" stroke="black" d="M939.21,-264.84C948.46,-259.01 959.36,-252.96 970,-249 989.45,-241.76 1002.64,-256.88 1016,-241 1038.59,-214.15 1002.7,-181.1 973.46,-160.54"/>
<polygon fill="black" stroke="black" points="975.3,-157.56 965.06,-154.83 971.37,-163.35 975.3,-157.56"/>
<text text-anchor="middle" x="1100.5" y="-229.8" font-family="Times,serif" font-size="14.00">Build</text>
<text text-anchor="middle" x="1100.5" y="-214.8" font-family="Times,serif" font-size="14.00">#project&#45;notifications</text>
</g>
<!-- project_ui&#45;&gt;discord -->
<g id="edge43" class="edge">
<title>project_ui&#45;&gt;discord</title>
<path fill="none" stroke="black" d="M937.6,-264.93C947.1,-258.72 958.58,-252.4 970,-249 981.3,-245.64 1173.82,-249.49 1182,-241 1240.81,-179.93 1084.15,-154.65 996.52,-145.51"/>
<polygon fill="black" stroke="black" points="996.76,-142.01 986.46,-144.5 996.06,-148.98 996.76,-142.01"/>
<text text-anchor="middle" x="1260.5" y="-229.8" font-family="Times,serif" font-size="14.00">Post in</text>
<text text-anchor="middle" x="1260.5" y="-214.8" font-family="Times,serif" font-size="14.00">#events&#45;this&#45;week</text>
</g>
<!-- yak_scraper -->
<g id="node8" class="node">
<title>yak_scraper</title>
<g id="a_node8"><a xlink:href="https://roamresearch.com/#/app/ArtOfGig/page/AaFxsbkdW" xlink:title="Shepherd / \nyak_scraper">
<polygon fill="none" stroke="blue" points="761,-302 659,-302 659,-264 761,-264 761,-302"/>
<text text-anchor="middle" x="710" y="-286.8" font-family="Times,serif" font-size="14.00">Shepherd / </text>
<text text-anchor="middle" x="710" y="-271.8" font-family="Times,serif" font-size="14.00">yak_scraper</text>
</a>
</g>
</g>
<!-- yak_scraper&#45;&gt;discord -->
<g id="edge15" class="edge">
<title>yak_scraper&#45;&gt;discord</title>
<path fill="none" stroke="red" d="M658.99,-279.15C572.72,-273.81 405.6,-260.98 388,-241 379.19,-230.99 379.18,-221 388,-211 420.65,-173.97 752.08,-151.55 886.16,-143.93"/>
<polygon fill="red" stroke="red" points="886.44,-147.42 896.22,-143.37 886.04,-140.44 886.44,-147.42"/>
<text text-anchor="middle" x="453" y="-229.8" font-family="Times,serif" font-size="14.00">Requested info or</text>
<text text-anchor="middle" x="453" y="-214.8" font-family="Times,serif" font-size="14.00">acknowledgement</text>
</g>
<!-- twitter -->
<g id="node15" class="node">
<title>twitter</title>
<g id="a_node15"><a xlink:href="https://roamresearch.com/#/app/ArtOfGig/page/ssp9sORuP" xlink:title="Twitter">
<polygon fill="none" stroke="green" points="255.4,-122.05 258.31,-122.15 261.19,-122.3 264.03,-122.49 266.81,-122.74 269.54,-123.03 272.18,-123.36 274.74,-123.75 277.21,-124.18 279.57,-124.65 281.82,-125.16 283.94,-125.71 285.94,-126.31 287.81,-126.94 289.53,-127.61 291.11,-128.31 292.55,-129.04 293.83,-129.8 294.95,-130.59 295.93,-131.41 296.74,-132.25 297.4,-133.11 297.91,-133.99 298.26,-134.89 298.46,-135.8 298.52,-136.72 298.43,-137.65 298.2,-138.59 297.83,-139.53 297.34,-140.47 296.72,-141.41 295.98,-142.35 295.12,-143.28 294.16,-144.2 293.1,-145.11 291.95,-146.01 290.7,-146.89 289.38,-147.75 287.98,-148.59 286.51,-149.41 284.98,-150.2 283.4,-150.96 281.76,-151.69 280.07,-152.39 278.35,-153.06 276.59,-153.69 274.79,-154.29 272.97,-154.84 271.13,-155.35 269.26,-155.82 267.38,-156.25 265.48,-156.64 263.58,-156.97 261.66,-157.26 259.73,-157.51 257.8,-157.7 255.86,-157.85 253.92,-157.95 251.97,-158 250.03,-158 248.08,-157.95 246.14,-157.85 244.2,-157.7 242.27,-157.51 240.34,-157.26 238.42,-156.97 236.52,-156.64 234.62,-156.25 232.74,-155.82 230.87,-155.35 229.03,-154.84 227.21,-154.29 225.41,-153.69 223.65,-153.06 221.93,-152.39 220.24,-151.69 218.6,-150.96 217.02,-150.2 215.49,-149.41 214.02,-148.59 212.62,-147.75 211.3,-146.89 210.05,-146.01 208.9,-145.11 207.84,-144.2 206.88,-143.28 206.02,-142.35 205.28,-141.41 204.66,-140.47 204.17,-139.53 203.8,-138.59 203.57,-137.65 203.48,-136.72 203.54,-135.8 203.74,-134.89 204.09,-133.99 204.6,-133.11 205.26,-132.25 206.07,-131.41 207.05,-130.59 208.17,-129.8 209.45,-129.04 210.89,-128.31 212.47,-127.61 214.19,-126.94 216.06,-126.31 218.06,-125.71 220.18,-125.16 222.43,-124.65 224.79,-124.18 227.26,-123.75 229.82,-123.36 232.46,-123.03 235.19,-122.74 237.97,-122.49 240.81,-122.3 243.69,-122.15 246.6,-122.05 249.53,-122 252.47,-122 255.4,-122.05"/>
<text text-anchor="middle" x="251" y="-136.3" font-family="Times,serif" font-size="14.00">Twitter</text>
</a>
</g>
</g>
<!-- yak_scraper&#45;&gt;twitter -->
<g id="edge17" class="edge">
<title>yak_scraper&#45;&gt;twitter</title>
<path fill="none" stroke="red" d="M658.71,-282.81C562.34,-283.4 358.79,-279.82 302,-241 277.19,-224.04 263.77,-191.24 257.01,-167.82"/>
<polygon fill="red" stroke="red" points="260.39,-166.9 254.44,-158.13 253.62,-168.69 260.39,-166.9"/>
<text text-anchor="middle" x="339.5" y="-222.3" font-family="Times,serif" font-size="14.00">$yaktweet</text>
</g>
<!-- yakdate -->
<g id="node9" class="node">
<title>yakdate</title>
<g id="a_node9"><a xlink:href="https://roamresearch.com/#/app/ArtOfGig/page/h8CetC_Re" xlink:title="yakdate">
<polygon fill="none" stroke="blue" points="1132.5,-301 1059.5,-301 1059.5,-265 1132.5,-265 1132.5,-301"/>
<text text-anchor="middle" x="1096" y="-279.3" font-family="Times,serif" font-size="14.00">yakdate</text>
</a>
</g>
</g>
<!-- carl -->
<g id="node10" class="node">
<title>carl</title>
<g id="a_node10"><a xlink:href="https://roamresearch.com/#/app/ArtOfGig/page/wfmK-RIl1" xlink:title="Carl">
<polygon fill="none" stroke="blue" points="898,-36 844,-36 844,0 898,0 898,-36"/>
<text text-anchor="middle" x="871" y="-14.3" font-family="Times,serif" font-size="14.00">Carl</text>
</a>
</g>
</g>
<!-- carl&#45;&gt;discord -->
<g id="edge9" class="edge">
<title>carl&#45;&gt;discord</title>
<path fill="none" stroke="black" d="M881.2,-36.24C893.16,-56.45 913.09,-90.14 926.86,-113.4"/>
<polygon fill="black" stroke="black" points="923.87,-115.24 931.98,-122.06 929.9,-111.67 923.87,-115.24"/>
<text text-anchor="middle" x="934.5" y="-57.8" font-family="Times,serif" font-size="14.00">Response</text>
</g>
<!-- bookmarker -->
<g id="node11" class="node">
<title>bookmarker</title>
<g id="a_node11"><a xlink:href="https://roamresearch.com/#/app/ArtOfGig/page/olyafjy4D" xlink:title="Bookmarker">
<polygon fill="none" stroke="blue" points="1065,-36 961,-36 961,0 1065,0 1065,-36"/>
<text text-anchor="middle" x="1013" y="-14.3" font-family="Times,serif" font-size="14.00">Bookmarker</text>
</a>
</g>
</g>
<!-- bookmarker&#45;&gt;discord -->
<g id="edge10" class="edge">
<title>bookmarker&#45;&gt;discord</title>
<path fill="none" stroke="black" d="M1046.59,-36.08C1059.29,-44.97 1069.14,-56.56 1062,-69 1046.75,-95.54 1017.13,-112.97 991.13,-123.8"/>
<polygon fill="black" stroke="black" points="989.77,-120.58 981.75,-127.5 992.34,-127.09 989.77,-120.58"/>
<text text-anchor="middle" x="1098.5" y="-57.8" font-family="Times,serif" font-size="14.00">Response</text>
</g>
<!-- discord&#45;&gt;gigayak -->
<g id="edge11" class="edge">
<title>discord&#45;&gt;gigayak</title>
<path fill="none" stroke="red" d="M896.75,-143.77C814.88,-149.83 647.35,-167.37 612,-211 603.61,-221.36 602.81,-231.34 612,-241 624.11,-253.74 753.44,-243.11 770,-249 776.5,-251.31 782.87,-254.89 788.67,-258.85"/>
<polygon fill="red" stroke="red" points="786.61,-261.68 796.72,-264.83 790.78,-256.06 786.61,-261.68"/>
<text text-anchor="middle" x="647" y="-229.8" font-family="Times,serif" font-size="14.00">User</text>
<text text-anchor="middle" x="647" y="-214.8" font-family="Times,serif" font-size="14.00">command</text>
</g>
<!-- discord&#45;&gt;iamz1 -->
<g id="edge12" class="edge">
<title>discord&#45;&gt;iamz1</title>
<path fill="none" stroke="red" d="M988.98,-142.23C1082.76,-145.78 1287.86,-159.41 1331,-211 1339.55,-221.23 1340.29,-231.44 1331,-241 1320,-252.32 1061.67,-243.17 1047,-249 1041.7,-251.11 1036.67,-254.33 1032.11,-257.96"/>
<polygon fill="red" stroke="red" points="1029.62,-255.49 1024.49,-264.76 1034.28,-260.71 1029.62,-255.49"/>
<text text-anchor="middle" x="1372" y="-229.8" font-family="Times,serif" font-size="14.00">User</text>
<text text-anchor="middle" x="1372" y="-214.8" font-family="Times,serif" font-size="14.00">command</text>
</g>
<!-- discord&#45;&gt;project_ui -->
<g id="edge18" class="edge">
<title>discord&#45;&gt;project_ui</title>
<path fill="none" stroke="black" d="M938.73,-158.07C934.12,-182.13 925.67,-226.28 920.19,-254.87"/>
<polygon fill="black" stroke="black" points="916.7,-254.51 918.26,-264.99 923.58,-255.83 916.7,-254.51"/>
<text text-anchor="middle" x="970" y="-229.8" font-family="Times,serif" font-size="14.00">Channel</text>
<text text-anchor="middle" x="970" y="-214.8" font-family="Times,serif" font-size="14.00">information</text>
</g>
<!-- discord&#45;&gt;yak_scraper -->
<g id="edge13" class="edge">
<title>discord&#45;&gt;yak_scraper</title>
<path fill="none" stroke="red" d="M894.64,-141.74C796.69,-144.37 577.1,-156.38 531,-211 494.72,-253.98 583.44,-271.14 648.53,-277.84"/>
<polygon fill="red" stroke="red" points="648.46,-281.35 658.75,-278.83 649.14,-274.39 648.46,-281.35"/>
<text text-anchor="middle" x="566" y="-229.8" font-family="Times,serif" font-size="14.00">User</text>
<text text-anchor="middle" x="566" y="-214.8" font-family="Times,serif" font-size="14.00">command</text>
</g>
<!-- discord&#45;&gt;carl -->
<g id="edge7" class="edge">
<title>discord&#45;&gt;carl</title>
<path fill="none" stroke="black" d="M897.24,-129.93C864.34,-120.66 821.88,-102.68 801,-69 790.03,-51.31 811.75,-38.06 833.82,-29.66"/>
<polygon fill="black" stroke="black" points="835.26,-32.87 843.54,-26.25 832.94,-26.26 835.26,-32.87"/>
<text text-anchor="middle" x="837.5" y="-57.8" font-family="Times,serif" font-size="14.00">Command</text>
</g>
<!-- discord&#45;&gt;bookmarker -->
<g id="edge8" class="edge">
<title>discord&#45;&gt;bookmarker</title>
<path fill="none" stroke="black" d="M950.72,-122.12C959.83,-104.76 974.74,-77.1 989,-54 990.88,-50.96 992.9,-47.82 994.95,-44.72"/>
<polygon fill="black" stroke="black" points="997.99,-46.47 1000.7,-36.23 992.2,-42.55 997.99,-46.47"/>
<text text-anchor="middle" x="1025.5" y="-57.8" font-family="Times,serif" font-size="14.00">Command</text>
</g>
<!-- substack -->
<g id="node13" class="node">
<title>substack</title>
<g id="a_node13"><a xlink:href="https://roamresearch.com/#/app/ArtOfGig/page/kMaCo6Xc-" xlink:title="Substack">
<polygon fill="none" stroke="green" points="276.23,-1180.82 279.69,-1180.92 283.12,-1181.07 286.5,-1181.26 289.81,-1181.51 293.05,-1181.8 296.19,-1182.14 299.24,-1182.52 302.17,-1182.95 304.98,-1183.42 307.65,-1183.93 310.18,-1184.49 312.56,-1185.08 314.78,-1185.71 316.83,-1186.38 318.71,-1187.08 320.41,-1187.81 321.93,-1188.57 323.27,-1189.36 324.43,-1190.18 325.4,-1191.02 326.19,-1191.88 326.79,-1192.76 327.21,-1193.66 327.45,-1194.57 327.51,-1195.49 327.41,-1196.42 327.13,-1197.36 326.7,-1198.3 326.11,-1199.24 325.37,-1200.18 324.49,-1201.12 323.48,-1202.05 322.33,-1202.97 321.07,-1203.88 319.7,-1204.78 318.22,-1205.66 316.65,-1206.52 314.98,-1207.36 313.24,-1208.18 311.42,-1208.97 309.53,-1209.73 307.58,-1210.46 305.58,-1211.17 303.53,-1211.83 301.43,-1212.46 299.3,-1213.06 297.13,-1213.61 294.94,-1214.12 292.72,-1214.59 290.48,-1215.02 288.23,-1215.41 285.96,-1215.74 283.67,-1216.04 281.38,-1216.28 279.08,-1216.48 276.78,-1216.62 274.47,-1216.72 272.16,-1216.77 269.84,-1216.77 267.53,-1216.72 265.22,-1216.62 262.92,-1216.48 260.62,-1216.28 258.33,-1216.04 256.04,-1215.74 253.77,-1215.41 251.52,-1215.02 249.28,-1214.59 247.06,-1214.12 244.87,-1213.61 242.7,-1213.06 240.57,-1212.46 238.47,-1211.83 236.42,-1211.17 234.42,-1210.46 232.47,-1209.73 230.58,-1208.97 228.76,-1208.18 227.02,-1207.36 225.35,-1206.52 223.78,-1205.66 222.3,-1204.78 220.93,-1203.88 219.67,-1202.97 218.52,-1202.05 217.51,-1201.12 216.63,-1200.18 215.89,-1199.24 215.3,-1198.3 214.87,-1197.36 214.59,-1196.42 214.49,-1195.49 214.55,-1194.57 214.79,-1193.66 215.21,-1192.76 215.81,-1191.88 216.6,-1191.02 217.57,-1190.18 218.73,-1189.36 220.07,-1188.57 221.59,-1187.81 223.29,-1187.08 225.17,-1186.38 227.22,-1185.71 229.44,-1185.08 231.82,-1184.49 234.35,-1183.93 237.02,-1183.42 239.83,-1182.95 242.76,-1182.52 245.81,-1182.14 248.95,-1181.8 252.19,-1181.51 255.5,-1181.26 258.88,-1181.07 262.31,-1180.92 265.77,-1180.82 269.25,-1180.77 272.75,-1180.77 276.23,-1180.82"/>
<text text-anchor="middle" x="271" y="-1195.07" font-family="Times,serif" font-size="14.00">Substack</text>
</a>
</g>
</g>
<!-- rss_applet -->
<g id="node23" class="node">
<title>rss_applet</title>
<g id="a_node23"><a xlink:href="https://roamresearch.com/#/app/ArtOfGig/page/ucCeiIsih" xlink:title="create&#45;post\nApplets">
<polygon fill="none" stroke="blue" points="237.5,-1029.99 140.5,-1029.99 140.5,-991.99 237.5,-991.99 237.5,-1029.99"/>
<text text-anchor="middle" x="189" y="-1014.79" font-family="Times,serif" font-size="14.00">create&#45;post</text>
<text text-anchor="middle" x="189" y="-999.79" font-family="Times,serif" font-size="14.00">Applets</text>
</a>
</g>
</g>
<!-- substack&#45;&gt;rss_applet -->
<g id="edge33" class="edge">
<title>substack&#45;&gt;rss_applet</title>
<path fill="none" stroke="red" d="M255.89,-1180.95C240.04,-1162.31 215.7,-1130.68 203,-1098.99 195.51,-1080.29 192.02,-1057.81 190.4,-1040.39"/>
<polygon fill="red" stroke="red" points="193.87,-1039.97 189.61,-1030.27 186.9,-1040.51 193.87,-1039.97"/>
<text text-anchor="middle" x="236" y="-1087.79" font-family="Times,serif" font-size="14.00">Pulled</text>
<text text-anchor="middle" x="236" y="-1072.79" font-family="Times,serif" font-size="14.00">by IFTTT</text>
</g>
<!-- twitter_applets -->
<g id="node24" class="node">
<title>twitter_applets</title>
<g id="a_node24"><a xlink:href="https://roamresearch.com/#/app/ArtOfGig/page/j7DInC9sg" xlink:title="Twitter\nApplets">
<polygon fill="none" stroke="blue" points="326.5,-1029.99 255.5,-1029.99 255.5,-991.99 326.5,-991.99 326.5,-1029.99"/>
<text text-anchor="middle" x="291" y="-1014.79" font-family="Times,serif" font-size="14.00">Twitter</text>
<text text-anchor="middle" x="291" y="-999.79" font-family="Times,serif" font-size="14.00">Applets</text>
</a>
</g>
</g>
<!-- substack&#45;&gt;twitter_applets -->
<g id="edge38" class="edge">
<title>substack&#45;&gt;twitter_applets</title>
<path fill="none" stroke="red" d="M270.48,-1180.58C270,-1155.78 270.09,-1108.6 276,-1068.99 277.44,-1059.36 279.88,-1049.01 282.38,-1039.81"/>
<polygon fill="red" stroke="red" points="285.8,-1040.58 285.18,-1030 279.07,-1038.66 285.8,-1040.58"/>
<text text-anchor="middle" x="309" y="-1087.79" font-family="Times,serif" font-size="14.00">Pulled</text>
<text text-anchor="middle" x="309" y="-1072.79" font-family="Times,serif" font-size="14.00">by IFTTT</text>
</g>
<!-- member_feeds -->
<g id="node14" class="node">
<title>member_feeds</title>
<g id="a_node14"><a xlink:href="https://roamresearch.com/#/app/ArtOfGig/page/RLF445t5m" xlink:title="Member RSS\nFeeds">
<ellipse fill="none" stroke="green" cx="441" cy="-1198.77" rx="77.57" ry="77.57"/>
<ellipse fill="none" stroke="green" cx="441" cy="-1198.77" rx="81.56" ry="81.56"/>
<text text-anchor="middle" x="441" y="-1202.57" font-family="Times,serif" font-size="14.00">Member RSS</text>
<text text-anchor="middle" x="441" y="-1187.57" font-family="Times,serif" font-size="14.00">Feeds</text>
</a>
</g>
</g>
<!-- member_feeds&#45;&gt;rss_applet -->
<g id="edge34" class="edge">
<title>member_feeds&#45;&gt;rss_applet</title>
<path fill="none" stroke="red" d="M388.88,-1135.65C379.36,-1123.68 369.69,-1111.09 361,-1098.99 351.8,-1086.17 355.5,-1077.17 342,-1068.99 323.69,-1057.9 265.75,-1069.26 246,-1060.99 233.27,-1055.66 221.34,-1046.37 211.71,-1037.31"/>
<polygon fill="red" stroke="red" points="214.07,-1034.72 204.51,-1030.17 209.14,-1039.69 214.07,-1034.72"/>
<text text-anchor="middle" x="394" y="-1087.79" font-family="Times,serif" font-size="14.00">Pulled</text>
<text text-anchor="middle" x="394" y="-1072.79" font-family="Times,serif" font-size="14.00">by IFTTT</text>
</g>
<!-- member_feeds&#45;&gt;twitter_applets -->
<g id="edge39" class="edge">
<title>member_feeds&#45;&gt;twitter_applets</title>
<path fill="none" stroke="red" d="M448.07,-1117.05C446.08,-1099.92 441.12,-1082.84 431,-1068.99 409.07,-1038.97 368.54,-1024.72 336.71,-1017.98"/>
<polygon fill="red" stroke="red" points="337.2,-1014.51 326.72,-1016.04 335.87,-1021.38 337.2,-1014.51"/>
<text text-anchor="middle" x="477" y="-1087.79" font-family="Times,serif" font-size="14.00">Pulled</text>
<text text-anchor="middle" x="477" y="-1072.79" font-family="Times,serif" font-size="14.00">by IFTTT</text>
</g>
<!-- facebook -->
<g id="node17" class="node">
<title>facebook</title>
<g id="a_node17"><a xlink:href="https://roamresearch.com/#/app/ArtOfGig/page/WZKSWTGz5" xlink:title="Facebook">
<polygon fill="none" stroke="green" points="1901.31,-1355.48 1904.83,-1355.58 1908.31,-1355.73 1911.74,-1355.92 1915.1,-1356.17 1918.39,-1356.46 1921.59,-1356.8 1924.68,-1357.18 1927.66,-1357.61 1930.51,-1358.08 1933.22,-1358.59 1935.79,-1359.15 1938.21,-1359.74 1940.46,-1360.37 1942.54,-1361.04 1944.45,-1361.74 1946.18,-1362.47 1947.73,-1363.23 1949.09,-1364.02 1950.27,-1364.84 1951.25,-1365.68 1952.05,-1366.54 1952.66,-1367.42 1953.09,-1368.32 1953.33,-1369.23 1953.4,-1370.15 1953.29,-1371.08 1953.01,-1372.02 1952.57,-1372.96 1951.97,-1373.9 1951.22,-1374.84 1950.33,-1375.78 1949.3,-1376.71 1948.14,-1377.64 1946.86,-1378.55 1945.46,-1379.44 1943.96,-1380.32 1942.36,-1381.18 1940.67,-1382.02 1938.9,-1382.84 1937.05,-1383.63 1935.13,-1384.39 1933.15,-1385.13 1931.12,-1385.83 1929.03,-1386.49 1926.91,-1387.12 1924.74,-1387.72 1922.54,-1388.27 1920.31,-1388.78 1918.06,-1389.26 1915.79,-1389.68 1913.5,-1390.07 1911.19,-1390.41 1908.87,-1390.7 1906.54,-1390.94 1904.21,-1391.14 1901.87,-1391.28 1899.52,-1391.38 1897.17,-1391.43 1894.83,-1391.43 1892.48,-1391.38 1890.13,-1391.28 1887.79,-1391.14 1885.46,-1390.94 1883.13,-1390.7 1880.81,-1390.41 1878.5,-1390.07 1876.21,-1389.68 1873.94,-1389.26 1871.69,-1388.78 1869.46,-1388.27 1867.26,-1387.72 1865.09,-1387.12 1862.97,-1386.49 1860.88,-1385.83 1858.85,-1385.13 1856.87,-1384.39 1854.95,-1383.63 1853.1,-1382.84 1851.33,-1382.02 1849.64,-1381.18 1848.04,-1380.32 1846.54,-1379.44 1845.14,-1378.55 1843.86,-1377.64 1842.7,-1376.71 1841.67,-1375.78 1840.78,-1374.84 1840.03,-1373.9 1839.43,-1372.96 1838.99,-1372.02 1838.71,-1371.08 1838.6,-1370.15 1838.67,-1369.23 1838.91,-1368.32 1839.34,-1367.42 1839.95,-1366.54 1840.75,-1365.68 1841.73,-1364.84 1842.91,-1364.02 1844.27,-1363.23 1845.82,-1362.47 1847.55,-1361.74 1849.46,-1361.04 1851.54,-1360.37 1853.79,-1359.74 1856.21,-1359.15 1858.78,-1358.59 1861.49,-1358.08 1864.34,-1357.61 1867.32,-1357.18 1870.41,-1356.8 1873.61,-1356.46 1876.9,-1356.17 1880.26,-1355.92 1883.69,-1355.73 1887.17,-1355.58 1890.69,-1355.48 1894.23,-1355.43 1897.77,-1355.43 1901.31,-1355.48"/>
<text text-anchor="middle" x="1896" y="-1369.73" font-family="Times,serif" font-size="14.00">Facebook</text>
</a>
</g>
</g>
<!-- glitch -->
<g id="node18" class="node">
<title>glitch</title>
<g id="a_node18"><a xlink:href="https://roamresearch.com/#/app/ArtOfGig/page/bTxU0ABQS" xlink:title="Glitch">
<polygon fill="none" stroke="blue" points="1783.76,-1355.48 1786.26,-1355.58 1788.72,-1355.73 1791.15,-1355.92 1793.54,-1356.17 1795.87,-1356.46 1798.13,-1356.8 1800.32,-1357.18 1802.43,-1357.61 1804.45,-1358.08 1806.38,-1358.59 1808.2,-1359.15 1809.91,-1359.74 1811.51,-1360.37 1812.98,-1361.04 1814.34,-1361.74 1815.56,-1362.47 1816.66,-1363.23 1817.62,-1364.02 1818.46,-1364.84 1819.15,-1365.68 1819.72,-1366.54 1820.15,-1367.42 1820.45,-1368.32 1820.63,-1369.23 1820.67,-1370.15 1820.6,-1371.08 1820.4,-1372.02 1820.09,-1372.96 1819.66,-1373.9 1819.13,-1374.84 1818.5,-1375.78 1817.77,-1376.71 1816.95,-1377.64 1816.04,-1378.55 1815.05,-1379.44 1813.99,-1380.32 1812.85,-1381.18 1811.66,-1382.02 1810.4,-1382.84 1809.09,-1383.63 1807.73,-1384.39 1806.33,-1385.13 1804.89,-1385.83 1803.41,-1386.49 1801.9,-1387.12 1800.37,-1387.72 1798.81,-1388.27 1797.23,-1388.78 1795.63,-1389.26 1794.02,-1389.68 1792.4,-1390.07 1790.76,-1390.41 1789.12,-1390.7 1787.47,-1390.94 1785.82,-1391.14 1784.16,-1391.28 1782.5,-1391.38 1780.83,-1391.43 1779.17,-1391.43 1777.5,-1391.38 1775.84,-1391.28 1774.18,-1391.14 1772.53,-1390.94 1770.88,-1390.7 1769.24,-1390.41 1767.6,-1390.07 1765.98,-1389.68 1764.37,-1389.26 1762.77,-1388.78 1761.19,-1388.27 1759.63,-1387.72 1758.1,-1387.12 1756.59,-1386.49 1755.11,-1385.83 1753.67,-1385.13 1752.27,-1384.39 1750.91,-1383.63 1749.6,-1382.84 1748.34,-1382.02 1747.15,-1381.18 1746.01,-1380.32 1744.95,-1379.44 1743.96,-1378.55 1743.05,-1377.64 1742.23,-1376.71 1741.5,-1375.78 1740.87,-1374.84 1740.34,-1373.9 1739.91,-1372.96 1739.6,-1372.02 1739.4,-1371.08 1739.33,-1370.15 1739.37,-1369.23 1739.55,-1368.32 1739.85,-1367.42 1740.28,-1366.54 1740.85,-1365.68 1741.54,-1364.84 1742.38,-1364.02 1743.34,-1363.23 1744.44,-1362.47 1745.66,-1361.74 1747.02,-1361.04 1748.49,-1360.37 1750.09,-1359.74 1751.8,-1359.15 1753.62,-1358.59 1755.55,-1358.08 1757.57,-1357.61 1759.68,-1357.18 1761.87,-1356.8 1764.13,-1356.46 1766.46,-1356.17 1768.85,-1355.92 1771.28,-1355.73 1773.74,-1355.58 1776.24,-1355.48 1778.74,-1355.43 1781.26,-1355.43 1783.76,-1355.48"/>
<text text-anchor="middle" x="1780" y="-1369.73" font-family="Times,serif" font-size="14.00">Glitch</text>
</a>
</g>
</g>
<!-- linkedin -->
<g id="node19" class="node">
<title>linkedin</title>
<g id="a_node19"><a xlink:href="https://roamresearch.com/#/app/ArtOfGig/page/M17w4lZJB" xlink:title="LinkedIn">
<polygon fill="none" stroke="green" points="1671.08,-1355.48 1674.44,-1355.58 1677.76,-1355.73 1681.04,-1355.92 1684.26,-1356.17 1687.4,-1356.46 1690.46,-1356.8 1693.41,-1357.18 1696.26,-1357.61 1698.98,-1358.08 1701.58,-1358.59 1704.03,-1359.15 1706.34,-1359.74 1708.49,-1360.37 1710.49,-1361.04 1712.31,-1361.74 1713.96,-1362.47 1715.44,-1363.23 1716.74,-1364.02 1717.87,-1364.84 1718.81,-1365.68 1719.57,-1366.54 1720.16,-1367.42 1720.56,-1368.32 1720.8,-1369.23 1720.86,-1370.15 1720.76,-1371.08 1720.49,-1372.02 1720.07,-1372.96 1719.5,-1373.9 1718.78,-1374.84 1717.93,-1375.78 1716.94,-1376.71 1715.83,-1377.64 1714.61,-1378.55 1713.27,-1379.44 1711.84,-1380.32 1710.31,-1381.18 1708.7,-1382.02 1707,-1382.84 1705.23,-1383.63 1703.4,-1384.39 1701.51,-1385.13 1699.57,-1385.83 1697.57,-1386.49 1695.54,-1387.12 1693.47,-1387.72 1691.37,-1388.27 1689.24,-1388.78 1687.09,-1389.26 1684.91,-1389.68 1682.72,-1390.07 1680.52,-1390.41 1678.3,-1390.7 1676.08,-1390.94 1673.85,-1391.14 1671.61,-1391.28 1669.37,-1391.38 1667.12,-1391.43 1664.88,-1391.43 1662.63,-1391.38 1660.39,-1391.28 1658.15,-1391.14 1655.92,-1390.94 1653.7,-1390.7 1651.48,-1390.41 1649.28,-1390.07 1647.09,-1389.68 1644.91,-1389.26 1642.76,-1388.78 1640.63,-1388.27 1638.53,-1387.72 1636.46,-1387.12 1634.43,-1386.49 1632.43,-1385.83 1630.49,-1385.13 1628.6,-1384.39 1626.77,-1383.63 1625,-1382.84 1623.3,-1382.02 1621.69,-1381.18 1620.16,-1380.32 1618.73,-1379.44 1617.39,-1378.55 1616.17,-1377.64 1615.06,-1376.71 1614.07,-1375.78 1613.22,-1374.84 1612.5,-1373.9 1611.93,-1372.96 1611.51,-1372.02 1611.24,-1371.08 1611.14,-1370.15 1611.2,-1369.23 1611.44,-1368.32 1611.84,-1367.42 1612.43,-1366.54 1613.19,-1365.68 1614.13,-1364.84 1615.26,-1364.02 1616.56,-1363.23 1618.04,-1362.47 1619.69,-1361.74 1621.51,-1361.04 1623.51,-1360.37 1625.66,-1359.74 1627.97,-1359.15 1630.42,-1358.59 1633.02,-1358.08 1635.74,-1357.61 1638.59,-1357.18 1641.54,-1356.8 1644.6,-1356.46 1647.74,-1356.17 1650.96,-1355.92 1654.24,-1355.73 1657.56,-1355.58 1660.92,-1355.48 1664.31,-1355.43 1667.69,-1355.43 1671.08,-1355.48"/>
<text text-anchor="middle" x="1666" y="-1369.73" font-family="Times,serif" font-size="14.00">LinkedIn</text>
</a>
</g>
</g>
<!-- zapier -->
<g id="node20" class="node">
<title>zapier</title>
<g id="a_node20"><a xlink:href="https://roamresearch.com/#/app/ArtOfGig/page/WW4JidMuQ" xlink:title="Zapier">
<polygon fill="none" stroke="blue" points="1554.04,-1355.48 1556.72,-1355.58 1559.37,-1355.73 1561.99,-1355.92 1564.55,-1356.17 1567.05,-1356.46 1569.49,-1356.8 1571.84,-1357.18 1574.11,-1357.61 1576.28,-1358.08 1578.35,-1358.59 1580.3,-1359.15 1582.14,-1359.74 1583.86,-1360.37 1585.45,-1361.04 1586.9,-1361.74 1588.22,-1362.47 1589.4,-1363.23 1590.43,-1364.02 1591.33,-1364.84 1592.08,-1365.68 1592.68,-1366.54 1593.15,-1367.42 1593.47,-1368.32 1593.66,-1369.23 1593.71,-1370.15 1593.63,-1371.08 1593.42,-1372.02 1593.08,-1372.96 1592.62,-1373.9 1592.05,-1374.84 1591.37,-1375.78 1590.59,-1376.71 1589.71,-1377.64 1588.73,-1378.55 1587.67,-1379.44 1586.52,-1380.32 1585.31,-1381.18 1584.02,-1382.02 1582.67,-1382.84 1581.26,-1383.63 1579.8,-1384.39 1578.29,-1385.13 1576.74,-1385.83 1575.16,-1386.49 1573.54,-1387.12 1571.89,-1387.72 1570.21,-1388.27 1568.52,-1388.78 1566.8,-1389.26 1565.07,-1389.68 1563.32,-1390.07 1561.57,-1390.41 1559.8,-1390.7 1558.03,-1390.94 1556.25,-1391.14 1554.47,-1391.28 1552.68,-1391.38 1550.89,-1391.43 1549.11,-1391.43 1547.32,-1391.38 1545.53,-1391.28 1543.75,-1391.14 1541.97,-1390.94 1540.2,-1390.7 1538.43,-1390.41 1536.68,-1390.07 1534.93,-1389.68 1533.2,-1389.26 1531.48,-1388.78 1529.79,-1388.27 1528.11,-1387.72 1526.46,-1387.12 1524.84,-1386.49 1523.26,-1385.83 1521.71,-1385.13 1520.2,-1384.39 1518.74,-1383.63 1517.33,-1382.84 1515.98,-1382.02 1514.69,-1381.18 1513.48,-1380.32 1512.33,-1379.44 1511.27,-1378.55 1510.29,-1377.64 1509.41,-1376.71 1508.63,-1375.78 1507.95,-1374.84 1507.38,-1373.9 1506.92,-1372.96 1506.58,-1372.02 1506.37,-1371.08 1506.29,-1370.15 1506.34,-1369.23 1506.53,-1368.32 1506.85,-1367.42 1507.32,-1366.54 1507.92,-1365.68 1508.67,-1364.84 1509.57,-1364.02 1510.6,-1363.23 1511.78,-1362.47 1513.1,-1361.74 1514.55,-1361.04 1516.14,-1360.37 1517.86,-1359.74 1519.7,-1359.15 1521.65,-1358.59 1523.72,-1358.08 1525.89,-1357.61 1528.16,-1357.18 1530.51,-1356.8 1532.95,-1356.46 1535.45,-1356.17 1538.01,-1355.92 1540.63,-1355.73 1543.28,-1355.58 1545.96,-1355.48 1548.65,-1355.43 1551.35,-1355.43 1554.04,-1355.48"/>
<text text-anchor="middle" x="1550" y="-1369.73" font-family="Times,serif" font-size="14.00">Zapier</text>
</a>
</g>
</g>
<!-- integromat -->
<g id="node21" class="node">
<title>integromat</title>
<g id="a_node21"><a xlink:href="https://roamresearch.com/#/app/ArtOfGig/page/ExYczJs8u" xlink:title="Integromat">
<polygon fill="none" stroke="blue" points="1427.23,-1355.48 1431.35,-1355.58 1435.43,-1355.73 1439.45,-1355.92 1443.39,-1356.17 1447.24,-1356.46 1450.99,-1356.8 1454.62,-1357.18 1458.11,-1357.61 1461.45,-1358.08 1464.63,-1358.59 1467.64,-1359.15 1470.47,-1359.74 1473.11,-1360.37 1475.56,-1361.04 1477.79,-1361.74 1479.82,-1362.47 1481.63,-1363.23 1483.23,-1364.02 1484.61,-1364.84 1485.76,-1365.68 1486.7,-1366.54 1487.41,-1367.42 1487.91,-1368.32 1488.2,-1369.23 1488.28,-1370.15 1488.15,-1371.08 1487.82,-1372.02 1487.31,-1372.96 1486.61,-1373.9 1485.73,-1374.84 1484.68,-1375.78 1483.47,-1376.71 1482.11,-1377.64 1480.61,-1378.55 1478.97,-1379.44 1477.22,-1380.32 1475.34,-1381.18 1473.36,-1382.02 1471.28,-1382.84 1469.11,-1383.63 1466.87,-1384.39 1464.55,-1385.13 1462.16,-1385.83 1459.72,-1386.49 1457.23,-1387.12 1454.69,-1387.72 1452.11,-1388.27 1449.5,-1388.78 1446.86,-1389.26 1444.19,-1389.68 1441.51,-1390.07 1438.8,-1390.41 1436.09,-1390.7 1433.36,-1390.94 1430.62,-1391.14 1427.88,-1391.28 1425.13,-1391.38 1422.38,-1391.43 1419.62,-1391.43 1416.87,-1391.38 1414.12,-1391.28 1411.38,-1391.14 1408.64,-1390.94 1405.91,-1390.7 1403.2,-1390.41 1400.49,-1390.07 1397.81,-1389.68 1395.14,-1389.26 1392.5,-1388.78 1389.89,-1388.27 1387.31,-1387.72 1384.77,-1387.12 1382.28,-1386.49 1379.84,-1385.83 1377.45,-1385.13 1375.13,-1384.39 1372.89,-1383.63 1370.72,-1382.84 1368.64,-1382.02 1366.66,-1381.18 1364.78,-1380.32 1363.03,-1379.44 1361.39,-1378.55 1359.89,-1377.64 1358.53,-1376.71 1357.32,-1375.78 1356.27,-1374.84 1355.39,-1373.9 1354.69,-1372.96 1354.18,-1372.02 1353.85,-1371.08 1353.72,-1370.15 1353.8,-1369.23 1354.09,-1368.32 1354.59,-1367.42 1355.3,-1366.54 1356.24,-1365.68 1357.39,-1364.84 1358.77,-1364.02 1360.37,-1363.23 1362.18,-1362.47 1364.21,-1361.74 1366.44,-1361.04 1368.89,-1360.37 1371.53,-1359.74 1374.36,-1359.15 1377.37,-1358.59 1380.55,-1358.08 1383.89,-1357.61 1387.38,-1357.18 1391.01,-1356.8 1394.76,-1356.46 1398.61,-1356.17 1402.55,-1355.92 1406.57,-1355.73 1410.65,-1355.58 1414.77,-1355.48 1418.92,-1355.43 1423.08,-1355.43 1427.23,-1355.48"/>
<text text-anchor="middle" x="1421" y="-1369.73" font-family="Times,serif" font-size="14.00">Integromat</text>
</a>
</g>
</g>
<!-- welcomer -->
<g id="node22" class="node">
<title>welcomer</title>
<g id="a_node22"><a xlink:href="https://roamresearch.com/#/app/ArtOfGig/page/6EFGxN2M8" xlink:title="Welcomer">
<polygon fill="none" stroke="blue" points="1335.5,-1391.43 1248.5,-1391.43 1248.5,-1355.43 1335.5,-1355.43 1335.5,-1391.43"/>
<text text-anchor="middle" x="1292" y="-1369.73" font-family="Times,serif" font-size="14.00">Welcomer</text>
</a>
</g>
</g>
<!-- create_post -->
<g id="node32" class="node">
<title>create_post</title>
<g id="a_node32"><a xlink:href="https://roamresearch.com/#/app/ArtOfGig/page/wDK81GyfO" xlink:title="create&#45;post">
<polygon fill="none" stroke="blue" points="807.5,-823.43 710.5,-823.43 710.5,-787.43 807.5,-787.43 807.5,-823.43"/>
<text text-anchor="middle" x="759" y="-801.73" font-family="Times,serif" font-size="14.00">create&#45;post</text>
</a>
</g>
</g>
<!-- rss_applet&#45;&gt;create_post -->
<g id="edge35" class="edge">
<title>rss_applet&#45;&gt;create_post</title>
<path fill="none" stroke="black" d="M193.16,-991.69C197.96,-974.76 207.55,-950.16 225,-936.11 298.55,-876.9 577.6,-831.73 700.4,-814.28"/>
<polygon fill="black" stroke="black" points="700.96,-817.73 710.38,-812.87 699.99,-810.8 700.96,-817.73"/>
<text text-anchor="middle" x="275.5" y="-954.91" font-family="Times,serif" font-size="14.00">RSS post data</text>
<text text-anchor="middle" x="275.5" y="-939.91" font-family="Times,serif" font-size="14.00">to webhook</text>
</g>
<!-- twitter_applets&#45;&gt;twitter -->
<g id="edge41" class="edge">
<title>twitter_applets&#45;&gt;twitter</title>
<path fill="none" stroke="black" d="M282.34,-991.94C266.4,-956.99 234,-877.26 234,-806.43 234,-806.43 234,-806.43 234,-282 234,-242.21 240.76,-196.55 245.75,-168.24"/>
<polygon fill="black" stroke="black" points="249.21,-168.75 247.56,-158.28 242.33,-167.5 249.21,-168.75"/>
<text text-anchor="middle" x="278.5" y="-523.67" font-family="Times,serif" font-size="14.00">Tweet about</text>
<text text-anchor="middle" x="278.5" y="-508.67" font-family="Times,serif" font-size="14.00">new content</text>
</g>
<!-- netlify_applet -->
<g id="node25" class="node">
<title>netlify_applet</title>
<g id="a_node25"><a xlink:href="https://roamresearch.com/#/app/ArtOfGig/page/EWP06EjZH" xlink:title="Netlify Build\nHook Applet">
<polygon fill="none" stroke="blue" points="122.5,-1029.99 15.5,-1029.99 15.5,-991.99 122.5,-991.99 122.5,-1029.99"/>
<text text-anchor="middle" x="69" y="-1014.79" font-family="Times,serif" font-size="14.00">Netlify Build</text>
<text text-anchor="middle" x="69" y="-999.79" font-family="Times,serif" font-size="14.00">Hook Applet</text>
</a>
</g>
</g>
<!-- netlify_ci -->
<g id="node27" class="node">
<title>netlify_ci</title>
<g id="a_node27"><a xlink:href="https://roamresearch.com/#/app/ArtOfGig/page/lfZqzDmtI" xlink:title="Netlify Continuous\nIntegration">
<polygon fill="none" stroke="blue" points="1089.54,-1346.75 1096.52,-1346.89 1103.43,-1347.11 1110.23,-1347.4 1116.91,-1347.77 1123.44,-1348.2 1129.78,-1348.7 1135.92,-1349.27 1141.83,-1349.91 1147.49,-1350.61 1152.88,-1351.37 1157.97,-1352.2 1162.77,-1353.08 1167.24,-1354.01 1171.37,-1355.01 1175.16,-1356.05 1178.6,-1357.14 1181.67,-1358.27 1184.37,-1359.45 1186.7,-1360.66 1188.66,-1361.91 1190.24,-1363.19 1191.45,-1364.5 1192.3,-1365.83 1192.78,-1367.18 1192.91,-1368.55 1192.7,-1369.94 1192.15,-1371.33 1191.27,-1372.73 1190.08,-1374.13 1188.6,-1375.53 1186.82,-1376.93 1184.78,-1378.31 1182.47,-1379.68 1179.93,-1381.03 1177.16,-1382.37 1174.18,-1383.68 1171.01,-1384.96 1167.66,-1386.2 1164.14,-1387.42 1160.47,-1388.59 1156.66,-1389.73 1152.74,-1390.82 1148.7,-1391.86 1144.56,-1392.85 1140.34,-1393.79 1136.04,-1394.67 1131.68,-1395.49 1127.26,-1396.26 1122.78,-1396.96 1118.27,-1397.59 1113.72,-1398.16 1109.15,-1398.66 1104.55,-1399.1 1099.93,-1399.46 1095.29,-1399.75 1090.64,-1399.97 1085.99,-1400.12 1081.33,-1400.19 1076.67,-1400.19 1072.01,-1400.12 1067.36,-1399.97 1062.71,-1399.75 1058.07,-1399.46 1053.45,-1399.1 1048.85,-1398.66 1044.28,-1398.16 1039.73,-1397.59 1035.22,-1396.96 1030.74,-1396.26 1026.32,-1395.49 1021.96,-1394.67 1017.66,-1393.79 1013.44,-1392.85 1009.3,-1391.86 1005.26,-1390.82 1001.34,-1389.73 997.53,-1388.59 993.86,-1387.42 990.34,-1386.2 986.99,-1384.96 983.82,-1383.68 980.84,-1382.37 978.07,-1381.03 975.53,-1379.68 973.22,-1378.31 971.18,-1376.93 969.4,-1375.53 967.92,-1374.13 966.73,-1372.73 965.85,-1371.33 965.3,-1369.94 965.09,-1368.55 965.22,-1367.18 965.7,-1365.83 966.55,-1364.5 967.76,-1363.19 969.34,-1361.91 971.3,-1360.66 973.63,-1359.45 976.33,-1358.27 979.4,-1357.14 982.84,-1356.05 986.63,-1355.01 990.76,-1354.01 995.23,-1353.08 1000.03,-1352.2 1005.12,-1351.37 1010.51,-1350.61 1016.17,-1349.91 1022.08,-1349.27 1028.22,-1348.7 1034.56,-1348.2 1041.09,-1347.77 1047.77,-1347.4 1054.57,-1347.11 1061.48,-1346.89 1068.46,-1346.75 1075.48,-1346.67 1082.52,-1346.67 1089.54,-1346.75"/>
<text text-anchor="middle" x="1079" y="-1377.23" font-family="Times,serif" font-size="14.00">Netlify Continuous</text>
<text text-anchor="middle" x="1079" y="-1362.23" font-family="Times,serif" font-size="14.00">Integration</text>
</a>
</g>
</g>
<!-- netlify_applet&#45;&gt;netlify_ci -->
<g id="edge23" class="edge">
<title>netlify_applet&#45;&gt;netlify_ci</title>
<path fill="none" stroke="black" d="M64.02,-1030.23C52,-1078.79 27.17,-1212.2 96,-1280.55 155.79,-1339.93 703.76,-1362.3 954.63,-1369.48"/>
<polygon fill="black" stroke="black" points="954.8,-1372.99 964.89,-1369.77 955,-1365.99 954.8,-1372.99"/>
<text text-anchor="middle" x="150.5" y="-1202.57" font-family="Times,serif" font-size="14.00">Trigger rebuild</text>
<text text-anchor="middle" x="150.5" y="-1187.57" font-family="Times,serif" font-size="14.00">every 24 hours</text>
</g>
<!-- github -->
<g id="node26" class="node">
<title>github</title>
<g id="a_node26"><a xlink:href="https://roamresearch.com/#/app/ArtOfGig/page/1PVNV7Ell" xlink:title="GitHub">
<polygon fill="none" stroke="blue" points="1780.36,-501.92 1783.25,-502.02 1786.11,-502.17 1788.92,-502.36 1791.69,-502.61 1794.39,-502.9 1797.01,-503.24 1799.55,-503.62 1802,-504.05 1804.34,-504.52 1806.57,-505.03 1808.68,-505.59 1810.66,-506.18 1812.51,-506.81 1814.22,-507.48 1815.79,-508.18 1817.21,-508.91 1818.48,-509.67 1819.6,-510.47 1820.56,-511.28 1821.37,-512.12 1822.03,-512.98 1822.53,-513.86 1822.88,-514.76 1823.08,-515.67 1823.13,-516.59 1823.04,-517.52 1822.82,-518.46 1822.45,-519.4 1821.96,-520.34 1821.35,-521.29 1820.61,-522.22 1819.77,-523.15 1818.81,-524.08 1817.76,-524.99 1816.62,-525.88 1815.38,-526.76 1814.07,-527.63 1812.68,-528.47 1811.23,-529.28 1809.71,-530.07 1808.13,-530.84 1806.51,-531.57 1804.84,-532.27 1803.13,-532.93 1801.38,-533.57 1799.6,-534.16 1797.8,-534.71 1795.97,-535.23 1794.12,-535.7 1792.25,-536.13 1790.37,-536.51 1788.47,-536.85 1786.57,-537.14 1784.66,-537.38 1782.74,-537.58 1780.82,-537.73 1778.89,-537.82 1776.96,-537.87 1775.04,-537.87 1773.11,-537.82 1771.18,-537.73 1769.26,-537.58 1767.34,-537.38 1765.43,-537.14 1763.53,-536.85 1761.63,-536.51 1759.75,-536.13 1757.88,-535.7 1756.03,-535.23 1754.2,-534.71 1752.4,-534.16 1750.62,-533.57 1748.87,-532.93 1747.16,-532.27 1745.49,-531.57 1743.87,-530.84 1742.29,-530.07 1740.77,-529.28 1739.32,-528.47 1737.93,-527.63 1736.62,-526.76 1735.38,-525.88 1734.24,-524.99 1733.19,-524.08 1732.23,-523.15 1731.39,-522.22 1730.65,-521.29 1730.04,-520.34 1729.55,-519.4 1729.18,-518.46 1728.96,-517.52 1728.87,-516.59 1728.92,-515.67 1729.12,-514.76 1729.47,-513.86 1729.97,-512.98 1730.63,-512.12 1731.44,-511.28 1732.4,-510.47 1733.52,-509.67 1734.79,-508.91 1736.21,-508.18 1737.78,-507.48 1739.49,-506.81 1741.34,-506.18 1743.32,-505.59 1745.43,-505.03 1747.66,-504.52 1750,-504.05 1752.45,-503.62 1754.99,-503.24 1757.61,-502.9 1760.31,-502.61 1763.08,-502.36 1765.89,-502.17 1768.75,-502.02 1771.64,-501.92 1774.54,-501.87 1777.46,-501.87 1780.36,-501.92"/>
<text text-anchor="middle" x="1776" y="-516.17" font-family="Times,serif" font-size="14.00">GitHub</text>
</a>
</g>
</g>
<!-- github&#45;&gt;netlify_ci -->
<g id="edge22" class="edge">
<title>github&#45;&gt;netlify_ci</title>
<path fill="none" stroke="black" d="M1780.82,-537.82C1788.04,-563.84 1801.6,-615.26 1809,-659.75 1819.6,-723.47 1823,-739.83 1823,-804.43 1823,-1199.77 1823,-1199.77 1823,-1199.77 1823,-1334.23 1368.92,-1326.25 1236,-1346.55 1219.68,-1349.05 1202.42,-1351.78 1185.55,-1354.52"/>
<polygon fill="black" stroke="black" points="1184.98,-1351.07 1175.67,-1356.13 1186.11,-1357.97 1184.98,-1351.07"/>
<text text-anchor="middle" x="1902.5" y="-1014.79" font-family="Times,serif" font-size="14.00">Repo contents pushed</text>
<text text-anchor="middle" x="1902.5" y="-999.79" font-family="Times,serif" font-size="14.00">on commit</text>
</g>
<!-- jekyll -->
<g id="node28" class="node">
<title>jekyll</title>
<g id="a_node28"><a xlink:href="https://roamresearch.com/#/app/ArtOfGig/page/fF35dWNYl" xlink:title="Jekyll">
<polygon fill="none" stroke="blue" points="1014,-1216.77 958,-1216.77 958,-1180.77 1014,-1180.77 1014,-1216.77"/>
<text text-anchor="middle" x="986" y="-1195.07" font-family="Times,serif" font-size="14.00">Jekyll</text>
</a>
</g>
</g>
<!-- netlify_ci&#45;&gt;jekyll -->
<g id="edge25" class="edge">
<title>netlify_ci&#45;&gt;jekyll</title>
<path fill="none" stroke="black" d="M1065.08,-1346.58C1047.55,-1314.05 1017.62,-1258.48 1000.04,-1225.84"/>
<polygon fill="black" stroke="black" points="1003.04,-1224.03 995.22,-1216.89 996.88,-1227.35 1003.04,-1224.03"/>
<text text-anchor="middle" x="1103" y="-1309.85" font-family="Times,serif" font-size="14.00">Build website</text>
</g>
<!-- netlify_cdn -->
<g id="node29" class="node">
<title>netlify_cdn</title>
<g id="a_node29"><a xlink:href="https://roamresearch.com/#/app/ArtOfGig/page/R-E2CDAe2" xlink:title="Netlify\nCDN">
<polygon fill="none" stroke="blue" points="893.52,-984.3 896.52,-984.45 899.48,-984.67 902.41,-984.96 905.27,-985.32 908.07,-985.76 910.8,-986.26 913.43,-986.83 915.97,-987.46 918.4,-988.17 920.71,-988.93 922.9,-989.75 924.95,-990.63 926.87,-991.57 928.65,-992.56 930.27,-993.6 931.75,-994.69 933.07,-995.83 934.23,-997 935.23,-998.22 936.07,-999.46 936.75,-1000.75 937.27,-1002.05 937.63,-1003.39 937.84,-1004.74 937.89,-1006.11 937.8,-1007.5 937.56,-1008.89 937.19,-1010.29 936.68,-1011.69 936.04,-1013.09 935.28,-1014.48 934.4,-1015.87 933.41,-1017.24 932.32,-1018.59 931.13,-1019.92 929.85,-1021.23 928.49,-1022.51 927.05,-1023.76 925.54,-1024.98 923.97,-1026.15 922.33,-1027.28 920.65,-1028.37 918.92,-1029.42 917.14,-1030.41 915.33,-1031.34 913.48,-1032.23 911.61,-1033.05 909.71,-1033.81 907.79,-1034.51 905.86,-1035.15 903.9,-1035.72 901.94,-1036.22 899.96,-1036.65 897.98,-1037.02 895.99,-1037.31 894,-1037.53 892,-1037.67 890,-1037.75 888,-1037.75 886,-1037.67 884,-1037.53 882.01,-1037.31 880.02,-1037.02 878.04,-1036.65 876.06,-1036.22 874.1,-1035.72 872.14,-1035.15 870.21,-1034.51 868.29,-1033.81 866.39,-1033.05 864.52,-1032.23 862.67,-1031.34 860.86,-1030.41 859.08,-1029.42 857.35,-1028.37 855.67,-1027.28 854.03,-1026.15 852.46,-1024.98 850.95,-1023.76 849.51,-1022.51 848.15,-1021.23 846.87,-1019.92 845.68,-1018.59 844.59,-1017.24 843.6,-1015.87 842.72,-1014.48 841.96,-1013.09 841.32,-1011.69 840.81,-1010.29 840.44,-1008.89 840.2,-1007.5 840.11,-1006.11 840.16,-1004.74 840.37,-1003.39 840.73,-1002.05 841.25,-1000.75 841.93,-999.46 842.77,-998.22 843.77,-997 844.93,-995.83 846.25,-994.69 847.73,-993.6 849.35,-992.56 851.13,-991.57 853.05,-990.63 855.1,-989.75 857.29,-988.93 859.6,-988.17 862.03,-987.46 864.57,-986.83 867.2,-986.26 869.93,-985.76 872.73,-985.32 875.59,-984.96 878.52,-984.67 881.48,-984.45 884.48,-984.3 887.49,-984.23 890.51,-984.23 893.52,-984.3"/>
<text text-anchor="middle" x="889" y="-1014.79" font-family="Times,serif" font-size="14.00">Netlify</text>
<text text-anchor="middle" x="889" y="-999.79" font-family="Times,serif" font-size="14.00">CDN</text>
</a>
</g>
</g>
<!-- jekyll&#45;&gt;netlify_cdn -->
<g id="edge26" class="edge">
<title>jekyll&#45;&gt;netlify_cdn</title>
<path fill="none" stroke="black" d="M977.05,-1180.63C961.03,-1149.94 927.19,-1085.13 906.44,-1045.39"/>
<polygon fill="black" stroke="black" points="909.45,-1043.59 901.72,-1036.35 903.24,-1046.83 909.45,-1043.59"/>
<text text-anchor="middle" x="998" y="-1087.79" font-family="Times,serif" font-size="14.00">Optimize &amp; deploy</text>
<text text-anchor="middle" x="998" y="-1072.79" font-family="Times,serif" font-size="14.00">website files</text>
</g>
<!-- website -->
<g id="node30" class="node">
<title>website</title>
<g id="a_node30"><a xlink:href="https://roamresearch.com/#/app/ArtOfGig/page/h0Wx539Oq" xlink:title="Yak Collective\nWebsite">
<ellipse fill="none" stroke="green" cx="1130" cy="-805.43" rx="82.05" ry="82.05"/>
<ellipse fill="none" stroke="green" cx="1130" cy="-805.43" rx="86.05" ry="86.05"/>
<text text-anchor="middle" x="1130" y="-809.23" font-family="Times,serif" font-size="14.00">Yak Collective</text>
<text text-anchor="middle" x="1130" y="-794.23" font-family="Times,serif" font-size="14.00">Website</text>
</a>
</g>
</g>
<!-- netlify_cdn&#45;&gt;website -->
<g id="edge28" class="edge">
<title>netlify_cdn&#45;&gt;website</title>
<path fill="none" stroke="black" d="M931.22,-993.97C946.87,-986.85 964.15,-977.48 978,-966.11 990.99,-955.45 986.89,-945.23 1001,-936.11 1014.04,-927.68 1021.93,-936.48 1035,-928.11 1051.63,-917.46 1066.55,-902.87 1079.37,-887.48"/>
<polygon fill="black" stroke="black" points="1082.35,-889.37 1085.89,-879.38 1076.89,-884.98 1082.35,-889.37"/>
<text text-anchor="middle" x="1058.5" y="-954.91" font-family="Times,serif" font-size="14.00">Push to Amazon</text>
<text text-anchor="middle" x="1058.5" y="-939.91" font-family="Times,serif" font-size="14.00">Cloudfront</text>
</g>
<!-- featured_yak -->
<g id="node31" class="node">
<title>featured_yak</title>
<g id="a_node31"><a xlink:href="https://roamresearch.com/#/app/ArtOfGig/page/ZzuH6YDFq" xlink:title="&quot;Featured Yak&quot;\nRSS Feed">
<ellipse fill="none" stroke="green" cx="934" cy="-805.43" rx="87.85" ry="87.85"/>
<ellipse fill="none" stroke="green" cx="934" cy="-805.43" rx="91.86" ry="91.86"/>
<text text-anchor="middle" x="934" y="-809.23" font-family="Times,serif" font-size="14.00">&quot;Featured Yak&quot;</text>
<text text-anchor="middle" x="934" y="-794.23" font-family="Times,serif" font-size="14.00">RSS Feed</text>
</a>
</g>
</g>
<!-- netlify_cdn&#45;&gt;featured_yak -->
<g id="edge29" class="edge">
<title>netlify_cdn&#45;&gt;featured_yak</title>
<path fill="none" stroke="black" d="M871.42,-985.51C867.95,-979.45 864.83,-972.77 863,-966.11 859.48,-953.25 859.7,-949.03 863,-936.11 866.81,-921.22 872.72,-906.2 879.54,-891.92"/>
<polygon fill="black" stroke="black" points="882.83,-893.17 884.15,-882.66 876.56,-890.06 882.83,-893.17"/>
<text text-anchor="middle" x="920.5" y="-954.91" font-family="Times,serif" font-size="14.00">Push to Amazon</text>
<text text-anchor="middle" x="920.5" y="-939.91" font-family="Times,serif" font-size="14.00">Cloudfront</text>
</g>
<!-- netlify_cdn&#45;&gt;create_post -->
<g id="edge30" class="edge">
<title>netlify_cdn&#45;&gt;create_post</title>
<path fill="none" stroke="black" d="M840.49,-1002.64C800.32,-995.44 747.81,-983.08 735,-966.11 705.44,-926.94 727.52,-866.68 744.45,-832.49"/>
<polygon fill="black" stroke="black" points="747.57,-834.06 749.04,-823.57 741.35,-830.86 747.57,-834.06"/>
<text text-anchor="middle" x="795.5" y="-954.91" font-family="Times,serif" font-size="14.00">Create Amazon</text>
<text text-anchor="middle" x="795.5" y="-939.91" font-family="Times,serif" font-size="14.00">Lambda function</text>
</g>
<!-- website&#45;&gt;google_analytics -->
<g id="edge1" class="edge">
<title>website&#45;&gt;google_analytics</title>
<path fill="none" stroke="black" d="M1182.45,-736.91C1191.33,-722.12 1199.21,-706 1204,-689.75 1217.25,-644.77 1206.36,-590.6 1196.19,-555.96"/>
<polygon fill="black" stroke="black" points="1199.5,-554.83 1193.22,-546.3 1192.81,-556.88 1199.5,-554.83"/>
<text text-anchor="middle" x="1267" y="-671.05" font-family="Times,serif" font-size="14.00">Visitor analytics</text>
</g>
<!-- website&#45;&gt;reboot_deck -->
<g id="edge2" class="edge">
<title>website&#45;&gt;reboot_deck</title>
<path fill="none" stroke="red" d="M1210.96,-776.29C1252.31,-757.88 1299.91,-729.73 1329,-689.75 1341.56,-672.48 1349.92,-651.76 1355.44,-630.83"/>
<polygon fill="red" stroke="red" points="1358.9,-631.42 1357.86,-620.88 1352.1,-629.77 1358.9,-631.42"/>
<text text-anchor="middle" x="1415" y="-671.05" font-family="Times,serif" font-size="14.00">Google Slides / PDF</text>
</g>
<!-- website&#45;&gt;home_deck -->
<g id="edge3" class="edge">
<title>website&#45;&gt;home_deck</title>
<path fill="none" stroke="red" d="M1084.69,-732.21C1062,-696.08 1039.25,-659.91 1039,-659.75 1012.88,-643.29 996.53,-667.53 970,-651.75 951.06,-640.48 935.02,-623.62 921.91,-605.72"/>
<polygon fill="red" stroke="red" points="924.7,-603.61 916.09,-597.44 918.98,-607.64 924.7,-603.61"/>
<text text-anchor="middle" x="1127" y="-671.05" font-family="Times,serif" font-size="14.00">Google Slides / PDF</text>
</g>
<!-- knack -->
<g id="node35" class="node">
<title>knack</title>
<g id="a_node35"><a xlink:href="https://roamresearch.com/#/app/ArtOfGig/page/FDjmLsCeR" xlink:title="Knack">
<polygon fill="none" stroke="green" points="1309.85,-1180.82 1312.39,-1180.92 1314.91,-1181.07 1317.39,-1181.26 1319.83,-1181.51 1322.21,-1181.8 1324.53,-1182.14 1326.76,-1182.52 1328.92,-1182.95 1330.99,-1183.42 1332.95,-1183.93 1334.81,-1184.49 1336.56,-1185.08 1338.19,-1185.71 1339.7,-1186.38 1341.08,-1187.08 1342.33,-1187.81 1343.45,-1188.57 1344.44,-1189.36 1345.29,-1190.18 1346,-1191.02 1346.58,-1191.88 1347.02,-1192.76 1347.33,-1193.66 1347.51,-1194.57 1347.56,-1195.49 1347.48,-1196.42 1347.28,-1197.36 1346.96,-1198.3 1346.53,-1199.24 1345.98,-1200.18 1345.34,-1201.12 1344.59,-1202.05 1343.75,-1202.97 1342.82,-1203.88 1341.81,-1204.78 1340.72,-1205.66 1339.57,-1206.52 1338.34,-1207.36 1337.06,-1208.18 1335.72,-1208.97 1334.33,-1209.73 1332.9,-1210.46 1331.43,-1211.17 1329.92,-1211.83 1328.38,-1212.46 1326.81,-1213.06 1325.22,-1213.61 1323.6,-1214.12 1321.97,-1214.59 1320.33,-1215.02 1318.67,-1215.41 1317,-1215.74 1315.32,-1216.04 1313.63,-1216.28 1311.94,-1216.48 1310.25,-1216.62 1308.55,-1216.72 1306.85,-1216.77 1305.15,-1216.77 1303.45,-1216.72 1301.75,-1216.62 1300.06,-1216.48 1298.37,-1216.28 1296.68,-1216.04 1295,-1215.74 1293.33,-1215.41 1291.67,-1215.02 1290.03,-1214.59 1288.4,-1214.12 1286.78,-1213.61 1285.19,-1213.06 1283.62,-1212.46 1282.08,-1211.83 1280.57,-1211.17 1279.1,-1210.46 1277.67,-1209.73 1276.28,-1208.97 1274.94,-1208.18 1273.66,-1207.36 1272.43,-1206.52 1271.28,-1205.66 1270.19,-1204.78 1269.18,-1203.88 1268.25,-1202.97 1267.41,-1202.05 1266.66,-1201.12 1266.02,-1200.18 1265.47,-1199.24 1265.04,-1198.3 1264.72,-1197.36 1264.52,-1196.42 1264.44,-1195.49 1264.49,-1194.57 1264.67,-1193.66 1264.98,-1192.76 1265.42,-1191.88 1266,-1191.02 1266.71,-1190.18 1267.56,-1189.36 1268.55,-1188.57 1269.67,-1187.81 1270.92,-1187.08 1272.3,-1186.38 1273.81,-1185.71 1275.44,-1185.08 1277.19,-1184.49 1279.05,-1183.93 1281.01,-1183.42 1283.08,-1182.95 1285.24,-1182.52 1287.47,-1182.14 1289.79,-1181.8 1292.17,-1181.51 1294.61,-1181.26 1297.09,-1181.07 1299.61,-1180.92 1302.15,-1180.82 1304.72,-1180.77 1307.28,-1180.77 1309.85,-1180.82"/>
<text text-anchor="middle" x="1306" y="-1195.07" font-family="Times,serif" font-size="14.00">Knack</text>
</a>
</g>
</g>
<!-- website&#45;&gt;knack -->
<g id="edge5" class="edge">
<title>website&#45;&gt;knack</title>
<path fill="none" stroke="red" d="M1124.19,-891.58C1120.27,-959.9 1117.24,-1046.69 1126,-1060.99 1154.67,-1107.76 1192.79,-1083.19 1236,-1116.99 1256.41,-1132.96 1275.39,-1155.54 1288.42,-1172.78"/>
<polygon fill="red" stroke="red" points="1285.91,-1175.27 1294.66,-1181.24 1291.54,-1171.11 1285.91,-1175.27"/>
<text text-anchor="middle" x="1178.5" y="-1014.79" font-family="Times,serif" font-size="14.00">Sign up form</text>
<text text-anchor="middle" x="1178.5" y="-999.79" font-family="Times,serif" font-size="14.00">(minimal data)</text>
</g>
<!-- featured_yak&#45;&gt;twitter_applets -->
<g id="edge40" class="edge">
<title>featured_yak&#45;&gt;twitter_applets</title>
<path fill="none" stroke="black" d="M884.98,-883.33C869.66,-901.16 851.14,-917.89 830,-928.11 808.38,-938.56 637.81,-932.97 614,-936.11 513.78,-949.31 398.97,-979.2 336.81,-996.64"/>
<polygon fill="black" stroke="black" points="335.6,-993.35 326.93,-999.44 337.5,-1000.08 335.6,-993.35"/>
<text text-anchor="middle" x="647" y="-954.91" font-family="Times,serif" font-size="14.00">Pulled</text>
<text text-anchor="middle" x="647" y="-939.91" font-family="Times,serif" font-size="14.00">by IFTTT</text>
</g>
<!-- create_post&#45;&gt;discord -->
<g id="edge37" class="edge">
<title>create_post&#45;&gt;discord</title>
<path fill="none" stroke="black" d="M766.39,-787.33C777.22,-764.1 799.48,-722.63 830,-697.75 864.93,-669.28 879.83,-668.67 924,-659.75 939.09,-656.7 1466.87,-662.38 1478,-651.75 1568.4,-565.41 1462.24,-491.64 1495,-371 1511.98,-308.47 1545.92,-304.02 1561,-241 1564.1,-228.03 1569.97,-220.87 1561,-211 1546.89,-195.47 1393.86,-195.26 1373,-193 1236.11,-178.19 1075.11,-158.04 994.12,-147.71"/>
<polygon fill="black" stroke="black" points="994.54,-144.23 984.17,-146.44 993.65,-151.18 994.54,-144.23"/>
<text text-anchor="middle" x="1556.5" y="-389.8" font-family="Times,serif" font-size="14.00">Post in</text>
<text text-anchor="middle" x="1556.5" y="-374.8" font-family="Times,serif" font-size="14.00">#yaktalk&#45;content</text>
</g>
<!-- create_post&#45;&gt;github -->
<g id="edge36" class="edge">
<title>create_post&#45;&gt;github</title>
<path fill="none" stroke="black" d="M764.95,-787.21C774.45,-762.62 795.56,-718.19 830,-697.75 864.91,-677.03 886.32,-710.86 921,-689.75 934.48,-681.54 926.23,-667.45 940,-659.75 967.54,-644.34 1477.3,-659.07 1508,-651.75 1600.74,-629.62 1698.72,-571.62 1746.42,-540.79"/>
<polygon fill="black" stroke="black" points="1748.54,-543.59 1755,-535.19 1744.72,-537.73 1748.54,-543.59"/>
<text text-anchor="middle" x="987.5" y="-678.55" font-family="Times,serif" font-size="14.00">Commit new</text>
<text text-anchor="middle" x="987.5" y="-663.55" font-family="Times,serif" font-size="14.00">member post</text>
</g>
<!-- namecheap -->
<g id="node33" class="node">
<title>namecheap</title>
<g id="a_node33"><a xlink:href="https://roamresearch.com/#/app/ArtOfGig/page/SrB_NQUiU" xlink:title="Namecheap">
<polygon fill="none" stroke="blue" points="1538.46,-993.04 1542.74,-993.14 1546.97,-993.28 1551.14,-993.48 1555.24,-993.72 1559.23,-994.02 1563.12,-994.35 1566.88,-994.74 1570.51,-995.16 1573.97,-995.64 1577.28,-996.15 1580.4,-996.7 1583.34,-997.3 1586.08,-997.93 1588.61,-998.59 1590.94,-999.29 1593.04,-1000.03 1594.92,-1000.79 1596.58,-1001.58 1598.01,-1002.4 1599.2,-1003.24 1600.18,-1004.1 1600.92,-1004.98 1601.44,-1005.87 1601.73,-1006.79 1601.81,-1007.71 1601.68,-1008.64 1601.34,-1009.58 1600.81,-1010.52 1600.08,-1011.46 1599.17,-1012.4 1598.08,-1013.34 1596.83,-1014.27 1595.42,-1015.19 1593.86,-1016.1 1592.16,-1017 1590.33,-1017.88 1588.39,-1018.74 1586.33,-1019.58 1584.18,-1020.4 1581.93,-1021.19 1579.6,-1021.95 1577.19,-1022.68 1574.72,-1023.38 1572.18,-1024.05 1569.59,-1024.68 1566.96,-1025.27 1564.28,-1025.83 1561.57,-1026.34 1558.83,-1026.81 1556.07,-1027.24 1553.28,-1027.62 1550.48,-1027.96 1547.66,-1028.25 1544.82,-1028.5 1541.98,-1028.69 1539.14,-1028.84 1536.28,-1028.94 1533.43,-1028.99 1530.57,-1028.99 1527.72,-1028.94 1524.86,-1028.84 1522.02,-1028.69 1519.18,-1028.5 1516.34,-1028.25 1513.52,-1027.96 1510.72,-1027.62 1507.93,-1027.24 1505.17,-1026.81 1502.43,-1026.34 1499.72,-1025.83 1497.04,-1025.27 1494.41,-1024.68 1491.82,-1024.05 1489.28,-1023.38 1486.81,-1022.68 1484.4,-1021.95 1482.07,-1021.19 1479.82,-1020.4 1477.67,-1019.58 1475.61,-1018.74 1473.67,-1017.88 1471.84,-1017 1470.14,-1016.1 1468.58,-1015.19 1467.17,-1014.27 1465.92,-1013.34 1464.83,-1012.4 1463.92,-1011.46 1463.19,-1010.52 1462.66,-1009.58 1462.32,-1008.64 1462.19,-1007.71 1462.27,-1006.79 1462.56,-1005.87 1463.08,-1004.98 1463.82,-1004.1 1464.8,-1003.24 1465.99,-1002.4 1467.42,-1001.58 1469.08,-1000.79 1470.96,-1000.03 1473.06,-999.29 1475.39,-998.59 1477.92,-997.93 1480.66,-997.3 1483.6,-996.7 1486.72,-996.15 1490.03,-995.64 1493.49,-995.16 1497.12,-994.74 1500.88,-994.35 1504.77,-994.02 1508.76,-993.72 1512.86,-993.48 1517.03,-993.28 1521.26,-993.14 1525.54,-993.04 1529.84,-992.99 1534.16,-992.99 1538.46,-993.04"/>
<text text-anchor="middle" x="1532" y="-1007.29" font-family="Times,serif" font-size="14.00">Namecheap</text>
</a>
</g>
</g>
<!-- namecheap&#45;&gt;website -->
<g id="edge27" class="edge">
<title>namecheap&#45;&gt;website</title>
<path fill="none" stroke="red" d="M1518.69,-993.05C1503.38,-973.91 1478.85,-944.36 1467,-936.11 1392.56,-884.27 1294.61,-849.61 1223.51,-829.26"/>
<polygon fill="red" stroke="red" points="1224.23,-825.83 1213.66,-826.48 1222.33,-832.56 1224.23,-825.83"/>
<text text-anchor="middle" x="1555.5" y="-947.41" font-family="Times,serif" font-size="14.00">DNS information</text>
</g>
<!-- cloudinary -->
<g id="node34" class="node">
<title>cloudinary</title>
<g id="a_node34"><a xlink:href="https://roamresearch.com/#/app/ArtOfGig/page/aZug23GyY" xlink:title="Cloudinary">
<polygon fill="none" stroke="blue" points="1384.06,-993.04 1388.08,-993.14 1392.05,-993.28 1395.96,-993.48 1399.8,-993.72 1403.55,-994.02 1407.2,-994.35 1410.73,-994.74 1414.13,-995.16 1417.39,-995.64 1420.48,-996.15 1423.42,-996.7 1426.17,-997.3 1428.74,-997.93 1431.12,-998.59 1433.3,-999.29 1435.28,-1000.03 1437.04,-1000.79 1438.6,-1001.58 1439.94,-1002.4 1441.06,-1003.24 1441.97,-1004.1 1442.67,-1004.98 1443.16,-1005.87 1443.43,-1006.79 1443.51,-1007.71 1443.39,-1008.64 1443.07,-1009.58 1442.56,-1010.52 1441.88,-1011.46 1441.03,-1012.4 1440.01,-1013.34 1438.83,-1014.27 1437.51,-1015.19 1436.04,-1016.1 1434.45,-1017 1432.74,-1017.88 1430.91,-1018.74 1428.98,-1019.58 1426.96,-1020.4 1424.85,-1021.19 1422.66,-1021.95 1420.4,-1022.68 1418.08,-1023.38 1415.7,-1024.05 1413.28,-1024.68 1410.8,-1025.27 1408.29,-1025.83 1405.75,-1026.34 1403.18,-1026.81 1400.58,-1027.24 1397.97,-1027.62 1395.34,-1027.96 1392.69,-1028.25 1390.03,-1028.5 1387.37,-1028.69 1384.7,-1028.84 1382.02,-1028.94 1379.34,-1028.99 1376.66,-1028.99 1373.98,-1028.94 1371.3,-1028.84 1368.63,-1028.69 1365.97,-1028.5 1363.31,-1028.25 1360.66,-1027.96 1358.03,-1027.62 1355.42,-1027.24 1352.82,-1026.81 1350.25,-1026.34 1347.71,-1025.83 1345.2,-1025.27 1342.72,-1024.68 1340.3,-1024.05 1337.92,-1023.38 1335.6,-1022.68 1333.34,-1021.95 1331.15,-1021.19 1329.04,-1020.4 1327.02,-1019.58 1325.09,-1018.74 1323.26,-1017.88 1321.55,-1017 1319.96,-1016.1 1318.49,-1015.19 1317.17,-1014.27 1315.99,-1013.34 1314.97,-1012.4 1314.12,-1011.46 1313.44,-1010.52 1312.93,-1009.58 1312.61,-1008.64 1312.49,-1007.71 1312.57,-1006.79 1312.84,-1005.87 1313.33,-1004.98 1314.03,-1004.1 1314.94,-1003.24 1316.06,-1002.4 1317.4,-1001.58 1318.96,-1000.79 1320.72,-1000.03 1322.7,-999.29 1324.88,-998.59 1327.26,-997.93 1329.83,-997.3 1332.58,-996.7 1335.52,-996.15 1338.61,-995.64 1341.87,-995.16 1345.27,-994.74 1348.8,-994.35 1352.45,-994.02 1356.2,-993.72 1360.04,-993.48 1363.95,-993.28 1367.92,-993.14 1371.94,-993.04 1375.98,-992.99 1380.02,-992.99 1384.06,-993.04"/>
<text text-anchor="middle" x="1378" y="-1007.29" font-family="Times,serif" font-size="14.00">Cloudinary</text>
</a>
</g>
</g>
<!-- cloudinary&#45;&gt;website -->
<g id="edge32" class="edge">
<title>cloudinary&#45;&gt;website</title>
<path fill="none" stroke="red" d="M1374.63,-992.78C1370.75,-976.64 1363.02,-952.58 1349,-936.11 1314.24,-895.27 1263.22,-864.01 1219.16,-842.42"/>
<polygon fill="red" stroke="red" points="1220.41,-839.13 1209.88,-837.96 1217.38,-845.44 1220.41,-839.13"/>
<text text-anchor="middle" x="1414.5" y="-954.91" font-family="Times,serif" font-size="14.00">Serve images</text>
<text text-anchor="middle" x="1414.5" y="-939.91" font-family="Times,serif" font-size="14.00">to visitors</text>
</g>
<!-- knack&#45;&gt;discord -->
<g id="edge6" class="edge">
<title>knack&#45;&gt;discord</title>
<path fill="none" stroke="red" d="M1347.29,-1193.52C1435.01,-1181.98 1632,-1141.62 1632,-1011.99 1632,-1011.99 1632,-1011.99 1632,-282 1632,-242.08 1612.03,-230.13 1577,-211 1537.06,-189.19 1418.26,-197.73 1373,-193 1235.88,-178.68 1074.65,-158.28 993.79,-147.79"/>
<polygon fill="red" stroke="red" points="994.23,-144.32 983.86,-146.5 993.32,-151.26 994.23,-144.32"/>
<text text-anchor="middle" x="1668.5" y="-671.05" font-family="Times,serif" font-size="14.00">Invite link</text>
</g>
<!-- knack&#45;&gt;netlify_ci -->
<g id="edge24" class="edge">
<title>knack&#45;&gt;netlify_ci</title>
<path fill="none" stroke="black" d="M1294.41,-1215.99C1281.48,-1233.33 1259.3,-1260.98 1236,-1280.55 1206.29,-1305.51 1168.93,-1327.68 1138.11,-1343.98"/>
<polygon fill="black" stroke="black" points="1136.43,-1340.91 1129.19,-1348.63 1139.67,-1347.11 1136.43,-1340.91"/>
<text text-anchor="middle" x="1286" y="-1317.35" font-family="Times,serif" font-size="14.00">Pull member data</text>
<text text-anchor="middle" x="1286" y="-1302.35" font-family="Times,serif" font-size="14.00">during build process</text>
</g>
<!-- knack&#45;&gt;cloudinary -->
<g id="edge31" class="edge">
<title>knack&#45;&gt;cloudinary</title>
<path fill="none" stroke="black" d="M1312.64,-1180.63C1325.24,-1148.14 1352.65,-1077.4 1367.66,-1038.66"/>
<polygon fill="black" stroke="black" points="1371.02,-1039.68 1371.37,-1029.09 1364.49,-1037.15 1371.02,-1039.68"/>
<text text-anchor="middle" x="1393" y="-1087.79" font-family="Times,serif" font-size="14.00">Image</text>
<text text-anchor="middle" x="1393" y="-1072.79" font-family="Times,serif" font-size="14.00">processing</text>
</g>
<!-- roam -->
<g id="node36" class="node">
<title>roam</title>
<g id="a_node36"><a xlink:href="https://roamresearch.com/#/app/ArtOfGig/page/FEPWC0DLJ" xlink:title="Roam">
<polygon fill="none" stroke="green" points="1893.65,-787.48 1896.06,-787.58 1898.45,-787.72 1900.8,-787.92 1903.11,-788.16 1905.37,-788.46 1907.57,-788.79 1909.69,-789.18 1911.73,-789.6 1913.69,-790.08 1915.56,-790.59 1917.32,-791.14 1918.98,-791.74 1920.52,-792.37 1921.95,-793.03 1923.26,-793.73 1924.45,-794.47 1925.51,-795.23 1926.45,-796.02 1927.26,-796.84 1927.93,-797.68 1928.48,-798.54 1928.9,-799.42 1929.19,-800.31 1929.36,-801.23 1929.4,-802.15 1929.33,-803.08 1929.14,-804.02 1928.84,-804.96 1928.43,-805.9 1927.91,-806.84 1927.3,-807.78 1926.59,-808.71 1925.79,-809.63 1924.91,-810.54 1923.96,-811.44 1922.93,-812.32 1921.83,-813.18 1920.67,-814.02 1919.45,-814.84 1918.18,-815.63 1916.87,-816.39 1915.51,-817.12 1914.11,-817.82 1912.68,-818.49 1911.22,-819.12 1909.73,-819.71 1908.22,-820.27 1906.69,-820.78 1905.15,-821.25 1903.58,-821.68 1902.01,-822.06 1900.43,-822.4 1898.84,-822.69 1897.24,-822.94 1895.63,-823.13 1894.03,-823.28 1892.42,-823.38 1890.81,-823.43 1889.19,-823.43 1887.58,-823.38 1885.97,-823.28 1884.37,-823.13 1882.76,-822.94 1881.16,-822.69 1879.57,-822.4 1877.99,-822.06 1876.42,-821.68 1874.85,-821.25 1873.31,-820.78 1871.78,-820.27 1870.27,-819.71 1868.78,-819.12 1867.32,-818.49 1865.89,-817.82 1864.49,-817.12 1863.13,-816.39 1861.82,-815.63 1860.55,-814.84 1859.33,-814.02 1858.17,-813.18 1857.07,-812.32 1856.04,-811.44 1855.09,-810.54 1854.21,-809.63 1853.41,-808.71 1852.7,-807.78 1852.09,-806.84 1851.57,-805.9 1851.16,-804.96 1850.86,-804.02 1850.67,-803.08 1850.6,-802.15 1850.64,-801.23 1850.81,-800.31 1851.1,-799.42 1851.52,-798.54 1852.07,-797.68 1852.74,-796.84 1853.55,-796.02 1854.49,-795.23 1855.55,-794.47 1856.74,-793.73 1858.05,-793.03 1859.48,-792.37 1861.02,-791.74 1862.68,-791.14 1864.44,-790.59 1866.31,-790.08 1868.27,-789.6 1870.31,-789.18 1872.43,-788.79 1874.63,-788.46 1876.89,-788.16 1879.2,-787.92 1881.55,-787.72 1883.94,-787.58 1886.35,-787.48 1888.78,-787.43 1891.22,-787.43 1893.65,-787.48"/>
<text text-anchor="middle" x="1890" y="-801.73" font-family="Times,serif" font-size="14.00">Roam</text>
</a>
</g>
</g>
<!-- roam&#45;&gt;github -->
<g id="edge44" class="edge">
<title>roam&#45;&gt;github</title>
<path fill="none" stroke="black" d="M1884.14,-787.37C1874.71,-760.18 1855.37,-705.41 1837,-659.75 1821.07,-620.15 1800.86,-575.02 1788.17,-547.24"/>
<polygon fill="black" stroke="black" points="1791.21,-545.46 1783.86,-537.83 1784.84,-548.38 1791.21,-545.46"/>
<text text-anchor="middle" x="1901.5" y="-671.05" font-family="Times,serif" font-size="14.00">Nightly backup</text>
</g>
<!-- mirror -->
<g id="node37" class="node">
<title>mirror</title>
<g id="a_node37"><a xlink:href="https://roamresearch.com/#/app/ArtOfGig/page/wTZFaIrwc" xlink:title="Mirror.xyz">
<polygon fill="none" stroke="green" points="2039.83,-1355.48 2043.69,-1355.58 2047.5,-1355.73 2051.27,-1355.92 2054.96,-1356.17 2058.56,-1356.46 2062.07,-1356.8 2065.46,-1357.18 2068.73,-1357.61 2071.86,-1358.08 2074.84,-1358.59 2077.66,-1359.15 2080.31,-1359.74 2082.78,-1360.37 2085.06,-1361.04 2087.16,-1361.74 2089.06,-1362.47 2090.75,-1363.23 2092.25,-1364.02 2093.54,-1364.84 2094.62,-1365.68 2095.49,-1366.54 2096.16,-1367.42 2096.63,-1368.32 2096.9,-1369.23 2096.97,-1370.15 2096.85,-1371.08 2096.55,-1372.02 2096.06,-1372.96 2095.41,-1373.9 2094.58,-1374.84 2093.6,-1375.78 2092.47,-1376.71 2091.2,-1377.64 2089.79,-1378.55 2088.26,-1379.44 2086.62,-1380.32 2084.86,-1381.18 2083.01,-1382.02 2081.06,-1382.84 2079.04,-1383.63 2076.93,-1384.39 2074.76,-1385.13 2072.53,-1385.83 2070.24,-1386.49 2067.91,-1387.12 2065.53,-1387.72 2063.12,-1388.27 2060.68,-1388.78 2058.2,-1389.26 2055.71,-1389.68 2053.2,-1390.07 2050.66,-1390.41 2048.12,-1390.7 2045.57,-1390.94 2043,-1391.14 2040.44,-1391.28 2037.86,-1391.38 2035.29,-1391.43 2032.71,-1391.43 2030.14,-1391.38 2027.56,-1391.28 2025,-1391.14 2022.43,-1390.94 2019.88,-1390.7 2017.34,-1390.41 2014.8,-1390.07 2012.29,-1389.68 2009.8,-1389.26 2007.32,-1388.78 2004.88,-1388.27 2002.47,-1387.72 2000.09,-1387.12 1997.76,-1386.49 1995.47,-1385.83 1993.24,-1385.13 1991.07,-1384.39 1988.96,-1383.63 1986.94,-1382.84 1984.99,-1382.02 1983.14,-1381.18 1981.38,-1380.32 1979.74,-1379.44 1978.21,-1378.55 1976.8,-1377.64 1975.53,-1376.71 1974.4,-1375.78 1973.42,-1374.84 1972.59,-1373.9 1971.94,-1372.96 1971.45,-1372.02 1971.15,-1371.08 1971.03,-1370.15 1971.1,-1369.23 1971.37,-1368.32 1971.84,-1367.42 1972.51,-1366.54 1973.38,-1365.68 1974.46,-1364.84 1975.75,-1364.02 1977.25,-1363.23 1978.94,-1362.47 1980.84,-1361.74 1982.94,-1361.04 1985.22,-1360.37 1987.69,-1359.74 1990.34,-1359.15 1993.16,-1358.59 1996.14,-1358.08 1999.27,-1357.61 2002.54,-1357.18 2005.93,-1356.8 2009.44,-1356.46 2013.04,-1356.17 2016.73,-1355.92 2020.5,-1355.73 2024.31,-1355.58 2028.17,-1355.48 2032.05,-1355.43 2035.95,-1355.43 2039.83,-1355.48"/>
<text text-anchor="middle" x="2034" y="-1369.73" font-family="Times,serif" font-size="14.00">Mirror.xyz</text>
</a>
</g>
</g>
<!-- visitor -->
<g id="node38" class="node">
<title>visitor</title>
</g>
<!-- visitor&#45;&gt;website -->
<g id="edge4" class="edge">
<title>visitor&#45;&gt;website</title>
<path fill="none" stroke="red" d="M1255.56,-992.98C1239.64,-969.34 1209.79,-924.99 1183.19,-885.46"/>
<polygon fill="red" stroke="red" points="1186.06,-883.45 1177.57,-877.11 1180.25,-887.36 1186.06,-883.45"/>
<text text-anchor="middle" x="1291" y="-947.41" font-family="Times,serif" font-size="14.00">Website visitor</text>
</g>
<!-- developer -->
<g id="node39" class="node">
<title>developer</title>
</g>
<!-- developer&#45;&gt;github -->
<g id="edge21" class="edge">
<title>developer&#45;&gt;github</title>
<path fill="none" stroke="red" d="M1726.37,-787.35C1724.17,-760.13 1721.33,-705.33 1729,-659.75 1735.84,-619.06 1752.86,-574.22 1764.43,-546.8"/>
<polygon fill="red" stroke="red" points="1767.68,-548.09 1768.41,-537.53 1761.25,-545.33 1767.68,-548.09"/>
<text text-anchor="middle" x="1769" y="-671.05" font-family="Times,serif" font-size="14.00">Git commit</text>
</g>
</g>
</svg>
