<?xml version="1.0" encoding="UTF-8" standalone="no"?>
<!DOCTYPE svg PUBLIC "-//W3C//DTD SVG 1.1//EN"
 "http://www.w3.org/Graphics/SVG/1.1/DTD/svg11.dtd">
<!-- Generated by graphviz version 2.40.1 (20161225.0304)
 -->
<!-- Title: yak_infrastructure Pages: 1 -->
<svg width="1243pt" height="1413pt"
 viewBox="0.00 0.00 1242.61 1412.59" xmlns="http://www.w3.org/2000/svg" xmlns:xlink="http://www.w3.org/1999/xlink">
<g id="graph0" class="graph" transform="scale(1 1) rotate(0) translate(4 1408.5876)">
<title>yak_infrastructure</title>
<polygon fill="#ffffff" stroke="transparent" points="-4,4 -4,-1408.5876 1238.6074,-1408.5876 1238.6074,4 -4,4"/>
<text text-anchor="middle" x="617.3037" y="-1389.3876" font-family="Times,serif" font-size="14.00" fill="#000000">Yak Collective IT Infrastructure</text>
<g id="clust1" class="cluster">
<title>cluster_google</title>
<polygon fill="none" stroke="#c0c0c0" points="249,-217 249,-431.4716 982,-431.4716 982,-217 249,-217"/>
<text text-anchor="middle" x="615.5" y="-416.2716" font-family="Times,serif" font-size="14.00" fill="#000000">Google</text>
</g>
<g id="clust2" class="cluster">
<title>cluster_robot</title>
<polygon fill="none" stroke="#c0c0c0" points="257,-236.0919 257,-400.4716 637,-400.4716 637,-236.0919 257,-236.0919"/>
<text text-anchor="middle" x="447" y="-385.2716" font-family="Times,serif" font-size="14.00" fill="#000000">Yak Collective Robot</text>
</g>
<g id="clust3" class="cluster">
<title>cluster_carl</title>
<polygon fill="none" stroke="#c0c0c0" points="351,-94 351,-169 638,-169 638,-94 351,-94"/>
<text text-anchor="middle" x="494.5" y="-153.8" font-family="Times,serif" font-size="14.00" fill="#000000">Carl</text>
</g>
<g id="clust4" class="cluster">
<title>cluster_unused</title>
<polygon fill="none" stroke="#c0c0c0" points="979,-1289.7083 979,-1364.7083 1065,-1364.7083 1065,-1289.7083 979,-1289.7083"/>
<text text-anchor="middle" x="1022" y="-1349.5083" font-family="Times,serif" font-size="14.00" fill="#000000">Unused</text>
</g>
<g id="clust5" class="cluster">
<title>cluster_ifttt</title>
<polygon fill="none" stroke="#c0c0c0" points="794,-724.7214 794,-801.7214 1070,-801.7214 1070,-724.7214 794,-724.7214"/>
<text text-anchor="middle" x="932" y="-786.5214" font-family="Times,serif" font-size="14.00" fill="#000000">IFTTT</text>
</g>
<g id="clust6" class="cluster">
<title>cluster_netlify</title>
<polygon fill="none" stroke="#c0c0c0" points="254,-477.4716 254,-1373.5876 722,-1373.5876 722,-477.4716 254,-477.4716"/>
<text text-anchor="middle" x="488" y="-1358.3876" font-family="Times,serif" font-size="14.00" fill="#000000">Netlify</text>
</g>
<g id="clust7" class="cluster">
<title>cluster_cloudfront</title>
<polygon fill="none" stroke="#c0c0c0" points="382,-485.4716 382,-676.7214 714,-676.7214 714,-485.4716 382,-485.4716"/>
<text text-anchor="middle" x="548" y="-661.5214" font-family="Times,serif" font-size="14.00" fill="#000000">Amazon Cloudfront</text>
</g>
<g id="clust8" class="cluster">
<title>cluster_lambda</title>
<polygon fill="none" stroke="#c0c0c0" points="262,-543.5965 262,-618.5965 374,-618.5965 374,-543.5965 262,-543.5965"/>
<text text-anchor="middle" x="318" y="-603.3965" font-family="Times,serif" font-size="14.00" fill="#000000">Amazon Lambda</text>
</g>
<!-- google_analytics -->
<g id="node1" class="node">
<title>google_analytics</title>
<g id="a_node1"><a xlink:href="https://roamresearch.com/#/app/ArtOfGig/page/gkim0kNQ8" xlink:title="Google\nAnalytics">
<polygon fill="none" stroke="#0000ff" points="464.7575,-280.096 467.9074,-280.2425 471.0246,-280.4617 474.0966,-280.7531 477.1109,-281.1158 480.0553,-281.5489 482.9182,-282.0511 485.6886,-282.6211 488.3558,-283.2573 490.91,-283.9581 493.342,-284.7213 495.6433,-285.5451 497.8062,-286.427 499.824,-287.3647 501.6905,-288.3557 503.4007,-289.3972 504.9504,-290.4863 506.3363,-291.62 507.5558,-292.7954 508.6074,-294.009 509.4906,-295.2577 510.2054,-296.538 510.7528,-297.8463 511.1345,-299.1792 511.3533,-300.5328 511.4121,-301.9036 511.3149,-303.2878 511.0662,-304.6815 510.671,-306.081 510.1346,-307.4825 509.4631,-308.882 508.6625,-310.2757 507.7395,-311.6599 506.7007,-313.0307 505.553,-314.3843 504.3034,-315.7172 502.9588,-317.0255 501.5263,-318.3058 500.0126,-319.5545 498.4246,-320.7681 496.7688,-321.9434 495.0515,-323.0772 493.2787,-324.1663 491.4564,-325.2078 489.5898,-326.1987 487.6842,-327.1365 485.7443,-328.0184 483.7745,-328.8422 481.7788,-329.6054 479.761,-330.3061 477.7243,-330.9424 475.6717,-331.5124 473.6059,-332.0146 471.5293,-332.4477 469.4441,-332.8104 467.352,-333.1018 465.2549,-333.321 463.1543,-333.4675 461.0517,-333.5408 458.9483,-333.5408 456.8457,-333.4675 454.7451,-333.321 452.648,-333.1018 450.5559,-332.8104 448.4707,-332.4477 446.3941,-332.0146 444.3283,-331.5124 442.2757,-330.9424 440.239,-330.3061 438.2212,-329.6054 436.2255,-328.8422 434.2557,-328.0184 432.3158,-327.1365 430.4102,-326.1987 428.5436,-325.2078 426.7213,-324.1663 424.9485,-323.0772 423.2312,-321.9434 421.5754,-320.7681 419.9874,-319.5545 418.4737,-318.3058 417.0412,-317.0255 415.6966,-315.7172 414.447,-314.3843 413.2993,-313.0307 412.2605,-311.6599 411.3375,-310.2757 410.5369,-308.882 409.8654,-307.4825 409.329,-306.081 408.9338,-304.6815 408.6851,-303.2878 408.5879,-301.9036 408.6467,-300.5328 408.8655,-299.1792 409.2472,-297.8463 409.7946,-296.538 410.5094,-295.2577 411.3926,-294.009 412.4442,-292.7954 413.6637,-291.62 415.0496,-290.4863 416.5993,-289.3972 418.3095,-288.3557 420.176,-287.3647 422.1938,-286.427 424.3567,-285.5451 426.658,-284.7213 429.09,-283.9581 431.6442,-283.2573 434.3114,-282.6211 437.0818,-282.0511 439.9447,-281.5489 442.8891,-281.1158 445.9034,-280.7531 448.9754,-280.4617 452.0926,-280.2425 455.2425,-280.096 458.412,-280.0227 461.588,-280.0227 464.7575,-280.096"/>
<text text-anchor="middle" x="460" y="-310.5817" font-family="Times,serif" font-size="14.00" fill="#000000">Google</text>
<text text-anchor="middle" x="460" y="-295.5817" font-family="Times,serif" font-size="14.00" fill="#000000">Analytics</text>
</a>
</g>
</g>
<!-- google_calendar -->
<g id="node2" class="node">
<title>google_calendar</title>
<g id="a_node2"><a xlink:href="https://roamresearch.com/#/app/ArtOfGig/page/5JAKKBvdi" xlink:title="Google\nCalendar">
<ellipse fill="none" stroke="#00ff00" cx="579" cy="-306.7817" rx="45.927" ry="45.927"/>
<ellipse fill="none" stroke="#00ff00" cx="579" cy="-306.7817" rx="49.9239" ry="49.9239"/>
<text text-anchor="middle" x="579" y="-310.5817" font-family="Times,serif" font-size="14.00" fill="#000000">Google</text>
<text text-anchor="middle" x="579" y="-295.5817" font-family="Times,serif" font-size="14.00" fill="#000000">Calendar</text>
</a>
</g>
</g>
<!-- zapier -->
<g id="node6" class="node">
<title>zapier</title>
<g id="a_node6"><a xlink:href="https://roamresearch.com/#/app/ArtOfGig/page/WW4JidMuQ" xlink:title="Zapier">
<polygon fill="none" stroke="#0000ff" points="838.3298,-102.0493 840.5344,-102.1479 842.7161,-102.2953 844.8662,-102.4913 846.9759,-102.7353 849.0367,-103.0266 851.0405,-103.3645 852.9794,-103.7479 854.8462,-104.1759 856.6339,-104.6472 858.3361,-105.1606 859.9467,-105.7147 861.4606,-106.308 862.8728,-106.9388 864.1792,-107.6054 865.3762,-108.3059 866.4608,-109.0385 867.4308,-109.8012 868.2843,-110.5918 869.0204,-111.4082 869.6385,-112.2481 870.1387,-113.1093 870.5219,-113.9894 870.7891,-114.886 870.9422,-115.7965 870.9833,-116.7186 870.9153,-117.6497 870.7413,-118.5873 870.4646,-119.5287 870.0892,-120.4713 869.6192,-121.4127 869.0589,-122.3503 868.4129,-123.2814 867.6858,-124.2035 866.8826,-125.114 866.008,-126.0106 865.0669,-126.8907 864.0643,-127.7519 863.0048,-128.5918 861.8934,-129.4082 860.7345,-130.1988 859.5325,-130.9615 858.2918,-131.6941 857.0163,-132.3946 855.7099,-133.0612 854.3762,-133.692 853.0185,-134.2853 851.6398,-134.8394 850.243,-135.3528 848.8307,-135.8241 847.4052,-136.2521 845.9686,-136.6355 844.5228,-136.9734 843.0694,-137.2647 841.6099,-137.5087 840.1457,-137.7047 838.6779,-137.8521 837.2077,-137.9507 835.7361,-138 834.2639,-138 832.7923,-137.9507 831.3221,-137.8521 829.8543,-137.7047 828.3901,-137.5087 826.9306,-137.2647 825.4772,-136.9734 824.0314,-136.6355 822.5948,-136.2521 821.1693,-135.8241 819.757,-135.3528 818.3602,-134.8394 816.9815,-134.2853 815.6238,-133.692 814.2901,-133.0612 812.9837,-132.3946 811.7082,-131.6941 810.4675,-130.9615 809.2655,-130.1988 808.1066,-129.4082 806.9952,-128.5918 805.9357,-127.7519 804.9331,-126.8907 803.992,-126.0106 803.1174,-125.114 802.3142,-124.2035 801.5871,-123.2814 800.9411,-122.3503 800.3808,-121.4127 799.9108,-120.4713 799.5354,-119.5287 799.2587,-118.5873 799.0847,-117.6497 799.0167,-116.7186 799.0578,-115.7965 799.2109,-114.886 799.4781,-113.9894 799.8613,-113.1093 800.3615,-112.2481 800.9796,-111.4082 801.7157,-110.5918 802.5692,-109.8012 803.5392,-109.0385 804.6238,-108.3059 805.8208,-107.6054 807.1272,-106.9388 808.5394,-106.308 810.0533,-105.7147 811.6639,-105.1606 813.3661,-104.6472 815.1538,-104.1759 817.0206,-103.7479 818.9595,-103.3645 820.9633,-103.0266 823.0241,-102.7353 825.1338,-102.4913 827.2839,-102.2953 829.4656,-102.1479 831.6702,-102.0493 833.8885,-102 836.1115,-102 838.3298,-102.0493"/>
<text text-anchor="middle" x="835" y="-116.3" font-family="Times,serif" font-size="14.00" fill="#000000">Zapier</text>
</a>
</g>
</g>
<!-- google_calendar&#45;&gt;zapier -->
<g id="edge29" class="edge">
<title>google_calendar&#45;&gt;zapier</title>
<path fill="none" stroke="#000000" d="M596.8229,-259.6067C605.3103,-243.4697 617.148,-226.9855 633,-217 672.6644,-192.0147 694.5966,-224.7109 738,-207 770.1732,-193.8716 798.6605,-165.1744 816.3014,-144.3189"/>
<polygon fill="#000000" stroke="#000000" points="819.0949,-146.4323 822.7365,-136.4829 813.6852,-141.9898 819.0949,-146.4323"/>
<text text-anchor="middle" x="808" y="-195.8" font-family="Times,serif" font-size="14.00" fill="#000000">Pulled by</text>
<text text-anchor="middle" x="808" y="-180.8" font-family="Times,serif" font-size="14.00" fill="#000000">Zapier</text>
</g>
<!-- registration_form -->
<g id="node3" class="node">
<title>registration_form</title>
<g id="a_node3"><a xlink:href="https://roamresearch.com/#/app/ArtOfGig/page/oG9FwDcRH" xlink:title="Registration\nForm">
<ellipse fill="none" stroke="#00ff00" cx="328" cy="-306.7817" rx="58.8682" ry="58.8682"/>
<ellipse fill="none" stroke="#00ff00" cx="328" cy="-306.7817" rx="62.8803" ry="62.8803"/>
<text text-anchor="middle" x="328" y="-310.5817" font-family="Times,serif" font-size="14.00" fill="#000000">Registration</text>
<text text-anchor="middle" x="328" y="-295.5817" font-family="Times,serif" font-size="14.00" fill="#000000">Form</text>
</a>
</g>
</g>
<!-- discord -->
<g id="node10" class="node">
<title>discord</title>
<g id="a_node10"><a xlink:href="https://roamresearch.com/#/app/ArtOfGig/page/AsI1N4yGZ" xlink:title="Discord">
<polygon fill="none" stroke="#00ff00" points="513.7638,-.0493 516.2558,-.1479 518.722,-.2953 521.1524,-.4913 523.537,-.7353 525.8665,-1.0266 528.1315,-1.3645 530.3232,-1.7479 532.4333,-2.1759 534.4541,-2.6472 536.3781,-3.1606 538.1987,-3.7147 539.9099,-4.308 541.5062,-4.9388 542.9829,-5.6054 544.336,-6.3059 545.562,-7.0385 546.6584,-7.8012 547.6232,-8.5918 548.4552,-9.4082 549.1539,-10.2481 549.7194,-11.1093 550.1524,-11.9894 550.4545,-12.886 550.6275,-13.7965 550.6741,-14.7186 550.5972,-15.6497 550.4004,-16.5873 550.0877,-17.5287 549.6634,-18.4713 549.1321,-19.4127 548.4988,-20.3503 547.7685,-21.2814 546.9467,-22.2035 546.0387,-23.114 545.0501,-24.0106 543.9863,-24.8907 542.853,-25.7519 541.6555,-26.5918 540.3992,-27.4082 539.0892,-28.1988 537.7305,-28.9615 536.3281,-29.6941 534.8863,-30.3946 533.4096,-31.0612 531.902,-31.692 530.3673,-32.2853 528.8089,-32.8394 527.2301,-33.3528 525.6337,-33.8241 524.0223,-34.2521 522.3984,-34.6355 520.7641,-34.9734 519.1213,-35.2647 517.4715,-35.5087 515.8165,-35.7047 514.1574,-35.8521 512.4955,-35.9507 510.832,-36 509.168,-36 507.5045,-35.9507 505.8426,-35.8521 504.1835,-35.7047 502.5285,-35.5087 500.8787,-35.2647 499.2359,-34.9734 497.6016,-34.6355 495.9777,-34.2521 494.3663,-33.8241 492.7699,-33.3528 491.1911,-32.8394 489.6327,-32.2853 488.098,-31.692 486.5904,-31.0612 485.1137,-30.3946 483.6719,-29.6941 482.2695,-28.9615 480.9108,-28.1988 479.6008,-27.4082 478.3445,-26.5918 477.147,-25.7519 476.0137,-24.8907 474.9499,-24.0106 473.9613,-23.114 473.0533,-22.2035 472.2315,-21.2814 471.5012,-20.3503 470.8679,-19.4127 470.3366,-18.4713 469.9123,-17.5287 469.5996,-16.5873 469.4028,-15.6497 469.3259,-14.7186 469.3725,-13.7965 469.5455,-12.886 469.8476,-11.9894 470.2806,-11.1093 470.8461,-10.2481 471.5448,-9.4082 472.3768,-8.5918 473.3416,-7.8012 474.438,-7.0385 475.664,-6.3059 477.0171,-5.6054 478.4938,-4.9388 480.0901,-4.308 481.8013,-3.7147 483.6219,-3.1606 485.5459,-2.6472 487.5667,-2.1759 489.6768,-1.7479 491.8685,-1.3645 494.1335,-1.0266 496.463,-.7353 498.8476,-.4913 501.278,-.2953 503.7442,-.1479 506.2362,-.0493 508.7437,0 511.2563,0 513.7638,-.0493"/>
<text text-anchor="middle" x="510" y="-14.3" font-family="Times,serif" font-size="14.00" fill="#000000">Discord</text>
</a>
</g>
</g>
<!-- registration_form&#45;&gt;discord -->
<g id="edge6" class="edge">
<title>registration_form&#45;&gt;discord</title>
<path fill="none" stroke="#ff0000" d="M360.9041,-253.3165C371.7624,-239.5792 384.9678,-226.1202 400,-217 493.7462,-160.1233 552.0489,-231.7065 642,-169 678.33,-143.6738 681.9949,-126.6282 694,-84 697.6144,-71.1659 702.4747,-64.2935 694,-54 677.1958,-33.5894 607.6291,-24.5864 559.0274,-20.732"/>
<polygon fill="#ff0000" stroke="#ff0000" points="559.2334,-17.2377 549.001,-19.9854 558.7135,-24.2184 559.2334,-17.2377"/>
<text text-anchor="middle" x="718.5" y="-116.3" font-family="Times,serif" font-size="14.00" fill="#000000">Invite link</text>
</g>
<!-- reboot_deck -->
<g id="node4" class="node">
<title>reboot_deck</title>
<g id="a_node4"><a xlink:href="https://roamresearch.com/#/app/ArtOfGig/page/s7km8fEQp" xlink:title="&quot;Don&#39;t Waste the\nReboot&quot; deck">
<ellipse fill="none" stroke="#00ff00" cx="729" cy="-306.7817" rx="77.5747" ry="77.5747"/>
<ellipse fill="none" stroke="#00ff00" cx="729" cy="-306.7817" rx="81.5641" ry="81.5641"/>
<text text-anchor="middle" x="729" y="-310.5817" font-family="Times,serif" font-size="14.00" fill="#000000">&quot;Don&#39;t Waste the</text>
<text text-anchor="middle" x="729" y="-295.5817" font-family="Times,serif" font-size="14.00" fill="#000000">Reboot&quot; deck</text>
</a>
</g>
</g>
<!-- home_deck -->
<g id="node5" class="node">
<title>home_deck</title>
<g id="a_node5"><a xlink:href="https://roamresearch.com/#/app/ArtOfGig/page/sGxc8YzrD" xlink:title="&quot;The New Old\nHome&quot; deck">
<ellipse fill="none" stroke="#00ff00" cx="901" cy="-306.7817" rx="68.6739" ry="68.6739"/>
<ellipse fill="none" stroke="#00ff00" cx="901" cy="-306.7817" rx="72.6788" ry="72.6788"/>
<text text-anchor="middle" x="901" y="-310.5817" font-family="Times,serif" font-size="14.00" fill="#000000">&quot;The New Old</text>
<text text-anchor="middle" x="901" y="-295.5817" font-family="Times,serif" font-size="14.00" fill="#000000">Home&quot; deck</text>
</a>
</g>
</g>
<!-- zapier&#45;&gt;discord -->
<g id="edge30" class="edge">
<title>zapier&#45;&gt;discord</title>
<path fill="none" stroke="#000000" d="M816.3935,-103.5981C797.8585,-88.2122 767.9223,-65.8484 738,-54 706.081,-41.3609 614.7579,-29.5143 557.8445,-23.0609"/>
<polygon fill="#000000" stroke="#000000" points="557.9671,-19.5529 547.64,-21.9197 557.189,-26.5095 557.9671,-19.5529"/>
<text text-anchor="middle" x="811" y="-72.8" font-family="Times,serif" font-size="14.00" fill="#000000">Post in</text>
<text text-anchor="middle" x="811" y="-57.8" font-family="Times,serif" font-size="14.00" fill="#000000">#events</text>
</g>
<!-- twitter -->
<g id="node13" class="node">
<title>twitter</title>
<g id="a_node13"><a xlink:href="https://roamresearch.com/#/app/ArtOfGig/page/ssp9sORuP" xlink:title="Twitter">
<polygon fill="none" stroke="#00ff00" points="943.5647,-.0493 945.9248,-.1479 948.2605,-.2953 950.5623,-.4913 952.8208,-.7353 955.027,-1.0266 957.1721,-1.3645 959.2479,-1.7479 961.2464,-2.1759 963.1602,-2.6472 964.9824,-3.1606 966.7068,-3.7147 968.3274,-4.308 969.8392,-4.9388 971.2378,-5.6054 972.5192,-6.3059 973.6804,-7.0385 974.7188,-7.8012 975.6325,-8.5918 976.4205,-9.4082 977.0822,-10.2481 977.6178,-11.1093 978.028,-11.9894 978.314,-12.886 978.4779,-13.7965 978.522,-14.7186 978.4492,-15.6497 978.2629,-16.5873 977.9667,-17.5287 977.5648,-18.4713 977.0616,-19.4127 976.4618,-20.3503 975.7702,-21.2814 974.9918,-22.2035 974.1319,-23.114 973.1956,-24.0106 972.1881,-24.8907 971.1148,-25.7519 969.9806,-26.5918 968.7907,-27.4082 967.5501,-28.1988 966.2633,-28.9615 964.9351,-29.6941 963.5696,-30.3946 962.171,-31.0612 960.7432,-31.692 959.2897,-32.2853 957.8137,-32.8394 956.3184,-33.3528 954.8065,-33.8241 953.2804,-34.2521 951.7424,-34.6355 950.1946,-34.9734 948.6387,-35.2647 947.0762,-35.5087 945.5087,-35.7047 943.9374,-35.8521 942.3635,-35.9507 940.788,-36 939.212,-36 937.6365,-35.9507 936.0626,-35.8521 934.4913,-35.7047 932.9238,-35.5087 931.3613,-35.2647 929.8054,-34.9734 928.2576,-34.6355 926.7196,-34.2521 925.1935,-33.8241 923.6816,-33.3528 922.1863,-32.8394 920.7103,-32.2853 919.2568,-31.692 917.829,-31.0612 916.4304,-30.3946 915.0649,-29.6941 913.7367,-28.9615 912.4499,-28.1988 911.2093,-27.4082 910.0194,-26.5918 908.8852,-25.7519 907.8119,-24.8907 906.8044,-24.0106 905.8681,-23.114 905.0082,-22.2035 904.2298,-21.2814 903.5382,-20.3503 902.9384,-19.4127 902.4352,-18.4713 902.0333,-17.5287 901.7371,-16.5873 901.5508,-15.6497 901.478,-14.7186 901.5221,-13.7965 901.686,-12.886 901.972,-11.9894 902.3822,-11.1093 902.9178,-10.2481 903.5795,-9.4082 904.3675,-8.5918 905.2812,-7.8012 906.3196,-7.0385 907.4808,-6.3059 908.7622,-5.6054 910.1608,-4.9388 911.6726,-4.308 913.2932,-3.7147 915.0176,-3.1606 916.8398,-2.6472 918.7536,-2.1759 920.7521,-1.7479 922.8279,-1.3645 924.973,-1.0266 927.1792,-.7353 929.4377,-.4913 931.7395,-.2953 934.0752,-.1479 936.4353,-.0493 938.8101,0 941.1899,0 943.5647,-.0493"/>
<text text-anchor="middle" x="940" y="-14.3" font-family="Times,serif" font-size="14.00" fill="#000000">Twitter</text>
</a>
</g>
</g>
<!-- zapier&#45;&gt;twitter -->
<g id="edge31" class="edge">
<title>zapier&#45;&gt;twitter</title>
<path fill="none" stroke="#000000" d="M852.3386,-103.1568C869.9249,-86.0729 897.2533,-59.5254 916.7186,-40.6162"/>
<polygon fill="#000000" stroke="#000000" points="919.2794,-43.0081 924.0135,-33.5297 914.4019,-37.9871 919.2794,-43.0081"/>
<text text-anchor="middle" x="933" y="-72.8" font-family="Times,serif" font-size="14.00" fill="#000000">Tweet about</text>
<text text-anchor="middle" x="933" y="-57.8" font-family="Times,serif" font-size="14.00" fill="#000000">new content</text>
</g>
<!-- calendar_yak -->
<g id="node7" class="node">
<title>calendar_yak</title>
<g id="a_node7"><a xlink:href="https://roamresearch.com/#/app/ArtOfGig/page/4lz1jh2sn" xlink:title="calendar_yak">
<polygon fill="none" stroke="#0000ff" points="630.5,-138 541.5,-138 541.5,-102 630.5,-102 630.5,-138"/>
<text text-anchor="middle" x="586" y="-116.3" font-family="Times,serif" font-size="14.00" fill="#000000">calendar_yak</text>
</a>
</g>
</g>
<!-- welcome_bot -->
<g id="node8" class="node">
<title>welcome_bot</title>
<g id="a_node8"><a xlink:href="https://roamresearch.com/#/app/ArtOfGig/page/S_Xkw1vVi" xlink:title="welcome_bot">
<polygon fill="none" stroke="#0000ff" points="449,-138 359,-138 359,-102 449,-102 449,-138"/>
<text text-anchor="middle" x="404" y="-116.3" font-family="Times,serif" font-size="14.00" fill="#000000">welcome_bot</text>
</a>
</g>
</g>
<!-- welcome_bot&#45;&gt;discord -->
<g id="edge9" class="edge">
<title>welcome_bot&#45;&gt;discord</title>
<path fill="none" stroke="#000000" d="M358.9698,-112.2465C328.8789,-106.0426 293.1859,-96.3461 284,-84 276.0409,-73.3028 275.3452,-64.1426 284,-54 295.4209,-40.6159 399.2434,-28.5175 462.1251,-22.3337"/>
<polygon fill="#000000" stroke="#000000" points="462.6069,-25.8035 472.2234,-21.3567 461.9328,-18.8361 462.6069,-25.8035"/>
<text text-anchor="middle" x="336" y="-72.8" font-family="Times,serif" font-size="14.00" fill="#000000">Welcome message</text>
<text text-anchor="middle" x="336" y="-57.8" font-family="Times,serif" font-size="14.00" fill="#000000">series</text>
</g>
<!-- yakyak -->
<g id="node9" class="node">
<title>yakyak</title>
<g id="a_node9"><a xlink:href="https://roamresearch.com/#/app/ArtOfGig/page/Q1LoZ_dE4" xlink:title="yakyak">
<polygon fill="none" stroke="#0000ff" points="523,-138 467,-138 467,-102 523,-102 523,-138"/>
<text text-anchor="middle" x="495" y="-116.3" font-family="Times,serif" font-size="14.00" fill="#000000">yakyak</text>
</a>
</g>
</g>
<!-- yakyak&#45;&gt;discord -->
<g id="edge10" class="edge">
<title>yakyak&#45;&gt;discord</title>
<path fill="none" stroke="#000000" d="M517.7652,-101.9653C522.5752,-98.8769 527.7811,-96.0184 533,-94 548.0661,-88.1733 594.3924,-96.1827 605,-84 613.7556,-73.9443 612.5756,-64.9721 605,-54 598.5402,-44.6441 574.4934,-35.5814 552.2116,-28.8893"/>
<polygon fill="#000000" stroke="#000000" points="553.077,-25.4962 542.4983,-26.0809 551.1326,-32.2208 553.077,-25.4962"/>
<text text-anchor="middle" x="650.5" y="-72.8" font-family="Times,serif" font-size="14.00" fill="#000000">Prune inactive</text>
<text text-anchor="middle" x="650.5" y="-57.8" font-family="Times,serif" font-size="14.00" fill="#000000">users</text>
</g>
<!-- discord&#45;&gt;welcome_bot -->
<g id="edge7" class="edge">
<title>discord&#45;&gt;welcome_bot</title>
<path fill="none" stroke="#000000" d="M475.5461,-24.5818C446.4777,-30.9176 408.1725,-41.3823 399,-54 391.1626,-64.7812 391.4538,-79.342 394.1166,-92.0441"/>
<polygon fill="#000000" stroke="#000000" points="390.7323,-92.9369 396.6505,-101.7247 397.5042,-91.1643 390.7323,-92.9369"/>
<text text-anchor="middle" x="447.5" y="-72.8" font-family="Times,serif" font-size="14.00" fill="#000000">New user</text>
<text text-anchor="middle" x="447.5" y="-57.8" font-family="Times,serif" font-size="14.00" fill="#000000">notification / data</text>
</g>
<!-- discord&#45;&gt;yakyak -->
<g id="edge8" class="edge">
<title>discord&#45;&gt;yakyak</title>
<path fill="none" stroke="#000000" d="M507.3415,-36.0777C505.0768,-51.4776 501.7836,-73.8717 499.1685,-91.6541"/>
<polygon fill="#000000" stroke="#000000" points="495.674,-91.3616 497.6817,-101.7644 502.5995,-92.3801 495.674,-91.3616"/>
<text text-anchor="middle" x="552.5" y="-72.8" font-family="Times,serif" font-size="14.00" fill="#000000">New user</text>
<text text-anchor="middle" x="552.5" y="-57.8" font-family="Times,serif" font-size="14.00" fill="#000000">notification / data</text>
</g>
<!-- substack -->
<g id="node11" class="node">
<title>substack</title>
<g id="a_node11"><a xlink:href="https://roamresearch.com/#/app/ArtOfGig/page/kMaCo6Xc-" xlink:title="Substack">
<polygon fill="none" stroke="#00ff00" points="798.1622,-908.8246 800.9179,-908.9231 803.6452,-909.0706 806.3328,-909.2666 808.9699,-909.5105 811.5459,-909.8019 814.0506,-910.1397 816.4743,-910.5231 818.8078,-910.9511 821.0424,-911.4224 823.1701,-911.9359 825.1834,-912.49 827.0757,-913.0832 828.841,-913.714 830.474,-914.3806 831.9702,-915.0811 833.326,-915.8138 834.5384,-916.5764 835.6054,-917.367 836.5255,-918.1834 837.2981,-919.0234 837.9234,-919.8846 838.4023,-920.7646 838.7364,-921.6612 838.9277,-922.5718 838.9792,-923.4939 838.8942,-924.4249 838.6766,-925.3625 838.3308,-926.3039 837.8616,-927.2466 837.274,-928.188 836.5737,-929.1255 835.7661,-930.0566 834.8573,-930.9787 833.8532,-931.8892 832.7599,-932.7858 831.5836,-933.6659 830.3303,-934.5271 829.0061,-935.367 827.6167,-936.1834 826.1681,-936.974 824.6657,-937.7367 823.1148,-938.4693 821.5204,-939.1698 819.8874,-939.8364 818.2203,-940.4672 816.5231,-941.0605 814.7997,-941.6146 813.0538,-942.128 811.2884,-942.5993 809.5065,-943.0273 807.7108,-943.4107 805.9035,-943.7486 804.0867,-944.0399 802.2624,-944.2839 800.4321,-944.4799 798.5974,-944.6273 796.7596,-944.7259 794.9201,-944.7752 793.0799,-944.7752 791.2404,-944.7259 789.4026,-944.6273 787.5679,-944.4799 785.7376,-944.2839 783.9133,-944.0399 782.0965,-943.7486 780.2892,-943.4107 778.4935,-943.0273 776.7116,-942.5993 774.9462,-942.128 773.2003,-941.6146 771.4769,-941.0605 769.7797,-940.4672 768.1126,-939.8364 766.4796,-939.1698 764.8852,-938.4693 763.3343,-937.7367 761.8319,-936.974 760.3833,-936.1834 758.9939,-935.367 757.6697,-934.5271 756.4164,-933.6659 755.2401,-932.7858 754.1468,-931.8892 753.1427,-930.9787 752.2339,-930.0566 751.4263,-929.1255 750.726,-928.188 750.1384,-927.2466 749.6692,-926.3039 749.3234,-925.3625 749.1058,-924.4249 749.0208,-923.4939 749.0723,-922.5718 749.2636,-921.6612 749.5977,-920.7646 750.0766,-919.8846 750.7019,-919.0234 751.4745,-918.1834 752.3946,-917.367 753.4616,-916.5764 754.674,-915.8138 756.0298,-915.0811 757.526,-914.3806 759.159,-913.714 760.9243,-913.0832 762.8166,-912.49 764.8299,-911.9359 766.9576,-911.4224 769.1922,-910.9511 771.5257,-910.5231 773.9494,-910.1397 776.4541,-909.8019 779.0301,-909.5105 781.6672,-909.2666 784.3548,-909.0706 787.0821,-908.9231 789.8378,-908.8246 792.6107,-908.7752 795.3893,-908.7752 798.1622,-908.8246"/>
<text text-anchor="middle" x="794" y="-923.0752" font-family="Times,serif" font-size="14.00" fill="#000000">Substack</text>
</a>
</g>
</g>
<!-- rss_applet -->
<g id="node17" class="node">
<title>rss_applet</title>
<g id="a_node17"><a xlink:href="https://roamresearch.com/#/app/ArtOfGig/page/ucCeiIsih" xlink:title="create&#45;post\nApplets">
<polygon fill="none" stroke="#0000ff" points="878,-770.7214 802,-770.7214 802,-732.7214 878,-732.7214 878,-770.7214"/>
<text text-anchor="middle" x="840" y="-755.5214" font-family="Times,serif" font-size="14.00" fill="#000000">create&#45;post</text>
<text text-anchor="middle" x="840" y="-740.5214" font-family="Times,serif" font-size="14.00" fill="#000000">Applets</text>
</a>
</g>
</g>
<!-- substack&#45;&gt;rss_applet -->
<g id="edge20" class="edge">
<title>substack&#45;&gt;rss_applet</title>
<path fill="none" stroke="#ff0000" d="M779.2364,-909.4545C760.1312,-884.8547 731.9837,-839.4853 756,-809.7214 766.5651,-796.6278 778.3547,-810.0026 793,-801.7214 803.1631,-795.9747 812.4327,-787.3005 820.0035,-778.7824"/>
<polygon fill="#ff0000" stroke="#ff0000" points="822.7096,-781.0025 826.4557,-771.092 817.347,-776.5033 822.7096,-781.0025"/>
<text text-anchor="middle" x="783.5" y="-828.5214" font-family="Times,serif" font-size="14.00" fill="#000000">Pulled</text>
<text text-anchor="middle" x="783.5" y="-813.5214" font-family="Times,serif" font-size="14.00" fill="#000000">by IFTTT</text>
</g>
<!-- twitter_applets -->
<g id="node18" class="node">
<title>twitter_applets</title>
<g id="a_node18"><a xlink:href="https://roamresearch.com/#/app/ArtOfGig/page/j7DInC9sg" xlink:title="Twitter\nApplets">
<polygon fill="none" stroke="#0000ff" points="955.5,-770.7214 896.5,-770.7214 896.5,-732.7214 955.5,-732.7214 955.5,-770.7214"/>
<text text-anchor="middle" x="926" y="-755.5214" font-family="Times,serif" font-size="14.00" fill="#000000">Twitter</text>
<text text-anchor="middle" x="926" y="-740.5214" font-family="Times,serif" font-size="14.00" fill="#000000">Applets</text>
</a>
</g>
</g>
<!-- substack&#45;&gt;twitter_applets -->
<g id="edge25" class="edge">
<title>substack&#45;&gt;twitter_applets</title>
<path fill="none" stroke="#ff0000" d="M813.4873,-909.722C839.5787,-886.7683 883.2685,-847.8608 889,-839.7214 901.7419,-821.6263 911.2582,-798.465 917.4471,-780.4462"/>
<polygon fill="#ff0000" stroke="#ff0000" points="920.83,-781.3624 920.6239,-770.7696 914.1792,-779.1789 920.83,-781.3624"/>
<text text-anchor="middle" x="932.5" y="-828.5214" font-family="Times,serif" font-size="14.00" fill="#000000">Pulled</text>
<text text-anchor="middle" x="932.5" y="-813.5214" font-family="Times,serif" font-size="14.00" fill="#000000">by IFTTT</text>
</g>
<!-- member_feeds -->
<g id="node12" class="node">
<title>member_feeds</title>
<g id="a_node12"><a xlink:href="https://roamresearch.com/#/app/ArtOfGig/page/RLF445t5m" xlink:title="Member RSS\nFeeds">
<ellipse fill="none" stroke="#00ff00" cx="950" cy="-926.7752" rx="65.1046" ry="65.1046"/>
<ellipse fill="none" stroke="#00ff00" cx="950" cy="-926.7752" rx="69.1077" ry="69.1077"/>
<text text-anchor="middle" x="950" y="-930.5752" font-family="Times,serif" font-size="14.00" fill="#000000">Member RSS</text>
<text text-anchor="middle" x="950" y="-915.5752" font-family="Times,serif" font-size="14.00" fill="#000000">Feeds</text>
</a>
</g>
</g>
<!-- member_feeds&#45;&gt;rss_applet -->
<g id="edge21" class="edge">
<title>member_feeds&#45;&gt;rss_applet</title>
<path fill="none" stroke="#ff0000" d="M891.3273,-889.9607C866.0199,-872.7093 840.6699,-853.0661 834,-839.7214 824.9576,-821.6299 826.8428,-798.7821 830.7868,-780.9015"/>
<polygon fill="#ff0000" stroke="#ff0000" points="834.2268,-781.5736 833.2798,-771.0212 827.4395,-779.861 834.2268,-781.5736"/>
<text text-anchor="middle" x="861.5" y="-828.5214" font-family="Times,serif" font-size="14.00" fill="#000000">Pulled</text>
<text text-anchor="middle" x="861.5" y="-813.5214" font-family="Times,serif" font-size="14.00" fill="#000000">by IFTTT</text>
</g>
<!-- member_feeds&#45;&gt;twitter_applets -->
<g id="edge26" class="edge">
<title>member_feeds&#45;&gt;twitter_applets</title>
<path fill="none" stroke="#ff0000" d="M969.911,-860.6045C972.1887,-843.7633 972.1305,-825.8673 967,-809.7214 963.5118,-798.7441 957.1108,-788.0558 950.387,-778.9071"/>
<polygon fill="#ff0000" stroke="#ff0000" points="953.1073,-776.7039 944.1955,-770.9739 947.5889,-781.0107 953.1073,-776.7039"/>
<text text-anchor="middle" x="998.5" y="-828.5214" font-family="Times,serif" font-size="14.00" fill="#000000">Pulled</text>
<text text-anchor="middle" x="998.5" y="-813.5214" font-family="Times,serif" font-size="14.00" fill="#000000">by IFTTT</text>
</g>
<!-- facebook -->
<g id="node14" class="node">
<title>facebook</title>
<g id="a_node14"><a xlink:href="https://roamresearch.com/#/app/ArtOfGig/page/WZKSWTGz5" xlink:title="Facebook">
<polygon fill="none" stroke="#00ff00" points="802.3971,-1297.7576 805.3084,-1297.8562 808.1895,-1298.0037 811.0288,-1298.1997 813.8147,-1298.4436 816.536,-1298.7349 819.1821,-1299.0728 821.7426,-1299.4562 824.2078,-1299.8842 826.5685,-1300.3555 828.8163,-1300.869 830.9433,-1301.4231 832.9424,-1302.0163 834.8072,-1302.6471 836.5324,-1303.3137 838.1131,-1304.0142 839.5454,-1304.7468 840.8262,-1305.5095 841.9534,-1306.3001 842.9254,-1307.1165 843.7416,-1307.9565 844.4022,-1308.8176 844.9082,-1309.6977 845.261,-1310.5943 845.4632,-1311.5049 845.5176,-1312.4269 845.4278,-1313.358 845.1979,-1314.2956 844.8326,-1315.237 844.3369,-1316.1797 843.7162,-1317.1211 842.9763,-1318.0586 842.1232,-1318.9897 841.1631,-1319.9118 840.1023,-1320.8223 838.9474,-1321.7189 837.7046,-1322.599 836.3806,-1323.4602 834.9816,-1324.3001 833.5139,-1325.1165 831.9835,-1325.9071 830.3963,-1326.6698 828.7578,-1327.4024 827.0735,-1328.1029 825.3484,-1328.7695 823.5871,-1329.4003 821.7942,-1329.9936 819.9736,-1330.5477 818.1291,-1331.0611 816.2641,-1331.5324 814.3816,-1331.9604 812.4845,-1332.3438 810.5752,-1332.6817 808.656,-1332.973 806.7287,-1333.217 804.7951,-1333.413 802.8569,-1333.5604 800.9154,-1333.659 798.972,-1333.7083 797.028,-1333.7083 795.0846,-1333.659 793.1431,-1333.5604 791.2049,-1333.413 789.2713,-1333.217 787.344,-1332.973 785.4248,-1332.6817 783.5155,-1332.3438 781.6184,-1331.9604 779.7359,-1331.5324 777.8709,-1331.0611 776.0264,-1330.5477 774.2058,-1329.9936 772.4129,-1329.4003 770.6516,-1328.7695 768.9265,-1328.1029 767.2422,-1327.4024 765.6037,-1326.6698 764.0165,-1325.9071 762.4861,-1325.1165 761.0184,-1324.3001 759.6194,-1323.4602 758.2954,-1322.599 757.0526,-1321.7189 755.8977,-1320.8223 754.8369,-1319.9118 753.8768,-1318.9897 753.0237,-1318.0586 752.2838,-1317.1211 751.6631,-1316.1797 751.1674,-1315.237 750.8021,-1314.2956 750.5722,-1313.358 750.4824,-1312.4269 750.5368,-1311.5049 750.739,-1310.5943 751.0918,-1309.6977 751.5978,-1308.8176 752.2584,-1307.9565 753.0746,-1307.1165 754.0466,-1306.3001 755.1738,-1305.5095 756.4546,-1304.7468 757.8869,-1304.0142 759.4676,-1303.3137 761.1928,-1302.6471 763.0576,-1302.0163 765.0567,-1301.4231 767.1837,-1300.869 769.4315,-1300.3555 771.7922,-1299.8842 774.2574,-1299.4562 776.8179,-1299.0728 779.464,-1298.7349 782.1853,-1298.4436 784.9712,-1298.1997 787.8105,-1298.0037 790.6916,-1297.8562 793.6029,-1297.7576 796.5323,-1297.7083 799.4677,-1297.7083 802.3971,-1297.7576"/>
<text text-anchor="middle" x="798" y="-1312.0083" font-family="Times,serif" font-size="14.00" fill="#000000">Facebook</text>
</a>
</g>
</g>
<!-- linkedin -->
<g id="node15" class="node">
<title>linkedin</title>
<g id="a_node15"><a xlink:href="https://roamresearch.com/#/app/ArtOfGig/page/M17w4lZJB" xlink:title="LinkedIn">
<polygon fill="none" stroke="#00ff00" points="923.2441,-1297.7576 926.0541,-1297.8562 928.835,-1298.0037 931.5754,-1298.1997 934.2644,-1298.4436 936.8911,-1298.7349 939.4451,-1299.0728 941.9165,-1299.4562 944.2959,-1299.8842 946.5745,-1300.3555 948.744,-1300.869 950.797,-1301.4231 952.7265,-1302.0163 954.5265,-1302.6471 956.1917,-1303.3137 957.7173,-1304.0142 959.0998,-1304.7468 960.3361,-1305.5095 961.424,-1306.3001 962.3622,-1307.1165 963.15,-1307.9565 963.7877,-1308.8176 964.276,-1309.6977 964.6166,-1310.5943 964.8117,-1311.5049 964.8642,-1312.4269 964.7775,-1313.358 964.5557,-1314.2956 964.2031,-1315.237 963.7246,-1316.1797 963.1255,-1317.1211 962.4113,-1318.0586 961.5879,-1318.9897 960.6612,-1319.9118 959.6374,-1320.8223 958.5226,-1321.7189 957.3231,-1322.599 956.0452,-1323.4602 954.6948,-1324.3001 953.2782,-1325.1165 951.801,-1325.9071 950.2691,-1326.6698 948.6876,-1327.4024 947.0619,-1328.1029 945.3968,-1328.7695 943.6968,-1329.4003 941.9662,-1329.9936 940.209,-1330.5477 938.4287,-1331.0611 936.6286,-1331.5324 934.8116,-1331.9604 932.9805,-1332.3438 931.1377,-1332.6817 929.2852,-1332.973 927.4249,-1333.217 925.5587,-1333.413 923.6879,-1333.5604 921.8139,-1333.659 919.9382,-1333.7083 918.0618,-1333.7083 916.1861,-1333.659 914.3121,-1333.5604 912.4413,-1333.413 910.5751,-1333.217 908.7148,-1332.973 906.8623,-1332.6817 905.0195,-1332.3438 903.1884,-1331.9604 901.3714,-1331.5324 899.5713,-1331.0611 897.791,-1330.5477 896.0338,-1329.9936 894.3032,-1329.4003 892.6032,-1328.7695 890.9381,-1328.1029 889.3124,-1327.4024 887.7309,-1326.6698 886.199,-1325.9071 884.7218,-1325.1165 883.3052,-1324.3001 881.9548,-1323.4602 880.6769,-1322.599 879.4774,-1321.7189 878.3626,-1320.8223 877.3388,-1319.9118 876.4121,-1318.9897 875.5887,-1318.0586 874.8745,-1317.1211 874.2754,-1316.1797 873.7969,-1315.237 873.4443,-1314.2956 873.2225,-1313.358 873.1358,-1312.4269 873.1883,-1311.5049 873.3834,-1310.5943 873.724,-1309.6977 874.2123,-1308.8176 874.85,-1307.9565 875.6378,-1307.1165 876.576,-1306.3001 877.6639,-1305.5095 878.9002,-1304.7468 880.2827,-1304.0142 881.8083,-1303.3137 883.4735,-1302.6471 885.2735,-1302.0163 887.203,-1301.4231 889.256,-1300.869 891.4255,-1300.3555 893.7041,-1299.8842 896.0835,-1299.4562 898.5549,-1299.0728 901.1089,-1298.7349 903.7356,-1298.4436 906.4246,-1298.1997 909.165,-1298.0037 911.9459,-1297.8562 914.7559,-1297.7576 917.5833,-1297.7083 920.4167,-1297.7083 923.2441,-1297.7576"/>
<text text-anchor="middle" x="919" y="-1312.0083" font-family="Times,serif" font-size="14.00" fill="#000000">LinkedIn</text>
</a>
</g>
</g>
<!-- glitch -->
<g id="node16" class="node">
<title>glitch</title>
<g id="a_node16"><a xlink:href="https://roamresearch.com/#/app/ArtOfGig/page/bTxU0ABQS" xlink:title="Glitch">
<polygon fill="none" stroke="#0000ff" points="1025.2124,-1297.7576 1027.3393,-1297.8562 1029.4442,-1298.0037 1031.5185,-1298.1997 1033.5538,-1298.4436 1035.5419,-1298.7349 1037.4751,-1299.0728 1039.3457,-1299.4562 1041.1467,-1299.8842 1042.8714,-1300.3555 1044.5136,-1300.869 1046.0675,-1301.4231 1047.528,-1302.0163 1048.8904,-1302.6471 1050.1507,-1303.3137 1051.3056,-1304.0142 1052.352,-1304.7468 1053.2877,-1305.5095 1054.1112,-1306.3001 1054.8213,-1307.1165 1055.4176,-1307.9565 1055.9003,-1308.8176 1056.2699,-1309.6977 1056.5277,-1310.5943 1056.6754,-1311.5049 1056.7151,-1312.4269 1056.6495,-1313.358 1056.4816,-1314.2956 1056.2147,-1315.237 1055.8525,-1316.1797 1055.399,-1317.1211 1054.8585,-1318.0586 1054.2352,-1318.9897 1053.5338,-1319.9118 1052.7588,-1320.8223 1051.9151,-1321.7189 1051.0072,-1322.599 1050.0399,-1323.4602 1049.0178,-1324.3001 1047.9455,-1325.1165 1046.8275,-1325.9071 1045.6679,-1326.6698 1044.4709,-1327.4024 1043.2404,-1328.1029 1041.98,-1328.7695 1040.6933,-1329.4003 1039.3834,-1329.9936 1038.0533,-1330.5477 1036.7058,-1331.0611 1035.3432,-1331.5324 1033.968,-1331.9604 1032.582,-1332.3438 1031.1871,-1332.6817 1029.785,-1332.973 1028.3769,-1333.217 1026.9643,-1333.413 1025.5483,-1333.5604 1024.1299,-1333.659 1022.7101,-1333.7083 1021.2899,-1333.7083 1019.8701,-1333.659 1018.4517,-1333.5604 1017.0357,-1333.413 1015.6231,-1333.217 1014.215,-1332.973 1012.8129,-1332.6817 1011.418,-1332.3438 1010.032,-1331.9604 1008.6568,-1331.5324 1007.2942,-1331.0611 1005.9467,-1330.5477 1004.6166,-1329.9936 1003.3067,-1329.4003 1002.02,-1328.7695 1000.7596,-1328.1029 999.5291,-1327.4024 998.3321,-1326.6698 997.1725,-1325.9071 996.0545,-1325.1165 994.9822,-1324.3001 993.9601,-1323.4602 992.9928,-1322.599 992.0849,-1321.7189 991.2412,-1320.8223 990.4662,-1319.9118 989.7648,-1318.9897 989.1415,-1318.0586 988.601,-1317.1211 988.1475,-1316.1797 987.7853,-1315.237 987.5184,-1314.2956 987.3505,-1313.358 987.2849,-1312.4269 987.3246,-1311.5049 987.4723,-1310.5943 987.7301,-1309.6977 988.0997,-1308.8176 988.5824,-1307.9565 989.1787,-1307.1165 989.8888,-1306.3001 990.7123,-1305.5095 991.648,-1304.7468 992.6944,-1304.0142 993.8493,-1303.3137 995.1096,-1302.6471 996.472,-1302.0163 997.9325,-1301.4231 999.4864,-1300.869 1001.1286,-1300.3555 1002.8533,-1299.8842 1004.6543,-1299.4562 1006.5249,-1299.0728 1008.4581,-1298.7349 1010.4462,-1298.4436 1012.4815,-1298.1997 1014.5558,-1298.0037 1016.6607,-1297.8562 1018.7876,-1297.7576 1020.9277,-1297.7083 1023.0723,-1297.7083 1025.2124,-1297.7576"/>
<text text-anchor="middle" x="1022" y="-1312.0083" font-family="Times,serif" font-size="14.00" fill="#000000">Glitch</text>
</a>
</g>
</g>
<!-- create_post -->
<g id="node26" class="node">
<title>create_post</title>
<g id="a_node26"><a xlink:href="https://roamresearch.com/#/app/ArtOfGig/page/wDK81GyfO" xlink:title="create&#45;post">
<polygon fill="none" stroke="#0000ff" points="356,-587.5965 280,-587.5965 280,-551.5965 356,-551.5965 356,-587.5965"/>
<text text-anchor="middle" x="318" y="-565.8965" font-family="Times,serif" font-size="14.00" fill="#000000">create&#45;post</text>
</a>
</g>
</g>
<!-- rss_applet&#45;&gt;create_post -->
<g id="edge22" class="edge">
<title>rss_applet&#45;&gt;create_post</title>
<path fill="none" stroke="#000000" d="M811.5993,-732.7153C805.6702,-729.5311 799.301,-726.642 793,-724.7214 762.7408,-715.4979 678.6976,-730.0032 651,-714.7214 636.523,-706.7339 643.6278,-692.4292 629,-684.7214 604.3143,-671.7139 401.8455,-691.2119 378,-676.7214 349.5007,-659.4029 333.4264,-623.2446 325.2343,-597.7408"/>
<polygon fill="#000000" stroke="#000000" points="328.5046,-596.4605 322.2852,-587.8832 321.7983,-598.4668 328.5046,-596.4605"/>
<text text-anchor="middle" x="689.5" y="-703.5214" font-family="Times,serif" font-size="14.00" fill="#000000">RSS post data</text>
<text text-anchor="middle" x="689.5" y="-688.5214" font-family="Times,serif" font-size="14.00" fill="#000000">to webhook</text>
</g>
<!-- twitter_applets&#45;&gt;twitter -->
<g id="edge28" class="edge">
<title>twitter_applets&#45;&gt;twitter</title>
<path fill="none" stroke="#000000" d="M941.6029,-732.5877C965.8951,-700.7983 1010,-634.1875 1010,-569.5965 1010,-569.5965 1010,-569.5965 1010,-120 1010,-87.9569 986.2246,-58.6186 966.3861,-39.7159"/>
<polygon fill="#000000" stroke="#000000" points="968.5054,-36.9117 958.7587,-32.758 963.7878,-42.0832 968.5054,-36.9117"/>
<text text-anchor="middle" x="1044" y="-310.5817" font-family="Times,serif" font-size="14.00" fill="#000000">Tweet about</text>
<text text-anchor="middle" x="1044" y="-295.5817" font-family="Times,serif" font-size="14.00" fill="#000000">new content</text>
</g>
<!-- netlify_applet -->
<g id="node19" class="node">
<title>netlify_applet</title>
<g id="a_node19"><a xlink:href="https://roamresearch.com/#/app/ArtOfGig/page/EWP06EjZH" xlink:title="Netlify Build\nHook Applet">
<polygon fill="none" stroke="#0000ff" points="1062.5,-770.7214 973.5,-770.7214 973.5,-732.7214 1062.5,-732.7214 1062.5,-770.7214"/>
<text text-anchor="middle" x="1018" y="-755.5214" font-family="Times,serif" font-size="14.00" fill="#000000">Netlify Build</text>
<text text-anchor="middle" x="1018" y="-740.5214" font-family="Times,serif" font-size="14.00" fill="#000000">Hook Applet</text>
</a>
</g>
</g>
<!-- netlify_ci -->
<g id="node21" class="node">
<title>netlify_ci</title>
<g id="a_node21"><a xlink:href="https://roamresearch.com/#/app/ArtOfGig/page/lfZqzDmtI" xlink:title="Netlify Continuous\nIntegration">
<polygon fill="none" stroke="#0000ff" points="413.4423,-1289.0226 419.0318,-1289.1691 424.5635,-1289.3883 430.0148,-1289.6797 435.3636,-1290.0424 440.5885,-1290.4754 445.6689,-1290.9777 450.585,-1291.5477 455.318,-1292.1839 459.8505,-1292.8846 464.1661,-1293.6479 468.2498,-1294.4716 472.088,-1295.3536 475.6685,-1296.2913 478.9808,-1297.2823 482.0156,-1298.3237 484.7656,-1299.4128 487.2248,-1300.5466 489.3888,-1301.7219 491.255,-1302.9356 492.8222,-1304.1843 494.0906,-1305.4645 495.0619,-1306.7729 495.7394,-1308.1057 496.1276,-1309.4594 496.232,-1310.8302 496.0596,-1312.2144 495.6182,-1313.6081 494.9168,-1315.0076 493.9651,-1316.409 492.7734,-1317.8085 491.3528,-1319.2023 489.7148,-1320.5864 487.8715,-1321.9572 485.8349,-1323.3109 483.6174,-1324.6437 481.2314,-1325.9521 478.6893,-1327.2323 476.0033,-1328.481 473.1854,-1329.6947 470.2471,-1330.87 467.1997,-1332.0038 464.0539,-1333.0929 460.8201,-1334.1344 457.5079,-1335.1253 454.1263,-1336.063 450.6839,-1336.945 447.1884,-1337.7687 443.6471,-1338.532 440.0663,-1339.2327 436.4521,-1339.8689 432.8097,-1340.4389 429.144,-1340.9412 425.459,-1341.3742 421.7587,-1341.7369 418.0463,-1342.0283 414.325,-1342.2476 410.5974,-1342.394 406.8662,-1342.4674 403.1338,-1342.4674 399.4026,-1342.394 395.675,-1342.2476 391.9537,-1342.0283 388.2413,-1341.7369 384.541,-1341.3742 380.856,-1340.9412 377.1903,-1340.4389 373.5479,-1339.8689 369.9337,-1339.2327 366.3529,-1338.532 362.8116,-1337.7687 359.3161,-1336.945 355.8737,-1336.063 352.4921,-1335.1253 349.1799,-1334.1344 345.9461,-1333.0929 342.8003,-1332.0038 339.7529,-1330.87 336.8146,-1329.6947 333.9967,-1328.481 331.3107,-1327.2323 328.7686,-1325.9521 326.3826,-1324.6437 324.1651,-1323.3109 322.1285,-1321.9572 320.2852,-1320.5864 318.6472,-1319.2023 317.2266,-1317.8085 316.0349,-1316.409 315.0832,-1315.0076 314.3818,-1313.6081 313.9404,-1312.2144 313.768,-1310.8302 313.8724,-1309.4594 314.2606,-1308.1057 314.9381,-1306.7729 315.9094,-1305.4645 317.1778,-1304.1843 318.745,-1302.9356 320.6112,-1301.7219 322.7752,-1300.5466 325.2344,-1299.4128 327.9844,-1298.3237 331.0192,-1297.2823 334.3315,-1296.2913 337.912,-1295.3536 341.7502,-1294.4716 345.8339,-1293.6479 350.1495,-1292.8846 354.682,-1292.1839 359.415,-1291.5477 364.3311,-1290.9777 369.4115,-1290.4754 374.6364,-1290.0424 379.9852,-1289.6797 385.4365,-1289.3883 390.9682,-1289.1691 396.5577,-1289.0226 402.182,-1288.9492 407.818,-1288.9492 413.4423,-1289.0226"/>
<text text-anchor="middle" x="405" y="-1319.5083" font-family="Times,serif" font-size="14.00" fill="#000000">Netlify Continuous</text>
<text text-anchor="middle" x="405" y="-1304.5083" font-family="Times,serif" font-size="14.00" fill="#000000">Integration</text>
</a>
</g>
</g>
<!-- netlify_applet&#45;&gt;netlify_ci -->
<g id="edge13" class="edge">
<title>netlify_applet&#45;&gt;netlify_ci</title>
<path fill="none" stroke="#000000" d="M1025.52,-770.8064C1037.3564,-802.6153 1059,-868.7177 1059,-926.7752 1059,-1244.329 1059,-1244.329 1059,-1244.329 1059,-1258.0609 689.7316,-1291.4589 506.1454,-1307.2146"/>
<polygon fill="#000000" stroke="#000000" points="505.6007,-1303.7484 495.9359,-1308.089 506.1981,-1310.7228 505.6007,-1303.7484"/>
<text text-anchor="middle" x="1100.5" y="-1134.629" font-family="Times,serif" font-size="14.00" fill="#000000">Trigger rebuild</text>
<text text-anchor="middle" x="1100.5" y="-1119.629" font-family="Times,serif" font-size="14.00" fill="#000000">every 24 hours</text>
</g>
<!-- github -->
<g id="node20" class="node">
<title>github</title>
<g id="a_node20"><a xlink:href="https://roamresearch.com/#/app/ArtOfGig/page/1PVNV7Ell" xlink:title="GitHub">
<polygon fill="none" stroke="#0000ff" points="109.6464,-288.8311 112.0606,-288.9296 114.4498,-289.0771 116.8044,-289.2731 119.1146,-289.5171 121.3714,-289.8084 123.5657,-290.1462 125.689,-290.5296 127.7333,-290.9576 129.691,-291.429 131.555,-291.9424 133.3188,-292.4965 134.9766,-293.0897 136.5231,-293.7205 137.9537,-294.3871 139.2645,-295.0877 140.4523,-295.8203 141.5145,-296.5829 142.4492,-297.3735 143.2552,-298.1899 143.9321,-299.0299 144.48,-299.8911 144.8995,-300.7712 145.1921,-301.6677 145.3598,-302.5783 145.4049,-303.5004 145.3304,-304.4315 145.1398,-305.369 144.8368,-306.3104 144.4258,-307.2531 143.911,-308.1945 143.2975,-309.132 142.59,-310.0631 141.7938,-310.9852 140.9142,-311.8958 139.9564,-312.7923 138.9258,-313.6724 137.8279,-314.5336 136.6677,-315.3735 135.4506,-316.1899 134.1815,-316.9806 132.8652,-317.7432 131.5065,-318.4758 130.1098,-319.1764 128.6792,-319.843 127.2186,-320.4737 125.7318,-321.067 124.222,-321.6211 122.6924,-322.1345 121.1458,-322.6059 119.5848,-323.0339 118.0116,-323.4173 116.4283,-323.7551 114.8367,-324.0464 113.2384,-324.2904 111.635,-324.4864 110.0277,-324.6339 108.4176,-324.7324 106.8061,-324.7817 105.1939,-324.7817 103.5824,-324.7324 101.9723,-324.6339 100.365,-324.4864 98.7616,-324.2904 97.1633,-324.0464 95.5717,-323.7551 93.9884,-323.4173 92.4152,-323.0339 90.8542,-322.6059 89.3076,-322.1345 87.778,-321.6211 86.2682,-321.067 84.7814,-320.4737 83.3208,-319.843 81.8902,-319.1764 80.4935,-318.4758 79.1348,-317.7432 77.8185,-316.9806 76.5494,-316.1899 75.3323,-315.3735 74.1721,-314.5336 73.0742,-313.6724 72.0436,-312.7923 71.0858,-311.8958 70.2062,-310.9852 69.41,-310.0631 68.7025,-309.132 68.089,-308.1945 67.5742,-307.2531 67.1632,-306.3104 66.8602,-305.369 66.6696,-304.4315 66.5951,-303.5004 66.6402,-302.5783 66.8079,-301.6677 67.1005,-300.7712 67.52,-299.8911 68.0679,-299.0299 68.7448,-298.1899 69.5508,-297.3735 70.4855,-296.5829 71.5477,-295.8203 72.7355,-295.0877 74.0463,-294.3871 75.4769,-293.7205 77.0234,-293.0897 78.6812,-292.4965 80.445,-291.9424 82.309,-291.429 84.2667,-290.9576 86.311,-290.5296 88.4343,-290.1462 90.6286,-289.8084 92.8854,-289.5171 95.1956,-289.2731 97.5502,-289.0771 99.9394,-288.9296 102.3536,-288.8311 104.7829,-288.7817 107.2171,-288.7817 109.6464,-288.8311"/>
<text text-anchor="middle" x="106" y="-303.0817" font-family="Times,serif" font-size="14.00" fill="#000000">GitHub</text>
</a>
</g>
</g>
<!-- github&#45;&gt;netlify_ci -->
<g id="edge12" class="edge">
<title>github&#45;&gt;netlify_ci</title>
<path fill="none" stroke="#000000" d="M106,-324.9435C106,-367.6258 106,-477.657 106,-569.5965 106,-1244.329 106,-1244.329 106,-1244.329 106,-1285.9111 216.7883,-1303.3183 303.4887,-1310.5743"/>
<polygon fill="#000000" stroke="#000000" points="303.4179,-1314.0798 313.6655,-1311.3893 303.9768,-1307.1021 303.4179,-1314.0798"/>
<text text-anchor="middle" x="166" y="-1032.629" font-family="Times,serif" font-size="14.00" fill="#000000">Repo contents pushed</text>
<text text-anchor="middle" x="166" y="-1017.629" font-family="Times,serif" font-size="14.00" fill="#000000">on commit</text>
</g>
<!-- jekyll -->
<g id="node22" class="node">
<title>jekyll</title>
<g id="a_node22"><a xlink:href="https://roamresearch.com/#/app/ArtOfGig/page/fF35dWNYl" xlink:title="Jekyll">
<polygon fill="none" stroke="#0000ff" points="432,-1199.829 378,-1199.829 378,-1163.829 432,-1163.829 432,-1199.829"/>
<text text-anchor="middle" x="405" y="-1178.129" font-family="Times,serif" font-size="14.00" fill="#000000">Jekyll</text>
</a>
</g>
</g>
<!-- netlify_ci&#45;&gt;jekyll -->
<g id="edge14" class="edge">
<title>netlify_ci&#45;&gt;jekyll</title>
<path fill="none" stroke="#000000" d="M405,-1288.9376C405,-1266.145 405,-1233.4926 405,-1210.242"/>
<polygon fill="#000000" stroke="#000000" points="408.5001,-1209.9792 405,-1199.9793 401.5001,-1209.9793 408.5001,-1209.9792"/>
<text text-anchor="middle" x="443" y="-1240.629" font-family="Times,serif" font-size="14.00" fill="#000000">Build website</text>
</g>
<!-- netlify_cdn -->
<g id="node23" class="node">
<title>netlify_cdn</title>
<g id="a_node23"><a xlink:href="https://roamresearch.com/#/app/ArtOfGig/page/R-E2CDAe2" xlink:title="Netlify\nCDN">
<polygon fill="none" stroke="#0000ff" points="408.8248,-900.0895 411.3571,-900.236 413.8633,-900.4552 416.333,-900.7466 418.7563,-901.1093 421.1234,-901.5424 423.4251,-902.0446 425.6523,-902.6146 427.7967,-903.2508 429.8501,-903.9515 431.8053,-904.7148 433.6555,-905.5385 435.3944,-906.4205 437.0165,-907.3582 438.5171,-908.3492 439.8921,-909.3906 441.1379,-910.4797 442.2521,-911.6135 443.2325,-912.7888 444.078,-914.0025 444.788,-915.2512 445.3627,-916.5315 445.8027,-917.8398 446.1097,-919.1726 446.2855,-920.5263 446.3328,-921.8971 446.2547,-923.2813 446.0548,-924.675 445.737,-926.0745 445.3058,-927.4759 444.7659,-928.8754 444.1223,-930.2692 443.3802,-931.6533 442.5451,-933.0241 441.6224,-934.3778 440.6178,-935.7106 439.5368,-937.019 438.3851,-938.2992 437.1682,-939.5479 435.8915,-940.7616 434.5603,-941.9369 433.1797,-943.0707 431.7545,-944.1598 430.2894,-945.2013 428.7888,-946.1922 427.2568,-947.13 425.6972,-948.0119 424.1135,-948.8356 422.5091,-949.5989 420.8869,-950.2996 419.2494,-950.9358 417.5993,-951.5059 415.9385,-952.0081 414.269,-952.4411 412.5926,-952.8039 410.9107,-953.0952 409.2247,-953.3145 407.5359,-953.4609 405.8455,-953.5343 404.1545,-953.5343 402.4641,-953.4609 400.7753,-953.3145 399.0893,-953.0952 397.4074,-952.8039 395.731,-952.4411 394.0615,-952.0081 392.4007,-951.5059 390.7506,-950.9358 389.1131,-950.2996 387.4909,-949.5989 385.8865,-948.8356 384.3028,-948.0119 382.7432,-947.13 381.2112,-946.1922 379.7106,-945.2013 378.2455,-944.1598 376.8203,-943.0707 375.4397,-941.9369 374.1085,-940.7616 372.8318,-939.5479 371.6149,-938.2992 370.4632,-937.019 369.3822,-935.7106 368.3776,-934.3778 367.4549,-933.0241 366.6198,-931.6533 365.8777,-930.2692 365.2341,-928.8754 364.6942,-927.4759 364.263,-926.0745 363.9452,-924.675 363.7453,-923.2813 363.6672,-921.8971 363.7145,-920.5263 363.8903,-919.1726 364.1973,-917.8398 364.6373,-916.5315 365.212,-915.2512 365.922,-914.0025 366.7675,-912.7888 367.7479,-911.6135 368.8621,-910.4797 370.1079,-909.3906 371.4829,-908.3492 372.9835,-907.3582 374.6056,-906.4205 376.3445,-905.5385 378.1947,-904.7148 380.1499,-903.9515 382.2033,-903.2508 384.3477,-902.6146 386.5749,-902.0446 388.8766,-901.5424 391.2437,-901.1093 393.667,-900.7466 396.1367,-900.4552 398.6429,-900.236 401.1752,-900.0895 403.7233,-900.0161 406.2767,-900.0161 408.8248,-900.0895"/>
<text text-anchor="middle" x="405" y="-930.5752" font-family="Times,serif" font-size="14.00" fill="#000000">Netlify</text>
<text text-anchor="middle" x="405" y="-915.5752" font-family="Times,serif" font-size="14.00" fill="#000000">CDN</text>
</a>
</g>
</g>
<!-- jekyll&#45;&gt;netlify_cdn -->
<g id="edge15" class="edge">
<title>jekyll&#45;&gt;netlify_cdn</title>
<path fill="none" stroke="#000000" d="M405,-1163.4862C405,-1121.8515 405,-1019.5233 405,-964.0229"/>
<polygon fill="#000000" stroke="#000000" points="408.5001,-963.9043 405,-953.9043 401.5001,-963.9044 408.5001,-963.9043"/>
<text text-anchor="middle" x="458.5" y="-1083.629" font-family="Times,serif" font-size="14.00" fill="#000000">Optimize &amp; deploy</text>
<text text-anchor="middle" x="458.5" y="-1068.629" font-family="Times,serif" font-size="14.00" fill="#000000">website files</text>
</g>
<!-- website -->
<g id="node24" class="node">
<title>website</title>
<g id="a_node24"><a xlink:href="https://roamresearch.com/#/app/ArtOfGig/page/h0Wx539Oq" xlink:title="Yak Collective\nWebsite">
<ellipse fill="none" stroke="#00ff00" cx="463" cy="-569.5965" rx="69.1046" ry="69.1046"/>
<ellipse fill="none" stroke="#00ff00" cx="463" cy="-569.5965" rx="73.0935" ry="73.0935"/>
<text text-anchor="middle" x="463" y="-573.3965" font-family="Times,serif" font-size="14.00" fill="#000000">Yak Collective</text>
<text text-anchor="middle" x="463" y="-558.3965" font-family="Times,serif" font-size="14.00" fill="#000000">Website</text>
</a>
</g>
</g>
<!-- netlify_cdn&#45;&gt;website -->
<g id="edge17" class="edge">
<title>netlify_cdn&#45;&gt;website</title>
<path fill="none" stroke="#000000" d="M409.3594,-899.9288C417.7977,-847.9637 436.671,-731.7373 449.6208,-651.9888"/>
<polygon fill="#000000" stroke="#000000" points="453.1005,-652.3961 451.2486,-641.9643 446.191,-651.274 453.1005,-652.3961"/>
<text text-anchor="middle" x="481.5" y="-755.5214" font-family="Times,serif" font-size="14.00" fill="#000000">Push to Amazon</text>
<text text-anchor="middle" x="481.5" y="-740.5214" font-family="Times,serif" font-size="14.00" fill="#000000">Cloudfront</text>
</g>
<!-- featured_yak -->
<g id="node25" class="node">
<title>featured_yak</title>
<g id="a_node25"><a xlink:href="https://roamresearch.com/#/app/ArtOfGig/page/ZzuH6YDFq" xlink:title="&quot;Featured Yak&quot;\nRSS Feed">
<ellipse fill="none" stroke="#00ff00" cx="630" cy="-569.5965" rx="72.2434" ry="72.2434"/>
<ellipse fill="none" stroke="#00ff00" cx="630" cy="-569.5965" rx="76.25" ry="76.25"/>
<text text-anchor="middle" x="630" y="-573.3965" font-family="Times,serif" font-size="14.00" fill="#000000">&quot;Featured Yak&quot;</text>
<text text-anchor="middle" x="630" y="-558.3965" font-family="Times,serif" font-size="14.00" fill="#000000">RSS Feed</text>
</a>
</g>
</g>
<!-- netlify_cdn&#45;&gt;featured_yak -->
<g id="edge18" class="edge">
<title>netlify_cdn&#45;&gt;featured_yak</title>
<path fill="none" stroke="#000000" d="M432.6667,-904.8564C460.4869,-881.6579 503.1402,-842.7822 531,-801.7214 562.2325,-755.6899 586.8369,-698.2191 603.7051,-651.9794"/>
<polygon fill="#000000" stroke="#000000" points="607.0986,-652.8854 607.1868,-642.2909 600.5111,-650.518 607.0986,-652.8854"/>
<text text-anchor="middle" x="617.5" y="-755.5214" font-family="Times,serif" font-size="14.00" fill="#000000">Push to Amazon</text>
<text text-anchor="middle" x="617.5" y="-740.5214" font-family="Times,serif" font-size="14.00" fill="#000000">Cloudfront</text>
</g>
<!-- netlify_cdn&#45;&gt;create_post -->
<g id="edge19" class="edge">
<title>netlify_cdn&#45;&gt;create_post</title>
<path fill="none" stroke="#000000" d="M384.3228,-902.3622C365.4662,-878.4555 338.8035,-840.121 327,-801.7214 305.2701,-731.0291 310.0536,-642.5054 314.516,-597.9705"/>
<polygon fill="#000000" stroke="#000000" points="318.0111,-598.2027 315.5982,-587.8863 311.0511,-597.4557 318.0111,-598.2027"/>
<text text-anchor="middle" x="374" y="-755.5214" font-family="Times,serif" font-size="14.00" fill="#000000">Create Amazon</text>
<text text-anchor="middle" x="374" y="-740.5214" font-family="Times,serif" font-size="14.00" fill="#000000">Lambda function</text>
</g>
<!-- website&#45;&gt;google_analytics -->
<g id="edge1" class="edge">
<title>website&#45;&gt;google_analytics</title>
<path fill="none" stroke="#000000" d="M462.1603,-496.0385C461.5951,-446.5182 460.8735,-383.304 460.424,-343.9283"/>
<polygon fill="#000000" stroke="#000000" points="463.9216,-343.6873 460.3076,-333.7279 456.9221,-343.7673 463.9216,-343.6873"/>
<text text-anchor="middle" x="506" y="-450.7716" font-family="Times,serif" font-size="14.00" fill="#000000">Visitor analytics</text>
</g>
<!-- website&#45;&gt;registration_form -->
<g id="edge5" class="edge">
<title>website&#45;&gt;registration_form</title>
<path fill="none" stroke="#ff0000" d="M410.312,-518.3492C397.3267,-503.5578 384.4504,-486.7239 375,-469.4716 359.6453,-441.4408 348.856,-407.8789 341.5235,-378.5383"/>
<polygon fill="#ff0000" stroke="#ff0000" points="344.9134,-377.6655 339.1677,-368.7639 338.1083,-379.3056 344.9134,-377.6655"/>
<text text-anchor="middle" x="416" y="-458.2716" font-family="Times,serif" font-size="14.00" fill="#000000">Sign up form</text>
<text text-anchor="middle" x="416" y="-443.2716" font-family="Times,serif" font-size="14.00" fill="#000000">(minimal data)</text>
</g>
<!-- website&#45;&gt;reboot_deck -->
<g id="edge2" class="edge">
<title>website&#45;&gt;reboot_deck</title>
<path fill="none" stroke="#ff0000" d="M508.3256,-511.5223C519.4885,-499.3518 531.9978,-487.2571 545,-477.4716 582.8024,-449.0216 604.8606,-462.0062 641,-431.4716 656.1665,-418.6572 669.9944,-402.6606 681.9676,-386.4429"/>
<polygon fill="#ff0000" stroke="#ff0000" points="685.0702,-388.1227 688.0571,-377.9576 679.3831,-384.0413 685.0702,-388.1227"/>
<text text-anchor="middle" x="684.5" y="-450.7716" font-family="Times,serif" font-size="14.00" fill="#000000">Google Slides / PDF</text>
</g>
<!-- website&#45;&gt;home_deck -->
<g id="edge3" class="edge">
<title>website&#45;&gt;home_deck</title>
<path fill="none" stroke="#ff0000" d="M504.4625,-508.7469C516.0454,-496.2444 529.7082,-484.703 545,-477.4716 565.1053,-467.9639 723.4762,-475.0702 745,-469.4716 781.1643,-460.0648 792.2002,-456.4419 820,-431.4716 836.0913,-417.0181 850.3264,-398.6684 862.1965,-380.5213"/>
<polygon fill="#ff0000" stroke="#ff0000" points="865.4258,-381.965 867.8315,-371.6469 859.5164,-378.2127 865.4258,-381.965"/>
<text text-anchor="middle" x="866.5" y="-450.7716" font-family="Times,serif" font-size="14.00" fill="#000000">Google Slides / PDF</text>
</g>
<!-- featured_yak&#45;&gt;twitter_applets -->
<g id="edge27" class="edge">
<title>featured_yak&#45;&gt;twitter_applets</title>
<path fill="none" stroke="#000000" d="M698.3568,-603.8684C739.9396,-625.5384 793.6036,-654.9876 839,-684.7214 858.2843,-697.3522 878.7617,-712.9994 895.0025,-725.9953"/>
<polygon fill="#000000" stroke="#000000" points="893.1018,-728.9591 903.0805,-732.5196 897.5001,-723.5135 893.1018,-728.9591"/>
<text text-anchor="middle" x="907.5" y="-703.5214" font-family="Times,serif" font-size="14.00" fill="#000000">Pulled</text>
<text text-anchor="middle" x="907.5" y="-688.5214" font-family="Times,serif" font-size="14.00" fill="#000000">by IFTTT</text>
</g>
<!-- create_post&#45;&gt;discord -->
<g id="edge24" class="edge">
<title>create_post&#45;&gt;discord</title>
<path fill="none" stroke="#000000" d="M306.1741,-551.3326C290.3887,-525.7559 263.2335,-477.2513 253,-431.4716 216.3502,-267.5175 155.92,-174.4842 273,-54 285.9739,-40.6489 396.5893,-28.3745 462.0179,-22.1939"/>
<polygon fill="#000000" stroke="#000000" points="462.4762,-25.6665 472.1089,-21.255 461.8277,-18.6966 462.4762,-25.6665"/>
<text text-anchor="middle" x="251.5" y="-195.8" font-family="Times,serif" font-size="14.00" fill="#000000">Post in</text>
<text text-anchor="middle" x="251.5" y="-180.8" font-family="Times,serif" font-size="14.00" fill="#000000">#yaktalk&#45;content</text>
</g>
<!-- create_post&#45;&gt;github -->
<g id="edge23" class="edge">
<title>create_post&#45;&gt;github</title>
<path fill="none" stroke="#000000" d="M279.6764,-557.9722C239.3732,-543.7221 177.1608,-515.6062 143,-469.4716 113.4477,-429.5609 106.8834,-370.1394 105.7711,-335.2404"/>
<polygon fill="#000000" stroke="#000000" points="109.2629,-334.7609 105.5793,-324.8271 102.2641,-334.8899 109.2629,-334.7609"/>
<text text-anchor="middle" x="179.5" y="-458.2716" font-family="Times,serif" font-size="14.00" fill="#000000">Commit new</text>
<text text-anchor="middle" x="179.5" y="-443.2716" font-family="Times,serif" font-size="14.00" fill="#000000">member post</text>
</g>
<!-- namecheap -->
<g id="node27" class="node">
<title>namecheap</title>
<g id="a_node27"><a xlink:href="https://roamresearch.com/#/app/ArtOfGig/page/SrB_NQUiU" xlink:title="Namecheap">
<polygon fill="none" stroke="#0000ff" points="195.1939,-1061.8784 198.6327,-1061.9769 202.0359,-1062.1244 205.3897,-1062.3204 208.6804,-1062.5644 211.8949,-1062.8557 215.0204,-1063.1935 218.0449,-1063.5769 220.9568,-1064.0049 223.7453,-1064.4763 226.4003,-1064.9897 228.9127,-1065.5438 231.2741,-1066.137 233.4769,-1066.7678 235.5146,-1067.4344 237.3817,-1068.135 239.0736,-1068.8676 240.5865,-1069.6302 241.9179,-1070.4208 243.0661,-1071.2372 244.0302,-1072.0772 244.8105,-1072.9384 245.4081,-1073.8185 245.825,-1074.715 246.0637,-1075.6256 246.128,-1076.5477 246.0219,-1077.4788 245.7504,-1078.4163 245.3189,-1079.3577 244.7333,-1080.3004 244.0002,-1081.2418 243.1262,-1082.1793 242.1185,-1083.1104 240.9844,-1084.0325 239.7314,-1084.9431 238.3672,-1085.8396 236.8993,-1086.7197 235.3354,-1087.5809 233.6829,-1088.4208 231.9492,-1089.2372 230.1415,-1090.0278 228.2666,-1090.7905 226.3313,-1091.5231 224.3418,-1092.2237 222.304,-1092.8903 220.2236,-1093.521 218.1058,-1094.1143 215.9553,-1094.6684 213.7765,-1095.1818 211.5736,-1095.6532 209.35,-1096.0811 207.1092,-1096.4646 204.8539,-1096.8024 202.5869,-1097.0937 200.3103,-1097.3377 198.0264,-1097.5337 195.737,-1097.6812 193.4437,-1097.7797 191.1481,-1097.829 188.8519,-1097.829 186.5563,-1097.7797 184.263,-1097.6812 181.9736,-1097.5337 179.6897,-1097.3377 177.4131,-1097.0937 175.1461,-1096.8024 172.8908,-1096.4646 170.65,-1096.0811 168.4264,-1095.6532 166.2235,-1095.1818 164.0447,-1094.6684 161.8942,-1094.1143 159.7764,-1093.521 157.696,-1092.8903 155.6582,-1092.2237 153.6687,-1091.5231 151.7334,-1090.7905 149.8585,-1090.0278 148.0508,-1089.2372 146.3171,-1088.4208 144.6646,-1087.5809 143.1007,-1086.7197 141.6328,-1085.8396 140.2686,-1084.9431 139.0156,-1084.0325 137.8815,-1083.1104 136.8738,-1082.1793 135.9998,-1081.2418 135.2667,-1080.3004 134.6811,-1079.3577 134.2496,-1078.4163 133.9781,-1077.4788 133.872,-1076.5477 133.9363,-1075.6256 134.175,-1074.715 134.5919,-1073.8185 135.1895,-1072.9384 135.9698,-1072.0772 136.9339,-1071.2372 138.0821,-1070.4208 139.4135,-1069.6302 140.9264,-1068.8676 142.6183,-1068.135 144.4854,-1067.4344 146.5231,-1066.7678 148.7259,-1066.137 151.0873,-1065.5438 153.5997,-1064.9897 156.2547,-1064.4763 159.0432,-1064.0049 161.9551,-1063.5769 164.9796,-1063.1935 168.1051,-1062.8557 171.3196,-1062.5644 174.6103,-1062.3204 177.9641,-1062.1244 181.3673,-1061.9769 184.8061,-1061.8784 188.2663,-1061.829 191.7337,-1061.829 195.1939,-1061.8784"/>
<text text-anchor="middle" x="190" y="-1076.129" font-family="Times,serif" font-size="14.00" fill="#000000">Namecheap</text>
</a>
</g>
</g>
<!-- namecheap&#45;&gt;netlify_cdn -->
<g id="edge16" class="edge">
<title>namecheap&#45;&gt;netlify_cdn</title>
<path fill="none" stroke="#000000" d="M213.8302,-1062.8648C252.0622,-1035.6483 327.2448,-982.1274 371.0708,-950.9287"/>
<polygon fill="#000000" stroke="#000000" points="373.2809,-953.6517 379.3977,-945.0009 369.2213,-947.9491 373.2809,-953.6517"/>
<text text-anchor="middle" x="326" y="-1025.129" font-family="Times,serif" font-size="14.00" fill="#000000">DNS information</text>
</g>
<!-- knack -->
<g id="node28" class="node">
<title>knack</title>
<g id="a_node28"><a xlink:href="https://roamresearch.com/#/app/ArtOfGig/page/FDjmLsCeR" xlink:title="Knack">
<polygon fill="none" stroke="#00ff00" points="1114.3298,-1297.7576 1116.5344,-1297.8562 1118.7161,-1298.0037 1120.8662,-1298.1997 1122.9759,-1298.4436 1125.0367,-1298.7349 1127.0405,-1299.0728 1128.9794,-1299.4562 1130.8462,-1299.8842 1132.6339,-1300.3555 1134.3361,-1300.869 1135.9467,-1301.4231 1137.4606,-1302.0163 1138.8728,-1302.6471 1140.1792,-1303.3137 1141.3762,-1304.0142 1142.4608,-1304.7468 1143.4308,-1305.5095 1144.2843,-1306.3001 1145.0204,-1307.1165 1145.6385,-1307.9565 1146.1387,-1308.8176 1146.5219,-1309.6977 1146.7891,-1310.5943 1146.9422,-1311.5049 1146.9833,-1312.4269 1146.9153,-1313.358 1146.7413,-1314.2956 1146.4646,-1315.237 1146.0892,-1316.1797 1145.6192,-1317.1211 1145.0589,-1318.0586 1144.4129,-1318.9897 1143.6858,-1319.9118 1142.8826,-1320.8223 1142.008,-1321.7189 1141.0669,-1322.599 1140.0643,-1323.4602 1139.0048,-1324.3001 1137.8934,-1325.1165 1136.7345,-1325.9071 1135.5325,-1326.6698 1134.2918,-1327.4024 1133.0163,-1328.1029 1131.7099,-1328.7695 1130.3762,-1329.4003 1129.0185,-1329.9936 1127.6398,-1330.5477 1126.243,-1331.0611 1124.8307,-1331.5324 1123.4052,-1331.9604 1121.9686,-1332.3438 1120.5228,-1332.6817 1119.0694,-1332.973 1117.6099,-1333.217 1116.1457,-1333.413 1114.6779,-1333.5604 1113.2077,-1333.659 1111.7361,-1333.7083 1110.2639,-1333.7083 1108.7923,-1333.659 1107.3221,-1333.5604 1105.8543,-1333.413 1104.3901,-1333.217 1102.9306,-1332.973 1101.4772,-1332.6817 1100.0314,-1332.3438 1098.5948,-1331.9604 1097.1693,-1331.5324 1095.757,-1331.0611 1094.3602,-1330.5477 1092.9815,-1329.9936 1091.6238,-1329.4003 1090.2901,-1328.7695 1088.9837,-1328.1029 1087.7082,-1327.4024 1086.4675,-1326.6698 1085.2655,-1325.9071 1084.1066,-1325.1165 1082.9952,-1324.3001 1081.9357,-1323.4602 1080.9331,-1322.599 1079.992,-1321.7189 1079.1174,-1320.8223 1078.3142,-1319.9118 1077.5871,-1318.9897 1076.9411,-1318.0586 1076.3808,-1317.1211 1075.9108,-1316.1797 1075.5354,-1315.237 1075.2587,-1314.2956 1075.0847,-1313.358 1075.0167,-1312.4269 1075.0578,-1311.5049 1075.2109,-1310.5943 1075.4781,-1309.6977 1075.8613,-1308.8176 1076.3615,-1307.9565 1076.9796,-1307.1165 1077.7157,-1306.3001 1078.5692,-1305.5095 1079.5392,-1304.7468 1080.6238,-1304.0142 1081.8208,-1303.3137 1083.1272,-1302.6471 1084.5394,-1302.0163 1086.0533,-1301.4231 1087.6639,-1300.869 1089.3661,-1300.3555 1091.1538,-1299.8842 1093.0206,-1299.4562 1094.9595,-1299.0728 1096.9633,-1298.7349 1099.0241,-1298.4436 1101.1338,-1298.1997 1103.2839,-1298.0037 1105.4656,-1297.8562 1107.6702,-1297.7576 1109.8885,-1297.7083 1112.1115,-1297.7083 1114.3298,-1297.7576"/>
<text text-anchor="middle" x="1111" y="-1312.0083" font-family="Times,serif" font-size="14.00" fill="#000000">Knack</text>
</a>
</g>
</g>
<!-- roam -->
<g id="node29" class="node">
<title>roam</title>
<g id="a_node29"><a xlink:href="https://roamresearch.com/#/app/ArtOfGig/page/FEPWC0DLJ" xlink:title="Roam">
<polygon fill="none" stroke="#00ff00" points="1203.2124,-1297.7576 1205.3393,-1297.8562 1207.4442,-1298.0037 1209.5185,-1298.1997 1211.5538,-1298.4436 1213.5419,-1298.7349 1215.4751,-1299.0728 1217.3457,-1299.4562 1219.1467,-1299.8842 1220.8714,-1300.3555 1222.5136,-1300.869 1224.0675,-1301.4231 1225.528,-1302.0163 1226.8904,-1302.6471 1228.1507,-1303.3137 1229.3056,-1304.0142 1230.352,-1304.7468 1231.2877,-1305.5095 1232.1112,-1306.3001 1232.8213,-1307.1165 1233.4176,-1307.9565 1233.9003,-1308.8176 1234.2699,-1309.6977 1234.5277,-1310.5943 1234.6754,-1311.5049 1234.7151,-1312.4269 1234.6495,-1313.358 1234.4816,-1314.2956 1234.2147,-1315.237 1233.8525,-1316.1797 1233.399,-1317.1211 1232.8585,-1318.0586 1232.2352,-1318.9897 1231.5338,-1319.9118 1230.7588,-1320.8223 1229.9151,-1321.7189 1229.0072,-1322.599 1228.0399,-1323.4602 1227.0178,-1324.3001 1225.9455,-1325.1165 1224.8275,-1325.9071 1223.6679,-1326.6698 1222.4709,-1327.4024 1221.2404,-1328.1029 1219.98,-1328.7695 1218.6933,-1329.4003 1217.3834,-1329.9936 1216.0533,-1330.5477 1214.7058,-1331.0611 1213.3432,-1331.5324 1211.968,-1331.9604 1210.582,-1332.3438 1209.1871,-1332.6817 1207.785,-1332.973 1206.3769,-1333.217 1204.9643,-1333.413 1203.5483,-1333.5604 1202.1299,-1333.659 1200.7101,-1333.7083 1199.2899,-1333.7083 1197.8701,-1333.659 1196.4517,-1333.5604 1195.0357,-1333.413 1193.6231,-1333.217 1192.215,-1332.973 1190.8129,-1332.6817 1189.418,-1332.3438 1188.032,-1331.9604 1186.6568,-1331.5324 1185.2942,-1331.0611 1183.9467,-1330.5477 1182.6166,-1329.9936 1181.3067,-1329.4003 1180.02,-1328.7695 1178.7596,-1328.1029 1177.5291,-1327.4024 1176.3321,-1326.6698 1175.1725,-1325.9071 1174.0545,-1325.1165 1172.9822,-1324.3001 1171.9601,-1323.4602 1170.9928,-1322.599 1170.0849,-1321.7189 1169.2412,-1320.8223 1168.4662,-1319.9118 1167.7648,-1318.9897 1167.1415,-1318.0586 1166.601,-1317.1211 1166.1475,-1316.1797 1165.7853,-1315.237 1165.5184,-1314.2956 1165.3505,-1313.358 1165.2849,-1312.4269 1165.3246,-1311.5049 1165.4723,-1310.5943 1165.7301,-1309.6977 1166.0997,-1308.8176 1166.5824,-1307.9565 1167.1787,-1307.1165 1167.8888,-1306.3001 1168.7123,-1305.5095 1169.648,-1304.7468 1170.6944,-1304.0142 1171.8493,-1303.3137 1173.1096,-1302.6471 1174.472,-1302.0163 1175.9325,-1301.4231 1177.4864,-1300.869 1179.1286,-1300.3555 1180.8533,-1299.8842 1182.6543,-1299.4562 1184.5249,-1299.0728 1186.4581,-1298.7349 1188.4462,-1298.4436 1190.4815,-1298.1997 1192.5558,-1298.0037 1194.6607,-1297.8562 1196.7876,-1297.7576 1198.9277,-1297.7083 1201.0723,-1297.7083 1203.2124,-1297.7576"/>
<text text-anchor="middle" x="1200" y="-1312.0083" font-family="Times,serif" font-size="14.00" fill="#000000">Roam</text>
</a>
</g>
</g>
<!-- visitor -->
<g id="node30" class="node">
<title>visitor</title>
</g>
<!-- visitor&#45;&gt;website -->
<g id="edge4" class="edge">
<title>visitor&#45;&gt;website</title>
<path fill="none" stroke="#ff0000" d="M755.6236,-733.6395C753.374,-717.9213 747.4693,-695.9579 732,-684.7214 715.1737,-672.4992 563.4455,-686.327 545,-676.7214 529.3713,-668.5827 515.8465,-655.9755 504.5388,-642.2292"/>
<polygon fill="#ff0000" stroke="#ff0000" points="507.0502,-639.7583 498.1381,-634.0291 501.5322,-644.0655 507.0502,-639.7583"/>
<text text-anchor="middle" x="793" y="-696.0214" font-family="Times,serif" font-size="14.00" fill="#000000">Website visitor</text>
</g>
<!-- developer -->
<g id="node31" class="node">
<title>developer</title>
</g>
<!-- developer&#45;&gt;github -->
<g id="edge11" class="edge">
<title>developer&#45;&gt;github</title>
<path fill="none" stroke="#ff0000" d="M24.2394,-551.5127C20.9908,-526.0019 17.291,-478.2329 28,-439.4716 39.3802,-398.2808 66.9811,-356.772 86.0957,-331.4169"/>
<polygon fill="#ff0000" stroke="#ff0000" points="88.8927,-333.5212 92.217,-323.4613 83.3449,-329.2525 88.8927,-333.5212"/>
<text text-anchor="middle" x="60" y="-450.7716" font-family="Times,serif" font-size="14.00" fill="#000000">Git commit</text>
</g>
</g>
</svg>
