<?xml version="1.0" encoding="UTF-8" standalone="no"?>
<!DOCTYPE svg PUBLIC "-//W3C//DTD SVG 1.1//EN"
 "http://www.w3.org/Graphics/SVG/1.1/DTD/svg11.dtd">
<!-- Generated by graphviz version 2.43.0 (0)
 -->
<!-- Title: yak_infrastructure Pages: 1 -->
<svg width="1646pt" height="1378pt"
 viewBox="0.00 0.00 1646.00 1377.68" xmlns="http://www.w3.org/2000/svg" xmlns:xlink="http://www.w3.org/1999/xlink">
<g id="graph0" class="graph" transform="scale(1 1) rotate(0) translate(4 1373.68)">
<title>yak_infrastructure</title>
<polygon fill="white" stroke="transparent" points="-4,4 -4,-1373.68 1642,-1373.68 1642,4 -4,4"/>
<text text-anchor="middle" x="819" y="-1354.48" font-family="Times,serif" font-size="14.00">Yak Collective IT Infrastructure</text>
<g id="clust1" class="cluster">
<title>cluster_google</title>
<polygon fill="none" stroke="gray" points="396,-215 396,-574.12 1268,-574.12 1268,-215 396,-215"/>
<text text-anchor="middle" x="832" y="-558.92" font-family="Times,serif" font-size="14.00">Google</text>
</g>
<g id="clust2" class="cluster">
<title>cluster_robot</title>
<polygon fill="none" stroke="gray" points="404,-223 404,-543.12 858,-543.12 858,-223 404,-223"/>
<text text-anchor="middle" x="631" y="-527.92" font-family="Times,serif" font-size="14.00">Yak Collective Robot</text>
</g>
<g id="clust3" class="cluster">
<title>cluster_vultr</title>
<polygon fill="none" stroke="gray" points="615,-94 615,-169 823,-169 823,-94 615,-94"/>
<text text-anchor="middle" x="719" y="-153.8" font-family="Times,serif" font-size="14.00">Vultr</text>
</g>
<g id="clust4" class="cluster">
<title>cluster_carl</title>
<polygon fill="none" stroke="gray" points="1286,-94 1286,-169 1496,-169 1496,-94 1286,-94"/>
<text text-anchor="middle" x="1391" y="-153.8" font-family="Times,serif" font-size="14.00">Carl</text>
</g>
<g id="clust5" class="cluster">
<title>cluster_unused</title>
<polygon fill="none" stroke="gray" points="1314,-1254.8 1314,-1329.8 1412,-1329.8 1412,-1254.8 1314,-1254.8"/>
<text text-anchor="middle" x="1363" y="-1314.6" font-family="Times,serif" font-size="14.00">Unused</text>
</g>
<g id="clust6" class="cluster">
<title>cluster_ifttt</title>
<polygon fill="none" stroke="gray" points="957,-906.36 957,-983.36 1284,-983.36 1284,-906.36 957,-906.36"/>
<text text-anchor="middle" x="1120.5" y="-968.16" font-family="Times,serif" font-size="14.00">IFTTT</text>
</g>
<g id="clust7" class="cluster">
<title>cluster_netlify</title>
<polygon fill="none" stroke="gray" points="336,-620.12 336,-1338.68 884,-1338.68 884,-620.12 336,-620.12"/>
<text text-anchor="middle" x="610" y="-1323.48" font-family="Times,serif" font-size="14.00">Netlify</text>
</g>
<g id="clust8" class="cluster">
<title>cluster_cloudfront</title>
<polygon fill="none" stroke="gray" points="486,-628.12 486,-850.48 876,-850.48 876,-628.12 486,-628.12"/>
<text text-anchor="middle" x="681" y="-835.28" font-family="Times,serif" font-size="14.00">Amazon Cloudfront</text>
</g>
<g id="clust9" class="cluster">
<title>cluster_lambda</title>
<polygon fill="none" stroke="gray" points="344,-701.8 344,-776.8 478,-776.8 478,-701.8 344,-701.8"/>
<text text-anchor="middle" x="411" y="-761.6" font-family="Times,serif" font-size="14.00">Amazon Lambda</text>
</g>
<!-- gmail -->
<g id="node1" class="node">
<title>gmail</title>
<g id="a_node1"><a xlink:href="https://roamresearch.com/#/app/ArtOfGig/page/bRd-QWJA0" xlink:title="Gmail">
<polygon fill="none" stroke="blue" points="742.76,-231.05 745.26,-231.15 747.72,-231.3 750.15,-231.49 752.54,-231.74 754.87,-232.03 757.13,-232.36 759.32,-232.75 761.43,-233.18 763.45,-233.65 765.38,-234.16 767.2,-234.71 768.91,-235.31 770.51,-235.94 771.98,-236.61 773.34,-237.31 774.56,-238.04 775.66,-238.8 776.62,-239.59 777.46,-240.41 778.15,-241.25 778.72,-242.11 779.15,-242.99 779.45,-243.89 779.63,-244.8 779.67,-245.72 779.6,-246.65 779.4,-247.59 779.09,-248.53 778.66,-249.47 778.13,-250.41 777.5,-251.35 776.77,-252.28 775.95,-253.2 775.04,-254.11 774.05,-255.01 772.99,-255.89 771.85,-256.75 770.66,-257.59 769.4,-258.41 768.09,-259.2 766.73,-259.96 765.33,-260.69 763.89,-261.39 762.41,-262.06 760.9,-262.69 759.37,-263.29 757.81,-263.84 756.23,-264.35 754.63,-264.82 753.02,-265.25 751.4,-265.64 749.76,-265.97 748.12,-266.26 746.47,-266.51 744.82,-266.7 743.16,-266.85 741.5,-266.95 739.83,-267 738.17,-267 736.5,-266.95 734.84,-266.85 733.18,-266.7 731.53,-266.51 729.88,-266.26 728.24,-265.97 726.6,-265.64 724.98,-265.25 723.37,-264.82 721.77,-264.35 720.19,-263.84 718.63,-263.29 717.1,-262.69 715.59,-262.06 714.11,-261.39 712.67,-260.69 711.27,-259.96 709.91,-259.2 708.6,-258.41 707.34,-257.59 706.15,-256.75 705.01,-255.89 703.95,-255.01 702.96,-254.11 702.05,-253.2 701.23,-252.28 700.5,-251.35 699.87,-250.41 699.34,-249.47 698.91,-248.53 698.6,-247.59 698.4,-246.65 698.33,-245.72 698.37,-244.8 698.55,-243.89 698.85,-242.99 699.28,-242.11 699.85,-241.25 700.54,-240.41 701.38,-239.59 702.34,-238.8 703.44,-238.04 704.66,-237.31 706.02,-236.61 707.49,-235.94 709.09,-235.31 710.8,-234.71 712.62,-234.16 714.55,-233.65 716.57,-233.18 718.68,-232.75 720.87,-232.36 723.13,-232.03 725.46,-231.74 727.85,-231.49 730.28,-231.3 732.74,-231.15 735.24,-231.05 737.74,-231 740.26,-231 742.76,-231.05"/>
<text text-anchor="middle" x="739" y="-245.3" font-family="Times,serif" font-size="14.00">Gmail</text>
</a>
</g>
</g>
<!-- yak_scraper -->
<g id="node8" class="node">
<title>yak_scraper</title>
<g id="a_node8"><a xlink:href="https://roamresearch.com/#/app/ArtOfGig/page/AaFxsbkdW" xlink:title="yak_scraper">
<polygon fill="none" stroke="blue" points="815,-138 713,-138 713,-102 815,-102 815,-138"/>
<text text-anchor="middle" x="764" y="-116.3" font-family="Times,serif" font-size="14.00">yak_scraper</text>
</a>
</g>
</g>
<!-- gmail&#45;&gt;yak_scraper -->
<g id="edge36" class="edge">
<title>gmail&#45;&gt;yak_scraper</title>
<path fill="none" stroke="black" d="M742.37,-230.87C746.55,-209.66 753.71,-173.28 758.64,-148.23"/>
<polygon fill="black" stroke="black" points="762.1,-148.75 760.6,-138.26 755.24,-147.4 762.1,-148.75"/>
<text text-anchor="middle" x="773.5" y="-195.8" font-family="Times,serif" font-size="14.00">Gmail</text>
<text text-anchor="middle" x="773.5" y="-180.8" font-family="Times,serif" font-size="14.00">API</text>
</g>
<!-- google_analytics -->
<g id="node2" class="node">
<title>google_analytics</title>
<g id="a_node2"><a xlink:href="https://roamresearch.com/#/app/ArtOfGig/page/gkim0kNQ8" xlink:title="Google\nAnalytics">
<polygon fill="none" stroke="blue" points="653.74,-407.19 657.54,-407.33 661.29,-407.55 665,-407.84 668.63,-408.21 672.18,-408.64 675.64,-409.14 678.98,-409.71 682.19,-410.35 685.27,-411.05 688.21,-411.81 690.98,-412.64 693.59,-413.52 696.02,-414.46 698.27,-415.45 700.34,-416.49 702.2,-417.58 703.88,-418.71 705.35,-419.89 706.61,-421.1 707.68,-422.35 708.54,-423.63 709.2,-424.94 709.66,-426.27 709.93,-427.62 710,-429 709.88,-430.38 709.58,-431.77 709.1,-433.17 708.46,-434.57 707.65,-435.97 706.68,-437.37 705.57,-438.75 704.32,-440.12 702.93,-441.48 701.42,-442.81 699.8,-444.12 698.08,-445.4 696.25,-446.65 694.34,-447.86 692.34,-449.04 690.27,-450.17 688.13,-451.26 685.93,-452.3 683.68,-453.29 681.38,-454.23 679.04,-455.11 676.67,-455.93 674.26,-456.7 671.83,-457.4 669.37,-458.03 666.9,-458.6 664.41,-459.11 661.9,-459.54 659.39,-459.9 656.87,-460.19 654.34,-460.41 651.8,-460.56 649.27,-460.63 646.73,-460.63 644.2,-460.56 641.66,-460.41 639.13,-460.19 636.61,-459.9 634.1,-459.54 631.59,-459.11 629.1,-458.6 626.63,-458.03 624.17,-457.4 621.74,-456.7 619.33,-455.93 616.96,-455.11 614.62,-454.23 612.32,-453.29 610.07,-452.3 607.87,-451.26 605.73,-450.17 603.66,-449.04 601.66,-447.86 599.75,-446.65 597.92,-445.4 596.2,-444.12 594.58,-442.81 593.07,-441.48 591.68,-440.12 590.43,-438.75 589.32,-437.37 588.35,-435.97 587.54,-434.57 586.9,-433.17 586.42,-431.77 586.12,-430.38 586,-429 586.07,-427.62 586.34,-426.27 586.8,-424.94 587.46,-423.63 588.32,-422.35 589.39,-421.1 590.65,-419.89 592.12,-418.71 593.8,-417.58 595.66,-416.49 597.73,-415.45 599.98,-414.46 602.41,-413.52 605.02,-412.64 607.79,-411.81 610.73,-411.05 613.81,-410.35 617.02,-409.71 620.36,-409.14 623.82,-408.64 627.37,-408.21 631,-407.84 634.71,-407.55 638.46,-407.33 642.26,-407.19 646.09,-407.11 649.91,-407.11 653.74,-407.19"/>
<text text-anchor="middle" x="648" y="-437.67" font-family="Times,serif" font-size="14.00">Google</text>
<text text-anchor="middle" x="648" y="-422.67" font-family="Times,serif" font-size="14.00">Analytics</text>
</a>
</g>
</g>
<!-- google_calendar -->
<g id="node3" class="node">
<title>google_calendar</title>
<g id="a_node3"><a xlink:href="https://roamresearch.com/#/app/ArtOfGig/page/5JAKKBvdi" xlink:title="Google\nCalendar">
<ellipse fill="none" stroke="green" cx="789" cy="-433.87" rx="57.07" ry="57.07"/>
<ellipse fill="none" stroke="green" cx="789" cy="-433.87" rx="61.05" ry="61.05"/>
<text text-anchor="middle" x="789" y="-437.67" font-family="Times,serif" font-size="14.00">Google</text>
<text text-anchor="middle" x="789" y="-422.67" font-family="Times,serif" font-size="14.00">Calendar</text>
</a>
</g>
</g>
<!-- google_calendar&#45;&gt;gmail -->
<g id="edge35" class="edge">
<title>google_calendar&#45;&gt;gmail</title>
<path fill="none" stroke="black" d="M773.04,-374.51C764.05,-341.62 753.25,-302.13 746.27,-276.58"/>
<polygon fill="black" stroke="black" points="749.62,-275.58 743.61,-266.86 742.87,-277.43 749.62,-275.58"/>
<text text-anchor="middle" x="813.5" y="-303.8" font-family="Times,serif" font-size="14.00">Notification and</text>
<text text-anchor="middle" x="813.5" y="-288.8" font-family="Times,serif" font-size="14.00">agenda emails</text>
</g>
<!-- zapier -->
<g id="node7" class="node">
<title>zapier</title>
<g id="a_node7"><a xlink:href="https://roamresearch.com/#/app/ArtOfGig/page/WW4JidMuQ" xlink:title="Zapier">
<polygon fill="none" stroke="blue" points="1324.04,-231.05 1326.72,-231.15 1329.37,-231.3 1331.99,-231.49 1334.55,-231.74 1337.05,-232.03 1339.49,-232.36 1341.84,-232.75 1344.11,-233.18 1346.28,-233.65 1348.35,-234.16 1350.3,-234.71 1352.14,-235.31 1353.86,-235.94 1355.45,-236.61 1356.9,-237.31 1358.22,-238.04 1359.4,-238.8 1360.43,-239.59 1361.33,-240.41 1362.08,-241.25 1362.68,-242.11 1363.15,-242.99 1363.47,-243.89 1363.66,-244.8 1363.71,-245.72 1363.63,-246.65 1363.42,-247.59 1363.08,-248.53 1362.62,-249.47 1362.05,-250.41 1361.37,-251.35 1360.59,-252.28 1359.71,-253.2 1358.73,-254.11 1357.67,-255.01 1356.52,-255.89 1355.31,-256.75 1354.02,-257.59 1352.67,-258.41 1351.26,-259.2 1349.8,-259.96 1348.29,-260.69 1346.74,-261.39 1345.16,-262.06 1343.54,-262.69 1341.89,-263.29 1340.21,-263.84 1338.52,-264.35 1336.8,-264.82 1335.07,-265.25 1333.32,-265.64 1331.57,-265.97 1329.8,-266.26 1328.03,-266.51 1326.25,-266.7 1324.47,-266.85 1322.68,-266.95 1320.89,-267 1319.11,-267 1317.32,-266.95 1315.53,-266.85 1313.75,-266.7 1311.97,-266.51 1310.2,-266.26 1308.43,-265.97 1306.68,-265.64 1304.93,-265.25 1303.2,-264.82 1301.48,-264.35 1299.79,-263.84 1298.11,-263.29 1296.46,-262.69 1294.84,-262.06 1293.26,-261.39 1291.71,-260.69 1290.2,-259.96 1288.74,-259.2 1287.33,-258.41 1285.98,-257.59 1284.69,-256.75 1283.48,-255.89 1282.33,-255.01 1281.27,-254.11 1280.29,-253.2 1279.41,-252.28 1278.63,-251.35 1277.95,-250.41 1277.38,-249.47 1276.92,-248.53 1276.58,-247.59 1276.37,-246.65 1276.29,-245.72 1276.34,-244.8 1276.53,-243.89 1276.85,-242.99 1277.32,-242.11 1277.92,-241.25 1278.67,-240.41 1279.57,-239.59 1280.6,-238.8 1281.78,-238.04 1283.1,-237.31 1284.55,-236.61 1286.14,-235.94 1287.86,-235.31 1289.7,-234.71 1291.65,-234.16 1293.72,-233.65 1295.89,-233.18 1298.16,-232.75 1300.51,-232.36 1302.95,-232.03 1305.45,-231.74 1308.01,-231.49 1310.63,-231.3 1313.28,-231.15 1315.96,-231.05 1318.65,-231 1321.35,-231 1324.04,-231.05"/>
<text text-anchor="middle" x="1320" y="-245.3" font-family="Times,serif" font-size="14.00">Zapier</text>
</a>
</g>
</g>
<!-- google_calendar&#45;&gt;zapier -->
<g id="edge33" class="edge">
<title>google_calendar&#45;&gt;zapier</title>
<path fill="none" stroke="black" d="M813.87,-377.71C824.02,-360.93 837.36,-344.02 854,-333 921.88,-288.04 1163.87,-262.95 1269.77,-253.91"/>
<polygon fill="black" stroke="black" points="1270.21,-257.39 1279.88,-253.06 1269.62,-250.41 1270.21,-257.39"/>
<text text-anchor="middle" x="1038.5" y="-303.8" font-family="Times,serif" font-size="14.00">Pulled by</text>
<text text-anchor="middle" x="1038.5" y="-288.8" font-family="Times,serif" font-size="14.00">Zapier</text>
</g>
<!-- registration_form -->
<g id="node4" class="node">
<title>registration_form</title>
<g id="a_node4"><a xlink:href="https://roamresearch.com/#/app/ArtOfGig/page/oG9FwDcRH" xlink:title="Registration\nForm">
<ellipse fill="none" stroke="green" cx="490" cy="-433.87" rx="74.48" ry="74.48"/>
<ellipse fill="none" stroke="green" cx="490" cy="-433.87" rx="78.49" ry="78.49"/>
<text text-anchor="middle" x="490" y="-437.67" font-family="Times,serif" font-size="14.00">Registration</text>
<text text-anchor="middle" x="490" y="-422.67" font-family="Times,serif" font-size="14.00">Form</text>
</a>
</g>
</g>
<!-- discord -->
<g id="node12" class="node">
<title>discord</title>
<g id="a_node12"><a xlink:href="https://roamresearch.com/#/app/ArtOfGig/page/AsI1N4yGZ" xlink:title="Discord">
<polygon fill="none" stroke="green" points="856.56,-0.05 859.58,-0.15 862.57,-0.3 865.51,-0.49 868.4,-0.74 871.23,-1.03 873.97,-1.36 876.63,-1.75 879.18,-2.18 881.63,-2.65 883.96,-3.16 886.17,-3.71 888.24,-4.31 890.18,-4.94 891.97,-5.61 893.61,-6.31 895.09,-7.04 896.42,-7.8 897.59,-8.59 898.6,-9.41 899.44,-10.25 900.13,-11.11 900.65,-11.99 901.02,-12.89 901.23,-13.8 901.29,-14.72 901.19,-15.65 900.95,-16.59 900.57,-17.53 900.06,-18.47 899.42,-19.41 898.65,-20.35 897.76,-21.28 896.77,-22.2 895.67,-23.11 894.47,-24.01 893.18,-24.89 891.81,-25.75 890.36,-26.59 888.84,-27.41 887.25,-28.2 885.6,-28.96 883.9,-29.69 882.16,-30.39 880.37,-31.06 878.54,-31.69 876.68,-32.29 874.79,-32.84 872.88,-33.35 870.94,-33.82 868.99,-34.25 867.02,-34.64 865.04,-34.97 863.05,-35.26 861.05,-35.51 859.05,-35.7 857.04,-35.85 855.02,-35.95 853.01,-36 850.99,-36 848.98,-35.95 846.96,-35.85 844.95,-35.7 842.95,-35.51 840.95,-35.26 838.96,-34.97 836.98,-34.64 835.01,-34.25 833.06,-33.82 831.12,-33.35 829.21,-32.84 827.32,-32.29 825.46,-31.69 823.63,-31.06 821.84,-30.39 820.1,-29.69 818.4,-28.96 816.75,-28.2 815.16,-27.41 813.64,-26.59 812.19,-25.75 810.82,-24.89 809.53,-24.01 808.33,-23.11 807.23,-22.2 806.24,-21.28 805.35,-20.35 804.58,-19.41 803.94,-18.47 803.43,-17.53 803.05,-16.59 802.81,-15.65 802.71,-14.72 802.77,-13.8 802.98,-12.89 803.35,-11.99 803.87,-11.11 804.56,-10.25 805.4,-9.41 806.41,-8.59 807.58,-7.8 808.91,-7.04 810.39,-6.31 812.03,-5.61 813.82,-4.94 815.76,-4.31 817.83,-3.71 820.04,-3.16 822.37,-2.65 824.82,-2.18 827.37,-1.75 830.03,-1.36 832.77,-1.03 835.6,-0.74 838.49,-0.49 841.43,-0.3 844.42,-0.15 847.44,-0.05 850.48,0 853.52,0 856.56,-0.05"/>
<text text-anchor="middle" x="852" y="-14.3" font-family="Times,serif" font-size="14.00">Discord</text>
</a>
</g>
</g>
<!-- registration_form&#45;&gt;discord -->
<g id="edge6" class="edge">
<title>registration_form&#45;&gt;discord</title>
<path fill="none" stroke="red" d="M469.21,-358.06C450.47,-272.52 436.27,-134.04 513,-54 532.12,-34.05 703.84,-24.58 795.27,-20.92"/>
<polygon fill="red" stroke="red" points="795.62,-24.41 805.47,-20.52 795.34,-17.41 795.62,-24.41"/>
<text text-anchor="middle" x="493.5" y="-188.3" font-family="Times,serif" font-size="14.00">Invite link</text>
</g>
<!-- reboot_deck -->
<g id="node5" class="node">
<title>reboot_deck</title>
<g id="a_node5"><a xlink:href="https://roamresearch.com/#/app/ArtOfGig/page/s7km8fEQp" xlink:title="&quot;Don&#39;t Waste the\nReboot&quot; deck">
<ellipse fill="none" stroke="green" cx="969" cy="-433.87" rx="96.75" ry="96.75"/>
<ellipse fill="none" stroke="green" cx="969" cy="-433.87" rx="100.75" ry="100.75"/>
<text text-anchor="middle" x="969" y="-437.67" font-family="Times,serif" font-size="14.00">&quot;Don&#39;t Waste the</text>
<text text-anchor="middle" x="969" y="-422.67" font-family="Times,serif" font-size="14.00">Reboot&quot; deck</text>
</a>
</g>
</g>
<!-- home_deck -->
<g id="node6" class="node">
<title>home_deck</title>
<g id="a_node6"><a xlink:href="https://roamresearch.com/#/app/ArtOfGig/page/sGxc8YzrD" xlink:title="&quot;The New Old\nHome&quot; deck">
<ellipse fill="none" stroke="green" cx="1174" cy="-433.87" rx="82.05" ry="82.05"/>
<ellipse fill="none" stroke="green" cx="1174" cy="-433.87" rx="86.05" ry="86.05"/>
<text text-anchor="middle" x="1174" y="-437.67" font-family="Times,serif" font-size="14.00">&quot;The New Old</text>
<text text-anchor="middle" x="1174" y="-422.67" font-family="Times,serif" font-size="14.00">Home&quot; deck</text>
</a>
</g>
</g>
<!-- twitter -->
<g id="node15" class="node">
<title>twitter</title>
<g id="a_node15"><a xlink:href="https://roamresearch.com/#/app/ArtOfGig/page/ssp9sORuP" xlink:title="Twitter">
<polygon fill="none" stroke="green" points="1232.4,-102.05 1235.31,-102.15 1238.19,-102.3 1241.03,-102.49 1243.81,-102.74 1246.54,-103.03 1249.18,-103.36 1251.74,-103.75 1254.21,-104.18 1256.57,-104.65 1258.82,-105.16 1260.94,-105.71 1262.94,-106.31 1264.81,-106.94 1266.53,-107.61 1268.11,-108.31 1269.55,-109.04 1270.83,-109.8 1271.95,-110.59 1272.93,-111.41 1273.74,-112.25 1274.4,-113.11 1274.91,-113.99 1275.26,-114.89 1275.46,-115.8 1275.52,-116.72 1275.43,-117.65 1275.2,-118.59 1274.83,-119.53 1274.34,-120.47 1273.72,-121.41 1272.98,-122.35 1272.12,-123.28 1271.16,-124.2 1270.1,-125.11 1268.95,-126.01 1267.7,-126.89 1266.38,-127.75 1264.98,-128.59 1263.51,-129.41 1261.98,-130.2 1260.4,-130.96 1258.76,-131.69 1257.07,-132.39 1255.35,-133.06 1253.59,-133.69 1251.79,-134.29 1249.97,-134.84 1248.13,-135.35 1246.26,-135.82 1244.38,-136.25 1242.48,-136.64 1240.58,-136.97 1238.66,-137.26 1236.73,-137.51 1234.8,-137.7 1232.86,-137.85 1230.92,-137.95 1228.97,-138 1227.03,-138 1225.08,-137.95 1223.14,-137.85 1221.2,-137.7 1219.27,-137.51 1217.34,-137.26 1215.42,-136.97 1213.52,-136.64 1211.62,-136.25 1209.74,-135.82 1207.87,-135.35 1206.03,-134.84 1204.21,-134.29 1202.41,-133.69 1200.65,-133.06 1198.93,-132.39 1197.24,-131.69 1195.6,-130.96 1194.02,-130.2 1192.49,-129.41 1191.02,-128.59 1189.62,-127.75 1188.3,-126.89 1187.05,-126.01 1185.9,-125.11 1184.84,-124.2 1183.88,-123.28 1183.02,-122.35 1182.28,-121.41 1181.66,-120.47 1181.17,-119.53 1180.8,-118.59 1180.57,-117.65 1180.48,-116.72 1180.54,-115.8 1180.74,-114.89 1181.09,-113.99 1181.6,-113.11 1182.26,-112.25 1183.07,-111.41 1184.05,-110.59 1185.17,-109.8 1186.45,-109.04 1187.89,-108.31 1189.47,-107.61 1191.19,-106.94 1193.06,-106.31 1195.06,-105.71 1197.18,-105.16 1199.43,-104.65 1201.79,-104.18 1204.26,-103.75 1206.82,-103.36 1209.46,-103.03 1212.19,-102.74 1214.97,-102.49 1217.81,-102.3 1220.69,-102.15 1223.6,-102.05 1226.53,-102 1229.47,-102 1232.4,-102.05"/>
<text text-anchor="middle" x="1228" y="-116.3" font-family="Times,serif" font-size="14.00">Twitter</text>
</a>
</g>
</g>
<!-- zapier&#45;&gt;twitter -->
<g id="edge34" class="edge">
<title>zapier&#45;&gt;twitter</title>
<path fill="none" stroke="black" d="M1307.21,-231.33C1301.58,-223.92 1294.91,-215.06 1289,-207 1273.99,-186.5 1257.32,-162.95 1245.21,-145.68"/>
<polygon fill="black" stroke="black" points="1247.92,-143.46 1239.32,-137.27 1242.19,-147.47 1247.92,-143.46"/>
<text text-anchor="middle" x="1333.5" y="-195.8" font-family="Times,serif" font-size="14.00">Tweet about</text>
<text text-anchor="middle" x="1333.5" y="-180.8" font-family="Times,serif" font-size="14.00">new content</text>
</g>
<!-- yak_scraper&#45;&gt;discord -->
<g id="edge13" class="edge">
<title>yak_scraper&#45;&gt;discord</title>
<path fill="none" stroke="red" d="M815.07,-114.28C855.09,-109.4 906.08,-100.16 919,-84 927.33,-73.59 925.91,-65.4 919,-54 913.54,-44.98 904.91,-38.18 895.63,-33.09"/>
<polygon fill="red" stroke="red" points="897.15,-29.93 886.63,-28.71 894.09,-36.23 897.15,-29.93"/>
<text text-anchor="middle" x="989" y="-72.8" font-family="Times,serif" font-size="14.00">Requested info or</text>
<text text-anchor="middle" x="989" y="-57.8" font-family="Times,serif" font-size="14.00">acknowledgement</text>
</g>
<!-- yak_scraper&#45;&gt;discord -->
<g id="edge37" class="edge">
<title>yak_scraper&#45;&gt;discord</title>
<path fill="none" stroke="black" d="M759.77,-101.95C757.31,-87.83 756.33,-67.9 766,-54 774.52,-41.74 788.14,-33.77 802.04,-28.59"/>
<polygon fill="black" stroke="black" points="803.25,-31.88 811.66,-25.43 801.06,-25.23 803.25,-31.88"/>
<text text-anchor="middle" x="796" y="-72.8" font-family="Times,serif" font-size="14.00">Post in</text>
<text text-anchor="middle" x="796" y="-57.8" font-family="Times,serif" font-size="14.00">#events</text>
</g>
<!-- gigayak -->
<g id="node9" class="node">
<title>gigayak</title>
<g id="a_node9"><a xlink:href="https://roamresearch.com/#/app/ArtOfGig/page/_1voFfg7g" xlink:title="gigayak">
<polygon fill="none" stroke="blue" points="695,-138 623,-138 623,-102 695,-102 695,-138"/>
<text text-anchor="middle" x="659" y="-116.3" font-family="Times,serif" font-size="14.00">gigayak</text>
</a>
</g>
</g>
<!-- gigayak&#45;&gt;discord -->
<g id="edge14" class="edge">
<title>gigayak&#45;&gt;discord</title>
<path fill="none" stroke="red" d="M636.57,-101.86C631.48,-96.73 626.76,-90.67 624,-84 618.9,-71.68 615.32,-64.12 624,-54 645.51,-28.93 733.97,-21.64 794.16,-19.62"/>
<polygon fill="red" stroke="red" points="794.42,-23.12 804.31,-19.32 794.21,-16.12 794.42,-23.12"/>
<text text-anchor="middle" x="689" y="-72.8" font-family="Times,serif" font-size="14.00">Requested info or</text>
<text text-anchor="middle" x="689" y="-57.8" font-family="Times,serif" font-size="14.00">acknowledgement</text>
</g>
<!-- welcome_bot -->
<g id="node10" class="node">
<title>welcome_bot</title>
<g id="a_node10"><a xlink:href="https://roamresearch.com/#/app/ArtOfGig/page/S_Xkw1vVi" xlink:title="welcome_bot">
<polygon fill="none" stroke="blue" points="1487.5,-138 1378.5,-138 1378.5,-102 1487.5,-102 1487.5,-138"/>
<text text-anchor="middle" x="1433" y="-116.3" font-family="Times,serif" font-size="14.00">welcome_bot</text>
</a>
</g>
</g>
<!-- welcome_bot&#45;&gt;discord -->
<g id="edge9" class="edge">
<title>welcome_bot&#45;&gt;discord</title>
<path fill="none" stroke="black" d="M1482.57,-101.93C1489.91,-97.25 1496.51,-91.37 1501,-84 1507.94,-72.62 1510.17,-63.68 1501,-54 1480.81,-32.69 1064.62,-22.9 909.56,-19.98"/>
<polygon fill="black" stroke="black" points="909.35,-16.48 899.29,-19.79 909.22,-23.47 909.35,-16.48"/>
<text text-anchor="middle" x="1572.5" y="-72.8" font-family="Times,serif" font-size="14.00">Welcome message</text>
<text text-anchor="middle" x="1572.5" y="-57.8" font-family="Times,serif" font-size="14.00">series</text>
</g>
<!-- yakyak -->
<g id="node11" class="node">
<title>yakyak</title>
<g id="a_node11"><a xlink:href="https://roamresearch.com/#/app/ArtOfGig/page/Q1LoZ_dE4" xlink:title="yakyak">
<polygon fill="none" stroke="blue" points="1360,-138 1294,-138 1294,-102 1360,-102 1360,-138"/>
<text text-anchor="middle" x="1327" y="-116.3" font-family="Times,serif" font-size="14.00">yakyak</text>
</a>
</g>
</g>
<!-- yakyak&#45;&gt;discord -->
<g id="edge10" class="edge">
<title>yakyak&#45;&gt;discord</title>
<path fill="none" stroke="black" d="M1300.91,-101.99C1295.77,-99.07 1290.31,-96.25 1285,-94 1269.31,-87.36 1262.15,-93.48 1248,-84 1234.04,-74.65 1239.7,-62.13 1225,-54 1172.39,-24.91 1001.23,-19.58 910.19,-18.87"/>
<polygon fill="black" stroke="black" points="910.06,-15.37 900.04,-18.8 910.01,-22.37 910.06,-15.37"/>
<text text-anchor="middle" x="1300" y="-72.8" font-family="Times,serif" font-size="14.00">Prune inactive</text>
<text text-anchor="middle" x="1300" y="-57.8" font-family="Times,serif" font-size="14.00">users</text>
</g>
<!-- discord&#45;&gt;yak_scraper -->
<g id="edge11" class="edge">
<title>discord&#45;&gt;yak_scraper</title>
<path fill="none" stroke="red" d="M849.76,-36.2C847.14,-50.41 841.58,-70.39 830,-84 826.07,-88.62 821.37,-92.72 816.32,-96.34"/>
<polygon fill="red" stroke="red" points="814.08,-93.62 807.56,-101.97 817.86,-99.51 814.08,-93.62"/>
<text text-anchor="middle" x="880" y="-72.8" font-family="Times,serif" font-size="14.00">User</text>
<text text-anchor="middle" x="880" y="-57.8" font-family="Times,serif" font-size="14.00">command</text>
</g>
<!-- discord&#45;&gt;gigayak -->
<g id="edge12" class="edge">
<title>discord&#45;&gt;gigayak</title>
<path fill="none" stroke="red" d="M805.54,-20.58C719.52,-23.99 542.47,-33.45 524,-54 515.09,-63.92 515.84,-73.46 524,-84 534.96,-98.16 578.31,-107.64 612.98,-113.12"/>
<polygon fill="red" stroke="red" points="612.54,-116.6 622.95,-114.63 613.58,-109.67 612.54,-116.6"/>
<text text-anchor="middle" x="559" y="-72.8" font-family="Times,serif" font-size="14.00">User</text>
<text text-anchor="middle" x="559" y="-57.8" font-family="Times,serif" font-size="14.00">command</text>
</g>
<!-- discord&#45;&gt;welcome_bot -->
<g id="edge7" class="edge">
<title>discord&#45;&gt;welcome_bot</title>
<path fill="none" stroke="black" d="M898.95,-20.1C1015.72,-23.14 1312.72,-32.88 1352,-54 1366.8,-61.96 1362.48,-72.8 1375,-84 1380.01,-88.48 1385.66,-92.7 1391.44,-96.56"/>
<polygon fill="black" stroke="black" points="1389.59,-99.53 1399.91,-101.94 1393.34,-93.62 1389.59,-99.53"/>
<text text-anchor="middle" x="1438" y="-72.8" font-family="Times,serif" font-size="14.00">New user</text>
<text text-anchor="middle" x="1438" y="-57.8" font-family="Times,serif" font-size="14.00">notification / data</text>
</g>
<!-- discord&#45;&gt;yakyak -->
<g id="edge8" class="edge">
<title>discord&#45;&gt;yakyak</title>
<path fill="none" stroke="black" d="M898.29,-20.79C941.2,-23.84 1006.04,-32.03 1058,-54 1078.8,-62.79 1077.73,-76.41 1099,-84 1176.97,-111.82 1205.8,-69.91 1285,-94 1287.82,-94.86 1290.64,-95.94 1293.42,-97.17"/>
<polygon fill="black" stroke="black" points="1292.11,-100.43 1302.61,-101.83 1295.27,-94.19 1292.11,-100.43"/>
<text text-anchor="middle" x="1162" y="-72.8" font-family="Times,serif" font-size="14.00">New user</text>
<text text-anchor="middle" x="1162" y="-57.8" font-family="Times,serif" font-size="14.00">notification / data</text>
</g>
<!-- substack -->
<g id="node13" class="node">
<title>substack</title>
<g id="a_node13"><a xlink:href="https://roamresearch.com/#/app/ArtOfGig/page/kMaCo6Xc-" xlink:title="Substack">
<polygon fill="none" stroke="green" points="1277.23,-1103.19 1280.69,-1103.29 1284.12,-1103.44 1287.5,-1103.63 1290.81,-1103.88 1294.05,-1104.17 1297.19,-1104.51 1300.24,-1104.89 1303.17,-1105.32 1305.98,-1105.79 1308.65,-1106.3 1311.18,-1106.86 1313.56,-1107.45 1315.78,-1108.08 1317.83,-1108.75 1319.71,-1109.45 1321.41,-1110.18 1322.93,-1110.94 1324.27,-1111.74 1325.43,-1112.55 1326.4,-1113.39 1327.19,-1114.25 1327.79,-1115.13 1328.21,-1116.03 1328.45,-1116.94 1328.51,-1117.86 1328.41,-1118.79 1328.13,-1119.73 1327.7,-1120.67 1327.11,-1121.61 1326.37,-1122.56 1325.49,-1123.49 1324.48,-1124.42 1323.33,-1125.35 1322.07,-1126.26 1320.7,-1127.15 1319.22,-1128.03 1317.65,-1128.9 1315.98,-1129.74 1314.24,-1130.55 1312.42,-1131.34 1310.53,-1132.1 1308.58,-1132.84 1306.58,-1133.54 1304.53,-1134.2 1302.43,-1134.84 1300.3,-1135.43 1298.13,-1135.98 1295.94,-1136.5 1293.72,-1136.97 1291.48,-1137.4 1289.23,-1137.78 1286.96,-1138.12 1284.67,-1138.41 1282.38,-1138.65 1280.08,-1138.85 1277.78,-1139 1275.47,-1139.09 1273.16,-1139.14 1270.84,-1139.14 1268.53,-1139.09 1266.22,-1139 1263.92,-1138.85 1261.62,-1138.65 1259.33,-1138.41 1257.04,-1138.12 1254.77,-1137.78 1252.52,-1137.4 1250.28,-1136.97 1248.06,-1136.5 1245.87,-1135.98 1243.7,-1135.43 1241.57,-1134.84 1239.47,-1134.2 1237.42,-1133.54 1235.42,-1132.84 1233.47,-1132.1 1231.58,-1131.34 1229.76,-1130.55 1228.02,-1129.74 1226.35,-1128.9 1224.78,-1128.03 1223.3,-1127.15 1221.93,-1126.26 1220.67,-1125.35 1219.52,-1124.42 1218.51,-1123.49 1217.63,-1122.56 1216.89,-1121.61 1216.3,-1120.67 1215.87,-1119.73 1215.59,-1118.79 1215.49,-1117.86 1215.55,-1116.94 1215.79,-1116.03 1216.21,-1115.13 1216.81,-1114.25 1217.6,-1113.39 1218.57,-1112.55 1219.73,-1111.74 1221.07,-1110.94 1222.59,-1110.18 1224.29,-1109.45 1226.17,-1108.75 1228.22,-1108.08 1230.44,-1107.45 1232.82,-1106.86 1235.35,-1106.3 1238.02,-1105.79 1240.83,-1105.32 1243.76,-1104.89 1246.81,-1104.51 1249.95,-1104.17 1253.19,-1103.88 1256.5,-1103.63 1259.88,-1103.44 1263.31,-1103.29 1266.77,-1103.19 1270.25,-1103.14 1273.75,-1103.14 1277.23,-1103.19"/>
<text text-anchor="middle" x="1272" y="-1117.44" font-family="Times,serif" font-size="14.00">Substack</text>
</a>
</g>
</g>
<!-- rss_applet -->
<g id="node19" class="node">
<title>rss_applet</title>
<g id="a_node19"><a xlink:href="https://roamresearch.com/#/app/ArtOfGig/page/ucCeiIsih" xlink:title="create&#45;post\nApplets">
<polygon fill="none" stroke="blue" points="1186.5,-952.36 1089.5,-952.36 1089.5,-914.36 1186.5,-914.36 1186.5,-952.36"/>
<text text-anchor="middle" x="1138" y="-937.16" font-family="Times,serif" font-size="14.00">create&#45;post</text>
<text text-anchor="middle" x="1138" y="-922.16" font-family="Times,serif" font-size="14.00">Applets</text>
</a>
</g>
</g>
<!-- substack&#45;&gt;rss_applet -->
<g id="edge24" class="edge">
<title>substack&#45;&gt;rss_applet</title>
<path fill="none" stroke="red" d="M1265.35,-1102.76C1253.24,-1071.73 1227.3,-1008.46 1211,-991.36 1205.79,-985.89 1202.25,-987.6 1196,-983.36 1185.34,-976.14 1174.38,-967.3 1164.89,-959.12"/>
<polygon fill="red" stroke="red" points="1167.13,-956.43 1157.3,-952.46 1162.51,-961.69 1167.13,-956.43"/>
<text text-anchor="middle" x="1261" y="-1010.16" font-family="Times,serif" font-size="14.00">Pulled</text>
<text text-anchor="middle" x="1261" y="-995.16" font-family="Times,serif" font-size="14.00">by IFTTT</text>
</g>
<!-- twitter_applets -->
<g id="node20" class="node">
<title>twitter_applets</title>
<g id="a_node20"><a xlink:href="https://roamresearch.com/#/app/ArtOfGig/page/j7DInC9sg" xlink:title="Twitter\nApplets">
<polygon fill="none" stroke="blue" points="1275.5,-952.36 1204.5,-952.36 1204.5,-914.36 1275.5,-914.36 1275.5,-952.36"/>
<text text-anchor="middle" x="1240" y="-937.16" font-family="Times,serif" font-size="14.00">Twitter</text>
<text text-anchor="middle" x="1240" y="-922.16" font-family="Times,serif" font-size="14.00">Applets</text>
</a>
</g>
</g>
<!-- substack&#45;&gt;twitter_applets -->
<g id="edge29" class="edge">
<title>substack&#45;&gt;twitter_applets</title>
<path fill="none" stroke="red" d="M1282.01,-1103.26C1295.58,-1078.04 1316.34,-1029.42 1300,-991.36 1294.68,-978.96 1285.19,-967.99 1275.3,-959.07"/>
<polygon fill="red" stroke="red" points="1277.26,-956.14 1267.36,-952.36 1272.75,-961.49 1277.26,-956.14"/>
<text text-anchor="middle" x="1338" y="-1010.16" font-family="Times,serif" font-size="14.00">Pulled</text>
<text text-anchor="middle" x="1338" y="-995.16" font-family="Times,serif" font-size="14.00">by IFTTT</text>
</g>
<!-- member_feeds -->
<g id="node14" class="node">
<title>member_feeds</title>
<g id="a_node14"><a xlink:href="https://roamresearch.com/#/app/ArtOfGig/page/RLF445t5m" xlink:title="Member RSS\nFeeds">
<ellipse fill="none" stroke="green" cx="1105" cy="-1121.14" rx="77.57" ry="77.57"/>
<ellipse fill="none" stroke="green" cx="1105" cy="-1121.14" rx="81.56" ry="81.56"/>
<text text-anchor="middle" x="1105" y="-1124.94" font-family="Times,serif" font-size="14.00">Member RSS</text>
<text text-anchor="middle" x="1105" y="-1109.94" font-family="Times,serif" font-size="14.00">Feeds</text>
</a>
</g>
</g>
<!-- member_feeds&#45;&gt;rss_applet -->
<g id="edge25" class="edge">
<title>member_feeds&#45;&gt;rss_applet</title>
<path fill="none" stroke="red" d="M1056.25,-1055.17C1046.12,-1033.61 1042.18,-1010.3 1056,-991.36 1062.88,-981.94 1070.82,-989.06 1081,-983.36 1092.39,-976.99 1103.58,-968.12 1112.99,-959.68"/>
<polygon fill="red" stroke="red" points="1115.5,-962.12 1120.43,-952.75 1110.73,-957 1115.5,-962.12"/>
<text text-anchor="middle" x="1089" y="-1010.16" font-family="Times,serif" font-size="14.00">Pulled</text>
<text text-anchor="middle" x="1089" y="-995.16" font-family="Times,serif" font-size="14.00">by IFTTT</text>
</g>
<!-- member_feeds&#45;&gt;twitter_applets -->
<g id="edge30" class="edge">
<title>member_feeds&#45;&gt;twitter_applets</title>
<path fill="none" stroke="red" d="M1119.89,-1040.39C1125.55,-1018.46 1132.68,-998.68 1141,-991.36 1159.55,-975.05 1174.23,-995.03 1196,-983.36 1206.08,-977.96 1215,-969.3 1222.13,-960.75"/>
<polygon fill="red" stroke="red" points="1225.02,-962.74 1228.39,-952.7 1219.49,-958.44 1225.02,-962.74"/>
<text text-anchor="middle" x="1174" y="-1010.16" font-family="Times,serif" font-size="14.00">Pulled</text>
<text text-anchor="middle" x="1174" y="-995.16" font-family="Times,serif" font-size="14.00">by IFTTT</text>
</g>
<!-- facebook -->
<g id="node16" class="node">
<title>facebook</title>
<g id="a_node16"><a xlink:href="https://roamresearch.com/#/app/ArtOfGig/page/WZKSWTGz5" xlink:title="Facebook">
<polygon fill="none" stroke="green" points="1051.31,-1262.85 1054.83,-1262.95 1058.31,-1263.1 1061.74,-1263.3 1065.1,-1263.54 1068.39,-1263.83 1071.59,-1264.17 1074.68,-1264.55 1077.66,-1264.98 1080.51,-1265.45 1083.22,-1265.96 1085.79,-1266.52 1088.21,-1267.11 1090.46,-1267.74 1092.54,-1268.41 1094.45,-1269.11 1096.18,-1269.84 1097.73,-1270.61 1099.09,-1271.4 1100.27,-1272.21 1101.25,-1273.05 1102.05,-1273.91 1102.66,-1274.79 1103.09,-1275.69 1103.33,-1276.6 1103.4,-1277.52 1103.29,-1278.45 1103.01,-1279.39 1102.57,-1280.33 1101.97,-1281.28 1101.22,-1282.22 1100.33,-1283.15 1099.3,-1284.09 1098.14,-1285.01 1096.86,-1285.92 1095.46,-1286.81 1093.96,-1287.7 1092.36,-1288.56 1090.67,-1289.4 1088.9,-1290.21 1087.05,-1291 1085.13,-1291.77 1083.15,-1292.5 1081.12,-1293.2 1079.03,-1293.87 1076.91,-1294.5 1074.74,-1295.09 1072.54,-1295.64 1070.31,-1296.16 1068.06,-1296.63 1065.79,-1297.06 1063.5,-1297.44 1061.19,-1297.78 1058.87,-1298.07 1056.54,-1298.31 1054.21,-1298.51 1051.87,-1298.66 1049.52,-1298.76 1047.17,-1298.8 1044.83,-1298.8 1042.48,-1298.76 1040.13,-1298.66 1037.79,-1298.51 1035.46,-1298.31 1033.13,-1298.07 1030.81,-1297.78 1028.5,-1297.44 1026.21,-1297.06 1023.94,-1296.63 1021.69,-1296.16 1019.46,-1295.64 1017.26,-1295.09 1015.09,-1294.5 1012.97,-1293.87 1010.88,-1293.2 1008.85,-1292.5 1006.87,-1291.77 1004.95,-1291 1003.1,-1290.21 1001.33,-1289.4 999.64,-1288.56 998.04,-1287.7 996.54,-1286.81 995.14,-1285.92 993.86,-1285.01 992.7,-1284.09 991.67,-1283.15 990.78,-1282.22 990.03,-1281.28 989.43,-1280.33 988.99,-1279.39 988.71,-1278.45 988.6,-1277.52 988.67,-1276.6 988.91,-1275.69 989.34,-1274.79 989.95,-1273.91 990.75,-1273.05 991.73,-1272.21 992.91,-1271.4 994.27,-1270.61 995.82,-1269.84 997.55,-1269.11 999.46,-1268.41 1001.54,-1267.74 1003.79,-1267.11 1006.21,-1266.52 1008.78,-1265.96 1011.49,-1265.45 1014.34,-1264.98 1017.32,-1264.55 1020.41,-1264.17 1023.61,-1263.83 1026.9,-1263.54 1030.26,-1263.3 1033.69,-1263.1 1037.17,-1262.95 1040.69,-1262.85 1044.23,-1262.8 1047.77,-1262.8 1051.31,-1262.85"/>
<text text-anchor="middle" x="1046" y="-1277.1" font-family="Times,serif" font-size="14.00">Facebook</text>
</a>
</g>
</g>
<!-- linkedin -->
<g id="node17" class="node">
<title>linkedin</title>
<g id="a_node17"><a xlink:href="https://roamresearch.com/#/app/ArtOfGig/page/M17w4lZJB" xlink:title="LinkedIn">
<polygon fill="none" stroke="green" points="1230.08,-1262.85 1233.44,-1262.95 1236.76,-1263.1 1240.04,-1263.3 1243.26,-1263.54 1246.4,-1263.83 1249.46,-1264.17 1252.41,-1264.55 1255.26,-1264.98 1257.98,-1265.45 1260.58,-1265.96 1263.03,-1266.52 1265.34,-1267.11 1267.49,-1267.74 1269.49,-1268.41 1271.31,-1269.11 1272.96,-1269.84 1274.44,-1270.61 1275.74,-1271.4 1276.87,-1272.21 1277.81,-1273.05 1278.57,-1273.91 1279.16,-1274.79 1279.56,-1275.69 1279.8,-1276.6 1279.86,-1277.52 1279.76,-1278.45 1279.49,-1279.39 1279.07,-1280.33 1278.5,-1281.28 1277.78,-1282.22 1276.93,-1283.15 1275.94,-1284.09 1274.83,-1285.01 1273.61,-1285.92 1272.27,-1286.81 1270.84,-1287.7 1269.31,-1288.56 1267.7,-1289.4 1266,-1290.21 1264.23,-1291 1262.4,-1291.77 1260.51,-1292.5 1258.57,-1293.2 1256.57,-1293.87 1254.54,-1294.5 1252.47,-1295.09 1250.37,-1295.64 1248.24,-1296.16 1246.09,-1296.63 1243.91,-1297.06 1241.72,-1297.44 1239.52,-1297.78 1237.3,-1298.07 1235.08,-1298.31 1232.85,-1298.51 1230.61,-1298.66 1228.37,-1298.76 1226.12,-1298.8 1223.88,-1298.8 1221.63,-1298.76 1219.39,-1298.66 1217.15,-1298.51 1214.92,-1298.31 1212.7,-1298.07 1210.48,-1297.78 1208.28,-1297.44 1206.09,-1297.06 1203.91,-1296.63 1201.76,-1296.16 1199.63,-1295.64 1197.53,-1295.09 1195.46,-1294.5 1193.43,-1293.87 1191.43,-1293.2 1189.49,-1292.5 1187.6,-1291.77 1185.77,-1291 1184,-1290.21 1182.3,-1289.4 1180.69,-1288.56 1179.16,-1287.7 1177.73,-1286.81 1176.39,-1285.92 1175.17,-1285.01 1174.06,-1284.09 1173.07,-1283.15 1172.22,-1282.22 1171.5,-1281.28 1170.93,-1280.33 1170.51,-1279.39 1170.24,-1278.45 1170.14,-1277.52 1170.2,-1276.6 1170.44,-1275.69 1170.84,-1274.79 1171.43,-1273.91 1172.19,-1273.05 1173.13,-1272.21 1174.26,-1271.4 1175.56,-1270.61 1177.04,-1269.84 1178.69,-1269.11 1180.51,-1268.41 1182.51,-1267.74 1184.66,-1267.11 1186.97,-1266.52 1189.42,-1265.96 1192.02,-1265.45 1194.74,-1264.98 1197.59,-1264.55 1200.54,-1264.17 1203.6,-1263.83 1206.74,-1263.54 1209.96,-1263.3 1213.24,-1263.1 1216.56,-1262.95 1219.92,-1262.85 1223.31,-1262.8 1226.69,-1262.8 1230.08,-1262.85"/>
<text text-anchor="middle" x="1225" y="-1277.1" font-family="Times,serif" font-size="14.00">LinkedIn</text>
</a>
</g>
</g>
<!-- glitch -->
<g id="node18" class="node">
<title>glitch</title>
<g id="a_node18"><a xlink:href="https://roamresearch.com/#/app/ArtOfGig/page/bTxU0ABQS" xlink:title="Glitch">
<polygon fill="none" stroke="blue" points="1366.76,-1262.85 1369.26,-1262.95 1371.72,-1263.1 1374.15,-1263.3 1376.54,-1263.54 1378.87,-1263.83 1381.13,-1264.17 1383.32,-1264.55 1385.43,-1264.98 1387.45,-1265.45 1389.38,-1265.96 1391.2,-1266.52 1392.91,-1267.11 1394.51,-1267.74 1395.98,-1268.41 1397.34,-1269.11 1398.56,-1269.84 1399.66,-1270.61 1400.62,-1271.4 1401.46,-1272.21 1402.15,-1273.05 1402.72,-1273.91 1403.15,-1274.79 1403.45,-1275.69 1403.63,-1276.6 1403.67,-1277.52 1403.6,-1278.45 1403.4,-1279.39 1403.09,-1280.33 1402.66,-1281.28 1402.13,-1282.22 1401.5,-1283.15 1400.77,-1284.09 1399.95,-1285.01 1399.04,-1285.92 1398.05,-1286.81 1396.99,-1287.7 1395.85,-1288.56 1394.66,-1289.4 1393.4,-1290.21 1392.09,-1291 1390.73,-1291.77 1389.33,-1292.5 1387.89,-1293.2 1386.41,-1293.87 1384.9,-1294.5 1383.37,-1295.09 1381.81,-1295.64 1380.23,-1296.16 1378.63,-1296.63 1377.02,-1297.06 1375.4,-1297.44 1373.76,-1297.78 1372.12,-1298.07 1370.47,-1298.31 1368.82,-1298.51 1367.16,-1298.66 1365.5,-1298.76 1363.83,-1298.8 1362.17,-1298.8 1360.5,-1298.76 1358.84,-1298.66 1357.18,-1298.51 1355.53,-1298.31 1353.88,-1298.07 1352.24,-1297.78 1350.6,-1297.44 1348.98,-1297.06 1347.37,-1296.63 1345.77,-1296.16 1344.19,-1295.64 1342.63,-1295.09 1341.1,-1294.5 1339.59,-1293.87 1338.11,-1293.2 1336.67,-1292.5 1335.27,-1291.77 1333.91,-1291 1332.6,-1290.21 1331.34,-1289.4 1330.15,-1288.56 1329.01,-1287.7 1327.95,-1286.81 1326.96,-1285.92 1326.05,-1285.01 1325.23,-1284.09 1324.5,-1283.15 1323.87,-1282.22 1323.34,-1281.28 1322.91,-1280.33 1322.6,-1279.39 1322.4,-1278.45 1322.33,-1277.52 1322.37,-1276.6 1322.55,-1275.69 1322.85,-1274.79 1323.28,-1273.91 1323.85,-1273.05 1324.54,-1272.21 1325.38,-1271.4 1326.34,-1270.61 1327.44,-1269.84 1328.66,-1269.11 1330.02,-1268.41 1331.49,-1267.74 1333.09,-1267.11 1334.8,-1266.52 1336.62,-1265.96 1338.55,-1265.45 1340.57,-1264.98 1342.68,-1264.55 1344.87,-1264.17 1347.13,-1263.83 1349.46,-1263.54 1351.85,-1263.3 1354.28,-1263.1 1356.74,-1262.95 1359.24,-1262.85 1361.74,-1262.8 1364.26,-1262.8 1366.76,-1262.85"/>
<text text-anchor="middle" x="1363" y="-1277.1" font-family="Times,serif" font-size="14.00">Glitch</text>
</a>
</g>
</g>
<!-- create_post -->
<g id="node28" class="node">
<title>create_post</title>
<g id="a_node28"><a xlink:href="https://roamresearch.com/#/app/ArtOfGig/page/wDK81GyfO" xlink:title="create&#45;post">
<polygon fill="none" stroke="blue" points="452.5,-745.8 355.5,-745.8 355.5,-709.8 452.5,-709.8 452.5,-745.8"/>
<text text-anchor="middle" x="404" y="-724.1" font-family="Times,serif" font-size="14.00">create&#45;post</text>
</a>
</g>
</g>
<!-- rss_applet&#45;&gt;create_post -->
<g id="edge26" class="edge">
<title>rss_applet&#45;&gt;create_post</title>
<path fill="none" stroke="black" d="M1108.19,-914.16C1095.46,-906.33 1080.46,-897.03 1067,-888.48 1046.39,-875.4 1044.34,-865.61 1021,-858.48 992.36,-849.74 508.17,-865.04 482,-850.48 445.52,-830.18 423.51,-784.87 412.57,-755.63"/>
<polygon fill="black" stroke="black" points="415.81,-754.28 409.16,-746.03 409.21,-756.62 415.81,-754.28"/>
<text text-anchor="middle" x="1117.5" y="-877.28" font-family="Times,serif" font-size="14.00">RSS post data</text>
<text text-anchor="middle" x="1117.5" y="-862.28" font-family="Times,serif" font-size="14.00">to webhook</text>
</g>
<!-- twitter_applets&#45;&gt;twitter -->
<g id="edge32" class="edge">
<title>twitter_applets&#45;&gt;twitter</title>
<path fill="none" stroke="black" d="M1266.82,-914.2C1310.46,-882.26 1392,-811.5 1392,-728.8 1392,-728.8 1392,-728.8 1392,-248 1392,-215.84 1401.98,-198.44 1378,-177 1362.04,-162.73 1301.68,-177.43 1282,-169 1269.39,-163.6 1257.7,-154.05 1248.44,-144.88"/>
<polygon fill="black" stroke="black" points="1250.71,-142.19 1241.27,-137.37 1245.65,-147.02 1250.71,-142.19"/>
<text text-anchor="middle" x="1436.5" y="-437.67" font-family="Times,serif" font-size="14.00">Tweet about</text>
<text text-anchor="middle" x="1436.5" y="-422.67" font-family="Times,serif" font-size="14.00">new content</text>
</g>
<!-- netlify_applet -->
<g id="node21" class="node">
<title>netlify_applet</title>
<g id="a_node21"><a xlink:href="https://roamresearch.com/#/app/ArtOfGig/page/EWP06EjZH" xlink:title="Netlify Build\nHook Applet">
<polygon fill="none" stroke="blue" points="1071.5,-952.36 964.5,-952.36 964.5,-914.36 1071.5,-914.36 1071.5,-952.36"/>
<text text-anchor="middle" x="1018" y="-937.16" font-family="Times,serif" font-size="14.00">Netlify Build</text>
<text text-anchor="middle" x="1018" y="-922.16" font-family="Times,serif" font-size="14.00">Hook Applet</text>
</a>
</g>
</g>
<!-- netlify_ci -->
<g id="node23" class="node">
<title>netlify_ci</title>
<g id="a_node23"><a xlink:href="https://roamresearch.com/#/app/ArtOfGig/page/lfZqzDmtI" xlink:title="Netlify Continuous\nIntegration">
<polygon fill="none" stroke="blue" points="529.54,-1254.12 536.52,-1254.27 543.43,-1254.48 550.23,-1254.78 556.91,-1255.14 563.44,-1255.57 569.78,-1256.07 575.92,-1256.64 581.83,-1257.28 587.49,-1257.98 592.88,-1258.74 597.97,-1259.57 602.77,-1260.45 607.24,-1261.39 611.37,-1262.38 615.16,-1263.42 618.6,-1264.51 621.67,-1265.64 624.37,-1266.82 626.7,-1268.03 628.66,-1269.28 630.24,-1270.56 631.45,-1271.87 632.3,-1273.2 632.78,-1274.56 632.91,-1275.93 632.7,-1277.31 632.15,-1278.7 631.27,-1280.1 630.08,-1281.51 628.6,-1282.9 626.82,-1284.3 624.78,-1285.68 622.47,-1287.05 619.93,-1288.41 617.16,-1289.74 614.18,-1291.05 611.01,-1292.33 607.66,-1293.58 604.14,-1294.79 600.47,-1295.97 596.66,-1297.1 592.74,-1298.19 588.7,-1299.23 584.56,-1300.22 580.34,-1301.16 576.04,-1302.04 571.68,-1302.86 567.26,-1303.63 562.78,-1304.33 558.27,-1304.96 553.72,-1305.53 549.15,-1306.04 544.55,-1306.47 539.93,-1306.83 535.29,-1307.12 530.64,-1307.34 525.99,-1307.49 521.33,-1307.56 516.67,-1307.56 512.01,-1307.49 507.36,-1307.34 502.71,-1307.12 498.07,-1306.83 493.45,-1306.47 488.85,-1306.04 484.28,-1305.53 479.73,-1304.96 475.22,-1304.33 470.74,-1303.63 466.32,-1302.86 461.96,-1302.04 457.66,-1301.16 453.44,-1300.22 449.3,-1299.23 445.26,-1298.19 441.34,-1297.1 437.53,-1295.97 433.86,-1294.79 430.34,-1293.58 426.99,-1292.33 423.82,-1291.05 420.84,-1289.74 418.07,-1288.41 415.53,-1287.05 413.22,-1285.68 411.18,-1284.3 409.4,-1282.9 407.92,-1281.51 406.73,-1280.1 405.85,-1278.7 405.3,-1277.31 405.09,-1275.93 405.22,-1274.56 405.7,-1273.2 406.55,-1271.87 407.76,-1270.56 409.34,-1269.28 411.3,-1268.03 413.63,-1266.82 416.33,-1265.64 419.4,-1264.51 422.84,-1263.42 426.63,-1262.38 430.76,-1261.39 435.23,-1260.45 440.03,-1259.57 445.12,-1258.74 450.51,-1257.98 456.17,-1257.28 462.08,-1256.64 468.22,-1256.07 474.56,-1255.57 481.09,-1255.14 487.77,-1254.78 494.57,-1254.48 501.48,-1254.27 508.46,-1254.12 515.48,-1254.05 522.52,-1254.05 529.54,-1254.12"/>
<text text-anchor="middle" x="519" y="-1284.6" font-family="Times,serif" font-size="14.00">Netlify Continuous</text>
<text text-anchor="middle" x="519" y="-1269.6" font-family="Times,serif" font-size="14.00">Integration</text>
</a>
</g>
</g>
<!-- netlify_applet&#45;&gt;netlify_ci -->
<g id="edge17" class="edge">
<title>netlify_applet&#45;&gt;netlify_ci</title>
<path fill="none" stroke="black" d="M997.78,-952.64C941.44,-1002.9 776.62,-1145.4 621,-1235.93 610.72,-1241.91 599.46,-1247.56 588.3,-1252.68"/>
<polygon fill="black" stroke="black" points="586.67,-1249.58 578.98,-1256.86 589.53,-1255.97 586.67,-1249.58"/>
<text text-anchor="middle" x="945.5" y="-1124.94" font-family="Times,serif" font-size="14.00">Trigger rebuild</text>
<text text-anchor="middle" x="945.5" y="-1109.94" font-family="Times,serif" font-size="14.00">every 24 hours</text>
</g>
<!-- github -->
<g id="node22" class="node">
<title>github</title>
<g id="a_node22"><a xlink:href="https://roamresearch.com/#/app/ArtOfGig/page/1PVNV7Ell" xlink:title="GitHub">
<polygon fill="none" stroke="blue" points="126.36,-415.92 129.25,-416.02 132.11,-416.17 134.92,-416.36 137.69,-416.61 140.39,-416.9 143.01,-417.24 145.55,-417.62 148,-418.05 150.34,-418.52 152.57,-419.03 154.68,-419.59 156.66,-420.18 158.51,-420.81 160.22,-421.48 161.79,-422.18 163.21,-422.91 164.48,-423.67 165.6,-424.47 166.56,-425.28 167.37,-426.12 168.03,-426.98 168.53,-427.86 168.88,-428.76 169.08,-429.67 169.13,-430.59 169.04,-431.52 168.82,-432.46 168.45,-433.4 167.96,-434.34 167.35,-435.29 166.61,-436.22 165.77,-437.15 164.81,-438.08 163.76,-438.99 162.62,-439.88 161.38,-440.76 160.07,-441.63 158.68,-442.47 157.23,-443.28 155.71,-444.07 154.13,-444.84 152.51,-445.57 150.84,-446.27 149.13,-446.93 147.38,-447.57 145.6,-448.16 143.8,-448.71 141.97,-449.23 140.12,-449.7 138.25,-450.13 136.37,-450.51 134.47,-450.85 132.57,-451.14 130.66,-451.38 128.74,-451.58 126.82,-451.73 124.89,-451.82 122.96,-451.87 121.04,-451.87 119.11,-451.82 117.18,-451.73 115.26,-451.58 113.34,-451.38 111.43,-451.14 109.53,-450.85 107.63,-450.51 105.75,-450.13 103.88,-449.7 102.03,-449.23 100.2,-448.71 98.4,-448.16 96.62,-447.57 94.87,-446.93 93.16,-446.27 91.49,-445.57 89.87,-444.84 88.29,-444.07 86.77,-443.28 85.32,-442.47 83.93,-441.63 82.62,-440.76 81.38,-439.88 80.24,-438.99 79.19,-438.08 78.23,-437.15 77.39,-436.22 76.65,-435.29 76.04,-434.34 75.55,-433.4 75.18,-432.46 74.96,-431.52 74.87,-430.59 74.92,-429.67 75.12,-428.76 75.47,-427.86 75.97,-426.98 76.63,-426.12 77.44,-425.28 78.4,-424.47 79.52,-423.67 80.79,-422.91 82.21,-422.18 83.78,-421.48 85.49,-420.81 87.34,-420.18 89.32,-419.59 91.43,-419.03 93.66,-418.52 96,-418.05 98.45,-417.62 100.99,-417.24 103.61,-416.9 106.31,-416.61 109.08,-416.36 111.89,-416.17 114.75,-416.02 117.64,-415.92 120.54,-415.87 123.46,-415.87 126.36,-415.92"/>
<text text-anchor="middle" x="122" y="-430.17" font-family="Times,serif" font-size="14.00">GitHub</text>
</a>
</g>
</g>
<!-- github&#45;&gt;netlify_ci -->
<g id="edge16" class="edge">
<title>github&#45;&gt;netlify_ci</title>
<path fill="none" stroke="black" d="M122,-451.98C122,-496.99 122,-622.4 122,-726.8 122,-1122.14 122,-1122.14 122,-1122.14 122,-1166.08 142.47,-1178.5 179,-1202.93 242.65,-1245.49 326.44,-1264.75 394.91,-1273.36"/>
<polygon fill="black" stroke="black" points="394.55,-1276.84 404.9,-1274.55 395.38,-1269.89 394.55,-1276.84"/>
<text text-anchor="middle" x="201.5" y="-937.16" font-family="Times,serif" font-size="14.00">Repo contents pushed</text>
<text text-anchor="middle" x="201.5" y="-922.16" font-family="Times,serif" font-size="14.00">on commit</text>
</g>
<!-- jekyll -->
<g id="node24" class="node">
<title>jekyll</title>
<g id="a_node24"><a xlink:href="https://roamresearch.com/#/app/ArtOfGig/page/fF35dWNYl" xlink:title="Jekyll">
<polygon fill="none" stroke="blue" points="547,-1139.14 491,-1139.14 491,-1103.14 547,-1103.14 547,-1139.14"/>
<text text-anchor="middle" x="519" y="-1117.44" font-family="Times,serif" font-size="14.00">Jekyll</text>
</a>
</g>
</g>
<!-- netlify_ci&#45;&gt;jekyll -->
<g id="edge18" class="edge">
<title>netlify_ci&#45;&gt;jekyll</title>
<path fill="none" stroke="black" d="M519,-1253.77C519,-1225.08 519,-1179.11 519,-1149.79"/>
<polygon fill="black" stroke="black" points="522.5,-1149.43 519,-1139.43 515.5,-1149.43 522.5,-1149.43"/>
<text text-anchor="middle" x="568" y="-1224.73" font-family="Times,serif" font-size="14.00">Build website</text>
</g>
<!-- netlify_cdn -->
<g id="node25" class="node">
<title>netlify_cdn</title>
<g id="a_node25"><a xlink:href="https://roamresearch.com/#/app/ArtOfGig/page/R-E2CDAe2" xlink:title="Netlify\nCDN">
<polygon fill="none" stroke="blue" points="523.52,-906.68 526.52,-906.82 529.48,-907.04 532.41,-907.33 535.27,-907.7 538.07,-908.13 540.8,-908.63 543.43,-909.2 545.97,-909.84 548.4,-910.54 550.71,-911.3 552.9,-912.12 554.95,-913.01 556.87,-913.94 558.65,-914.94 560.27,-915.98 561.75,-917.07 563.07,-918.2 564.23,-919.38 565.23,-920.59 566.07,-921.84 566.75,-923.12 567.27,-924.43 567.63,-925.76 567.84,-927.11 567.89,-928.48 567.8,-929.87 567.56,-931.26 567.19,-932.66 566.68,-934.06 566.04,-935.46 565.28,-936.86 564.4,-938.24 563.41,-939.61 562.32,-940.96 561.13,-942.3 559.85,-943.61 558.49,-944.89 557.05,-946.13 555.54,-947.35 553.97,-948.52 552.33,-949.66 550.65,-950.75 548.92,-951.79 547.14,-952.78 545.33,-953.72 543.48,-954.6 541.61,-955.42 539.71,-956.19 537.79,-956.89 535.86,-957.52 533.9,-958.09 531.94,-958.59 529.96,-959.03 527.98,-959.39 525.99,-959.68 524,-959.9 522,-960.05 520,-960.12 518,-960.12 516,-960.05 514,-959.9 512.01,-959.68 510.02,-959.39 508.04,-959.03 506.06,-958.59 504.1,-958.09 502.14,-957.52 500.21,-956.89 498.29,-956.19 496.39,-955.42 494.52,-954.6 492.67,-953.72 490.86,-952.78 489.08,-951.79 487.35,-950.75 485.67,-949.66 484.03,-948.52 482.46,-947.35 480.95,-946.13 479.51,-944.89 478.15,-943.61 476.87,-942.3 475.68,-940.96 474.59,-939.61 473.6,-938.24 472.72,-936.86 471.96,-935.46 471.32,-934.06 470.81,-932.66 470.44,-931.26 470.2,-929.87 470.11,-928.48 470.16,-927.11 470.37,-925.76 470.73,-924.43 471.25,-923.12 471.93,-921.84 472.77,-920.59 473.77,-919.38 474.93,-918.2 476.25,-917.07 477.73,-915.98 479.35,-914.94 481.13,-913.94 483.05,-913.01 485.1,-912.12 487.29,-911.3 489.6,-910.54 492.03,-909.84 494.57,-909.2 497.2,-908.63 499.93,-908.13 502.73,-907.7 505.59,-907.33 508.52,-907.04 511.48,-906.82 514.48,-906.68 517.49,-906.6 520.51,-906.6 523.52,-906.68"/>
<text text-anchor="middle" x="519" y="-937.16" font-family="Times,serif" font-size="14.00">Netlify</text>
<text text-anchor="middle" x="519" y="-922.16" font-family="Times,serif" font-size="14.00">CDN</text>
</a>
</g>
</g>
<!-- jekyll&#45;&gt;netlify_cdn -->
<g id="edge19" class="edge">
<title>jekyll&#45;&gt;netlify_cdn</title>
<path fill="none" stroke="black" d="M519,-1103C519,-1072.98 519,-1010.32 519,-970.41"/>
<polygon fill="black" stroke="black" points="522.5,-970.29 519,-960.29 515.5,-970.29 522.5,-970.29"/>
<text text-anchor="middle" x="586" y="-1010.16" font-family="Times,serif" font-size="14.00">Optimize &amp; deploy</text>
<text text-anchor="middle" x="586" y="-995.16" font-family="Times,serif" font-size="14.00">website files</text>
</g>
<!-- website -->
<g id="node26" class="node">
<title>website</title>
<g id="a_node26"><a xlink:href="https://roamresearch.com/#/app/ArtOfGig/page/h0Wx539Oq" xlink:title="Yak Collective\nWebsite">
<ellipse fill="none" stroke="green" cx="580" cy="-727.8" rx="82.05" ry="82.05"/>
<ellipse fill="none" stroke="green" cx="580" cy="-727.8" rx="86.05" ry="86.05"/>
<text text-anchor="middle" x="580" y="-731.6" font-family="Times,serif" font-size="14.00">Yak Collective</text>
<text text-anchor="middle" x="580" y="-716.6" font-family="Times,serif" font-size="14.00">Website</text>
</a>
</g>
</g>
<!-- netlify_cdn&#45;&gt;website -->
<g id="edge21" class="edge">
<title>netlify_cdn&#45;&gt;website</title>
<path fill="none" stroke="black" d="M527.94,-906.91C529.99,-900.89 532.11,-894.47 534,-888.48 540.87,-866.67 547.89,-843.05 554.32,-820.84"/>
<polygon fill="black" stroke="black" points="557.72,-821.66 557.13,-811.09 551,-819.73 557.72,-821.66"/>
<text text-anchor="middle" x="599.5" y="-877.28" font-family="Times,serif" font-size="14.00">Push to Amazon</text>
<text text-anchor="middle" x="599.5" y="-862.28" font-family="Times,serif" font-size="14.00">Cloudfront</text>
</g>
<!-- featured_yak -->
<g id="node27" class="node">
<title>featured_yak</title>
<g id="a_node27"><a xlink:href="https://roamresearch.com/#/app/ArtOfGig/page/ZzuH6YDFq" xlink:title="&quot;Featured Yak&quot;\nRSS Feed">
<ellipse fill="none" stroke="green" cx="776" cy="-727.8" rx="87.85" ry="87.85"/>
<ellipse fill="none" stroke="green" cx="776" cy="-727.8" rx="91.86" ry="91.86"/>
<text text-anchor="middle" x="776" y="-731.6" font-family="Times,serif" font-size="14.00">&quot;Featured Yak&quot;</text>
<text text-anchor="middle" x="776" y="-716.6" font-family="Times,serif" font-size="14.00">RSS Feed</text>
</a>
</g>
</g>
<!-- netlify_cdn&#45;&gt;featured_yak -->
<g id="edge22" class="edge">
<title>netlify_cdn&#45;&gt;featured_yak</title>
<path fill="none" stroke="black" d="M567.54,-925.37C596.73,-919.32 633.45,-908.28 661,-888.48 687.03,-869.77 709.43,-843.32 727.37,-817.32"/>
<polygon fill="black" stroke="black" points="730.35,-819.15 733.03,-808.9 724.54,-815.24 730.35,-819.15"/>
<text text-anchor="middle" x="749.5" y="-877.28" font-family="Times,serif" font-size="14.00">Push to Amazon</text>
<text text-anchor="middle" x="749.5" y="-862.28" font-family="Times,serif" font-size="14.00">Cloudfront</text>
</g>
<!-- netlify_cdn&#45;&gt;create_post -->
<g id="edge23" class="edge">
<title>netlify_cdn&#45;&gt;create_post</title>
<path fill="none" stroke="black" d="M470.27,-925.33C447.8,-919.41 423.04,-908.52 409,-888.48 381.45,-849.17 388.87,-790.01 396.56,-755.83"/>
<polygon fill="black" stroke="black" points="399.98,-756.61 398.92,-746.07 393.17,-754.96 399.98,-756.61"/>
<text text-anchor="middle" x="469.5" y="-877.28" font-family="Times,serif" font-size="14.00">Create Amazon</text>
<text text-anchor="middle" x="469.5" y="-862.28" font-family="Times,serif" font-size="14.00">Lambda function</text>
</g>
<!-- website&#45;&gt;google_analytics -->
<g id="edge1" class="edge">
<title>website&#45;&gt;google_analytics</title>
<path fill="none" stroke="black" d="M599.3,-643.93C612.65,-586.62 629.74,-513.25 639.72,-470.41"/>
<polygon fill="black" stroke="black" points="643.18,-470.99 642.04,-460.46 636.36,-469.41 643.18,-470.99"/>
<text text-anchor="middle" x="669" y="-593.42" font-family="Times,serif" font-size="14.00">Visitor analytics</text>
</g>
<!-- website&#45;&gt;registration_form -->
<g id="edge5" class="edge">
<title>website&#45;&gt;registration_form</title>
<path fill="none" stroke="red" d="M524.2,-662.21C513.65,-646.72 504.04,-629.58 498,-612.12 488.23,-583.86 484.72,-551.56 484.12,-522.33"/>
<polygon fill="red" stroke="red" points="487.62,-522.1 484.03,-512.13 480.62,-522.17 487.62,-522.1"/>
<text text-anchor="middle" x="550.5" y="-600.92" font-family="Times,serif" font-size="14.00">Sign up form</text>
<text text-anchor="middle" x="550.5" y="-585.92" font-family="Times,serif" font-size="14.00">(minimal data)</text>
</g>
<!-- website&#45;&gt;reboot_deck -->
<g id="edge2" class="edge">
<title>website&#45;&gt;reboot_deck</title>
<path fill="none" stroke="red" d="M629.2,-657.06C642.48,-642.74 657.96,-629.27 675,-620.12 697.15,-608.23 706.42,-617.41 731,-612.12 790.26,-599.36 811.93,-608.3 862,-574.12 880.01,-561.82 896.32,-545.52 910.46,-528.42"/>
<polygon fill="red" stroke="red" points="913.27,-530.51 916.8,-520.52 907.81,-526.12 913.27,-530.51"/>
<text text-anchor="middle" x="918" y="-593.42" font-family="Times,serif" font-size="14.00">Google Slides / PDF</text>
</g>
<!-- website&#45;&gt;home_deck -->
<g id="edge3" class="edge">
<title>website&#45;&gt;home_deck</title>
<path fill="none" stroke="red" d="M627.95,-656.15C641.37,-641.68 657.23,-628.36 675,-620.12 707.06,-605.25 958.51,-619.85 993,-612.12 1033.77,-602.98 1046.88,-600.85 1079,-574.12 1097.6,-558.64 1114.1,-538.63 1127.91,-518.64"/>
<polygon fill="red" stroke="red" points="1130.98,-520.34 1133.66,-510.08 1125.17,-516.43 1130.98,-520.34"/>
<text text-anchor="middle" x="1139" y="-593.42" font-family="Times,serif" font-size="14.00">Google Slides / PDF</text>
</g>
<!-- featured_yak&#45;&gt;twitter_applets -->
<g id="edge31" class="edge">
<title>featured_yak&#45;&gt;twitter_applets</title>
<path fill="none" stroke="black" d="M866.22,-744.67C950.4,-762.52 1076.94,-797.33 1172,-858.48 1191.3,-870.9 1208.73,-890.08 1221.11,-905.78"/>
<polygon fill="black" stroke="black" points="1218.6,-908.26 1227.45,-914.08 1224.16,-904.01 1218.6,-908.26"/>
<text text-anchor="middle" x="1238" y="-877.28" font-family="Times,serif" font-size="14.00">Pulled</text>
<text text-anchor="middle" x="1238" y="-862.28" font-family="Times,serif" font-size="14.00">by IFTTT</text>
</g>
<!-- create_post&#45;&gt;discord -->
<g id="edge28" class="edge">
<title>create_post&#45;&gt;discord</title>
<path fill="none" stroke="black" d="M389.12,-709.73C353.27,-666.77 265,-549.39 265,-434.87 265,-434.87 265,-434.87 265,-119 265,-65.37 650.72,-32.98 796.82,-22.63"/>
<polygon fill="black" stroke="black" points="797.18,-26.11 806.91,-21.92 796.69,-19.13 797.18,-26.11"/>
<text text-anchor="middle" x="326.5" y="-252.8" font-family="Times,serif" font-size="14.00">Post in</text>
<text text-anchor="middle" x="326.5" y="-237.8" font-family="Times,serif" font-size="14.00">#yaktalk&#45;content</text>
</g>
<!-- create_post&#45;&gt;github -->
<g id="edge27" class="edge">
<title>create_post&#45;&gt;github</title>
<path fill="none" stroke="black" d="M355.41,-718.12C298.46,-705.29 205.6,-675.55 156,-612.12 121.75,-568.31 118.65,-500.05 119.97,-462.3"/>
<polygon fill="black" stroke="black" points="123.47,-462.23 120.46,-452.07 116.48,-461.89 123.47,-462.23"/>
<text text-anchor="middle" x="203.5" y="-600.92" font-family="Times,serif" font-size="14.00">Commit new</text>
<text text-anchor="middle" x="203.5" y="-585.92" font-family="Times,serif" font-size="14.00">member post</text>
</g>
<!-- namecheap -->
<g id="node29" class="node">
<title>namecheap</title>
<g id="a_node29"><a xlink:href="https://roamresearch.com/#/app/ArtOfGig/page/SrB_NQUiU" xlink:title="Namecheap">
<polygon fill="none" stroke="blue" points="264.46,-1103.19 268.74,-1103.29 272.97,-1103.44 277.14,-1103.63 281.24,-1103.88 285.23,-1104.17 289.12,-1104.51 292.88,-1104.89 296.51,-1105.32 299.97,-1105.79 303.28,-1106.3 306.4,-1106.86 309.34,-1107.45 312.08,-1108.08 314.61,-1108.75 316.94,-1109.45 319.04,-1110.18 320.92,-1110.94 322.58,-1111.74 324.01,-1112.55 325.2,-1113.39 326.18,-1114.25 326.92,-1115.13 327.44,-1116.03 327.73,-1116.94 327.81,-1117.86 327.68,-1118.79 327.34,-1119.73 326.81,-1120.67 326.08,-1121.61 325.17,-1122.56 324.08,-1123.49 322.83,-1124.42 321.42,-1125.35 319.86,-1126.26 318.16,-1127.15 316.33,-1128.03 314.39,-1128.9 312.33,-1129.74 310.18,-1130.55 307.93,-1131.34 305.6,-1132.1 303.19,-1132.84 300.72,-1133.54 298.18,-1134.2 295.59,-1134.84 292.96,-1135.43 290.28,-1135.98 287.57,-1136.5 284.83,-1136.97 282.07,-1137.4 279.28,-1137.78 276.48,-1138.12 273.66,-1138.41 270.82,-1138.65 267.98,-1138.85 265.14,-1139 262.28,-1139.09 259.43,-1139.14 256.57,-1139.14 253.72,-1139.09 250.86,-1139 248.02,-1138.85 245.18,-1138.65 242.34,-1138.41 239.52,-1138.12 236.72,-1137.78 233.93,-1137.4 231.17,-1136.97 228.43,-1136.5 225.72,-1135.98 223.04,-1135.43 220.41,-1134.84 217.82,-1134.2 215.28,-1133.54 212.81,-1132.84 210.4,-1132.1 208.07,-1131.34 205.82,-1130.55 203.67,-1129.74 201.61,-1128.9 199.67,-1128.03 197.84,-1127.15 196.14,-1126.26 194.58,-1125.35 193.17,-1124.42 191.92,-1123.49 190.83,-1122.56 189.92,-1121.61 189.19,-1120.67 188.66,-1119.73 188.32,-1118.79 188.19,-1117.86 188.27,-1116.94 188.56,-1116.03 189.08,-1115.13 189.82,-1114.25 190.8,-1113.39 191.99,-1112.55 193.42,-1111.74 195.08,-1110.94 196.96,-1110.18 199.06,-1109.45 201.39,-1108.75 203.92,-1108.08 206.66,-1107.45 209.6,-1106.86 212.72,-1106.3 216.03,-1105.79 219.49,-1105.32 223.12,-1104.89 226.88,-1104.51 230.77,-1104.17 234.76,-1103.88 238.86,-1103.63 243.03,-1103.44 247.26,-1103.29 251.54,-1103.19 255.84,-1103.14 260.16,-1103.14 264.46,-1103.19"/>
<text text-anchor="middle" x="258" y="-1117.44" font-family="Times,serif" font-size="14.00">Namecheap</text>
</a>
</g>
</g>
<!-- namecheap&#45;&gt;netlify_cdn -->
<g id="edge20" class="edge">
<title>namecheap&#45;&gt;netlify_cdn</title>
<path fill="none" stroke="black" d="M271.97,-1103.28C286.3,-1086.37 309.61,-1059.97 332,-1039.36 357.64,-1015.76 364.17,-1009.38 394,-991.36 419.32,-976.07 449.45,-962.21 473.78,-951.99"/>
<polygon fill="black" stroke="black" points="475.24,-955.18 483.14,-948.12 472.56,-948.71 475.24,-955.18"/>
<text text-anchor="middle" x="454.5" y="-1002.66" font-family="Times,serif" font-size="14.00">DNS information</text>
</g>
<!-- knack -->
<g id="node30" class="node">
<title>knack</title>
<g id="a_node30"><a xlink:href="https://roamresearch.com/#/app/ArtOfGig/page/FDjmLsCeR" xlink:title="Knack">
<polygon fill="none" stroke="green" points="1466.85,-1262.85 1469.39,-1262.95 1471.91,-1263.1 1474.39,-1263.3 1476.83,-1263.54 1479.21,-1263.83 1481.53,-1264.17 1483.76,-1264.55 1485.92,-1264.98 1487.99,-1265.45 1489.95,-1265.96 1491.81,-1266.52 1493.56,-1267.11 1495.19,-1267.74 1496.7,-1268.41 1498.08,-1269.11 1499.33,-1269.84 1500.45,-1270.61 1501.44,-1271.4 1502.29,-1272.21 1503,-1273.05 1503.58,-1273.91 1504.02,-1274.79 1504.33,-1275.69 1504.51,-1276.6 1504.56,-1277.52 1504.48,-1278.45 1504.28,-1279.39 1503.96,-1280.33 1503.53,-1281.28 1502.98,-1282.22 1502.34,-1283.15 1501.59,-1284.09 1500.75,-1285.01 1499.82,-1285.92 1498.81,-1286.81 1497.72,-1287.7 1496.57,-1288.56 1495.34,-1289.4 1494.06,-1290.21 1492.72,-1291 1491.33,-1291.77 1489.9,-1292.5 1488.43,-1293.2 1486.92,-1293.87 1485.38,-1294.5 1483.81,-1295.09 1482.22,-1295.64 1480.6,-1296.16 1478.97,-1296.63 1477.33,-1297.06 1475.67,-1297.44 1474,-1297.78 1472.32,-1298.07 1470.63,-1298.31 1468.94,-1298.51 1467.25,-1298.66 1465.55,-1298.76 1463.85,-1298.8 1462.15,-1298.8 1460.45,-1298.76 1458.75,-1298.66 1457.06,-1298.51 1455.37,-1298.31 1453.68,-1298.07 1452,-1297.78 1450.33,-1297.44 1448.67,-1297.06 1447.03,-1296.63 1445.4,-1296.16 1443.78,-1295.64 1442.19,-1295.09 1440.62,-1294.5 1439.08,-1293.87 1437.57,-1293.2 1436.1,-1292.5 1434.67,-1291.77 1433.28,-1291 1431.94,-1290.21 1430.66,-1289.4 1429.43,-1288.56 1428.28,-1287.7 1427.19,-1286.81 1426.18,-1285.92 1425.25,-1285.01 1424.41,-1284.09 1423.66,-1283.15 1423.02,-1282.22 1422.47,-1281.28 1422.04,-1280.33 1421.72,-1279.39 1421.52,-1278.45 1421.44,-1277.52 1421.49,-1276.6 1421.67,-1275.69 1421.98,-1274.79 1422.42,-1273.91 1423,-1273.05 1423.71,-1272.21 1424.56,-1271.4 1425.55,-1270.61 1426.67,-1269.84 1427.92,-1269.11 1429.3,-1268.41 1430.81,-1267.74 1432.44,-1267.11 1434.19,-1266.52 1436.05,-1265.96 1438.01,-1265.45 1440.08,-1264.98 1442.24,-1264.55 1444.47,-1264.17 1446.79,-1263.83 1449.17,-1263.54 1451.61,-1263.3 1454.09,-1263.1 1456.61,-1262.95 1459.15,-1262.85 1461.72,-1262.8 1464.28,-1262.8 1466.85,-1262.85"/>
<text text-anchor="middle" x="1463" y="-1277.1" font-family="Times,serif" font-size="14.00">Knack</text>
</a>
</g>
</g>
<!-- roam -->
<g id="node31" class="node">
<title>roam</title>
<g id="a_node31"><a xlink:href="https://roamresearch.com/#/app/ArtOfGig/page/FEPWC0DLJ" xlink:title="Roam">
<polygon fill="none" stroke="green" points="1565.65,-1262.85 1568.06,-1262.95 1570.45,-1263.1 1572.8,-1263.3 1575.11,-1263.54 1577.37,-1263.83 1579.57,-1264.17 1581.69,-1264.55 1583.73,-1264.98 1585.69,-1265.45 1587.56,-1265.96 1589.32,-1266.52 1590.98,-1267.11 1592.52,-1267.74 1593.95,-1268.41 1595.26,-1269.11 1596.45,-1269.84 1597.51,-1270.61 1598.45,-1271.4 1599.26,-1272.21 1599.93,-1273.05 1600.48,-1273.91 1600.9,-1274.79 1601.19,-1275.69 1601.36,-1276.6 1601.4,-1277.52 1601.33,-1278.45 1601.14,-1279.39 1600.84,-1280.33 1600.43,-1281.28 1599.91,-1282.22 1599.3,-1283.15 1598.59,-1284.09 1597.79,-1285.01 1596.91,-1285.92 1595.96,-1286.81 1594.93,-1287.7 1593.83,-1288.56 1592.67,-1289.4 1591.45,-1290.21 1590.18,-1291 1588.87,-1291.77 1587.51,-1292.5 1586.11,-1293.2 1584.68,-1293.87 1583.22,-1294.5 1581.73,-1295.09 1580.22,-1295.64 1578.69,-1296.16 1577.15,-1296.63 1575.58,-1297.06 1574.01,-1297.44 1572.43,-1297.78 1570.84,-1298.07 1569.24,-1298.31 1567.63,-1298.51 1566.03,-1298.66 1564.42,-1298.76 1562.81,-1298.8 1561.19,-1298.8 1559.58,-1298.76 1557.97,-1298.66 1556.37,-1298.51 1554.76,-1298.31 1553.16,-1298.07 1551.57,-1297.78 1549.99,-1297.44 1548.42,-1297.06 1546.85,-1296.63 1545.31,-1296.16 1543.78,-1295.64 1542.27,-1295.09 1540.78,-1294.5 1539.32,-1293.87 1537.89,-1293.2 1536.49,-1292.5 1535.13,-1291.77 1533.82,-1291 1532.55,-1290.21 1531.33,-1289.4 1530.17,-1288.56 1529.07,-1287.7 1528.04,-1286.81 1527.09,-1285.92 1526.21,-1285.01 1525.41,-1284.09 1524.7,-1283.15 1524.09,-1282.22 1523.57,-1281.28 1523.16,-1280.33 1522.86,-1279.39 1522.67,-1278.45 1522.6,-1277.52 1522.64,-1276.6 1522.81,-1275.69 1523.1,-1274.79 1523.52,-1273.91 1524.07,-1273.05 1524.74,-1272.21 1525.55,-1271.4 1526.49,-1270.61 1527.55,-1269.84 1528.74,-1269.11 1530.05,-1268.41 1531.48,-1267.74 1533.02,-1267.11 1534.68,-1266.52 1536.44,-1265.96 1538.31,-1265.45 1540.27,-1264.98 1542.31,-1264.55 1544.43,-1264.17 1546.63,-1263.83 1548.89,-1263.54 1551.2,-1263.3 1553.55,-1263.1 1555.94,-1262.95 1558.35,-1262.85 1560.78,-1262.8 1563.22,-1262.8 1565.65,-1262.85"/>
<text text-anchor="middle" x="1562" y="-1277.1" font-family="Times,serif" font-size="14.00">Roam</text>
</a>
</g>
</g>
<!-- visitor -->
<g id="node32" class="node">
<title>visitor</title>
</g>
<!-- visitor&#45;&gt;website -->
<g id="edge4" class="edge">
<title>visitor&#45;&gt;website</title>
<path fill="none" stroke="red" d="M917.08,-915.3C914.11,-897.81 906.64,-871.39 888,-858.48 868.53,-845 696.09,-861.27 675,-850.48 657.12,-841.34 641.57,-827.12 628.51,-811.58"/>
<polygon fill="red" stroke="red" points="630.9,-808.97 621.91,-803.36 625.44,-813.35 630.9,-808.97"/>
<text text-anchor="middle" x="963" y="-869.78" font-family="Times,serif" font-size="14.00">Website visitor</text>
</g>
<!-- developer -->
<g id="node33" class="node">
<title>developer</title>
</g>
<!-- developer&#45;&gt;github -->
<g id="edge15" class="edge">
<title>developer&#45;&gt;github</title>
<path fill="none" stroke="red" d="M24.08,-709.42C20.11,-681.79 14.89,-626.44 28,-582.12 42.34,-533.62 77.88,-485.83 100.92,-458.4"/>
<polygon fill="red" stroke="red" points="103.79,-460.44 107.63,-450.57 98.47,-455.88 103.79,-460.44"/>
<text text-anchor="middle" x="68" y="-593.42" font-family="Times,serif" font-size="14.00">Git commit</text>
</g>
</g>
</svg>
