<?xml version="1.0" encoding="UTF-8" standalone="no"?>
<!DOCTYPE svg PUBLIC "-//W3C//DTD SVG 1.1//EN"
 "http://www.w3.org/Graphics/SVG/1.1/DTD/svg11.dtd">
<!-- Generated by graphviz version 2.40.1 (20161225.0304)
 -->
<!-- Title: yak_infrastructure Pages: 1 -->
<svg width="1318pt" height="1777pt"
 viewBox="0.00 0.00 1317.61 1776.59" xmlns="http://www.w3.org/2000/svg" xmlns:xlink="http://www.w3.org/1999/xlink">
<g id="graph0" class="graph" transform="scale(1 1) rotate(0) translate(4 1772.5876)">
<title>yak_infrastructure</title>
<polygon fill="#ffffff" stroke="transparent" points="-4,4 -4,-1772.5876 1313.6074,-1772.5876 1313.6074,4 -4,4"/>
<text text-anchor="middle" x="654.8037" y="-1753.3876" font-family="Times,serif" font-size="14.00" fill="#000000">Yak Collective IT Infrastructure</text>
<g id="clust1" class="cluster">
<title>cluster_google</title>
<polygon fill="none" stroke="#c0c0c0" points="326,-215 326,-795.4716 1059,-795.4716 1059,-215 326,-215"/>
<text text-anchor="middle" x="692.5" y="-780.2716" font-family="Times,serif" font-size="14.00" fill="#000000">Google</text>
</g>
<g id="clust2" class="cluster">
<title>cluster_robot</title>
<polygon fill="none" stroke="#c0c0c0" points="334,-223 334,-764.4716 714,-764.4716 714,-223 334,-223"/>
<text text-anchor="middle" x="524" y="-749.2716" font-family="Times,serif" font-size="14.00" fill="#000000">Yak Collective Robot</text>
</g>
<g id="clust3" class="cluster">
<title>cluster_vultr</title>
<polygon fill="none" stroke="#c0c0c0" points="490,-94 490,-169 666,-169 666,-94 490,-94"/>
<text text-anchor="middle" x="578" y="-153.8" font-family="Times,serif" font-size="14.00" fill="#000000">Vultr</text>
</g>
<g id="clust4" class="cluster">
<title>cluster_carl</title>
<polygon fill="none" stroke="#c0c0c0" points="972,-94 972,-169 1152,-169 1152,-94 972,-94"/>
<text text-anchor="middle" x="1062" y="-153.8" font-family="Times,serif" font-size="14.00" fill="#000000">Carl</text>
</g>
<g id="clust5" class="cluster">
<title>cluster_unused</title>
<polygon fill="none" stroke="#c0c0c0" points="1054,-1653.7083 1054,-1728.7083 1140,-1728.7083 1140,-1653.7083 1054,-1653.7083"/>
<text text-anchor="middle" x="1097" y="-1713.5083" font-family="Times,serif" font-size="14.00" fill="#000000">Unused</text>
</g>
<g id="clust6" class="cluster">
<title>cluster_ifttt</title>
<polygon fill="none" stroke="#c0c0c0" points="859,-1088.7214 859,-1165.7214 1135,-1165.7214 1135,-1088.7214 859,-1088.7214"/>
<text text-anchor="middle" x="997" y="-1150.5214" font-family="Times,serif" font-size="14.00" fill="#000000">IFTTT</text>
</g>
<g id="clust7" class="cluster">
<title>cluster_netlify</title>
<polygon fill="none" stroke="#c0c0c0" points="319,-841.4716 319,-1737.5876 787,-1737.5876 787,-841.4716 319,-841.4716"/>
<text text-anchor="middle" x="553" y="-1722.3876" font-family="Times,serif" font-size="14.00" fill="#000000">Netlify</text>
</g>
<g id="clust8" class="cluster">
<title>cluster_cloudfront</title>
<polygon fill="none" stroke="#c0c0c0" points="447,-849.4716 447,-1040.7214 779,-1040.7214 779,-849.4716 447,-849.4716"/>
<text text-anchor="middle" x="613" y="-1025.5214" font-family="Times,serif" font-size="14.00" fill="#000000">Amazon Cloudfront</text>
</g>
<g id="clust9" class="cluster">
<title>cluster_lambda</title>
<polygon fill="none" stroke="#c0c0c0" points="327,-907.5965 327,-982.5965 439,-982.5965 439,-907.5965 327,-907.5965"/>
<text text-anchor="middle" x="383" y="-967.3965" font-family="Times,serif" font-size="14.00" fill="#000000">Amazon Lambda</text>
</g>
<!-- gmail -->
<g id="node1" class="node">
<title>gmail</title>
<g id="a_node1"><a xlink:href="https://roamresearch.com/#/app/ArtOfGig/page/bRd-QWJA0" xlink:title="Gmail">
<polygon fill="none" stroke="#0000ff" points="620.248,-231.0493 622.3985,-231.1479 624.5268,-231.2953 626.6241,-231.4913 628.682,-231.7353 630.6922,-232.0266 632.6468,-232.3645 634.5382,-232.7479 636.3591,-233.1759 638.1029,-233.6472 639.7633,-234.1606 641.3345,-234.7147 642.8111,-235.308 644.1887,-235.9388 645.463,-236.6054 646.6306,-237.3059 647.6886,-238.0385 648.6348,-238.8012 649.4674,-239.5918 650.1854,-240.4082 650.7883,-241.2481 651.2763,-242.1093 651.65,-242.9894 651.9107,-243.886 652.06,-244.7965 652.1002,-245.7186 652.0339,-246.6497 651.8641,-247.5873 651.5942,-248.5287 651.228,-249.4713 650.7695,-250.4127 650.223,-251.3503 649.5928,-252.2814 648.8836,-253.2035 648.1,-254.114 647.2469,-255.0106 646.3289,-255.8907 645.3509,-256.7519 644.3175,-257.5918 643.2333,-258.4082 642.1029,-259.1988 640.9304,-259.9615 639.7201,-260.6941 638.476,-261.3946 637.2016,-262.0612 635.9006,-262.692 634.5762,-263.2853 633.2314,-263.8394 631.8689,-264.3528 630.4913,-264.8241 629.1007,-265.2521 627.6994,-265.6355 626.289,-265.9734 624.8713,-266.2647 623.4477,-266.5087 622.0194,-266.7047 620.5877,-266.8521 619.1535,-266.9507 617.718,-267 616.282,-267 614.8465,-266.9507 613.4123,-266.8521 611.9806,-266.7047 610.5523,-266.5087 609.1287,-266.2647 607.711,-265.9734 606.3006,-265.6355 604.8993,-265.2521 603.5087,-264.8241 602.1311,-264.3528 600.7686,-263.8394 599.4238,-263.2853 598.0994,-262.692 596.7984,-262.0612 595.524,-261.3946 594.2799,-260.6941 593.0696,-259.9615 591.8971,-259.1988 590.7667,-258.4082 589.6825,-257.5918 588.6491,-256.7519 587.6711,-255.8907 586.7531,-255.0106 585.9,-254.114 585.1164,-253.2035 584.4072,-252.2814 583.777,-251.3503 583.2305,-250.4127 582.772,-249.4713 582.4058,-248.5287 582.1359,-247.5873 581.9661,-246.6497 581.8998,-245.7186 581.94,-244.7965 582.0893,-243.886 582.35,-242.9894 582.7237,-242.1093 583.2117,-241.2481 583.8146,-240.4082 584.5326,-239.5918 585.3652,-238.8012 586.3114,-238.0385 587.3694,-237.3059 588.537,-236.6054 589.8113,-235.9388 591.1889,-235.308 592.6655,-234.7147 594.2367,-234.1606 595.8971,-233.6472 597.6409,-233.1759 599.4618,-232.7479 601.3532,-232.3645 603.3078,-232.0266 605.318,-231.7353 607.3759,-231.4913 609.4732,-231.2953 611.6015,-231.1479 613.752,-231.0493 615.9158,-231 618.0842,-231 620.248,-231.0493"/>
<text text-anchor="middle" x="617" y="-245.3" font-family="Times,serif" font-size="14.00" fill="#000000">Gmail</text>
</a>
</g>
</g>
<!-- yak_scraper -->
<g id="node8" class="node">
<title>yak_scraper</title>
<g id="a_node8"><a xlink:href="https://roamresearch.com/#/app/ArtOfGig/page/AaFxsbkdW" xlink:title="yak_scraper">
<polygon fill="none" stroke="#0000ff" points="658,-138 576,-138 576,-102 658,-102 658,-138"/>
<text text-anchor="middle" x="617" y="-116.3" font-family="Times,serif" font-size="14.00" fill="#000000">yak_scraper</text>
</a>
</g>
</g>
<!-- gmail&#45;&gt;yak_scraper -->
<g id="edge36" class="edge">
<title>gmail&#45;&gt;yak_scraper</title>
<path fill="none" stroke="#000000" d="M617,-230.7911C617,-209.2786 617,-173.2457 617,-148.1351"/>
<polygon fill="#000000" stroke="#000000" points="620.5001,-148.1163 617,-138.1163 613.5001,-148.1164 620.5001,-148.1163"/>
<text text-anchor="middle" x="634.5" y="-195.8" font-family="Times,serif" font-size="14.00" fill="#000000">Gmail</text>
<text text-anchor="middle" x="634.5" y="-180.8" font-family="Times,serif" font-size="14.00" fill="#000000">API</text>
</g>
<!-- google_analytics -->
<g id="node2" class="node">
<title>google_analytics</title>
<g id="a_node2"><a xlink:href="https://roamresearch.com/#/app/ArtOfGig/page/gkim0kNQ8" xlink:title="Google\nAnalytics">
<polygon fill="none" stroke="#0000ff" points="541.7575,-644.096 544.9074,-644.2425 548.0246,-644.4617 551.0966,-644.7531 554.1109,-645.1158 557.0553,-645.5489 559.9182,-646.0511 562.6886,-646.6211 565.3558,-647.2573 567.91,-647.9581 570.342,-648.7213 572.6433,-649.5451 574.8062,-650.427 576.824,-651.3647 578.6905,-652.3557 580.4007,-653.3972 581.9504,-654.4863 583.3363,-655.62 584.5558,-656.7954 585.6074,-658.009 586.4906,-659.2577 587.2054,-660.538 587.7528,-661.8463 588.1345,-663.1792 588.3533,-664.5328 588.4121,-665.9036 588.3149,-667.2878 588.0662,-668.6815 587.671,-670.081 587.1346,-671.4825 586.4631,-672.882 585.6625,-674.2757 584.7395,-675.6599 583.7007,-677.0307 582.553,-678.3843 581.3034,-679.7172 579.9588,-681.0255 578.5263,-682.3058 577.0126,-683.5545 575.4246,-684.7681 573.7688,-685.9434 572.0515,-687.0772 570.2787,-688.1663 568.4564,-689.2078 566.5898,-690.1987 564.6842,-691.1365 562.7443,-692.0184 560.7745,-692.8422 558.7788,-693.6054 556.761,-694.3061 554.7243,-694.9424 552.6717,-695.5124 550.6059,-696.0146 548.5293,-696.4477 546.4441,-696.8104 544.352,-697.1018 542.2549,-697.321 540.1543,-697.4675 538.0517,-697.5408 535.9483,-697.5408 533.8457,-697.4675 531.7451,-697.321 529.648,-697.1018 527.5559,-696.8104 525.4707,-696.4477 523.3941,-696.0146 521.3283,-695.5124 519.2757,-694.9424 517.239,-694.3061 515.2212,-693.6054 513.2255,-692.8422 511.2557,-692.0184 509.3158,-691.1365 507.4102,-690.1987 505.5436,-689.2078 503.7213,-688.1663 501.9485,-687.0772 500.2312,-685.9434 498.5754,-684.7681 496.9874,-683.5545 495.4737,-682.3058 494.0412,-681.0255 492.6966,-679.7172 491.447,-678.3843 490.2993,-677.0307 489.2605,-675.6599 488.3375,-674.2757 487.5369,-672.882 486.8654,-671.4825 486.329,-670.081 485.9338,-668.6815 485.6851,-667.2878 485.5879,-665.9036 485.6467,-664.5328 485.8655,-663.1792 486.2472,-661.8463 486.7946,-660.538 487.5094,-659.2577 488.3926,-658.009 489.4442,-656.7954 490.6637,-655.62 492.0496,-654.4863 493.5993,-653.3972 495.3095,-652.3557 497.176,-651.3647 499.1938,-650.427 501.3567,-649.5451 503.658,-648.7213 506.09,-647.9581 508.6442,-647.2573 511.3114,-646.6211 514.0818,-646.0511 516.9447,-645.5489 519.8891,-645.1158 522.9034,-644.7531 525.9754,-644.4617 529.0926,-644.2425 532.2425,-644.096 535.412,-644.0227 538.588,-644.0227 541.7575,-644.096"/>
<text text-anchor="middle" x="537" y="-674.5817" font-family="Times,serif" font-size="14.00" fill="#000000">Google</text>
<text text-anchor="middle" x="537" y="-659.5817" font-family="Times,serif" font-size="14.00" fill="#000000">Analytics</text>
</a>
</g>
</g>
<!-- google_calendar -->
<g id="node3" class="node">
<title>google_calendar</title>
<g id="a_node3"><a xlink:href="https://roamresearch.com/#/app/ArtOfGig/page/5JAKKBvdi" xlink:title="Google\nCalendar">
<ellipse fill="none" stroke="#00ff00" cx="656" cy="-670.7817" rx="45.927" ry="45.927"/>
<ellipse fill="none" stroke="#00ff00" cx="656" cy="-670.7817" rx="49.9239" ry="49.9239"/>
<text text-anchor="middle" x="656" y="-674.5817" font-family="Times,serif" font-size="14.00" fill="#000000">Google</text>
<text text-anchor="middle" x="656" y="-659.5817" font-family="Times,serif" font-size="14.00" fill="#000000">Calendar</text>
</a>
</g>
</g>
<!-- google_calendar&#45;&gt;gmail -->
<g id="edge35" class="edge">
<title>google_calendar&#45;&gt;gmail</title>
<path fill="none" stroke="#000000" d="M638.7805,-623.5922C628.3329,-590.7893 617,-545.8028 617,-505 617,-505 617,-505 617,-311.5 617,-300.2695 617,-287.904 617,-277.1568"/>
<polygon fill="#000000" stroke="#000000" points="620.5001,-277.0511 617,-267.0511 613.5001,-277.0511 620.5001,-277.0511"/>
<text text-anchor="middle" x="661.5" y="-406.8" font-family="Times,serif" font-size="14.00" fill="#000000">Notification and</text>
<text text-anchor="middle" x="661.5" y="-391.8" font-family="Times,serif" font-size="14.00" fill="#000000">agenda emails</text>
</g>
<!-- zapier -->
<g id="node7" class="node">
<title>zapier</title>
<g id="a_node7"><a xlink:href="https://roamresearch.com/#/app/ArtOfGig/page/WW4JidMuQ" xlink:title="Zapier">
<polygon fill="none" stroke="#0000ff" points="1106.3298,-487.0493 1108.5344,-487.1479 1110.7161,-487.2953 1112.8662,-487.4913 1114.9759,-487.7353 1117.0367,-488.0266 1119.0405,-488.3645 1120.9794,-488.7479 1122.8462,-489.1759 1124.6339,-489.6472 1126.3361,-490.1606 1127.9467,-490.7147 1129.4606,-491.308 1130.8728,-491.9388 1132.1792,-492.6054 1133.3762,-493.3059 1134.4608,-494.0385 1135.4308,-494.8012 1136.2843,-495.5918 1137.0204,-496.4082 1137.6385,-497.2481 1138.1387,-498.1093 1138.5219,-498.9894 1138.7891,-499.886 1138.9422,-500.7965 1138.9833,-501.7186 1138.9153,-502.6497 1138.7413,-503.5873 1138.4646,-504.5287 1138.0892,-505.4713 1137.6192,-506.4127 1137.0589,-507.3503 1136.4129,-508.2814 1135.6858,-509.2035 1134.8826,-510.114 1134.008,-511.0106 1133.0669,-511.8907 1132.0643,-512.7519 1131.0048,-513.5918 1129.8934,-514.4082 1128.7345,-515.1988 1127.5325,-515.9615 1126.2918,-516.6941 1125.0163,-517.3946 1123.7099,-518.0612 1122.3762,-518.692 1121.0185,-519.2853 1119.6398,-519.8394 1118.243,-520.3528 1116.8307,-520.8241 1115.4052,-521.2521 1113.9686,-521.6355 1112.5228,-521.9734 1111.0694,-522.2647 1109.6099,-522.5087 1108.1457,-522.7047 1106.6779,-522.8521 1105.2077,-522.9507 1103.7361,-523 1102.2639,-523 1100.7923,-522.9507 1099.3221,-522.8521 1097.8543,-522.7047 1096.3901,-522.5087 1094.9306,-522.2647 1093.4772,-521.9734 1092.0314,-521.6355 1090.5948,-521.2521 1089.1693,-520.8241 1087.757,-520.3528 1086.3602,-519.8394 1084.9815,-519.2853 1083.6238,-518.692 1082.2901,-518.0612 1080.9837,-517.3946 1079.7082,-516.6941 1078.4675,-515.9615 1077.2655,-515.1988 1076.1066,-514.4082 1074.9952,-513.5918 1073.9357,-512.7519 1072.9331,-511.8907 1071.992,-511.0106 1071.1174,-510.114 1070.3142,-509.2035 1069.5871,-508.2814 1068.9411,-507.3503 1068.3808,-506.4127 1067.9108,-505.4713 1067.5354,-504.5287 1067.2587,-503.5873 1067.0847,-502.6497 1067.0167,-501.7186 1067.0578,-500.7965 1067.2109,-499.886 1067.4781,-498.9894 1067.8613,-498.1093 1068.3615,-497.2481 1068.9796,-496.4082 1069.7157,-495.5918 1070.5692,-494.8012 1071.5392,-494.0385 1072.6238,-493.3059 1073.8208,-492.6054 1075.1272,-491.9388 1076.5394,-491.308 1078.0533,-490.7147 1079.6639,-490.1606 1081.3661,-489.6472 1083.1538,-489.1759 1085.0206,-488.7479 1086.9595,-488.3645 1088.9633,-488.0266 1091.0241,-487.7353 1093.1338,-487.4913 1095.2839,-487.2953 1097.4656,-487.1479 1099.6702,-487.0493 1101.8885,-487 1104.1115,-487 1106.3298,-487.0493"/>
<text text-anchor="middle" x="1103" y="-501.3" font-family="Times,serif" font-size="14.00" fill="#000000">Zapier</text>
</a>
</g>
</g>
<!-- google_calendar&#45;&gt;zapier -->
<g id="edge33" class="edge">
<title>google_calendar&#45;&gt;zapier</title>
<path fill="none" stroke="#000000" d="M677.369,-625.2397C685.7714,-611.7232 696.6497,-598.1118 710,-589 766.8877,-550.1732 969.7792,-521.2728 1059.636,-510.0814"/>
<polygon fill="#000000" stroke="#000000" points="1060.2638,-513.5306 1069.7616,-508.8358 1059.4091,-506.583 1060.2638,-513.5306"/>
<text text-anchor="middle" x="884" y="-559.8" font-family="Times,serif" font-size="14.00" fill="#000000">Pulled by</text>
<text text-anchor="middle" x="884" y="-544.8" font-family="Times,serif" font-size="14.00" fill="#000000">Zapier</text>
</g>
<!-- registration_form -->
<g id="node4" class="node">
<title>registration_form</title>
<g id="a_node4"><a xlink:href="https://roamresearch.com/#/app/ArtOfGig/page/oG9FwDcRH" xlink:title="Registration\nForm">
<ellipse fill="none" stroke="#00ff00" cx="405" cy="-670.7817" rx="58.8682" ry="58.8682"/>
<ellipse fill="none" stroke="#00ff00" cx="405" cy="-670.7817" rx="62.8803" ry="62.8803"/>
<text text-anchor="middle" x="405" y="-674.5817" font-family="Times,serif" font-size="14.00" fill="#000000">Registration</text>
<text text-anchor="middle" x="405" y="-659.5817" font-family="Times,serif" font-size="14.00" fill="#000000">Form</text>
</a>
</g>
</g>
<!-- discord -->
<g id="node12" class="node">
<title>discord</title>
<g id="a_node12"><a xlink:href="https://roamresearch.com/#/app/ArtOfGig/page/AsI1N4yGZ" xlink:title="Discord">
<polygon fill="none" stroke="#00ff00" points="685.7638,-.0493 688.2558,-.1479 690.722,-.2953 693.1524,-.4913 695.537,-.7353 697.8665,-1.0266 700.1315,-1.3645 702.3232,-1.7479 704.4333,-2.1759 706.4541,-2.6472 708.3781,-3.1606 710.1987,-3.7147 711.9099,-4.308 713.5062,-4.9388 714.9829,-5.6054 716.336,-6.3059 717.562,-7.0385 718.6584,-7.8012 719.6232,-8.5918 720.4552,-9.4082 721.1539,-10.2481 721.7194,-11.1093 722.1524,-11.9894 722.4545,-12.886 722.6275,-13.7965 722.6741,-14.7186 722.5972,-15.6497 722.4004,-16.5873 722.0877,-17.5287 721.6634,-18.4713 721.1321,-19.4127 720.4988,-20.3503 719.7685,-21.2814 718.9467,-22.2035 718.0387,-23.114 717.0501,-24.0106 715.9863,-24.8907 714.853,-25.7519 713.6555,-26.5918 712.3992,-27.4082 711.0892,-28.1988 709.7305,-28.9615 708.3281,-29.6941 706.8863,-30.3946 705.4096,-31.0612 703.902,-31.692 702.3673,-32.2853 700.8089,-32.8394 699.2301,-33.3528 697.6337,-33.8241 696.0223,-34.2521 694.3984,-34.6355 692.7641,-34.9734 691.1213,-35.2647 689.4715,-35.5087 687.8165,-35.7047 686.1574,-35.8521 684.4955,-35.9507 682.832,-36 681.168,-36 679.5045,-35.9507 677.8426,-35.8521 676.1835,-35.7047 674.5285,-35.5087 672.8787,-35.2647 671.2359,-34.9734 669.6016,-34.6355 667.9777,-34.2521 666.3663,-33.8241 664.7699,-33.3528 663.1911,-32.8394 661.6327,-32.2853 660.098,-31.692 658.5904,-31.0612 657.1137,-30.3946 655.6719,-29.6941 654.2695,-28.9615 652.9108,-28.1988 651.6008,-27.4082 650.3445,-26.5918 649.147,-25.7519 648.0137,-24.8907 646.9499,-24.0106 645.9613,-23.114 645.0533,-22.2035 644.2315,-21.2814 643.5012,-20.3503 642.8679,-19.4127 642.3366,-18.4713 641.9123,-17.5287 641.5996,-16.5873 641.4028,-15.6497 641.3259,-14.7186 641.3725,-13.7965 641.5455,-12.886 641.8476,-11.9894 642.2806,-11.1093 642.8461,-10.2481 643.5448,-9.4082 644.3768,-8.5918 645.3416,-7.8012 646.438,-7.0385 647.664,-6.3059 649.0171,-5.6054 650.4938,-4.9388 652.0901,-4.308 653.8013,-3.7147 655.6219,-3.1606 657.5459,-2.6472 659.5667,-2.1759 661.6768,-1.7479 663.8685,-1.3645 666.1335,-1.0266 668.463,-.7353 670.8476,-.4913 673.278,-.2953 675.7442,-.1479 678.2362,-.0493 680.7437,0 683.2563,0 685.7638,-.0493"/>
<text text-anchor="middle" x="682" y="-14.3" font-family="Times,serif" font-size="14.00" fill="#000000">Discord</text>
</a>
</g>
</g>
<!-- registration_form&#45;&gt;discord -->
<g id="edge6" class="edge">
<title>registration_form&#45;&gt;discord</title>
<path fill="none" stroke="#ff0000" d="M392.9059,-609.2387C387.7938,-578.1232 383,-539.6955 383,-505 383,-505 383,-505 383,-120 383,-88.9365 381.8965,-73.5949 406,-54 423.3013,-39.9349 559.1201,-27.4381 633.5675,-21.5592"/>
<polygon fill="#ff0000" stroke="#ff0000" points="633.9484,-25.0402 643.6464,-20.7741 633.4047,-18.0614 633.9484,-25.0402"/>
<text text-anchor="middle" x="411.5" y="-307.8" font-family="Times,serif" font-size="14.00" fill="#000000">Invite link</text>
</g>
<!-- reboot_deck -->
<g id="node5" class="node">
<title>reboot_deck</title>
<g id="a_node5"><a xlink:href="https://roamresearch.com/#/app/ArtOfGig/page/s7km8fEQp" xlink:title="&quot;Don&#39;t Waste the\nReboot&quot; deck">
<ellipse fill="none" stroke="#00ff00" cx="806" cy="-670.7817" rx="77.5747" ry="77.5747"/>
<ellipse fill="none" stroke="#00ff00" cx="806" cy="-670.7817" rx="81.5641" ry="81.5641"/>
<text text-anchor="middle" x="806" y="-674.5817" font-family="Times,serif" font-size="14.00" fill="#000000">&quot;Don&#39;t Waste the</text>
<text text-anchor="middle" x="806" y="-659.5817" font-family="Times,serif" font-size="14.00" fill="#000000">Reboot&quot; deck</text>
</a>
</g>
</g>
<!-- home_deck -->
<g id="node6" class="node">
<title>home_deck</title>
<g id="a_node6"><a xlink:href="https://roamresearch.com/#/app/ArtOfGig/page/sGxc8YzrD" xlink:title="&quot;The New Old\nHome&quot; deck">
<ellipse fill="none" stroke="#00ff00" cx="978" cy="-670.7817" rx="68.6739" ry="68.6739"/>
<ellipse fill="none" stroke="#00ff00" cx="978" cy="-670.7817" rx="72.6788" ry="72.6788"/>
<text text-anchor="middle" x="978" y="-674.5817" font-family="Times,serif" font-size="14.00" fill="#000000">&quot;The New Old</text>
<text text-anchor="middle" x="978" y="-659.5817" font-family="Times,serif" font-size="14.00" fill="#000000">Home&quot; deck</text>
</a>
</g>
</g>
<!-- twitter -->
<g id="node15" class="node">
<title>twitter</title>
<g id="a_node15"><a xlink:href="https://roamresearch.com/#/app/ArtOfGig/page/ssp9sORuP" xlink:title="Twitter">
<polygon fill="none" stroke="#00ff00" points="1144.5647,-385.0493 1146.9248,-385.1479 1149.2605,-385.2953 1151.5623,-385.4913 1153.8208,-385.7353 1156.027,-386.0266 1158.1721,-386.3645 1160.2479,-386.7479 1162.2464,-387.1759 1164.1602,-387.6472 1165.9824,-388.1606 1167.7068,-388.7147 1169.3274,-389.308 1170.8392,-389.9388 1172.2378,-390.6054 1173.5192,-391.3059 1174.6804,-392.0385 1175.7188,-392.8012 1176.6325,-393.5918 1177.4205,-394.4082 1178.0822,-395.2481 1178.6178,-396.1093 1179.028,-396.9894 1179.314,-397.886 1179.4779,-398.7965 1179.522,-399.7186 1179.4492,-400.6497 1179.2629,-401.5873 1178.9667,-402.5287 1178.5648,-403.4713 1178.0616,-404.4127 1177.4618,-405.3503 1176.7702,-406.2814 1175.9918,-407.2035 1175.1319,-408.114 1174.1956,-409.0106 1173.1881,-409.8907 1172.1148,-410.7519 1170.9806,-411.5918 1169.7907,-412.4082 1168.5501,-413.1988 1167.2633,-413.9615 1165.9351,-414.6941 1164.5696,-415.3946 1163.171,-416.0612 1161.7432,-416.692 1160.2897,-417.2853 1158.8137,-417.8394 1157.3184,-418.3528 1155.8065,-418.8241 1154.2804,-419.2521 1152.7424,-419.6355 1151.1946,-419.9734 1149.6387,-420.2647 1148.0762,-420.5087 1146.5087,-420.7047 1144.9374,-420.8521 1143.3635,-420.9507 1141.788,-421 1140.212,-421 1138.6365,-420.9507 1137.0626,-420.8521 1135.4913,-420.7047 1133.9238,-420.5087 1132.3613,-420.2647 1130.8054,-419.9734 1129.2576,-419.6355 1127.7196,-419.2521 1126.1935,-418.8241 1124.6816,-418.3528 1123.1863,-417.8394 1121.7103,-417.2853 1120.2568,-416.692 1118.829,-416.0612 1117.4304,-415.3946 1116.0649,-414.6941 1114.7367,-413.9615 1113.4499,-413.1988 1112.2093,-412.4082 1111.0194,-411.5918 1109.8852,-410.7519 1108.8119,-409.8907 1107.8044,-409.0106 1106.8681,-408.114 1106.0082,-407.2035 1105.2298,-406.2814 1104.5382,-405.3503 1103.9384,-404.4127 1103.4352,-403.4713 1103.0333,-402.5287 1102.7371,-401.5873 1102.5508,-400.6497 1102.478,-399.7186 1102.5221,-398.7965 1102.686,-397.886 1102.972,-396.9894 1103.3822,-396.1093 1103.9178,-395.2481 1104.5795,-394.4082 1105.3675,-393.5918 1106.2812,-392.8012 1107.3196,-392.0385 1108.4808,-391.3059 1109.7622,-390.6054 1111.1608,-389.9388 1112.6726,-389.308 1114.2932,-388.7147 1116.0176,-388.1606 1117.8398,-387.6472 1119.7536,-387.1759 1121.7521,-386.7479 1123.8279,-386.3645 1125.973,-386.0266 1128.1792,-385.7353 1130.4377,-385.4913 1132.7395,-385.2953 1135.0752,-385.1479 1137.4353,-385.0493 1139.8101,-385 1142.1899,-385 1144.5647,-385.0493"/>
<text text-anchor="middle" x="1141" y="-399.3" font-family="Times,serif" font-size="14.00" fill="#000000">Twitter</text>
</a>
</g>
</g>
<!-- zapier&#45;&gt;twitter -->
<g id="edge34" class="edge">
<title>zapier&#45;&gt;twitter</title>
<path fill="none" stroke="#000000" d="M1095.6577,-487.0213C1091.2096,-473.221 1087.6695,-454.0454 1095,-439 1098.237,-432.3563 1103.3586,-426.5779 1109.0297,-421.7104"/>
<polygon fill="#000000" stroke="#000000" points="1111.1538,-424.4922 1116.9781,-415.6418 1106.9059,-418.9284 1111.1538,-424.4922"/>
<text text-anchor="middle" x="1129" y="-457.8" font-family="Times,serif" font-size="14.00" fill="#000000">Tweet about</text>
<text text-anchor="middle" x="1129" y="-442.8" font-family="Times,serif" font-size="14.00" fill="#000000">new content</text>
</g>
<!-- yak_scraper&#45;&gt;discord -->
<g id="edge13" class="edge">
<title>yak_scraper&#45;&gt;discord</title>
<path fill="none" stroke="#ff0000" d="M658.0468,-112.4585C687.3177,-106.1486 723.0188,-96.2225 732,-84 739.8952,-73.2555 738.0787,-65.8671 732,-54 728.3312,-46.8376 722.5003,-40.7757 716.0952,-35.7862"/>
<polygon fill="#ff0000" stroke="#ff0000" points="718.008,-32.8536 707.7943,-30.0375 714.0226,-38.6083 718.008,-32.8536"/>
<text text-anchor="middle" x="787" y="-72.8" font-family="Times,serif" font-size="14.00" fill="#000000">Requested info or</text>
<text text-anchor="middle" x="787" y="-57.8" font-family="Times,serif" font-size="14.00" fill="#000000">acknowledgement</text>
</g>
<!-- yak_scraper&#45;&gt;discord -->
<g id="edge37" class="edge">
<title>yak_scraper&#45;&gt;discord</title>
<path fill="none" stroke="#000000" d="M611.0298,-101.8616C607.5526,-87.7962 605.3621,-68.3468 614,-54 620.1284,-43.8213 630.207,-36.3698 640.751,-30.9792"/>
<polygon fill="#000000" stroke="#000000" points="642.3919,-34.0781 650.0492,-26.7558 639.497,-27.7047 642.3919,-34.0781"/>
<text text-anchor="middle" x="635" y="-72.8" font-family="Times,serif" font-size="14.00" fill="#000000">Post in</text>
<text text-anchor="middle" x="635" y="-57.8" font-family="Times,serif" font-size="14.00" fill="#000000">#events</text>
</g>
<!-- gigayak -->
<g id="node9" class="node">
<title>gigayak</title>
<g id="a_node9"><a xlink:href="https://roamresearch.com/#/app/ArtOfGig/page/_1voFfg7g" xlink:title="gigayak">
<polygon fill="none" stroke="#0000ff" points="557.5,-138 498.5,-138 498.5,-102 557.5,-102 557.5,-138"/>
<text text-anchor="middle" x="528" y="-116.3" font-family="Times,serif" font-size="14.00" fill="#000000">gigayak</text>
</a>
</g>
</g>
<!-- gigayak&#45;&gt;discord -->
<g id="edge14" class="edge">
<title>gigayak&#45;&gt;discord</title>
<path fill="none" stroke="#ff0000" d="M512.0563,-101.8727C501.5254,-87.6288 491.5883,-67.9353 503,-54 519.1846,-34.2363 585.9416,-25.0889 633.1766,-21.0239"/>
<polygon fill="#ff0000" stroke="#ff0000" points="633.5466,-24.5055 643.2312,-20.209 632.9811,-17.5284 633.5466,-24.5055"/>
<text text-anchor="middle" x="553" y="-72.8" font-family="Times,serif" font-size="14.00" fill="#000000">Requested info or</text>
<text text-anchor="middle" x="553" y="-57.8" font-family="Times,serif" font-size="14.00" fill="#000000">acknowledgement</text>
</g>
<!-- welcome_bot -->
<g id="node10" class="node">
<title>welcome_bot</title>
<g id="a_node10"><a xlink:href="https://roamresearch.com/#/app/ArtOfGig/page/S_Xkw1vVi" xlink:title="welcome_bot">
<polygon fill="none" stroke="#0000ff" points="1144,-138 1054,-138 1054,-102 1144,-102 1144,-138"/>
<text text-anchor="middle" x="1099" y="-116.3" font-family="Times,serif" font-size="14.00" fill="#000000">welcome_bot</text>
</a>
</g>
</g>
<!-- welcome_bot&#45;&gt;discord -->
<g id="edge9" class="edge">
<title>welcome_bot&#45;&gt;discord</title>
<path fill="none" stroke="#000000" d="M1144.1803,-109.1689C1167.4046,-102.5913 1192.2361,-93.6239 1199,-84 1206.6668,-73.0914 1208.0947,-63.7501 1199,-54 1183.1998,-37.0613 858.1844,-24.0763 731.7272,-19.6472"/>
<polygon fill="#000000" stroke="#000000" points="731.6596,-16.1428 721.5442,-19.294 731.4169,-23.1386 731.6596,-16.1428"/>
<text text-anchor="middle" x="1257" y="-72.8" font-family="Times,serif" font-size="14.00" fill="#000000">Welcome message</text>
<text text-anchor="middle" x="1257" y="-57.8" font-family="Times,serif" font-size="14.00" fill="#000000">series</text>
</g>
<!-- yakyak -->
<g id="node11" class="node">
<title>yakyak</title>
<g id="a_node11"><a xlink:href="https://roamresearch.com/#/app/ArtOfGig/page/Q1LoZ_dE4" xlink:title="yakyak">
<polygon fill="none" stroke="#0000ff" points="1036,-138 980,-138 980,-102 1036,-102 1036,-138"/>
<text text-anchor="middle" x="1008" y="-116.3" font-family="Times,serif" font-size="14.00" fill="#000000">yakyak</text>
</a>
</g>
</g>
<!-- yakyak&#45;&gt;discord -->
<g id="edge10" class="edge">
<title>yakyak&#45;&gt;discord</title>
<path fill="none" stroke="#000000" d="M1005.663,-101.8195C1002.6795,-86.5345 995.9673,-65.4055 981,-54 961.5231,-39.1582 810.4318,-26.7599 730.7852,-21.1769"/>
<polygon fill="#000000" stroke="#000000" points="730.7253,-17.6645 720.5077,-20.4665 730.2425,-24.6479 730.7253,-17.6645"/>
<text text-anchor="middle" x="1039.5" y="-72.8" font-family="Times,serif" font-size="14.00" fill="#000000">Prune inactive</text>
<text text-anchor="middle" x="1039.5" y="-57.8" font-family="Times,serif" font-size="14.00" fill="#000000">users</text>
</g>
<!-- discord&#45;&gt;yak_scraper -->
<g id="edge11" class="edge">
<title>discord&#45;&gt;yak_scraper</title>
<path fill="none" stroke="#ff0000" d="M678.8021,-36.0112C675.6844,-50.0066 669.9244,-69.4237 660,-84 657.4024,-87.8152 654.2923,-91.4519 650.9486,-94.8454"/>
<polygon fill="#ff0000" stroke="#ff0000" points="648.3285,-92.5011 643.3637,-101.8607 653.0816,-97.6401 648.3285,-92.5011"/>
<text text-anchor="middle" x="700.5" y="-72.8" font-family="Times,serif" font-size="14.00" fill="#000000">User</text>
<text text-anchor="middle" x="700.5" y="-57.8" font-family="Times,serif" font-size="14.00" fill="#000000">command</text>
</g>
<!-- discord&#45;&gt;gigayak -->
<g id="edge12" class="edge">
<title>discord&#45;&gt;gigayak</title>
<path fill="none" stroke="#ff0000" d="M643.3424,-20.4776C573.3924,-25.3571 431.6597,-37.2141 417,-54 408.2294,-64.0426 409.16,-73.2152 417,-84 425.6202,-95.8579 459.9701,-105.8142 488.2027,-112.2292"/>
<polygon fill="#ff0000" stroke="#ff0000" points="487.7517,-115.7131 498.2685,-114.4293 489.2465,-108.8746 487.7517,-115.7131"/>
<text text-anchor="middle" x="444.5" y="-72.8" font-family="Times,serif" font-size="14.00" fill="#000000">User</text>
<text text-anchor="middle" x="444.5" y="-57.8" font-family="Times,serif" font-size="14.00" fill="#000000">command</text>
</g>
<!-- discord&#45;&gt;welcome_bot -->
<g id="edge7" class="edge">
<title>discord&#45;&gt;welcome_bot</title>
<path fill="none" stroke="#000000" d="M721.5714,-18.9723C817.3903,-21.6861 1055.9949,-30.7297 1083,-54 1093.7124,-63.2309 1097.8991,-78.2992 1099.3235,-91.709"/>
<polygon fill="#000000" stroke="#000000" points="1095.8464,-92.1949 1099.9454,-101.9646 1102.8336,-91.7711 1095.8464,-92.1949"/>
<text text-anchor="middle" x="1146.5" y="-72.8" font-family="Times,serif" font-size="14.00" fill="#000000">New user</text>
<text text-anchor="middle" x="1146.5" y="-57.8" font-family="Times,serif" font-size="14.00" fill="#000000">notification / data</text>
</g>
<!-- discord&#45;&gt;yakyak -->
<g id="edge8" class="edge">
<title>discord&#45;&gt;yakyak</title>
<path fill="none" stroke="#000000" d="M718.9444,-22.2504C752.0105,-27.0009 801.2589,-36.4472 841,-54 862.316,-63.4148 862.9754,-73.9511 884,-84 911.5529,-97.1692 944.8961,-106.517 970.0643,-112.3812"/>
<polygon fill="#000000" stroke="#000000" points="969.4409,-115.8284 979.9652,-114.6076 970.9767,-108.9989 969.4409,-115.8284"/>
<text text-anchor="middle" x="932.5" y="-72.8" font-family="Times,serif" font-size="14.00" fill="#000000">New user</text>
<text text-anchor="middle" x="932.5" y="-57.8" font-family="Times,serif" font-size="14.00" fill="#000000">notification / data</text>
</g>
<!-- substack -->
<g id="node13" class="node">
<title>substack</title>
<g id="a_node13"><a xlink:href="https://roamresearch.com/#/app/ArtOfGig/page/kMaCo6Xc-" xlink:title="Substack">
<polygon fill="none" stroke="#00ff00" points="863.1622,-1272.8246 865.9179,-1272.9231 868.6452,-1273.0706 871.3328,-1273.2666 873.9699,-1273.5105 876.5459,-1273.8019 879.0506,-1274.1397 881.4743,-1274.5231 883.8078,-1274.9511 886.0424,-1275.4224 888.1701,-1275.9359 890.1834,-1276.49 892.0757,-1277.0832 893.841,-1277.714 895.474,-1278.3806 896.9702,-1279.0811 898.326,-1279.8138 899.5384,-1280.5764 900.6054,-1281.367 901.5255,-1282.1834 902.2981,-1283.0234 902.9234,-1283.8846 903.4023,-1284.7646 903.7364,-1285.6612 903.9277,-1286.5718 903.9792,-1287.4939 903.8942,-1288.4249 903.6766,-1289.3625 903.3308,-1290.3039 902.8616,-1291.2466 902.274,-1292.188 901.5737,-1293.1255 900.7661,-1294.0566 899.8573,-1294.9787 898.8532,-1295.8892 897.7599,-1296.7858 896.5836,-1297.6659 895.3303,-1298.5271 894.0061,-1299.367 892.6167,-1300.1834 891.1681,-1300.974 889.6657,-1301.7367 888.1148,-1302.4693 886.5204,-1303.1698 884.8874,-1303.8364 883.2203,-1304.4672 881.5231,-1305.0605 879.7997,-1305.6146 878.0538,-1306.128 876.2884,-1306.5993 874.5065,-1307.0273 872.7108,-1307.4107 870.9035,-1307.7486 869.0867,-1308.0399 867.2624,-1308.2839 865.4321,-1308.4799 863.5974,-1308.6273 861.7596,-1308.7259 859.9201,-1308.7752 858.0799,-1308.7752 856.2404,-1308.7259 854.4026,-1308.6273 852.5679,-1308.4799 850.7376,-1308.2839 848.9133,-1308.0399 847.0965,-1307.7486 845.2892,-1307.4107 843.4935,-1307.0273 841.7116,-1306.5993 839.9462,-1306.128 838.2003,-1305.6146 836.4769,-1305.0605 834.7797,-1304.4672 833.1126,-1303.8364 831.4796,-1303.1698 829.8852,-1302.4693 828.3343,-1301.7367 826.8319,-1300.974 825.3833,-1300.1834 823.9939,-1299.367 822.6697,-1298.5271 821.4164,-1297.6659 820.2401,-1296.7858 819.1468,-1295.8892 818.1427,-1294.9787 817.2339,-1294.0566 816.4263,-1293.1255 815.726,-1292.188 815.1384,-1291.2466 814.6692,-1290.3039 814.3234,-1289.3625 814.1058,-1288.4249 814.0208,-1287.4939 814.0723,-1286.5718 814.2636,-1285.6612 814.5977,-1284.7646 815.0766,-1283.8846 815.7019,-1283.0234 816.4745,-1282.1834 817.3946,-1281.367 818.4616,-1280.5764 819.674,-1279.8138 821.0298,-1279.0811 822.526,-1278.3806 824.159,-1277.714 825.9243,-1277.0832 827.8166,-1276.49 829.8299,-1275.9359 831.9576,-1275.4224 834.1922,-1274.9511 836.5257,-1274.5231 838.9494,-1274.1397 841.4541,-1273.8019 844.0301,-1273.5105 846.6672,-1273.2666 849.3548,-1273.0706 852.0821,-1272.9231 854.8378,-1272.8246 857.6107,-1272.7752 860.3893,-1272.7752 863.1622,-1272.8246"/>
<text text-anchor="middle" x="859" y="-1287.0752" font-family="Times,serif" font-size="14.00" fill="#000000">Substack</text>
</a>
</g>
</g>
<!-- rss_applet -->
<g id="node19" class="node">
<title>rss_applet</title>
<g id="a_node19"><a xlink:href="https://roamresearch.com/#/app/ArtOfGig/page/ucCeiIsih" xlink:title="create&#45;post\nApplets">
<polygon fill="none" stroke="#0000ff" points="943,-1134.7214 867,-1134.7214 867,-1096.7214 943,-1096.7214 943,-1134.7214"/>
<text text-anchor="middle" x="905" y="-1119.5214" font-family="Times,serif" font-size="14.00" fill="#000000">create&#45;post</text>
<text text-anchor="middle" x="905" y="-1104.5214" font-family="Times,serif" font-size="14.00" fill="#000000">Applets</text>
</a>
</g>
</g>
<!-- substack&#45;&gt;rss_applet -->
<g id="edge24" class="edge">
<title>substack&#45;&gt;rss_applet</title>
<path fill="none" stroke="#ff0000" d="M844.2364,-1273.4545C825.1312,-1248.8547 796.9837,-1203.4853 821,-1173.7214 831.5651,-1160.6278 843.3547,-1174.0026 858,-1165.7214 868.1631,-1159.9747 877.4327,-1151.3005 885.0035,-1142.7824"/>
<polygon fill="#ff0000" stroke="#ff0000" points="887.7096,-1145.0025 891.4557,-1135.092 882.347,-1140.5033 887.7096,-1145.0025"/>
<text text-anchor="middle" x="848.5" y="-1192.5214" font-family="Times,serif" font-size="14.00" fill="#000000">Pulled</text>
<text text-anchor="middle" x="848.5" y="-1177.5214" font-family="Times,serif" font-size="14.00" fill="#000000">by IFTTT</text>
</g>
<!-- twitter_applets -->
<g id="node20" class="node">
<title>twitter_applets</title>
<g id="a_node20"><a xlink:href="https://roamresearch.com/#/app/ArtOfGig/page/j7DInC9sg" xlink:title="Twitter\nApplets">
<polygon fill="none" stroke="#0000ff" points="1020.5,-1134.7214 961.5,-1134.7214 961.5,-1096.7214 1020.5,-1096.7214 1020.5,-1134.7214"/>
<text text-anchor="middle" x="991" y="-1119.5214" font-family="Times,serif" font-size="14.00" fill="#000000">Twitter</text>
<text text-anchor="middle" x="991" y="-1104.5214" font-family="Times,serif" font-size="14.00" fill="#000000">Applets</text>
</a>
</g>
</g>
<!-- substack&#45;&gt;twitter_applets -->
<g id="edge29" class="edge">
<title>substack&#45;&gt;twitter_applets</title>
<path fill="none" stroke="#ff0000" d="M878.4873,-1273.722C904.5787,-1250.7683 948.2685,-1211.8608 954,-1203.7214 966.7419,-1185.6263 976.2582,-1162.465 982.4471,-1144.4462"/>
<polygon fill="#ff0000" stroke="#ff0000" points="985.83,-1145.3624 985.6239,-1134.7696 979.1792,-1143.1789 985.83,-1145.3624"/>
<text text-anchor="middle" x="997.5" y="-1192.5214" font-family="Times,serif" font-size="14.00" fill="#000000">Pulled</text>
<text text-anchor="middle" x="997.5" y="-1177.5214" font-family="Times,serif" font-size="14.00" fill="#000000">by IFTTT</text>
</g>
<!-- member_feeds -->
<g id="node14" class="node">
<title>member_feeds</title>
<g id="a_node14"><a xlink:href="https://roamresearch.com/#/app/ArtOfGig/page/RLF445t5m" xlink:title="Member RSS\nFeeds">
<ellipse fill="none" stroke="#00ff00" cx="1015" cy="-1290.7752" rx="65.1046" ry="65.1046"/>
<ellipse fill="none" stroke="#00ff00" cx="1015" cy="-1290.7752" rx="69.1077" ry="69.1077"/>
<text text-anchor="middle" x="1015" y="-1294.5752" font-family="Times,serif" font-size="14.00" fill="#000000">Member RSS</text>
<text text-anchor="middle" x="1015" y="-1279.5752" font-family="Times,serif" font-size="14.00" fill="#000000">Feeds</text>
</a>
</g>
</g>
<!-- member_feeds&#45;&gt;rss_applet -->
<g id="edge25" class="edge">
<title>member_feeds&#45;&gt;rss_applet</title>
<path fill="none" stroke="#ff0000" d="M956.3273,-1253.9607C931.0199,-1236.7093 905.6699,-1217.0661 899,-1203.7214 889.9576,-1185.6299 891.8428,-1162.7821 895.7868,-1144.9015"/>
<polygon fill="#ff0000" stroke="#ff0000" points="899.2268,-1145.5736 898.2798,-1135.0212 892.4395,-1143.861 899.2268,-1145.5736"/>
<text text-anchor="middle" x="926.5" y="-1192.5214" font-family="Times,serif" font-size="14.00" fill="#000000">Pulled</text>
<text text-anchor="middle" x="926.5" y="-1177.5214" font-family="Times,serif" font-size="14.00" fill="#000000">by IFTTT</text>
</g>
<!-- member_feeds&#45;&gt;twitter_applets -->
<g id="edge30" class="edge">
<title>member_feeds&#45;&gt;twitter_applets</title>
<path fill="none" stroke="#ff0000" d="M1034.911,-1224.6045C1037.1887,-1207.7633 1037.1305,-1189.8673 1032,-1173.7214 1028.5118,-1162.7441 1022.1108,-1152.0558 1015.387,-1142.9071"/>
<polygon fill="#ff0000" stroke="#ff0000" points="1018.1073,-1140.7039 1009.1955,-1134.9739 1012.5889,-1145.0107 1018.1073,-1140.7039"/>
<text text-anchor="middle" x="1063.5" y="-1192.5214" font-family="Times,serif" font-size="14.00" fill="#000000">Pulled</text>
<text text-anchor="middle" x="1063.5" y="-1177.5214" font-family="Times,serif" font-size="14.00" fill="#000000">by IFTTT</text>
</g>
<!-- facebook -->
<g id="node16" class="node">
<title>facebook</title>
<g id="a_node16"><a xlink:href="https://roamresearch.com/#/app/ArtOfGig/page/WZKSWTGz5" xlink:title="Facebook">
<polygon fill="none" stroke="#00ff00" points="873.3971,-1661.7576 876.3084,-1661.8562 879.1895,-1662.0037 882.0288,-1662.1997 884.8147,-1662.4436 887.536,-1662.7349 890.1821,-1663.0728 892.7426,-1663.4562 895.2078,-1663.8842 897.5685,-1664.3555 899.8163,-1664.869 901.9433,-1665.4231 903.9424,-1666.0163 905.8072,-1666.6471 907.5324,-1667.3137 909.1131,-1668.0142 910.5454,-1668.7468 911.8262,-1669.5095 912.9534,-1670.3001 913.9254,-1671.1165 914.7416,-1671.9565 915.4022,-1672.8176 915.9082,-1673.6977 916.261,-1674.5943 916.4632,-1675.5049 916.5176,-1676.4269 916.4278,-1677.358 916.1979,-1678.2956 915.8326,-1679.237 915.3369,-1680.1797 914.7162,-1681.1211 913.9763,-1682.0586 913.1232,-1682.9897 912.1631,-1683.9118 911.1023,-1684.8223 909.9474,-1685.7189 908.7046,-1686.599 907.3806,-1687.4602 905.9816,-1688.3001 904.5139,-1689.1165 902.9835,-1689.9071 901.3963,-1690.6698 899.7578,-1691.4024 898.0735,-1692.1029 896.3484,-1692.7695 894.5871,-1693.4003 892.7942,-1693.9936 890.9736,-1694.5477 889.1291,-1695.0611 887.2641,-1695.5324 885.3816,-1695.9604 883.4845,-1696.3438 881.5752,-1696.6817 879.656,-1696.973 877.7287,-1697.217 875.7951,-1697.413 873.8569,-1697.5604 871.9154,-1697.659 869.972,-1697.7083 868.028,-1697.7083 866.0846,-1697.659 864.1431,-1697.5604 862.2049,-1697.413 860.2713,-1697.217 858.344,-1696.973 856.4248,-1696.6817 854.5155,-1696.3438 852.6184,-1695.9604 850.7359,-1695.5324 848.8709,-1695.0611 847.0264,-1694.5477 845.2058,-1693.9936 843.4129,-1693.4003 841.6516,-1692.7695 839.9265,-1692.1029 838.2422,-1691.4024 836.6037,-1690.6698 835.0165,-1689.9071 833.4861,-1689.1165 832.0184,-1688.3001 830.6194,-1687.4602 829.2954,-1686.599 828.0526,-1685.7189 826.8977,-1684.8223 825.8369,-1683.9118 824.8768,-1682.9897 824.0237,-1682.0586 823.2838,-1681.1211 822.6631,-1680.1797 822.1674,-1679.237 821.8021,-1678.2956 821.5722,-1677.358 821.4824,-1676.4269 821.5368,-1675.5049 821.739,-1674.5943 822.0918,-1673.6977 822.5978,-1672.8176 823.2584,-1671.9565 824.0746,-1671.1165 825.0466,-1670.3001 826.1738,-1669.5095 827.4546,-1668.7468 828.8869,-1668.0142 830.4676,-1667.3137 832.1928,-1666.6471 834.0576,-1666.0163 836.0567,-1665.4231 838.1837,-1664.869 840.4315,-1664.3555 842.7922,-1663.8842 845.2574,-1663.4562 847.8179,-1663.0728 850.464,-1662.7349 853.1853,-1662.4436 855.9712,-1662.1997 858.8105,-1662.0037 861.6916,-1661.8562 864.6029,-1661.7576 867.5323,-1661.7083 870.4677,-1661.7083 873.3971,-1661.7576"/>
<text text-anchor="middle" x="869" y="-1676.0083" font-family="Times,serif" font-size="14.00" fill="#000000">Facebook</text>
</a>
</g>
</g>
<!-- linkedin -->
<g id="node17" class="node">
<title>linkedin</title>
<g id="a_node17"><a xlink:href="https://roamresearch.com/#/app/ArtOfGig/page/M17w4lZJB" xlink:title="LinkedIn">
<polygon fill="none" stroke="#00ff00" points="997.2441,-1661.7576 1000.0541,-1661.8562 1002.835,-1662.0037 1005.5754,-1662.1997 1008.2644,-1662.4436 1010.8911,-1662.7349 1013.4451,-1663.0728 1015.9165,-1663.4562 1018.2959,-1663.8842 1020.5745,-1664.3555 1022.744,-1664.869 1024.797,-1665.4231 1026.7265,-1666.0163 1028.5265,-1666.6471 1030.1917,-1667.3137 1031.7173,-1668.0142 1033.0998,-1668.7468 1034.3361,-1669.5095 1035.424,-1670.3001 1036.3622,-1671.1165 1037.15,-1671.9565 1037.7877,-1672.8176 1038.276,-1673.6977 1038.6166,-1674.5943 1038.8117,-1675.5049 1038.8642,-1676.4269 1038.7775,-1677.358 1038.5557,-1678.2956 1038.2031,-1679.237 1037.7246,-1680.1797 1037.1255,-1681.1211 1036.4113,-1682.0586 1035.5879,-1682.9897 1034.6612,-1683.9118 1033.6374,-1684.8223 1032.5226,-1685.7189 1031.3231,-1686.599 1030.0452,-1687.4602 1028.6948,-1688.3001 1027.2782,-1689.1165 1025.801,-1689.9071 1024.2691,-1690.6698 1022.6876,-1691.4024 1021.0619,-1692.1029 1019.3968,-1692.7695 1017.6968,-1693.4003 1015.9662,-1693.9936 1014.209,-1694.5477 1012.4287,-1695.0611 1010.6286,-1695.5324 1008.8116,-1695.9604 1006.9805,-1696.3438 1005.1377,-1696.6817 1003.2852,-1696.973 1001.4249,-1697.217 999.5587,-1697.413 997.6879,-1697.5604 995.8139,-1697.659 993.9382,-1697.7083 992.0618,-1697.7083 990.1861,-1697.659 988.3121,-1697.5604 986.4413,-1697.413 984.5751,-1697.217 982.7148,-1696.973 980.8623,-1696.6817 979.0195,-1696.3438 977.1884,-1695.9604 975.3714,-1695.5324 973.5713,-1695.0611 971.791,-1694.5477 970.0338,-1693.9936 968.3032,-1693.4003 966.6032,-1692.7695 964.9381,-1692.1029 963.3124,-1691.4024 961.7309,-1690.6698 960.199,-1689.9071 958.7218,-1689.1165 957.3052,-1688.3001 955.9548,-1687.4602 954.6769,-1686.599 953.4774,-1685.7189 952.3626,-1684.8223 951.3388,-1683.9118 950.4121,-1682.9897 949.5887,-1682.0586 948.8745,-1681.1211 948.2754,-1680.1797 947.7969,-1679.237 947.4443,-1678.2956 947.2225,-1677.358 947.1358,-1676.4269 947.1883,-1675.5049 947.3834,-1674.5943 947.724,-1673.6977 948.2123,-1672.8176 948.85,-1671.9565 949.6378,-1671.1165 950.576,-1670.3001 951.6639,-1669.5095 952.9002,-1668.7468 954.2827,-1668.0142 955.8083,-1667.3137 957.4735,-1666.6471 959.2735,-1666.0163 961.203,-1665.4231 963.256,-1664.869 965.4255,-1664.3555 967.7041,-1663.8842 970.0835,-1663.4562 972.5549,-1663.0728 975.1089,-1662.7349 977.7356,-1662.4436 980.4246,-1662.1997 983.165,-1662.0037 985.9459,-1661.8562 988.7559,-1661.7576 991.5833,-1661.7083 994.4167,-1661.7083 997.2441,-1661.7576"/>
<text text-anchor="middle" x="993" y="-1676.0083" font-family="Times,serif" font-size="14.00" fill="#000000">LinkedIn</text>
</a>
</g>
</g>
<!-- glitch -->
<g id="node18" class="node">
<title>glitch</title>
<g id="a_node18"><a xlink:href="https://roamresearch.com/#/app/ArtOfGig/page/bTxU0ABQS" xlink:title="Glitch">
<polygon fill="none" stroke="#0000ff" points="1100.2124,-1661.7576 1102.3393,-1661.8562 1104.4442,-1662.0037 1106.5185,-1662.1997 1108.5538,-1662.4436 1110.5419,-1662.7349 1112.4751,-1663.0728 1114.3457,-1663.4562 1116.1467,-1663.8842 1117.8714,-1664.3555 1119.5136,-1664.869 1121.0675,-1665.4231 1122.528,-1666.0163 1123.8904,-1666.6471 1125.1507,-1667.3137 1126.3056,-1668.0142 1127.352,-1668.7468 1128.2877,-1669.5095 1129.1112,-1670.3001 1129.8213,-1671.1165 1130.4176,-1671.9565 1130.9003,-1672.8176 1131.2699,-1673.6977 1131.5277,-1674.5943 1131.6754,-1675.5049 1131.7151,-1676.4269 1131.6495,-1677.358 1131.4816,-1678.2956 1131.2147,-1679.237 1130.8525,-1680.1797 1130.399,-1681.1211 1129.8585,-1682.0586 1129.2352,-1682.9897 1128.5338,-1683.9118 1127.7588,-1684.8223 1126.9151,-1685.7189 1126.0072,-1686.599 1125.0399,-1687.4602 1124.0178,-1688.3001 1122.9455,-1689.1165 1121.8275,-1689.9071 1120.6679,-1690.6698 1119.4709,-1691.4024 1118.2404,-1692.1029 1116.98,-1692.7695 1115.6933,-1693.4003 1114.3834,-1693.9936 1113.0533,-1694.5477 1111.7058,-1695.0611 1110.3432,-1695.5324 1108.968,-1695.9604 1107.582,-1696.3438 1106.1871,-1696.6817 1104.785,-1696.973 1103.3769,-1697.217 1101.9643,-1697.413 1100.5483,-1697.5604 1099.1299,-1697.659 1097.7101,-1697.7083 1096.2899,-1697.7083 1094.8701,-1697.659 1093.4517,-1697.5604 1092.0357,-1697.413 1090.6231,-1697.217 1089.215,-1696.973 1087.8129,-1696.6817 1086.418,-1696.3438 1085.032,-1695.9604 1083.6568,-1695.5324 1082.2942,-1695.0611 1080.9467,-1694.5477 1079.6166,-1693.9936 1078.3067,-1693.4003 1077.02,-1692.7695 1075.7596,-1692.1029 1074.5291,-1691.4024 1073.3321,-1690.6698 1072.1725,-1689.9071 1071.0545,-1689.1165 1069.9822,-1688.3001 1068.9601,-1687.4602 1067.9928,-1686.599 1067.0849,-1685.7189 1066.2412,-1684.8223 1065.4662,-1683.9118 1064.7648,-1682.9897 1064.1415,-1682.0586 1063.601,-1681.1211 1063.1475,-1680.1797 1062.7853,-1679.237 1062.5184,-1678.2956 1062.3505,-1677.358 1062.2849,-1676.4269 1062.3246,-1675.5049 1062.4723,-1674.5943 1062.7301,-1673.6977 1063.0997,-1672.8176 1063.5824,-1671.9565 1064.1787,-1671.1165 1064.8888,-1670.3001 1065.7123,-1669.5095 1066.648,-1668.7468 1067.6944,-1668.0142 1068.8493,-1667.3137 1070.1096,-1666.6471 1071.472,-1666.0163 1072.9325,-1665.4231 1074.4864,-1664.869 1076.1286,-1664.3555 1077.8533,-1663.8842 1079.6543,-1663.4562 1081.5249,-1663.0728 1083.4581,-1662.7349 1085.4462,-1662.4436 1087.4815,-1662.1997 1089.5558,-1662.0037 1091.6607,-1661.8562 1093.7876,-1661.7576 1095.9277,-1661.7083 1098.0723,-1661.7083 1100.2124,-1661.7576"/>
<text text-anchor="middle" x="1097" y="-1676.0083" font-family="Times,serif" font-size="14.00" fill="#000000">Glitch</text>
</a>
</g>
</g>
<!-- create_post -->
<g id="node28" class="node">
<title>create_post</title>
<g id="a_node28"><a xlink:href="https://roamresearch.com/#/app/ArtOfGig/page/wDK81GyfO" xlink:title="create&#45;post">
<polygon fill="none" stroke="#0000ff" points="417,-951.5965 341,-951.5965 341,-915.5965 417,-915.5965 417,-951.5965"/>
<text text-anchor="middle" x="379" y="-929.8965" font-family="Times,serif" font-size="14.00" fill="#000000">create&#45;post</text>
</a>
</g>
</g>
<!-- rss_applet&#45;&gt;create_post -->
<g id="edge26" class="edge">
<title>rss_applet&#45;&gt;create_post</title>
<path fill="none" stroke="#000000" d="M876.6049,-1096.6966C870.6754,-1093.514 864.3046,-1090.6303 858,-1088.7214 826.0261,-1079.0405 737.2806,-1094.8053 708,-1078.7214 693.5081,-1070.761 700.6238,-1056.4368 686,-1048.7214 662.1069,-1036.1155 466.273,-1054.4385 443,-1040.7214 413.6716,-1023.4353 396.2341,-987.0073 387.1401,-961.4504"/>
<polygon fill="#000000" stroke="#000000" points="390.443,-960.2909 383.9514,-951.9177 383.8045,-962.5115 390.443,-960.2909"/>
<text text-anchor="middle" x="746.5" y="-1067.5214" font-family="Times,serif" font-size="14.00" fill="#000000">RSS post data</text>
<text text-anchor="middle" x="746.5" y="-1052.5214" font-family="Times,serif" font-size="14.00" fill="#000000">to webhook</text>
</g>
<!-- twitter_applets&#45;&gt;twitter -->
<g id="edge32" class="edge">
<title>twitter_applets&#45;&gt;twitter</title>
<path fill="none" stroke="#000000" d="M1018.4449,-1096.5622C1070.184,-1059.4213 1177,-977.4348 1177,-933.5965 1177,-933.5965 1177,-933.5965 1177,-505 1177,-475.014 1174.0886,-466.8604 1163,-439 1161.6186,-435.5292 1159.9145,-432.0126 1158.071,-428.606"/>
<polygon fill="#000000" stroke="#000000" points="1161.0726,-426.8055 1152.9919,-419.9532 1155.0358,-430.3491 1161.0726,-426.8055"/>
<text text-anchor="middle" x="1211" y="-674.5817" font-family="Times,serif" font-size="14.00" fill="#000000">Tweet about</text>
<text text-anchor="middle" x="1211" y="-659.5817" font-family="Times,serif" font-size="14.00" fill="#000000">new content</text>
</g>
<!-- netlify_applet -->
<g id="node21" class="node">
<title>netlify_applet</title>
<g id="a_node21"><a xlink:href="https://roamresearch.com/#/app/ArtOfGig/page/EWP06EjZH" xlink:title="Netlify Build\nHook Applet">
<polygon fill="none" stroke="#0000ff" points="1127.5,-1134.7214 1038.5,-1134.7214 1038.5,-1096.7214 1127.5,-1096.7214 1127.5,-1134.7214"/>
<text text-anchor="middle" x="1083" y="-1119.5214" font-family="Times,serif" font-size="14.00" fill="#000000">Netlify Build</text>
<text text-anchor="middle" x="1083" y="-1104.5214" font-family="Times,serif" font-size="14.00" fill="#000000">Hook Applet</text>
</a>
</g>
</g>
<!-- netlify_ci -->
<g id="node23" class="node">
<title>netlify_ci</title>
<g id="a_node23"><a xlink:href="https://roamresearch.com/#/app/ArtOfGig/page/lfZqzDmtI" xlink:title="Netlify Continuous\nIntegration">
<polygon fill="none" stroke="#0000ff" points="478.4423,-1653.0226 484.0318,-1653.1691 489.5635,-1653.3883 495.0148,-1653.6797 500.3636,-1654.0424 505.5885,-1654.4754 510.6689,-1654.9777 515.585,-1655.5477 520.318,-1656.1839 524.8505,-1656.8846 529.1661,-1657.6479 533.2498,-1658.4716 537.088,-1659.3536 540.6685,-1660.2913 543.9808,-1661.2823 547.0156,-1662.3237 549.7656,-1663.4128 552.2248,-1664.5466 554.3888,-1665.7219 556.255,-1666.9356 557.8222,-1668.1843 559.0906,-1669.4645 560.0619,-1670.7729 560.7394,-1672.1057 561.1276,-1673.4594 561.232,-1674.8302 561.0596,-1676.2144 560.6182,-1677.6081 559.9168,-1679.0076 558.9651,-1680.409 557.7734,-1681.8085 556.3528,-1683.2023 554.7148,-1684.5864 552.8715,-1685.9572 550.8349,-1687.3109 548.6174,-1688.6437 546.2314,-1689.9521 543.6893,-1691.2323 541.0033,-1692.481 538.1854,-1693.6947 535.2471,-1694.87 532.1997,-1696.0038 529.0539,-1697.0929 525.8201,-1698.1344 522.5079,-1699.1253 519.1263,-1700.063 515.6839,-1700.945 512.1884,-1701.7687 508.6471,-1702.532 505.0663,-1703.2327 501.4521,-1703.8689 497.8097,-1704.4389 494.144,-1704.9412 490.459,-1705.3742 486.7587,-1705.7369 483.0463,-1706.0283 479.325,-1706.2476 475.5974,-1706.394 471.8662,-1706.4674 468.1338,-1706.4674 464.4026,-1706.394 460.675,-1706.2476 456.9537,-1706.0283 453.2413,-1705.7369 449.541,-1705.3742 445.856,-1704.9412 442.1903,-1704.4389 438.5479,-1703.8689 434.9337,-1703.2327 431.3529,-1702.532 427.8116,-1701.7687 424.3161,-1700.945 420.8737,-1700.063 417.4921,-1699.1253 414.1799,-1698.1344 410.9461,-1697.0929 407.8003,-1696.0038 404.7529,-1694.87 401.8146,-1693.6947 398.9967,-1692.481 396.3107,-1691.2323 393.7686,-1689.9521 391.3826,-1688.6437 389.1651,-1687.3109 387.1285,-1685.9572 385.2852,-1684.5864 383.6472,-1683.2023 382.2266,-1681.8085 381.0349,-1680.409 380.0832,-1679.0076 379.3818,-1677.6081 378.9404,-1676.2144 378.768,-1674.8302 378.8724,-1673.4594 379.2606,-1672.1057 379.9381,-1670.7729 380.9094,-1669.4645 382.1778,-1668.1843 383.745,-1666.9356 385.6112,-1665.7219 387.7752,-1664.5466 390.2344,-1663.4128 392.9844,-1662.3237 396.0192,-1661.2823 399.3315,-1660.2913 402.912,-1659.3536 406.7502,-1658.4716 410.8339,-1657.6479 415.1495,-1656.8846 419.682,-1656.1839 424.415,-1655.5477 429.3311,-1654.9777 434.4115,-1654.4754 439.6364,-1654.0424 444.9852,-1653.6797 450.4365,-1653.3883 455.9682,-1653.1691 461.5577,-1653.0226 467.182,-1652.9492 472.818,-1652.9492 478.4423,-1653.0226"/>
<text text-anchor="middle" x="470" y="-1683.5083" font-family="Times,serif" font-size="14.00" fill="#000000">Netlify Continuous</text>
<text text-anchor="middle" x="470" y="-1668.5083" font-family="Times,serif" font-size="14.00" fill="#000000">Integration</text>
</a>
</g>
</g>
<!-- netlify_applet&#45;&gt;netlify_ci -->
<g id="edge17" class="edge">
<title>netlify_applet&#45;&gt;netlify_ci</title>
<path fill="none" stroke="#000000" d="M1090.52,-1134.8064C1102.3564,-1166.6153 1124,-1232.7177 1124,-1290.7752 1124,-1608.329 1124,-1608.329 1124,-1608.329 1124,-1622.0609 754.7316,-1655.4589 571.1454,-1671.2146"/>
<polygon fill="#000000" stroke="#000000" points="570.6007,-1667.7484 560.9359,-1672.089 571.1981,-1674.7228 570.6007,-1667.7484"/>
<text text-anchor="middle" x="1165.5" y="-1498.629" font-family="Times,serif" font-size="14.00" fill="#000000">Trigger rebuild</text>
<text text-anchor="middle" x="1165.5" y="-1483.629" font-family="Times,serif" font-size="14.00" fill="#000000">every 24 hours</text>
</g>
<!-- github -->
<g id="node22" class="node">
<title>github</title>
<g id="a_node22"><a xlink:href="https://roamresearch.com/#/app/ArtOfGig/page/1PVNV7Ell" xlink:title="GitHub">
<polygon fill="none" stroke="#0000ff" points="109.6464,-652.8311 112.0606,-652.9296 114.4498,-653.0771 116.8044,-653.2731 119.1146,-653.5171 121.3714,-653.8084 123.5657,-654.1462 125.689,-654.5296 127.7333,-654.9576 129.691,-655.429 131.555,-655.9424 133.3188,-656.4965 134.9766,-657.0897 136.5231,-657.7205 137.9537,-658.3871 139.2645,-659.0877 140.4523,-659.8203 141.5145,-660.5829 142.4492,-661.3735 143.2552,-662.1899 143.9321,-663.0299 144.48,-663.8911 144.8995,-664.7712 145.1921,-665.6677 145.3598,-666.5783 145.4049,-667.5004 145.3304,-668.4315 145.1398,-669.369 144.8368,-670.3104 144.4258,-671.2531 143.911,-672.1945 143.2975,-673.132 142.59,-674.0631 141.7938,-674.9852 140.9142,-675.8958 139.9564,-676.7923 138.9258,-677.6724 137.8279,-678.5336 136.6677,-679.3735 135.4506,-680.1899 134.1815,-680.9806 132.8652,-681.7432 131.5065,-682.4758 130.1098,-683.1764 128.6792,-683.843 127.2186,-684.4737 125.7318,-685.067 124.222,-685.6211 122.6924,-686.1345 121.1458,-686.6059 119.5848,-687.0339 118.0116,-687.4173 116.4283,-687.7551 114.8367,-688.0464 113.2384,-688.2904 111.635,-688.4864 110.0277,-688.6339 108.4176,-688.7324 106.8061,-688.7817 105.1939,-688.7817 103.5824,-688.7324 101.9723,-688.6339 100.365,-688.4864 98.7616,-688.2904 97.1633,-688.0464 95.5717,-687.7551 93.9884,-687.4173 92.4152,-687.0339 90.8542,-686.6059 89.3076,-686.1345 87.778,-685.6211 86.2682,-685.067 84.7814,-684.4737 83.3208,-683.843 81.8902,-683.1764 80.4935,-682.4758 79.1348,-681.7432 77.8185,-680.9806 76.5494,-680.1899 75.3323,-679.3735 74.1721,-678.5336 73.0742,-677.6724 72.0436,-676.7923 71.0858,-675.8958 70.2062,-674.9852 69.41,-674.0631 68.7025,-673.132 68.089,-672.1945 67.5742,-671.2531 67.1632,-670.3104 66.8602,-669.369 66.6696,-668.4315 66.5951,-667.5004 66.6402,-666.5783 66.8079,-665.6677 67.1005,-664.7712 67.52,-663.8911 68.0679,-663.0299 68.7448,-662.1899 69.5508,-661.3735 70.4855,-660.5829 71.5477,-659.8203 72.7355,-659.0877 74.0463,-658.3871 75.4769,-657.7205 77.0234,-657.0897 78.6812,-656.4965 80.445,-655.9424 82.309,-655.429 84.2667,-654.9576 86.311,-654.5296 88.4343,-654.1462 90.6286,-653.8084 92.8854,-653.5171 95.1956,-653.2731 97.5502,-653.0771 99.9394,-652.9296 102.3536,-652.8311 104.7829,-652.7817 107.2171,-652.7817 109.6464,-652.8311"/>
<text text-anchor="middle" x="106" y="-667.0817" font-family="Times,serif" font-size="14.00" fill="#000000">GitHub</text>
</a>
</g>
</g>
<!-- github&#45;&gt;netlify_ci -->
<g id="edge16" class="edge">
<title>github&#45;&gt;netlify_ci</title>
<path fill="none" stroke="#000000" d="M106,-688.9435C106,-731.6258 106,-841.657 106,-933.5965 106,-1608.329 106,-1608.329 106,-1608.329 106,-1635.299 261.8677,-1657.5371 369.6109,-1669.6875"/>
<polygon fill="#000000" stroke="#000000" points="369.2286,-1673.1665 379.5548,-1670.7958 370.004,-1666.2095 369.2286,-1673.1665"/>
<text text-anchor="middle" x="166" y="-1396.629" font-family="Times,serif" font-size="14.00" fill="#000000">Repo contents pushed</text>
<text text-anchor="middle" x="166" y="-1381.629" font-family="Times,serif" font-size="14.00" fill="#000000">on commit</text>
</g>
<!-- jekyll -->
<g id="node24" class="node">
<title>jekyll</title>
<g id="a_node24"><a xlink:href="https://roamresearch.com/#/app/ArtOfGig/page/fF35dWNYl" xlink:title="Jekyll">
<polygon fill="none" stroke="#0000ff" points="497,-1563.829 443,-1563.829 443,-1527.829 497,-1527.829 497,-1563.829"/>
<text text-anchor="middle" x="470" y="-1542.129" font-family="Times,serif" font-size="14.00" fill="#000000">Jekyll</text>
</a>
</g>
</g>
<!-- netlify_ci&#45;&gt;jekyll -->
<g id="edge18" class="edge">
<title>netlify_ci&#45;&gt;jekyll</title>
<path fill="none" stroke="#000000" d="M470,-1652.9376C470,-1630.145 470,-1597.4926 470,-1574.242"/>
<polygon fill="#000000" stroke="#000000" points="473.5001,-1573.9792 470,-1563.9793 466.5001,-1573.9793 473.5001,-1573.9792"/>
<text text-anchor="middle" x="508" y="-1604.629" font-family="Times,serif" font-size="14.00" fill="#000000">Build website</text>
</g>
<!-- netlify_cdn -->
<g id="node25" class="node">
<title>netlify_cdn</title>
<g id="a_node25"><a xlink:href="https://roamresearch.com/#/app/ArtOfGig/page/R-E2CDAe2" xlink:title="Netlify\nCDN">
<polygon fill="none" stroke="#0000ff" points="473.8248,-1264.0895 476.3571,-1264.236 478.8633,-1264.4552 481.333,-1264.7466 483.7563,-1265.1093 486.1234,-1265.5424 488.4251,-1266.0446 490.6523,-1266.6146 492.7967,-1267.2508 494.8501,-1267.9515 496.8053,-1268.7148 498.6555,-1269.5385 500.3944,-1270.4205 502.0165,-1271.3582 503.5171,-1272.3492 504.8921,-1273.3906 506.1379,-1274.4797 507.2521,-1275.6135 508.2325,-1276.7888 509.078,-1278.0025 509.788,-1279.2512 510.3627,-1280.5315 510.8027,-1281.8398 511.1097,-1283.1726 511.2855,-1284.5263 511.3328,-1285.8971 511.2547,-1287.2813 511.0548,-1288.675 510.737,-1290.0745 510.3058,-1291.4759 509.7659,-1292.8754 509.1223,-1294.2692 508.3802,-1295.6533 507.5451,-1297.0241 506.6224,-1298.3778 505.6178,-1299.7106 504.5368,-1301.019 503.3851,-1302.2992 502.1682,-1303.5479 500.8915,-1304.7616 499.5603,-1305.9369 498.1797,-1307.0707 496.7545,-1308.1598 495.2894,-1309.2013 493.7888,-1310.1922 492.2568,-1311.13 490.6972,-1312.0119 489.1135,-1312.8356 487.5091,-1313.5989 485.8869,-1314.2996 484.2494,-1314.9358 482.5993,-1315.5059 480.9385,-1316.0081 479.269,-1316.4411 477.5926,-1316.8039 475.9107,-1317.0952 474.2247,-1317.3145 472.5359,-1317.4609 470.8455,-1317.5343 469.1545,-1317.5343 467.4641,-1317.4609 465.7753,-1317.3145 464.0893,-1317.0952 462.4074,-1316.8039 460.731,-1316.4411 459.0615,-1316.0081 457.4007,-1315.5059 455.7506,-1314.9358 454.1131,-1314.2996 452.4909,-1313.5989 450.8865,-1312.8356 449.3028,-1312.0119 447.7432,-1311.13 446.2112,-1310.1922 444.7106,-1309.2013 443.2455,-1308.1598 441.8203,-1307.0707 440.4397,-1305.9369 439.1085,-1304.7616 437.8318,-1303.5479 436.6149,-1302.2992 435.4632,-1301.019 434.3822,-1299.7106 433.3776,-1298.3778 432.4549,-1297.0241 431.6198,-1295.6533 430.8777,-1294.2692 430.2341,-1292.8754 429.6942,-1291.4759 429.263,-1290.0745 428.9452,-1288.675 428.7453,-1287.2813 428.6672,-1285.8971 428.7145,-1284.5263 428.8903,-1283.1726 429.1973,-1281.8398 429.6373,-1280.5315 430.212,-1279.2512 430.922,-1278.0025 431.7675,-1276.7888 432.7479,-1275.6135 433.8621,-1274.4797 435.1079,-1273.3906 436.4829,-1272.3492 437.9835,-1271.3582 439.6056,-1270.4205 441.3445,-1269.5385 443.1947,-1268.7148 445.1499,-1267.9515 447.2033,-1267.2508 449.3477,-1266.6146 451.5749,-1266.0446 453.8766,-1265.5424 456.2437,-1265.1093 458.667,-1264.7466 461.1367,-1264.4552 463.6429,-1264.236 466.1752,-1264.0895 468.7233,-1264.0161 471.2767,-1264.0161 473.8248,-1264.0895"/>
<text text-anchor="middle" x="470" y="-1294.5752" font-family="Times,serif" font-size="14.00" fill="#000000">Netlify</text>
<text text-anchor="middle" x="470" y="-1279.5752" font-family="Times,serif" font-size="14.00" fill="#000000">CDN</text>
</a>
</g>
</g>
<!-- jekyll&#45;&gt;netlify_cdn -->
<g id="edge19" class="edge">
<title>jekyll&#45;&gt;netlify_cdn</title>
<path fill="none" stroke="#000000" d="M470,-1527.4862C470,-1485.8515 470,-1383.5233 470,-1328.0229"/>
<polygon fill="#000000" stroke="#000000" points="473.5001,-1327.9043 470,-1317.9043 466.5001,-1327.9044 473.5001,-1327.9043"/>
<text text-anchor="middle" x="523.5" y="-1447.629" font-family="Times,serif" font-size="14.00" fill="#000000">Optimize &amp; deploy</text>
<text text-anchor="middle" x="523.5" y="-1432.629" font-family="Times,serif" font-size="14.00" fill="#000000">website files</text>
</g>
<!-- website -->
<g id="node26" class="node">
<title>website</title>
<g id="a_node26"><a xlink:href="https://roamresearch.com/#/app/ArtOfGig/page/h0Wx539Oq" xlink:title="Yak Collective\nWebsite">
<ellipse fill="none" stroke="#00ff00" cx="528" cy="-933.5965" rx="69.1046" ry="69.1046"/>
<ellipse fill="none" stroke="#00ff00" cx="528" cy="-933.5965" rx="73.0935" ry="73.0935"/>
<text text-anchor="middle" x="528" y="-937.3965" font-family="Times,serif" font-size="14.00" fill="#000000">Yak Collective</text>
<text text-anchor="middle" x="528" y="-922.3965" font-family="Times,serif" font-size="14.00" fill="#000000">Website</text>
</a>
</g>
</g>
<!-- netlify_cdn&#45;&gt;website -->
<g id="edge21" class="edge">
<title>netlify_cdn&#45;&gt;website</title>
<path fill="none" stroke="#000000" d="M474.3594,-1263.9288C482.7977,-1211.9637 501.671,-1095.7373 514.6208,-1015.9888"/>
<polygon fill="#000000" stroke="#000000" points="518.1005,-1016.3961 516.2486,-1005.9643 511.191,-1015.274 518.1005,-1016.3961"/>
<text text-anchor="middle" x="546.5" y="-1119.5214" font-family="Times,serif" font-size="14.00" fill="#000000">Push to Amazon</text>
<text text-anchor="middle" x="546.5" y="-1104.5214" font-family="Times,serif" font-size="14.00" fill="#000000">Cloudfront</text>
</g>
<!-- featured_yak -->
<g id="node27" class="node">
<title>featured_yak</title>
<g id="a_node27"><a xlink:href="https://roamresearch.com/#/app/ArtOfGig/page/ZzuH6YDFq" xlink:title="&quot;Featured Yak&quot;\nRSS Feed">
<ellipse fill="none" stroke="#00ff00" cx="695" cy="-933.5965" rx="72.2434" ry="72.2434"/>
<ellipse fill="none" stroke="#00ff00" cx="695" cy="-933.5965" rx="76.25" ry="76.25"/>
<text text-anchor="middle" x="695" y="-937.3965" font-family="Times,serif" font-size="14.00" fill="#000000">&quot;Featured Yak&quot;</text>
<text text-anchor="middle" x="695" y="-922.3965" font-family="Times,serif" font-size="14.00" fill="#000000">RSS Feed</text>
</a>
</g>
</g>
<!-- netlify_cdn&#45;&gt;featured_yak -->
<g id="edge22" class="edge">
<title>netlify_cdn&#45;&gt;featured_yak</title>
<path fill="none" stroke="#000000" d="M497.6667,-1268.8564C525.4869,-1245.6579 568.1402,-1206.7822 596,-1165.7214 627.2325,-1119.6899 651.8369,-1062.2191 668.7051,-1015.9794"/>
<polygon fill="#000000" stroke="#000000" points="672.0986,-1016.8854 672.1868,-1006.2909 665.5111,-1014.518 672.0986,-1016.8854"/>
<text text-anchor="middle" x="682.5" y="-1119.5214" font-family="Times,serif" font-size="14.00" fill="#000000">Push to Amazon</text>
<text text-anchor="middle" x="682.5" y="-1104.5214" font-family="Times,serif" font-size="14.00" fill="#000000">Cloudfront</text>
</g>
<!-- netlify_cdn&#45;&gt;create_post -->
<g id="edge23" class="edge">
<title>netlify_cdn&#45;&gt;create_post</title>
<path fill="none" stroke="#000000" d="M449.4707,-1266.3161C430.7211,-1242.376 404.1332,-1204.0181 392,-1165.7214 369.5887,-1094.9833 372.6617,-1006.1338 376.1746,-961.6663"/>
<polygon fill="#000000" stroke="#000000" points="379.6699,-961.87 377.0385,-951.6071 372.6956,-961.271 379.6699,-961.87"/>
<text text-anchor="middle" x="439" y="-1119.5214" font-family="Times,serif" font-size="14.00" fill="#000000">Create Amazon</text>
<text text-anchor="middle" x="439" y="-1104.5214" font-family="Times,serif" font-size="14.00" fill="#000000">Lambda function</text>
</g>
<!-- website&#45;&gt;google_analytics -->
<g id="edge1" class="edge">
<title>website&#45;&gt;google_analytics</title>
<path fill="none" stroke="#000000" d="M530.519,-860.0385C532.2148,-810.5182 534.3795,-747.304 535.7279,-707.9283"/>
<polygon fill="#000000" stroke="#000000" points="539.2328,-707.8419 536.0772,-697.7279 532.2369,-707.6022 539.2328,-707.8419"/>
<text text-anchor="middle" x="577" y="-814.7716" font-family="Times,serif" font-size="14.00" fill="#000000">Visitor analytics</text>
</g>
<!-- website&#45;&gt;registration_form -->
<g id="edge5" class="edge">
<title>website&#45;&gt;registration_form</title>
<path fill="none" stroke="#ff0000" d="M476.8514,-880.889C464.9787,-866.4198 453.3799,-850.1077 445,-833.4716 430.8957,-805.4713 421.5772,-772.2072 415.5149,-743.0762"/>
<polygon fill="#ff0000" stroke="#ff0000" points="418.8866,-742.0856 413.5039,-732.96 412.0209,-743.4505 418.8866,-742.0856"/>
<text text-anchor="middle" x="486" y="-822.2716" font-family="Times,serif" font-size="14.00" fill="#000000">Sign up form</text>
<text text-anchor="middle" x="486" y="-807.2716" font-family="Times,serif" font-size="14.00" fill="#000000">(minimal data)</text>
</g>
<!-- website&#45;&gt;reboot_deck -->
<g id="edge2" class="edge">
<title>website&#45;&gt;reboot_deck</title>
<path fill="none" stroke="#ff0000" d="M573.0097,-875.0927C584.189,-862.9445 596.7848,-850.9674 610,-841.4716 620.5922,-833.8606 707.8534,-803.6673 718,-795.4716 733.5337,-782.9245 747.548,-766.9587 759.5912,-750.6744"/>
<polygon fill="#ff0000" stroke="#ff0000" points="762.7236,-752.3123 765.707,-742.1462 757.0351,-748.233 762.7236,-752.3123"/>
<text text-anchor="middle" x="757.5" y="-814.7716" font-family="Times,serif" font-size="14.00" fill="#000000">Google Slides / PDF</text>
</g>
<!-- website&#45;&gt;home_deck -->
<g id="edge3" class="edge">
<title>website&#45;&gt;home_deck</title>
<path fill="none" stroke="#ff0000" d="M569.4546,-872.7301C581.0378,-860.2281 594.7027,-848.6913 610,-841.4716 630.9158,-831.6003 795.5535,-839.0454 818,-833.4716 855.8135,-824.0819 867.7473,-821.2069 897,-795.4716 913.2395,-781.1848 927.5257,-762.8927 939.3977,-744.7476"/>
<polygon fill="#ff0000" stroke="#ff0000" points="942.6281,-746.189 945.0298,-735.87 936.7173,-742.4391 942.6281,-746.189"/>
<text text-anchor="middle" x="943.5" y="-814.7716" font-family="Times,serif" font-size="14.00" fill="#000000">Google Slides / PDF</text>
</g>
<!-- featured_yak&#45;&gt;twitter_applets -->
<g id="edge31" class="edge">
<title>featured_yak&#45;&gt;twitter_applets</title>
<path fill="none" stroke="#000000" d="M762.7622,-969.277C803.0248,-991.1049 854.708,-1020.2307 899,-1048.7214 919.1361,-1061.6739 940.8219,-1077.3755 958.079,-1090.3218"/>
<polygon fill="#000000" stroke="#000000" points="956.0796,-1093.1978 966.1687,-1096.4318 960.2984,-1087.6119 956.0796,-1093.1978"/>
<text text-anchor="middle" x="967.5" y="-1067.5214" font-family="Times,serif" font-size="14.00" fill="#000000">Pulled</text>
<text text-anchor="middle" x="967.5" y="-1052.5214" font-family="Times,serif" font-size="14.00" fill="#000000">by IFTTT</text>
</g>
<!-- create_post&#45;&gt;discord -->
<g id="edge28" class="edge">
<title>create_post&#45;&gt;discord</title>
<path fill="none" stroke="#000000" d="M359.1287,-915.3092C317.9272,-875.2889 227,-775.1457 227,-670.7817 227,-670.7817 227,-670.7817 227,-120 227,-45.5347 309.0752,-73.2849 381,-54 467.4969,-30.808 571.9883,-22.5417 632.3398,-19.6057"/>
<polygon fill="#000000" stroke="#000000" points="632.5291,-23.1008 642.3589,-19.1479 632.2095,-16.1081 632.5291,-23.1008"/>
<text text-anchor="middle" x="272.5" y="-355.8" font-family="Times,serif" font-size="14.00" fill="#000000">Post in</text>
<text text-anchor="middle" x="272.5" y="-340.8" font-family="Times,serif" font-size="14.00" fill="#000000">#yaktalk&#45;content</text>
</g>
<!-- create_post&#45;&gt;github -->
<g id="edge27" class="edge">
<title>create_post&#45;&gt;github</title>
<path fill="none" stroke="#000000" d="M340.6051,-928.651C287.1473,-919.647 191.1182,-895.4016 140,-833.4716 108.2888,-795.0532 103.8855,-734.4629 104.3803,-699.0773"/>
<polygon fill="#000000" stroke="#000000" points="107.8823,-699.0521 104.6663,-688.9572 100.8851,-698.8543 107.8823,-699.0521"/>
<text text-anchor="middle" x="176.5" y="-822.2716" font-family="Times,serif" font-size="14.00" fill="#000000">Commit new</text>
<text text-anchor="middle" x="176.5" y="-807.2716" font-family="Times,serif" font-size="14.00" fill="#000000">member post</text>
</g>
<!-- namecheap -->
<g id="node29" class="node">
<title>namecheap</title>
<g id="a_node29"><a xlink:href="https://roamresearch.com/#/app/ArtOfGig/page/SrB_NQUiU" xlink:title="Namecheap">
<polygon fill="none" stroke="#0000ff" points="260.1939,-1425.8784 263.6327,-1425.9769 267.0359,-1426.1244 270.3897,-1426.3204 273.6804,-1426.5644 276.8949,-1426.8557 280.0204,-1427.1935 283.0449,-1427.5769 285.9568,-1428.0049 288.7453,-1428.4763 291.4003,-1428.9897 293.9127,-1429.5438 296.2741,-1430.137 298.4769,-1430.7678 300.5146,-1431.4344 302.3817,-1432.135 304.0736,-1432.8676 305.5865,-1433.6302 306.9179,-1434.4208 308.0661,-1435.2372 309.0302,-1436.0772 309.8105,-1436.9384 310.4081,-1437.8185 310.825,-1438.715 311.0637,-1439.6256 311.128,-1440.5477 311.0219,-1441.4788 310.7504,-1442.4163 310.3189,-1443.3577 309.7333,-1444.3004 309.0002,-1445.2418 308.1262,-1446.1793 307.1185,-1447.1104 305.9844,-1448.0325 304.7314,-1448.9431 303.3672,-1449.8396 301.8993,-1450.7197 300.3354,-1451.5809 298.6829,-1452.4208 296.9492,-1453.2372 295.1415,-1454.0278 293.2666,-1454.7905 291.3313,-1455.5231 289.3418,-1456.2237 287.304,-1456.8903 285.2236,-1457.521 283.1058,-1458.1143 280.9553,-1458.6684 278.7765,-1459.1818 276.5736,-1459.6532 274.35,-1460.0811 272.1092,-1460.4646 269.8539,-1460.8024 267.5869,-1461.0937 265.3103,-1461.3377 263.0264,-1461.5337 260.737,-1461.6812 258.4437,-1461.7797 256.1481,-1461.829 253.8519,-1461.829 251.5563,-1461.7797 249.263,-1461.6812 246.9736,-1461.5337 244.6897,-1461.3377 242.4131,-1461.0937 240.1461,-1460.8024 237.8908,-1460.4646 235.65,-1460.0811 233.4264,-1459.6532 231.2235,-1459.1818 229.0447,-1458.6684 226.8942,-1458.1143 224.7764,-1457.521 222.696,-1456.8903 220.6582,-1456.2237 218.6687,-1455.5231 216.7334,-1454.7905 214.8585,-1454.0278 213.0508,-1453.2372 211.3171,-1452.4208 209.6646,-1451.5809 208.1007,-1450.7197 206.6328,-1449.8396 205.2686,-1448.9431 204.0156,-1448.0325 202.8815,-1447.1104 201.8738,-1446.1793 200.9998,-1445.2418 200.2667,-1444.3004 199.6811,-1443.3577 199.2496,-1442.4163 198.9781,-1441.4788 198.872,-1440.5477 198.9363,-1439.6256 199.175,-1438.715 199.5919,-1437.8185 200.1895,-1436.9384 200.9698,-1436.0772 201.9339,-1435.2372 203.0821,-1434.4208 204.4135,-1433.6302 205.9264,-1432.8676 207.6183,-1432.135 209.4854,-1431.4344 211.5231,-1430.7678 213.7259,-1430.137 216.0873,-1429.5438 218.5997,-1428.9897 221.2547,-1428.4763 224.0432,-1428.0049 226.9551,-1427.5769 229.9796,-1427.1935 233.1051,-1426.8557 236.3196,-1426.5644 239.6103,-1426.3204 242.9641,-1426.1244 246.3673,-1425.9769 249.8061,-1425.8784 253.2663,-1425.829 256.7337,-1425.829 260.1939,-1425.8784"/>
<text text-anchor="middle" x="255" y="-1440.129" font-family="Times,serif" font-size="14.00" fill="#000000">Namecheap</text>
</a>
</g>
</g>
<!-- namecheap&#45;&gt;netlify_cdn -->
<g id="edge20" class="edge">
<title>namecheap&#45;&gt;netlify_cdn</title>
<path fill="none" stroke="#000000" d="M278.8302,-1426.8648C317.0622,-1399.6483 392.2448,-1346.1274 436.0708,-1314.9287"/>
<polygon fill="#000000" stroke="#000000" points="438.2809,-1317.6517 444.3977,-1309.0009 434.2213,-1311.9491 438.2809,-1317.6517"/>
<text text-anchor="middle" x="391" y="-1389.129" font-family="Times,serif" font-size="14.00" fill="#000000">DNS information</text>
</g>
<!-- knack -->
<g id="node30" class="node">
<title>knack</title>
<g id="a_node30"><a xlink:href="https://roamresearch.com/#/app/ArtOfGig/page/FDjmLsCeR" xlink:title="Knack">
<polygon fill="none" stroke="#00ff00" points="1189.3298,-1661.7576 1191.5344,-1661.8562 1193.7161,-1662.0037 1195.8662,-1662.1997 1197.9759,-1662.4436 1200.0367,-1662.7349 1202.0405,-1663.0728 1203.9794,-1663.4562 1205.8462,-1663.8842 1207.6339,-1664.3555 1209.3361,-1664.869 1210.9467,-1665.4231 1212.4606,-1666.0163 1213.8728,-1666.6471 1215.1792,-1667.3137 1216.3762,-1668.0142 1217.4608,-1668.7468 1218.4308,-1669.5095 1219.2843,-1670.3001 1220.0204,-1671.1165 1220.6385,-1671.9565 1221.1387,-1672.8176 1221.5219,-1673.6977 1221.7891,-1674.5943 1221.9422,-1675.5049 1221.9833,-1676.4269 1221.9153,-1677.358 1221.7413,-1678.2956 1221.4646,-1679.237 1221.0892,-1680.1797 1220.6192,-1681.1211 1220.0589,-1682.0586 1219.4129,-1682.9897 1218.6858,-1683.9118 1217.8826,-1684.8223 1217.008,-1685.7189 1216.0669,-1686.599 1215.0643,-1687.4602 1214.0048,-1688.3001 1212.8934,-1689.1165 1211.7345,-1689.9071 1210.5325,-1690.6698 1209.2918,-1691.4024 1208.0163,-1692.1029 1206.7099,-1692.7695 1205.3762,-1693.4003 1204.0185,-1693.9936 1202.6398,-1694.5477 1201.243,-1695.0611 1199.8307,-1695.5324 1198.4052,-1695.9604 1196.9686,-1696.3438 1195.5228,-1696.6817 1194.0694,-1696.973 1192.6099,-1697.217 1191.1457,-1697.413 1189.6779,-1697.5604 1188.2077,-1697.659 1186.7361,-1697.7083 1185.2639,-1697.7083 1183.7923,-1697.659 1182.3221,-1697.5604 1180.8543,-1697.413 1179.3901,-1697.217 1177.9306,-1696.973 1176.4772,-1696.6817 1175.0314,-1696.3438 1173.5948,-1695.9604 1172.1693,-1695.5324 1170.757,-1695.0611 1169.3602,-1694.5477 1167.9815,-1693.9936 1166.6238,-1693.4003 1165.2901,-1692.7695 1163.9837,-1692.1029 1162.7082,-1691.4024 1161.4675,-1690.6698 1160.2655,-1689.9071 1159.1066,-1689.1165 1157.9952,-1688.3001 1156.9357,-1687.4602 1155.9331,-1686.599 1154.992,-1685.7189 1154.1174,-1684.8223 1153.3142,-1683.9118 1152.5871,-1682.9897 1151.9411,-1682.0586 1151.3808,-1681.1211 1150.9108,-1680.1797 1150.5354,-1679.237 1150.2587,-1678.2956 1150.0847,-1677.358 1150.0167,-1676.4269 1150.0578,-1675.5049 1150.2109,-1674.5943 1150.4781,-1673.6977 1150.8613,-1672.8176 1151.3615,-1671.9565 1151.9796,-1671.1165 1152.7157,-1670.3001 1153.5692,-1669.5095 1154.5392,-1668.7468 1155.6238,-1668.0142 1156.8208,-1667.3137 1158.1272,-1666.6471 1159.5394,-1666.0163 1161.0533,-1665.4231 1162.6639,-1664.869 1164.3661,-1664.3555 1166.1538,-1663.8842 1168.0206,-1663.4562 1169.9595,-1663.0728 1171.9633,-1662.7349 1174.0241,-1662.4436 1176.1338,-1662.1997 1178.2839,-1662.0037 1180.4656,-1661.8562 1182.6702,-1661.7576 1184.8885,-1661.7083 1187.1115,-1661.7083 1189.3298,-1661.7576"/>
<text text-anchor="middle" x="1186" y="-1676.0083" font-family="Times,serif" font-size="14.00" fill="#000000">Knack</text>
</a>
</g>
</g>
<!-- roam -->
<g id="node31" class="node">
<title>roam</title>
<g id="a_node31"><a xlink:href="https://roamresearch.com/#/app/ArtOfGig/page/FEPWC0DLJ" xlink:title="Roam">
<polygon fill="none" stroke="#00ff00" points="1278.2124,-1661.7576 1280.3393,-1661.8562 1282.4442,-1662.0037 1284.5185,-1662.1997 1286.5538,-1662.4436 1288.5419,-1662.7349 1290.4751,-1663.0728 1292.3457,-1663.4562 1294.1467,-1663.8842 1295.8714,-1664.3555 1297.5136,-1664.869 1299.0675,-1665.4231 1300.528,-1666.0163 1301.8904,-1666.6471 1303.1507,-1667.3137 1304.3056,-1668.0142 1305.352,-1668.7468 1306.2877,-1669.5095 1307.1112,-1670.3001 1307.8213,-1671.1165 1308.4176,-1671.9565 1308.9003,-1672.8176 1309.2699,-1673.6977 1309.5277,-1674.5943 1309.6754,-1675.5049 1309.7151,-1676.4269 1309.6495,-1677.358 1309.4816,-1678.2956 1309.2147,-1679.237 1308.8525,-1680.1797 1308.399,-1681.1211 1307.8585,-1682.0586 1307.2352,-1682.9897 1306.5338,-1683.9118 1305.7588,-1684.8223 1304.9151,-1685.7189 1304.0072,-1686.599 1303.0399,-1687.4602 1302.0178,-1688.3001 1300.9455,-1689.1165 1299.8275,-1689.9071 1298.6679,-1690.6698 1297.4709,-1691.4024 1296.2404,-1692.1029 1294.98,-1692.7695 1293.6933,-1693.4003 1292.3834,-1693.9936 1291.0533,-1694.5477 1289.7058,-1695.0611 1288.3432,-1695.5324 1286.968,-1695.9604 1285.582,-1696.3438 1284.1871,-1696.6817 1282.785,-1696.973 1281.3769,-1697.217 1279.9643,-1697.413 1278.5483,-1697.5604 1277.1299,-1697.659 1275.7101,-1697.7083 1274.2899,-1697.7083 1272.8701,-1697.659 1271.4517,-1697.5604 1270.0357,-1697.413 1268.6231,-1697.217 1267.215,-1696.973 1265.8129,-1696.6817 1264.418,-1696.3438 1263.032,-1695.9604 1261.6568,-1695.5324 1260.2942,-1695.0611 1258.9467,-1694.5477 1257.6166,-1693.9936 1256.3067,-1693.4003 1255.02,-1692.7695 1253.7596,-1692.1029 1252.5291,-1691.4024 1251.3321,-1690.6698 1250.1725,-1689.9071 1249.0545,-1689.1165 1247.9822,-1688.3001 1246.9601,-1687.4602 1245.9928,-1686.599 1245.0849,-1685.7189 1244.2412,-1684.8223 1243.4662,-1683.9118 1242.7648,-1682.9897 1242.1415,-1682.0586 1241.601,-1681.1211 1241.1475,-1680.1797 1240.7853,-1679.237 1240.5184,-1678.2956 1240.3505,-1677.358 1240.2849,-1676.4269 1240.3246,-1675.5049 1240.4723,-1674.5943 1240.7301,-1673.6977 1241.0997,-1672.8176 1241.5824,-1671.9565 1242.1787,-1671.1165 1242.8888,-1670.3001 1243.7123,-1669.5095 1244.648,-1668.7468 1245.6944,-1668.0142 1246.8493,-1667.3137 1248.1096,-1666.6471 1249.472,-1666.0163 1250.9325,-1665.4231 1252.4864,-1664.869 1254.1286,-1664.3555 1255.8533,-1663.8842 1257.6543,-1663.4562 1259.5249,-1663.0728 1261.4581,-1662.7349 1263.4462,-1662.4436 1265.4815,-1662.1997 1267.5558,-1662.0037 1269.6607,-1661.8562 1271.7876,-1661.7576 1273.9277,-1661.7083 1276.0723,-1661.7083 1278.2124,-1661.7576"/>
<text text-anchor="middle" x="1275" y="-1676.0083" font-family="Times,serif" font-size="14.00" fill="#000000">Roam</text>
</a>
</g>
</g>
<!-- visitor -->
<g id="node32" class="node">
<title>visitor</title>
</g>
<!-- visitor&#45;&gt;website -->
<g id="edge4" class="edge">
<title>visitor&#45;&gt;website</title>
<path fill="none" stroke="#ff0000" d="M818.4187,-1097.491C814.2614,-1081.6727 805.7146,-1059.646 789,-1048.7214 755.6702,-1026.9371 645.2982,-1059.146 610,-1040.7214 594.3791,-1032.5678 580.8575,-1019.9544 569.5505,-1006.2069"/>
<polygon fill="#ff0000" stroke="#ff0000" points="572.0619,-1003.736 563.1498,-998.0066 566.5438,-1008.0431 572.0619,-1003.736"/>
<text text-anchor="middle" x="853" y="-1060.0214" font-family="Times,serif" font-size="14.00" fill="#000000">Website visitor</text>
</g>
<!-- developer -->
<g id="node33" class="node">
<title>developer</title>
</g>
<!-- developer&#45;&gt;github -->
<g id="edge15" class="edge">
<title>developer&#45;&gt;github</title>
<path fill="none" stroke="#ff0000" d="M24.2394,-915.5127C20.9908,-890.0019 17.291,-842.2329 28,-803.4716 39.3802,-762.2808 66.9811,-720.772 86.0957,-695.4169"/>
<polygon fill="#ff0000" stroke="#ff0000" points="88.8927,-697.5212 92.217,-687.4613 83.3449,-693.2525 88.8927,-697.5212"/>
<text text-anchor="middle" x="60" y="-814.7716" font-family="Times,serif" font-size="14.00" fill="#000000">Git commit</text>
</g>
</g>
</svg>
