<?xml version="1.0" encoding="UTF-8" standalone="no"?>
<!DOCTYPE svg PUBLIC "-//W3C//DTD SVG 1.1//EN"
 "http://www.w3.org/Graphics/SVG/1.1/DTD/svg11.dtd">
<!-- Generated by graphviz version 2.40.1 (20161225.0304)
 -->
<!-- Title: yak_infrastructure Pages: 1 -->
<svg width="1398pt" height="1413pt"
 viewBox="0.00 0.00 1398.12 1412.59" xmlns="http://www.w3.org/2000/svg" xmlns:xlink="http://www.w3.org/1999/xlink">
<g id="graph0" class="graph" transform="scale(1 1) rotate(0) translate(4 1408.5876)">
<title>yak_infrastructure</title>
<polygon fill="#ffffff" stroke="transparent" points="-4,4 -4,-1408.5876 1394.1211,-1408.5876 1394.1211,4 -4,4"/>
<text text-anchor="middle" x="695.0605" y="-1389.3876" font-family="Times,serif" font-size="14.00" fill="#000000">Yak Collective IT Infrastructure</text>
<g id="clust1" class="cluster">
<title>cluster_google</title>
<polygon fill="none" stroke="#c0c0c0" points="403.5137,-217 403.5137,-431.4716 1136.5137,-431.4716 1136.5137,-217 403.5137,-217"/>
<text text-anchor="middle" x="770.0137" y="-416.2716" font-family="Times,serif" font-size="14.00" fill="#000000">Google</text>
</g>
<g id="clust2" class="cluster">
<title>cluster_robot</title>
<polygon fill="none" stroke="#c0c0c0" points="411.5137,-236.0919 411.5137,-400.4716 791.5137,-400.4716 791.5137,-236.0919 411.5137,-236.0919"/>
<text text-anchor="middle" x="601.5137" y="-385.2716" font-family="Times,serif" font-size="14.00" fill="#000000">Yak Collective Robot</text>
</g>
<g id="clust3" class="cluster">
<title>cluster_vultr</title>
<polygon fill="none" stroke="#c0c0c0" points="575.5137,-94 575.5137,-169 861.5137,-169 861.5137,-94 575.5137,-94"/>
<text text-anchor="middle" x="718.5137" y="-153.8" font-family="Times,serif" font-size="14.00" fill="#000000">Vultr</text>
</g>
<g id="clust4" class="cluster">
<title>cluster_carl</title>
<polygon fill="none" stroke="#c0c0c0" points="90.5137,-94 90.5137,-169 270.5137,-169 270.5137,-94 90.5137,-94"/>
<text text-anchor="middle" x="180.5137" y="-153.8" font-family="Times,serif" font-size="14.00" fill="#000000">Carl</text>
</g>
<g id="clust5" class="cluster">
<title>cluster_unused</title>
<polygon fill="none" stroke="#c0c0c0" points="1134.5137,-1289.7083 1134.5137,-1364.7083 1220.5137,-1364.7083 1220.5137,-1289.7083 1134.5137,-1289.7083"/>
<text text-anchor="middle" x="1177.5137" y="-1349.5083" font-family="Times,serif" font-size="14.00" fill="#000000">Unused</text>
</g>
<g id="clust6" class="cluster">
<title>cluster_ifttt</title>
<polygon fill="none" stroke="#c0c0c0" points="949.5137,-724.7214 949.5137,-801.7214 1225.5137,-801.7214 1225.5137,-724.7214 949.5137,-724.7214"/>
<text text-anchor="middle" x="1087.5137" y="-786.5214" font-family="Times,serif" font-size="14.00" fill="#000000">IFTTT</text>
</g>
<g id="clust7" class="cluster">
<title>cluster_netlify</title>
<polygon fill="none" stroke="#c0c0c0" points="409.5137,-477.4716 409.5137,-1373.5876 877.5137,-1373.5876 877.5137,-477.4716 409.5137,-477.4716"/>
<text text-anchor="middle" x="643.5137" y="-1358.3876" font-family="Times,serif" font-size="14.00" fill="#000000">Netlify</text>
</g>
<g id="clust8" class="cluster">
<title>cluster_cloudfront</title>
<polygon fill="none" stroke="#c0c0c0" points="537.5137,-485.4716 537.5137,-676.7214 869.5137,-676.7214 869.5137,-485.4716 537.5137,-485.4716"/>
<text text-anchor="middle" x="703.5137" y="-661.5214" font-family="Times,serif" font-size="14.00" fill="#000000">Amazon Cloudfront</text>
</g>
<g id="clust9" class="cluster">
<title>cluster_lambda</title>
<polygon fill="none" stroke="#c0c0c0" points="417.5137,-543.5965 417.5137,-618.5965 529.5137,-618.5965 529.5137,-543.5965 417.5137,-543.5965"/>
<text text-anchor="middle" x="473.5137" y="-603.3965" font-family="Times,serif" font-size="14.00" fill="#000000">Amazon Lambda</text>
</g>
<!-- google_analytics -->
<g id="node1" class="node">
<title>google_analytics</title>
<g id="a_node1"><a xlink:href="https://roamresearch.com/#/app/ArtOfGig/page/gkim0kNQ8" xlink:title="Google\nAnalytics">
<polygon fill="none" stroke="#0000ff" points="619.2712,-280.096 622.421,-280.2425 625.5383,-280.4617 628.6103,-280.7531 631.6245,-281.1158 634.5689,-281.5489 637.4319,-282.0511 640.2022,-282.6211 642.8695,-283.2573 645.4237,-283.9581 647.8557,-284.7213 650.157,-285.5451 652.3199,-286.427 654.3376,-287.3647 656.2042,-288.3557 657.9144,-289.3972 659.4641,-290.4863 660.8499,-291.62 662.0695,-292.7954 663.1211,-294.009 664.0043,-295.2577 664.719,-296.538 665.2664,-297.8463 665.6482,-299.1792 665.8669,-300.5328 665.9258,-301.9036 665.8286,-303.2878 665.5799,-304.6815 665.1847,-306.081 664.6483,-307.4825 663.9768,-308.882 663.1762,-310.2757 662.2532,-311.6599 661.2144,-313.0307 660.0667,-314.3843 658.8171,-315.7172 657.4725,-317.0255 656.04,-318.3058 654.5263,-319.5545 652.9383,-320.7681 651.2825,-321.9434 649.5652,-323.0772 647.7924,-324.1663 645.9701,-325.2078 644.1035,-326.1987 642.1979,-327.1365 640.258,-328.0184 638.2882,-328.8422 636.2925,-329.6054 634.2747,-330.3061 632.2379,-330.9424 630.1853,-331.5124 628.1196,-332.0146 626.043,-332.4477 623.9577,-332.8104 621.8657,-333.1018 619.7686,-333.321 617.668,-333.4675 615.5654,-333.5408 613.462,-333.5408 611.3593,-333.4675 609.2587,-333.321 607.1617,-333.1018 605.0696,-332.8104 602.9844,-332.4477 600.9078,-332.0146 598.842,-331.5124 596.7894,-330.9424 594.7527,-330.3061 592.7348,-329.6054 590.7392,-328.8422 588.7693,-328.0184 586.8294,-327.1365 584.9238,-326.1987 583.0573,-325.2078 581.2349,-324.1663 579.4622,-323.0772 577.7449,-321.9434 576.0891,-320.7681 574.5011,-319.5545 572.9874,-318.3058 571.5549,-317.0255 570.2103,-315.7172 568.9607,-314.3843 567.813,-313.0307 566.7742,-311.6599 565.8511,-310.2757 565.0506,-308.882 564.379,-307.4825 563.8427,-306.081 563.4474,-304.6815 563.1987,-303.2878 563.1016,-301.9036 563.1604,-300.5328 563.3791,-299.1792 563.7609,-297.8463 564.3083,-296.538 565.0231,-295.2577 565.9062,-294.009 566.9579,-292.7954 568.1774,-291.62 569.5633,-290.4863 571.113,-289.3972 572.8232,-288.3557 574.6897,-287.3647 576.7075,-286.427 578.8704,-285.5451 581.1717,-284.7213 583.6037,-283.9581 586.1579,-283.2573 588.8251,-282.6211 591.5955,-282.0511 594.4584,-281.5489 597.4028,-281.1158 600.4171,-280.7531 603.489,-280.4617 606.6063,-280.2425 609.7562,-280.096 612.9257,-280.0227 616.1017,-280.0227 619.2712,-280.096"/>
<text text-anchor="middle" x="614.5137" y="-310.5817" font-family="Times,serif" font-size="14.00" fill="#000000">Google</text>
<text text-anchor="middle" x="614.5137" y="-295.5817" font-family="Times,serif" font-size="14.00" fill="#000000">Analytics</text>
</a>
</g>
</g>
<!-- google_calendar -->
<g id="node2" class="node">
<title>google_calendar</title>
<g id="a_node2"><a xlink:href="https://roamresearch.com/#/app/ArtOfGig/page/5JAKKBvdi" xlink:title="Google\nCalendar">
<ellipse fill="none" stroke="#00ff00" cx="733.5137" cy="-306.7817" rx="45.927" ry="45.927"/>
<ellipse fill="none" stroke="#00ff00" cx="733.5137" cy="-306.7817" rx="49.9239" ry="49.9239"/>
<text text-anchor="middle" x="733.5137" y="-310.5817" font-family="Times,serif" font-size="14.00" fill="#000000">Google</text>
<text text-anchor="middle" x="733.5137" y="-295.5817" font-family="Times,serif" font-size="14.00" fill="#000000">Calendar</text>
</a>
</g>
</g>
<!-- zapier -->
<g id="node6" class="node">
<title>zapier</title>
<g id="a_node6"><a xlink:href="https://roamresearch.com/#/app/ArtOfGig/page/WW4JidMuQ" xlink:title="Zapier">
<polygon fill="none" stroke="#0000ff" points="995.8435,-102.0493 998.048,-102.1479 1000.2298,-102.2953 1002.3799,-102.4913 1004.4896,-102.7353 1006.5504,-103.0266 1008.5541,-103.3645 1010.4931,-103.7479 1012.3599,-104.1759 1014.1476,-104.6472 1015.8497,-105.1606 1017.4604,-105.7147 1018.9743,-106.308 1020.3865,-106.9388 1021.6929,-107.6054 1022.8899,-108.3059 1023.9745,-109.0385 1024.9444,-109.8012 1025.798,-110.5918 1026.534,-111.4082 1027.1522,-112.2481 1027.6524,-113.1093 1028.0355,-113.9894 1028.3028,-114.886 1028.4558,-115.7965 1028.497,-116.7186 1028.429,-117.6497 1028.255,-118.5873 1027.9783,-119.5287 1027.6029,-120.4713 1027.1329,-121.4127 1026.5726,-122.3503 1025.9266,-123.2814 1025.1995,-124.2035 1024.3962,-125.114 1023.5216,-126.0106 1022.5806,-126.8907 1021.5779,-127.7519 1020.5185,-128.5918 1019.4071,-129.4082 1018.2482,-130.1988 1017.0462,-130.9615 1015.8055,-131.6941 1014.53,-132.3946 1013.2236,-133.0612 1011.8899,-133.692 1010.5321,-134.2853 1009.1535,-134.8394 1007.7567,-135.3528 1006.3444,-135.8241 1004.9189,-136.2521 1003.4823,-136.6355 1002.0364,-136.9734 1000.583,-137.2647 999.1236,-137.5087 997.6594,-137.7047 996.1916,-137.8521 994.7214,-137.9507 993.2497,-138 991.7776,-138 990.306,-137.9507 988.8357,-137.8521 987.368,-137.7047 985.9038,-137.5087 984.4443,-137.2647 982.9909,-136.9734 981.5451,-136.6355 980.1085,-136.2521 978.683,-135.8241 977.2707,-135.3528 975.8739,-134.8394 974.4952,-134.2853 973.1375,-133.692 971.8037,-133.0612 970.4973,-132.3946 969.2219,-131.6941 967.9811,-130.9615 966.7792,-130.1988 965.6203,-129.4082 964.5088,-128.5918 963.4494,-127.7519 962.4468,-126.8907 961.5057,-126.0106 960.6311,-125.114 959.8278,-124.2035 959.1008,-123.2814 958.4548,-122.3503 957.8945,-121.4127 957.4244,-120.4713 957.049,-119.5287 956.7724,-118.5873 956.5983,-117.6497 956.5303,-116.7186 956.5715,-115.7965 956.7246,-114.886 956.9918,-113.9894 957.3749,-113.1093 957.8752,-112.2481 958.4933,-111.4082 959.2294,-110.5918 960.0829,-109.8012 961.0529,-109.0385 962.1375,-108.3059 963.3345,-107.6054 964.6409,-106.9388 966.0531,-106.308 967.5669,-105.7147 969.1776,-105.1606 970.8798,-104.6472 972.6674,-104.1759 974.5342,-103.7479 976.4732,-103.3645 978.477,-103.0266 980.5378,-102.7353 982.6475,-102.4913 984.7975,-102.2953 986.9793,-102.1479 989.1839,-102.0493 991.4022,-102 993.6251,-102 995.8435,-102.0493"/>
<text text-anchor="middle" x="992.5137" y="-116.3" font-family="Times,serif" font-size="14.00" fill="#000000">Zapier</text>
</a>
</g>
</g>
<!-- google_calendar&#45;&gt;zapier -->
<g id="edge33" class="edge">
<title>google_calendar&#45;&gt;zapier</title>
<path fill="none" stroke="#000000" d="M752.4372,-260.3836C760.999,-244.5322 772.6008,-228.0372 787.5137,-217 802.2432,-206.0985 810.3966,-213.5428 827.5137,-207 876.9331,-188.1099 930.4752,-157.8979 962.7511,-138.508"/>
<polygon fill="#000000" stroke="#000000" points="964.9273,-141.2816 971.6631,-133.1036 961.2976,-135.2962 964.9273,-141.2816"/>
<text text-anchor="middle" x="918.5137" y="-195.8" font-family="Times,serif" font-size="14.00" fill="#000000">Pulled by</text>
<text text-anchor="middle" x="918.5137" y="-180.8" font-family="Times,serif" font-size="14.00" fill="#000000">Zapier</text>
</g>
<!-- calendar_yak -->
<g id="node7" class="node">
<title>calendar_yak</title>
<g id="a_node7"><a xlink:href="https://roamresearch.com/#/app/ArtOfGig/page/h8CetC_Re" xlink:title="Calendar Yak">
<polygon fill="none" stroke="#0000ff" points="775.5137,-138 683.5137,-138 683.5137,-102 775.5137,-102 775.5137,-138"/>
<text text-anchor="middle" x="729.5137" y="-116.3" font-family="Times,serif" font-size="14.00" fill="#000000">Calendar Yak</text>
</a>
</g>
</g>
<!-- google_calendar&#45;&gt;calendar_yak -->
<g id="edge35" class="edge">
<title>google_calendar&#45;&gt;calendar_yak</title>
<path fill="none" stroke="#000000" d="M732.4418,-256.7277C731.6989,-222.0411 730.7366,-177.1062 730.122,-148.4067"/>
<polygon fill="#000000" stroke="#000000" points="733.6181,-148.1802 729.9047,-138.2575 726.6197,-148.3302 733.6181,-148.1802"/>
<text text-anchor="middle" x="777.0137" y="-195.8" font-family="Times,serif" font-size="14.00" fill="#000000">Google Calendar</text>
<text text-anchor="middle" x="777.0137" y="-180.8" font-family="Times,serif" font-size="14.00" fill="#000000">API</text>
</g>
<!-- registration_form -->
<g id="node3" class="node">
<title>registration_form</title>
<g id="a_node3"><a xlink:href="https://roamresearch.com/#/app/ArtOfGig/page/oG9FwDcRH" xlink:title="Registration\nForm">
<ellipse fill="none" stroke="#00ff00" cx="482.5137" cy="-306.7817" rx="58.8682" ry="58.8682"/>
<ellipse fill="none" stroke="#00ff00" cx="482.5137" cy="-306.7817" rx="62.8803" ry="62.8803"/>
<text text-anchor="middle" x="482.5137" y="-310.5817" font-family="Times,serif" font-size="14.00" fill="#000000">Registration</text>
<text text-anchor="middle" x="482.5137" y="-295.5817" font-family="Times,serif" font-size="14.00" fill="#000000">Form</text>
</a>
</g>
</g>
<!-- discord -->
<g id="node12" class="node">
<title>discord</title>
<g id="a_node12"><a xlink:href="https://roamresearch.com/#/app/ArtOfGig/page/AsI1N4yGZ" xlink:title="Discord">
<polygon fill="none" stroke="#00ff00" points="495.2775,-.0493 497.7695,-.1479 500.2357,-.2953 502.666,-.4913 505.0507,-.7353 507.3802,-1.0266 509.6451,-1.3645 511.8369,-1.7479 513.947,-2.1759 515.9678,-2.6472 517.8918,-3.1606 519.7124,-3.7147 521.4236,-4.308 523.0199,-4.9388 524.4966,-5.6054 525.8496,-6.3059 527.0757,-7.0385 528.172,-7.8012 529.1369,-8.5918 529.9689,-9.4082 530.6676,-10.2481 531.233,-11.1093 531.6661,-11.9894 531.9682,-12.886 532.1412,-13.7965 532.1877,-14.7186 532.1109,-15.6497 531.9141,-16.5873 531.6014,-17.5287 531.1771,-18.4713 530.6458,-19.4127 530.0124,-20.3503 529.2822,-21.2814 528.4604,-22.2035 527.5524,-23.114 526.5638,-24.0106 525.5,-24.8907 524.3667,-25.7519 523.1692,-26.5918 521.9128,-27.4082 520.6029,-28.1988 519.2442,-28.9615 517.8418,-29.6941 516.4,-30.3946 514.9233,-31.0612 513.4157,-31.692 511.881,-32.2853 510.3226,-32.8394 508.7437,-33.3528 507.1473,-33.8241 505.536,-34.2521 503.9121,-34.6355 502.2778,-34.9734 500.635,-35.2647 498.9852,-35.5087 497.3301,-35.7047 495.6711,-35.8521 494.0092,-35.9507 492.3457,-36 490.6817,-36 489.0182,-35.9507 487.3563,-35.8521 485.6972,-35.7047 484.0421,-35.5087 482.3924,-35.2647 480.7495,-34.9734 479.1152,-34.6355 477.4914,-34.2521 475.88,-33.8241 474.2836,-33.3528 472.7048,-32.8394 471.1464,-32.2853 469.6116,-31.692 468.104,-31.0612 466.6273,-30.3946 465.1856,-29.6941 463.7831,-28.9615 462.4245,-28.1988 461.1145,-27.4082 459.8582,-26.5918 458.6607,-25.7519 457.5273,-24.8907 456.4636,-24.0106 455.475,-23.114 454.567,-22.2035 453.7452,-21.2814 453.0149,-20.3503 452.3816,-19.4127 451.8503,-18.4713 451.4259,-17.5287 451.1132,-16.5873 450.9165,-15.6497 450.8396,-14.7186 450.8862,-13.7965 451.0592,-12.886 451.3613,-11.9894 451.7943,-11.1093 452.3598,-10.2481 453.0585,-9.4082 453.8905,-8.5918 454.8553,-7.8012 455.9517,-7.0385 457.1777,-6.3059 458.5308,-5.6054 460.0074,-4.9388 461.6037,-4.308 463.3149,-3.7147 465.1356,-3.1606 467.0596,-2.6472 469.0803,-2.1759 471.1905,-1.7479 473.3822,-1.3645 475.6472,-1.0266 477.9766,-.7353 480.3613,-.4913 482.7917,-.2953 485.2579,-.1479 487.7498,-.0493 490.2573,0 492.77,0 495.2775,-.0493"/>
<text text-anchor="middle" x="491.5137" y="-14.3" font-family="Times,serif" font-size="14.00" fill="#000000">Discord</text>
</a>
</g>
</g>
<!-- registration_form&#45;&gt;discord -->
<g id="edge6" class="edge">
<title>registration_form&#45;&gt;discord</title>
<path fill="none" stroke="#ff0000" d="M484.4665,-244.1204C486.381,-182.6912 489.2126,-91.8345 490.6332,-46.2527"/>
<polygon fill="#ff0000" stroke="#ff0000" points="494.1331,-46.3056 490.9464,-36.2014 487.1365,-46.0875 494.1331,-46.3056"/>
<text text-anchor="middle" x="517.0137" y="-116.3" font-family="Times,serif" font-size="14.00" fill="#000000">Invite link</text>
</g>
<!-- reboot_deck -->
<g id="node4" class="node">
<title>reboot_deck</title>
<g id="a_node4"><a xlink:href="https://roamresearch.com/#/app/ArtOfGig/page/s7km8fEQp" xlink:title="&quot;Don&#39;t Waste the\nReboot&quot; deck">
<ellipse fill="none" stroke="#00ff00" cx="883.5137" cy="-306.7817" rx="77.5747" ry="77.5747"/>
<ellipse fill="none" stroke="#00ff00" cx="883.5137" cy="-306.7817" rx="81.5641" ry="81.5641"/>
<text text-anchor="middle" x="883.5137" y="-310.5817" font-family="Times,serif" font-size="14.00" fill="#000000">&quot;Don&#39;t Waste the</text>
<text text-anchor="middle" x="883.5137" y="-295.5817" font-family="Times,serif" font-size="14.00" fill="#000000">Reboot&quot; deck</text>
</a>
</g>
</g>
<!-- home_deck -->
<g id="node5" class="node">
<title>home_deck</title>
<g id="a_node5"><a xlink:href="https://roamresearch.com/#/app/ArtOfGig/page/sGxc8YzrD" xlink:title="&quot;The New Old\nHome&quot; deck">
<ellipse fill="none" stroke="#00ff00" cx="1055.5137" cy="-306.7817" rx="68.6739" ry="68.6739"/>
<ellipse fill="none" stroke="#00ff00" cx="1055.5137" cy="-306.7817" rx="72.6788" ry="72.6788"/>
<text text-anchor="middle" x="1055.5137" y="-310.5817" font-family="Times,serif" font-size="14.00" fill="#000000">&quot;The New Old</text>
<text text-anchor="middle" x="1055.5137" y="-295.5817" font-family="Times,serif" font-size="14.00" fill="#000000">Home&quot; deck</text>
</a>
</g>
</g>
<!-- twitter -->
<g id="node15" class="node">
<title>twitter</title>
<g id="a_node15"><a xlink:href="https://roamresearch.com/#/app/ArtOfGig/page/ssp9sORuP" xlink:title="Twitter">
<polygon fill="none" stroke="#00ff00" points="1104.0784,-.0493 1106.4385,-.1479 1108.7742,-.2953 1111.076,-.4913 1113.3345,-.7353 1115.5407,-1.0266 1117.6858,-1.3645 1119.7616,-1.7479 1121.7601,-2.1759 1123.6739,-2.6472 1125.4961,-3.1606 1127.2204,-3.7147 1128.8411,-4.308 1130.3529,-4.9388 1131.7515,-5.6054 1133.0329,-6.3059 1134.1941,-7.0385 1135.2325,-7.8012 1136.1462,-8.5918 1136.9342,-9.4082 1137.5959,-10.2481 1138.1315,-11.1093 1138.5416,-11.9894 1138.8277,-12.886 1138.9916,-13.7965 1139.0357,-14.7186 1138.9629,-15.6497 1138.7765,-16.5873 1138.4804,-17.5287 1138.0785,-18.4713 1137.5753,-19.4127 1136.9755,-20.3503 1136.2839,-21.2814 1135.5055,-22.2035 1134.6456,-23.114 1133.7093,-24.0106 1132.7018,-24.8907 1131.6284,-25.7519 1130.4943,-26.5918 1129.3044,-27.4082 1128.0637,-28.1988 1126.777,-28.9615 1125.4487,-29.6941 1124.0833,-30.3946 1122.6847,-31.0612 1121.2569,-31.692 1119.8034,-32.2853 1118.3274,-32.8394 1116.8321,-33.3528 1115.3202,-33.8241 1113.7941,-34.2521 1112.2561,-34.6355 1110.7083,-34.9734 1109.1523,-35.2647 1107.5899,-35.5087 1106.0224,-35.7047 1104.4511,-35.8521 1102.8772,-35.9507 1101.3017,-36 1099.7257,-36 1098.1502,-35.9507 1096.5763,-35.8521 1095.005,-35.7047 1093.4374,-35.5087 1091.875,-35.2647 1090.3191,-34.9734 1088.7712,-34.6355 1087.2333,-34.2521 1085.7072,-33.8241 1084.1953,-33.3528 1082.6999,-32.8394 1081.224,-32.2853 1079.7705,-31.692 1078.3426,-31.0612 1076.9441,-30.3946 1075.5786,-29.6941 1074.2504,-28.9615 1072.9636,-28.1988 1071.7229,-27.4082 1070.5331,-26.5918 1069.3989,-25.7519 1068.3255,-24.8907 1067.3181,-24.0106 1066.3818,-23.114 1065.5218,-22.2035 1064.7435,-21.2814 1064.0519,-20.3503 1063.452,-19.4127 1062.9489,-18.4713 1062.547,-17.5287 1062.2508,-16.5873 1062.0645,-15.6497 1061.9917,-14.7186 1062.0358,-13.7965 1062.1996,-12.886 1062.4857,-11.9894 1062.8959,-11.1093 1063.4314,-10.2481 1064.0931,-9.4082 1064.8811,-8.5918 1065.7949,-7.8012 1066.8333,-7.0385 1067.9944,-6.3059 1069.2759,-5.6054 1070.6744,-4.9388 1072.1863,-4.308 1073.8069,-3.7147 1075.5312,-3.1606 1077.3535,-2.6472 1079.2673,-2.1759 1081.2658,-1.7479 1083.3416,-1.3645 1085.4867,-1.0266 1087.6929,-.7353 1089.9514,-.4913 1092.2532,-.2953 1094.5889,-.1479 1096.949,-.0493 1099.3238,0 1101.7035,0 1104.0784,-.0493"/>
<text text-anchor="middle" x="1100.5137" y="-14.3" font-family="Times,serif" font-size="14.00" fill="#000000">Twitter</text>
</a>
</g>
</g>
<!-- zapier&#45;&gt;twitter -->
<g id="edge34" class="edge">
<title>zapier&#45;&gt;twitter</title>
<path fill="none" stroke="#000000" d="M1009.8657,-103.6119C1027.9481,-86.5341 1056.4112,-59.6523 1076.6143,-40.5716"/>
<polygon fill="#000000" stroke="#000000" points="1079.0471,-43.0882 1083.9141,-33.6774 1074.2407,-37.9991 1079.0471,-43.0882"/>
<text text-anchor="middle" x="1092.5137" y="-72.8" font-family="Times,serif" font-size="14.00" fill="#000000">Tweet about</text>
<text text-anchor="middle" x="1092.5137" y="-57.8" font-family="Times,serif" font-size="14.00" fill="#000000">new content</text>
</g>
<!-- calendar_yak&#45;&gt;discord -->
<g id="edge36" class="edge">
<title>calendar_yak&#45;&gt;discord</title>
<path fill="none" stroke="#000000" d="M723.9322,-101.8992C718.2638,-86.6653 707.9489,-65.5664 691.5137,-54 667.6257,-37.1886 590.9601,-27.0633 539.7894,-22.0083"/>
<polygon fill="#000000" stroke="#000000" points="539.8896,-18.502 529.602,-21.0352 539.2239,-25.4703 539.8896,-18.502"/>
<text text-anchor="middle" x="736.5137" y="-72.8" font-family="Times,serif" font-size="14.00" fill="#000000">Post in</text>
<text text-anchor="middle" x="736.5137" y="-57.8" font-family="Times,serif" font-size="14.00" fill="#000000">#events</text>
</g>
<!-- yak_scraper -->
<g id="node8" class="node">
<title>yak_scraper</title>
<g id="a_node8"><a xlink:href="https://roamresearch.com/#/app/ArtOfGig/page/AaFxsbkdW" xlink:title="yak_scraper">
<polygon fill="none" stroke="#0000ff" points="665.5137,-138 583.5137,-138 583.5137,-102 665.5137,-102 665.5137,-138"/>
<text text-anchor="middle" x="624.5137" y="-116.3" font-family="Times,serif" font-size="14.00" fill="#000000">yak_scraper</text>
</a>
</g>
</g>
<!-- yak_scraper&#45;&gt;discord -->
<g id="edge13" class="edge">
<title>yak_scraper&#45;&gt;discord</title>
<path fill="none" stroke="#ff0000" d="M583.4788,-104.9054C573.3785,-101.2664 562.5745,-97.4381 552.5137,-94 538.8146,-89.3186 532.3198,-93.6337 521.5137,-84 515.2506,-78.4164 507.3739,-60.7465 501.2632,-45.0944"/>
<polygon fill="#ff0000" stroke="#ff0000" points="504.5333,-43.8464 497.7169,-35.7355 497.9875,-46.3269 504.5333,-43.8464"/>
<text text-anchor="middle" x="571.5137" y="-72.8" font-family="Times,serif" font-size="14.00" fill="#000000">Requested info or</text>
<text text-anchor="middle" x="571.5137" y="-57.8" font-family="Times,serif" font-size="14.00" fill="#000000">acknowledgement</text>
</g>
<!-- gigayak -->
<g id="node9" class="node">
<title>gigayak</title>
<g id="a_node9"><a xlink:href="https://roamresearch.com/#/app/ArtOfGig/page/_1voFfg7g" xlink:title="gigayak">
<polygon fill="none" stroke="#0000ff" points="853.0137,-138 794.0137,-138 794.0137,-102 853.0137,-102 853.0137,-138"/>
<text text-anchor="middle" x="823.5137" y="-116.3" font-family="Times,serif" font-size="14.00" fill="#000000">gigayak</text>
</a>
</g>
</g>
<!-- gigayak&#45;&gt;discord -->
<g id="edge14" class="edge">
<title>gigayak&#45;&gt;discord</title>
<path fill="none" stroke="#ff0000" d="M804.9427,-101.9337C799.263,-96.2745 793.0551,-89.9513 787.5137,-84 775.4902,-71.0871 777.0429,-62.3757 761.5137,-54 724.4253,-33.9964 608.1247,-24.3973 540.8742,-20.4107"/>
<polygon fill="#ff0000" stroke="#ff0000" points="540.7053,-16.8954 530.5216,-19.8184 540.3053,-23.884 540.7053,-16.8954"/>
<text text-anchor="middle" x="837.5137" y="-72.8" font-family="Times,serif" font-size="14.00" fill="#000000">Requested info or</text>
<text text-anchor="middle" x="837.5137" y="-57.8" font-family="Times,serif" font-size="14.00" fill="#000000">acknowledgement</text>
</g>
<!-- welcome_bot -->
<g id="node10" class="node">
<title>welcome_bot</title>
<g id="a_node10"><a xlink:href="https://roamresearch.com/#/app/ArtOfGig/page/S_Xkw1vVi" xlink:title="welcome_bot">
<polygon fill="none" stroke="#0000ff" points="188.5137,-138 98.5137,-138 98.5137,-102 188.5137,-102 188.5137,-138"/>
<text text-anchor="middle" x="143.5137" y="-116.3" font-family="Times,serif" font-size="14.00" fill="#000000">welcome_bot</text>
</a>
</g>
</g>
<!-- welcome_bot&#45;&gt;discord -->
<g id="edge9" class="edge">
<title>welcome_bot&#45;&gt;discord</title>
<path fill="none" stroke="#000000" d="M132.4786,-101.8092C125.1556,-87.1421 118.8358,-66.9004 130.5137,-54 151.012,-31.3558 347.7146,-22.3585 441.8226,-19.3279"/>
<polygon fill="#000000" stroke="#000000" points="442.073,-22.8219 451.959,-19.0119 441.8547,-15.8253 442.073,-22.8219"/>
<text text-anchor="middle" x="182.5137" y="-72.8" font-family="Times,serif" font-size="14.00" fill="#000000">Welcome message</text>
<text text-anchor="middle" x="182.5137" y="-57.8" font-family="Times,serif" font-size="14.00" fill="#000000">series</text>
</g>
<!-- yakyak -->
<g id="node11" class="node">
<title>yakyak</title>
<g id="a_node11"><a xlink:href="https://roamresearch.com/#/app/ArtOfGig/page/Q1LoZ_dE4" xlink:title="yakyak">
<polygon fill="none" stroke="#0000ff" points="262.5137,-138 206.5137,-138 206.5137,-102 262.5137,-102 262.5137,-138"/>
<text text-anchor="middle" x="234.5137" y="-116.3" font-family="Times,serif" font-size="14.00" fill="#000000">yakyak</text>
</a>
</g>
</g>
<!-- yakyak&#45;&gt;discord -->
<g id="edge10" class="edge">
<title>yakyak&#45;&gt;discord</title>
<path fill="none" stroke="#000000" d="M262.8848,-116.1668C287.7828,-111.706 324.0482,-102.4507 350.5137,-84 364.2959,-74.3916 359.7084,-63.5753 373.5137,-54 394.7467,-39.2729 422.1743,-30.4312 445.242,-25.1986"/>
<polygon fill="#000000" stroke="#000000" points="446.1003,-28.5946 455.1622,-23.1053 444.655,-21.7454 446.1003,-28.5946"/>
<text text-anchor="middle" x="413.0137" y="-72.8" font-family="Times,serif" font-size="14.00" fill="#000000">Prune inactive</text>
<text text-anchor="middle" x="413.0137" y="-57.8" font-family="Times,serif" font-size="14.00" fill="#000000">users</text>
</g>
<!-- discord&#45;&gt;yak_scraper -->
<g id="edge11" class="edge">
<title>discord&#45;&gt;yak_scraper</title>
<path fill="none" stroke="#ff0000" d="M527.9729,-22.7848C563.4453,-28.2765 613.6773,-38.564 625.5137,-54 633.5764,-64.5148 634.1519,-78.9951 632.3588,-91.7139"/>
<polygon fill="#ff0000" stroke="#ff0000" points="628.8596,-91.3765 630.4078,-101.8576 635.7336,-92.6987 628.8596,-91.3765"/>
<text text-anchor="middle" x="660.0137" y="-72.8" font-family="Times,serif" font-size="14.00" fill="#000000">User</text>
<text text-anchor="middle" x="660.0137" y="-57.8" font-family="Times,serif" font-size="14.00" fill="#000000">command</text>
</g>
<!-- discord&#45;&gt;gigayak -->
<g id="edge12" class="edge">
<title>discord&#45;&gt;gigayak</title>
<path fill="none" stroke="#ff0000" d="M531.3511,-18.6038C627.7634,-20.4767 867.5225,-27.7526 891.5137,-54 900.5093,-63.8416 898.3911,-72.5773 891.5137,-84 885.0004,-94.818 874.0252,-102.5554 862.7714,-108.0122"/>
<polygon fill="#ff0000" stroke="#ff0000" points="861.1414,-104.9035 853.3446,-112.0771 863.9132,-111.3313 861.1414,-104.9035"/>
<text text-anchor="middle" x="924.0137" y="-72.8" font-family="Times,serif" font-size="14.00" fill="#000000">User</text>
<text text-anchor="middle" x="924.0137" y="-57.8" font-family="Times,serif" font-size="14.00" fill="#000000">command</text>
</g>
<!-- discord&#45;&gt;welcome_bot -->
<g id="edge7" class="edge">
<title>discord&#45;&gt;welcome_bot</title>
<path fill="none" stroke="#000000" d="M452.0275,-19.4803C339.0505,-23.9054 21.6125,-37.7389 6.5137,-54 -2.5588,-63.7708 -1.6287,-73.4416 6.5137,-84 16.7212,-97.2363 54.7177,-106.5663 88.1128,-112.4063"/>
<polygon fill="#000000" stroke="#000000" points="87.8531,-115.9114 98.2932,-114.1072 89.0067,-109.0071 87.8531,-115.9114"/>
<text text-anchor="middle" x="55.0137" y="-72.8" font-family="Times,serif" font-size="14.00" fill="#000000">New user</text>
<text text-anchor="middle" x="55.0137" y="-57.8" font-family="Times,serif" font-size="14.00" fill="#000000">notification / data</text>
</g>
<!-- discord&#45;&gt;yakyak -->
<g id="edge8" class="edge">
<title>discord&#45;&gt;yakyak</title>
<path fill="none" stroke="#000000" d="M451.9938,-18.9413C392.1201,-21.1783 282.3315,-28.7091 253.5137,-54 242.8358,-63.3711 237.9816,-78.316 235.8432,-91.6164"/>
<polygon fill="#000000" stroke="#000000" points="232.3385,-91.4532 234.6511,-101.7926 239.2909,-92.2677 232.3385,-91.4532"/>
<text text-anchor="middle" x="302.0137" y="-72.8" font-family="Times,serif" font-size="14.00" fill="#000000">New user</text>
<text text-anchor="middle" x="302.0137" y="-57.8" font-family="Times,serif" font-size="14.00" fill="#000000">notification / data</text>
</g>
<!-- substack -->
<g id="node13" class="node">
<title>substack</title>
<g id="a_node13"><a xlink:href="https://roamresearch.com/#/app/ArtOfGig/page/kMaCo6Xc-" xlink:title="Substack">
<polygon fill="none" stroke="#00ff00" points="953.6759,-908.8246 956.4316,-908.9231 959.1589,-909.0706 961.8465,-909.2666 964.4835,-909.5105 967.0595,-909.8019 969.5642,-910.1397 971.988,-910.5231 974.3215,-910.9511 976.5561,-911.4224 978.6838,-911.9359 980.6971,-912.49 982.5894,-913.0832 984.3547,-913.714 985.9877,-914.3806 987.4839,-915.0811 988.8397,-915.8138 990.0521,-916.5764 991.1191,-917.367 992.0391,-918.1834 992.8118,-919.0234 993.4371,-919.8846 993.916,-920.7646 994.25,-921.6612 994.4414,-922.5718 994.4929,-923.4939 994.4079,-924.4249 994.1903,-925.3625 993.8445,-926.3039 993.3752,-927.2466 992.7877,-928.188 992.0873,-929.1255 991.2798,-930.0566 990.371,-930.9787 989.3669,-931.8892 988.2736,-932.7858 987.0973,-933.6659 985.844,-934.5271 984.5197,-935.367 983.1304,-936.1834 981.6818,-936.974 980.1793,-937.7367 978.6284,-938.4693 977.0341,-939.1698 975.4011,-939.8364 973.7339,-940.4672 972.0368,-941.0605 970.3134,-941.6146 968.5675,-942.128 966.8021,-942.5993 965.0202,-943.0273 963.2244,-943.4107 961.4171,-943.7486 959.6004,-944.0399 957.7761,-944.2839 955.9458,-944.4799 954.1111,-944.6273 952.2733,-944.7259 950.4338,-944.7752 948.5936,-944.7752 946.754,-944.7259 944.9163,-944.6273 943.0816,-944.4799 941.2513,-944.2839 939.427,-944.0399 937.6102,-943.7486 935.8029,-943.4107 934.0072,-943.0273 932.2253,-942.5993 930.4599,-942.128 928.7139,-941.6146 926.9906,-941.0605 925.2934,-940.4672 923.6263,-939.8364 921.9933,-939.1698 920.3989,-938.4693 918.848,-937.7367 917.3456,-936.974 915.8969,-936.1834 914.5076,-935.367 913.1834,-934.5271 911.9301,-933.6659 910.7537,-932.7858 909.6605,-931.8892 908.6564,-930.9787 907.7476,-930.0566 906.94,-929.1255 906.2396,-928.188 905.6521,-927.2466 905.1829,-926.3039 904.8371,-925.3625 904.6195,-924.4249 904.5345,-923.4939 904.586,-922.5718 904.7773,-921.6612 905.1113,-920.7646 905.5902,-919.8846 906.2156,-919.0234 906.9882,-918.1834 907.9083,-917.367 908.9752,-916.5764 910.1877,-915.8138 911.5435,-915.0811 913.0397,-914.3806 914.6727,-913.714 916.438,-913.0832 918.3302,-912.49 920.3436,-911.9359 922.4713,-911.4224 924.7059,-910.9511 927.0394,-910.5231 929.4631,-910.1397 931.9678,-909.8019 934.5438,-909.5105 937.1809,-909.2666 939.8685,-909.0706 942.5957,-908.9231 945.3515,-908.8246 948.1244,-908.7752 950.903,-908.7752 953.6759,-908.8246"/>
<text text-anchor="middle" x="949.5137" y="-923.0752" font-family="Times,serif" font-size="14.00" fill="#000000">Substack</text>
</a>
</g>
</g>
<!-- rss_applet -->
<g id="node19" class="node">
<title>rss_applet</title>
<g id="a_node19"><a xlink:href="https://roamresearch.com/#/app/ArtOfGig/page/ucCeiIsih" xlink:title="create&#45;post\nApplets">
<polygon fill="none" stroke="#0000ff" points="1033.5137,-770.7214 957.5137,-770.7214 957.5137,-732.7214 1033.5137,-732.7214 1033.5137,-770.7214"/>
<text text-anchor="middle" x="995.5137" y="-755.5214" font-family="Times,serif" font-size="14.00" fill="#000000">create&#45;post</text>
<text text-anchor="middle" x="995.5137" y="-740.5214" font-family="Times,serif" font-size="14.00" fill="#000000">Applets</text>
</a>
</g>
</g>
<!-- substack&#45;&gt;rss_applet -->
<g id="edge24" class="edge">
<title>substack&#45;&gt;rss_applet</title>
<path fill="none" stroke="#ff0000" d="M934.75,-909.4545C915.6448,-884.8547 887.4974,-839.4853 911.5137,-809.7214 922.0788,-796.6278 933.8684,-810.0026 948.5137,-801.7214 958.6767,-795.9747 967.9464,-787.3005 975.5172,-778.7824"/>
<polygon fill="#ff0000" stroke="#ff0000" points="978.2233,-781.0025 981.9693,-771.092 972.8606,-776.5033 978.2233,-781.0025"/>
<text text-anchor="middle" x="939.0137" y="-828.5214" font-family="Times,serif" font-size="14.00" fill="#000000">Pulled</text>
<text text-anchor="middle" x="939.0137" y="-813.5214" font-family="Times,serif" font-size="14.00" fill="#000000">by IFTTT</text>
</g>
<!-- twitter_applets -->
<g id="node20" class="node">
<title>twitter_applets</title>
<g id="a_node20"><a xlink:href="https://roamresearch.com/#/app/ArtOfGig/page/j7DInC9sg" xlink:title="Twitter\nApplets">
<polygon fill="none" stroke="#0000ff" points="1111.0137,-770.7214 1052.0137,-770.7214 1052.0137,-732.7214 1111.0137,-732.7214 1111.0137,-770.7214"/>
<text text-anchor="middle" x="1081.5137" y="-755.5214" font-family="Times,serif" font-size="14.00" fill="#000000">Twitter</text>
<text text-anchor="middle" x="1081.5137" y="-740.5214" font-family="Times,serif" font-size="14.00" fill="#000000">Applets</text>
</a>
</g>
</g>
<!-- substack&#45;&gt;twitter_applets -->
<g id="edge29" class="edge">
<title>substack&#45;&gt;twitter_applets</title>
<path fill="none" stroke="#ff0000" d="M969.001,-909.722C995.0924,-886.7683 1038.7822,-847.8608 1044.5137,-839.7214 1057.2556,-821.6263 1066.7719,-798.465 1072.9607,-780.4462"/>
<polygon fill="#ff0000" stroke="#ff0000" points="1076.3437,-781.3624 1076.1376,-770.7696 1069.6929,-779.1789 1076.3437,-781.3624"/>
<text text-anchor="middle" x="1088.0137" y="-828.5214" font-family="Times,serif" font-size="14.00" fill="#000000">Pulled</text>
<text text-anchor="middle" x="1088.0137" y="-813.5214" font-family="Times,serif" font-size="14.00" fill="#000000">by IFTTT</text>
</g>
<!-- member_feeds -->
<g id="node14" class="node">
<title>member_feeds</title>
<g id="a_node14"><a xlink:href="https://roamresearch.com/#/app/ArtOfGig/page/RLF445t5m" xlink:title="Member RSS\nFeeds">
<ellipse fill="none" stroke="#00ff00" cx="1105.5137" cy="-926.7752" rx="65.1046" ry="65.1046"/>
<ellipse fill="none" stroke="#00ff00" cx="1105.5137" cy="-926.7752" rx="69.1077" ry="69.1077"/>
<text text-anchor="middle" x="1105.5137" y="-930.5752" font-family="Times,serif" font-size="14.00" fill="#000000">Member RSS</text>
<text text-anchor="middle" x="1105.5137" y="-915.5752" font-family="Times,serif" font-size="14.00" fill="#000000">Feeds</text>
</a>
</g>
</g>
<!-- member_feeds&#45;&gt;rss_applet -->
<g id="edge25" class="edge">
<title>member_feeds&#45;&gt;rss_applet</title>
<path fill="none" stroke="#ff0000" d="M1046.841,-889.9607C1021.5336,-872.7093 996.1835,-853.0661 989.5137,-839.7214 980.4713,-821.6299 982.3565,-798.7821 986.3005,-780.9015"/>
<polygon fill="#ff0000" stroke="#ff0000" points="989.7405,-781.5736 988.7935,-771.0212 982.9532,-779.861 989.7405,-781.5736"/>
<text text-anchor="middle" x="1017.0137" y="-828.5214" font-family="Times,serif" font-size="14.00" fill="#000000">Pulled</text>
<text text-anchor="middle" x="1017.0137" y="-813.5214" font-family="Times,serif" font-size="14.00" fill="#000000">by IFTTT</text>
</g>
<!-- member_feeds&#45;&gt;twitter_applets -->
<g id="edge30" class="edge">
<title>member_feeds&#45;&gt;twitter_applets</title>
<path fill="none" stroke="#ff0000" d="M1125.4247,-860.6045C1127.7024,-843.7633 1127.6442,-825.8673 1122.5137,-809.7214 1119.0255,-798.7441 1112.6245,-788.0558 1105.9007,-778.9071"/>
<polygon fill="#ff0000" stroke="#ff0000" points="1108.6209,-776.7039 1099.7092,-770.9739 1103.1026,-781.0107 1108.6209,-776.7039"/>
<text text-anchor="middle" x="1154.0137" y="-828.5214" font-family="Times,serif" font-size="14.00" fill="#000000">Pulled</text>
<text text-anchor="middle" x="1154.0137" y="-813.5214" font-family="Times,serif" font-size="14.00" fill="#000000">by IFTTT</text>
</g>
<!-- facebook -->
<g id="node16" class="node">
<title>facebook</title>
<g id="a_node16"><a xlink:href="https://roamresearch.com/#/app/ArtOfGig/page/WZKSWTGz5" xlink:title="Facebook">
<polygon fill="none" stroke="#00ff00" points="957.9108,-1297.7576 960.822,-1297.8562 963.7032,-1298.0037 966.5425,-1298.1997 969.3284,-1298.4436 972.0497,-1298.7349 974.6958,-1299.0728 977.2563,-1299.4562 979.7215,-1299.8842 982.0822,-1300.3555 984.33,-1300.869 986.4569,-1301.4231 988.456,-1302.0163 990.3209,-1302.6471 992.0461,-1303.3137 993.6268,-1304.0142 995.0591,-1304.7468 996.3399,-1305.5095 997.4671,-1306.3001 998.4391,-1307.1165 999.2553,-1307.9565 999.9159,-1308.8176 1000.4219,-1309.6977 1000.7747,-1310.5943 1000.9769,-1311.5049 1001.0313,-1312.4269 1000.9415,-1313.358 1000.7116,-1314.2956 1000.3463,-1315.237 999.8506,-1316.1797 999.2299,-1317.1211 998.49,-1318.0586 997.6369,-1318.9897 996.6767,-1319.9118 995.616,-1320.8223 994.461,-1321.7189 993.2183,-1322.599 991.8943,-1323.4602 990.4953,-1324.3001 989.0276,-1325.1165 987.4972,-1325.9071 985.91,-1326.6698 984.2715,-1327.4024 982.5872,-1328.1029 980.8621,-1328.7695 979.1008,-1329.4003 977.3078,-1329.9936 975.4873,-1330.5477 973.6427,-1331.0611 971.7777,-1331.5324 969.8953,-1331.9604 967.9982,-1332.3438 966.0889,-1332.6817 964.1696,-1332.973 962.2423,-1333.217 960.3088,-1333.413 958.3705,-1333.5604 956.4291,-1333.659 954.4857,-1333.7083 952.5417,-1333.7083 950.5983,-1333.659 948.6568,-1333.5604 946.7186,-1333.413 944.785,-1333.217 942.8577,-1332.973 940.9385,-1332.6817 939.0292,-1332.3438 937.1321,-1331.9604 935.2496,-1331.5324 933.3846,-1331.0611 931.5401,-1330.5477 929.7195,-1329.9936 927.9266,-1329.4003 926.1653,-1328.7695 924.4401,-1328.1029 922.7558,-1327.4024 921.1174,-1326.6698 919.5302,-1325.9071 917.9998,-1325.1165 916.5321,-1324.3001 915.1331,-1323.4602 913.809,-1322.599 912.5663,-1321.7189 911.4114,-1320.8223 910.3506,-1319.9118 909.3905,-1318.9897 908.5374,-1318.0586 907.7975,-1317.1211 907.1768,-1316.1797 906.6811,-1315.237 906.3158,-1314.2956 906.0859,-1313.358 905.9961,-1312.4269 906.0505,-1311.5049 906.2526,-1310.5943 906.6055,-1309.6977 907.1114,-1308.8176 907.7721,-1307.9565 908.5883,-1307.1165 909.5603,-1306.3001 910.6874,-1305.5095 911.9683,-1304.7468 913.4006,-1304.0142 914.9813,-1303.3137 916.7064,-1302.6471 918.5713,-1302.0163 920.5704,-1301.4231 922.6974,-1300.869 924.9451,-1300.3555 927.3059,-1299.8842 929.7711,-1299.4562 932.3316,-1299.0728 934.9776,-1298.7349 937.699,-1298.4436 940.4849,-1298.1997 943.3242,-1298.0037 946.2053,-1297.8562 949.1166,-1297.7576 952.046,-1297.7083 954.9814,-1297.7083 957.9108,-1297.7576"/>
<text text-anchor="middle" x="953.5137" y="-1312.0083" font-family="Times,serif" font-size="14.00" fill="#000000">Facebook</text>
</a>
</g>
</g>
<!-- linkedin -->
<g id="node17" class="node">
<title>linkedin</title>
<g id="a_node17"><a xlink:href="https://roamresearch.com/#/app/ArtOfGig/page/M17w4lZJB" xlink:title="LinkedIn">
<polygon fill="none" stroke="#00ff00" points="1078.7578,-1297.7576 1081.5677,-1297.8562 1084.3486,-1298.0037 1087.0891,-1298.1997 1089.7781,-1298.4436 1092.4048,-1298.7349 1094.9588,-1299.0728 1097.4302,-1299.4562 1099.8096,-1299.8842 1102.0882,-1300.3555 1104.2577,-1300.869 1106.3107,-1301.4231 1108.2402,-1302.0163 1110.0402,-1302.6471 1111.7053,-1303.3137 1113.231,-1304.0142 1114.6135,-1304.7468 1115.8498,-1305.5095 1116.9377,-1306.3001 1117.8759,-1307.1165 1118.6637,-1307.9565 1119.3014,-1308.8176 1119.7897,-1309.6977 1120.1303,-1310.5943 1120.3254,-1311.5049 1120.3779,-1312.4269 1120.2912,-1313.358 1120.0693,-1314.2956 1119.7167,-1315.237 1119.2383,-1316.1797 1118.6392,-1317.1211 1117.925,-1318.0586 1117.1016,-1318.9897 1116.1749,-1319.9118 1115.151,-1320.8223 1114.0363,-1321.7189 1112.8368,-1322.599 1111.5588,-1323.4602 1110.2085,-1324.3001 1108.7919,-1325.1165 1107.3147,-1325.9071 1105.7827,-1326.6698 1104.2013,-1327.4024 1102.5756,-1328.1029 1100.9105,-1328.7695 1099.2105,-1329.4003 1097.4799,-1329.9936 1095.7227,-1330.5477 1093.9424,-1331.0611 1092.1422,-1331.5324 1090.3253,-1331.9604 1088.4942,-1332.3438 1086.6513,-1332.6817 1084.7989,-1332.973 1082.9386,-1333.217 1081.0723,-1333.413 1079.2016,-1333.5604 1077.3276,-1333.659 1075.4519,-1333.7083 1073.5755,-1333.7083 1071.6997,-1333.659 1069.8258,-1333.5604 1067.955,-1333.413 1066.0887,-1333.217 1064.2285,-1332.973 1062.376,-1332.6817 1060.5332,-1332.3438 1058.7021,-1331.9604 1056.8851,-1331.5324 1055.085,-1331.0611 1053.3047,-1330.5477 1051.5474,-1329.9936 1049.8169,-1329.4003 1048.1169,-1328.7695 1046.4518,-1328.1029 1044.8261,-1327.4024 1043.2446,-1326.6698 1041.7126,-1325.9071 1040.2355,-1325.1165 1038.8188,-1324.3001 1037.4685,-1323.4602 1036.1906,-1322.599 1034.9911,-1321.7189 1033.8763,-1320.8223 1032.8525,-1319.9118 1031.9258,-1318.9897 1031.1023,-1318.0586 1030.3882,-1317.1211 1029.7891,-1316.1797 1029.3106,-1315.237 1028.958,-1314.2956 1028.7361,-1313.358 1028.6495,-1312.4269 1028.702,-1311.5049 1028.8971,-1310.5943 1029.2377,-1309.6977 1029.726,-1308.8176 1030.3636,-1307.9565 1031.1515,-1307.1165 1032.0897,-1306.3001 1033.1776,-1305.5095 1034.4139,-1304.7468 1035.7963,-1304.0142 1037.322,-1303.3137 1038.9871,-1302.6471 1040.7871,-1302.0163 1042.7167,-1301.4231 1044.7696,-1300.869 1046.9392,-1300.3555 1049.2178,-1299.8842 1051.5972,-1299.4562 1054.0686,-1299.0728 1056.6226,-1298.7349 1059.2493,-1298.4436 1061.9382,-1298.1997 1064.6787,-1298.0037 1067.4596,-1297.8562 1070.2696,-1297.7576 1073.097,-1297.7083 1075.9303,-1297.7083 1078.7578,-1297.7576"/>
<text text-anchor="middle" x="1074.5137" y="-1312.0083" font-family="Times,serif" font-size="14.00" fill="#000000">LinkedIn</text>
</a>
</g>
</g>
<!-- glitch -->
<g id="node18" class="node">
<title>glitch</title>
<g id="a_node18"><a xlink:href="https://roamresearch.com/#/app/ArtOfGig/page/bTxU0ABQS" xlink:title="Glitch">
<polygon fill="none" stroke="#0000ff" points="1180.7261,-1297.7576 1182.853,-1297.8562 1184.9579,-1298.0037 1187.0322,-1298.1997 1189.0675,-1298.4436 1191.0556,-1298.7349 1192.9888,-1299.0728 1194.8594,-1299.4562 1196.6604,-1299.8842 1198.3851,-1300.3555 1200.0273,-1300.869 1201.5812,-1301.4231 1203.0416,-1302.0163 1204.4041,-1302.6471 1205.6644,-1303.3137 1206.8192,-1304.0142 1207.8656,-1304.7468 1208.8014,-1305.5095 1209.6249,-1306.3001 1210.335,-1307.1165 1210.9313,-1307.9565 1211.4139,-1308.8176 1211.7836,-1309.6977 1212.0414,-1310.5943 1212.189,-1311.5049 1212.2288,-1312.4269 1212.1632,-1313.358 1211.9952,-1314.2956 1211.7283,-1315.237 1211.3662,-1316.1797 1210.9127,-1317.1211 1210.3722,-1318.0586 1209.7489,-1318.9897 1209.0475,-1319.9118 1208.2725,-1320.8223 1207.4287,-1321.7189 1206.5208,-1322.599 1205.5535,-1323.4602 1204.5315,-1324.3001 1203.4592,-1325.1165 1202.3411,-1325.9071 1201.1815,-1326.6698 1199.9845,-1327.4024 1198.754,-1328.1029 1197.4937,-1328.7695 1196.207,-1329.4003 1194.8971,-1329.9936 1193.567,-1330.5477 1192.2194,-1331.0611 1190.8569,-1331.5324 1189.4817,-1331.9604 1188.0957,-1332.3438 1186.7008,-1332.6817 1185.2986,-1332.973 1183.8906,-1333.217 1182.478,-1333.413 1181.062,-1333.5604 1179.6436,-1333.659 1178.2238,-1333.7083 1176.8036,-1333.7083 1175.3838,-1333.659 1173.9654,-1333.5604 1172.5494,-1333.413 1171.1368,-1333.217 1169.7287,-1332.973 1168.3266,-1332.6817 1166.9317,-1332.3438 1165.5457,-1331.9604 1164.1704,-1331.5324 1162.8079,-1331.0611 1161.4604,-1330.5477 1160.1303,-1329.9936 1158.8204,-1329.4003 1157.5337,-1328.7695 1156.2733,-1328.1029 1155.0428,-1327.4024 1153.8458,-1326.6698 1152.6862,-1325.9071 1151.5682,-1325.1165 1150.4959,-1324.3001 1149.4738,-1323.4602 1148.5065,-1322.599 1147.5986,-1321.7189 1146.7548,-1320.8223 1145.9799,-1319.9118 1145.2785,-1318.9897 1144.6552,-1318.0586 1144.1146,-1317.1211 1143.6612,-1316.1797 1143.299,-1315.237 1143.0321,-1314.2956 1142.8642,-1313.358 1142.7986,-1312.4269 1142.8383,-1311.5049 1142.986,-1310.5943 1143.2438,-1309.6977 1143.6134,-1308.8176 1144.0961,-1307.9565 1144.6924,-1307.1165 1145.4025,-1306.3001 1146.226,-1305.5095 1147.1617,-1304.7468 1148.2081,-1304.0142 1149.3629,-1303.3137 1150.6233,-1302.6471 1151.9857,-1302.0163 1153.4462,-1301.4231 1155.0001,-1300.869 1156.6423,-1300.3555 1158.3669,-1299.8842 1160.1679,-1299.4562 1162.0386,-1299.0728 1163.9717,-1298.7349 1165.9599,-1298.4436 1167.9952,-1298.1997 1170.0695,-1298.0037 1172.1744,-1297.8562 1174.3013,-1297.7576 1176.4414,-1297.7083 1178.586,-1297.7083 1180.7261,-1297.7576"/>
<text text-anchor="middle" x="1177.5137" y="-1312.0083" font-family="Times,serif" font-size="14.00" fill="#000000">Glitch</text>
</a>
</g>
</g>
<!-- create_post -->
<g id="node28" class="node">
<title>create_post</title>
<g id="a_node28"><a xlink:href="https://roamresearch.com/#/app/ArtOfGig/page/wDK81GyfO" xlink:title="create&#45;post">
<polygon fill="none" stroke="#0000ff" points="507.5137,-587.5965 431.5137,-587.5965 431.5137,-551.5965 507.5137,-551.5965 507.5137,-587.5965"/>
<text text-anchor="middle" x="469.5137" y="-565.8965" font-family="Times,serif" font-size="14.00" fill="#000000">create&#45;post</text>
</a>
</g>
</g>
<!-- rss_applet&#45;&gt;create_post -->
<g id="edge26" class="edge">
<title>rss_applet&#45;&gt;create_post</title>
<path fill="none" stroke="#000000" d="M967.1206,-732.6901C961.1909,-729.508 954.8195,-726.6262 948.5137,-724.7214 915.8967,-714.8689 825.388,-731.1062 795.5137,-714.7214 781.0166,-706.7704 788.1359,-692.4398 773.5137,-684.7214 749.9178,-672.2661 556.4969,-690.274 533.5137,-676.7214 504.1889,-659.4293 486.7506,-623.0026 477.6554,-597.4477"/>
<polygon fill="#000000" stroke="#000000" points="480.9583,-596.2885 474.4662,-587.9158 474.3201,-598.5096 480.9583,-596.2885"/>
<text text-anchor="middle" x="834.0137" y="-703.5214" font-family="Times,serif" font-size="14.00" fill="#000000">RSS post data</text>
<text text-anchor="middle" x="834.0137" y="-688.5214" font-family="Times,serif" font-size="14.00" fill="#000000">to webhook</text>
</g>
<!-- twitter_applets&#45;&gt;twitter -->
<g id="edge32" class="edge">
<title>twitter_applets&#45;&gt;twitter</title>
<path fill="none" stroke="#000000" d="M1096.9308,-732.5571C1120.9338,-700.7244 1164.5137,-634.0533 1164.5137,-569.5965 1164.5137,-569.5965 1164.5137,-569.5965 1164.5137,-120 1164.5137,-88.9479 1142.9681,-59.5913 1124.8791,-40.4164"/>
<polygon fill="#000000" stroke="#000000" points="1127.1757,-37.7605 1117.6645,-33.0928 1122.189,-42.673 1127.1757,-37.7605"/>
<text text-anchor="middle" x="1198.5137" y="-310.5817" font-family="Times,serif" font-size="14.00" fill="#000000">Tweet about</text>
<text text-anchor="middle" x="1198.5137" y="-295.5817" font-family="Times,serif" font-size="14.00" fill="#000000">new content</text>
</g>
<!-- netlify_applet -->
<g id="node21" class="node">
<title>netlify_applet</title>
<g id="a_node21"><a xlink:href="https://roamresearch.com/#/app/ArtOfGig/page/EWP06EjZH" xlink:title="Netlify Build\nHook Applet">
<polygon fill="none" stroke="#0000ff" points="1218.0137,-770.7214 1129.0137,-770.7214 1129.0137,-732.7214 1218.0137,-732.7214 1218.0137,-770.7214"/>
<text text-anchor="middle" x="1173.5137" y="-755.5214" font-family="Times,serif" font-size="14.00" fill="#000000">Netlify Build</text>
<text text-anchor="middle" x="1173.5137" y="-740.5214" font-family="Times,serif" font-size="14.00" fill="#000000">Hook Applet</text>
</a>
</g>
</g>
<!-- netlify_ci -->
<g id="node23" class="node">
<title>netlify_ci</title>
<g id="a_node23"><a xlink:href="https://roamresearch.com/#/app/ArtOfGig/page/lfZqzDmtI" xlink:title="Netlify Continuous\nIntegration">
<polygon fill="none" stroke="#0000ff" points="558.956,-1289.0226 564.5455,-1289.1691 570.0772,-1289.3883 575.5285,-1289.6797 580.8773,-1290.0424 586.1022,-1290.4754 591.1826,-1290.9777 596.0986,-1291.5477 600.8317,-1292.1839 605.3642,-1292.8846 609.6798,-1293.6479 613.7635,-1294.4716 617.6017,-1295.3536 621.1822,-1296.2913 624.4944,-1297.2823 627.5293,-1298.3237 630.2793,-1299.4128 632.7384,-1300.5466 634.9025,-1301.7219 636.7687,-1302.9356 638.3359,-1304.1843 639.6043,-1305.4645 640.5756,-1306.7729 641.2531,-1308.1057 641.6412,-1309.4594 641.7457,-1310.8302 641.5732,-1312.2144 641.1319,-1313.6081 640.4305,-1315.0076 639.4788,-1316.409 638.2871,-1317.8085 636.8665,-1319.2023 635.2285,-1320.5864 633.3852,-1321.9572 631.3485,-1323.3109 629.1311,-1324.6437 626.7451,-1325.9521 624.203,-1327.2323 621.517,-1328.481 618.699,-1329.6947 615.7607,-1330.87 612.7133,-1332.0038 609.5676,-1333.0929 606.3338,-1334.1344 603.0216,-1335.1253 599.64,-1336.063 596.1976,-1336.945 592.7021,-1337.7687 589.1607,-1338.532 585.58,-1339.2327 581.9658,-1339.8689 578.3234,-1340.4389 574.6576,-1340.9412 570.9727,-1341.3742 567.2724,-1341.7369 563.56,-1342.0283 559.8387,-1342.2476 556.1111,-1342.394 552.3799,-1342.4674 548.6475,-1342.4674 544.9162,-1342.394 541.1887,-1342.2476 537.4673,-1342.0283 533.755,-1341.7369 530.0547,-1341.3742 526.3697,-1340.9412 522.7039,-1340.4389 519.0616,-1339.8689 515.4474,-1339.2327 511.8666,-1338.532 508.3252,-1337.7687 504.8298,-1336.945 501.3874,-1336.063 498.0058,-1335.1253 494.6936,-1334.1344 491.4598,-1333.0929 488.314,-1332.0038 485.2666,-1330.87 482.3283,-1329.6947 479.5103,-1328.481 476.8243,-1327.2323 474.2823,-1325.9521 471.8963,-1324.6437 469.6788,-1323.3109 467.6422,-1321.9572 465.7988,-1320.5864 464.1609,-1319.2023 462.7403,-1317.8085 461.5486,-1316.409 460.5968,-1315.0076 459.8954,-1313.6081 459.4541,-1312.2144 459.2817,-1310.8302 459.3861,-1309.4594 459.7742,-1308.1057 460.4517,-1306.7729 461.4231,-1305.4645 462.6915,-1304.1843 464.2586,-1302.9356 466.1248,-1301.7219 468.2889,-1300.5466 470.7481,-1299.4128 473.4981,-1298.3237 476.5329,-1297.2823 479.8451,-1296.2913 483.4257,-1295.3536 487.2638,-1294.4716 491.3475,-1293.6479 495.6631,-1292.8846 500.1957,-1292.1839 504.9287,-1291.5477 509.8448,-1290.9777 514.9252,-1290.4754 520.1501,-1290.0424 525.4989,-1289.6797 530.9502,-1289.3883 536.4819,-1289.1691 542.0714,-1289.0226 547.6957,-1288.9492 553.3317,-1288.9492 558.956,-1289.0226"/>
<text text-anchor="middle" x="550.5137" y="-1319.5083" font-family="Times,serif" font-size="14.00" fill="#000000">Netlify Continuous</text>
<text text-anchor="middle" x="550.5137" y="-1304.5083" font-family="Times,serif" font-size="14.00" fill="#000000">Integration</text>
</a>
</g>
</g>
<!-- netlify_applet&#45;&gt;netlify_ci -->
<g id="edge17" class="edge">
<title>netlify_applet&#45;&gt;netlify_ci</title>
<path fill="none" stroke="#000000" d="M1181.0337,-770.8064C1192.8701,-802.6153 1214.5137,-868.7177 1214.5137,-926.7752 1214.5137,-1244.329 1214.5137,-1244.329 1214.5137,-1244.329 1214.5137,-1258.3109 837.3086,-1291.7653 651.5055,-1307.3961"/>
<polygon fill="#000000" stroke="#000000" points="651.1199,-1303.9161 641.4478,-1308.2406 651.7056,-1310.8916 651.1199,-1303.9161"/>
<text text-anchor="middle" x="1256.0137" y="-1134.629" font-family="Times,serif" font-size="14.00" fill="#000000">Trigger rebuild</text>
<text text-anchor="middle" x="1256.0137" y="-1119.629" font-family="Times,serif" font-size="14.00" fill="#000000">every 24 hours</text>
</g>
<!-- github -->
<g id="node22" class="node">
<title>github</title>
<g id="a_node22"><a xlink:href="https://roamresearch.com/#/app/ArtOfGig/page/1PVNV7Ell" xlink:title="GitHub">
<polygon fill="none" stroke="#0000ff" points="265.1601,-288.8311 267.5743,-288.9296 269.9635,-289.0771 272.3181,-289.2731 274.6283,-289.5171 276.8851,-289.8084 279.0794,-290.1462 281.2027,-290.5296 283.247,-290.9576 285.2047,-291.429 287.0687,-291.9424 288.8325,-292.4965 290.4903,-293.0897 292.0368,-293.7205 293.4674,-294.3871 294.7782,-295.0877 295.966,-295.8203 297.0282,-296.5829 297.9629,-297.3735 298.7689,-298.1899 299.4458,-299.0299 299.9936,-299.8911 300.4132,-300.7712 300.7058,-301.6677 300.8735,-302.5783 300.9186,-303.5004 300.8441,-304.4315 300.6535,-305.369 300.3505,-306.3104 299.9394,-307.2531 299.4247,-308.1945 298.8111,-309.132 298.1037,-310.0631 297.3075,-310.9852 296.4278,-311.8958 295.4701,-312.7923 294.4395,-313.6724 293.3416,-314.5336 292.1814,-315.3735 290.9643,-316.1899 289.6952,-316.9806 288.3789,-317.7432 287.0202,-318.4758 285.6235,-319.1764 284.1929,-319.843 282.7323,-320.4737 281.2455,-321.067 279.7357,-321.6211 278.2061,-322.1345 276.6595,-322.6059 275.0985,-323.0339 273.5252,-323.4173 271.9419,-323.7551 270.3503,-324.0464 268.7521,-324.2904 267.1487,-324.4864 265.5413,-324.6339 263.9313,-324.7324 262.3197,-324.7817 260.7076,-324.7817 259.096,-324.7324 257.486,-324.6339 255.8787,-324.4864 254.2753,-324.2904 252.677,-324.0464 251.0854,-323.7551 249.5021,-323.4173 247.9289,-323.0339 246.3679,-322.6059 244.8213,-322.1345 243.2917,-321.6211 241.7819,-321.067 240.2951,-320.4737 238.8345,-319.843 237.4039,-319.1764 236.0071,-318.4758 234.6484,-317.7432 233.3322,-316.9806 232.0631,-316.1899 230.8459,-315.3735 229.6858,-314.5336 228.5878,-313.6724 227.5573,-312.7923 226.5995,-311.8958 225.7199,-310.9852 224.9237,-310.0631 224.2162,-309.132 223.6026,-308.1945 223.0879,-307.2531 222.6768,-306.3104 222.3739,-305.369 222.1833,-304.4315 222.1088,-303.5004 222.1539,-302.5783 222.3215,-301.6677 222.6142,-300.7712 223.0337,-299.8911 223.5816,-299.0299 224.2584,-298.1899 225.0645,-297.3735 225.9992,-296.5829 227.0614,-295.8203 228.2491,-295.0877 229.5599,-294.3871 230.9906,-293.7205 232.5371,-293.0897 234.1948,-292.4965 235.9587,-291.9424 237.8227,-291.429 239.7803,-290.9576 241.8246,-290.5296 243.948,-290.1462 246.1423,-289.8084 248.399,-289.5171 250.7093,-289.2731 253.0638,-289.0771 255.4531,-288.9296 257.8673,-288.8311 260.2965,-288.7817 262.7308,-288.7817 265.1601,-288.8311"/>
<text text-anchor="middle" x="261.5137" y="-303.0817" font-family="Times,serif" font-size="14.00" fill="#000000">GitHub</text>
</a>
</g>
</g>
<!-- github&#45;&gt;netlify_ci -->
<g id="edge16" class="edge">
<title>github&#45;&gt;netlify_ci</title>
<path fill="none" stroke="#000000" d="M261.5137,-324.9435C261.5137,-367.6258 261.5137,-477.657 261.5137,-569.5965 261.5137,-1244.329 261.5137,-1244.329 261.5137,-1244.329 261.5137,-1284.0591 365.757,-1301.8132 449.0295,-1309.6576"/>
<polygon fill="#000000" stroke="#000000" points="448.7976,-1313.1508 459.0723,-1310.5659 449.4282,-1306.1793 448.7976,-1313.1508"/>
<text text-anchor="middle" x="321.5137" y="-1032.629" font-family="Times,serif" font-size="14.00" fill="#000000">Repo contents pushed</text>
<text text-anchor="middle" x="321.5137" y="-1017.629" font-family="Times,serif" font-size="14.00" fill="#000000">on commit</text>
</g>
<!-- jekyll -->
<g id="node24" class="node">
<title>jekyll</title>
<g id="a_node24"><a xlink:href="https://roamresearch.com/#/app/ArtOfGig/page/fF35dWNYl" xlink:title="Jekyll">
<polygon fill="none" stroke="#0000ff" points="577.5137,-1199.829 523.5137,-1199.829 523.5137,-1163.829 577.5137,-1163.829 577.5137,-1199.829"/>
<text text-anchor="middle" x="550.5137" y="-1178.129" font-family="Times,serif" font-size="14.00" fill="#000000">Jekyll</text>
</a>
</g>
</g>
<!-- netlify_ci&#45;&gt;jekyll -->
<g id="edge18" class="edge">
<title>netlify_ci&#45;&gt;jekyll</title>
<path fill="none" stroke="#000000" d="M550.5137,-1288.9376C550.5137,-1266.145 550.5137,-1233.4926 550.5137,-1210.242"/>
<polygon fill="#000000" stroke="#000000" points="554.0138,-1209.9792 550.5137,-1199.9793 547.0138,-1209.9793 554.0138,-1209.9792"/>
<text text-anchor="middle" x="588.5137" y="-1240.629" font-family="Times,serif" font-size="14.00" fill="#000000">Build website</text>
</g>
<!-- netlify_cdn -->
<g id="node25" class="node">
<title>netlify_cdn</title>
<g id="a_node25"><a xlink:href="https://roamresearch.com/#/app/ArtOfGig/page/R-E2CDAe2" xlink:title="Netlify\nCDN">
<polygon fill="none" stroke="#0000ff" points="554.3385,-900.0895 556.8708,-900.236 559.3769,-900.4552 561.8467,-900.7466 564.27,-901.1093 566.6371,-901.5424 568.9388,-902.0446 571.166,-902.6146 573.3104,-903.2508 575.3638,-903.9515 577.319,-904.7148 579.1691,-905.5385 580.908,-906.4205 582.5302,-907.3582 584.0308,-908.3492 585.4057,-909.3906 586.6516,-910.4797 587.7658,-911.6135 588.7462,-912.7888 589.5917,-914.0025 590.3017,-915.2512 590.8763,-916.5315 591.3164,-917.8398 591.6234,-919.1726 591.7992,-920.5263 591.8465,-921.8971 591.7684,-923.2813 591.5684,-924.675 591.2507,-926.0745 590.8195,-927.4759 590.2796,-928.8754 589.636,-930.2692 588.8939,-931.6533 588.0588,-933.0241 587.1361,-934.3778 586.1314,-935.7106 585.0505,-937.019 583.8988,-938.2992 582.6819,-939.5479 581.4052,-940.7616 580.074,-941.9369 578.6933,-943.0707 577.2682,-944.1598 575.8031,-945.2013 574.3025,-946.1922 572.7705,-947.13 571.2109,-948.0119 569.6272,-948.8356 568.0228,-949.5989 566.4005,-950.2996 564.7631,-950.9358 563.1129,-951.5059 561.4521,-952.0081 559.7827,-952.4411 558.1062,-952.8039 556.4244,-953.0952 554.7384,-953.3145 553.0496,-953.4609 551.3592,-953.5343 549.6682,-953.5343 547.9778,-953.4609 546.289,-953.3145 544.603,-953.0952 542.9211,-952.8039 541.2447,-952.4411 539.5752,-952.0081 537.9144,-951.5059 536.2642,-950.9358 534.6268,-950.2996 533.0046,-949.5989 531.4001,-948.8356 529.8165,-948.0119 528.2569,-947.13 526.7249,-946.1922 525.2243,-945.2013 523.7592,-944.1598 522.334,-943.0707 520.9534,-941.9369 519.6222,-940.7616 518.3455,-939.5479 517.1286,-938.2992 515.9769,-937.019 514.8959,-935.7106 513.8913,-934.3778 512.9686,-933.0241 512.1335,-931.6533 511.3914,-930.2692 510.7478,-928.8754 510.2079,-927.4759 509.7767,-926.0745 509.4589,-924.675 509.259,-923.2813 509.1809,-921.8971 509.2282,-920.5263 509.404,-919.1726 509.7109,-917.8398 510.151,-916.5315 510.7257,-915.2512 511.4357,-914.0025 512.2812,-912.7888 513.2616,-911.6135 514.3757,-910.4797 515.6216,-909.3906 516.9966,-908.3492 518.4972,-907.3582 520.1193,-906.4205 521.8582,-905.5385 523.7084,-904.7148 525.6635,-903.9515 527.717,-903.2508 529.8613,-902.6146 532.0886,-902.0446 534.3902,-901.5424 536.7574,-901.1093 539.1807,-900.7466 541.6504,-900.4552 544.1566,-900.236 546.6889,-900.0895 549.237,-900.0161 551.7904,-900.0161 554.3385,-900.0895"/>
<text text-anchor="middle" x="550.5137" y="-930.5752" font-family="Times,serif" font-size="14.00" fill="#000000">Netlify</text>
<text text-anchor="middle" x="550.5137" y="-915.5752" font-family="Times,serif" font-size="14.00" fill="#000000">CDN</text>
</a>
</g>
</g>
<!-- jekyll&#45;&gt;netlify_cdn -->
<g id="edge19" class="edge">
<title>jekyll&#45;&gt;netlify_cdn</title>
<path fill="none" stroke="#000000" d="M550.5137,-1163.4862C550.5137,-1121.8515 550.5137,-1019.5233 550.5137,-964.0229"/>
<polygon fill="#000000" stroke="#000000" points="554.0138,-963.9043 550.5137,-953.9043 547.0138,-963.9044 554.0138,-963.9043"/>
<text text-anchor="middle" x="604.0137" y="-1083.629" font-family="Times,serif" font-size="14.00" fill="#000000">Optimize &amp; deploy</text>
<text text-anchor="middle" x="604.0137" y="-1068.629" font-family="Times,serif" font-size="14.00" fill="#000000">website files</text>
</g>
<!-- website -->
<g id="node26" class="node">
<title>website</title>
<g id="a_node26"><a xlink:href="https://roamresearch.com/#/app/ArtOfGig/page/h0Wx539Oq" xlink:title="Yak Collective\nWebsite">
<ellipse fill="none" stroke="#00ff00" cx="618.5137" cy="-569.5965" rx="69.1046" ry="69.1046"/>
<ellipse fill="none" stroke="#00ff00" cx="618.5137" cy="-569.5965" rx="73.0935" ry="73.0935"/>
<text text-anchor="middle" x="618.5137" y="-573.3965" font-family="Times,serif" font-size="14.00" fill="#000000">Yak Collective</text>
<text text-anchor="middle" x="618.5137" y="-558.3965" font-family="Times,serif" font-size="14.00" fill="#000000">Website</text>
</a>
</g>
</g>
<!-- netlify_cdn&#45;&gt;website -->
<g id="edge21" class="edge">
<title>netlify_cdn&#45;&gt;website</title>
<path fill="none" stroke="#000000" d="M555.6247,-899.9288C565.5327,-847.8859 587.7114,-731.3892 602.8959,-651.6309"/>
<polygon fill="#000000" stroke="#000000" points="606.3723,-652.0848 604.8043,-641.6066 599.4958,-650.7756 606.3723,-652.0848"/>
<text text-anchor="middle" x="633.0137" y="-755.5214" font-family="Times,serif" font-size="14.00" fill="#000000">Push to Amazon</text>
<text text-anchor="middle" x="633.0137" y="-740.5214" font-family="Times,serif" font-size="14.00" fill="#000000">Cloudfront</text>
</g>
<!-- featured_yak -->
<g id="node27" class="node">
<title>featured_yak</title>
<g id="a_node27"><a xlink:href="https://roamresearch.com/#/app/ArtOfGig/page/ZzuH6YDFq" xlink:title="&quot;Featured Yak&quot;\nRSS Feed">
<ellipse fill="none" stroke="#00ff00" cx="785.5137" cy="-569.5965" rx="72.2434" ry="72.2434"/>
<ellipse fill="none" stroke="#00ff00" cx="785.5137" cy="-569.5965" rx="76.25" ry="76.25"/>
<text text-anchor="middle" x="785.5137" y="-573.3965" font-family="Times,serif" font-size="14.00" fill="#000000">&quot;Featured Yak&quot;</text>
<text text-anchor="middle" x="785.5137" y="-558.3965" font-family="Times,serif" font-size="14.00" fill="#000000">RSS Feed</text>
</a>
</g>
</g>
<!-- netlify_cdn&#45;&gt;featured_yak -->
<g id="edge22" class="edge">
<title>netlify_cdn&#45;&gt;featured_yak</title>
<path fill="none" stroke="#000000" d="M579.1703,-905.2568C608.263,-882.233 653.0983,-843.3616 682.5137,-801.7214 714.9986,-755.7359 740.7045,-697.8674 758.3111,-651.4142"/>
<polygon fill="#000000" stroke="#000000" points="761.6133,-652.576 761.8343,-641.9834 755.056,-650.1262 761.6133,-652.576"/>
<text text-anchor="middle" x="772.0137" y="-755.5214" font-family="Times,serif" font-size="14.00" fill="#000000">Push to Amazon</text>
<text text-anchor="middle" x="772.0137" y="-740.5214" font-family="Times,serif" font-size="14.00" fill="#000000">Cloudfront</text>
</g>
<!-- netlify_cdn&#45;&gt;create_post -->
<g id="edge23" class="edge">
<title>netlify_cdn&#45;&gt;create_post</title>
<path fill="none" stroke="#000000" d="M530.5198,-902.2568C512.3074,-878.2738 486.6136,-839.886 475.5137,-801.7214 454.8683,-730.737 460.7219,-642.3396 465.7042,-597.8999"/>
<polygon fill="#000000" stroke="#000000" points="469.1952,-598.1824 466.9035,-587.8384 462.2444,-597.3538 469.1952,-598.1824"/>
<text text-anchor="middle" x="522.5137" y="-755.5214" font-family="Times,serif" font-size="14.00" fill="#000000">Create Amazon</text>
<text text-anchor="middle" x="522.5137" y="-740.5214" font-family="Times,serif" font-size="14.00" fill="#000000">Lambda function</text>
</g>
<!-- website&#45;&gt;google_analytics -->
<g id="edge1" class="edge">
<title>website&#45;&gt;google_analytics</title>
<path fill="none" stroke="#000000" d="M617.3941,-496.0385C616.6404,-446.5182 615.6783,-383.304 615.079,-343.9283"/>
<polygon fill="#000000" stroke="#000000" points="618.5757,-343.6735 614.9238,-333.7279 611.5765,-343.7801 618.5757,-343.6735"/>
<text text-anchor="middle" x="661.5137" y="-450.7716" font-family="Times,serif" font-size="14.00" fill="#000000">Visitor analytics</text>
</g>
<!-- website&#45;&gt;registration_form -->
<g id="edge5" class="edge">
<title>website&#45;&gt;registration_form</title>
<path fill="none" stroke="#ff0000" d="M565.891,-518.3133C552.9056,-503.5219 540.0129,-486.697 530.5137,-469.4716 515.0541,-441.4381 504.0686,-407.8758 496.5452,-378.5356"/>
<polygon fill="#ff0000" stroke="#ff0000" points="499.926,-377.627 494.125,-368.7614 493.1312,-379.3095 499.926,-377.627"/>
<text text-anchor="middle" x="571.5137" y="-458.2716" font-family="Times,serif" font-size="14.00" fill="#000000">Sign up form</text>
<text text-anchor="middle" x="571.5137" y="-443.2716" font-family="Times,serif" font-size="14.00" fill="#000000">(minimal data)</text>
</g>
<!-- website&#45;&gt;reboot_deck -->
<g id="edge2" class="edge">
<title>website&#45;&gt;reboot_deck</title>
<path fill="none" stroke="#ff0000" d="M663.869,-511.5617C675.0304,-499.3892 687.5315,-487.2837 700.5137,-477.4716 737.9383,-449.1858 759.7421,-461.8211 795.5137,-431.4716 810.654,-418.6262 824.4709,-402.6168 836.4419,-386.3963"/>
<polygon fill="#ff0000" stroke="#ff0000" points="839.5446,-388.0758 842.5309,-377.9105 833.8573,-383.9948 839.5446,-388.0758"/>
<text text-anchor="middle" x="839.0137" y="-450.7716" font-family="Times,serif" font-size="14.00" fill="#000000">Google Slides / PDF</text>
</g>
<!-- website&#45;&gt;home_deck -->
<g id="edge3" class="edge">
<title>website&#45;&gt;home_deck</title>
<path fill="none" stroke="#ff0000" d="M659.9773,-508.7491C671.5601,-496.2465 685.2226,-484.7046 700.5137,-477.4716 720.5176,-468.0094 878.0979,-475.0444 899.5137,-469.4716 935.6771,-460.0612 946.7139,-456.4419 974.5137,-431.4716 990.6049,-417.0181 1004.84,-398.6684 1016.7102,-380.5213"/>
<polygon fill="#ff0000" stroke="#ff0000" points="1019.9394,-381.965 1022.3452,-371.6469 1014.0301,-378.2127 1019.9394,-381.965"/>
<text text-anchor="middle" x="1021.0137" y="-450.7716" font-family="Times,serif" font-size="14.00" fill="#000000">Google Slides / PDF</text>
</g>
<!-- featured_yak&#45;&gt;twitter_applets -->
<g id="edge31" class="edge">
<title>featured_yak&#45;&gt;twitter_applets</title>
<path fill="none" stroke="#000000" d="M852.8737,-605.4036C892.9145,-627.2756 944.3433,-656.4035 988.5137,-684.7214 1008.8128,-697.7353 1030.7313,-713.4402 1048.1884,-726.3729"/>
<polygon fill="#000000" stroke="#000000" points="1046.264,-729.3039 1056.3732,-732.4751 1050.4481,-723.6919 1046.264,-729.3039"/>
<text text-anchor="middle" x="1057.0137" y="-703.5214" font-family="Times,serif" font-size="14.00" fill="#000000">Pulled</text>
<text text-anchor="middle" x="1057.0137" y="-688.5214" font-family="Times,serif" font-size="14.00" fill="#000000">by IFTTT</text>
</g>
<!-- create_post&#45;&gt;discord -->
<g id="edge28" class="edge">
<title>create_post&#45;&gt;discord</title>
<path fill="none" stroke="#000000" d="M458.9619,-551.5715C444.5074,-525.8829 419.0324,-476.8189 407.5137,-431.4716 379.6075,-321.6099 357.6665,-285.4869 390.5137,-177 404.9091,-129.455 426.0902,-126.0661 452.5137,-84 460.6937,-70.9775 469.4346,-56.2649 476.5637,-44.0409"/>
<polygon fill="#000000" stroke="#000000" points="479.6745,-45.6535 481.6652,-35.2474 473.6196,-42.1408 479.6745,-45.6535"/>
<text text-anchor="middle" x="436.0137" y="-195.8" font-family="Times,serif" font-size="14.00" fill="#000000">Post in</text>
<text text-anchor="middle" x="436.0137" y="-180.8" font-family="Times,serif" font-size="14.00" fill="#000000">#yaktalk&#45;content</text>
</g>
<!-- create_post&#45;&gt;github -->
<g id="edge27" class="edge">
<title>create_post&#45;&gt;github</title>
<path fill="none" stroke="#000000" d="M431.3301,-557.4642C391.9196,-542.9277 331.6569,-514.7042 298.5137,-469.4716 269.1618,-429.4133 262.5295,-370.0419 261.3503,-335.1921"/>
<polygon fill="#000000" stroke="#000000" points="264.8415,-334.7206 261.1372,-324.7945 257.843,-334.8641 264.8415,-334.7206"/>
<text text-anchor="middle" x="335.0137" y="-458.2716" font-family="Times,serif" font-size="14.00" fill="#000000">Commit new</text>
<text text-anchor="middle" x="335.0137" y="-443.2716" font-family="Times,serif" font-size="14.00" fill="#000000">member post</text>
</g>
<!-- namecheap -->
<g id="node29" class="node">
<title>namecheap</title>
<g id="a_node29"><a xlink:href="https://roamresearch.com/#/app/ArtOfGig/page/SrB_NQUiU" xlink:title="Namecheap">
<polygon fill="none" stroke="#0000ff" points="350.7076,-1061.8784 354.1463,-1061.9769 357.5496,-1062.1244 360.9033,-1062.3204 364.1941,-1062.5644 367.4085,-1062.8557 370.5341,-1063.1935 373.5586,-1063.5769 376.4705,-1064.0049 379.259,-1064.4763 381.914,-1064.9897 384.4264,-1065.5438 386.7877,-1066.137 388.9906,-1066.7678 391.0283,-1067.4344 392.8954,-1068.135 394.5873,-1068.8676 396.1002,-1069.6302 397.4316,-1070.4208 398.5797,-1071.2372 399.5439,-1072.0772 400.3242,-1072.9384 400.9218,-1073.8185 401.3386,-1074.715 401.5774,-1075.6256 401.6417,-1076.5477 401.5356,-1077.4788 401.2641,-1078.4163 400.8326,-1079.3577 400.247,-1080.3004 399.5139,-1081.2418 398.6399,-1082.1793 397.6322,-1083.1104 396.4981,-1084.0325 395.2451,-1084.9431 393.8809,-1085.8396 392.413,-1086.7197 390.849,-1087.5809 389.1965,-1088.4208 387.4629,-1089.2372 385.6551,-1090.0278 383.7803,-1090.7905 381.845,-1091.5231 379.8555,-1092.2237 377.8177,-1092.8903 375.7373,-1093.521 373.6195,-1094.1143 371.469,-1094.6684 369.2902,-1095.1818 367.0873,-1095.6532 364.8637,-1096.0811 362.6229,-1096.4646 360.3676,-1096.8024 358.1005,-1097.0937 355.824,-1097.3377 353.5401,-1097.5337 351.2506,-1097.6812 348.9573,-1097.7797 346.6618,-1097.829 344.3655,-1097.829 342.07,-1097.7797 339.7767,-1097.6812 337.4873,-1097.5337 335.2034,-1097.3377 332.9268,-1097.0937 330.6598,-1096.8024 328.4045,-1096.4646 326.1636,-1096.0811 323.9401,-1095.6532 321.7371,-1095.1818 319.5584,-1094.6684 317.4079,-1094.1143 315.2901,-1093.521 313.2096,-1092.8903 311.1719,-1092.2237 309.1824,-1091.5231 307.247,-1090.7905 305.3722,-1090.0278 303.5645,-1089.2372 301.8308,-1088.4208 300.1783,-1087.5809 298.6144,-1086.7197 297.1465,-1085.8396 295.7822,-1084.9431 294.5293,-1084.0325 293.3952,-1083.1104 292.3875,-1082.1793 291.5135,-1081.2418 290.7803,-1080.3004 290.1948,-1079.3577 289.7633,-1078.4163 289.4918,-1077.4788 289.3857,-1076.5477 289.4499,-1075.6256 289.6887,-1074.715 290.1055,-1073.8185 290.7031,-1072.9384 291.4835,-1072.0772 292.4476,-1071.2372 293.5958,-1070.4208 294.9271,-1069.6302 296.4401,-1068.8676 298.1319,-1068.135 299.999,-1067.4344 302.0368,-1066.7678 304.2396,-1066.137 306.601,-1065.5438 309.1133,-1064.9897 311.7684,-1064.4763 314.5569,-1064.0049 317.4688,-1063.5769 320.4933,-1063.1935 323.6188,-1062.8557 326.8333,-1062.5644 330.124,-1062.3204 333.4778,-1062.1244 336.881,-1061.9769 340.3198,-1061.8784 343.78,-1061.829 347.2474,-1061.829 350.7076,-1061.8784"/>
<text text-anchor="middle" x="345.5137" y="-1076.129" font-family="Times,serif" font-size="14.00" fill="#000000">Namecheap</text>
</a>
</g>
</g>
<!-- namecheap&#45;&gt;netlify_cdn -->
<g id="edge20" class="edge">
<title>namecheap&#45;&gt;netlify_cdn</title>
<path fill="none" stroke="#000000" d="M368.2355,-1062.8648C404.4183,-1035.8506 475.3111,-982.9217 517.2257,-951.6281"/>
<polygon fill="#000000" stroke="#000000" points="519.536,-954.2712 525.4552,-945.484 515.3482,-948.662 519.536,-954.2712"/>
<text text-anchor="middle" x="477.5137" y="-1025.129" font-family="Times,serif" font-size="14.00" fill="#000000">DNS information</text>
</g>
<!-- knack -->
<g id="node30" class="node">
<title>knack</title>
<g id="a_node30"><a xlink:href="https://roamresearch.com/#/app/ArtOfGig/page/FDjmLsCeR" xlink:title="Knack">
<polygon fill="none" stroke="#00ff00" points="1269.8435,-1297.7576 1272.048,-1297.8562 1274.2298,-1298.0037 1276.3799,-1298.1997 1278.4896,-1298.4436 1280.5504,-1298.7349 1282.5541,-1299.0728 1284.4931,-1299.4562 1286.3599,-1299.8842 1288.1476,-1300.3555 1289.8497,-1300.869 1291.4604,-1301.4231 1292.9743,-1302.0163 1294.3865,-1302.6471 1295.6929,-1303.3137 1296.8899,-1304.0142 1297.9745,-1304.7468 1298.9444,-1305.5095 1299.798,-1306.3001 1300.534,-1307.1165 1301.1522,-1307.9565 1301.6524,-1308.8176 1302.0355,-1309.6977 1302.3028,-1310.5943 1302.4558,-1311.5049 1302.497,-1312.4269 1302.429,-1313.358 1302.255,-1314.2956 1301.9783,-1315.237 1301.6029,-1316.1797 1301.1329,-1317.1211 1300.5726,-1318.0586 1299.9266,-1318.9897 1299.1995,-1319.9118 1298.3962,-1320.8223 1297.5216,-1321.7189 1296.5806,-1322.599 1295.5779,-1323.4602 1294.5185,-1324.3001 1293.4071,-1325.1165 1292.2482,-1325.9071 1291.0462,-1326.6698 1289.8055,-1327.4024 1288.53,-1328.1029 1287.2236,-1328.7695 1285.8899,-1329.4003 1284.5321,-1329.9936 1283.1535,-1330.5477 1281.7567,-1331.0611 1280.3444,-1331.5324 1278.9189,-1331.9604 1277.4823,-1332.3438 1276.0364,-1332.6817 1274.583,-1332.973 1273.1236,-1333.217 1271.6594,-1333.413 1270.1916,-1333.5604 1268.7214,-1333.659 1267.2497,-1333.7083 1265.7776,-1333.7083 1264.306,-1333.659 1262.8357,-1333.5604 1261.368,-1333.413 1259.9038,-1333.217 1258.4443,-1332.973 1256.9909,-1332.6817 1255.5451,-1332.3438 1254.1085,-1331.9604 1252.683,-1331.5324 1251.2707,-1331.0611 1249.8739,-1330.5477 1248.4952,-1329.9936 1247.1375,-1329.4003 1245.8037,-1328.7695 1244.4973,-1328.1029 1243.2219,-1327.4024 1241.9811,-1326.6698 1240.7792,-1325.9071 1239.6203,-1325.1165 1238.5088,-1324.3001 1237.4494,-1323.4602 1236.4468,-1322.599 1235.5057,-1321.7189 1234.6311,-1320.8223 1233.8278,-1319.9118 1233.1008,-1318.9897 1232.4548,-1318.0586 1231.8945,-1317.1211 1231.4244,-1316.1797 1231.049,-1315.237 1230.7724,-1314.2956 1230.5983,-1313.358 1230.5303,-1312.4269 1230.5715,-1311.5049 1230.7246,-1310.5943 1230.9918,-1309.6977 1231.3749,-1308.8176 1231.8752,-1307.9565 1232.4933,-1307.1165 1233.2294,-1306.3001 1234.0829,-1305.5095 1235.0529,-1304.7468 1236.1375,-1304.0142 1237.3345,-1303.3137 1238.6409,-1302.6471 1240.0531,-1302.0163 1241.5669,-1301.4231 1243.1776,-1300.869 1244.8798,-1300.3555 1246.6674,-1299.8842 1248.5342,-1299.4562 1250.4732,-1299.0728 1252.477,-1298.7349 1254.5378,-1298.4436 1256.6475,-1298.1997 1258.7975,-1298.0037 1260.9793,-1297.8562 1263.1839,-1297.7576 1265.4022,-1297.7083 1267.6251,-1297.7083 1269.8435,-1297.7576"/>
<text text-anchor="middle" x="1266.5137" y="-1312.0083" font-family="Times,serif" font-size="14.00" fill="#000000">Knack</text>
</a>
</g>
</g>
<!-- roam -->
<g id="node31" class="node">
<title>roam</title>
<g id="a_node31"><a xlink:href="https://roamresearch.com/#/app/ArtOfGig/page/FEPWC0DLJ" xlink:title="Roam">
<polygon fill="none" stroke="#00ff00" points="1358.7261,-1297.7576 1360.853,-1297.8562 1362.9579,-1298.0037 1365.0322,-1298.1997 1367.0675,-1298.4436 1369.0556,-1298.7349 1370.9888,-1299.0728 1372.8594,-1299.4562 1374.6604,-1299.8842 1376.3851,-1300.3555 1378.0273,-1300.869 1379.5812,-1301.4231 1381.0416,-1302.0163 1382.4041,-1302.6471 1383.6644,-1303.3137 1384.8192,-1304.0142 1385.8656,-1304.7468 1386.8014,-1305.5095 1387.6249,-1306.3001 1388.335,-1307.1165 1388.9313,-1307.9565 1389.4139,-1308.8176 1389.7836,-1309.6977 1390.0414,-1310.5943 1390.189,-1311.5049 1390.2288,-1312.4269 1390.1632,-1313.358 1389.9952,-1314.2956 1389.7283,-1315.237 1389.3662,-1316.1797 1388.9127,-1317.1211 1388.3722,-1318.0586 1387.7489,-1318.9897 1387.0475,-1319.9118 1386.2725,-1320.8223 1385.4287,-1321.7189 1384.5208,-1322.599 1383.5535,-1323.4602 1382.5315,-1324.3001 1381.4592,-1325.1165 1380.3411,-1325.9071 1379.1815,-1326.6698 1377.9845,-1327.4024 1376.754,-1328.1029 1375.4937,-1328.7695 1374.207,-1329.4003 1372.8971,-1329.9936 1371.567,-1330.5477 1370.2194,-1331.0611 1368.8569,-1331.5324 1367.4817,-1331.9604 1366.0957,-1332.3438 1364.7008,-1332.6817 1363.2986,-1332.973 1361.8906,-1333.217 1360.478,-1333.413 1359.062,-1333.5604 1357.6436,-1333.659 1356.2238,-1333.7083 1354.8036,-1333.7083 1353.3838,-1333.659 1351.9654,-1333.5604 1350.5494,-1333.413 1349.1368,-1333.217 1347.7287,-1332.973 1346.3266,-1332.6817 1344.9317,-1332.3438 1343.5457,-1331.9604 1342.1704,-1331.5324 1340.8079,-1331.0611 1339.4604,-1330.5477 1338.1303,-1329.9936 1336.8204,-1329.4003 1335.5337,-1328.7695 1334.2733,-1328.1029 1333.0428,-1327.4024 1331.8458,-1326.6698 1330.6862,-1325.9071 1329.5682,-1325.1165 1328.4959,-1324.3001 1327.4738,-1323.4602 1326.5065,-1322.599 1325.5986,-1321.7189 1324.7548,-1320.8223 1323.9799,-1319.9118 1323.2785,-1318.9897 1322.6552,-1318.0586 1322.1146,-1317.1211 1321.6612,-1316.1797 1321.299,-1315.237 1321.0321,-1314.2956 1320.8642,-1313.358 1320.7986,-1312.4269 1320.8383,-1311.5049 1320.986,-1310.5943 1321.2438,-1309.6977 1321.6134,-1308.8176 1322.0961,-1307.9565 1322.6924,-1307.1165 1323.4025,-1306.3001 1324.226,-1305.5095 1325.1617,-1304.7468 1326.2081,-1304.0142 1327.3629,-1303.3137 1328.6233,-1302.6471 1329.9857,-1302.0163 1331.4462,-1301.4231 1333.0001,-1300.869 1334.6423,-1300.3555 1336.3669,-1299.8842 1338.1679,-1299.4562 1340.0386,-1299.0728 1341.9717,-1298.7349 1343.9599,-1298.4436 1345.9952,-1298.1997 1348.0695,-1298.0037 1350.1744,-1297.8562 1352.3013,-1297.7576 1354.4414,-1297.7083 1356.586,-1297.7083 1358.7261,-1297.7576"/>
<text text-anchor="middle" x="1355.5137" y="-1312.0083" font-family="Times,serif" font-size="14.00" fill="#000000">Roam</text>
</a>
</g>
</g>
<!-- visitor -->
<g id="node32" class="node">
<title>visitor</title>
</g>
<!-- visitor&#45;&gt;website -->
<g id="edge4" class="edge">
<title>visitor&#45;&gt;website</title>
<path fill="none" stroke="#ff0000" d="M908.12,-733.4455C903.2571,-717.5966 893.7257,-695.5505 876.5137,-684.7214 843.3754,-663.8721 735.2146,-694.851 700.5137,-676.7214 684.8959,-668.5618 671.3756,-655.946 660.0688,-642.198"/>
<polygon fill="#ff0000" stroke="#ff0000" points="662.5802,-639.7271 653.6682,-633.9976 657.062,-644.0342 662.5802,-639.7271"/>
<text text-anchor="middle" x="942.5137" y="-696.0214" font-family="Times,serif" font-size="14.00" fill="#000000">Website visitor</text>
</g>
<!-- developer -->
<g id="node33" class="node">
<title>developer</title>
</g>
<!-- developer&#45;&gt;github -->
<g id="edge15" class="edge">
<title>developer&#45;&gt;github</title>
<path fill="none" stroke="#ff0000" d="M179.7531,-551.5127C176.5044,-526.0019 172.8047,-478.2329 183.5137,-439.4716 194.8939,-398.2808 222.4948,-356.772 241.6094,-331.4169"/>
<polygon fill="#ff0000" stroke="#ff0000" points="244.4064,-333.5212 247.7307,-323.4613 238.8586,-329.2525 244.4064,-333.5212"/>
<text text-anchor="middle" x="215.5137" y="-450.7716" font-family="Times,serif" font-size="14.00" fill="#000000">Git commit</text>
</g>
</g>
</svg>
