<?xml version="1.0" encoding="UTF-8" standalone="no"?>
<!DOCTYPE svg PUBLIC "-//W3C//DTD SVG 1.1//EN"
 "http://www.w3.org/Graphics/SVG/1.1/DTD/svg11.dtd">
<!-- Generated by graphviz version 2.40.1 (20161225.0304)
 -->
<!-- Title: yak_infrastructure Pages: 1 -->
<svg width="1306pt" height="1413pt"
 viewBox="0.00 0.00 1305.61 1412.59" xmlns="http://www.w3.org/2000/svg" xmlns:xlink="http://www.w3.org/1999/xlink">
<g id="graph0" class="graph" transform="scale(1 1) rotate(0) translate(4 1408.5876)">
<title>yak_infrastructure</title>
<polygon fill="#ffffff" stroke="transparent" points="-4,4 -4,-1408.5876 1301.6074,-1408.5876 1301.6074,4 -4,4"/>
<text text-anchor="middle" x="648.8037" y="-1389.3876" font-family="Times,serif" font-size="14.00" fill="#000000">Yak Collective IT Infrastructure</text>
<g id="clust1" class="cluster">
<title>cluster_google</title>
<polygon fill="none" stroke="#c0c0c0" points="245,-217 245,-431.4716 978,-431.4716 978,-217 245,-217"/>
<text text-anchor="middle" x="611.5" y="-416.2716" font-family="Times,serif" font-size="14.00" fill="#000000">Google</text>
</g>
<g id="clust2" class="cluster">
<title>cluster_robot</title>
<polygon fill="none" stroke="#c0c0c0" points="253,-236.0919 253,-400.4716 513,-400.4716 513,-236.0919 253,-236.0919"/>
<text text-anchor="middle" x="383" y="-385.2716" font-family="Times,serif" font-size="14.00" fill="#000000">Yak Collective Robot</text>
</g>
<g id="clust3" class="cluster">
<title>cluster_carl</title>
<polygon fill="none" stroke="#c0c0c0" points="348,-94 348,-169 635,-169 635,-94 348,-94"/>
<text text-anchor="middle" x="491.5" y="-153.8" font-family="Times,serif" font-size="14.00" fill="#000000">Carl</text>
</g>
<g id="clust4" class="cluster">
<title>cluster_unused</title>
<polygon fill="none" stroke="#c0c0c0" points="1042,-1289.7083 1042,-1364.7083 1128,-1364.7083 1128,-1289.7083 1042,-1289.7083"/>
<text text-anchor="middle" x="1085" y="-1349.5083" font-family="Times,serif" font-size="14.00" fill="#000000">Unused</text>
</g>
<g id="clust5" class="cluster">
<title>cluster_ifttt</title>
<polygon fill="none" stroke="#c0c0c0" points="857,-724.7214 857,-801.7214 1133,-801.7214 1133,-724.7214 857,-724.7214"/>
<text text-anchor="middle" x="995" y="-786.5214" font-family="Times,serif" font-size="14.00" fill="#000000">IFTTT</text>
</g>
<g id="clust6" class="cluster">
<title>cluster_netlify</title>
<polygon fill="none" stroke="#c0c0c0" points="317,-477.4716 317,-1373.5876 785,-1373.5876 785,-477.4716 317,-477.4716"/>
<text text-anchor="middle" x="551" y="-1358.3876" font-family="Times,serif" font-size="14.00" fill="#000000">Netlify</text>
</g>
<g id="clust7" class="cluster">
<title>cluster_cloudfront</title>
<polygon fill="none" stroke="#c0c0c0" points="445,-485.4716 445,-676.7214 777,-676.7214 777,-485.4716 445,-485.4716"/>
<text text-anchor="middle" x="611" y="-661.5214" font-family="Times,serif" font-size="14.00" fill="#000000">Amazon Cloudfront</text>
</g>
<g id="clust8" class="cluster">
<title>cluster_lambda</title>
<polygon fill="none" stroke="#c0c0c0" points="325,-543.5965 325,-618.5965 437,-618.5965 437,-543.5965 325,-543.5965"/>
<text text-anchor="middle" x="381" y="-603.3965" font-family="Times,serif" font-size="14.00" fill="#000000">Amazon Lambda</text>
</g>
<!-- google_calendar -->
<g id="node1" class="node">
<title>google_calendar</title>
<g id="a_node1"><a xlink:href="https://roamresearch.com/#/app/ArtOfGig/page/5JAKKBvdi" xlink:title="Google\nCalendar">
<ellipse fill="none" stroke="#00ff00" cx="455" cy="-306.7817" rx="45.927" ry="45.927"/>
<ellipse fill="none" stroke="#00ff00" cx="455" cy="-306.7817" rx="49.9239" ry="49.9239"/>
<text text-anchor="middle" x="455" y="-310.5817" font-family="Times,serif" font-size="14.00" fill="#000000">Google</text>
<text text-anchor="middle" x="455" y="-295.5817" font-family="Times,serif" font-size="14.00" fill="#000000">Calendar</text>
</a>
</g>
</g>
<!-- zapier -->
<g id="node6" class="node">
<title>zapier</title>
<g id="a_node6"><a xlink:href="https://roamresearch.com/#/app/ArtOfGig/page/WW4JidMuQ" xlink:title="Zapier">
<polygon fill="none" stroke="#0000ff" points="835.3298,-102.0493 837.5344,-102.1479 839.7161,-102.2953 841.8662,-102.4913 843.9759,-102.7353 846.0367,-103.0266 848.0405,-103.3645 849.9794,-103.7479 851.8462,-104.1759 853.6339,-104.6472 855.3361,-105.1606 856.9467,-105.7147 858.4606,-106.308 859.8728,-106.9388 861.1792,-107.6054 862.3762,-108.3059 863.4608,-109.0385 864.4308,-109.8012 865.2843,-110.5918 866.0204,-111.4082 866.6385,-112.2481 867.1387,-113.1093 867.5219,-113.9894 867.7891,-114.886 867.9422,-115.7965 867.9833,-116.7186 867.9153,-117.6497 867.7413,-118.5873 867.4646,-119.5287 867.0892,-120.4713 866.6192,-121.4127 866.0589,-122.3503 865.4129,-123.2814 864.6858,-124.2035 863.8826,-125.114 863.008,-126.0106 862.0669,-126.8907 861.0643,-127.7519 860.0048,-128.5918 858.8934,-129.4082 857.7345,-130.1988 856.5325,-130.9615 855.2918,-131.6941 854.0163,-132.3946 852.7099,-133.0612 851.3762,-133.692 850.0185,-134.2853 848.6398,-134.8394 847.243,-135.3528 845.8307,-135.8241 844.4052,-136.2521 842.9686,-136.6355 841.5228,-136.9734 840.0694,-137.2647 838.6099,-137.5087 837.1457,-137.7047 835.6779,-137.8521 834.2077,-137.9507 832.7361,-138 831.2639,-138 829.7923,-137.9507 828.3221,-137.8521 826.8543,-137.7047 825.3901,-137.5087 823.9306,-137.2647 822.4772,-136.9734 821.0314,-136.6355 819.5948,-136.2521 818.1693,-135.8241 816.757,-135.3528 815.3602,-134.8394 813.9815,-134.2853 812.6238,-133.692 811.2901,-133.0612 809.9837,-132.3946 808.7082,-131.6941 807.4675,-130.9615 806.2655,-130.1988 805.1066,-129.4082 803.9952,-128.5918 802.9357,-127.7519 801.9331,-126.8907 800.992,-126.0106 800.1174,-125.114 799.3142,-124.2035 798.5871,-123.2814 797.9411,-122.3503 797.3808,-121.4127 796.9108,-120.4713 796.5354,-119.5287 796.2587,-118.5873 796.0847,-117.6497 796.0167,-116.7186 796.0578,-115.7965 796.2109,-114.886 796.4781,-113.9894 796.8613,-113.1093 797.3615,-112.2481 797.9796,-111.4082 798.7157,-110.5918 799.5692,-109.8012 800.5392,-109.0385 801.6238,-108.3059 802.8208,-107.6054 804.1272,-106.9388 805.5394,-106.308 807.0533,-105.7147 808.6639,-105.1606 810.3661,-104.6472 812.1538,-104.1759 814.0206,-103.7479 815.9595,-103.3645 817.9633,-103.0266 820.0241,-102.7353 822.1338,-102.4913 824.2839,-102.2953 826.4656,-102.1479 828.6702,-102.0493 830.8885,-102 833.1115,-102 835.3298,-102.0493"/>
<text text-anchor="middle" x="832" y="-116.3" font-family="Times,serif" font-size="14.00" fill="#000000">Zapier</text>
</a>
</g>
</g>
<!-- google_calendar&#45;&gt;zapier -->
<g id="edge29" class="edge">
<title>google_calendar&#45;&gt;zapier</title>
<path fill="none" stroke="#000000" d="M472.3116,-259.6438C480.7833,-243.3045 492.7435,-226.6732 509,-217 530.6008,-204.1467 711.4939,-215.9032 735,-207 767.6826,-194.6211 796.2451,-165.4983 813.7576,-144.3492"/>
<polygon fill="#000000" stroke="#000000" points="816.6024,-146.3963 820.1312,-136.4064 811.1428,-142.0153 816.6024,-146.3963"/>
<text text-anchor="middle" x="805" y="-195.8" font-family="Times,serif" font-size="14.00" fill="#000000">Pulled by</text>
<text text-anchor="middle" x="805" y="-180.8" font-family="Times,serif" font-size="14.00" fill="#000000">Zapier</text>
</g>
<!-- registration_form -->
<g id="node2" class="node">
<title>registration_form</title>
<g id="a_node2"><a xlink:href="https://roamresearch.com/#/app/ArtOfGig/page/oG9FwDcRH" xlink:title="Registration\nForm">
<ellipse fill="none" stroke="#00ff00" cx="324" cy="-306.7817" rx="58.8682" ry="58.8682"/>
<ellipse fill="none" stroke="#00ff00" cx="324" cy="-306.7817" rx="62.8803" ry="62.8803"/>
<text text-anchor="middle" x="324" y="-310.5817" font-family="Times,serif" font-size="14.00" fill="#000000">Registration</text>
<text text-anchor="middle" x="324" y="-295.5817" font-family="Times,serif" font-size="14.00" fill="#000000">Form</text>
</a>
</g>
</g>
<!-- discord -->
<g id="node10" class="node">
<title>discord</title>
<g id="a_node10"><a xlink:href="https://roamresearch.com/#/app/ArtOfGig/page/AsI1N4yGZ" xlink:title="Discord">
<polygon fill="none" stroke="#00ff00" points="510.7638,-.0493 513.2558,-.1479 515.722,-.2953 518.1524,-.4913 520.537,-.7353 522.8665,-1.0266 525.1315,-1.3645 527.3232,-1.7479 529.4333,-2.1759 531.4541,-2.6472 533.3781,-3.1606 535.1987,-3.7147 536.9099,-4.308 538.5062,-4.9388 539.9829,-5.6054 541.336,-6.3059 542.562,-7.0385 543.6584,-7.8012 544.6232,-8.5918 545.4552,-9.4082 546.1539,-10.2481 546.7194,-11.1093 547.1524,-11.9894 547.4545,-12.886 547.6275,-13.7965 547.6741,-14.7186 547.5972,-15.6497 547.4004,-16.5873 547.0877,-17.5287 546.6634,-18.4713 546.1321,-19.4127 545.4988,-20.3503 544.7685,-21.2814 543.9467,-22.2035 543.0387,-23.114 542.0501,-24.0106 540.9863,-24.8907 539.853,-25.7519 538.6555,-26.5918 537.3992,-27.4082 536.0892,-28.1988 534.7305,-28.9615 533.3281,-29.6941 531.8863,-30.3946 530.4096,-31.0612 528.902,-31.692 527.3673,-32.2853 525.8089,-32.8394 524.2301,-33.3528 522.6337,-33.8241 521.0223,-34.2521 519.3984,-34.6355 517.7641,-34.9734 516.1213,-35.2647 514.4715,-35.5087 512.8165,-35.7047 511.1574,-35.8521 509.4955,-35.9507 507.832,-36 506.168,-36 504.5045,-35.9507 502.8426,-35.8521 501.1835,-35.7047 499.5285,-35.5087 497.8787,-35.2647 496.2359,-34.9734 494.6016,-34.6355 492.9777,-34.2521 491.3663,-33.8241 489.7699,-33.3528 488.1911,-32.8394 486.6327,-32.2853 485.098,-31.692 483.5904,-31.0612 482.1137,-30.3946 480.6719,-29.6941 479.2695,-28.9615 477.9108,-28.1988 476.6008,-27.4082 475.3445,-26.5918 474.147,-25.7519 473.0137,-24.8907 471.9499,-24.0106 470.9613,-23.114 470.0533,-22.2035 469.2315,-21.2814 468.5012,-20.3503 467.8679,-19.4127 467.3366,-18.4713 466.9123,-17.5287 466.5996,-16.5873 466.4028,-15.6497 466.3259,-14.7186 466.3725,-13.7965 466.5455,-12.886 466.8476,-11.9894 467.2806,-11.1093 467.8461,-10.2481 468.5448,-9.4082 469.3768,-8.5918 470.3416,-7.8012 471.438,-7.0385 472.664,-6.3059 474.0171,-5.6054 475.4938,-4.9388 477.0901,-4.308 478.8013,-3.7147 480.6219,-3.1606 482.5459,-2.6472 484.5667,-2.1759 486.6768,-1.7479 488.8685,-1.3645 491.1335,-1.0266 493.463,-.7353 495.8476,-.4913 498.278,-.2953 500.7442,-.1479 503.2362,-.0493 505.7437,0 508.2563,0 510.7638,-.0493"/>
<text text-anchor="middle" x="507" y="-14.3" font-family="Times,serif" font-size="14.00" fill="#000000">Discord</text>
</a>
</g>
</g>
<!-- registration_form&#45;&gt;discord -->
<g id="edge6" class="edge">
<title>registration_form&#45;&gt;discord</title>
<path fill="none" stroke="#ff0000" d="M356.8995,-253.3089C367.7577,-239.5715 380.9642,-226.1143 396,-217 490.1414,-159.9341 548.6665,-231.9203 639,-169 675.3399,-143.688 678.9949,-126.6282 691,-84 694.6144,-71.1659 699.4747,-64.2935 691,-54 674.1958,-33.5894 604.6291,-24.5864 556.0274,-20.732"/>
<polygon fill="#ff0000" stroke="#ff0000" points="556.2334,-17.2377 546.001,-19.9854 555.7135,-24.2184 556.2334,-17.2377"/>
<text text-anchor="middle" x="715.5" y="-116.3" font-family="Times,serif" font-size="14.00" fill="#000000">Invite link</text>
</g>
<!-- google_analytics -->
<g id="node3" class="node">
<title>google_analytics</title>
<g id="a_node3"><a xlink:href="https://roamresearch.com/#/app/ArtOfGig/page/gkim0kNQ8" xlink:title="Google\nAnalytics">
<polygon fill="none" stroke="#0000ff" points="578.7575,-280.096 581.9074,-280.2425 585.0246,-280.4617 588.0966,-280.7531 591.1109,-281.1158 594.0553,-281.5489 596.9182,-282.0511 599.6886,-282.6211 602.3558,-283.2573 604.91,-283.9581 607.342,-284.7213 609.6433,-285.5451 611.8062,-286.427 613.824,-287.3647 615.6905,-288.3557 617.4007,-289.3972 618.9504,-290.4863 620.3363,-291.62 621.5558,-292.7954 622.6074,-294.009 623.4906,-295.2577 624.2054,-296.538 624.7528,-297.8463 625.1345,-299.1792 625.3533,-300.5328 625.4121,-301.9036 625.3149,-303.2878 625.0662,-304.6815 624.671,-306.081 624.1346,-307.4825 623.4631,-308.882 622.6625,-310.2757 621.7395,-311.6599 620.7007,-313.0307 619.553,-314.3843 618.3034,-315.7172 616.9588,-317.0255 615.5263,-318.3058 614.0126,-319.5545 612.4246,-320.7681 610.7688,-321.9434 609.0515,-323.0772 607.2787,-324.1663 605.4564,-325.2078 603.5898,-326.1987 601.6842,-327.1365 599.7443,-328.0184 597.7745,-328.8422 595.7788,-329.6054 593.761,-330.3061 591.7243,-330.9424 589.6717,-331.5124 587.6059,-332.0146 585.5293,-332.4477 583.4441,-332.8104 581.352,-333.1018 579.2549,-333.321 577.1543,-333.4675 575.0517,-333.5408 572.9483,-333.5408 570.8457,-333.4675 568.7451,-333.321 566.648,-333.1018 564.5559,-332.8104 562.4707,-332.4477 560.3941,-332.0146 558.3283,-331.5124 556.2757,-330.9424 554.239,-330.3061 552.2212,-329.6054 550.2255,-328.8422 548.2557,-328.0184 546.3158,-327.1365 544.4102,-326.1987 542.5436,-325.2078 540.7213,-324.1663 538.9485,-323.0772 537.2312,-321.9434 535.5754,-320.7681 533.9874,-319.5545 532.4737,-318.3058 531.0412,-317.0255 529.6966,-315.7172 528.447,-314.3843 527.2993,-313.0307 526.2605,-311.6599 525.3375,-310.2757 524.5369,-308.882 523.8654,-307.4825 523.329,-306.081 522.9338,-304.6815 522.6851,-303.2878 522.5879,-301.9036 522.6467,-300.5328 522.8655,-299.1792 523.2472,-297.8463 523.7946,-296.538 524.5094,-295.2577 525.3926,-294.009 526.4442,-292.7954 527.6637,-291.62 529.0496,-290.4863 530.5993,-289.3972 532.3095,-288.3557 534.176,-287.3647 536.1938,-286.427 538.3567,-285.5451 540.658,-284.7213 543.09,-283.9581 545.6442,-283.2573 548.3114,-282.6211 551.0818,-282.0511 553.9447,-281.5489 556.8891,-281.1158 559.9034,-280.7531 562.9754,-280.4617 566.0926,-280.2425 569.2425,-280.096 572.412,-280.0227 575.588,-280.0227 578.7575,-280.096"/>
<text text-anchor="middle" x="574" y="-310.5817" font-family="Times,serif" font-size="14.00" fill="#000000">Google</text>
<text text-anchor="middle" x="574" y="-295.5817" font-family="Times,serif" font-size="14.00" fill="#000000">Analytics</text>
</a>
</g>
</g>
<!-- reboot_deck -->
<g id="node4" class="node">
<title>reboot_deck</title>
<g id="a_node4"><a xlink:href="https://roamresearch.com/#/app/ArtOfGig/page/s7km8fEQp" xlink:title="&quot;Don&#39;t Waste the\nReboot&quot; deck">
<ellipse fill="none" stroke="#00ff00" cx="725" cy="-306.7817" rx="77.5747" ry="77.5747"/>
<ellipse fill="none" stroke="#00ff00" cx="725" cy="-306.7817" rx="81.5641" ry="81.5641"/>
<text text-anchor="middle" x="725" y="-310.5817" font-family="Times,serif" font-size="14.00" fill="#000000">&quot;Don&#39;t Waste the</text>
<text text-anchor="middle" x="725" y="-295.5817" font-family="Times,serif" font-size="14.00" fill="#000000">Reboot&quot; deck</text>
</a>
</g>
</g>
<!-- home_deck -->
<g id="node5" class="node">
<title>home_deck</title>
<g id="a_node5"><a xlink:href="https://roamresearch.com/#/app/ArtOfGig/page/sGxc8YzrD" xlink:title="&quot;The New Old\nHome&quot; deck">
<ellipse fill="none" stroke="#00ff00" cx="897" cy="-306.7817" rx="68.6739" ry="68.6739"/>
<ellipse fill="none" stroke="#00ff00" cx="897" cy="-306.7817" rx="72.6788" ry="72.6788"/>
<text text-anchor="middle" x="897" y="-310.5817" font-family="Times,serif" font-size="14.00" fill="#000000">&quot;The New Old</text>
<text text-anchor="middle" x="897" y="-295.5817" font-family="Times,serif" font-size="14.00" fill="#000000">Home&quot; deck</text>
</a>
</g>
</g>
<!-- zapier&#45;&gt;discord -->
<g id="edge30" class="edge">
<title>zapier&#45;&gt;discord</title>
<path fill="none" stroke="#000000" d="M813.3935,-103.5981C794.8585,-88.2122 764.9223,-65.8484 735,-54 703.081,-41.3609 611.7579,-29.5143 554.8445,-23.0609"/>
<polygon fill="#000000" stroke="#000000" points="554.9671,-19.5529 544.64,-21.9197 554.189,-26.5095 554.9671,-19.5529"/>
<text text-anchor="middle" x="808" y="-72.8" font-family="Times,serif" font-size="14.00" fill="#000000">Post in</text>
<text text-anchor="middle" x="808" y="-57.8" font-family="Times,serif" font-size="14.00" fill="#000000">#events</text>
</g>
<!-- twitter -->
<g id="node13" class="node">
<title>twitter</title>
<g id="a_node13"><a xlink:href="https://roamresearch.com/#/app/ArtOfGig/page/ssp9sORuP" xlink:title="Twitter">
<polygon fill="none" stroke="#00ff00" points="939.5647,-.0493 941.9248,-.1479 944.2605,-.2953 946.5623,-.4913 948.8208,-.7353 951.027,-1.0266 953.1721,-1.3645 955.2479,-1.7479 957.2464,-2.1759 959.1602,-2.6472 960.9824,-3.1606 962.7068,-3.7147 964.3274,-4.308 965.8392,-4.9388 967.2378,-5.6054 968.5192,-6.3059 969.6804,-7.0385 970.7188,-7.8012 971.6325,-8.5918 972.4205,-9.4082 973.0822,-10.2481 973.6178,-11.1093 974.028,-11.9894 974.314,-12.886 974.4779,-13.7965 974.522,-14.7186 974.4492,-15.6497 974.2629,-16.5873 973.9667,-17.5287 973.5648,-18.4713 973.0616,-19.4127 972.4618,-20.3503 971.7702,-21.2814 970.9918,-22.2035 970.1319,-23.114 969.1956,-24.0106 968.1881,-24.8907 967.1148,-25.7519 965.9806,-26.5918 964.7907,-27.4082 963.5501,-28.1988 962.2633,-28.9615 960.9351,-29.6941 959.5696,-30.3946 958.171,-31.0612 956.7432,-31.692 955.2897,-32.2853 953.8137,-32.8394 952.3184,-33.3528 950.8065,-33.8241 949.2804,-34.2521 947.7424,-34.6355 946.1946,-34.9734 944.6387,-35.2647 943.0762,-35.5087 941.5087,-35.7047 939.9374,-35.8521 938.3635,-35.9507 936.788,-36 935.212,-36 933.6365,-35.9507 932.0626,-35.8521 930.4913,-35.7047 928.9238,-35.5087 927.3613,-35.2647 925.8054,-34.9734 924.2576,-34.6355 922.7196,-34.2521 921.1935,-33.8241 919.6816,-33.3528 918.1863,-32.8394 916.7103,-32.2853 915.2568,-31.692 913.829,-31.0612 912.4304,-30.3946 911.0649,-29.6941 909.7367,-28.9615 908.4499,-28.1988 907.2093,-27.4082 906.0194,-26.5918 904.8852,-25.7519 903.8119,-24.8907 902.8044,-24.0106 901.8681,-23.114 901.0082,-22.2035 900.2298,-21.2814 899.5382,-20.3503 898.9384,-19.4127 898.4352,-18.4713 898.0333,-17.5287 897.7371,-16.5873 897.5508,-15.6497 897.478,-14.7186 897.5221,-13.7965 897.686,-12.886 897.972,-11.9894 898.3822,-11.1093 898.9178,-10.2481 899.5795,-9.4082 900.3675,-8.5918 901.2812,-7.8012 902.3196,-7.0385 903.4808,-6.3059 904.7622,-5.6054 906.1608,-4.9388 907.6726,-4.308 909.2932,-3.7147 911.0176,-3.1606 912.8398,-2.6472 914.7536,-2.1759 916.7521,-1.7479 918.8279,-1.3645 920.973,-1.0266 923.1792,-.7353 925.4377,-.4913 927.7395,-.2953 930.0752,-.1479 932.4353,-.0493 934.8101,0 937.1899,0 939.5647,-.0493"/>
<text text-anchor="middle" x="936" y="-14.3" font-family="Times,serif" font-size="14.00" fill="#000000">Twitter</text>
</a>
</g>
</g>
<!-- zapier&#45;&gt;twitter -->
<g id="edge31" class="edge">
<title>zapier&#45;&gt;twitter</title>
<path fill="none" stroke="#000000" d="M849.1735,-103.1568C866.5923,-86.0729 893.6604,-59.5254 912.9404,-40.6162"/>
<polygon fill="#000000" stroke="#000000" points="915.4771,-43.0306 920.1658,-33.5297 910.5756,-38.0331 915.4771,-43.0306"/>
<text text-anchor="middle" x="930" y="-72.8" font-family="Times,serif" font-size="14.00" fill="#000000">Tweet about</text>
<text text-anchor="middle" x="930" y="-57.8" font-family="Times,serif" font-size="14.00" fill="#000000">new content</text>
</g>
<!-- calendar_yak -->
<g id="node7" class="node">
<title>calendar_yak</title>
<g id="a_node7"><a xlink:href="https://roamresearch.com/#/app/ArtOfGig/page/4lz1jh2sn" xlink:title="calendar_yak">
<polygon fill="none" stroke="#0000ff" points="627.5,-138 538.5,-138 538.5,-102 627.5,-102 627.5,-138"/>
<text text-anchor="middle" x="583" y="-116.3" font-family="Times,serif" font-size="14.00" fill="#000000">calendar_yak</text>
</a>
</g>
</g>
<!-- welcome_bot -->
<g id="node8" class="node">
<title>welcome_bot</title>
<g id="a_node8"><a xlink:href="https://roamresearch.com/#/app/ArtOfGig/page/S_Xkw1vVi" xlink:title="welcome_bot">
<polygon fill="none" stroke="#0000ff" points="446,-138 356,-138 356,-102 446,-102 446,-138"/>
<text text-anchor="middle" x="401" y="-116.3" font-family="Times,serif" font-size="14.00" fill="#000000">welcome_bot</text>
</a>
</g>
</g>
<!-- welcome_bot&#45;&gt;discord -->
<g id="edge9" class="edge">
<title>welcome_bot&#45;&gt;discord</title>
<path fill="none" stroke="#000000" d="M355.9698,-112.2465C325.8789,-106.0426 290.1859,-96.3461 281,-84 273.0409,-73.3028 272.3452,-64.1426 281,-54 292.4209,-40.6159 396.2434,-28.5175 459.1251,-22.3337"/>
<polygon fill="#000000" stroke="#000000" points="459.6069,-25.8035 469.2234,-21.3567 458.9328,-18.8361 459.6069,-25.8035"/>
<text text-anchor="middle" x="333" y="-72.8" font-family="Times,serif" font-size="14.00" fill="#000000">Welcome message</text>
<text text-anchor="middle" x="333" y="-57.8" font-family="Times,serif" font-size="14.00" fill="#000000">series</text>
</g>
<!-- yakyak -->
<g id="node9" class="node">
<title>yakyak</title>
<g id="a_node9"><a xlink:href="https://roamresearch.com/#/app/ArtOfGig/page/Q1LoZ_dE4" xlink:title="yakyak">
<polygon fill="none" stroke="#0000ff" points="520,-138 464,-138 464,-102 520,-102 520,-138"/>
<text text-anchor="middle" x="492" y="-116.3" font-family="Times,serif" font-size="14.00" fill="#000000">yakyak</text>
</a>
</g>
</g>
<!-- yakyak&#45;&gt;discord -->
<g id="edge10" class="edge">
<title>yakyak&#45;&gt;discord</title>
<path fill="none" stroke="#000000" d="M514.7652,-101.9653C519.5752,-98.8769 524.7811,-96.0184 530,-94 545.0661,-88.1733 591.3924,-96.1827 602,-84 610.7556,-73.9443 609.5756,-64.9721 602,-54 595.5402,-44.6441 571.4934,-35.5814 549.2116,-28.8893"/>
<polygon fill="#000000" stroke="#000000" points="550.077,-25.4962 539.4983,-26.0809 548.1326,-32.2208 550.077,-25.4962"/>
<text text-anchor="middle" x="647.5" y="-72.8" font-family="Times,serif" font-size="14.00" fill="#000000">Prune inactive</text>
<text text-anchor="middle" x="647.5" y="-57.8" font-family="Times,serif" font-size="14.00" fill="#000000">users</text>
</g>
<!-- discord&#45;&gt;welcome_bot -->
<g id="edge7" class="edge">
<title>discord&#45;&gt;welcome_bot</title>
<path fill="none" stroke="#000000" d="M472.5461,-24.5818C443.4777,-30.9176 405.1725,-41.3823 396,-54 388.1626,-64.7812 388.4538,-79.342 391.1166,-92.0441"/>
<polygon fill="#000000" stroke="#000000" points="387.7323,-92.9369 393.6505,-101.7247 394.5042,-91.1643 387.7323,-92.9369"/>
<text text-anchor="middle" x="444.5" y="-72.8" font-family="Times,serif" font-size="14.00" fill="#000000">New user</text>
<text text-anchor="middle" x="444.5" y="-57.8" font-family="Times,serif" font-size="14.00" fill="#000000">notification / data</text>
</g>
<!-- discord&#45;&gt;yakyak -->
<g id="edge8" class="edge">
<title>discord&#45;&gt;yakyak</title>
<path fill="none" stroke="#000000" d="M504.3415,-36.0777C502.0768,-51.4776 498.7836,-73.8717 496.1685,-91.6541"/>
<polygon fill="#000000" stroke="#000000" points="492.674,-91.3616 494.6817,-101.7644 499.5995,-92.3801 492.674,-91.3616"/>
<text text-anchor="middle" x="549.5" y="-72.8" font-family="Times,serif" font-size="14.00" fill="#000000">New user</text>
<text text-anchor="middle" x="549.5" y="-57.8" font-family="Times,serif" font-size="14.00" fill="#000000">notification / data</text>
</g>
<!-- substack -->
<g id="node11" class="node">
<title>substack</title>
<g id="a_node11"><a xlink:href="https://roamresearch.com/#/app/ArtOfGig/page/kMaCo6Xc-" xlink:title="Substack">
<polygon fill="none" stroke="#00ff00" points="861.1622,-908.8246 863.9179,-908.9231 866.6452,-909.0706 869.3328,-909.2666 871.9699,-909.5105 874.5459,-909.8019 877.0506,-910.1397 879.4743,-910.5231 881.8078,-910.9511 884.0424,-911.4224 886.1701,-911.9359 888.1834,-912.49 890.0757,-913.0832 891.841,-913.714 893.474,-914.3806 894.9702,-915.0811 896.326,-915.8138 897.5384,-916.5764 898.6054,-917.367 899.5255,-918.1834 900.2981,-919.0234 900.9234,-919.8846 901.4023,-920.7646 901.7364,-921.6612 901.9277,-922.5718 901.9792,-923.4939 901.8942,-924.4249 901.6766,-925.3625 901.3308,-926.3039 900.8616,-927.2466 900.274,-928.188 899.5737,-929.1255 898.7661,-930.0566 897.8573,-930.9787 896.8532,-931.8892 895.7599,-932.7858 894.5836,-933.6659 893.3303,-934.5271 892.0061,-935.367 890.6167,-936.1834 889.1681,-936.974 887.6657,-937.7367 886.1148,-938.4693 884.5204,-939.1698 882.8874,-939.8364 881.2203,-940.4672 879.5231,-941.0605 877.7997,-941.6146 876.0538,-942.128 874.2884,-942.5993 872.5065,-943.0273 870.7108,-943.4107 868.9035,-943.7486 867.0867,-944.0399 865.2624,-944.2839 863.4321,-944.4799 861.5974,-944.6273 859.7596,-944.7259 857.9201,-944.7752 856.0799,-944.7752 854.2404,-944.7259 852.4026,-944.6273 850.5679,-944.4799 848.7376,-944.2839 846.9133,-944.0399 845.0965,-943.7486 843.2892,-943.4107 841.4935,-943.0273 839.7116,-942.5993 837.9462,-942.128 836.2003,-941.6146 834.4769,-941.0605 832.7797,-940.4672 831.1126,-939.8364 829.4796,-939.1698 827.8852,-938.4693 826.3343,-937.7367 824.8319,-936.974 823.3833,-936.1834 821.9939,-935.367 820.6697,-934.5271 819.4164,-933.6659 818.2401,-932.7858 817.1468,-931.8892 816.1427,-930.9787 815.2339,-930.0566 814.4263,-929.1255 813.726,-928.188 813.1384,-927.2466 812.6692,-926.3039 812.3234,-925.3625 812.1058,-924.4249 812.0208,-923.4939 812.0723,-922.5718 812.2636,-921.6612 812.5977,-920.7646 813.0766,-919.8846 813.7019,-919.0234 814.4745,-918.1834 815.3946,-917.367 816.4616,-916.5764 817.674,-915.8138 819.0298,-915.0811 820.526,-914.3806 822.159,-913.714 823.9243,-913.0832 825.8166,-912.49 827.8299,-911.9359 829.9576,-911.4224 832.1922,-910.9511 834.5257,-910.5231 836.9494,-910.1397 839.4541,-909.8019 842.0301,-909.5105 844.6672,-909.2666 847.3548,-909.0706 850.0821,-908.9231 852.8378,-908.8246 855.6107,-908.7752 858.3893,-908.7752 861.1622,-908.8246"/>
<text text-anchor="middle" x="857" y="-923.0752" font-family="Times,serif" font-size="14.00" fill="#000000">Substack</text>
</a>
</g>
</g>
<!-- rss_applet -->
<g id="node17" class="node">
<title>rss_applet</title>
<g id="a_node17"><a xlink:href="https://roamresearch.com/#/app/ArtOfGig/page/ucCeiIsih" xlink:title="create&#45;post\nApplets">
<polygon fill="none" stroke="#0000ff" points="941,-770.7214 865,-770.7214 865,-732.7214 941,-732.7214 941,-770.7214"/>
<text text-anchor="middle" x="903" y="-755.5214" font-family="Times,serif" font-size="14.00" fill="#000000">create&#45;post</text>
<text text-anchor="middle" x="903" y="-740.5214" font-family="Times,serif" font-size="14.00" fill="#000000">Applets</text>
</a>
</g>
</g>
<!-- substack&#45;&gt;rss_applet -->
<g id="edge20" class="edge">
<title>substack&#45;&gt;rss_applet</title>
<path fill="none" stroke="#ff0000" d="M842.2364,-909.4545C823.1312,-884.8547 794.9837,-839.4853 819,-809.7214 829.5651,-796.6278 841.3547,-810.0026 856,-801.7214 866.1631,-795.9747 875.4327,-787.3005 883.0035,-778.7824"/>
<polygon fill="#ff0000" stroke="#ff0000" points="885.7096,-781.0025 889.4557,-771.092 880.347,-776.5033 885.7096,-781.0025"/>
<text text-anchor="middle" x="846.5" y="-828.5214" font-family="Times,serif" font-size="14.00" fill="#000000">Pulled</text>
<text text-anchor="middle" x="846.5" y="-813.5214" font-family="Times,serif" font-size="14.00" fill="#000000">by IFTTT</text>
</g>
<!-- twitter_applets -->
<g id="node18" class="node">
<title>twitter_applets</title>
<g id="a_node18"><a xlink:href="https://roamresearch.com/#/app/ArtOfGig/page/j7DInC9sg" xlink:title="Twitter\nApplets">
<polygon fill="none" stroke="#0000ff" points="1018.5,-770.7214 959.5,-770.7214 959.5,-732.7214 1018.5,-732.7214 1018.5,-770.7214"/>
<text text-anchor="middle" x="989" y="-755.5214" font-family="Times,serif" font-size="14.00" fill="#000000">Twitter</text>
<text text-anchor="middle" x="989" y="-740.5214" font-family="Times,serif" font-size="14.00" fill="#000000">Applets</text>
</a>
</g>
</g>
<!-- substack&#45;&gt;twitter_applets -->
<g id="edge25" class="edge">
<title>substack&#45;&gt;twitter_applets</title>
<path fill="none" stroke="#ff0000" d="M876.4873,-909.722C902.5787,-886.7683 946.2685,-847.8608 952,-839.7214 964.7419,-821.6263 974.2582,-798.465 980.4471,-780.4462"/>
<polygon fill="#ff0000" stroke="#ff0000" points="983.83,-781.3624 983.6239,-770.7696 977.1792,-779.1789 983.83,-781.3624"/>
<text text-anchor="middle" x="995.5" y="-828.5214" font-family="Times,serif" font-size="14.00" fill="#000000">Pulled</text>
<text text-anchor="middle" x="995.5" y="-813.5214" font-family="Times,serif" font-size="14.00" fill="#000000">by IFTTT</text>
</g>
<!-- member_feeds -->
<g id="node12" class="node">
<title>member_feeds</title>
<g id="a_node12"><a xlink:href="https://roamresearch.com/#/app/ArtOfGig/page/RLF445t5m" xlink:title="Member RSS\nFeeds">
<ellipse fill="none" stroke="#00ff00" cx="1013" cy="-926.7752" rx="65.1046" ry="65.1046"/>
<ellipse fill="none" stroke="#00ff00" cx="1013" cy="-926.7752" rx="69.1077" ry="69.1077"/>
<text text-anchor="middle" x="1013" y="-930.5752" font-family="Times,serif" font-size="14.00" fill="#000000">Member RSS</text>
<text text-anchor="middle" x="1013" y="-915.5752" font-family="Times,serif" font-size="14.00" fill="#000000">Feeds</text>
</a>
</g>
</g>
<!-- member_feeds&#45;&gt;rss_applet -->
<g id="edge21" class="edge">
<title>member_feeds&#45;&gt;rss_applet</title>
<path fill="none" stroke="#ff0000" d="M954.3273,-889.9607C929.0199,-872.7093 903.6699,-853.0661 897,-839.7214 887.9576,-821.6299 889.8428,-798.7821 893.7868,-780.9015"/>
<polygon fill="#ff0000" stroke="#ff0000" points="897.2268,-781.5736 896.2798,-771.0212 890.4395,-779.861 897.2268,-781.5736"/>
<text text-anchor="middle" x="924.5" y="-828.5214" font-family="Times,serif" font-size="14.00" fill="#000000">Pulled</text>
<text text-anchor="middle" x="924.5" y="-813.5214" font-family="Times,serif" font-size="14.00" fill="#000000">by IFTTT</text>
</g>
<!-- member_feeds&#45;&gt;twitter_applets -->
<g id="edge26" class="edge">
<title>member_feeds&#45;&gt;twitter_applets</title>
<path fill="none" stroke="#ff0000" d="M1032.911,-860.6045C1035.1887,-843.7633 1035.1305,-825.8673 1030,-809.7214 1026.5118,-798.7441 1020.1108,-788.0558 1013.387,-778.9071"/>
<polygon fill="#ff0000" stroke="#ff0000" points="1016.1073,-776.7039 1007.1955,-770.9739 1010.5889,-781.0107 1016.1073,-776.7039"/>
<text text-anchor="middle" x="1061.5" y="-828.5214" font-family="Times,serif" font-size="14.00" fill="#000000">Pulled</text>
<text text-anchor="middle" x="1061.5" y="-813.5214" font-family="Times,serif" font-size="14.00" fill="#000000">by IFTTT</text>
</g>
<!-- facebook -->
<g id="node14" class="node">
<title>facebook</title>
<g id="a_node14"><a xlink:href="https://roamresearch.com/#/app/ArtOfGig/page/WZKSWTGz5" xlink:title="Facebook">
<polygon fill="none" stroke="#00ff00" points="865.3971,-1297.7576 868.3084,-1297.8562 871.1895,-1298.0037 874.0288,-1298.1997 876.8147,-1298.4436 879.536,-1298.7349 882.1821,-1299.0728 884.7426,-1299.4562 887.2078,-1299.8842 889.5685,-1300.3555 891.8163,-1300.869 893.9433,-1301.4231 895.9424,-1302.0163 897.8072,-1302.6471 899.5324,-1303.3137 901.1131,-1304.0142 902.5454,-1304.7468 903.8262,-1305.5095 904.9534,-1306.3001 905.9254,-1307.1165 906.7416,-1307.9565 907.4022,-1308.8176 907.9082,-1309.6977 908.261,-1310.5943 908.4632,-1311.5049 908.5176,-1312.4269 908.4278,-1313.358 908.1979,-1314.2956 907.8326,-1315.237 907.3369,-1316.1797 906.7162,-1317.1211 905.9763,-1318.0586 905.1232,-1318.9897 904.1631,-1319.9118 903.1023,-1320.8223 901.9474,-1321.7189 900.7046,-1322.599 899.3806,-1323.4602 897.9816,-1324.3001 896.5139,-1325.1165 894.9835,-1325.9071 893.3963,-1326.6698 891.7578,-1327.4024 890.0735,-1328.1029 888.3484,-1328.7695 886.5871,-1329.4003 884.7942,-1329.9936 882.9736,-1330.5477 881.1291,-1331.0611 879.2641,-1331.5324 877.3816,-1331.9604 875.4845,-1332.3438 873.5752,-1332.6817 871.656,-1332.973 869.7287,-1333.217 867.7951,-1333.413 865.8569,-1333.5604 863.9154,-1333.659 861.972,-1333.7083 860.028,-1333.7083 858.0846,-1333.659 856.1431,-1333.5604 854.2049,-1333.413 852.2713,-1333.217 850.344,-1332.973 848.4248,-1332.6817 846.5155,-1332.3438 844.6184,-1331.9604 842.7359,-1331.5324 840.8709,-1331.0611 839.0264,-1330.5477 837.2058,-1329.9936 835.4129,-1329.4003 833.6516,-1328.7695 831.9265,-1328.1029 830.2422,-1327.4024 828.6037,-1326.6698 827.0165,-1325.9071 825.4861,-1325.1165 824.0184,-1324.3001 822.6194,-1323.4602 821.2954,-1322.599 820.0526,-1321.7189 818.8977,-1320.8223 817.8369,-1319.9118 816.8768,-1318.9897 816.0237,-1318.0586 815.2838,-1317.1211 814.6631,-1316.1797 814.1674,-1315.237 813.8021,-1314.2956 813.5722,-1313.358 813.4824,-1312.4269 813.5368,-1311.5049 813.739,-1310.5943 814.0918,-1309.6977 814.5978,-1308.8176 815.2584,-1307.9565 816.0746,-1307.1165 817.0466,-1306.3001 818.1738,-1305.5095 819.4546,-1304.7468 820.8869,-1304.0142 822.4676,-1303.3137 824.1928,-1302.6471 826.0576,-1302.0163 828.0567,-1301.4231 830.1837,-1300.869 832.4315,-1300.3555 834.7922,-1299.8842 837.2574,-1299.4562 839.8179,-1299.0728 842.464,-1298.7349 845.1853,-1298.4436 847.9712,-1298.1997 850.8105,-1298.0037 853.6916,-1297.8562 856.6029,-1297.7576 859.5323,-1297.7083 862.4677,-1297.7083 865.3971,-1297.7576"/>
<text text-anchor="middle" x="861" y="-1312.0083" font-family="Times,serif" font-size="14.00" fill="#000000">Facebook</text>
</a>
</g>
</g>
<!-- linkedin -->
<g id="node15" class="node">
<title>linkedin</title>
<g id="a_node15"><a xlink:href="https://roamresearch.com/#/app/ArtOfGig/page/M17w4lZJB" xlink:title="LinkedIn">
<polygon fill="none" stroke="#00ff00" points="986.2441,-1297.7576 989.0541,-1297.8562 991.835,-1298.0037 994.5754,-1298.1997 997.2644,-1298.4436 999.8911,-1298.7349 1002.4451,-1299.0728 1004.9165,-1299.4562 1007.2959,-1299.8842 1009.5745,-1300.3555 1011.744,-1300.869 1013.797,-1301.4231 1015.7265,-1302.0163 1017.5265,-1302.6471 1019.1917,-1303.3137 1020.7173,-1304.0142 1022.0998,-1304.7468 1023.3361,-1305.5095 1024.424,-1306.3001 1025.3622,-1307.1165 1026.15,-1307.9565 1026.7877,-1308.8176 1027.276,-1309.6977 1027.6166,-1310.5943 1027.8117,-1311.5049 1027.8642,-1312.4269 1027.7775,-1313.358 1027.5557,-1314.2956 1027.2031,-1315.237 1026.7246,-1316.1797 1026.1255,-1317.1211 1025.4113,-1318.0586 1024.5879,-1318.9897 1023.6612,-1319.9118 1022.6374,-1320.8223 1021.5226,-1321.7189 1020.3231,-1322.599 1019.0452,-1323.4602 1017.6948,-1324.3001 1016.2782,-1325.1165 1014.801,-1325.9071 1013.2691,-1326.6698 1011.6876,-1327.4024 1010.0619,-1328.1029 1008.3968,-1328.7695 1006.6968,-1329.4003 1004.9662,-1329.9936 1003.209,-1330.5477 1001.4287,-1331.0611 999.6286,-1331.5324 997.8116,-1331.9604 995.9805,-1332.3438 994.1377,-1332.6817 992.2852,-1332.973 990.4249,-1333.217 988.5587,-1333.413 986.6879,-1333.5604 984.8139,-1333.659 982.9382,-1333.7083 981.0618,-1333.7083 979.1861,-1333.659 977.3121,-1333.5604 975.4413,-1333.413 973.5751,-1333.217 971.7148,-1332.973 969.8623,-1332.6817 968.0195,-1332.3438 966.1884,-1331.9604 964.3714,-1331.5324 962.5713,-1331.0611 960.791,-1330.5477 959.0338,-1329.9936 957.3032,-1329.4003 955.6032,-1328.7695 953.9381,-1328.1029 952.3124,-1327.4024 950.7309,-1326.6698 949.199,-1325.9071 947.7218,-1325.1165 946.3052,-1324.3001 944.9548,-1323.4602 943.6769,-1322.599 942.4774,-1321.7189 941.3626,-1320.8223 940.3388,-1319.9118 939.4121,-1318.9897 938.5887,-1318.0586 937.8745,-1317.1211 937.2754,-1316.1797 936.7969,-1315.237 936.4443,-1314.2956 936.2225,-1313.358 936.1358,-1312.4269 936.1883,-1311.5049 936.3834,-1310.5943 936.724,-1309.6977 937.2123,-1308.8176 937.85,-1307.9565 938.6378,-1307.1165 939.576,-1306.3001 940.6639,-1305.5095 941.9002,-1304.7468 943.2827,-1304.0142 944.8083,-1303.3137 946.4735,-1302.6471 948.2735,-1302.0163 950.203,-1301.4231 952.256,-1300.869 954.4255,-1300.3555 956.7041,-1299.8842 959.0835,-1299.4562 961.5549,-1299.0728 964.1089,-1298.7349 966.7356,-1298.4436 969.4246,-1298.1997 972.165,-1298.0037 974.9459,-1297.8562 977.7559,-1297.7576 980.5833,-1297.7083 983.4167,-1297.7083 986.2441,-1297.7576"/>
<text text-anchor="middle" x="982" y="-1312.0083" font-family="Times,serif" font-size="14.00" fill="#000000">LinkedIn</text>
</a>
</g>
</g>
<!-- glitch -->
<g id="node16" class="node">
<title>glitch</title>
<g id="a_node16"><a xlink:href="https://roamresearch.com/#/app/ArtOfGig/page/bTxU0ABQS" xlink:title="Glitch">
<polygon fill="none" stroke="#0000ff" points="1088.2124,-1297.7576 1090.3393,-1297.8562 1092.4442,-1298.0037 1094.5185,-1298.1997 1096.5538,-1298.4436 1098.5419,-1298.7349 1100.4751,-1299.0728 1102.3457,-1299.4562 1104.1467,-1299.8842 1105.8714,-1300.3555 1107.5136,-1300.869 1109.0675,-1301.4231 1110.528,-1302.0163 1111.8904,-1302.6471 1113.1507,-1303.3137 1114.3056,-1304.0142 1115.352,-1304.7468 1116.2877,-1305.5095 1117.1112,-1306.3001 1117.8213,-1307.1165 1118.4176,-1307.9565 1118.9003,-1308.8176 1119.2699,-1309.6977 1119.5277,-1310.5943 1119.6754,-1311.5049 1119.7151,-1312.4269 1119.6495,-1313.358 1119.4816,-1314.2956 1119.2147,-1315.237 1118.8525,-1316.1797 1118.399,-1317.1211 1117.8585,-1318.0586 1117.2352,-1318.9897 1116.5338,-1319.9118 1115.7588,-1320.8223 1114.9151,-1321.7189 1114.0072,-1322.599 1113.0399,-1323.4602 1112.0178,-1324.3001 1110.9455,-1325.1165 1109.8275,-1325.9071 1108.6679,-1326.6698 1107.4709,-1327.4024 1106.2404,-1328.1029 1104.98,-1328.7695 1103.6933,-1329.4003 1102.3834,-1329.9936 1101.0533,-1330.5477 1099.7058,-1331.0611 1098.3432,-1331.5324 1096.968,-1331.9604 1095.582,-1332.3438 1094.1871,-1332.6817 1092.785,-1332.973 1091.3769,-1333.217 1089.9643,-1333.413 1088.5483,-1333.5604 1087.1299,-1333.659 1085.7101,-1333.7083 1084.2899,-1333.7083 1082.8701,-1333.659 1081.4517,-1333.5604 1080.0357,-1333.413 1078.6231,-1333.217 1077.215,-1332.973 1075.8129,-1332.6817 1074.418,-1332.3438 1073.032,-1331.9604 1071.6568,-1331.5324 1070.2942,-1331.0611 1068.9467,-1330.5477 1067.6166,-1329.9936 1066.3067,-1329.4003 1065.02,-1328.7695 1063.7596,-1328.1029 1062.5291,-1327.4024 1061.3321,-1326.6698 1060.1725,-1325.9071 1059.0545,-1325.1165 1057.9822,-1324.3001 1056.9601,-1323.4602 1055.9928,-1322.599 1055.0849,-1321.7189 1054.2412,-1320.8223 1053.4662,-1319.9118 1052.7648,-1318.9897 1052.1415,-1318.0586 1051.601,-1317.1211 1051.1475,-1316.1797 1050.7853,-1315.237 1050.5184,-1314.2956 1050.3505,-1313.358 1050.2849,-1312.4269 1050.3246,-1311.5049 1050.4723,-1310.5943 1050.7301,-1309.6977 1051.0997,-1308.8176 1051.5824,-1307.9565 1052.1787,-1307.1165 1052.8888,-1306.3001 1053.7123,-1305.5095 1054.648,-1304.7468 1055.6944,-1304.0142 1056.8493,-1303.3137 1058.1096,-1302.6471 1059.472,-1302.0163 1060.9325,-1301.4231 1062.4864,-1300.869 1064.1286,-1300.3555 1065.8533,-1299.8842 1067.6543,-1299.4562 1069.5249,-1299.0728 1071.4581,-1298.7349 1073.4462,-1298.4436 1075.4815,-1298.1997 1077.5558,-1298.0037 1079.6607,-1297.8562 1081.7876,-1297.7576 1083.9277,-1297.7083 1086.0723,-1297.7083 1088.2124,-1297.7576"/>
<text text-anchor="middle" x="1085" y="-1312.0083" font-family="Times,serif" font-size="14.00" fill="#000000">Glitch</text>
</a>
</g>
</g>
<!-- create_post -->
<g id="node26" class="node">
<title>create_post</title>
<g id="a_node26"><a xlink:href="https://roamresearch.com/#/app/ArtOfGig/page/wDK81GyfO" xlink:title="create&#45;post">
<polygon fill="none" stroke="#0000ff" points="415,-587.5965 339,-587.5965 339,-551.5965 415,-551.5965 415,-587.5965"/>
<text text-anchor="middle" x="377" y="-565.8965" font-family="Times,serif" font-size="14.00" fill="#000000">create&#45;post</text>
</a>
</g>
</g>
<!-- rss_applet&#45;&gt;create_post -->
<g id="edge22" class="edge">
<title>rss_applet&#45;&gt;create_post</title>
<path fill="none" stroke="#000000" d="M874.6069,-732.6901C868.6772,-729.508 862.3058,-726.6262 856,-724.7214 823.383,-714.8689 732.8744,-731.1062 703,-714.7214 688.503,-706.7704 695.6222,-692.4398 681,-684.7214 657.4041,-672.2661 463.9832,-690.274 441,-676.7214 411.6752,-659.4293 394.2369,-623.0026 385.1417,-597.4477"/>
<polygon fill="#000000" stroke="#000000" points="388.4447,-596.2885 381.9525,-587.9158 381.8064,-598.5096 388.4447,-596.2885"/>
<text text-anchor="middle" x="741.5" y="-703.5214" font-family="Times,serif" font-size="14.00" fill="#000000">RSS post data</text>
<text text-anchor="middle" x="741.5" y="-688.5214" font-family="Times,serif" font-size="14.00" fill="#000000">to webhook</text>
</g>
<!-- twitter_applets&#45;&gt;twitter -->
<g id="edge28" class="edge">
<title>twitter_applets&#45;&gt;twitter</title>
<path fill="none" stroke="#000000" d="M991.9612,-732.6348C996.8318,-699.5343 1006,-629.2984 1006,-569.5965 1006,-569.5965 1006,-569.5965 1006,-120 1006,-87.9569 982.2246,-58.6186 962.3861,-39.7159"/>
<polygon fill="#000000" stroke="#000000" points="964.5054,-36.9117 954.7587,-32.758 959.7878,-42.0832 964.5054,-36.9117"/>
<text text-anchor="middle" x="1040" y="-310.5817" font-family="Times,serif" font-size="14.00" fill="#000000">Tweet about</text>
<text text-anchor="middle" x="1040" y="-295.5817" font-family="Times,serif" font-size="14.00" fill="#000000">new content</text>
</g>
<!-- netlify_applet -->
<g id="node19" class="node">
<title>netlify_applet</title>
<g id="a_node19"><a xlink:href="https://roamresearch.com/#/app/ArtOfGig/page/EWP06EjZH" xlink:title="Netlify Build\nHook Applet">
<polygon fill="none" stroke="#0000ff" points="1125.5,-770.7214 1036.5,-770.7214 1036.5,-732.7214 1125.5,-732.7214 1125.5,-770.7214"/>
<text text-anchor="middle" x="1081" y="-755.5214" font-family="Times,serif" font-size="14.00" fill="#000000">Netlify Build</text>
<text text-anchor="middle" x="1081" y="-740.5214" font-family="Times,serif" font-size="14.00" fill="#000000">Hook Applet</text>
</a>
</g>
</g>
<!-- netlify_ci -->
<g id="node21" class="node">
<title>netlify_ci</title>
<g id="a_node21"><a xlink:href="https://roamresearch.com/#/app/ArtOfGig/page/lfZqzDmtI" xlink:title="Netlify Continuous\nIntegration">
<polygon fill="none" stroke="#0000ff" points="488.4423,-1289.0226 494.0318,-1289.1691 499.5635,-1289.3883 505.0148,-1289.6797 510.3636,-1290.0424 515.5885,-1290.4754 520.6689,-1290.9777 525.585,-1291.5477 530.318,-1292.1839 534.8505,-1292.8846 539.1661,-1293.6479 543.2498,-1294.4716 547.088,-1295.3536 550.6685,-1296.2913 553.9808,-1297.2823 557.0156,-1298.3237 559.7656,-1299.4128 562.2248,-1300.5466 564.3888,-1301.7219 566.255,-1302.9356 567.8222,-1304.1843 569.0906,-1305.4645 570.0619,-1306.7729 570.7394,-1308.1057 571.1276,-1309.4594 571.232,-1310.8302 571.0596,-1312.2144 570.6182,-1313.6081 569.9168,-1315.0076 568.9651,-1316.409 567.7734,-1317.8085 566.3528,-1319.2023 564.7148,-1320.5864 562.8715,-1321.9572 560.8349,-1323.3109 558.6174,-1324.6437 556.2314,-1325.9521 553.6893,-1327.2323 551.0033,-1328.481 548.1854,-1329.6947 545.2471,-1330.87 542.1997,-1332.0038 539.0539,-1333.0929 535.8201,-1334.1344 532.5079,-1335.1253 529.1263,-1336.063 525.6839,-1336.945 522.1884,-1337.7687 518.6471,-1338.532 515.0663,-1339.2327 511.4521,-1339.8689 507.8097,-1340.4389 504.144,-1340.9412 500.459,-1341.3742 496.7587,-1341.7369 493.0463,-1342.0283 489.325,-1342.2476 485.5974,-1342.394 481.8662,-1342.4674 478.1338,-1342.4674 474.4026,-1342.394 470.675,-1342.2476 466.9537,-1342.0283 463.2413,-1341.7369 459.541,-1341.3742 455.856,-1340.9412 452.1903,-1340.4389 448.5479,-1339.8689 444.9337,-1339.2327 441.3529,-1338.532 437.8116,-1337.7687 434.3161,-1336.945 430.8737,-1336.063 427.4921,-1335.1253 424.1799,-1334.1344 420.9461,-1333.0929 417.8003,-1332.0038 414.7529,-1330.87 411.8146,-1329.6947 408.9967,-1328.481 406.3107,-1327.2323 403.7686,-1325.9521 401.3826,-1324.6437 399.1651,-1323.3109 397.1285,-1321.9572 395.2852,-1320.5864 393.6472,-1319.2023 392.2266,-1317.8085 391.0349,-1316.409 390.0832,-1315.0076 389.3818,-1313.6081 388.9404,-1312.2144 388.768,-1310.8302 388.8724,-1309.4594 389.2606,-1308.1057 389.9381,-1306.7729 390.9094,-1305.4645 392.1778,-1304.1843 393.745,-1302.9356 395.6112,-1301.7219 397.7752,-1300.5466 400.2344,-1299.4128 402.9844,-1298.3237 406.0192,-1297.2823 409.3315,-1296.2913 412.912,-1295.3536 416.7502,-1294.4716 420.8339,-1293.6479 425.1495,-1292.8846 429.682,-1292.1839 434.415,-1291.5477 439.3311,-1290.9777 444.4115,-1290.4754 449.6364,-1290.0424 454.9852,-1289.6797 460.4365,-1289.3883 465.9682,-1289.1691 471.5577,-1289.0226 477.182,-1288.9492 482.818,-1288.9492 488.4423,-1289.0226"/>
<text text-anchor="middle" x="480" y="-1319.5083" font-family="Times,serif" font-size="14.00" fill="#000000">Netlify Continuous</text>
<text text-anchor="middle" x="480" y="-1304.5083" font-family="Times,serif" font-size="14.00" fill="#000000">Integration</text>
</a>
</g>
</g>
<!-- netlify_applet&#45;&gt;netlify_ci -->
<g id="edge13" class="edge">
<title>netlify_applet&#45;&gt;netlify_ci</title>
<path fill="none" stroke="#000000" d="M1088.52,-770.8064C1100.3564,-802.6153 1122,-868.7177 1122,-926.7752 1122,-1244.329 1122,-1244.329 1122,-1244.329 1122,-1257.7689 761.8153,-1291.1215 581.0191,-1307.0165"/>
<polygon fill="#000000" stroke="#000000" points="580.6167,-1303.5382 570.961,-1307.899 581.2287,-1310.5114 580.6167,-1303.5382"/>
<text text-anchor="middle" x="1163.5" y="-1134.629" font-family="Times,serif" font-size="14.00" fill="#000000">Trigger rebuild</text>
<text text-anchor="middle" x="1163.5" y="-1119.629" font-family="Times,serif" font-size="14.00" fill="#000000">every 24 hours</text>
</g>
<!-- github -->
<g id="node20" class="node">
<title>github</title>
<g id="a_node20"><a xlink:href="https://roamresearch.com/#/app/ArtOfGig/page/1PVNV7Ell" xlink:title="GitHub">
<polygon fill="none" stroke="#0000ff" points="109.6464,-288.8311 112.0606,-288.9296 114.4498,-289.0771 116.8044,-289.2731 119.1146,-289.5171 121.3714,-289.8084 123.5657,-290.1462 125.689,-290.5296 127.7333,-290.9576 129.691,-291.429 131.555,-291.9424 133.3188,-292.4965 134.9766,-293.0897 136.5231,-293.7205 137.9537,-294.3871 139.2645,-295.0877 140.4523,-295.8203 141.5145,-296.5829 142.4492,-297.3735 143.2552,-298.1899 143.9321,-299.0299 144.48,-299.8911 144.8995,-300.7712 145.1921,-301.6677 145.3598,-302.5783 145.4049,-303.5004 145.3304,-304.4315 145.1398,-305.369 144.8368,-306.3104 144.4258,-307.2531 143.911,-308.1945 143.2975,-309.132 142.59,-310.0631 141.7938,-310.9852 140.9142,-311.8958 139.9564,-312.7923 138.9258,-313.6724 137.8279,-314.5336 136.6677,-315.3735 135.4506,-316.1899 134.1815,-316.9806 132.8652,-317.7432 131.5065,-318.4758 130.1098,-319.1764 128.6792,-319.843 127.2186,-320.4737 125.7318,-321.067 124.222,-321.6211 122.6924,-322.1345 121.1458,-322.6059 119.5848,-323.0339 118.0116,-323.4173 116.4283,-323.7551 114.8367,-324.0464 113.2384,-324.2904 111.635,-324.4864 110.0277,-324.6339 108.4176,-324.7324 106.8061,-324.7817 105.1939,-324.7817 103.5824,-324.7324 101.9723,-324.6339 100.365,-324.4864 98.7616,-324.2904 97.1633,-324.0464 95.5717,-323.7551 93.9884,-323.4173 92.4152,-323.0339 90.8542,-322.6059 89.3076,-322.1345 87.778,-321.6211 86.2682,-321.067 84.7814,-320.4737 83.3208,-319.843 81.8902,-319.1764 80.4935,-318.4758 79.1348,-317.7432 77.8185,-316.9806 76.5494,-316.1899 75.3323,-315.3735 74.1721,-314.5336 73.0742,-313.6724 72.0436,-312.7923 71.0858,-311.8958 70.2062,-310.9852 69.41,-310.0631 68.7025,-309.132 68.089,-308.1945 67.5742,-307.2531 67.1632,-306.3104 66.8602,-305.369 66.6696,-304.4315 66.5951,-303.5004 66.6402,-302.5783 66.8079,-301.6677 67.1005,-300.7712 67.52,-299.8911 68.0679,-299.0299 68.7448,-298.1899 69.5508,-297.3735 70.4855,-296.5829 71.5477,-295.8203 72.7355,-295.0877 74.0463,-294.3871 75.4769,-293.7205 77.0234,-293.0897 78.6812,-292.4965 80.445,-291.9424 82.309,-291.429 84.2667,-290.9576 86.311,-290.5296 88.4343,-290.1462 90.6286,-289.8084 92.8854,-289.5171 95.1956,-289.2731 97.5502,-289.0771 99.9394,-288.9296 102.3536,-288.8311 104.7829,-288.7817 107.2171,-288.7817 109.6464,-288.8311"/>
<text text-anchor="middle" x="106" y="-303.0817" font-family="Times,serif" font-size="14.00" fill="#000000">GitHub</text>
</a>
</g>
</g>
<!-- github&#45;&gt;netlify_ci -->
<g id="edge12" class="edge">
<title>github&#45;&gt;netlify_ci</title>
<path fill="none" stroke="#000000" d="M106,-324.9435C106,-367.6258 106,-477.657 106,-569.5965 106,-1244.329 106,-1244.329 106,-1244.329 106,-1272.2131 268.4758,-1294.3489 379.2483,-1306.2003"/>
<polygon fill="#000000" stroke="#000000" points="379.1525,-1309.7096 389.465,-1307.2801 379.8883,-1302.7484 379.1525,-1309.7096"/>
<text text-anchor="middle" x="166" y="-1032.629" font-family="Times,serif" font-size="14.00" fill="#000000">Repo contents pushed</text>
<text text-anchor="middle" x="166" y="-1017.629" font-family="Times,serif" font-size="14.00" fill="#000000">on commit</text>
</g>
<!-- jekyll -->
<g id="node22" class="node">
<title>jekyll</title>
<g id="a_node22"><a xlink:href="https://roamresearch.com/#/app/ArtOfGig/page/fF35dWNYl" xlink:title="Jekyll">
<polygon fill="none" stroke="#0000ff" points="507,-1199.829 453,-1199.829 453,-1163.829 507,-1163.829 507,-1199.829"/>
<text text-anchor="middle" x="480" y="-1178.129" font-family="Times,serif" font-size="14.00" fill="#000000">Jekyll</text>
</a>
</g>
</g>
<!-- netlify_ci&#45;&gt;jekyll -->
<g id="edge14" class="edge">
<title>netlify_ci&#45;&gt;jekyll</title>
<path fill="none" stroke="#000000" d="M480,-1288.9376C480,-1266.145 480,-1233.4926 480,-1210.242"/>
<polygon fill="#000000" stroke="#000000" points="483.5001,-1209.9792 480,-1199.9793 476.5001,-1209.9793 483.5001,-1209.9792"/>
<text text-anchor="middle" x="518" y="-1240.629" font-family="Times,serif" font-size="14.00" fill="#000000">Build website</text>
</g>
<!-- netlify_cdn -->
<g id="node23" class="node">
<title>netlify_cdn</title>
<g id="a_node23"><a xlink:href="https://roamresearch.com/#/app/ArtOfGig/page/R-E2CDAe2" xlink:title="Netlify\nCDN">
<polygon fill="none" stroke="#0000ff" points="483.8248,-900.0895 486.3571,-900.236 488.8633,-900.4552 491.333,-900.7466 493.7563,-901.1093 496.1234,-901.5424 498.4251,-902.0446 500.6523,-902.6146 502.7967,-903.2508 504.8501,-903.9515 506.8053,-904.7148 508.6555,-905.5385 510.3944,-906.4205 512.0165,-907.3582 513.5171,-908.3492 514.8921,-909.3906 516.1379,-910.4797 517.2521,-911.6135 518.2325,-912.7888 519.078,-914.0025 519.788,-915.2512 520.3627,-916.5315 520.8027,-917.8398 521.1097,-919.1726 521.2855,-920.5263 521.3328,-921.8971 521.2547,-923.2813 521.0548,-924.675 520.737,-926.0745 520.3058,-927.4759 519.7659,-928.8754 519.1223,-930.2692 518.3802,-931.6533 517.5451,-933.0241 516.6224,-934.3778 515.6178,-935.7106 514.5368,-937.019 513.3851,-938.2992 512.1682,-939.5479 510.8915,-940.7616 509.5603,-941.9369 508.1797,-943.0707 506.7545,-944.1598 505.2894,-945.2013 503.7888,-946.1922 502.2568,-947.13 500.6972,-948.0119 499.1135,-948.8356 497.5091,-949.5989 495.8869,-950.2996 494.2494,-950.9358 492.5993,-951.5059 490.9385,-952.0081 489.269,-952.4411 487.5926,-952.8039 485.9107,-953.0952 484.2247,-953.3145 482.5359,-953.4609 480.8455,-953.5343 479.1545,-953.5343 477.4641,-953.4609 475.7753,-953.3145 474.0893,-953.0952 472.4074,-952.8039 470.731,-952.4411 469.0615,-952.0081 467.4007,-951.5059 465.7506,-950.9358 464.1131,-950.2996 462.4909,-949.5989 460.8865,-948.8356 459.3028,-948.0119 457.7432,-947.13 456.2112,-946.1922 454.7106,-945.2013 453.2455,-944.1598 451.8203,-943.0707 450.4397,-941.9369 449.1085,-940.7616 447.8318,-939.5479 446.6149,-938.2992 445.4632,-937.019 444.3822,-935.7106 443.3776,-934.3778 442.4549,-933.0241 441.6198,-931.6533 440.8777,-930.2692 440.2341,-928.8754 439.6942,-927.4759 439.263,-926.0745 438.9452,-924.675 438.7453,-923.2813 438.6672,-921.8971 438.7145,-920.5263 438.8903,-919.1726 439.1973,-917.8398 439.6373,-916.5315 440.212,-915.2512 440.922,-914.0025 441.7675,-912.7888 442.7479,-911.6135 443.8621,-910.4797 445.1079,-909.3906 446.4829,-908.3492 447.9835,-907.3582 449.6056,-906.4205 451.3445,-905.5385 453.1947,-904.7148 455.1499,-903.9515 457.2033,-903.2508 459.3477,-902.6146 461.5749,-902.0446 463.8766,-901.5424 466.2437,-901.1093 468.667,-900.7466 471.1367,-900.4552 473.6429,-900.236 476.1752,-900.0895 478.7233,-900.0161 481.2767,-900.0161 483.8248,-900.0895"/>
<text text-anchor="middle" x="480" y="-930.5752" font-family="Times,serif" font-size="14.00" fill="#000000">Netlify</text>
<text text-anchor="middle" x="480" y="-915.5752" font-family="Times,serif" font-size="14.00" fill="#000000">CDN</text>
</a>
</g>
</g>
<!-- jekyll&#45;&gt;netlify_cdn -->
<g id="edge15" class="edge">
<title>jekyll&#45;&gt;netlify_cdn</title>
<path fill="none" stroke="#000000" d="M480,-1163.4862C480,-1121.8515 480,-1019.5233 480,-964.0229"/>
<polygon fill="#000000" stroke="#000000" points="483.5001,-963.9043 480,-953.9043 476.5001,-963.9044 483.5001,-963.9043"/>
<text text-anchor="middle" x="533.5" y="-1083.629" font-family="Times,serif" font-size="14.00" fill="#000000">Optimize &amp; deploy</text>
<text text-anchor="middle" x="533.5" y="-1068.629" font-family="Times,serif" font-size="14.00" fill="#000000">website files</text>
</g>
<!-- website -->
<g id="node24" class="node">
<title>website</title>
<g id="a_node24"><a xlink:href="https://roamresearch.com/#/app/ArtOfGig/page/h0Wx539Oq" xlink:title="Yak Collective\nWebsite">
<ellipse fill="none" stroke="#00ff00" cx="526" cy="-569.5965" rx="69.1046" ry="69.1046"/>
<ellipse fill="none" stroke="#00ff00" cx="526" cy="-569.5965" rx="73.0935" ry="73.0935"/>
<text text-anchor="middle" x="526" y="-573.3965" font-family="Times,serif" font-size="14.00" fill="#000000">Yak Collective</text>
<text text-anchor="middle" x="526" y="-558.3965" font-family="Times,serif" font-size="14.00" fill="#000000">Website</text>
</a>
</g>
</g>
<!-- netlify_cdn&#45;&gt;website -->
<g id="edge17" class="edge">
<title>netlify_cdn&#45;&gt;website</title>
<path fill="none" stroke="#000000" d="M483.4575,-899.9288C490.1399,-848.0415 505.0736,-732.0851 515.3428,-652.3472"/>
<polygon fill="#000000" stroke="#000000" points="518.8277,-652.6878 516.6338,-642.3226 511.8851,-651.7936 518.8277,-652.6878"/>
<text text-anchor="middle" x="550.5" y="-755.5214" font-family="Times,serif" font-size="14.00" fill="#000000">Push to Amazon</text>
<text text-anchor="middle" x="550.5" y="-740.5214" font-family="Times,serif" font-size="14.00" fill="#000000">Cloudfront</text>
</g>
<!-- featured_yak -->
<g id="node25" class="node">
<title>featured_yak</title>
<g id="a_node25"><a xlink:href="https://roamresearch.com/#/app/ArtOfGig/page/ZzuH6YDFq" xlink:title="&quot;Featured Yak&quot;\nRSS Feed">
<ellipse fill="none" stroke="#00ff00" cx="693" cy="-569.5965" rx="72.2434" ry="72.2434"/>
<ellipse fill="none" stroke="#00ff00" cx="693" cy="-569.5965" rx="76.25" ry="76.25"/>
<text text-anchor="middle" x="693" y="-573.3965" font-family="Times,serif" font-size="14.00" fill="#000000">&quot;Featured Yak&quot;</text>
<text text-anchor="middle" x="693" y="-558.3965" font-family="Times,serif" font-size="14.00" fill="#000000">RSS Feed</text>
</a>
</g>
</g>
<!-- netlify_cdn&#45;&gt;featured_yak -->
<g id="edge18" class="edge">
<title>netlify_cdn&#45;&gt;featured_yak</title>
<path fill="none" stroke="#000000" d="M506.9587,-904.2747C533.5515,-880.9125 573.902,-842.1773 600,-801.7214 629.716,-755.657 652.7432,-698.562 668.4506,-652.5244"/>
<polygon fill="#000000" stroke="#000000" points="671.825,-653.4703 671.691,-642.8763 665.1893,-651.2416 671.825,-653.4703"/>
<text text-anchor="middle" x="684.5" y="-755.5214" font-family="Times,serif" font-size="14.00" fill="#000000">Push to Amazon</text>
<text text-anchor="middle" x="684.5" y="-740.5214" font-family="Times,serif" font-size="14.00" fill="#000000">Cloudfront</text>
</g>
<!-- netlify_cdn&#45;&gt;create_post -->
<g id="edge19" class="edge">
<title>netlify_cdn&#45;&gt;create_post</title>
<path fill="none" stroke="#000000" d="M458.7127,-902.403C439.215,-878.5257 411.4124,-840.2117 398,-801.7214 373.5216,-731.4743 373.3707,-642.4106 375.2304,-597.7833"/>
<polygon fill="#000000" stroke="#000000" points="378.7314,-597.8437 375.7189,-587.6862 371.7396,-597.5053 378.7314,-597.8437"/>
<text text-anchor="middle" x="445" y="-755.5214" font-family="Times,serif" font-size="14.00" fill="#000000">Create Amazon</text>
<text text-anchor="middle" x="445" y="-740.5214" font-family="Times,serif" font-size="14.00" fill="#000000">Lambda function</text>
</g>
<!-- website&#45;&gt;registration_form -->
<g id="edge5" class="edge">
<title>website&#45;&gt;registration_form</title>
<path fill="none" stroke="#ff0000" d="M476.3719,-515.2791C464.83,-502.7943 452.5415,-489.6196 441,-477.4716 421.3008,-456.7372 413.2865,-454.2565 396,-431.4716 382.0462,-413.0794 368.7896,-391.7293 357.5432,-371.9492"/>
<polygon fill="#ff0000" stroke="#ff0000" points="360.4636,-370.0009 352.5222,-362.9877 354.3569,-373.4225 360.4636,-370.0009"/>
<text text-anchor="middle" x="473" y="-458.2716" font-family="Times,serif" font-size="14.00" fill="#000000">Sign up form</text>
<text text-anchor="middle" x="473" y="-443.2716" font-family="Times,serif" font-size="14.00" fill="#000000">(minimal data)</text>
</g>
<!-- website&#45;&gt;google_analytics -->
<g id="edge1" class="edge">
<title>website&#45;&gt;google_analytics</title>
<path fill="none" stroke="#000000" d="M539.1797,-497.4336C548.3005,-447.4945 560.0582,-383.1175 567.3101,-343.4111"/>
<polygon fill="#000000" stroke="#000000" points="570.7875,-343.8514 569.1412,-333.3853 563.9014,-342.5937 570.7875,-343.8514"/>
<text text-anchor="middle" x="593" y="-450.7716" font-family="Times,serif" font-size="14.00" fill="#000000">Visitor analytics</text>
</g>
<!-- website&#45;&gt;reboot_deck -->
<g id="edge2" class="edge">
<title>website&#45;&gt;reboot_deck</title>
<path fill="none" stroke="#ff0000" d="M569.4323,-509.8379C580.7738,-497.6064 593.8358,-485.9099 608,-477.4716 621.3365,-469.5265 629.7847,-479.0515 642,-469.4716 666.3217,-450.3971 684.1555,-422.2598 696.9158,-394.7273"/>
<polygon fill="#ff0000" stroke="#ff0000" points="700.1861,-395.9868 701.0507,-385.4273 693.7898,-393.1429 700.1861,-395.9868"/>
<text text-anchor="middle" x="725.5" y="-450.7716" font-family="Times,serif" font-size="14.00" fill="#000000">Google Slides / PDF</text>
</g>
<!-- website&#45;&gt;home_deck -->
<g id="edge3" class="edge">
<title>website&#45;&gt;home_deck</title>
<path fill="none" stroke="#ff0000" d="M567.4882,-508.801C579.0702,-496.2965 592.7261,-484.7407 608,-477.4716 643.753,-460.4561 750.7647,-487.5347 786,-469.4716 821.1828,-451.4354 847.2284,-416.5018 865.2132,-383.6146"/>
<polygon fill="#ff0000" stroke="#ff0000" points="868.4997,-384.8861 870.073,-374.4087 862.3093,-381.6181 868.4997,-384.8861"/>
<text text-anchor="middle" x="879.5" y="-450.7716" font-family="Times,serif" font-size="14.00" fill="#000000">Google Slides / PDF</text>
</g>
<!-- featured_yak&#45;&gt;twitter_applets -->
<g id="edge27" class="edge">
<title>featured_yak&#45;&gt;twitter_applets</title>
<path fill="none" stroke="#000000" d="M760.4368,-605.2842C800.5045,-627.1146 851.9345,-656.2406 896,-684.7214 914.9633,-696.9779 918.6898,-701.5092 937,-714.7214 942.3068,-718.5506 947.9327,-722.5824 953.4481,-726.5194"/>
<polygon fill="#000000" stroke="#000000" points="951.7871,-729.6335 961.9624,-732.5855 955.8489,-723.9324 951.7871,-729.6335"/>
<text text-anchor="middle" x="964.5" y="-703.5214" font-family="Times,serif" font-size="14.00" fill="#000000">Pulled</text>
<text text-anchor="middle" x="964.5" y="-688.5214" font-family="Times,serif" font-size="14.00" fill="#000000">by IFTTT</text>
</g>
<!-- create_post&#45;&gt;discord -->
<g id="edge24" class="edge">
<title>create_post&#45;&gt;discord</title>
<path fill="none" stroke="#000000" d="M351.0591,-551.4462C319.9579,-527.9216 269.4681,-483.6716 249,-431.4716 187.6628,-275.0427 152.5399,-174.1473 270,-54 283.0141,-40.6882 393.6135,-28.3981 459.0289,-22.2046"/>
<polygon fill="#000000" stroke="#000000" points="459.486,-25.6772 469.1178,-21.2637 458.836,-18.7075 459.486,-25.6772"/>
<text text-anchor="middle" x="242.5" y="-195.8" font-family="Times,serif" font-size="14.00" fill="#000000">Post in</text>
<text text-anchor="middle" x="242.5" y="-180.8" font-family="Times,serif" font-size="14.00" fill="#000000">#yaktalk&#45;content</text>
</g>
<!-- create_post&#45;&gt;github -->
<g id="edge23" class="edge">
<title>create_post&#45;&gt;github</title>
<path fill="none" stroke="#000000" d="M338.9186,-564.5508C285.8988,-555.4263 190.6621,-531.0372 140,-469.4716 108.3465,-431.0056 103.9231,-370.4319 104.3986,-335.0622"/>
<polygon fill="#000000" stroke="#000000" points="107.9005,-335.04 104.6788,-324.9469 100.9032,-334.8461 107.9005,-335.04"/>
<text text-anchor="middle" x="176.5" y="-458.2716" font-family="Times,serif" font-size="14.00" fill="#000000">Commit new</text>
<text text-anchor="middle" x="176.5" y="-443.2716" font-family="Times,serif" font-size="14.00" fill="#000000">member post</text>
</g>
<!-- namecheap -->
<g id="node27" class="node">
<title>namecheap</title>
<g id="a_node27"><a xlink:href="https://roamresearch.com/#/app/ArtOfGig/page/SrB_NQUiU" xlink:title="Namecheap">
<polygon fill="none" stroke="#0000ff" points="258.1939,-1061.8784 261.6327,-1061.9769 265.0359,-1062.1244 268.3897,-1062.3204 271.6804,-1062.5644 274.8949,-1062.8557 278.0204,-1063.1935 281.0449,-1063.5769 283.9568,-1064.0049 286.7453,-1064.4763 289.4003,-1064.9897 291.9127,-1065.5438 294.2741,-1066.137 296.4769,-1066.7678 298.5146,-1067.4344 300.3817,-1068.135 302.0736,-1068.8676 303.5865,-1069.6302 304.9179,-1070.4208 306.0661,-1071.2372 307.0302,-1072.0772 307.8105,-1072.9384 308.4081,-1073.8185 308.825,-1074.715 309.0637,-1075.6256 309.128,-1076.5477 309.0219,-1077.4788 308.7504,-1078.4163 308.3189,-1079.3577 307.7333,-1080.3004 307.0002,-1081.2418 306.1262,-1082.1793 305.1185,-1083.1104 303.9844,-1084.0325 302.7314,-1084.9431 301.3672,-1085.8396 299.8993,-1086.7197 298.3354,-1087.5809 296.6829,-1088.4208 294.9492,-1089.2372 293.1415,-1090.0278 291.2666,-1090.7905 289.3313,-1091.5231 287.3418,-1092.2237 285.304,-1092.8903 283.2236,-1093.521 281.1058,-1094.1143 278.9553,-1094.6684 276.7765,-1095.1818 274.5736,-1095.6532 272.35,-1096.0811 270.1092,-1096.4646 267.8539,-1096.8024 265.5869,-1097.0937 263.3103,-1097.3377 261.0264,-1097.5337 258.737,-1097.6812 256.4437,-1097.7797 254.1481,-1097.829 251.8519,-1097.829 249.5563,-1097.7797 247.263,-1097.6812 244.9736,-1097.5337 242.6897,-1097.3377 240.4131,-1097.0937 238.1461,-1096.8024 235.8908,-1096.4646 233.65,-1096.0811 231.4264,-1095.6532 229.2235,-1095.1818 227.0447,-1094.6684 224.8942,-1094.1143 222.7764,-1093.521 220.696,-1092.8903 218.6582,-1092.2237 216.6687,-1091.5231 214.7334,-1090.7905 212.8585,-1090.0278 211.0508,-1089.2372 209.3171,-1088.4208 207.6646,-1087.5809 206.1007,-1086.7197 204.6328,-1085.8396 203.2686,-1084.9431 202.0156,-1084.0325 200.8815,-1083.1104 199.8738,-1082.1793 198.9998,-1081.2418 198.2667,-1080.3004 197.6811,-1079.3577 197.2496,-1078.4163 196.9781,-1077.4788 196.872,-1076.5477 196.9363,-1075.6256 197.175,-1074.715 197.5919,-1073.8185 198.1895,-1072.9384 198.9698,-1072.0772 199.9339,-1071.2372 201.0821,-1070.4208 202.4135,-1069.6302 203.9264,-1068.8676 205.6183,-1068.135 207.4854,-1067.4344 209.5231,-1066.7678 211.7259,-1066.137 214.0873,-1065.5438 216.5997,-1064.9897 219.2547,-1064.4763 222.0432,-1064.0049 224.9551,-1063.5769 227.9796,-1063.1935 231.1051,-1062.8557 234.3196,-1062.5644 237.6103,-1062.3204 240.9641,-1062.1244 244.3673,-1061.9769 247.8061,-1061.8784 251.2663,-1061.829 254.7337,-1061.829 258.1939,-1061.8784"/>
<text text-anchor="middle" x="253" y="-1076.129" font-family="Times,serif" font-size="14.00" fill="#000000">Namecheap</text>
</a>
</g>
</g>
<!-- namecheap&#45;&gt;netlify_cdn -->
<g id="edge16" class="edge">
<title>namecheap&#45;&gt;netlify_cdn</title>
<path fill="none" stroke="#000000" d="M277.7251,-1063.1582C318.207,-1035.8635 398.7464,-981.5601 445.052,-950.3388"/>
<polygon fill="#000000" stroke="#000000" points="447.2239,-953.0957 453.5586,-944.6032 443.3105,-947.2917 447.2239,-953.0957"/>
<text text-anchor="middle" x="394" y="-1025.129" font-family="Times,serif" font-size="14.00" fill="#000000">DNS information</text>
</g>
<!-- knack -->
<g id="node28" class="node">
<title>knack</title>
<g id="a_node28"><a xlink:href="https://roamresearch.com/#/app/ArtOfGig/page/FDjmLsCeR" xlink:title="Knack">
<polygon fill="none" stroke="#00ff00" points="1177.3298,-1297.7576 1179.5344,-1297.8562 1181.7161,-1298.0037 1183.8662,-1298.1997 1185.9759,-1298.4436 1188.0367,-1298.7349 1190.0405,-1299.0728 1191.9794,-1299.4562 1193.8462,-1299.8842 1195.6339,-1300.3555 1197.3361,-1300.869 1198.9467,-1301.4231 1200.4606,-1302.0163 1201.8728,-1302.6471 1203.1792,-1303.3137 1204.3762,-1304.0142 1205.4608,-1304.7468 1206.4308,-1305.5095 1207.2843,-1306.3001 1208.0204,-1307.1165 1208.6385,-1307.9565 1209.1387,-1308.8176 1209.5219,-1309.6977 1209.7891,-1310.5943 1209.9422,-1311.5049 1209.9833,-1312.4269 1209.9153,-1313.358 1209.7413,-1314.2956 1209.4646,-1315.237 1209.0892,-1316.1797 1208.6192,-1317.1211 1208.0589,-1318.0586 1207.4129,-1318.9897 1206.6858,-1319.9118 1205.8826,-1320.8223 1205.008,-1321.7189 1204.0669,-1322.599 1203.0643,-1323.4602 1202.0048,-1324.3001 1200.8934,-1325.1165 1199.7345,-1325.9071 1198.5325,-1326.6698 1197.2918,-1327.4024 1196.0163,-1328.1029 1194.7099,-1328.7695 1193.3762,-1329.4003 1192.0185,-1329.9936 1190.6398,-1330.5477 1189.243,-1331.0611 1187.8307,-1331.5324 1186.4052,-1331.9604 1184.9686,-1332.3438 1183.5228,-1332.6817 1182.0694,-1332.973 1180.6099,-1333.217 1179.1457,-1333.413 1177.6779,-1333.5604 1176.2077,-1333.659 1174.7361,-1333.7083 1173.2639,-1333.7083 1171.7923,-1333.659 1170.3221,-1333.5604 1168.8543,-1333.413 1167.3901,-1333.217 1165.9306,-1332.973 1164.4772,-1332.6817 1163.0314,-1332.3438 1161.5948,-1331.9604 1160.1693,-1331.5324 1158.757,-1331.0611 1157.3602,-1330.5477 1155.9815,-1329.9936 1154.6238,-1329.4003 1153.2901,-1328.7695 1151.9837,-1328.1029 1150.7082,-1327.4024 1149.4675,-1326.6698 1148.2655,-1325.9071 1147.1066,-1325.1165 1145.9952,-1324.3001 1144.9357,-1323.4602 1143.9331,-1322.599 1142.992,-1321.7189 1142.1174,-1320.8223 1141.3142,-1319.9118 1140.5871,-1318.9897 1139.9411,-1318.0586 1139.3808,-1317.1211 1138.9108,-1316.1797 1138.5354,-1315.237 1138.2587,-1314.2956 1138.0847,-1313.358 1138.0167,-1312.4269 1138.0578,-1311.5049 1138.2109,-1310.5943 1138.4781,-1309.6977 1138.8613,-1308.8176 1139.3615,-1307.9565 1139.9796,-1307.1165 1140.7157,-1306.3001 1141.5692,-1305.5095 1142.5392,-1304.7468 1143.6238,-1304.0142 1144.8208,-1303.3137 1146.1272,-1302.6471 1147.5394,-1302.0163 1149.0533,-1301.4231 1150.6639,-1300.869 1152.3661,-1300.3555 1154.1538,-1299.8842 1156.0206,-1299.4562 1157.9595,-1299.0728 1159.9633,-1298.7349 1162.0241,-1298.4436 1164.1338,-1298.1997 1166.2839,-1298.0037 1168.4656,-1297.8562 1170.6702,-1297.7576 1172.8885,-1297.7083 1175.1115,-1297.7083 1177.3298,-1297.7576"/>
<text text-anchor="middle" x="1174" y="-1312.0083" font-family="Times,serif" font-size="14.00" fill="#000000">Knack</text>
</a>
</g>
</g>
<!-- roam -->
<g id="node29" class="node">
<title>roam</title>
<g id="a_node29"><a xlink:href="https://roamresearch.com/#/app/ArtOfGig/page/FEPWC0DLJ" xlink:title="Roam">
<polygon fill="none" stroke="#00ff00" points="1266.2124,-1297.7576 1268.3393,-1297.8562 1270.4442,-1298.0037 1272.5185,-1298.1997 1274.5538,-1298.4436 1276.5419,-1298.7349 1278.4751,-1299.0728 1280.3457,-1299.4562 1282.1467,-1299.8842 1283.8714,-1300.3555 1285.5136,-1300.869 1287.0675,-1301.4231 1288.528,-1302.0163 1289.8904,-1302.6471 1291.1507,-1303.3137 1292.3056,-1304.0142 1293.352,-1304.7468 1294.2877,-1305.5095 1295.1112,-1306.3001 1295.8213,-1307.1165 1296.4176,-1307.9565 1296.9003,-1308.8176 1297.2699,-1309.6977 1297.5277,-1310.5943 1297.6754,-1311.5049 1297.7151,-1312.4269 1297.6495,-1313.358 1297.4816,-1314.2956 1297.2147,-1315.237 1296.8525,-1316.1797 1296.399,-1317.1211 1295.8585,-1318.0586 1295.2352,-1318.9897 1294.5338,-1319.9118 1293.7588,-1320.8223 1292.9151,-1321.7189 1292.0072,-1322.599 1291.0399,-1323.4602 1290.0178,-1324.3001 1288.9455,-1325.1165 1287.8275,-1325.9071 1286.6679,-1326.6698 1285.4709,-1327.4024 1284.2404,-1328.1029 1282.98,-1328.7695 1281.6933,-1329.4003 1280.3834,-1329.9936 1279.0533,-1330.5477 1277.7058,-1331.0611 1276.3432,-1331.5324 1274.968,-1331.9604 1273.582,-1332.3438 1272.1871,-1332.6817 1270.785,-1332.973 1269.3769,-1333.217 1267.9643,-1333.413 1266.5483,-1333.5604 1265.1299,-1333.659 1263.7101,-1333.7083 1262.2899,-1333.7083 1260.8701,-1333.659 1259.4517,-1333.5604 1258.0357,-1333.413 1256.6231,-1333.217 1255.215,-1332.973 1253.8129,-1332.6817 1252.418,-1332.3438 1251.032,-1331.9604 1249.6568,-1331.5324 1248.2942,-1331.0611 1246.9467,-1330.5477 1245.6166,-1329.9936 1244.3067,-1329.4003 1243.02,-1328.7695 1241.7596,-1328.1029 1240.5291,-1327.4024 1239.3321,-1326.6698 1238.1725,-1325.9071 1237.0545,-1325.1165 1235.9822,-1324.3001 1234.9601,-1323.4602 1233.9928,-1322.599 1233.0849,-1321.7189 1232.2412,-1320.8223 1231.4662,-1319.9118 1230.7648,-1318.9897 1230.1415,-1318.0586 1229.601,-1317.1211 1229.1475,-1316.1797 1228.7853,-1315.237 1228.5184,-1314.2956 1228.3505,-1313.358 1228.2849,-1312.4269 1228.3246,-1311.5049 1228.4723,-1310.5943 1228.7301,-1309.6977 1229.0997,-1308.8176 1229.5824,-1307.9565 1230.1787,-1307.1165 1230.8888,-1306.3001 1231.7123,-1305.5095 1232.648,-1304.7468 1233.6944,-1304.0142 1234.8493,-1303.3137 1236.1096,-1302.6471 1237.472,-1302.0163 1238.9325,-1301.4231 1240.4864,-1300.869 1242.1286,-1300.3555 1243.8533,-1299.8842 1245.6543,-1299.4562 1247.5249,-1299.0728 1249.4581,-1298.7349 1251.4462,-1298.4436 1253.4815,-1298.1997 1255.5558,-1298.0037 1257.6607,-1297.8562 1259.7876,-1297.7576 1261.9277,-1297.7083 1264.0723,-1297.7083 1266.2124,-1297.7576"/>
<text text-anchor="middle" x="1263" y="-1312.0083" font-family="Times,serif" font-size="14.00" fill="#000000">Roam</text>
</a>
</g>
</g>
<!-- visitor -->
<g id="node30" class="node">
<title>visitor</title>
</g>
<!-- visitor&#45;&gt;website -->
<g id="edge4" class="edge">
<title>visitor&#45;&gt;website</title>
<path fill="none" stroke="#ff0000" d="M815.6063,-733.4455C810.7434,-717.5966 801.212,-695.5505 784,-684.7214 750.8617,-663.8721 642.701,-694.851 608,-676.7214 592.3822,-668.5618 578.8619,-655.946 567.5551,-642.198"/>
<polygon fill="#ff0000" stroke="#ff0000" points="570.0665,-639.7271 561.1545,-633.9976 564.5484,-644.0342 570.0665,-639.7271"/>
<text text-anchor="middle" x="850" y="-696.0214" font-family="Times,serif" font-size="14.00" fill="#000000">Website visitor</text>
</g>
<!-- developer -->
<g id="node31" class="node">
<title>developer</title>
</g>
<!-- developer&#45;&gt;github -->
<g id="edge11" class="edge">
<title>developer&#45;&gt;github</title>
<path fill="none" stroke="#ff0000" d="M24.2394,-551.5127C20.9908,-526.0019 17.291,-478.2329 28,-439.4716 39.3802,-398.2808 66.9811,-356.772 86.0957,-331.4169"/>
<polygon fill="#ff0000" stroke="#ff0000" points="88.8927,-333.5212 92.217,-323.4613 83.3449,-329.2525 88.8927,-333.5212"/>
<text text-anchor="middle" x="60" y="-450.7716" font-family="Times,serif" font-size="14.00" fill="#000000">Git commit</text>
</g>
</g>
</svg>
