<?xml version="1.0" encoding="UTF-8" standalone="no"?>
<!DOCTYPE svg PUBLIC "-//W3C//DTD SVG 1.1//EN"
 "http://www.w3.org/Graphics/SVG/1.1/DTD/svg11.dtd">
<!-- Generated by graphviz version 2.43.0 (0)
 -->
<!-- Title: yak_infrastructure Pages: 1 -->
<svg width="1898pt" height="1581pt"
 viewBox="0.00 0.00 1898.00 1580.52" xmlns="http://www.w3.org/2000/svg" xmlns:xlink="http://www.w3.org/1999/xlink">
<g id="graph0" class="graph" transform="scale(1 1) rotate(0) translate(4 1576.52)">
<title>yak_infrastructure</title>
<polygon fill="white" stroke="transparent" points="-4,4 -4,-1576.52 1894,-1576.52 1894,4 -4,4"/>
<text text-anchor="middle" x="945" y="-1557.32" font-family="Times,serif" font-size="14.00">Yak Collective IT Infrastructure</text>
<g id="clust1" class="cluster">
<title>cluster_google</title>
<polygon fill="none" stroke="gray" points="318,-418.61 318,-682.35 1016,-682.35 1016,-418.61 318,-418.61"/>
<text text-anchor="middle" x="667" y="-667.15" font-family="Times,serif" font-size="14.00">Google</text>
</g>
<g id="clust2" class="cluster">
<title>cluster_robot</title>
<polygon fill="none" stroke="gray" points="326,-458.2 326,-642.76 606,-642.76 606,-458.2 326,-458.2"/>
<text text-anchor="middle" x="466" y="-627.56" font-family="Times,serif" font-size="14.00">Yak Collective Robot</text>
</g>
<g id="clust3" class="cluster">
<title>cluster_mirror</title>
<polygon fill="none" stroke="gray" points="8,-408 8,-692.96 246,-692.96 246,-408 8,-408"/>
<text text-anchor="middle" x="127" y="-677.76" font-family="Times,serif" font-size="14.00">Mirror.xyz</text>
</g>
<g id="clust4" class="cluster">
<title>cluster_rovers</title>
<polygon fill="none" stroke="gray" points="1178,-230 1178,-330 1494,-330 1494,-230 1178,-230"/>
<text text-anchor="middle" x="1336" y="-314.8" font-family="Times,serif" font-size="14.00">Yak Rovers</text>
</g>
<g id="clust5" class="cluster">
<title>cluster_twitter</title>
<polygon fill="none" stroke="gray" points="1252,-79 1252,-177 1522,-177 1522,-79 1252,-79"/>
<text text-anchor="middle" x="1387" y="-161.8" font-family="Times,serif" font-size="14.00">Twitter</text>
</g>
<g id="clust6" class="cluster">
<title>cluster_vultr</title>
<polygon fill="none" stroke="gray" points="271,-223 271,-360 796,-360 796,-223 271,-223"/>
<text text-anchor="middle" x="533.5" y="-344.8" font-family="Times,serif" font-size="14.00">Vultr</text>
</g>
<g id="clust7" class="cluster">
<title>cluster_vultr_unused</title>
<polygon fill="none" stroke="gray" points="698,-231 698,-329 788,-329 788,-231 698,-231"/>
<text text-anchor="middle" x="743" y="-313.8" font-family="Times,serif" font-size="14.00">Unused</text>
</g>
<g id="clust8" class="cluster">
<title>cluster_unused</title>
<polygon fill="none" stroke="gray" points="839,-1434.64 839,-1532.64 1592,-1532.64 1592,-1434.64 839,-1434.64"/>
<text text-anchor="middle" x="1215.5" y="-1517.44" font-family="Times,serif" font-size="14.00">Unused</text>
</g>
<g id="clust9" class="cluster">
<title>cluster_ifttt</title>
<polygon fill="none" stroke="gray" points="1329,-1048.2 1329,-1148.2 1655,-1148.2 1655,-1048.2 1329,-1048.2"/>
<text text-anchor="middle" x="1492" y="-1133" font-family="Times,serif" font-size="14.00">IFTTT</text>
</g>
<g id="clust10" class="cluster">
<title>cluster_netlify</title>
<polygon fill="none" stroke="gray" points="221,-738.96 221,-1541.52 769,-1541.52 769,-738.96 221,-738.96"/>
<text text-anchor="middle" x="495" y="-1526.32" font-family="Times,serif" font-size="14.00">Netlify</text>
</g>
<g id="clust11" class="cluster">
<title>cluster_cloudfront</title>
<polygon fill="none" stroke="gray" points="229,-746.96 229,-992.32 619,-992.32 619,-746.96 229,-746.96"/>
<text text-anchor="middle" x="424" y="-977.12" font-family="Times,serif" font-size="14.00">Amazon Cloudfront</text>
</g>
<g id="clust12" class="cluster">
<title>cluster_lambda</title>
<polygon fill="none" stroke="gray" points="627,-820.64 627,-918.64 761,-918.64 761,-820.64 627,-820.64"/>
<text text-anchor="middle" x="694" y="-903.44" font-family="Times,serif" font-size="14.00">Amazon Lambda</text>
</g>
<!-- google_analytics -->
<g id="node1" class="node">
<title>google_analytics</title>
<g id="a_node1"><a xlink:href="https://roamresearch.com/#/app/ArtOfGig/page/gkim0kNQ8" xlink:title="Google\nAnalytics">
<polygon fill="none" stroke="blue" points="541.74,-500.79 545.54,-500.94 549.29,-501.16 553,-501.45 556.63,-501.81 560.18,-502.25 563.64,-502.75 566.98,-503.32 570.19,-503.96 573.27,-504.66 576.21,-505.42 578.98,-506.24 581.59,-507.13 584.02,-508.06 586.27,-509.05 588.34,-510.1 590.2,-511.18 591.88,-512.32 593.35,-513.49 594.61,-514.71 595.68,-515.96 596.54,-517.24 597.2,-518.54 597.66,-519.88 597.93,-521.23 598,-522.6 597.88,-523.99 597.58,-525.38 597.1,-526.78 596.46,-528.18 595.65,-529.58 594.68,-530.97 593.57,-532.36 592.32,-533.73 590.93,-535.08 589.42,-536.42 587.8,-537.72 586.08,-539 584.25,-540.25 582.34,-541.47 580.34,-542.64 578.27,-543.78 576.13,-544.86 573.93,-545.91 571.68,-546.9 569.38,-547.83 567.04,-548.72 564.67,-549.54 562.26,-550.3 559.83,-551 557.37,-551.64 554.9,-552.21 552.41,-552.71 549.9,-553.15 547.39,-553.51 544.87,-553.8 542.34,-554.02 539.8,-554.17 537.27,-554.24 534.73,-554.24 532.2,-554.17 529.66,-554.02 527.13,-553.8 524.61,-553.51 522.1,-553.15 519.59,-552.71 517.1,-552.21 514.63,-551.64 512.17,-551 509.74,-550.3 507.33,-549.54 504.96,-548.72 502.62,-547.83 500.32,-546.9 498.07,-545.91 495.87,-544.86 493.73,-543.78 491.66,-542.64 489.66,-541.47 487.75,-540.25 485.92,-539 484.2,-537.72 482.58,-536.42 481.07,-535.08 479.68,-533.73 478.43,-532.36 477.32,-530.97 476.35,-529.58 475.54,-528.18 474.9,-526.78 474.42,-525.38 474.12,-523.99 474,-522.6 474.07,-521.23 474.34,-519.88 474.8,-518.54 475.46,-517.24 476.32,-515.96 477.39,-514.71 478.65,-513.49 480.12,-512.32 481.8,-511.18 483.66,-510.1 485.73,-509.05 487.98,-508.06 490.41,-507.13 493.02,-506.24 495.79,-505.42 498.73,-504.66 501.81,-503.96 505.02,-503.32 508.36,-502.75 511.82,-502.25 515.37,-501.81 519,-501.45 522.71,-501.16 526.46,-500.94 530.26,-500.79 534.09,-500.72 537.91,-500.72 541.74,-500.79"/>
<text text-anchor="middle" x="536" y="-531.28" font-family="Times,serif" font-size="14.00">Google</text>
<text text-anchor="middle" x="536" y="-516.28" font-family="Times,serif" font-size="14.00">Analytics</text>
</a>
</g>
</g>
<!-- google_calendar -->
<g id="node2" class="node">
<title>google_calendar</title>
<g id="a_node2"><a xlink:href="https://roamresearch.com/#/app/ArtOfGig/page/5JAKKBvdi" xlink:title="Google\nCalendar">
<ellipse fill="none" stroke="green" cx="395" cy="-527.48" rx="57.07" ry="57.07"/>
<ellipse fill="none" stroke="green" cx="395" cy="-527.48" rx="61.05" ry="61.05"/>
<text text-anchor="middle" x="395" y="-531.28" font-family="Times,serif" font-size="14.00">Google</text>
<text text-anchor="middle" x="395" y="-516.28" font-family="Times,serif" font-size="14.00">Calendar</text>
</a>
</g>
</g>
<!-- yak_scraper -->
<g id="node13" class="node">
<title>yak_scraper</title>
<g id="a_node13"><a xlink:href="https://roamresearch.com/#/app/ArtOfGig/page/AaFxsbkdW" xlink:title="Shepherd / \nyak_scraper">
<polygon fill="none" stroke="blue" points="688,-276 586,-276 586,-238 688,-238 688,-276"/>
<text text-anchor="middle" x="637" y="-260.8" font-family="Times,serif" font-size="14.00">Shepherd / </text>
<text text-anchor="middle" x="637" y="-245.8" font-family="Times,serif" font-size="14.00">yak_scraper</text>
</a>
</g>
</g>
<!-- google_calendar&#45;&gt;yak_scraper -->
<g id="edge49" class="edge">
<title>google_calendar&#45;&gt;yak_scraper</title>
<path fill="none" stroke="black" d="M418.54,-470.85C429.99,-449 445.53,-425.11 465,-408 505.68,-372.25 536.36,-395.79 577,-360 600.1,-339.66 616.71,-308.19 626.52,-285.58"/>
<polygon fill="black" stroke="black" points="629.82,-286.77 630.43,-276.2 623.35,-284.08 629.82,-286.77"/>
<text text-anchor="middle" x="624.5" y="-386.8" font-family="Times,serif" font-size="14.00">Google Calendar</text>
<text text-anchor="middle" x="624.5" y="-371.8" font-family="Times,serif" font-size="14.00">API</text>
</g>
<!-- reboot_deck -->
<g id="node3" class="node">
<title>reboot_deck</title>
<g id="a_node3"><a xlink:href="https://docs.google.com/presentation/d/1OfBuSq4SImE1Gq2EaAGCAlkwC8LZRCWx-7O_VOHJ5TI/edit" xlink:title="&quot;Don&#39;t Waste the\nReboot&quot; deck">
<ellipse fill="none" stroke="green" cx="907" cy="-527.48" rx="96.75" ry="96.75"/>
<ellipse fill="none" stroke="green" cx="907" cy="-527.48" rx="100.75" ry="100.75"/>
<text text-anchor="middle" x="907" y="-531.28" font-family="Times,serif" font-size="14.00">&quot;Don&#39;t Waste the</text>
<text text-anchor="middle" x="907" y="-516.28" font-family="Times,serif" font-size="14.00">Reboot&quot; deck</text>
</a>
</g>
</g>
<!-- home_deck -->
<g id="node4" class="node">
<title>home_deck</title>
<g id="a_node4"><a xlink:href="https://docs.google.com/presentation/d/1Bgs4e6YIEydMot0VM4lf-onZM2z6Zei3n87f3JHCeSk/edit" xlink:title="&quot;The New Old\nHome&quot; deck">
<ellipse fill="none" stroke="green" cx="702" cy="-527.48" rx="82.05" ry="82.05"/>
<ellipse fill="none" stroke="green" cx="702" cy="-527.48" rx="86.05" ry="86.05"/>
<text text-anchor="middle" x="702" y="-531.28" font-family="Times,serif" font-size="14.00">&quot;The New Old</text>
<text text-anchor="middle" x="702" y="-516.28" font-family="Times,serif" font-size="14.00">Home&quot; deck</text>
</a>
</g>
</g>
<!-- ogs_paper -->
<g id="node5" class="node">
<title>ogs_paper</title>
<ellipse fill="none" stroke="green" cx="127" cy="-527.48" rx="107.46" ry="107.46"/>
<ellipse fill="none" stroke="green" cx="127" cy="-527.48" rx="111.46" ry="111.46"/>
<text text-anchor="middle" x="127" y="-531.28" font-family="Times,serif" font-size="14.00">The Art of</text>
<text text-anchor="middle" x="127" y="-516.28" font-family="Times,serif" font-size="14.00">Online Governance</text>
</g>
<!-- iamz1 -->
<g id="node6" class="node">
<title>iamz1</title>
<g id="a_node6"><a xlink:href="https://roamresearch.com/#/app/ArtOfGig/page/UJJ21SsLC" xlink:title="IamZ1">
<polygon fill="none" stroke="blue" points="1352,-275 1290,-275 1290,-239 1352,-239 1352,-275"/>
<text text-anchor="middle" x="1321" y="-253.3" font-family="Times,serif" font-size="14.00">IamZ1</text>
</a>
</g>
</g>
<!-- discord -->
<g id="node19" class="node">
<title>discord</title>
<g id="a_node19"><a xlink:href="https://roamresearch.com/#/app/ArtOfGig/page/AsI1N4yGZ" xlink:title="Discord">
<polygon fill="none" stroke="green" points="717.56,-87.05 720.58,-87.15 723.57,-87.3 726.51,-87.49 729.4,-87.74 732.23,-88.03 734.97,-88.36 737.63,-88.75 740.18,-89.18 742.63,-89.65 744.96,-90.16 747.17,-90.71 749.24,-91.31 751.18,-91.94 752.97,-92.61 754.61,-93.31 756.09,-94.04 757.42,-94.8 758.59,-95.59 759.6,-96.41 760.44,-97.25 761.13,-98.11 761.65,-98.99 762.02,-99.89 762.23,-100.8 762.29,-101.72 762.19,-102.65 761.95,-103.59 761.57,-104.53 761.06,-105.47 760.42,-106.41 759.65,-107.35 758.76,-108.28 757.77,-109.2 756.67,-110.11 755.47,-111.01 754.18,-111.89 752.81,-112.75 751.36,-113.59 749.84,-114.41 748.25,-115.2 746.6,-115.96 744.9,-116.69 743.16,-117.39 741.37,-118.06 739.54,-118.69 737.68,-119.29 735.79,-119.84 733.88,-120.35 731.94,-120.82 729.99,-121.25 728.02,-121.64 726.04,-121.97 724.05,-122.26 722.05,-122.51 720.05,-122.7 718.04,-122.85 716.02,-122.95 714.01,-123 711.99,-123 709.98,-122.95 707.96,-122.85 705.95,-122.7 703.95,-122.51 701.95,-122.26 699.96,-121.97 697.98,-121.64 696.01,-121.25 694.06,-120.82 692.12,-120.35 690.21,-119.84 688.32,-119.29 686.46,-118.69 684.63,-118.06 682.84,-117.39 681.1,-116.69 679.4,-115.96 677.75,-115.2 676.16,-114.41 674.64,-113.59 673.19,-112.75 671.82,-111.89 670.53,-111.01 669.33,-110.11 668.23,-109.2 667.24,-108.28 666.35,-107.35 665.58,-106.41 664.94,-105.47 664.43,-104.53 664.05,-103.59 663.81,-102.65 663.71,-101.72 663.77,-100.8 663.98,-99.89 664.35,-98.99 664.87,-98.11 665.56,-97.25 666.4,-96.41 667.41,-95.59 668.58,-94.8 669.91,-94.04 671.39,-93.31 673.03,-92.61 674.82,-91.94 676.76,-91.31 678.83,-90.71 681.04,-90.16 683.37,-89.65 685.82,-89.18 688.37,-88.75 691.03,-88.36 693.77,-88.03 696.6,-87.74 699.49,-87.49 702.43,-87.3 705.42,-87.15 708.44,-87.05 711.48,-87 714.52,-87 717.56,-87.05"/>
<text text-anchor="middle" x="713" y="-101.3" font-family="Times,serif" font-size="14.00">Discord</text>
</a>
</g>
</g>
<!-- iamz1&#45;&gt;discord -->
<g id="edge23" class="edge">
<title>iamz1&#45;&gt;discord</title>
<path fill="none" stroke="red" d="M1321.97,-238.96C1321.89,-222.62 1318.96,-198.5 1304,-185 1302.74,-183.87 908.77,-131.82 764.85,-112.83"/>
<polygon fill="red" stroke="red" points="765.3,-109.36 754.93,-111.53 764.38,-116.3 765.3,-109.36"/>
<text text-anchor="middle" x="1375" y="-196.3" font-family="Times,serif" font-size="14.00">Rover response</text>
</g>
<!-- rover_twitter -->
<g id="node7" class="node">
<title>rover_twitter</title>
<g id="a_node7"><a xlink:href="https://roamresearch.com/#/app/ArtOfGig/page/SIgMI9pV7" xlink:title="Rover&#45;Twitter">
<polygon fill="none" stroke="blue" points="1486,-275 1370,-275 1370,-239 1486,-239 1486,-275"/>
<text text-anchor="middle" x="1428" y="-253.3" font-family="Times,serif" font-size="14.00">Rover&#45;Twitter</text>
</a>
</g>
</g>
<!-- yak_rovers_twitter -->
<g id="node10" class="node">
<title>yak_rovers_twitter</title>
<g id="a_node10"><a xlink:href="https://twitter.com/RoversYak" xlink:title="@RoversYak">
<polygon fill="none" stroke="blue" points="1513.5,-123 1408.5,-123 1408.5,-87 1513.5,-87 1513.5,-123"/>
<text text-anchor="middle" x="1461" y="-101.3" font-family="Times,serif" font-size="14.00">@RoversYak</text>
</a>
</g>
</g>
<!-- rover_twitter&#45;&gt;yak_rovers_twitter -->
<g id="edge24" class="edge">
<title>rover_twitter&#45;&gt;yak_rovers_twitter</title>
<path fill="none" stroke="black" d="M1432.84,-238.91C1434.86,-231.57 1437.15,-222.89 1439,-215 1445.52,-187.22 1451.85,-155.18 1456.03,-133.06"/>
<polygon fill="black" stroke="black" points="1459.5,-133.54 1457.9,-123.06 1452.62,-132.25 1459.5,-133.54"/>
<text text-anchor="middle" x="1490.5" y="-196.3" font-family="Times,serif" font-size="14.00">Rover status</text>
</g>
<!-- pagekite_backend -->
<g id="node8" class="node">
<title>pagekite_backend</title>
<g id="a_node8"><a xlink:href="https://roamresearch.com/#/app/ArtOfGig/page/rQBs_dFEE" xlink:title="Pagekite\n(backend)">
<polygon fill="none" stroke="blue" points="1272,-276 1186,-276 1186,-238 1272,-238 1272,-276"/>
<text text-anchor="middle" x="1229" y="-260.8" font-family="Times,serif" font-size="14.00">Pagekite</text>
<text text-anchor="middle" x="1229" y="-245.8" font-family="Times,serif" font-size="14.00">(backend)</text>
</a>
</g>
</g>
<!-- pagekite_frontend -->
<g id="node14" class="node">
<title>pagekite_frontend</title>
<g id="a_node14"><a xlink:href="https://roamresearch.com/#/app/ArtOfGig/page/6BNamvVZb" xlink:title="Pagekite\n(frontend)">
<polygon fill="none" stroke="blue" points="367.5,-276 278.5,-276 278.5,-238 367.5,-238 367.5,-276"/>
<text text-anchor="middle" x="323" y="-260.8" font-family="Times,serif" font-size="14.00">Pagekite</text>
<text text-anchor="middle" x="323" y="-245.8" font-family="Times,serif" font-size="14.00">(frontend)</text>
</a>
</g>
</g>
<!-- pagekite_backend&#45;&gt;pagekite_frontend -->
<g id="edge27" class="edge">
<title>pagekite_backend&#45;&gt;pagekite_frontend</title>
<path fill="none" stroke="red" d="M1202.92,-276.14C1165.25,-302.47 1092.38,-348.6 1022,-366 952.42,-383.2 438.13,-397.41 377,-360 350.78,-343.95 336.65,-310.56 329.5,-286.13"/>
<polygon fill="red" stroke="red" points="332.83,-285.03 326.85,-276.29 326.07,-286.85 332.83,-285.03"/>
<text text-anchor="middle" x="986" y="-386.8" font-family="Times,serif" font-size="14.00">Rover API</text>
<text text-anchor="middle" x="986" y="-371.8" font-family="Times,serif" font-size="14.00">response</text>
</g>
<!-- yc_twitter -->
<g id="node9" class="node">
<title>yc_twitter</title>
<g id="a_node9"><a xlink:href="https://twitter.com/yak_collective" xlink:title="@yak_collective">
<polygon fill="none" stroke="blue" points="1390,-123 1260,-123 1260,-87 1390,-87 1390,-123"/>
<text text-anchor="middle" x="1325" y="-101.3" font-family="Times,serif" font-size="14.00">@yak_collective</text>
</a>
</g>
</g>
<!-- gigayak -->
<g id="node11" class="node">
<title>gigayak</title>
<g id="a_node11"><a xlink:href="https://roamresearch.com/#/app/ArtOfGig/page/_1voFfg7g" xlink:title="gigayak">
<polygon fill="none" stroke="blue" points="568,-275 496,-275 496,-239 568,-239 568,-275"/>
<text text-anchor="middle" x="532" y="-253.3" font-family="Times,serif" font-size="14.00">gigayak</text>
</a>
</g>
</g>
<!-- gigayak&#45;&gt;discord -->
<g id="edge16" class="edge">
<title>gigayak&#45;&gt;discord</title>
<path fill="none" stroke="red" d="M513.84,-238.8C500.33,-223.87 486.11,-202.03 498,-185 533.56,-134.05 605.79,-115.87 656.69,-109.43"/>
<polygon fill="red" stroke="red" points="657.36,-112.88 666.89,-108.26 656.56,-105.92 657.36,-112.88"/>
<text text-anchor="middle" x="563" y="-203.8" font-family="Times,serif" font-size="14.00">Requested info or</text>
<text text-anchor="middle" x="563" y="-188.8" font-family="Times,serif" font-size="14.00">acknowledgement</text>
</g>
<!-- gigayak&#45;&gt;discord -->
<g id="edge21" class="edge">
<title>gigayak&#45;&gt;discord</title>
<path fill="none" stroke="red" d="M513.13,-238.89C505.53,-232.91 496.35,-226.76 487,-223 474.52,-217.98 435.86,-225.12 427,-215 418.22,-204.97 418.92,-195.61 427,-185 455.2,-147.96 586.15,-123.84 660.7,-112.86"/>
<polygon fill="red" stroke="red" points="661.43,-116.29 670.83,-111.4 660.43,-109.37 661.43,-116.29"/>
<text text-anchor="middle" x="458" y="-203.8" font-family="Times,serif" font-size="14.00">Build</text>
<text text-anchor="middle" x="458" y="-188.8" font-family="Times,serif" font-size="14.00">#gig&#45;list</text>
</g>
<!-- project_ui -->
<g id="node12" class="node">
<title>project_ui</title>
<g id="a_node12"><a xlink:href="https://roamresearch.com/#/app/ArtOfGig/page/6F1F3oaNT" xlink:title="Project_UI">
<polygon fill="none" stroke="blue" points="478,-275 386,-275 386,-239 478,-239 478,-275"/>
<text text-anchor="middle" x="432" y="-253.3" font-family="Times,serif" font-size="14.00">Project_UI</text>
</a>
</g>
</g>
<!-- project_ui&#45;&gt;discord -->
<g id="edge20" class="edge">
<title>project_ui&#45;&gt;discord</title>
<path fill="none" stroke="black" d="M409.41,-238.91C399.91,-232.69 388.43,-226.37 377,-223 364.42,-219.28 150.12,-224.43 141,-215 131.73,-205.41 132.24,-195.05 141,-185 174.7,-146.33 520.12,-119 657.29,-109.59"/>
<polygon fill="black" stroke="black" points="657.84,-113.06 667.58,-108.89 657.37,-106.08 657.84,-113.06"/>
<text text-anchor="middle" x="218.5" y="-203.8" font-family="Times,serif" font-size="14.00">Build</text>
<text text-anchor="middle" x="218.5" y="-188.8" font-family="Times,serif" font-size="14.00">#project&#45;notifications</text>
</g>
<!-- yak_scraper&#45;&gt;yc_twitter -->
<g id="edge18" class="edge">
<title>yak_scraper&#45;&gt;yc_twitter</title>
<path fill="none" stroke="red" d="M661.88,-237.98C671.45,-232.05 682.78,-226.17 694,-223 761.6,-203.92 941.16,-229 1010,-215 1045.59,-207.76 1051.86,-197.37 1086,-185 1144.81,-163.69 1212.58,-141.51 1260.89,-126.1"/>
<polygon fill="red" stroke="red" points="1262.13,-129.38 1270.59,-123.01 1260,-122.71 1262.13,-129.38"/>
<text text-anchor="middle" x="1123.5" y="-196.3" font-family="Times,serif" font-size="14.00">$yaktweet</text>
</g>
<!-- yak_scraper&#45;&gt;discord -->
<g id="edge17" class="edge">
<title>yak_scraper&#45;&gt;discord</title>
<path fill="none" stroke="red" d="M633.71,-237.77C631.86,-222.99 631.12,-201.9 638,-185 647.5,-161.67 667.42,-141.23 684.34,-126.99"/>
<polygon fill="red" stroke="red" points="686.78,-129.52 692.35,-120.51 682.38,-124.08 686.78,-129.52"/>
<text text-anchor="middle" x="703" y="-203.8" font-family="Times,serif" font-size="14.00">Requested info or</text>
<text text-anchor="middle" x="703" y="-188.8" font-family="Times,serif" font-size="14.00">acknowledgement</text>
</g>
<!-- yak_scraper&#45;&gt;discord -->
<g id="edge50" class="edge">
<title>yak_scraper&#45;&gt;discord</title>
<path fill="none" stroke="black" d="M662.88,-237.96C672.28,-232.25 683.24,-226.52 694,-223 709.72,-217.86 756.95,-227.31 768,-215 791.13,-189.24 762.36,-151.98 738.5,-128.38"/>
<polygon fill="black" stroke="black" points="740.65,-125.6 731,-121.23 735.82,-130.67 740.65,-125.6"/>
<text text-anchor="middle" x="842.5" y="-203.8" font-family="Times,serif" font-size="14.00">Post in</text>
<text text-anchor="middle" x="842.5" y="-188.8" font-family="Times,serif" font-size="14.00">#events&#45;this&#45;week</text>
</g>
<!-- pagekite_frontend&#45;&gt;pagekite_backend -->
<g id="edge26" class="edge">
<title>pagekite_frontend&#45;&gt;pagekite_backend</title>
<path fill="none" stroke="red" d="M326.87,-276.26C332.89,-300.61 347.09,-341.57 377,-360 455.99,-408.68 702.41,-377.37 794.5,-366 934.77,-348.67 1094.84,-301.02 1175.92,-274.83"/>
<polygon fill="red" stroke="red" points="1177.46,-278.01 1185.88,-271.59 1175.29,-271.35 1177.46,-278.01"/>
<text text-anchor="middle" x="767" y="-386.8" font-family="Times,serif" font-size="14.00">Rover</text>
<text text-anchor="middle" x="767" y="-371.8" font-family="Times,serif" font-size="14.00">API call</text>
</g>
<!-- yakdate -->
<g id="node15" class="node">
<title>yakdate</title>
<g id="a_node15"><a xlink:href="https://roamresearch.com/#/app/ArtOfGig/page/h8CetC_Re" xlink:title="yakdate">
<polygon fill="none" stroke="blue" points="779.5,-275 706.5,-275 706.5,-239 779.5,-239 779.5,-275"/>
<text text-anchor="middle" x="743" y="-253.3" font-family="Times,serif" font-size="14.00">yakdate</text>
</a>
</g>
</g>
<!-- carl -->
<g id="node16" class="node">
<title>carl</title>
<g id="a_node16"><a xlink:href="https://roamresearch.com/#/app/ArtOfGig/page/wfmK-RIl1" xlink:title="Carl">
<polygon fill="none" stroke="blue" points="514.01,-0.05 516.01,-0.15 517.98,-0.3 519.93,-0.49 521.84,-0.74 523.7,-1.03 525.52,-1.36 527.27,-1.75 528.96,-2.18 530.58,-2.65 532.12,-3.16 533.57,-3.71 534.94,-4.31 536.22,-4.94 537.4,-5.61 538.49,-6.31 539.47,-7.04 540.35,-7.8 541.12,-8.59 541.79,-9.41 542.34,-10.25 542.8,-11.11 543.14,-11.99 543.39,-12.89 543.52,-13.8 543.56,-14.72 543.5,-15.65 543.34,-16.59 543.09,-17.53 542.75,-18.47 542.33,-19.41 541.82,-20.35 541.24,-21.28 540.58,-22.2 539.85,-23.11 539.06,-24.01 538.21,-24.89 537.3,-25.75 536.34,-26.59 535.34,-27.41 534.29,-28.2 533.2,-28.96 532.08,-29.69 530.92,-30.39 529.74,-31.06 528.53,-31.69 527.31,-32.29 526.06,-32.84 524.79,-33.35 523.52,-33.82 522.23,-34.25 520.93,-34.64 519.62,-34.97 518.3,-35.26 516.98,-35.51 515.66,-35.7 514.33,-35.85 513,-35.95 511.67,-36 510.33,-36 509,-35.95 507.67,-35.85 506.34,-35.7 505.02,-35.51 503.7,-35.26 502.38,-34.97 501.07,-34.64 499.77,-34.25 498.48,-33.82 497.21,-33.35 495.94,-32.84 494.69,-32.29 493.47,-31.69 492.26,-31.06 491.08,-30.39 489.92,-29.69 488.8,-28.96 487.71,-28.2 486.66,-27.41 485.66,-26.59 484.7,-25.75 483.79,-24.89 482.94,-24.01 482.15,-23.11 481.42,-22.2 480.76,-21.28 480.18,-20.35 479.67,-19.41 479.25,-18.47 478.91,-17.53 478.66,-16.59 478.5,-15.65 478.44,-14.72 478.48,-13.8 478.61,-12.89 478.86,-11.99 479.2,-11.11 479.66,-10.25 480.21,-9.41 480.88,-8.59 481.65,-7.8 482.53,-7.04 483.51,-6.31 484.6,-5.61 485.78,-4.94 487.06,-4.31 488.43,-3.71 489.88,-3.16 491.42,-2.65 493.04,-2.18 494.73,-1.75 496.48,-1.36 498.3,-1.03 500.16,-0.74 502.07,-0.49 504.02,-0.3 505.99,-0.15 507.99,-0.05 509.99,0 512.01,0 514.01,-0.05"/>
<text text-anchor="middle" x="511" y="-14.3" font-family="Times,serif" font-size="14.00">Carl</text>
</a>
</g>
</g>
<!-- carl&#45;&gt;discord -->
<g id="edge11" class="edge">
<title>carl&#45;&gt;discord</title>
<path fill="none" stroke="black" d="M528.12,-32.09C543.38,-43.23 566.7,-58.97 589,-69 610.94,-78.86 636.32,-86.62 658.39,-92.29"/>
<polygon fill="black" stroke="black" points="657.72,-95.73 668.27,-94.75 659.41,-88.94 657.72,-95.73"/>
<text text-anchor="middle" x="623.5" y="-57.8" font-family="Times,serif" font-size="14.00">Response</text>
</g>
<!-- unbelievaboat -->
<g id="node17" class="node">
<title>unbelievaboat</title>
<g id="a_node17"><a xlink:href="https://roamresearch.com/#/app/ArtOfGig/page/V0Psko_9g" xlink:title="UnbelievaBoat">
<polygon fill="none" stroke="blue" points="679.81,-0.05 684.98,-0.15 690.1,-0.3 695.14,-0.49 700.08,-0.74 704.92,-1.03 709.62,-1.36 714.16,-1.75 718.54,-2.18 722.73,-2.65 726.73,-3.16 730.5,-3.71 734.05,-4.31 737.36,-4.94 740.43,-5.61 743.23,-6.31 745.78,-7.04 748.05,-7.8 750.05,-8.59 751.78,-9.41 753.23,-10.25 754.4,-11.11 755.3,-11.99 755.93,-12.89 756.29,-13.8 756.38,-14.72 756.22,-15.65 755.82,-16.59 755.17,-17.53 754.29,-18.47 753.19,-19.41 751.87,-20.35 750.36,-21.28 748.65,-22.2 746.77,-23.11 744.72,-24.01 742.51,-24.89 740.16,-25.75 737.67,-26.59 735.07,-27.41 732.35,-28.2 729.53,-28.96 726.62,-29.69 723.63,-30.39 720.57,-31.06 717.44,-31.69 714.25,-32.29 711.02,-32.84 707.75,-33.35 704.43,-33.82 701.09,-34.25 697.72,-34.64 694.33,-34.97 690.92,-35.26 687.5,-35.51 684.07,-35.7 680.63,-35.85 677.18,-35.95 673.73,-36 670.27,-36 666.82,-35.95 663.37,-35.85 659.93,-35.7 656.5,-35.51 653.08,-35.26 649.67,-34.97 646.28,-34.64 642.91,-34.25 639.57,-33.82 636.25,-33.35 632.98,-32.84 629.75,-32.29 626.56,-31.69 623.43,-31.06 620.37,-30.39 617.38,-29.69 614.47,-28.96 611.65,-28.2 608.93,-27.41 606.33,-26.59 603.84,-25.75 601.49,-24.89 599.28,-24.01 597.23,-23.11 595.35,-22.2 593.64,-21.28 592.13,-20.35 590.81,-19.41 589.71,-18.47 588.83,-17.53 588.18,-16.59 587.78,-15.65 587.62,-14.72 587.71,-13.8 588.07,-12.89 588.7,-11.99 589.6,-11.11 590.77,-10.25 592.22,-9.41 593.95,-8.59 595.95,-7.8 598.22,-7.04 600.77,-6.31 603.57,-5.61 606.64,-4.94 609.95,-4.31 613.5,-3.71 617.27,-3.16 621.27,-2.65 625.46,-2.18 629.84,-1.75 634.38,-1.36 639.08,-1.03 643.92,-0.74 648.86,-0.49 653.9,-0.3 659.02,-0.15 664.19,-0.05 669.39,0 674.61,0 679.81,-0.05"/>
<text text-anchor="middle" x="672" y="-14.3" font-family="Times,serif" font-size="14.00">UnbelievaBoat</text>
</a>
</g>
</g>
<!-- unbelievaboat&#45;&gt;discord -->
<g id="edge12" class="edge">
<title>unbelievaboat&#45;&gt;discord</title>
<path fill="none" stroke="black" d="M714.36,-32.4C724.11,-37.56 733.29,-44.57 739,-54 743.89,-62.07 741.4,-71.16 736.4,-79.36"/>
<polygon fill="black" stroke="black" points="733.54,-77.35 730.49,-87.49 739.2,-81.46 733.54,-77.35"/>
<text text-anchor="middle" x="775.5" y="-57.8" font-family="Times,serif" font-size="14.00">Response</text>
</g>
<!-- bookmarker -->
<g id="node18" class="node">
<title>bookmarker</title>
<g id="a_node18"><a xlink:href="https://roamresearch.com/#/app/ArtOfGig/page/olyafjy4D" xlink:title="Bookmarker">
<polygon fill="none" stroke="blue" points="907.66,-0.05 912.07,-0.15 916.43,-0.3 920.73,-0.49 924.95,-0.74 929.07,-1.03 933.08,-1.36 936.96,-1.75 940.69,-2.18 944.27,-2.65 947.67,-3.16 950.89,-3.71 953.92,-4.31 956.75,-4.94 959.36,-5.61 961.75,-6.31 963.92,-7.04 965.86,-7.8 967.57,-8.59 969.04,-9.41 970.28,-10.25 971.28,-11.11 972.04,-11.99 972.58,-12.89 972.88,-13.8 972.97,-14.72 972.83,-15.65 972.48,-16.59 971.93,-17.53 971.18,-18.47 970.24,-19.41 969.12,-20.35 967.83,-21.28 966.37,-22.2 964.77,-23.11 963.02,-24.01 961.13,-24.89 959.13,-25.75 957.01,-26.59 954.79,-27.41 952.47,-28.2 950.07,-28.96 947.58,-29.69 945.03,-30.39 942.42,-31.06 939.75,-31.69 937.04,-32.29 934.28,-32.84 931.49,-33.35 928.66,-33.82 925.81,-34.25 922.94,-34.64 920.05,-34.97 917.14,-35.26 914.22,-35.51 911.29,-35.7 908.36,-35.85 905.42,-35.95 902.47,-36 899.53,-36 896.58,-35.95 893.64,-35.85 890.71,-35.7 887.78,-35.51 884.86,-35.26 881.95,-34.97 879.06,-34.64 876.19,-34.25 873.34,-33.82 870.51,-33.35 867.72,-32.84 864.96,-32.29 862.25,-31.69 859.58,-31.06 856.97,-30.39 854.42,-29.69 851.93,-28.96 849.53,-28.2 847.21,-27.41 844.99,-26.59 842.87,-25.75 840.87,-24.89 838.98,-24.01 837.23,-23.11 835.63,-22.2 834.17,-21.28 832.88,-20.35 831.76,-19.41 830.82,-18.47 830.07,-17.53 829.52,-16.59 829.17,-15.65 829.03,-14.72 829.12,-13.8 829.42,-12.89 829.96,-11.99 830.72,-11.11 831.72,-10.25 832.96,-9.41 834.43,-8.59 836.14,-7.8 838.08,-7.04 840.25,-6.31 842.64,-5.61 845.25,-4.94 848.08,-4.31 851.11,-3.71 854.33,-3.16 857.73,-2.65 861.31,-2.18 865.04,-1.75 868.92,-1.36 872.93,-1.03 877.05,-0.74 881.27,-0.49 885.57,-0.3 889.93,-0.15 894.34,-0.05 898.78,0 903.22,0 907.66,-0.05"/>
<text text-anchor="middle" x="901" y="-14.3" font-family="Times,serif" font-size="14.00">Bookmarker</text>
</a>
</g>
</g>
<!-- bookmarker&#45;&gt;discord -->
<g id="edge13" class="edge">
<title>bookmarker&#45;&gt;discord</title>
<path fill="none" stroke="black" d="M915.3,-35.77C922.45,-46.24 928.03,-59.5 920,-69 901.43,-90.97 827.08,-99.15 772.79,-102.2"/>
<polygon fill="black" stroke="black" points="772.36,-98.72 762.56,-102.73 772.73,-105.71 772.36,-98.72"/>
<text text-anchor="middle" x="957.5" y="-57.8" font-family="Times,serif" font-size="14.00">Response</text>
</g>
<!-- discord&#45;&gt;iamz1 -->
<g id="edge22" class="edge">
<title>discord&#45;&gt;iamz1</title>
<path fill="none" stroke="red" d="M757.52,-109.66C857.53,-118.53 1096.62,-143.56 1165,-185 1179.37,-193.71 1173.27,-206.93 1188,-215 1224.38,-234.94 1242.59,-207.31 1281,-223 1286.55,-225.27 1291.92,-228.59 1296.83,-232.27"/>
<polygon fill="red" stroke="red" points="1294.66,-235.01 1304.61,-238.66 1299.11,-229.6 1294.66,-235.01"/>
<text text-anchor="middle" x="1246" y="-196.3" font-family="Times,serif" font-size="14.00">Rover command</text>
</g>
<!-- discord&#45;&gt;gigayak -->
<g id="edge14" class="edge">
<title>discord&#45;&gt;gigayak</title>
<path fill="none" stroke="red" d="M666.52,-107.9C569.81,-112.93 352.16,-130.21 307,-185 298.52,-195.29 297.78,-205.36 307,-215 320.84,-229.47 468.12,-216.35 487,-223 493.51,-225.29 499.88,-228.86 505.68,-232.82"/>
<polygon fill="red" stroke="red" points="503.62,-235.65 513.73,-238.8 507.79,-230.03 503.62,-235.65"/>
<text text-anchor="middle" x="342" y="-203.8" font-family="Times,serif" font-size="14.00">User</text>
<text text-anchor="middle" x="342" y="-188.8" font-family="Times,serif" font-size="14.00">command</text>
</g>
<!-- discord&#45;&gt;project_ui -->
<g id="edge19" class="edge">
<title>discord&#45;&gt;project_ui</title>
<path fill="none" stroke="black" d="M666.52,-107.8C518.45,-114.01 64.98,-136.82 22,-185 13.12,-194.95 12.68,-205.47 22,-215 35.79,-229.11 358.05,-217.52 377,-223 385.05,-225.33 393.12,-229.14 400.5,-233.36"/>
<polygon fill="black" stroke="black" points="399.07,-236.59 409.43,-238.84 402.74,-230.62 399.07,-236.59"/>
<text text-anchor="middle" x="64" y="-203.8" font-family="Times,serif" font-size="14.00">Channel</text>
<text text-anchor="middle" x="64" y="-188.8" font-family="Times,serif" font-size="14.00">information</text>
</g>
<!-- discord&#45;&gt;yak_scraper -->
<g id="edge15" class="edge">
<title>discord&#45;&gt;yak_scraper</title>
<path fill="none" stroke="red" d="M754.21,-112.01C830.13,-124.62 979.5,-157.54 924,-215 915.12,-224.2 706.29,-219.47 694,-223 686.2,-225.24 678.33,-228.78 671.05,-232.72"/>
<polygon fill="red" stroke="red" points="669.07,-229.82 662.18,-237.86 672.58,-235.88 669.07,-229.82"/>
<text text-anchor="middle" x="971" y="-203.8" font-family="Times,serif" font-size="14.00">User</text>
<text text-anchor="middle" x="971" y="-188.8" font-family="Times,serif" font-size="14.00">command</text>
</g>
<!-- discord&#45;&gt;carl -->
<g id="edge8" class="edge">
<title>discord&#45;&gt;carl</title>
<path fill="none" stroke="black" d="M664.12,-103.91C602.44,-102.64 501.53,-96.3 478,-69 469.94,-59.65 476.45,-48.21 485.76,-38.64"/>
<polygon fill="black" stroke="black" points="488.25,-41.11 493.22,-31.75 483.5,-35.96 488.25,-41.11"/>
<text text-anchor="middle" x="514.5" y="-57.8" font-family="Times,serif" font-size="14.00">Command</text>
</g>
<!-- discord&#45;&gt;unbelievaboat -->
<g id="edge9" class="edge">
<title>discord&#45;&gt;unbelievaboat</title>
<path fill="none" stroke="black" d="M684.53,-89.26C677.14,-83.94 670.11,-77.18 666,-69 662.45,-61.94 662.16,-53.63 663.26,-45.83"/>
<polygon fill="black" stroke="black" points="666.69,-46.54 665.36,-36.03 659.85,-45.08 666.69,-46.54"/>
<text text-anchor="middle" x="702.5" y="-57.8" font-family="Times,serif" font-size="14.00">Command</text>
</g>
<!-- discord&#45;&gt;bookmarker -->
<g id="edge10" class="edge">
<title>discord&#45;&gt;bookmarker</title>
<path fill="none" stroke="black" d="M752.52,-92.21C771.45,-86.09 794.24,-78 814,-69 832.42,-60.61 852.04,-49.53 867.98,-39.94"/>
<polygon fill="black" stroke="black" points="870.19,-42.69 876.9,-34.49 866.54,-36.72 870.19,-42.69"/>
<text text-anchor="middle" x="879.5" y="-57.8" font-family="Times,serif" font-size="14.00">Command</text>
</g>
<!-- substack -->
<g id="node20" class="node">
<title>substack</title>
<g id="a_node20"><a xlink:href="https://roamresearch.com/#/app/ArtOfGig/page/kMaCo6Xc-" xlink:title="Substack">
<polygon fill="none" stroke="green" points="1270.23,-1268.03 1273.69,-1268.13 1277.12,-1268.28 1280.5,-1268.48 1283.81,-1268.72 1287.05,-1269.01 1290.19,-1269.35 1293.24,-1269.73 1296.17,-1270.16 1298.98,-1270.63 1301.65,-1271.14 1304.18,-1271.7 1306.56,-1272.29 1308.78,-1272.92 1310.83,-1273.59 1312.71,-1274.29 1314.41,-1275.02 1315.93,-1275.79 1317.27,-1276.58 1318.43,-1277.39 1319.4,-1278.23 1320.19,-1279.09 1320.79,-1279.97 1321.21,-1280.87 1321.45,-1281.78 1321.51,-1282.7 1321.41,-1283.63 1321.13,-1284.57 1320.7,-1285.51 1320.11,-1286.46 1319.37,-1287.4 1318.49,-1288.33 1317.48,-1289.27 1316.33,-1290.19 1315.07,-1291.1 1313.7,-1291.99 1312.22,-1292.87 1310.65,-1293.74 1308.98,-1294.58 1307.24,-1295.39 1305.42,-1296.18 1303.53,-1296.95 1301.58,-1297.68 1299.58,-1298.38 1297.53,-1299.05 1295.43,-1299.68 1293.3,-1300.27 1291.13,-1300.82 1288.94,-1301.34 1286.72,-1301.81 1284.48,-1302.24 1282.23,-1302.62 1279.96,-1302.96 1277.67,-1303.25 1275.38,-1303.49 1273.08,-1303.69 1270.78,-1303.84 1268.47,-1303.93 1266.16,-1303.98 1263.84,-1303.98 1261.53,-1303.93 1259.22,-1303.84 1256.92,-1303.69 1254.62,-1303.49 1252.33,-1303.25 1250.04,-1302.96 1247.77,-1302.62 1245.52,-1302.24 1243.28,-1301.81 1241.06,-1301.34 1238.87,-1300.82 1236.7,-1300.27 1234.57,-1299.68 1232.47,-1299.05 1230.42,-1298.38 1228.42,-1297.68 1226.47,-1296.95 1224.58,-1296.18 1222.76,-1295.39 1221.02,-1294.58 1219.35,-1293.74 1217.78,-1292.87 1216.3,-1291.99 1214.93,-1291.1 1213.67,-1290.19 1212.52,-1289.27 1211.51,-1288.33 1210.63,-1287.4 1209.89,-1286.46 1209.3,-1285.51 1208.87,-1284.57 1208.59,-1283.63 1208.49,-1282.7 1208.55,-1281.78 1208.79,-1280.87 1209.21,-1279.97 1209.81,-1279.09 1210.6,-1278.23 1211.57,-1277.39 1212.73,-1276.58 1214.07,-1275.79 1215.59,-1275.02 1217.29,-1274.29 1219.17,-1273.59 1221.22,-1272.92 1223.44,-1272.29 1225.82,-1271.7 1228.35,-1271.14 1231.02,-1270.63 1233.83,-1270.16 1236.76,-1269.73 1239.81,-1269.35 1242.95,-1269.01 1246.19,-1268.72 1249.5,-1268.48 1252.88,-1268.28 1256.31,-1268.13 1259.77,-1268.03 1263.25,-1267.98 1266.75,-1267.98 1270.23,-1268.03"/>
<text text-anchor="middle" x="1265" y="-1282.28" font-family="Times,serif" font-size="14.00">Substack</text>
</a>
</g>
</g>
<!-- rss_applet -->
<g id="node28" class="node">
<title>rss_applet</title>
<g id="a_node28"><a xlink:href="https://roamresearch.com/#/app/ArtOfGig/page/ucCeiIsih" xlink:title="create&#45;post\nApplets">
<polygon fill="none" stroke="blue" points="1433.5,-1094.2 1336.5,-1094.2 1336.5,-1056.2 1433.5,-1056.2 1433.5,-1094.2"/>
<text text-anchor="middle" x="1385" y="-1079" font-family="Times,serif" font-size="14.00">create&#45;post</text>
<text text-anchor="middle" x="1385" y="-1064" font-family="Times,serif" font-size="14.00">Applets</text>
</a>
</g>
</g>
<!-- substack&#45;&gt;rss_applet -->
<g id="edge40" class="edge">
<title>substack&#45;&gt;rss_applet</title>
<path fill="none" stroke="red" d="M1255.17,-1267.93C1240.91,-1240.68 1219.08,-1187.26 1247,-1156.2 1258.21,-1143.74 1307.13,-1155.93 1322,-1148.2 1341.65,-1137.99 1357.92,-1118.89 1369,-1102.93"/>
<polygon fill="red" stroke="red" points="1372.01,-1104.73 1374.61,-1094.46 1366.17,-1100.86 1372.01,-1104.73"/>
<text text-anchor="middle" x="1280" y="-1175" font-family="Times,serif" font-size="14.00">Pulled</text>
<text text-anchor="middle" x="1280" y="-1160" font-family="Times,serif" font-size="14.00">by IFTTT</text>
</g>
<!-- twitter_applets -->
<g id="node29" class="node">
<title>twitter_applets</title>
<g id="a_node29"><a xlink:href="https://roamresearch.com/#/app/ArtOfGig/page/j7DInC9sg" xlink:title="Twitter\nApplets">
<polygon fill="none" stroke="blue" points="1522.5,-1094.2 1451.5,-1094.2 1451.5,-1056.2 1522.5,-1056.2 1522.5,-1094.2"/>
<text text-anchor="middle" x="1487" y="-1079" font-family="Times,serif" font-size="14.00">Twitter</text>
<text text-anchor="middle" x="1487" y="-1064" font-family="Times,serif" font-size="14.00">Applets</text>
</a>
</g>
</g>
<!-- substack&#45;&gt;twitter_applets -->
<g id="edge45" class="edge">
<title>substack&#45;&gt;twitter_applets</title>
<path fill="none" stroke="red" d="M1272.68,-1267.83C1287.34,-1235.93 1319.75,-1169.47 1341,-1156.2 1360.29,-1144.16 1423.62,-1160.09 1443,-1148.2 1459.34,-1138.18 1470.47,-1119.59 1477.45,-1103.82"/>
<polygon fill="red" stroke="red" points="1480.73,-1105.04 1481.27,-1094.46 1474.25,-1102.39 1480.73,-1105.04"/>
<text text-anchor="middle" x="1374" y="-1175" font-family="Times,serif" font-size="14.00">Pulled</text>
<text text-anchor="middle" x="1374" y="-1160" font-family="Times,serif" font-size="14.00">by IFTTT</text>
</g>
<!-- member_feeds -->
<g id="node21" class="node">
<title>member_feeds</title>
<g id="a_node21"><a xlink:href="https://roamresearch.com/#/app/ArtOfGig/page/RLF445t5m" xlink:title="Member RSS\nFeeds">
<ellipse fill="none" stroke="green" cx="1458" cy="-1285.98" rx="77.57" ry="77.57"/>
<ellipse fill="none" stroke="green" cx="1458" cy="-1285.98" rx="81.56" ry="81.56"/>
<text text-anchor="middle" x="1458" y="-1289.78" font-family="Times,serif" font-size="14.00">Member RSS</text>
<text text-anchor="middle" x="1458" y="-1274.78" font-family="Times,serif" font-size="14.00">Feeds</text>
</a>
</g>
</g>
<!-- member_feeds&#45;&gt;rss_applet -->
<g id="edge41" class="edge">
<title>member_feeds&#45;&gt;rss_applet</title>
<path fill="none" stroke="red" d="M1429.29,-1209.33C1426.45,-1201.53 1423.64,-1193.72 1421,-1186.2 1411.3,-1158.54 1400.96,-1126.68 1393.87,-1104.39"/>
<polygon fill="red" stroke="red" points="1397.11,-1103.05 1390.75,-1094.58 1390.44,-1105.17 1397.11,-1103.05"/>
<text text-anchor="middle" x="1454" y="-1175" font-family="Times,serif" font-size="14.00">Pulled</text>
<text text-anchor="middle" x="1454" y="-1160" font-family="Times,serif" font-size="14.00">by IFTTT</text>
</g>
<!-- member_feeds&#45;&gt;twitter_applets -->
<g id="edge46" class="edge">
<title>member_feeds&#45;&gt;twitter_applets</title>
<path fill="none" stroke="red" d="M1486.07,-1209.02C1488.07,-1201.39 1489.78,-1193.7 1491,-1186.2 1493.14,-1173.04 1491.33,-1169.53 1491,-1156.2 1490.57,-1139.09 1489.63,-1119.93 1488.77,-1104.66"/>
<polygon fill="red" stroke="red" points="1492.24,-1104.08 1488.16,-1094.3 1485.25,-1104.49 1492.24,-1104.08"/>
<text text-anchor="middle" x="1525" y="-1175" font-family="Times,serif" font-size="14.00">Pulled</text>
<text text-anchor="middle" x="1525" y="-1160" font-family="Times,serif" font-size="14.00">by IFTTT</text>
</g>
<!-- facebook -->
<g id="node22" class="node">
<title>facebook</title>
<g id="a_node22"><a xlink:href="https://roamresearch.com/#/app/ArtOfGig/page/WZKSWTGz5" xlink:title="Facebook">
<polygon fill="none" stroke="green" points="1532.31,-1442.69 1535.83,-1442.79 1539.31,-1442.94 1542.74,-1443.14 1546.1,-1443.38 1549.39,-1443.67 1552.59,-1444.01 1555.68,-1444.39 1558.66,-1444.82 1561.51,-1445.29 1564.22,-1445.81 1566.79,-1446.36 1569.21,-1446.95 1571.46,-1447.58 1573.54,-1448.25 1575.45,-1448.95 1577.18,-1449.68 1578.73,-1450.45 1580.09,-1451.24 1581.27,-1452.05 1582.25,-1452.89 1583.05,-1453.75 1583.66,-1454.63 1584.09,-1455.53 1584.33,-1456.44 1584.4,-1457.36 1584.29,-1458.29 1584.01,-1459.23 1583.57,-1460.17 1582.97,-1461.12 1582.22,-1462.06 1581.33,-1463 1580.3,-1463.93 1579.14,-1464.85 1577.86,-1465.76 1576.46,-1466.66 1574.96,-1467.54 1573.36,-1468.4 1571.67,-1469.24 1569.9,-1470.05 1568.05,-1470.84 1566.13,-1471.61 1564.15,-1472.34 1562.12,-1473.04 1560.03,-1473.71 1557.91,-1474.34 1555.74,-1474.93 1553.54,-1475.48 1551.31,-1476 1549.06,-1476.47 1546.79,-1476.9 1544.5,-1477.28 1542.19,-1477.62 1539.87,-1477.91 1537.54,-1478.15 1535.21,-1478.35 1532.87,-1478.5 1530.52,-1478.6 1528.17,-1478.64 1525.83,-1478.64 1523.48,-1478.6 1521.13,-1478.5 1518.79,-1478.35 1516.46,-1478.15 1514.13,-1477.91 1511.81,-1477.62 1509.5,-1477.28 1507.21,-1476.9 1504.94,-1476.47 1502.69,-1476 1500.46,-1475.48 1498.26,-1474.93 1496.09,-1474.34 1493.97,-1473.71 1491.88,-1473.04 1489.85,-1472.34 1487.87,-1471.61 1485.95,-1470.84 1484.1,-1470.05 1482.33,-1469.24 1480.64,-1468.4 1479.04,-1467.54 1477.54,-1466.66 1476.14,-1465.76 1474.86,-1464.85 1473.7,-1463.93 1472.67,-1463 1471.78,-1462.06 1471.03,-1461.12 1470.43,-1460.17 1469.99,-1459.23 1469.71,-1458.29 1469.6,-1457.36 1469.67,-1456.44 1469.91,-1455.53 1470.34,-1454.63 1470.95,-1453.75 1471.75,-1452.89 1472.73,-1452.05 1473.91,-1451.24 1475.27,-1450.45 1476.82,-1449.68 1478.55,-1448.95 1480.46,-1448.25 1482.54,-1447.58 1484.79,-1446.95 1487.21,-1446.36 1489.78,-1445.81 1492.49,-1445.29 1495.34,-1444.82 1498.32,-1444.39 1501.41,-1444.01 1504.61,-1443.67 1507.9,-1443.38 1511.26,-1443.14 1514.69,-1442.94 1518.17,-1442.79 1521.69,-1442.69 1525.23,-1442.64 1528.77,-1442.64 1532.31,-1442.69"/>
<text text-anchor="middle" x="1527" y="-1456.94" font-family="Times,serif" font-size="14.00">Facebook</text>
</a>
</g>
</g>
<!-- glitch -->
<g id="node23" class="node">
<title>glitch</title>
<g id="a_node23"><a xlink:href="https://roamresearch.com/#/app/ArtOfGig/page/bTxU0ABQS" xlink:title="Glitch">
<polygon fill="none" stroke="blue" points="1414.76,-1442.69 1417.26,-1442.79 1419.72,-1442.94 1422.15,-1443.14 1424.54,-1443.38 1426.87,-1443.67 1429.13,-1444.01 1431.32,-1444.39 1433.43,-1444.82 1435.45,-1445.29 1437.38,-1445.81 1439.2,-1446.36 1440.91,-1446.95 1442.51,-1447.58 1443.98,-1448.25 1445.34,-1448.95 1446.56,-1449.68 1447.66,-1450.45 1448.62,-1451.24 1449.46,-1452.05 1450.15,-1452.89 1450.72,-1453.75 1451.15,-1454.63 1451.45,-1455.53 1451.63,-1456.44 1451.67,-1457.36 1451.6,-1458.29 1451.4,-1459.23 1451.09,-1460.17 1450.66,-1461.12 1450.13,-1462.06 1449.5,-1463 1448.77,-1463.93 1447.95,-1464.85 1447.04,-1465.76 1446.05,-1466.66 1444.99,-1467.54 1443.85,-1468.4 1442.66,-1469.24 1441.4,-1470.05 1440.09,-1470.84 1438.73,-1471.61 1437.33,-1472.34 1435.89,-1473.04 1434.41,-1473.71 1432.9,-1474.34 1431.37,-1474.93 1429.81,-1475.48 1428.23,-1476 1426.63,-1476.47 1425.02,-1476.9 1423.4,-1477.28 1421.76,-1477.62 1420.12,-1477.91 1418.47,-1478.15 1416.82,-1478.35 1415.16,-1478.5 1413.5,-1478.6 1411.83,-1478.64 1410.17,-1478.64 1408.5,-1478.6 1406.84,-1478.5 1405.18,-1478.35 1403.53,-1478.15 1401.88,-1477.91 1400.24,-1477.62 1398.6,-1477.28 1396.98,-1476.9 1395.37,-1476.47 1393.77,-1476 1392.19,-1475.48 1390.63,-1474.93 1389.1,-1474.34 1387.59,-1473.71 1386.11,-1473.04 1384.67,-1472.34 1383.27,-1471.61 1381.91,-1470.84 1380.6,-1470.05 1379.34,-1469.24 1378.15,-1468.4 1377.01,-1467.54 1375.95,-1466.66 1374.96,-1465.76 1374.05,-1464.85 1373.23,-1463.93 1372.5,-1463 1371.87,-1462.06 1371.34,-1461.12 1370.91,-1460.17 1370.6,-1459.23 1370.4,-1458.29 1370.33,-1457.36 1370.37,-1456.44 1370.55,-1455.53 1370.85,-1454.63 1371.28,-1453.75 1371.85,-1452.89 1372.54,-1452.05 1373.38,-1451.24 1374.34,-1450.45 1375.44,-1449.68 1376.66,-1448.95 1378.02,-1448.25 1379.49,-1447.58 1381.09,-1446.95 1382.8,-1446.36 1384.62,-1445.81 1386.55,-1445.29 1388.57,-1444.82 1390.68,-1444.39 1392.87,-1444.01 1395.13,-1443.67 1397.46,-1443.38 1399.85,-1443.14 1402.28,-1442.94 1404.74,-1442.79 1407.24,-1442.69 1409.74,-1442.64 1412.26,-1442.64 1414.76,-1442.69"/>
<text text-anchor="middle" x="1411" y="-1456.94" font-family="Times,serif" font-size="14.00">Glitch</text>
</a>
</g>
</g>
<!-- linkedin -->
<g id="node24" class="node">
<title>linkedin</title>
<g id="a_node24"><a xlink:href="https://roamresearch.com/#/app/ArtOfGig/page/M17w4lZJB" xlink:title="LinkedIn">
<polygon fill="none" stroke="green" points="1302.08,-1442.69 1305.44,-1442.79 1308.76,-1442.94 1312.04,-1443.14 1315.26,-1443.38 1318.4,-1443.67 1321.46,-1444.01 1324.41,-1444.39 1327.26,-1444.82 1329.98,-1445.29 1332.58,-1445.81 1335.03,-1446.36 1337.34,-1446.95 1339.49,-1447.58 1341.49,-1448.25 1343.31,-1448.95 1344.96,-1449.68 1346.44,-1450.45 1347.74,-1451.24 1348.87,-1452.05 1349.81,-1452.89 1350.57,-1453.75 1351.16,-1454.63 1351.56,-1455.53 1351.8,-1456.44 1351.86,-1457.36 1351.76,-1458.29 1351.49,-1459.23 1351.07,-1460.17 1350.5,-1461.12 1349.78,-1462.06 1348.93,-1463 1347.94,-1463.93 1346.83,-1464.85 1345.61,-1465.76 1344.27,-1466.66 1342.84,-1467.54 1341.31,-1468.4 1339.7,-1469.24 1338,-1470.05 1336.23,-1470.84 1334.4,-1471.61 1332.51,-1472.34 1330.57,-1473.04 1328.57,-1473.71 1326.54,-1474.34 1324.47,-1474.93 1322.37,-1475.48 1320.24,-1476 1318.09,-1476.47 1315.91,-1476.9 1313.72,-1477.28 1311.52,-1477.62 1309.3,-1477.91 1307.08,-1478.15 1304.85,-1478.35 1302.61,-1478.5 1300.37,-1478.6 1298.12,-1478.64 1295.88,-1478.64 1293.63,-1478.6 1291.39,-1478.5 1289.15,-1478.35 1286.92,-1478.15 1284.7,-1477.91 1282.48,-1477.62 1280.28,-1477.28 1278.09,-1476.9 1275.91,-1476.47 1273.76,-1476 1271.63,-1475.48 1269.53,-1474.93 1267.46,-1474.34 1265.43,-1473.71 1263.43,-1473.04 1261.49,-1472.34 1259.6,-1471.61 1257.77,-1470.84 1256,-1470.05 1254.3,-1469.24 1252.69,-1468.4 1251.16,-1467.54 1249.73,-1466.66 1248.39,-1465.76 1247.17,-1464.85 1246.06,-1463.93 1245.07,-1463 1244.22,-1462.06 1243.5,-1461.12 1242.93,-1460.17 1242.51,-1459.23 1242.24,-1458.29 1242.14,-1457.36 1242.2,-1456.44 1242.44,-1455.53 1242.84,-1454.63 1243.43,-1453.75 1244.19,-1452.89 1245.13,-1452.05 1246.26,-1451.24 1247.56,-1450.45 1249.04,-1449.68 1250.69,-1448.95 1252.51,-1448.25 1254.51,-1447.58 1256.66,-1446.95 1258.97,-1446.36 1261.42,-1445.81 1264.02,-1445.29 1266.74,-1444.82 1269.59,-1444.39 1272.54,-1444.01 1275.6,-1443.67 1278.74,-1443.38 1281.96,-1443.14 1285.24,-1442.94 1288.56,-1442.79 1291.92,-1442.69 1295.31,-1442.64 1298.69,-1442.64 1302.08,-1442.69"/>
<text text-anchor="middle" x="1297" y="-1456.94" font-family="Times,serif" font-size="14.00">LinkedIn</text>
</a>
</g>
</g>
<!-- zapier -->
<g id="node25" class="node">
<title>zapier</title>
<g id="a_node25"><a xlink:href="https://roamresearch.com/#/app/ArtOfGig/page/WW4JidMuQ" xlink:title="Zapier">
<polygon fill="none" stroke="blue" points="1185.04,-1442.69 1187.72,-1442.79 1190.37,-1442.94 1192.99,-1443.14 1195.55,-1443.38 1198.05,-1443.67 1200.49,-1444.01 1202.84,-1444.39 1205.11,-1444.82 1207.28,-1445.29 1209.35,-1445.81 1211.3,-1446.36 1213.14,-1446.95 1214.86,-1447.58 1216.45,-1448.25 1217.9,-1448.95 1219.22,-1449.68 1220.4,-1450.45 1221.43,-1451.24 1222.33,-1452.05 1223.08,-1452.89 1223.68,-1453.75 1224.15,-1454.63 1224.47,-1455.53 1224.66,-1456.44 1224.71,-1457.36 1224.63,-1458.29 1224.42,-1459.23 1224.08,-1460.17 1223.62,-1461.12 1223.05,-1462.06 1222.37,-1463 1221.59,-1463.93 1220.71,-1464.85 1219.73,-1465.76 1218.67,-1466.66 1217.52,-1467.54 1216.31,-1468.4 1215.02,-1469.24 1213.67,-1470.05 1212.26,-1470.84 1210.8,-1471.61 1209.29,-1472.34 1207.74,-1473.04 1206.16,-1473.71 1204.54,-1474.34 1202.89,-1474.93 1201.21,-1475.48 1199.52,-1476 1197.8,-1476.47 1196.07,-1476.9 1194.32,-1477.28 1192.57,-1477.62 1190.8,-1477.91 1189.03,-1478.15 1187.25,-1478.35 1185.47,-1478.5 1183.68,-1478.6 1181.89,-1478.64 1180.11,-1478.64 1178.32,-1478.6 1176.53,-1478.5 1174.75,-1478.35 1172.97,-1478.15 1171.2,-1477.91 1169.43,-1477.62 1167.68,-1477.28 1165.93,-1476.9 1164.2,-1476.47 1162.48,-1476 1160.79,-1475.48 1159.11,-1474.93 1157.46,-1474.34 1155.84,-1473.71 1154.26,-1473.04 1152.71,-1472.34 1151.2,-1471.61 1149.74,-1470.84 1148.33,-1470.05 1146.98,-1469.24 1145.69,-1468.4 1144.48,-1467.54 1143.33,-1466.66 1142.27,-1465.76 1141.29,-1464.85 1140.41,-1463.93 1139.63,-1463 1138.95,-1462.06 1138.38,-1461.12 1137.92,-1460.17 1137.58,-1459.23 1137.37,-1458.29 1137.29,-1457.36 1137.34,-1456.44 1137.53,-1455.53 1137.85,-1454.63 1138.32,-1453.75 1138.92,-1452.89 1139.67,-1452.05 1140.57,-1451.24 1141.6,-1450.45 1142.78,-1449.68 1144.1,-1448.95 1145.55,-1448.25 1147.14,-1447.58 1148.86,-1446.95 1150.7,-1446.36 1152.65,-1445.81 1154.72,-1445.29 1156.89,-1444.82 1159.16,-1444.39 1161.51,-1444.01 1163.95,-1443.67 1166.45,-1443.38 1169.01,-1443.14 1171.63,-1442.94 1174.28,-1442.79 1176.96,-1442.69 1179.65,-1442.64 1182.35,-1442.64 1185.04,-1442.69"/>
<text text-anchor="middle" x="1181" y="-1456.94" font-family="Times,serif" font-size="14.00">Zapier</text>
</a>
</g>
</g>
<!-- integromat -->
<g id="node26" class="node">
<title>integromat</title>
<g id="a_node26"><a xlink:href="https://roamresearch.com/#/app/ArtOfGig/page/ExYczJs8u" xlink:title="Integromat">
<polygon fill="none" stroke="blue" points="1058.23,-1442.69 1062.35,-1442.79 1066.43,-1442.94 1070.45,-1443.14 1074.39,-1443.38 1078.24,-1443.67 1081.99,-1444.01 1085.62,-1444.39 1089.11,-1444.82 1092.45,-1445.29 1095.63,-1445.81 1098.64,-1446.36 1101.47,-1446.95 1104.11,-1447.58 1106.56,-1448.25 1108.79,-1448.95 1110.82,-1449.68 1112.63,-1450.45 1114.23,-1451.24 1115.61,-1452.05 1116.76,-1452.89 1117.7,-1453.75 1118.41,-1454.63 1118.91,-1455.53 1119.2,-1456.44 1119.28,-1457.36 1119.15,-1458.29 1118.82,-1459.23 1118.31,-1460.17 1117.61,-1461.12 1116.73,-1462.06 1115.68,-1463 1114.47,-1463.93 1113.11,-1464.85 1111.61,-1465.76 1109.97,-1466.66 1108.22,-1467.54 1106.34,-1468.4 1104.36,-1469.24 1102.28,-1470.05 1100.11,-1470.84 1097.87,-1471.61 1095.55,-1472.34 1093.16,-1473.04 1090.72,-1473.71 1088.23,-1474.34 1085.69,-1474.93 1083.11,-1475.48 1080.5,-1476 1077.86,-1476.47 1075.19,-1476.9 1072.51,-1477.28 1069.8,-1477.62 1067.09,-1477.91 1064.36,-1478.15 1061.62,-1478.35 1058.88,-1478.5 1056.13,-1478.6 1053.38,-1478.64 1050.62,-1478.64 1047.87,-1478.6 1045.12,-1478.5 1042.38,-1478.35 1039.64,-1478.15 1036.91,-1477.91 1034.2,-1477.62 1031.49,-1477.28 1028.81,-1476.9 1026.14,-1476.47 1023.5,-1476 1020.89,-1475.48 1018.31,-1474.93 1015.77,-1474.34 1013.28,-1473.71 1010.84,-1473.04 1008.45,-1472.34 1006.13,-1471.61 1003.89,-1470.84 1001.72,-1470.05 999.64,-1469.24 997.66,-1468.4 995.78,-1467.54 994.03,-1466.66 992.39,-1465.76 990.89,-1464.85 989.53,-1463.93 988.32,-1463 987.27,-1462.06 986.39,-1461.12 985.69,-1460.17 985.18,-1459.23 984.85,-1458.29 984.72,-1457.36 984.8,-1456.44 985.09,-1455.53 985.59,-1454.63 986.3,-1453.75 987.24,-1452.89 988.39,-1452.05 989.77,-1451.24 991.37,-1450.45 993.18,-1449.68 995.21,-1448.95 997.44,-1448.25 999.89,-1447.58 1002.53,-1446.95 1005.36,-1446.36 1008.37,-1445.81 1011.55,-1445.29 1014.89,-1444.82 1018.38,-1444.39 1022.01,-1444.01 1025.76,-1443.67 1029.61,-1443.38 1033.55,-1443.14 1037.57,-1442.94 1041.65,-1442.79 1045.77,-1442.69 1049.92,-1442.64 1054.08,-1442.64 1058.23,-1442.69"/>
<text text-anchor="middle" x="1052" y="-1456.94" font-family="Times,serif" font-size="14.00">Integromat</text>
</a>
</g>
</g>
<!-- welcomer -->
<g id="node27" class="node">
<title>welcomer</title>
<g id="a_node27"><a xlink:href="https://roamresearch.com/#/app/ArtOfGig/page/6EFGxN2M8" xlink:title="Welcomer">
<polygon fill="none" stroke="blue" points="912.59,-1442.69 916.3,-1442.79 919.96,-1442.94 923.57,-1443.14 927.11,-1443.38 930.57,-1443.67 933.94,-1444.01 937.2,-1444.39 940.33,-1444.82 943.33,-1445.29 946.19,-1445.81 948.9,-1446.36 951.44,-1446.95 953.81,-1447.58 956.01,-1448.25 958.02,-1448.95 959.84,-1449.68 961.47,-1450.45 962.9,-1451.24 964.14,-1452.05 965.18,-1452.89 966.02,-1453.75 966.66,-1454.63 967.11,-1455.53 967.37,-1456.44 967.43,-1457.36 967.32,-1458.29 967.03,-1459.23 966.56,-1460.17 965.93,-1461.12 965.14,-1462.06 964.2,-1463 963.12,-1463.93 961.9,-1464.85 960.55,-1465.76 959.08,-1466.66 957.5,-1467.54 955.81,-1468.4 954.03,-1469.24 952.17,-1470.05 950.22,-1470.84 948.2,-1471.61 946.12,-1472.34 943.98,-1473.04 941.78,-1473.71 939.54,-1474.34 937.26,-1474.93 934.95,-1475.48 932.6,-1476 930.23,-1476.47 927.83,-1476.9 925.42,-1477.28 922.99,-1477.62 920.55,-1477.91 918.1,-1478.15 915.64,-1478.35 913.18,-1478.5 910.71,-1478.6 908.24,-1478.64 905.76,-1478.64 903.29,-1478.6 900.82,-1478.5 898.36,-1478.35 895.9,-1478.15 893.45,-1477.91 891.01,-1477.62 888.58,-1477.28 886.17,-1476.9 883.77,-1476.47 881.4,-1476 879.05,-1475.48 876.74,-1474.93 874.46,-1474.34 872.22,-1473.71 870.02,-1473.04 867.88,-1472.34 865.8,-1471.61 863.78,-1470.84 861.83,-1470.05 859.97,-1469.24 858.19,-1468.4 856.5,-1467.54 854.92,-1466.66 853.45,-1465.76 852.1,-1464.85 850.88,-1463.93 849.8,-1463 848.86,-1462.06 848.07,-1461.12 847.44,-1460.17 846.97,-1459.23 846.68,-1458.29 846.57,-1457.36 846.63,-1456.44 846.89,-1455.53 847.34,-1454.63 847.98,-1453.75 848.82,-1452.89 849.86,-1452.05 851.1,-1451.24 852.53,-1450.45 854.16,-1449.68 855.98,-1448.95 857.99,-1448.25 860.19,-1447.58 862.56,-1446.95 865.1,-1446.36 867.81,-1445.81 870.67,-1445.29 873.67,-1444.82 876.8,-1444.39 880.06,-1444.01 883.43,-1443.67 886.89,-1443.38 890.43,-1443.14 894.04,-1442.94 897.7,-1442.79 901.41,-1442.69 905.13,-1442.64 908.87,-1442.64 912.59,-1442.69"/>
<text text-anchor="middle" x="907" y="-1456.94" font-family="Times,serif" font-size="14.00">Welcomer</text>
</a>
</g>
</g>
<!-- create_post -->
<g id="node37" class="node">
<title>create_post</title>
<g id="a_node37"><a xlink:href="https://roamresearch.com/#/app/ArtOfGig/page/wDK81GyfO" xlink:title="create&#45;post">
<polygon fill="none" stroke="blue" points="753.5,-864.64 656.5,-864.64 656.5,-828.64 753.5,-828.64 753.5,-864.64"/>
<text text-anchor="middle" x="705" y="-842.94" font-family="Times,serif" font-size="14.00">create&#45;post</text>
</a>
</g>
</g>
<!-- rss_applet&#45;&gt;create_post -->
<g id="edge42" class="edge">
<title>rss_applet&#45;&gt;create_post</title>
<path fill="none" stroke="black" d="M1339.32,-1056.17C1299.76,-1040.75 1240.89,-1018.27 1189,-1000.32 1036.55,-947.59 854.61,-892.19 763.33,-864.91"/>
<polygon fill="black" stroke="black" points="764.3,-861.55 753.72,-862.04 762.3,-868.26 764.3,-861.55"/>
<text text-anchor="middle" x="1320.5" y="-1019.12" font-family="Times,serif" font-size="14.00">RSS post data</text>
<text text-anchor="middle" x="1320.5" y="-1004.12" font-family="Times,serif" font-size="14.00">to webhook</text>
</g>
<!-- twitter_applets&#45;&gt;yc_twitter -->
<g id="edge48" class="edge">
<title>twitter_applets&#45;&gt;yc_twitter</title>
<path fill="none" stroke="black" d="M1498.12,-1056.17C1520.11,-1018.77 1567,-929.4 1567,-847.64 1567,-847.64 1567,-847.64 1567,-256 1567,-222.24 1567.23,-204.95 1540,-185 1514.86,-166.58 1428.61,-189.35 1400,-177 1377.29,-167.2 1357.28,-147.34 1343.65,-131.11"/>
<polygon fill="black" stroke="black" points="1346.13,-128.61 1337.12,-123.03 1340.68,-133.01 1346.13,-128.61"/>
<text text-anchor="middle" x="1611.5" y="-531.28" font-family="Times,serif" font-size="14.00">Tweet about</text>
<text text-anchor="middle" x="1611.5" y="-516.28" font-family="Times,serif" font-size="14.00">new content</text>
</g>
<!-- netlify_applet -->
<g id="node30" class="node">
<title>netlify_applet</title>
<g id="a_node30"><a xlink:href="https://roamresearch.com/#/app/ArtOfGig/page/EWP06EjZH" xlink:title="Netlify Build\nHook Applet">
<polygon fill="none" stroke="blue" points="1647.5,-1094.2 1540.5,-1094.2 1540.5,-1056.2 1647.5,-1056.2 1647.5,-1094.2"/>
<text text-anchor="middle" x="1594" y="-1079" font-family="Times,serif" font-size="14.00">Netlify Build</text>
<text text-anchor="middle" x="1594" y="-1064" font-family="Times,serif" font-size="14.00">Hook Applet</text>
</a>
</g>
</g>
<!-- netlify_ci -->
<g id="node32" class="node">
<title>netlify_ci</title>
<g id="a_node32"><a xlink:href="https://roamresearch.com/#/app/ArtOfGig/page/lfZqzDmtI" xlink:title="Netlify Continuous\nIntegration">
<polygon fill="none" stroke="blue" points="657.54,-1433.96 664.52,-1434.11 671.43,-1434.32 678.23,-1434.62 684.91,-1434.98 691.44,-1435.41 697.78,-1435.91 703.92,-1436.48 709.83,-1437.12 715.49,-1437.82 720.88,-1438.58 725.97,-1439.41 730.77,-1440.29 735.24,-1441.23 739.37,-1442.22 743.16,-1443.26 746.6,-1444.35 749.67,-1445.48 752.37,-1446.66 754.7,-1447.87 756.66,-1449.12 758.24,-1450.4 759.45,-1451.71 760.3,-1453.04 760.78,-1454.4 760.91,-1455.77 760.7,-1457.15 760.15,-1458.54 759.27,-1459.94 758.08,-1461.35 756.6,-1462.75 754.82,-1464.14 752.78,-1465.52 750.47,-1466.89 747.93,-1468.25 745.16,-1469.58 742.18,-1470.89 739.01,-1472.17 735.66,-1473.42 732.14,-1474.63 728.47,-1475.81 724.66,-1476.94 720.74,-1478.03 716.7,-1479.07 712.56,-1480.06 708.34,-1481 704.04,-1481.88 699.68,-1482.71 695.26,-1483.47 690.78,-1484.17 686.27,-1484.81 681.72,-1485.38 677.15,-1485.88 672.55,-1486.31 667.93,-1486.67 663.29,-1486.96 658.64,-1487.18 653.99,-1487.33 649.33,-1487.4 644.67,-1487.4 640.01,-1487.33 635.36,-1487.18 630.71,-1486.96 626.07,-1486.67 621.45,-1486.31 616.85,-1485.88 612.28,-1485.38 607.73,-1484.81 603.22,-1484.17 598.74,-1483.47 594.32,-1482.71 589.96,-1481.88 585.66,-1481 581.44,-1480.06 577.3,-1479.07 573.26,-1478.03 569.34,-1476.94 565.53,-1475.81 561.86,-1474.63 558.34,-1473.42 554.99,-1472.17 551.82,-1470.89 548.84,-1469.58 546.07,-1468.25 543.53,-1466.89 541.22,-1465.52 539.18,-1464.14 537.4,-1462.75 535.92,-1461.35 534.73,-1459.94 533.85,-1458.54 533.3,-1457.15 533.09,-1455.77 533.22,-1454.4 533.7,-1453.04 534.55,-1451.71 535.76,-1450.4 537.34,-1449.12 539.3,-1447.87 541.63,-1446.66 544.33,-1445.48 547.4,-1444.35 550.84,-1443.26 554.63,-1442.22 558.76,-1441.23 563.23,-1440.29 568.03,-1439.41 573.12,-1438.58 578.51,-1437.82 584.17,-1437.12 590.08,-1436.48 596.22,-1435.91 602.56,-1435.41 609.09,-1434.98 615.77,-1434.62 622.57,-1434.32 629.48,-1434.11 636.46,-1433.96 643.48,-1433.89 650.52,-1433.89 657.54,-1433.96"/>
<text text-anchor="middle" x="647" y="-1464.44" font-family="Times,serif" font-size="14.00">Netlify Continuous</text>
<text text-anchor="middle" x="647" y="-1449.44" font-family="Times,serif" font-size="14.00">Integration</text>
</a>
</g>
</g>
<!-- netlify_applet&#45;&gt;netlify_ci -->
<g id="edge30" class="edge">
<title>netlify_applet&#45;&gt;netlify_ci</title>
<path fill="none" stroke="black" d="M1597.82,-1094.29C1607.53,-1145.79 1627.15,-1294.24 1549,-1367.77 1490.97,-1422.36 914.15,-1424.66 835,-1433.77 810.15,-1436.62 783.5,-1440.06 758.31,-1443.49"/>
<polygon fill="black" stroke="black" points="757.8,-1440.02 748.37,-1444.85 758.75,-1446.96 757.8,-1440.02"/>
<text text-anchor="middle" x="1661.5" y="-1289.78" font-family="Times,serif" font-size="14.00">Trigger rebuild</text>
<text text-anchor="middle" x="1661.5" y="-1274.78" font-family="Times,serif" font-size="14.00">every 24 hours</text>
</g>
<!-- github -->
<g id="node31" class="node">
<title>github</title>
<g id="a_node31"><a xlink:href="https://roamresearch.com/#/app/ArtOfGig/page/1PVNV7Ell" xlink:title="GitHub">
<polygon fill="none" stroke="blue" points="1728.36,-509.53 1731.25,-509.63 1734.11,-509.78 1736.92,-509.97 1739.69,-510.22 1742.39,-510.51 1745.01,-510.84 1747.55,-511.23 1750,-511.66 1752.34,-512.13 1754.57,-512.64 1756.68,-513.19 1758.66,-513.79 1760.51,-514.42 1762.22,-515.09 1763.79,-515.79 1765.21,-516.52 1766.48,-517.28 1767.6,-518.07 1768.56,-518.89 1769.37,-519.73 1770.03,-520.59 1770.53,-521.47 1770.88,-522.37 1771.08,-523.28 1771.13,-524.2 1771.04,-525.13 1770.82,-526.07 1770.45,-527.01 1769.96,-527.95 1769.35,-528.89 1768.61,-529.83 1767.77,-530.76 1766.81,-531.68 1765.76,-532.59 1764.62,-533.49 1763.38,-534.37 1762.07,-535.23 1760.68,-536.07 1759.23,-536.89 1757.71,-537.68 1756.13,-538.44 1754.51,-539.17 1752.84,-539.87 1751.13,-540.54 1749.38,-541.17 1747.6,-541.77 1745.8,-542.32 1743.97,-542.83 1742.12,-543.3 1740.25,-543.73 1738.37,-544.12 1736.47,-544.45 1734.57,-544.74 1732.66,-544.99 1730.74,-545.18 1728.82,-545.33 1726.89,-545.43 1724.96,-545.48 1723.04,-545.48 1721.11,-545.43 1719.18,-545.33 1717.26,-545.18 1715.34,-544.99 1713.43,-544.74 1711.53,-544.45 1709.63,-544.12 1707.75,-543.73 1705.88,-543.3 1704.03,-542.83 1702.2,-542.32 1700.4,-541.77 1698.62,-541.17 1696.87,-540.54 1695.16,-539.87 1693.49,-539.17 1691.87,-538.44 1690.29,-537.68 1688.77,-536.89 1687.32,-536.07 1685.93,-535.23 1684.62,-534.37 1683.38,-533.49 1682.24,-532.59 1681.19,-531.68 1680.23,-530.76 1679.39,-529.83 1678.65,-528.89 1678.04,-527.95 1677.55,-527.01 1677.18,-526.07 1676.96,-525.13 1676.87,-524.2 1676.92,-523.28 1677.12,-522.37 1677.47,-521.47 1677.97,-520.59 1678.63,-519.73 1679.44,-518.89 1680.4,-518.07 1681.52,-517.28 1682.79,-516.52 1684.21,-515.79 1685.78,-515.09 1687.49,-514.42 1689.34,-513.79 1691.32,-513.19 1693.43,-512.64 1695.66,-512.13 1698,-511.66 1700.45,-511.23 1702.99,-510.84 1705.61,-510.51 1708.31,-510.22 1711.08,-509.97 1713.89,-509.78 1716.75,-509.63 1719.64,-509.53 1722.54,-509.48 1725.46,-509.48 1728.36,-509.53"/>
<text text-anchor="middle" x="1724" y="-523.78" font-family="Times,serif" font-size="14.00">GitHub</text>
</a>
</g>
</g>
<!-- github&#45;&gt;netlify_ci -->
<g id="edge29" class="edge">
<title>github&#45;&gt;netlify_ci</title>
<path fill="none" stroke="black" d="M1724.65,-545.67C1726.38,-593.31 1731,-731.08 1731,-845.64 1731,-1286.98 1731,-1286.98 1731,-1286.98 1731,-1323.42 1743.12,-1342.36 1717,-1367.77 1646.54,-1436.28 932.92,-1425.45 835,-1433.77 809.35,-1435.94 781.85,-1439.2 756.01,-1442.68"/>
<polygon fill="black" stroke="black" points="755.25,-1439.25 745.82,-1444.08 756.2,-1446.19 755.25,-1439.25"/>
<text text-anchor="middle" x="1810.5" y="-1079" font-family="Times,serif" font-size="14.00">Repo contents pushed</text>
<text text-anchor="middle" x="1810.5" y="-1064" font-family="Times,serif" font-size="14.00">on commit</text>
</g>
<!-- jekyll -->
<g id="node33" class="node">
<title>jekyll</title>
<g id="a_node33"><a xlink:href="https://roamresearch.com/#/app/ArtOfGig/page/fF35dWNYl" xlink:title="Jekyll">
<polygon fill="none" stroke="blue" points="594,-1303.98 538,-1303.98 538,-1267.98 594,-1267.98 594,-1303.98"/>
<text text-anchor="middle" x="566" y="-1282.28" font-family="Times,serif" font-size="14.00">Jekyll</text>
</a>
</g>
</g>
<!-- netlify_ci&#45;&gt;jekyll -->
<g id="edge32" class="edge">
<title>netlify_ci&#45;&gt;jekyll</title>
<path fill="none" stroke="black" d="M634.87,-1433.8C619.68,-1401.4 593.76,-1346.16 578.43,-1313.47"/>
<polygon fill="black" stroke="black" points="581.44,-1311.67 574.03,-1304.1 575.11,-1314.64 581.44,-1311.67"/>
<text text-anchor="middle" x="674" y="-1397.07" font-family="Times,serif" font-size="14.00">Build website</text>
</g>
<!-- netlify_cdn -->
<g id="node34" class="node">
<title>netlify_cdn</title>
<g id="a_node34"><a xlink:href="https://roamresearch.com/#/app/ArtOfGig/page/R-E2CDAe2" xlink:title="Netlify\nCDN">
<polygon fill="none" stroke="blue" points="542.52,-1048.52 545.52,-1048.66 548.48,-1048.88 551.41,-1049.17 554.27,-1049.54 557.07,-1049.97 559.8,-1050.47 562.43,-1051.04 564.97,-1051.68 567.4,-1052.38 569.71,-1053.14 571.9,-1053.97 573.95,-1054.85 575.87,-1055.79 577.65,-1056.78 579.27,-1057.82 580.75,-1058.91 582.07,-1060.04 583.23,-1061.22 584.23,-1062.43 585.07,-1063.68 585.75,-1064.96 586.27,-1066.27 586.63,-1067.6 586.84,-1068.95 586.89,-1070.32 586.8,-1071.71 586.56,-1073.1 586.19,-1074.5 585.68,-1075.9 585.04,-1077.3 584.28,-1078.7 583.4,-1080.08 582.41,-1081.45 581.32,-1082.8 580.13,-1084.14 578.85,-1085.45 577.49,-1086.73 576.05,-1087.97 574.54,-1089.19 572.97,-1090.36 571.33,-1091.5 569.65,-1092.59 567.92,-1093.63 566.14,-1094.62 564.33,-1095.56 562.48,-1096.44 560.61,-1097.26 558.71,-1098.03 556.79,-1098.73 554.86,-1099.36 552.9,-1099.93 550.94,-1100.44 548.96,-1100.87 546.98,-1101.23 544.99,-1101.52 543,-1101.74 541,-1101.89 539,-1101.96 537,-1101.96 535,-1101.89 533,-1101.74 531.01,-1101.52 529.02,-1101.23 527.04,-1100.87 525.06,-1100.44 523.1,-1099.93 521.14,-1099.36 519.21,-1098.73 517.29,-1098.03 515.39,-1097.26 513.52,-1096.44 511.67,-1095.56 509.86,-1094.62 508.08,-1093.63 506.35,-1092.59 504.67,-1091.5 503.03,-1090.36 501.46,-1089.19 499.95,-1087.97 498.51,-1086.73 497.15,-1085.45 495.87,-1084.14 494.68,-1082.8 493.59,-1081.45 492.6,-1080.08 491.72,-1078.7 490.96,-1077.3 490.32,-1075.9 489.81,-1074.5 489.44,-1073.1 489.2,-1071.71 489.11,-1070.32 489.16,-1068.95 489.37,-1067.6 489.73,-1066.27 490.25,-1064.96 490.93,-1063.68 491.77,-1062.43 492.77,-1061.22 493.93,-1060.04 495.25,-1058.91 496.73,-1057.82 498.35,-1056.78 500.13,-1055.79 502.05,-1054.85 504.1,-1053.97 506.29,-1053.14 508.6,-1052.38 511.03,-1051.68 513.57,-1051.04 516.2,-1050.47 518.93,-1049.97 521.73,-1049.54 524.59,-1049.17 527.52,-1048.88 530.48,-1048.66 533.48,-1048.52 536.49,-1048.44 539.51,-1048.44 542.52,-1048.52"/>
<text text-anchor="middle" x="538" y="-1079" font-family="Times,serif" font-size="14.00">Netlify</text>
<text text-anchor="middle" x="538" y="-1064" font-family="Times,serif" font-size="14.00">CDN</text>
</a>
</g>
</g>
<!-- jekyll&#45;&gt;netlify_cdn -->
<g id="edge33" class="edge">
<title>jekyll&#45;&gt;netlify_cdn</title>
<path fill="none" stroke="black" d="M563.71,-1267.9C559.16,-1234.02 548.93,-1157.67 542.83,-1112.21"/>
<polygon fill="black" stroke="black" points="546.28,-1111.63 541.48,-1102.19 539.35,-1112.56 546.28,-1111.63"/>
<text text-anchor="middle" x="619" y="-1175" font-family="Times,serif" font-size="14.00">Optimize &amp; deploy</text>
<text text-anchor="middle" x="619" y="-1160" font-family="Times,serif" font-size="14.00">website files</text>
</g>
<!-- website -->
<g id="node35" class="node">
<title>website</title>
<g id="a_node35"><a xlink:href="https://roamresearch.com/#/app/ArtOfGig/page/h0Wx539Oq" xlink:title="Yak Collective\nWebsite">
<ellipse fill="none" stroke="green" cx="323" cy="-846.64" rx="82.05" ry="82.05"/>
<ellipse fill="none" stroke="green" cx="323" cy="-846.64" rx="86.05" ry="86.05"/>
<text text-anchor="middle" x="323" y="-850.44" font-family="Times,serif" font-size="14.00">Yak Collective</text>
<text text-anchor="middle" x="323" y="-835.44" font-family="Times,serif" font-size="14.00">Website</text>
</a>
</g>
</g>
<!-- netlify_cdn&#45;&gt;website -->
<g id="edge35" class="edge">
<title>netlify_cdn&#45;&gt;website</title>
<path fill="none" stroke="black" d="M489.26,-1073.08C453.7,-1069.67 406.71,-1059.4 377,-1030.32 353.44,-1007.26 340.03,-974.44 332.46,-942.98"/>
<polygon fill="black" stroke="black" points="335.78,-941.82 330.19,-932.82 328.95,-943.35 335.78,-941.82"/>
<text text-anchor="middle" x="434.5" y="-1019.12" font-family="Times,serif" font-size="14.00">Push to Amazon</text>
<text text-anchor="middle" x="434.5" y="-1004.12" font-family="Times,serif" font-size="14.00">Cloudfront</text>
</g>
<!-- featured_yak -->
<g id="node36" class="node">
<title>featured_yak</title>
<g id="a_node36"><a xlink:href="https://roamresearch.com/#/app/ArtOfGig/page/ZzuH6YDFq" xlink:title="&quot;Featured Yak&quot;\nRSS Feed">
<ellipse fill="none" stroke="green" cx="519" cy="-846.64" rx="87.85" ry="87.85"/>
<ellipse fill="none" stroke="green" cx="519" cy="-846.64" rx="91.86" ry="91.86"/>
<text text-anchor="middle" x="519" y="-850.44" font-family="Times,serif" font-size="14.00">&quot;Featured Yak&quot;</text>
<text text-anchor="middle" x="519" y="-835.44" font-family="Times,serif" font-size="14.00">RSS Feed</text>
</a>
</g>
</g>
<!-- netlify_cdn&#45;&gt;featured_yak -->
<g id="edge36" class="edge">
<title>netlify_cdn&#45;&gt;featured_yak</title>
<path fill="none" stroke="black" d="M514.41,-1050.47C509.74,-1044.37 505.51,-1037.5 503,-1030.32 493.73,-1003.83 492.74,-973.91 495.43,-946.08"/>
<polygon fill="black" stroke="black" points="498.93,-946.26 496.58,-935.93 491.98,-945.47 498.93,-946.26"/>
<text text-anchor="middle" x="560.5" y="-1019.12" font-family="Times,serif" font-size="14.00">Push to Amazon</text>
<text text-anchor="middle" x="560.5" y="-1004.12" font-family="Times,serif" font-size="14.00">Cloudfront</text>
</g>
<!-- netlify_cdn&#45;&gt;create_post -->
<g id="edge37" class="edge">
<title>netlify_cdn&#45;&gt;create_post</title>
<path fill="none" stroke="black" d="M579.62,-1057.59C593.12,-1050.69 607.34,-1041.61 618,-1030.32 661.21,-984.57 686.55,-913.38 697.87,-874.77"/>
<polygon fill="black" stroke="black" points="701.34,-875.37 700.69,-864.79 694.6,-873.46 701.34,-875.37"/>
<text text-anchor="middle" x="698.5" y="-1019.12" font-family="Times,serif" font-size="14.00">Create Amazon</text>
<text text-anchor="middle" x="698.5" y="-1004.12" font-family="Times,serif" font-size="14.00">Lambda function</text>
</g>
<!-- website&#45;&gt;google_analytics -->
<g id="edge1" class="edge">
<title>website&#45;&gt;google_analytics</title>
<path fill="none" stroke="black" d="M379.06,-781.25C391.69,-767.15 405.16,-752.42 418,-738.96 438.18,-717.81 448.45,-717.05 465,-692.96 493.05,-652.13 513.68,-598.43 525.26,-563.69"/>
<polygon fill="black" stroke="black" points="528.66,-564.58 528.43,-553.98 522,-562.41 528.66,-564.58"/>
<text text-anchor="middle" x="516" y="-712.26" font-family="Times,serif" font-size="14.00">Visitor analytics</text>
</g>
<!-- website&#45;&gt;reboot_deck -->
<g id="edge2" class="edge">
<title>website&#45;&gt;reboot_deck</title>
<path fill="none" stroke="red" d="M370.94,-774.96C384.36,-760.49 400.22,-747.18 418,-738.96 452.9,-722.82 729.2,-747.32 764,-730.96 807.45,-710.54 840.19,-669.46 863.3,-629.61"/>
<polygon fill="red" stroke="red" points="866.37,-631.29 868.23,-620.86 860.27,-627.85 866.37,-631.29"/>
<text text-anchor="middle" x="878" y="-712.26" font-family="Times,serif" font-size="14.00">Google Slides / PDF</text>
</g>
<!-- website&#45;&gt;home_deck -->
<g id="edge3" class="edge">
<title>website&#45;&gt;home_deck</title>
<path fill="none" stroke="red" d="M371.1,-775.3C384.52,-760.82 400.33,-747.42 418,-738.96 450.11,-723.58 546.11,-746.78 578,-730.96 622.81,-708.73 653,-662.09 672.36,-619.16"/>
<polygon fill="red" stroke="red" points="675.66,-620.35 676.45,-609.78 669.25,-617.55 675.66,-620.35"/>
<text text-anchor="middle" x="689" y="-712.26" font-family="Times,serif" font-size="14.00">Google Slides / PDF</text>
</g>
<!-- website&#45;&gt;ogs_paper -->
<g id="edge4" class="edge">
<title>website&#45;&gt;ogs_paper</title>
<path fill="none" stroke="red" d="M278.03,-772.88C252.13,-730.96 219.14,-677.58 190.61,-631.41"/>
<polygon fill="red" stroke="red" points="193.57,-629.55 185.34,-622.88 187.62,-633.23 193.57,-629.55"/>
<text text-anchor="middle" x="288" y="-719.76" font-family="Times,serif" font-size="14.00">Mirror</text>
<text text-anchor="middle" x="288" y="-704.76" font-family="Times,serif" font-size="14.00">publication</text>
</g>
<!-- knack -->
<g id="node40" class="node">
<title>knack</title>
<g id="a_node40"><a xlink:href="https://roamresearch.com/#/app/ArtOfGig/page/FDjmLsCeR" xlink:title="Knack">
<polygon fill="none" stroke="green" points="1115.85,-1268.03 1118.39,-1268.13 1120.91,-1268.28 1123.39,-1268.48 1125.83,-1268.72 1128.21,-1269.01 1130.53,-1269.35 1132.76,-1269.73 1134.92,-1270.16 1136.99,-1270.63 1138.95,-1271.14 1140.81,-1271.7 1142.56,-1272.29 1144.19,-1272.92 1145.7,-1273.59 1147.08,-1274.29 1148.33,-1275.02 1149.45,-1275.79 1150.44,-1276.58 1151.29,-1277.39 1152,-1278.23 1152.58,-1279.09 1153.02,-1279.97 1153.33,-1280.87 1153.51,-1281.78 1153.56,-1282.7 1153.48,-1283.63 1153.28,-1284.57 1152.96,-1285.51 1152.53,-1286.46 1151.98,-1287.4 1151.34,-1288.33 1150.59,-1289.27 1149.75,-1290.19 1148.82,-1291.1 1147.81,-1291.99 1146.72,-1292.87 1145.57,-1293.74 1144.34,-1294.58 1143.06,-1295.39 1141.72,-1296.18 1140.33,-1296.95 1138.9,-1297.68 1137.43,-1298.38 1135.92,-1299.05 1134.38,-1299.68 1132.81,-1300.27 1131.22,-1300.82 1129.6,-1301.34 1127.97,-1301.81 1126.33,-1302.24 1124.67,-1302.62 1123,-1302.96 1121.32,-1303.25 1119.63,-1303.49 1117.94,-1303.69 1116.25,-1303.84 1114.55,-1303.93 1112.85,-1303.98 1111.15,-1303.98 1109.45,-1303.93 1107.75,-1303.84 1106.06,-1303.69 1104.37,-1303.49 1102.68,-1303.25 1101,-1302.96 1099.33,-1302.62 1097.67,-1302.24 1096.03,-1301.81 1094.4,-1301.34 1092.78,-1300.82 1091.19,-1300.27 1089.62,-1299.68 1088.08,-1299.05 1086.57,-1298.38 1085.1,-1297.68 1083.67,-1296.95 1082.28,-1296.18 1080.94,-1295.39 1079.66,-1294.58 1078.43,-1293.74 1077.28,-1292.87 1076.19,-1291.99 1075.18,-1291.1 1074.25,-1290.19 1073.41,-1289.27 1072.66,-1288.33 1072.02,-1287.4 1071.47,-1286.46 1071.04,-1285.51 1070.72,-1284.57 1070.52,-1283.63 1070.44,-1282.7 1070.49,-1281.78 1070.67,-1280.87 1070.98,-1279.97 1071.42,-1279.09 1072,-1278.23 1072.71,-1277.39 1073.56,-1276.58 1074.55,-1275.79 1075.67,-1275.02 1076.92,-1274.29 1078.3,-1273.59 1079.81,-1272.92 1081.44,-1272.29 1083.19,-1271.7 1085.05,-1271.14 1087.01,-1270.63 1089.08,-1270.16 1091.24,-1269.73 1093.47,-1269.35 1095.79,-1269.01 1098.17,-1268.72 1100.61,-1268.48 1103.09,-1268.28 1105.61,-1268.13 1108.15,-1268.03 1110.72,-1267.98 1113.28,-1267.98 1115.85,-1268.03"/>
<text text-anchor="middle" x="1112" y="-1282.28" font-family="Times,serif" font-size="14.00">Knack</text>
</a>
</g>
</g>
<!-- website&#45;&gt;knack -->
<g id="edge6" class="edge">
<title>website&#45;&gt;knack</title>
<path fill="none" stroke="red" d="M356.02,-926.52C370.97,-952.17 391.37,-977.77 418,-992.32 436.11,-1002.22 1146.48,-985.65 1161,-1000.32 1196.83,-1036.54 1144.91,-1194.59 1121.97,-1258.26"/>
<polygon fill="red" stroke="red" points="1118.56,-1257.39 1118.43,-1267.98 1125.14,-1259.78 1118.56,-1257.39"/>
<text text-anchor="middle" x="1225.5" y="-1079" font-family="Times,serif" font-size="14.00">Sign up form</text>
<text text-anchor="middle" x="1225.5" y="-1064" font-family="Times,serif" font-size="14.00">(minimal data)</text>
</g>
<!-- featured_yak&#45;&gt;twitter_applets -->
<g id="edge47" class="edge">
<title>featured_yak&#45;&gt;twitter_applets</title>
<path fill="none" stroke="black" d="M558.71,-929.74C574.99,-954.37 596.37,-978.49 623,-992.32 660.08,-1011.58 1335.05,-988.1 1375,-1000.32 1407,-1010.11 1438.35,-1032.18 1459.71,-1049.66"/>
<polygon fill="black" stroke="black" points="1457.47,-1052.35 1467.38,-1056.1 1461.97,-1046.99 1457.47,-1052.35"/>
<text text-anchor="middle" x="1466" y="-1019.12" font-family="Times,serif" font-size="14.00">Pulled</text>
<text text-anchor="middle" x="1466" y="-1004.12" font-family="Times,serif" font-size="14.00">by IFTTT</text>
</g>
<!-- create_post&#45;&gt;discord -->
<g id="edge44" class="edge">
<title>create_post&#45;&gt;discord</title>
<path fill="none" stroke="black" d="M753.68,-836.97C824.79,-821.53 955.59,-782.13 1020,-692.96 1053.62,-646.41 1151.48,-229.34 1115,-185 1071.9,-132.61 869.84,-114.43 769.64,-108.57"/>
<polygon fill="black" stroke="black" points="769.57,-105.06 759.39,-107.99 769.18,-112.05 769.57,-105.06"/>
<text text-anchor="middle" x="1168.5" y="-386.8" font-family="Times,serif" font-size="14.00">Post in</text>
<text text-anchor="middle" x="1168.5" y="-371.8" font-family="Times,serif" font-size="14.00">#yaktalk&#45;content</text>
</g>
<!-- create_post&#45;&gt;github -->
<g id="edge43" class="edge">
<title>create_post&#45;&gt;github</title>
<path fill="none" stroke="black" d="M753.57,-840.48C836.25,-830.05 1007.64,-801.17 1134,-730.96 1151.04,-721.49 1147.93,-708.28 1166,-700.96 1191.44,-690.66 1637.47,-708.64 1660,-692.96 1704.87,-661.74 1718.28,-594.16 1722.29,-556.06"/>
<polygon fill="black" stroke="black" points="1725.81,-555.97 1723.22,-545.7 1718.84,-555.34 1725.81,-555.97"/>
<text text-anchor="middle" x="1213.5" y="-719.76" font-family="Times,serif" font-size="14.00">Commit new</text>
<text text-anchor="middle" x="1213.5" y="-704.76" font-family="Times,serif" font-size="14.00">member post</text>
</g>
<!-- namecheap -->
<g id="node38" class="node">
<title>namecheap</title>
<g id="a_node38"><a xlink:href="https://roamresearch.com/#/app/ArtOfGig/page/SrB_NQUiU" xlink:title="Namecheap">
<polygon fill="none" stroke="blue" points="853.46,-1057.25 857.74,-1057.35 861.97,-1057.5 866.14,-1057.69 870.24,-1057.94 874.23,-1058.23 878.12,-1058.57 881.88,-1058.95 885.51,-1059.38 888.97,-1059.85 892.28,-1060.36 895.4,-1060.92 898.34,-1061.51 901.08,-1062.14 903.61,-1062.81 905.94,-1063.51 908.04,-1064.24 909.92,-1065 911.58,-1065.79 913.01,-1066.61 914.2,-1067.45 915.18,-1068.31 915.92,-1069.19 916.44,-1070.09 916.73,-1071 916.81,-1071.92 916.68,-1072.85 916.34,-1073.79 915.81,-1074.73 915.08,-1075.67 914.17,-1076.61 913.08,-1077.55 911.83,-1078.48 910.42,-1079.41 908.86,-1080.32 907.16,-1081.21 905.33,-1082.09 903.39,-1082.95 901.33,-1083.79 899.18,-1084.61 896.93,-1085.4 894.6,-1086.16 892.19,-1086.9 889.72,-1087.6 887.18,-1088.26 884.59,-1088.89 881.96,-1089.49 879.28,-1090.04 876.57,-1090.55 873.83,-1091.03 871.07,-1091.45 868.28,-1091.84 865.48,-1092.18 862.66,-1092.47 859.82,-1092.71 856.98,-1092.91 854.14,-1093.05 851.28,-1093.15 848.43,-1093.2 845.57,-1093.2 842.72,-1093.15 839.86,-1093.05 837.02,-1092.91 834.18,-1092.71 831.34,-1092.47 828.52,-1092.18 825.72,-1091.84 822.93,-1091.45 820.17,-1091.03 817.43,-1090.55 814.72,-1090.04 812.04,-1089.49 809.41,-1088.89 806.82,-1088.26 804.28,-1087.6 801.81,-1086.9 799.4,-1086.16 797.07,-1085.4 794.82,-1084.61 792.67,-1083.79 790.61,-1082.95 788.67,-1082.09 786.84,-1081.21 785.14,-1080.32 783.58,-1079.41 782.17,-1078.48 780.92,-1077.55 779.83,-1076.61 778.92,-1075.67 778.19,-1074.73 777.66,-1073.79 777.32,-1072.85 777.19,-1071.92 777.27,-1071 777.56,-1070.09 778.08,-1069.19 778.82,-1068.31 779.8,-1067.45 780.99,-1066.61 782.42,-1065.79 784.08,-1065 785.96,-1064.24 788.06,-1063.51 790.39,-1062.81 792.92,-1062.14 795.66,-1061.51 798.6,-1060.92 801.72,-1060.36 805.03,-1059.85 808.49,-1059.38 812.12,-1058.95 815.88,-1058.57 819.77,-1058.23 823.76,-1057.94 827.86,-1057.69 832.03,-1057.5 836.26,-1057.35 840.54,-1057.25 844.84,-1057.2 849.16,-1057.2 853.46,-1057.25"/>
<text text-anchor="middle" x="847" y="-1071.5" font-family="Times,serif" font-size="14.00">Namecheap</text>
</a>
</g>
</g>
<!-- namecheap&#45;&gt;website -->
<g id="edge34" class="edge">
<title>namecheap&#45;&gt;website</title>
<path fill="none" stroke="red" d="M822.4,-1057.84C811.61,-1050.11 799.12,-1040.38 789,-1030.32 777.08,-1018.48 780.98,-1007.93 766,-1000.32 731.51,-982.81 451.82,-1011.08 418,-992.32 394.47,-979.27 375.77,-957.64 361.41,-935.04"/>
<polygon fill="red" stroke="red" points="364.31,-933.07 356.12,-926.34 358.33,-936.7 364.31,-933.07"/>
<text text-anchor="middle" x="849.5" y="-1011.62" font-family="Times,serif" font-size="14.00">DNS information</text>
</g>
<!-- cloudinary -->
<g id="node39" class="node">
<title>cloudinary</title>
<g id="a_node39"><a xlink:href="https://roamresearch.com/#/app/ArtOfGig/page/aZug23GyY" xlink:title="Cloudinary">
<polygon fill="none" stroke="blue" points="1007.06,-1057.25 1011.08,-1057.35 1015.05,-1057.5 1018.96,-1057.69 1022.8,-1057.94 1026.55,-1058.23 1030.2,-1058.57 1033.73,-1058.95 1037.13,-1059.38 1040.39,-1059.85 1043.48,-1060.36 1046.42,-1060.92 1049.17,-1061.51 1051.74,-1062.14 1054.12,-1062.81 1056.3,-1063.51 1058.28,-1064.24 1060.04,-1065 1061.6,-1065.79 1062.94,-1066.61 1064.06,-1067.45 1064.97,-1068.31 1065.67,-1069.19 1066.16,-1070.09 1066.43,-1071 1066.51,-1071.92 1066.39,-1072.85 1066.07,-1073.79 1065.56,-1074.73 1064.88,-1075.67 1064.03,-1076.61 1063.01,-1077.55 1061.83,-1078.48 1060.51,-1079.41 1059.04,-1080.32 1057.45,-1081.21 1055.74,-1082.09 1053.91,-1082.95 1051.98,-1083.79 1049.96,-1084.61 1047.85,-1085.4 1045.66,-1086.16 1043.4,-1086.9 1041.08,-1087.6 1038.7,-1088.26 1036.28,-1088.89 1033.8,-1089.49 1031.29,-1090.04 1028.75,-1090.55 1026.18,-1091.03 1023.58,-1091.45 1020.97,-1091.84 1018.34,-1092.18 1015.69,-1092.47 1013.03,-1092.71 1010.37,-1092.91 1007.7,-1093.05 1005.02,-1093.15 1002.34,-1093.2 999.66,-1093.2 996.98,-1093.15 994.3,-1093.05 991.63,-1092.91 988.97,-1092.71 986.31,-1092.47 983.66,-1092.18 981.03,-1091.84 978.42,-1091.45 975.82,-1091.03 973.25,-1090.55 970.71,-1090.04 968.2,-1089.49 965.72,-1088.89 963.3,-1088.26 960.92,-1087.6 958.6,-1086.9 956.34,-1086.16 954.15,-1085.4 952.04,-1084.61 950.02,-1083.79 948.09,-1082.95 946.26,-1082.09 944.55,-1081.21 942.96,-1080.32 941.49,-1079.41 940.17,-1078.48 938.99,-1077.55 937.97,-1076.61 937.12,-1075.67 936.44,-1074.73 935.93,-1073.79 935.61,-1072.85 935.49,-1071.92 935.57,-1071 935.84,-1070.09 936.33,-1069.19 937.03,-1068.31 937.94,-1067.45 939.06,-1066.61 940.4,-1065.79 941.96,-1065 943.72,-1064.24 945.7,-1063.51 947.88,-1062.81 950.26,-1062.14 952.83,-1061.51 955.58,-1060.92 958.52,-1060.36 961.61,-1059.85 964.87,-1059.38 968.27,-1058.95 971.8,-1058.57 975.45,-1058.23 979.2,-1057.94 983.04,-1057.69 986.95,-1057.5 990.92,-1057.35 994.94,-1057.25 998.98,-1057.2 1003.02,-1057.2 1007.06,-1057.25"/>
<text text-anchor="middle" x="1001" y="-1071.5" font-family="Times,serif" font-size="14.00">Cloudinary</text>
</a>
</g>
</g>
<!-- cloudinary&#45;&gt;website -->
<g id="edge39" class="edge">
<title>cloudinary&#45;&gt;website</title>
<path fill="none" stroke="red" d="M971.98,-1058.5C959.29,-1050.9 944.67,-1041.09 933,-1030.32 920.65,-1018.93 925.01,-1007.88 910,-1000.32 885.58,-988.03 441.95,-1005.5 418,-992.32 394.42,-979.35 375.71,-957.75 361.35,-935.14"/>
<polygon fill="red" stroke="red" points="364.25,-933.17 356.06,-926.44 358.27,-936.8 364.25,-933.17"/>
<text text-anchor="middle" x="981.5" y="-1019.12" font-family="Times,serif" font-size="14.00">Serve images</text>
<text text-anchor="middle" x="981.5" y="-1004.12" font-family="Times,serif" font-size="14.00">to visitors</text>
</g>
<!-- knack&#45;&gt;discord -->
<g id="edge7" class="edge">
<title>knack&#45;&gt;discord</title>
<path fill="none" stroke="red" d="M1121.91,-1268.24C1139.65,-1239.93 1179.72,-1183.08 1230,-1156.2 1250.62,-1145.18 1266.77,-1165.95 1282,-1148.2 1338.55,-1082.28 1293.81,-430.98 1234,-368 1215.47,-348.49 1193.98,-378.02 1174,-360 1114.6,-306.43 1189.93,-240.15 1132,-185 1080.55,-136.02 870.78,-116.08 768.96,-109.17"/>
<polygon fill="red" stroke="red" points="769.07,-105.67 758.87,-108.5 768.61,-112.65 769.07,-105.67"/>
<text text-anchor="middle" x="1335.5" y="-712.26" font-family="Times,serif" font-size="14.00">Invite link</text>
</g>
<!-- knack&#45;&gt;netlify_ci -->
<g id="edge31" class="edge">
<title>knack&#45;&gt;netlify_ci</title>
<path fill="none" stroke="black" d="M1084.24,-1297.29C1013.06,-1323.72 822.27,-1394.56 717.8,-1433.36"/>
<polygon fill="black" stroke="black" points="716.43,-1430.13 708.27,-1436.9 718.86,-1436.7 716.43,-1430.13"/>
<text text-anchor="middle" x="911" y="-1404.57" font-family="Times,serif" font-size="14.00">Pull member data</text>
<text text-anchor="middle" x="911" y="-1389.57" font-family="Times,serif" font-size="14.00">during build process</text>
</g>
<!-- knack&#45;&gt;cloudinary -->
<g id="edge38" class="edge">
<title>knack&#45;&gt;cloudinary</title>
<path fill="none" stroke="black" d="M1103.1,-1268.25C1083.78,-1231.91 1037.86,-1145.54 1014.77,-1102.09"/>
<polygon fill="black" stroke="black" points="1017.72,-1100.2 1009.94,-1093.01 1011.54,-1103.49 1017.72,-1100.2"/>
<text text-anchor="middle" x="1095" y="-1175" font-family="Times,serif" font-size="14.00">Image</text>
<text text-anchor="middle" x="1095" y="-1160" font-family="Times,serif" font-size="14.00">processing</text>
</g>
<!-- roam -->
<g id="node41" class="node">
<title>roam</title>
<g id="a_node41"><a xlink:href="https://roamresearch.com/#/app/ArtOfGig/page/FEPWC0DLJ" xlink:title="Roam">
<polygon fill="none" stroke="green" points="1801.65,-828.69 1804.06,-828.79 1806.45,-828.94 1808.8,-829.13 1811.11,-829.38 1813.37,-829.67 1815.57,-830.01 1817.69,-830.39 1819.73,-830.82 1821.69,-831.29 1823.56,-831.8 1825.32,-832.36 1826.98,-832.95 1828.52,-833.58 1829.95,-834.25 1831.26,-834.95 1832.45,-835.68 1833.51,-836.44 1834.45,-837.23 1835.26,-838.05 1835.93,-838.89 1836.48,-839.75 1836.9,-840.63 1837.19,-841.53 1837.36,-842.44 1837.4,-843.36 1837.33,-844.29 1837.14,-845.23 1836.84,-846.17 1836.43,-847.11 1835.91,-848.05 1835.3,-848.99 1834.59,-849.92 1833.79,-850.85 1832.91,-851.76 1831.96,-852.65 1830.93,-853.53 1829.83,-854.39 1828.67,-855.23 1827.45,-856.05 1826.18,-856.84 1824.87,-857.6 1823.51,-858.34 1822.11,-859.04 1820.68,-859.7 1819.22,-860.33 1817.73,-860.93 1816.22,-861.48 1814.69,-861.99 1813.15,-862.47 1811.58,-862.89 1810.01,-863.28 1808.43,-863.62 1806.84,-863.91 1805.24,-864.15 1803.63,-864.35 1802.03,-864.49 1800.42,-864.59 1798.81,-864.64 1797.19,-864.64 1795.58,-864.59 1793.97,-864.49 1792.37,-864.35 1790.76,-864.15 1789.16,-863.91 1787.57,-863.62 1785.99,-863.28 1784.42,-862.89 1782.85,-862.47 1781.31,-861.99 1779.78,-861.48 1778.27,-860.93 1776.78,-860.33 1775.32,-859.7 1773.89,-859.04 1772.49,-858.34 1771.13,-857.6 1769.82,-856.84 1768.55,-856.05 1767.33,-855.23 1766.17,-854.39 1765.07,-853.53 1764.04,-852.65 1763.09,-851.76 1762.21,-850.85 1761.41,-849.92 1760.7,-848.99 1760.09,-848.05 1759.57,-847.11 1759.16,-846.17 1758.86,-845.23 1758.67,-844.29 1758.6,-843.36 1758.64,-842.44 1758.81,-841.53 1759.1,-840.63 1759.52,-839.75 1760.07,-838.89 1760.74,-838.05 1761.55,-837.23 1762.49,-836.44 1763.55,-835.68 1764.74,-834.95 1766.05,-834.25 1767.48,-833.58 1769.02,-832.95 1770.68,-832.36 1772.44,-831.8 1774.31,-831.29 1776.27,-830.82 1778.31,-830.39 1780.43,-830.01 1782.63,-829.67 1784.89,-829.38 1787.2,-829.13 1789.55,-828.94 1791.94,-828.79 1794.35,-828.69 1796.78,-828.64 1799.22,-828.64 1801.65,-828.69"/>
<text text-anchor="middle" x="1798" y="-842.94" font-family="Times,serif" font-size="14.00">Roam</text>
</a>
</g>
</g>
<!-- roam&#45;&gt;github -->
<g id="edge51" class="edge">
<title>roam&#45;&gt;github</title>
<path fill="none" stroke="black" d="M1794.02,-828.59C1781.88,-776.53 1745.2,-619.34 1730.35,-555.69"/>
<polygon fill="black" stroke="black" points="1733.68,-554.56 1728,-545.62 1726.86,-556.15 1733.68,-554.56"/>
<text text-anchor="middle" x="1823.5" y="-712.26" font-family="Times,serif" font-size="14.00">Nightly backup</text>
</g>
<!-- visitor -->
<g id="node42" class="node">
<title>visitor</title>
</g>
<!-- visitor&#45;&gt;website -->
<g id="edge5" class="edge">
<title>visitor&#45;&gt;website</title>
<path fill="none" stroke="red" d="M1088.27,-1057.03C1073.28,-1046.11 1056.16,-1033.44 1053,-1030.32 1041.03,-1018.53 1045.02,-1007.86 1030,-1000.32 999.61,-985.08 447.82,-1008.67 418,-992.32 394.4,-979.39 375.69,-957.8 361.33,-935.19"/>
<polygon fill="red" stroke="red" points="364.22,-933.21 356.04,-926.49 358.24,-936.85 364.22,-933.21"/>
<text text-anchor="middle" x="1107" y="-1011.62" font-family="Times,serif" font-size="14.00">Website visitor</text>
</g>
<!-- developer -->
<g id="node43" class="node">
<title>developer</title>
</g>
<!-- developer&#45;&gt;github -->
<g id="edge28" class="edge">
<title>developer&#45;&gt;github</title>
<path fill="none" stroke="red" d="M1630.35,-828.57C1621.85,-799.38 1609.5,-739.35 1637,-700.96 1643.3,-692.16 1652.21,-700.47 1660,-692.96 1698.78,-655.57 1714.48,-591.96 1720.51,-555.78"/>
<polygon fill="red" stroke="red" points="1724.03,-555.9 1722.09,-545.49 1717.11,-554.84 1724.03,-555.9"/>
<text text-anchor="middle" x="1677" y="-712.26" font-family="Times,serif" font-size="14.00">Git commit</text>
</g>
<!-- driver -->
<g id="node44" class="node">
<title>driver</title>
</g>
<!-- driver&#45;&gt;pagekite_frontend -->
<g id="edge25" class="edge">
<title>driver&#45;&gt;pagekite_frontend</title>
<path fill="none" stroke="red" d="M285.56,-509.28C292.29,-464.14 310.49,-341.97 318.78,-286.31"/>
<polygon fill="red" stroke="red" points="322.29,-286.52 320.3,-276.11 315.37,-285.49 322.29,-286.52"/>
<text text-anchor="middle" x="333.5" y="-386.8" font-family="Times,serif" font-size="14.00">Rover</text>
<text text-anchor="middle" x="333.5" y="-371.8" font-family="Times,serif" font-size="14.00">API call</text>
</g>
</g>
</svg>
